# Generated by scripts/gen_crossarms.py
mtllib alley.mtl
o crossarm_alley_fiberglass_6_r
vt 0 0
vt 1 0
vt 1 1
vt 0 1
usemtl clamp
v 0.343750 0.125000 1.000000
v 0.656250 0.125000 1.000000
v 0.656250 0.437500 1.000000
v 0.343750 0.437500 1.000000
vn 0.000000 0.000000 1.000000
f 1/1/1 2/2/1 3/3/1 4/4/1
v 0.656250 0.125000 0.962500
v 0.343750 0.125000 0.962500
v 0.343750 0.437500 0.962500
v 0.656250 0.437500 0.962500
vn 0.000000 0.000000 -1.000000
f 5/1/2 6/2/2 7/3/2 8/4/2
v 0.656250 0.125000 1.000000
v 0.656250 0.125000 0.962500
v 0.656250 0.437500 0.962500
v 0.656250 0.437500 1.000000
vn 1.000000 -0.000000 0.000000
f 9/1/3 10/2/3 11/3/3 12/4/3
v 0.343750 0.125000 0.962500
v 0.343750 0.125000 1.000000
v 0.343750 0.437500 1.000000
v 0.343750 0.437500 0.962500
vn -1.000000 0.000000 0.000000
f 13/1/4 14/2/4 15/3/4 16/4/4
v 0.343750 0.437500 1.000000
v 0.656250 0.437500 1.000000
v 0.656250 0.437500 0.962500
v 0.343750 0.437500 0.962500
vn -0.000000 1.000000 0.000000
f 17/1/5 18/2/5 19/3/5 20/4/5
v 0.343750 0.125000 0.962500
v 0.656250 0.125000 0.962500
v 0.656250 0.125000 1.000000
v 0.343750 0.125000 1.000000
vn 0.000000 -1.000000 0.000000
f 21/1/6 22/2/6 23/3/6 24/4/6
usemtl strap
v 0.599885 0.281250 1.018476
v 4.506135 1.718750 0.668476
v 4.487675 1.764394 0.649913
v 0.581425 0.326894 0.999913
vn -0.048723 0.359308 0.931946
f 25/1/7 26/2/7 27/3/7 28/4/7
v 0.581425 0.326894 0.999913
v 4.487675 1.764394 0.649913
v 4.476435 1.783301 0.602111
v 0.570185 0.345801 0.952111
vn -0.282526 0.867446 0.409531
f 29/1/8 30/2/8 31/3/8 32/4/8
v 0.570185 0.345801 0.952111
v 4.476435 1.783301 0.602111
v 4.478998 1.764394 0.553073
v 0.572748 0.326894 0.903073
vn -0.350830 0.867446 -0.352782
f 33/1/9 34/2/9 35/3/9 36/4/9
v 0.572748 0.326894 0.903073
v 4.478998 1.764394 0.553073
v 4.493865 1.718750 0.531524
v 0.587615 0.281250 0.881524
vn -0.213622 0.359308 -0.908440
f 37/1/10 38/2/10 39/3/10 40/4/10
v 0.587615 0.281250 0.881524
v 4.493865 1.718750 0.531524
v 4.512325 1.673106 0.550087
v 0.606075 0.235606 0.900087
vn 0.048723 -0.359308 -0.931946
f 41/1/11 42/2/11 43/3/11 44/4/11
v 0.606075 0.235606 0.900087
v 4.512325 1.673106 0.550087
v 4.523565 1.654199 0.597889
v 0.617315 0.216699 0.947889
vn 0.282526 -0.867446 -0.409531
f 45/1/12 46/2/12 47/3/12 48/4/12
v 0.617315 0.216699 0.947889
v 4.523565 1.654199 0.597889
v 4.521002 1.673106 0.646927
v 0.614752 0.235606 0.996927
vn 0.350830 -0.867446 0.352782
f 49/1/13 50/2/13 51/3/13 52/4/13
v 0.614752 0.235606 0.996927
v 4.521002 1.673106 0.646927
v 4.506135 1.718750 0.668476
v 0.599885 0.281250 1.018476
vn 0.213622 -0.359308 0.908440
f 53/1/14 54/2/14 55/3/14 56/4/14
v 4.506135 1.718750 0.668476
v 4.478998 1.764394 0.553073
v 4.476435 1.783301 0.602111
v 4.487675 1.764394 0.649913
vn 0.935171 0.344143 -0.083791
f 57/1/15 58/2/15 59/3/15 60/4/15
v 4.506135 1.718750 0.668476
v 4.512325 1.673106 0.550087
v 4.493865 1.718750 0.531524
v 4.478998 1.764394 0.553073
vn 0.935171 0.344143 -0.083791
f 61/1/16 62/2/16 63/3/16 64/4/16
v 4.506135 1.718750 0.668476
v 4.521002 1.673106 0.646927
v 4.523565 1.654199 0.597889
v 4.512325 1.673106 0.550087
vn 0.935171 0.344143 -0.083791
f 65/1/17 66/2/17 67/3/17 68/4/17
usemtl clamp
v 4.425000 1.643750 0.625000
v 4.575000 1.643750 0.625000
v 4.575000 1.793750 0.625000
v 4.425000 1.793750 0.625000
vn 0.000000 0.000000 1.000000
f 69/1/18 70/2/18 71/3/18 72/4/18
v 4.575000 1.643750 0.537500
v 4.425000 1.643750 0.537500
v 4.425000 1.793750 0.537500
v 4.575000 1.793750 0.537500
vn 0.000000 0.000000 -1.000000
f 73/1/19 74/2/19 75/3/19 76/4/19
v 4.575000 1.643750 0.625000
v 4.575000 1.643750 0.537500
v 4.575000 1.793750 0.537500
v 4.575000 1.793750 0.625000
vn 1.000000 -0.000000 0.000000
f 77/1/20 78/2/20 79/3/20 80/4/20
v 4.425000 1.643750 0.537500
v 4.425000 1.643750 0.625000
v 4.425000 1.793750 0.625000
v 4.425000 1.793750 0.537500
vn -1.000000 0.000000 0.000000
f 81/1/21 82/2/21 83/3/21 84/4/21
v 4.425000 1.793750 0.625000
v 4.575000 1.793750 0.625000
v 4.575000 1.793750 0.537500
v 4.425000 1.793750 0.537500
vn -0.000000 1.000000 0.000000
f 85/1/22 86/2/22 87/3/22 88/4/22
v 4.425000 1.643750 0.537500
v 4.575000 1.643750 0.537500
v 4.575000 1.643750 0.625000
v 4.425000 1.643750 0.625000
vn 0.000000 -1.000000 0.000000
f 89/1/23 90/2/23 91/3/23 92/4/23
