# Generated by scripts/gen_pole_light_mounts.py
mtllib pole_light_mount.mtl
o pole_light_mount_3_left
vt 0 0
vt 1 0
vt 1 1
vt 0 1
usemtl clamp
v 0.312500 0.062500 1.000000
v 0.687500 0.062500 1.000000
v 0.687500 0.937500 1.000000
v 0.312500 0.937500 1.000000
vn 0.000000 0.000000 1.000000
f 1/1/1 2/2/1 3/3/1 4/4/1
v 0.687500 0.062500 0.900000
v 0.312500 0.062500 0.900000
v 0.312500 0.937500 0.900000
v 0.687500 0.937500 0.900000
vn 0.000000 0.000000 -1.000000
f 5/1/2 6/2/2 7/3/2 8/4/2
v 0.687500 0.062500 1.000000
v 0.687500 0.062500 0.900000
v 0.687500 0.937500 0.900000
v 0.687500 0.937500 1.000000
vn 1.000000 -0.000000 0.000000
f 9/1/3 10/2/3 11/3/3 12/4/3
v 0.312500 0.062500 0.900000
v 0.312500 0.062500 1.000000
v 0.312500 0.937500 1.000000
v 0.312500 0.937500 0.900000
vn -1.000000 0.000000 0.000000
f 13/1/4 14/2/4 15/3/4 16/4/4
v 0.312500 0.937500 1.000000
v 0.687500 0.937500 1.000000
v 0.687500 0.937500 0.900000
v 0.312500 0.937500 0.900000
vn -0.000000 1.000000 0.000000
f 17/1/5 18/2/5 19/3/5 20/4/5
v 0.312500 0.062500 0.900000
v 0.687500 0.062500 0.900000
v 0.687500 0.062500 1.000000
v 0.312500 0.062500 1.000000
vn 0.000000 -1.000000 0.000000
f 21/1/6 22/2/6 23/3/6 24/4/6
v 0.406250 0.312500 0.900000
v 0.593750 0.312500 0.900000
v 0.593750 0.531250 0.900000
v 0.406250 0.531250 0.900000
vn 0.000000 0.000000 1.000000
f 25/1/7 26/2/7 27/3/7 28/4/7
v 0.593750 0.312500 0.800000
v 0.406250 0.312500 0.800000
v 0.406250 0.531250 0.800000
v 0.593750 0.531250 0.800000
vn 0.000000 0.000000 -1.000000
f 29/1/8 30/2/8 31/3/8 32/4/8
v 0.593750 0.312500 0.900000
v 0.593750 0.312500 0.800000
v 0.593750 0.531250 0.800000
v 0.593750 0.531250 0.900000
vn 1.000000 -0.000000 0.000000
f 33/1/9 34/2/9 35/3/9 36/4/9
v 0.406250 0.312500 0.800000
v 0.406250 0.312500 0.900000
v 0.406250 0.531250 0.900000
v 0.406250 0.531250 0.800000
vn -1.000000 0.000000 0.000000
f 37/1/10 38/2/10 39/3/10 40/4/10
v 0.406250 0.531250 0.900000
v 0.593750 0.531250 0.900000
v 0.593750 0.531250 0.800000
v 0.406250 0.531250 0.800000
vn -0.000000 1.000000 0.000000
f 41/1/11 42/2/11 43/3/11 44/4/11
v 0.406250 0.312500 0.800000
v 0.593750 0.312500 0.800000
v 0.593750 0.312500 0.900000
v 0.406250 0.312500 0.900000
vn 0.000000 -1.000000 0.000000
f 45/1/12 46/2/12 47/3/12 48/4/12
v 0.468750 0.125000 0.900000
v 0.531250 0.125000 0.900000
v 0.531250 0.187500 0.900000
v 0.468750 0.187500 0.900000
vn 0.000000 0.000000 1.000000
f 49/1/13 50/2/13 51/3/13 52/4/13
v 0.531250 0.125000 0.880000
v 0.468750 0.125000 0.880000
v 0.468750 0.187500 0.880000
v 0.531250 0.187500 0.880000
vn 0.000000 0.000000 -1.000000
f 53/1/14 54/2/14 55/3/14 56/4/14
v 0.531250 0.125000 0.900000
v 0.531250 0.125000 0.880000
v 0.531250 0.187500 0.880000
v 0.531250 0.187500 0.900000
vn 1.000000 -0.000000 0.000000
f 57/1/15 58/2/15 59/3/15 60/4/15
v 0.468750 0.125000 0.880000
v 0.468750 0.125000 0.900000
v 0.468750 0.187500 0.900000
v 0.468750 0.187500 0.880000
vn -1.000000 0.000000 0.000000
f 61/1/16 62/2/16 63/3/16 64/4/16
v 0.468750 0.187500 0.900000
v 0.531250 0.187500 0.900000
v 0.531250 0.187500 0.880000
v 0.468750 0.187500 0.880000
vn -0.000000 1.000000 0.000000
f 65/1/17 66/2/17 67/3/17 68/4/17
v 0.468750 0.125000 0.880000
v 0.531250 0.125000 0.880000
v 0.531250 0.125000 0.900000
v 0.468750 0.125000 0.900000
vn 0.000000 -1.000000 0.000000
f 69/1/18 70/2/18 71/3/18 72/4/18
v 0.468750 0.812500 0.900000
v 0.531250 0.812500 0.900000
v 0.531250 0.875000 0.900000
v 0.468750 0.875000 0.900000
vn 0.000000 0.000000 1.000000
f 73/1/19 74/2/19 75/3/19 76/4/19
v 0.531250 0.812500 0.880000
v 0.468750 0.812500 0.880000
v 0.468750 0.875000 0.880000
v 0.531250 0.875000 0.880000
vn 0.000000 0.000000 -1.000000
f 77/1/20 78/2/20 79/3/20 80/4/20
v 0.531250 0.812500 0.900000
v 0.531250 0.812500 0.880000
v 0.531250 0.875000 0.880000
v 0.531250 0.875000 0.900000
vn 1.000000 -0.000000 0.000000
f 81/1/21 82/2/21 83/3/21 84/4/21
v 0.468750 0.812500 0.880000
v 0.468750 0.812500 0.900000
v 0.468750 0.875000 0.900000
v 0.468750 0.875000 0.880000
vn -1.000000 0.000000 0.000000
f 85/1/22 86/2/22 87/3/22 88/4/22
v 0.468750 0.875000 0.900000
v 0.531250 0.875000 0.900000
v 0.531250 0.875000 0.880000
v 0.468750 0.875000 0.880000
vn -0.000000 1.000000 0.000000
f 89/1/23 90/2/23 91/3/23 92/4/23
v 0.468750 0.812500 0.880000
v 0.531250 0.812500 0.880000
v 0.531250 0.812500 0.900000
v 0.468750 0.812500 0.900000
vn 0.000000 -1.000000 0.000000
f 93/1/24 94/2/24 95/3/24 96/4/24
usemtl metal
v 0.545000 0.410000 0.860000
v 0.539539 0.410000 0.778513
v 0.534242 0.432500 0.781392
v 0.538971 0.432500 0.860000
vn 0.963908 0.258278 -0.064600
f 97/1/25 98/2/25 99/3/25 100/4/25
v 0.538971 0.432500 0.860000
v 0.534242 0.432500 0.781392
v 0.519769 0.448971 0.789257
v 0.522500 0.448971 0.860000
vn 0.706468 0.706468 -0.042505
f 101/1/26 102/2/26 103/3/26 104/4/26
v 0.522500 0.448971 0.860000
v 0.519769 0.448971 0.789257
v 0.500000 0.455000 0.800000
v 0.500000 0.455000 0.860000
vn 0.258806 0.965878 -0.009990
f 105/1/27 106/2/27 107/3/27 108/4/27
v 0.500000 0.455000 0.860000
v 0.500000 0.455000 0.800000
v 0.480231 0.448971 0.810743
v 0.477500 0.448971 0.860000
vn -0.258819 0.965926 0.000000
f 109/1/28 110/2/28 111/3/28 112/4/28
v 0.477500 0.448971 0.860000
v 0.480231 0.448971 0.810743
v 0.465758 0.432500 0.818608
v 0.461029 0.432500 0.860000
vn -0.706564 0.706564 -0.039169
f 113/1/29 114/2/29 115/3/29 116/4/29
v 0.461029 0.432500 0.860000
v 0.465758 0.432500 0.818608
v 0.460461 0.410000 0.821487
v 0.455000 0.410000 0.860000
vn -0.960096 0.257257 -0.109702
f 117/1/30 118/2/30 119/3/30 120/4/30
v 0.455000 0.410000 0.860000
v 0.460461 0.410000 0.821487
v 0.465758 0.387500 0.818608
v 0.461029 0.387500 0.860000
vn -0.956991 -0.256425 -0.135701
f 121/1/31 122/2/31 123/3/31 124/4/31
v 0.461029 0.387500 0.860000
v 0.465758 0.387500 0.818608
v 0.480231 0.371029 0.810743
v 0.477500 0.371029 0.860000
vn -0.704810 -0.704810 -0.080533
f 125/1/32 126/2/32 127/3/32 128/4/32
v 0.477500 0.371029 0.860000
v 0.480231 0.371029 0.810743
v 0.500000 0.365000 0.800000
v 0.500000 0.365000 0.860000
vn -0.258792 -0.965826 -0.014346
f 129/1/33 130/2/33 131/3/33 132/4/33
v 0.500000 0.365000 0.860000
v 0.500000 0.365000 0.800000
v 0.519769 0.371029 0.789257
v 0.522500 0.371029 0.860000
vn 0.258819 -0.965926 0.000000
f 133/1/34 134/2/34 135/3/34 136/4/34
v 0.522500 0.371029 0.860000
v 0.519769 0.371029 0.789257
v 0.534242 0.387500 0.781392
v 0.538971 0.387500 0.860000
vn 0.706844 -0.706844 -0.027283
f 137/1/35 138/2/35 139/3/35 140/4/35
v 0.538971 0.387500 0.860000
v 0.534242 0.387500 0.781392
v 0.539539 0.410000 0.778513
v 0.545000 0.410000 0.860000
vn 0.964299 -0.258383 -0.058018
f 141/1/36 142/2/36 143/3/36 144/4/36
v 0.539539 0.410000 0.778513
v 0.423911 0.410000 0.697037
v 0.421567 0.432471 0.702706
v 0.534242 0.432500 0.781392
vn 0.560078 0.233552 -0.794837
f 145/1/37 146/2/37 147/3/37 148/4/37
v 0.534242 0.432500 0.781392
v 0.421567 0.432471 0.702706
v 0.413259 0.448921 0.716953
v 0.519769 0.448971 0.789257
vn 0.426633 0.666679 -0.611166
f 149/1/38 150/2/38 151/3/38 152/4/38
v 0.519769 0.448971 0.789257
v 0.413259 0.448921 0.716953
v 0.401214 0.454943 0.735960
v 0.500000 0.455000 0.800000
vn 0.161951 0.957362 -0.239228
f 153/1/39 154/2/39 155/3/39 156/4/39
v 0.500000 0.455000 0.800000
v 0.401214 0.454943 0.735960
v 0.388659 0.448921 0.754634
v 0.480231 0.448971 0.810743
vn -0.158944 0.956579 0.244323
f 157/1/40 158/2/40 159/3/40 160/4/40
v 0.480231 0.448971 0.810743
v 0.388659 0.448921 0.754634
v 0.378959 0.432471 0.767971
v 0.465758 0.432500 0.818608
vn -0.395131 0.654810 0.644279
f 161/1/41 162/2/41 163/3/41 164/4/41
v 0.465758 0.432500 0.818608
v 0.378959 0.432471 0.767971
v 0.374711 0.410000 0.772399
v 0.460461 0.410000 0.821487
vn -0.491221 0.223364 0.841909
f 165/1/42 166/2/42 167/3/42 168/4/42
v 0.460461 0.410000 0.821487
v 0.374711 0.410000 0.772399
v 0.377056 0.387529 0.766729
v 0.465758 0.387500 0.818608
vn -0.484382 -0.222295 0.846143
f 169/1/43 170/2/43 171/3/43 172/4/43
v 0.465758 0.387500 0.818608
v 0.377056 0.387529 0.766729
v 0.385363 0.371079 0.752482
v 0.480231 0.371029 0.810743
vn -0.383712 -0.650236 0.655711
f 173/1/44 174/2/44 175/3/44 176/4/44
v 0.480231 0.371029 0.810743
v 0.385363 0.371079 0.752482
v 0.397409 0.365057 0.733475
v 0.500000 0.365000 0.800000
vn -0.154820 -0.955453 0.251279
f 177/1/45 178/2/45 179/3/45 180/4/45
v 0.500000 0.365000 0.800000
v 0.397409 0.365057 0.733475
v 0.409963 0.371079 0.714802
v 0.519769 0.371029 0.789257
vn 0.158443 -0.956445 -0.245170
f 181/1/46 182/2/46 183/3/46 184/4/46
v 0.519769 0.371029 0.789257
v 0.409963 0.371079 0.714802
v 0.419664 0.387529 0.701464
v 0.534242 0.387500 0.781392
vn 0.419403 -0.664055 -0.618976
f 185/1/47 186/2/47 187/3/47 188/4/47
v 0.534242 0.387500 0.781392
v 0.419664 0.387529 0.701464
v 0.423911 0.410000 0.697037
v 0.539539 0.410000 0.778513
vn 0.556344 -0.233028 -0.797609
f 189/1/48 190/2/48 191/3/48 192/4/48
v 0.423911 0.410000 0.697037
v 0.365586 0.417097 0.658695
v 0.365882 0.439176 0.666111
v 0.421567 0.432471 0.702706
vn 0.552472 0.257636 -0.792716
f 193/1/49 194/2/49 195/3/49 196/4/49
v 0.421567 0.432471 0.702706
v 0.365882 0.439176 0.666111
v 0.359462 0.455340 0.681607
v 0.413259 0.448921 0.716953
vn 0.447384 0.703827 -0.551793
f 197/1/50 198/2/50 199/3/50 200/4/50
v 0.413259 0.448921 0.716953
v 0.359462 0.455340 0.681607
v 0.348047 0.461256 0.701030
v 0.401214 0.454943 0.735960
vn 0.222211 0.961164 -0.163667
f 201/1/51 202/2/51 203/3/51 204/4/51
v 0.401214 0.454943 0.735960
v 0.348047 0.461256 0.701030
v 0.334694 0.455340 0.719177
v 0.388659 0.448921 0.754634
vn -0.062070 0.961350 0.268243
f 205/1/52 206/2/52 207/3/52 208/4/52
v 0.388659 0.448921 0.754634
v 0.334694 0.455340 0.719177
v 0.322983 0.439176 0.731185
v 0.378959 0.432471 0.767971
vn -0.329466 0.704206 0.628924
f 209/1/53 210/2/53 211/3/53 212/4/53
v 0.378959 0.432471 0.767971
v 0.322983 0.439176 0.731185
v 0.316051 0.417097 0.733836
v 0.374711 0.410000 0.772399
vn -0.508842 0.257980 0.821296
f 213/1/54 214/2/54 215/3/54 216/4/54
v 0.374711 0.410000 0.772399
v 0.316051 0.417097 0.733836
v 0.315755 0.395017 0.726420
v 0.377056 0.387529 0.766729
vn -0.552344 -0.257644 0.792802
f 217/1/55 218/2/55 219/3/55 220/4/55
v 0.377056 0.387529 0.766729
v 0.315755 0.395017 0.726420
v 0.322175 0.378854 0.710924
v 0.385363 0.371079 0.752482
vn -0.448361 -0.703735 0.551117
f 221/1/56 222/2/56 223/3/56 224/4/56
v 0.385363 0.371079 0.752482
v 0.322175 0.378854 0.710924
v 0.333590 0.372937 0.691500
v 0.397409 0.365057 0.733475
vn -0.224750 -0.960862 0.161962
f 225/1/57 226/2/57 227/3/57 228/4/57
v 0.397409 0.365057 0.733475
v 0.333590 0.372937 0.691500
v 0.346942 0.378854 0.673353
v 0.409963 0.371079 0.714802
vn 0.059038 -0.961001 -0.270169
f 229/1/58 230/2/58 231/3/58 232/4/58
v 0.409963 0.371079 0.714802
v 0.346942 0.378854 0.673353
v 0.358654 0.395017 0.661346
v 0.419664 0.387529 0.701464
vn 0.327556 -0.704039 -0.630108
f 233/1/59 234/2/59 235/3/59 236/4/59
v 0.419664 0.387529 0.701464
v 0.358654 0.395017 0.661346
v 0.365586 0.417097 0.658695
v 0.423911 0.410000 0.697037
vn 0.508528 -0.257960 -0.821496
f 237/1/60 238/2/60 239/3/60 240/4/60
v 0.365586 0.417097 0.658695
v 0.307320 0.437693 0.620173
v 0.310551 0.458767 0.629555
v 0.365882 0.439176 0.666111
vn 0.593840 0.249014 -0.765079
f 241/1/61 242/2/61 243/3/61 244/4/61
v 0.365882 0.439176 0.666111
v 0.310551 0.458767 0.629555
v 0.306247 0.474194 0.646469
v 0.359462 0.455340 0.681607
vn 0.556484 0.679462 -0.478181
f 245/1/62 246/2/62 247/3/62 248/4/62
v 0.359462 0.455340 0.681607
v 0.306247 0.474194 0.646469
v 0.295560 0.479841 0.666381
v 0.348047 0.461256 0.701030
vn 0.370731 0.926510 -0.064323
f 249/1/63 250/2/63 251/3/63 252/4/63
v 0.348047 0.461256 0.701030
v 0.295560 0.479841 0.666381
v 0.281354 0.474194 0.683957
v 0.334694 0.455340 0.719177
vn 0.086607 0.926645 0.365825
f 253/1/64 254/2/64 255/3/64 256/4/64
v 0.334694 0.455340 0.719177
v 0.281354 0.474194 0.683957
v 0.267435 0.458767 0.694486
v 0.322983 0.439176 0.731185
vn -0.221374 0.679813 0.699177
f 257/1/65 258/2/65 259/3/65 260/4/65
v 0.322983 0.439176 0.731185
v 0.267435 0.458767 0.694486
v 0.257534 0.437693 0.695148
v 0.316051 0.417097 0.733836
vn -0.471018 0.249475 0.846111
f 261/1/66 262/2/66 263/3/66 264/4/66
v 0.316051 0.417097 0.733836
v 0.257534 0.437693 0.695148
v 0.254302 0.416618 0.685765
v 0.315755 0.395017 0.726420
vn -0.593597 -0.249074 0.765248
f 265/1/67 266/2/67 267/3/67 268/4/67
v 0.315755 0.395017 0.726420
v 0.254302 0.416618 0.685765
v 0.258606 0.401191 0.668852
v 0.322175 0.378854 0.710924
vn -0.555665 -0.679710 0.478779
f 269/1/68 270/2/68 271/3/68 272/4/68
v 0.322175 0.378854 0.710924
v 0.258606 0.401191 0.668852
v 0.269293 0.395544 0.648940
v 0.333590 0.372937 0.691500
vn -0.369095 -0.927084 0.065460
f 273/1/69 274/2/69 275/3/69 276/4/69
v 0.333590 0.372937 0.691500
v 0.269293 0.395544 0.648940
v 0.283499 0.401191 0.631364
v 0.346942 0.378854 0.673353
vn -0.084682 -0.927297 -0.364622
f 277/1/70 278/2/70 279/3/70 280/4/70
v 0.346942 0.378854 0.673353
v 0.283499 0.401191 0.631364
v 0.297418 0.416618 0.620835
v 0.358654 0.395017 0.661346
vn 0.222725 -0.680196 -0.698375
f 281/1/71 282/2/71 283/3/71 284/4/71
v 0.358654 0.395017 0.661346
v 0.297418 0.416618 0.620835
v 0.307320 0.437693 0.620173
v 0.365586 0.417097 0.658695
vn 0.471504 -0.249591 -0.845806
f 285/1/72 286/2/72 287/3/72 288/4/72
v 0.307320 0.437693 0.620173
v 0.249267 0.469771 0.581446
v 0.254481 0.489763 0.592205
v 0.310551 0.458767 0.629555
vn 0.625941 0.235086 -0.743594
f 289/1/73 290/2/73 291/3/73 292/4/73
v 0.310551 0.458767 0.629555
v 0.254481 0.489763 0.592205
v 0.251579 0.504398 0.610093
v 0.306247 0.474194 0.646469
vn 0.637869 0.642883 -0.424058
f 293/1/74 294/2/74 295/3/74 296/4/74
v 0.306247 0.474194 0.646469
v 0.251579 0.504398 0.610093
v 0.241340 0.509754 0.630319
v 0.295560 0.479841 0.666381
vn 0.479308 0.877607 0.008371
f 297/1/75 298/2/75 299/3/75 300/4/75
v 0.295560 0.479841 0.666381
v 0.241340 0.509754 0.630319
v 0.226507 0.504398 0.647462
v 0.281354 0.474194 0.683957
vn 0.193011 0.877968 0.438085
f 301/1/76 302/2/76 303/3/76 304/4/76
v 0.281354 0.474194 0.683957
v 0.226507 0.504398 0.647462
v 0.211054 0.489763 0.656929
v 0.267435 0.458767 0.694486
vn -0.145315 0.643839 0.751235
f 305/1/77 306/2/77 307/3/77 308/4/77
v 0.267435 0.458767 0.694486
v 0.211054 0.489763 0.656929
v 0.199122 0.469771 0.656183
v 0.257534 0.437693 0.695148
vn -0.445333 0.236369 0.863602
f 309/1/78 310/2/78 311/3/78 312/4/78
v 0.257534 0.437693 0.695148
v 0.199122 0.469771 0.656183
v 0.193908 0.449779 0.645424
v 0.254302 0.416618 0.685765
vn -0.625478 -0.235301 0.743916
f 313/1/79 314/2/79 315/3/79 316/4/79
v 0.254302 0.416618 0.685765
v 0.193908 0.449779 0.645424
v 0.196809 0.435145 0.627536
v 0.258606 0.401191 0.668852
vn -0.636951 -0.643354 0.424722
f 317/1/80 318/2/80 319/3/80 320/4/80
v 0.258606 0.401191 0.668852
v 0.196809 0.435145 0.627536
v 0.207048 0.429788 0.607310
v 0.269293 0.395544 0.648940
vn -0.477769 -0.878455 -0.007304
f 321/1/81 322/2/81 323/3/81 324/4/81
v 0.269293 0.395544 0.648940
v 0.207048 0.429788 0.607310
v 0.221881 0.435145 0.590168
v 0.283499 0.401191 0.631364
vn -0.191269 -0.878901 -0.436977
f 325/1/82 326/2/82 327/3/82 328/4/82
v 0.283499 0.401191 0.631364
v 0.221881 0.435145 0.590168
v 0.237334 0.449779 0.580701
v 0.297418 0.416618 0.620835
vn 0.146610 -0.644468 -0.750445
f 329/1/83 330/2/83 331/3/83 332/4/83
v 0.297418 0.416618 0.620835
v 0.237334 0.449779 0.580701
v 0.249267 0.469771 0.581446
v 0.307320 0.437693 0.620173
vn 0.445972 -0.236656 -0.863194
f 333/1/84 334/2/84 335/3/84 336/4/84
v 0.249267 0.469771 0.581446
v 0.191409 0.510193 0.542391
v 0.197711 0.529415 0.553940
v 0.254481 0.489763 0.592205
vn 0.647665 0.223135 -0.728519
f 337/1/85 338/2/85 339/3/85 340/4/85
v 0.254481 0.489763 0.592205
v 0.197711 0.529415 0.553940
v 0.195563 0.543487 0.572378
v 0.251579 0.504398 0.610093
vn 0.689137 0.611616 -0.388608
f 341/1/86 342/2/86 343/3/86 344/4/86
v 0.251579 0.504398 0.610093
v 0.195563 0.543487 0.572378
v 0.185541 0.548637 0.592765
v 0.241340 0.509754 0.630319
vn 0.546169 0.835860 0.055115
f 345/1/87 346/2/87 347/3/87 348/4/87
v 0.241340 0.509754 0.630319
v 0.185541 0.548637 0.592765
v 0.170330 0.543487 0.609638
v 0.226507 0.504398 0.647462
vn 0.257193 0.836465 0.483920
f 349/1/88 350/2/88 351/3/88 352/4/88
v 0.226507 0.504398 0.647462
v 0.170330 0.543487 0.609638
v 0.154006 0.529415 0.618476
v 0.211054 0.489763 0.656929
vn -0.100800 0.613225 0.783450
f 353/1/89 354/2/89 355/3/89 356/4/89
v 0.211054 0.489763 0.656929
v 0.154006 0.529415 0.618476
v 0.140943 0.510193 0.616910
v 0.199122 0.469771 0.656183
vn -0.432031 0.225285 0.873267
f 357/1/90 358/2/90 359/3/90 360/4/90
v 0.199122 0.469771 0.656183
v 0.140943 0.510193 0.616910
v 0.134641 0.490970 0.605361
v 0.193908 0.449779 0.645424
vn -0.647211 -0.223423 0.728834
f 361/1/91 362/2/91 363/3/91 364/4/91
v 0.193908 0.449779 0.645424
v 0.134641 0.490970 0.605361
v 0.136789 0.476898 0.586923
v 0.196809 0.435145 0.627536
vn -0.688431 -0.612091 0.389111
f 365/1/92 366/2/92 367/3/92 368/4/92
v 0.196809 0.435145 0.627536
v 0.136789 0.476898 0.586923
v 0.146811 0.471748 0.566536
v 0.207048 0.429788 0.607310
vn -0.545150 -0.836571 -0.054411
f 369/1/93 370/2/93 371/3/93 372/4/93
v 0.207048 0.429788 0.607310
v 0.146811 0.471748 0.566536
v 0.162022 0.476898 0.549663
v 0.221881 0.435145 0.590168
vn -0.256100 -0.837212 -0.483207
f 373/1/94 374/2/94 375/3/94 376/4/94
v 0.221881 0.435145 0.590168
v 0.162022 0.476898 0.549663
v 0.178346 0.490970 0.540825
v 0.237334 0.449779 0.580701
vn 0.101644 -0.613769 -0.782915
f 377/1/95 378/2/95 379/3/95 380/4/95
v 0.237334 0.449779 0.580701
v 0.178346 0.490970 0.540825
v 0.191409 0.510193 0.542391
v 0.249267 0.469771 0.581446
vn 0.432549 -0.225607 -0.872928
f 381/1/96 382/2/96 383/3/96 384/4/96
v 0.191409 0.510193 0.542391
v 0.133678 0.555000 0.503163
v 0.140288 0.573950 0.514986
v 0.197711 0.529415 0.553940
vn 0.658312 0.217203 -0.720727
f 385/1/97 386/2/97 387/3/97 388/4/97
v 0.197711 0.529415 0.553940
v 0.140288 0.573950 0.514986
v 0.138321 0.587823 0.533595
v 0.195563 0.543487 0.572378
vn 0.713055 0.594924 -0.370969
f 389/1/98 390/2/98 391/3/98 392/4/98
v 0.195563 0.543487 0.572378
v 0.138321 0.587823 0.533595
v 0.128304 0.592900 0.554003
v 0.185541 0.548637 0.592765
vn 0.576837 0.813113 0.078147
f 393/1/99 394/2/99 395/3/99 396/4/99
v 0.185541 0.548637 0.592765
v 0.128304 0.592900 0.554003
v 0.112921 0.587823 0.570741
v 0.170330 0.543487 0.609638
vn 0.286185 0.813471 0.506323
f 397/1/100 398/2/100 399/3/100 400/4/100
v 0.170330 0.543487 0.609638
v 0.112921 0.587823 0.570741
v 0.096294 0.573950 0.579325
v 0.154006 0.529415 0.618476
vn -0.081128 0.595892 0.798956
f 401/1/101 402/2/101 403/3/101 404/4/101
v 0.154006 0.529415 0.618476
v 0.096294 0.573950 0.579325
v 0.082877 0.555000 0.577455
v 0.140943 0.510193 0.616910
vn -0.426713 0.218515 0.877592
f 405/1/102 406/2/102 407/3/102 408/4/102
v 0.140943 0.510193 0.616910
v 0.082877 0.555000 0.577455
v 0.076267 0.536050 0.565631
v 0.134641 0.490970 0.605361
vn -0.657839 -0.217555 0.721053
f 409/1/103 410/2/103 411/3/103 412/4/103
v 0.134641 0.490970 0.605361
v 0.076267 0.536050 0.565631
v 0.078235 0.522177 0.547023
v 0.136789 0.476898 0.586923
vn -0.712509 -0.595340 0.371351
f 413/1/104 414/2/104 415/3/104 416/4/104
v 0.136789 0.476898 0.586923
v 0.078235 0.522177 0.547023
v 0.088252 0.517100 0.526615
v 0.146811 0.471748 0.566536
vn -0.576198 -0.813607 -0.077708
f 417/1/105 418/2/105 419/3/105 420/4/105
v 0.146811 0.471748 0.566536
v 0.088252 0.517100 0.526615
v 0.103635 0.522177 0.509877
v 0.162022 0.476898 0.549663
vn -0.285525 -0.813977 -0.505883
f 421/1/106 422/2/106 423/3/106 424/4/106
v 0.162022 0.476898 0.549663
v 0.103635 0.522177 0.509877
v 0.120262 0.536050 0.501293
v 0.178346 0.490970 0.540825
vn 0.081714 -0.596330 -0.798570
f 425/1/107 426/2/107 427/3/107 428/4/107
v 0.178346 0.490970 0.540825
v 0.120262 0.536050 0.501293
v 0.133678 0.555000 0.503163
v 0.191409 0.510193 0.542391
vn 0.427206 -0.218876 -0.877262
f 429/1/108 430/2/108 431/3/108 432/4/108
v 0.133678 0.555000 0.503163
v 0.076217 0.599807 0.463623
v 0.082403 0.619030 0.475235
v 0.140288 0.573950 0.514986
vn 0.662348 0.216472 -0.717241
f 433/1/109 434/2/109 435/3/109 436/4/109
v 0.140288 0.573950 0.514986
v 0.082403 0.619030 0.475235
v 0.080070 0.633102 0.493650
v 0.138321 0.587823 0.533595
vn 0.715282 0.594401 -0.367505
f 437/1/110 438/2/110 439/3/110 440/4/110
v 0.138321 0.587823 0.533595
v 0.080070 0.633102 0.493650
v 0.069844 0.638252 0.513936
v 0.128304 0.592900 0.554003
vn 0.576605 0.813024 0.080739
f 441/1/111 442/2/111 443/3/111 444/4/111
v 0.128304 0.592900 0.554003
v 0.069844 0.638252 0.513936
v 0.054465 0.633102 0.530655
v 0.112921 0.587823 0.570741
vn 0.283511 0.813731 0.507408
f 445/1/112 446/2/112 447/3/112 448/4/112
v 0.112921 0.587823 0.570741
v 0.054465 0.633102 0.530655
v 0.038053 0.619030 0.539329
v 0.096294 0.573950 0.579325
vn -0.085449 0.596322 0.798185
f 449/1/113 450/2/113 451/3/113 452/4/113
v 0.096294 0.573950 0.579325
v 0.038053 0.619030 0.539329
v 0.025006 0.599807 0.537632
v 0.082877 0.555000 0.577455
vn -0.431433 0.219067 0.875143
f 453/1/114 454/2/114 455/3/114 456/4/114
v 0.082877 0.555000 0.577455
v 0.025006 0.599807 0.537632
v 0.018820 0.580585 0.526021
v 0.076267 0.536050 0.565631
vn -0.661771 -0.216921 0.717639
f 457/1/115 458/2/115 459/3/115 460/4/115
v 0.076267 0.536050 0.565631
v 0.018820 0.580585 0.526021
v 0.021153 0.566513 0.507605
v 0.078235 0.522177 0.547023
vn -0.714760 -0.594806 0.367862
f 461/1/116 462/2/116 463/3/116 464/4/116
v 0.078235 0.522177 0.547023
v 0.021153 0.566513 0.507605
v 0.031379 0.561363 0.487320
v 0.088252 0.517100 0.526615
vn -0.576183 -0.813352 -0.080450
f 465/1/117 466/2/117 467/3/117 468/4/117
v 0.088252 0.517100 0.526615
v 0.031379 0.561363 0.487320
v 0.046758 0.566513 0.470600
v 0.103635 0.522177 0.509877
vn -0.283133 -0.814025 -0.507149
f 469/1/118 470/2/118 471/3/118 472/4/118
v 0.103635 0.522177 0.509877
v 0.046758 0.566513 0.470600
v 0.063170 0.580585 0.461927
v 0.120262 0.536050 0.501293
vn 0.085884 -0.596658 -0.797887
f 473/1/119 474/2/119 475/3/119 476/4/119
v 0.120262 0.536050 0.501293
v 0.063170 0.580585 0.461927
v 0.076217 0.599807 0.463623
v 0.133678 0.555000 0.503163
vn 0.431967 -0.219481 -0.874776
f 477/1/120 478/2/120 479/3/120 480/4/120
v 0.076217 0.599807 0.463623
v 0.018922 0.640229 0.423763
v 0.023932 0.660221 0.434618
v 0.082403 0.619030 0.475235
vn 0.657793 0.222923 -0.719454
f 481/1/121 482/2/121 483/3/121 484/4/121
v 0.082403 0.619030 0.475235
v 0.023932 0.660221 0.434618
v 0.020694 0.674855 0.452449
v 0.080070 0.633102 0.493650
vn 0.694334 0.611552 -0.379347
f 485/1/122 486/2/122 487/3/122 488/4/122
v 0.080070 0.633102 0.493650
v 0.020694 0.674855 0.452449
v 0.010076 0.680212 0.472477
v 0.069844 0.638252 0.513936
vn 0.544811 0.836240 0.062317
f 489/1/123 490/2/123 491/3/123 492/4/123
v 0.069844 0.638252 0.513936
v 0.010076 0.680212 0.472477
v -0.005078 0.674855 0.489337
v 0.054465 0.633102 0.530655
vn 0.249488 0.836841 0.487291
f 493/1/124 494/2/124 495/3/124 496/4/124
v 0.054465 0.633102 0.530655
v -0.005078 0.674855 0.489337
v -0.020707 0.660221 0.498511
v 0.038053 0.619030 0.539329
vn -0.112552 0.613201 0.781868
f 497/1/125 498/2/125 499/3/125 500/4/125
v 0.038053 0.619030 0.539329
v -0.020707 0.660221 0.498511
v -0.032623 0.640229 0.497540
v 0.025006 0.599807 0.537632
vn -0.444461 0.225155 0.867041
f 501/1/126 502/2/126 503/3/126 504/4/126
v 0.025006 0.599807 0.537632
v -0.032623 0.640229 0.497540
v -0.037633 0.620237 0.486686
v 0.018820 0.580585 0.526021
vn -0.657335 -0.223260 0.719768
f 505/1/127 506/2/127 507/3/127 508/4/127
v 0.018820 0.580585 0.526021
v -0.037633 0.620237 0.486686
v -0.034395 0.605602 0.468855
v 0.021153 0.566513 0.507605
vn -0.694098 -0.611721 0.379507
f 509/1/128 510/2/128 511/3/128 512/4/128
v 0.021153 0.566513 0.507605
v -0.034395 0.605602 0.468855
v -0.023776 0.600246 0.448826
v 0.031379 0.561363 0.487320
vn -0.544902 -0.836176 -0.062379
f 513/1/129 514/2/129 515/3/129 516/4/129
v 0.031379 0.561363 0.487320
v -0.023776 0.600246 0.448826
v -0.008623 0.605602 0.431966
v 0.046758 0.566513 0.470600
vn -0.249677 -0.836707 -0.487424
f 517/1/130 518/2/130 519/3/130 520/4/130
v 0.046758 0.566513 0.470600
v -0.008623 0.605602 0.431966
v 0.007006 0.620237 0.422792
v 0.063170 0.580585 0.461927
vn 0.112588 -0.613227 -0.781842
f 521/1/131 522/2/131 523/3/131 524/4/131
v 0.063170 0.580585 0.461927
v 0.007006 0.620237 0.422792
v 0.018922 0.640229 0.423763
v 0.076217 0.599807 0.463623
vn 0.444817 -0.225419 -0.866789
f 525/1/132 526/2/132 527/3/132 528/4/132
v 0.018922 0.640229 0.423763
v -0.038186 0.672307 0.383703
v -0.035228 0.693381 0.393176
v 0.023932 0.660221 0.434618
vn 0.643122 0.234617 -0.728937
f 529/1/133 530/2/133 531/3/133 532/4/133
v 0.023932 0.660221 0.434618
v -0.035228 0.693381 0.393176
v -0.040021 0.708809 0.409957
v 0.020694 0.674855 0.452449
vn 0.647333 0.642615 -0.409886
f 533/1/134 534/2/134 535/3/134 536/4/134
v 0.020694 0.674855 0.452449
v -0.040021 0.708809 0.409957
v -0.051282 0.714456 0.429551
v 0.010076 0.680212 0.472477
vn 0.478058 0.878132 0.018592
f 537/1/135 538/2/135 539/3/135 540/4/135
v 0.010076 0.680212 0.472477
v -0.051282 0.714456 0.429551
v -0.065992 0.708809 0.446707
v -0.005078 0.674855 0.489337
vn 0.181137 0.878565 0.441943
f 541/1/136 542/2/136 543/3/136 544/4/136
v -0.005078 0.674855 0.489337
v -0.065992 0.708809 0.446707
v -0.080210 0.693381 0.456828
v -0.020707 0.660221 0.498511
vn -0.164182 0.643811 0.747363
f 545/1/137 546/2/137 547/3/137 548/4/137
v -0.020707 0.660221 0.498511
v -0.080210 0.693381 0.456828
v -0.090127 0.672307 0.457202
v -0.032623 0.640229 0.497540
vn -0.465764 0.236212 0.852800
f 549/1/138 550/2/138 551/3/138 552/4/138
v -0.032623 0.640229 0.497540
v -0.090127 0.672307 0.457202
v -0.093085 0.651233 0.447729
v -0.037633 0.620237 0.486686
vn -0.642628 -0.234924 0.729274
f 553/1/139 554/2/139 555/3/139 556/4/139
v -0.037633 0.620237 0.486686
v -0.093085 0.651233 0.447729
v -0.088292 0.635806 0.430948
v -0.034395 0.605602 0.468855
vn -0.647236 -0.642671 0.409950
f 557/1/140 558/2/140 559/3/140 560/4/140
v -0.034395 0.605602 0.468855
v -0.088292 0.635806 0.430948
v -0.077031 0.630159 0.411354
v -0.023776 0.600246 0.448826
vn -0.478602 -0.877827 -0.018962
f 561/1/141 562/2/141 563/3/141 564/4/141
v -0.023776 0.600246 0.448826
v -0.077031 0.630159 0.411354
v -0.062321 0.635806 0.394198
v -0.008623 0.605602 0.431966
vn -0.181901 -0.878130 -0.442492
f 565/1/142 566/2/142 567/3/142 568/4/142
v -0.008623 0.605602 0.431966
v -0.062321 0.635806 0.394198
v -0.048102 0.651233 0.384077
v 0.007006 0.620237 0.422792
vn 0.163826 -0.643596 -0.747627
f 569/1/143 570/2/143 571/3/143 572/4/143
v 0.007006 0.620237 0.422792
v -0.048102 0.651233 0.384077
v -0.038186 0.672307 0.383703
v 0.018922 0.640229 0.423763
vn 0.466026 -0.236378 -0.852611
f 573/1/144 574/2/144 575/3/144 576/4/144
v -0.038186 0.672307 0.383703
v -0.094987 0.692903 0.343280
v -0.094978 0.714983 0.350702
v -0.035228 0.693381 0.393176
vn 0.619770 0.247732 -0.744657
f 577/1/145 578/2/145 579/3/145 580/4/145
v -0.035228 0.693381 0.393176
v -0.094978 0.714983 0.350702
v -0.101992 0.731146 0.365938
v -0.040021 0.708809 0.409957
vn 0.572490 0.678541 -0.460257
f 581/1/146 582/2/146 583/3/146 584/4/146
v -0.040021 0.708809 0.409957
v -0.101992 0.731146 0.365938
v -0.114150 0.737063 0.384906
v -0.051282 0.714456 0.429551
vn 0.371925 0.926729 -0.053332
f 585/1/147 586/2/147 587/3/147 588/4/147
v -0.051282 0.714456 0.429551
v -0.114150 0.737063 0.384906
v -0.128194 0.731146 0.402523
v -0.065992 0.708809 0.446707
vn 0.072531 0.927235 0.367389
f 589/1/148 590/2/148 591/3/148 592/4/148
v -0.065992 0.708809 0.446707
v -0.128194 0.731146 0.402523
v -0.140360 0.714983 0.414069
v -0.080210 0.693381 0.456828
vn -0.246309 0.680045 0.690559
f 593/1/149 594/2/149 595/3/149 596/4/149
v -0.080210 0.693381 0.456828
v -0.140360 0.714983 0.414069
v -0.147390 0.692903 0.416450
v -0.090127 0.672307 0.457202
vn -0.499782 0.249909 0.829315
f 597/1/150 598/2/150 599/3/150 600/4/150
v -0.090127 0.672307 0.457202
v -0.147390 0.692903 0.416450
v -0.147399 0.670824 0.409028
v -0.093085 0.651233 0.447729
vn -0.619329 -0.247929 0.744958
f 601/1/151 602/2/151 603/3/151 604/4/151
v -0.093085 0.651233 0.447729
v -0.147399 0.670824 0.409028
v -0.140385 0.654660 0.393792
v -0.088292 0.635806 0.430948
vn -0.572615 -0.678491 0.460176
f 605/1/152 606/2/152 607/3/152 608/4/152
v -0.088292 0.635806 0.430948
v -0.140385 0.654660 0.393792
v -0.128227 0.648744 0.374824
v -0.077031 0.630159 0.411354
vn -0.372867 -0.926387 0.052692
f 609/1/153 610/2/153 611/3/153 612/4/153
v -0.077031 0.630159 0.411354
v -0.128227 0.648744 0.374824
v -0.114183 0.654660 0.357207
v -0.062321 0.635806 0.394198
vn -0.073687 -0.926807 -0.368239
f 613/1/154 614/2/154 615/3/154 616/4/154
v -0.062321 0.635806 0.394198
v -0.114183 0.654660 0.357207
v -0.102017 0.670824 0.345661
v -0.048102 0.651233 0.384077
vn 0.245730 -0.679803 -0.691003
f 617/1/155 618/2/155 619/3/155 620/4/155
v -0.048102 0.651233 0.384077
v -0.102017 0.670824 0.345661
v -0.094987 0.692903 0.343280
v -0.038186 0.672307 0.383703
vn 0.499982 -0.250000 -0.829167
f 621/1/156 622/2/156 623/3/156 624/4/156
v -0.094987 0.692903 0.343280
v -0.151457 0.700000 0.302591
v -0.151959 0.722180 0.309688
v -0.094978 0.714983 0.350702
vn 0.585931 0.257986 -0.768198
f 625/1/157 626/2/157 627/3/157 628/4/157
v -0.094978 0.714983 0.350702
v -0.151959 0.722180 0.309688
v -0.159432 0.738418 0.324625
v -0.101992 0.731146 0.365938
vn 0.470994 0.704643 -0.530700
f 629/1/158 630/2/158 631/3/158 632/4/158
v -0.101992 0.731146 0.365938
v -0.159432 0.738418 0.324625
v -0.171876 0.744361 0.343398
v -0.114150 0.737063 0.384906
vn 0.230846 0.961076 -0.151802
f 633/1/159 634/2/159 635/3/159 636/4/159
v -0.114150 0.737063 0.384906
v -0.171876 0.744361 0.343398
v -0.185956 0.738418 0.360977
v -0.128194 0.731146 0.402523
vn -0.070287 0.961197 0.266758
f 637/1/160 638/2/160 639/3/160 640/4/160
v -0.128194 0.731146 0.402523
v -0.185956 0.738418 0.360977
v -0.197898 0.722180 0.372653
v -0.140360 0.714983 0.414069
vn -0.353389 0.705134 0.614738
f 641/1/161 642/2/161 643/3/161 644/4/161
v -0.140360 0.714983 0.414069
v -0.197898 0.722180 0.372653
v -0.204504 0.700000 0.375296
v -0.147390 0.692903 0.416450
vn -0.542727 0.258954 0.798993
f 645/1/162 646/2/162 647/3/162 648/4/162
v -0.147390 0.692903 0.416450
v -0.204504 0.700000 0.375296
v -0.204003 0.677820 0.368199
v -0.147399 0.670824 0.409028
vn -0.585704 -0.258039 0.768353
f 649/1/163 650/2/163 651/3/163 652/4/163
v -0.147399 0.670824 0.409028
v -0.204003 0.677820 0.368199
v -0.196529 0.661582 0.353263
v -0.140385 0.654660 0.393792
vn -0.470255 -0.704775 0.531180
f 653/1/164 654/2/164 655/3/164 656/4/164
v -0.140385 0.654660 0.393792
v -0.196529 0.661582 0.353263
v -0.184085 0.655639 0.334490
v -0.128227 0.648744 0.374824
vn -0.229010 -0.961316 0.153054
f 657/1/165 658/2/165 659/3/165 660/4/165
v -0.128227 0.648744 0.374824
v -0.184085 0.655639 0.334490
v -0.170006 0.661582 0.316910
v -0.114183 0.654660 0.357207
vn 0.072650 -0.961513 -0.264982
f 661/1/166 662/2/166 663/3/166 664/4/166
v -0.114183 0.654660 0.357207
v -0.170006 0.661582 0.316910
v -0.158063 0.677820 0.305234
v -0.102017 0.670824 0.345661
vn 0.355229 -0.705478 -0.613281
f 665/1/167 666/2/167 667/3/167 668/4/167
v -0.102017 0.670824 0.345661
v -0.158063 0.677820 0.305234
v -0.151457 0.700000 0.302591
v -0.094987 0.692903 0.343280
vn 0.543528 -0.259144 -0.798387
f 669/1/168 670/2/168 671/3/168 672/4/168
v -0.151457 0.700000 0.302591
v -0.320088 0.750694 0.177980
v -0.319518 0.772569 0.185967
v -0.151959 0.722180 0.309688
vn 0.622955 0.251133 -0.740850
f 673/1/169 674/2/169 675/3/169 676/4/169
v -0.151959 0.722180 0.309688
v -0.319518 0.772569 0.185967
v -0.326368 0.788582 0.201435
v -0.159432 0.738418 0.324625
vn 0.553769 0.687296 -0.470068
f 677/1/170 678/2/170 679/3/170 680/4/170
v -0.159432 0.738418 0.324625
v -0.326368 0.788582 0.201435
v -0.338804 0.794443 0.220239
v -0.171876 0.744361 0.343398
vn 0.336689 0.938703 -0.074003
f 681/1/171 682/2/171 683/3/171 684/4/171
v -0.171876 0.744361 0.343398
v -0.338804 0.794443 0.220239
v -0.353493 0.788582 0.237340
v -0.185956 0.738418 0.360977
vn 0.029871 0.939402 0.341513
f 685/1/172 686/2/172 687/3/172 688/4/172
v -0.185956 0.738418 0.360977
v -0.353493 0.788582 0.237340
v -0.366500 0.772569 0.248157
v -0.197898 0.722180 0.372653
vn -0.285374 0.688971 0.666243
f 689/1/173 690/2/173 691/3/173 692/4/173
v -0.197898 0.722180 0.372653
v -0.366500 0.772569 0.248157
v -0.374339 0.750694 0.249791
v -0.204504 0.700000 0.375296
vn -0.524581 0.253103 0.812868
f 693/1/174 694/2/174 695/3/174 696/4/174
v -0.204504 0.700000 0.375296
v -0.374339 0.750694 0.249791
v -0.374910 0.728820 0.241804
v -0.204003 0.677820 0.368199
vn -0.622638 -0.251203 0.741093
f 697/1/175 698/2/175 699/3/175 700/4/175
v -0.204003 0.677820 0.368199
v -0.374910 0.728820 0.241804
v -0.368060 0.712807 0.226336
v -0.196529 0.661582 0.353263
vn -0.553149 -0.687461 0.470557
f 701/1/176 702/2/176 703/3/176 704/4/176
v -0.196529 0.661582 0.353263
v -0.368060 0.712807 0.226336
v -0.355624 0.706946 0.207532
v -0.184085 0.655639 0.334490
vn -0.335719 -0.938993 0.074737
f 705/1/177 706/2/177 707/3/177 708/4/177
v -0.184085 0.655639 0.334490
v -0.355624 0.706946 0.207532
v -0.340934 0.712807 0.190430
v -0.170006 0.661582 0.316910
vn -0.028841 -0.939698 -0.340788
f 709/1/178 710/2/178 711/3/178 712/4/178
v -0.170006 0.661582 0.316910
v -0.340934 0.712807 0.190430
v -0.327928 0.728820 0.179613
v -0.158063 0.677820 0.305234
vn 0.286098 -0.689148 -0.665749
f 713/1/179 714/2/179 715/3/179 716/4/179
v -0.158063 0.677820 0.305234
v -0.327928 0.728820 0.179613
v -0.320088 0.750694 0.177980
v -0.151457 0.700000 0.302591
vn 0.524941 -0.253179 -0.812611
f 717/1/180 718/2/180 719/3/180 720/4/180
v -0.320088 0.750694 0.177980
v -0.485789 0.801389 0.050023
v -0.485408 0.823263 0.058021
v -0.319518 0.772569 0.185967
vn 0.638524 0.249209 -0.728136
f 721/1/181 722/2/181 723/3/181 724/4/181
v -0.319518 0.772569 0.185967
v -0.485408 0.823263 0.058021
v -0.492624 0.839276 0.073322
v -0.326368 0.788582 0.201435
vn 0.564243 0.685644 -0.459916
f 725/1/182 726/2/182 727/3/182 728/4/182
v -0.326368 0.788582 0.201435
v -0.492624 0.839276 0.073322
v -0.505504 0.845137 0.091824
v -0.338804 0.794443 0.220239
vn 0.338828 0.938359 -0.068400
f 729/1/183 730/2/183 731/3/183 732/4/183
v -0.338804 0.794443 0.220239
v -0.505504 0.845137 0.091824
v -0.520597 0.839276 0.108572
v -0.353493 0.788582 0.237340
vn 0.022671 0.939608 0.341501
f 733/1/184 734/2/184 735/3/184 736/4/184
v -0.353493 0.788582 0.237340
v -0.520597 0.839276 0.108572
v -0.533857 0.823263 0.119076
v -0.366500 0.772569 0.248157
vn -0.299496 0.689056 0.659928
f 737/1/185 738/2/185 739/3/185 740/4/185
v -0.366500 0.772569 0.248157
v -0.533857 0.823263 0.119076
v -0.541733 0.801389 0.120522
v -0.374339 0.750694 0.249791
vn -0.541340 0.253868 0.801562
f 741/1/186 742/2/186 743/3/186 744/4/186
v -0.374339 0.750694 0.249791
v -0.541733 0.801389 0.120522
v -0.542114 0.779515 0.112524
v -0.374910 0.728820 0.241804
vn -0.638076 -0.249347 0.728481
f 745/1/187 746/2/187 747/3/187 748/4/187
v -0.374910 0.728820 0.241804
v -0.542114 0.779515 0.112524
v -0.534898 0.763502 0.097223
v -0.368060 0.712807 0.226336
vn -0.563791 -0.685784 0.460261
f 749/1/188 750/2/188 751/3/188 752/4/188
v -0.368060 0.712807 0.226336
v -0.534898 0.763502 0.097223
v -0.522018 0.757641 0.078720
v -0.355624 0.706946 0.207532
vn -0.338369 -0.938499 0.068747
f 753/1/189 754/2/189 755/3/189 756/4/189
v -0.355624 0.706946 0.207532
v -0.522018 0.757641 0.078720
v -0.506925 0.763502 0.061973
v -0.340934 0.712807 0.190430
vn -0.022210 -0.939745 -0.341153
f 757/1/190 758/2/190 759/3/190 760/4/190
v -0.340934 0.712807 0.190430
v -0.506925 0.763502 0.061973
v -0.493665 0.779515 0.051469
v -0.327928 0.728820 0.179613
vn 0.299952 -0.689191 -0.659579
f 761/1/191 762/2/191 763/3/191 764/4/191
v -0.327928 0.728820 0.179613
v -0.493665 0.779515 0.051469
v -0.485789 0.801389 0.050023
v -0.320088 0.750694 0.177980
vn 0.541789 -0.254003 -0.801216
f 765/1/192 766/2/192 767/3/192 768/4/192
v -0.485789 0.801389 0.050023
v -0.647881 0.852083 -0.082131
v -0.647729 0.873957 -0.074125
v -0.485408 0.823263 0.058021
vn 0.657580 0.248609 -0.711183
f 769/1/193 770/2/193 771/3/193 772/4/193
v -0.485408 0.823263 0.058021
v -0.647729 0.873957 -0.074125
v -0.655379 0.889970 -0.059036
v -0.492624 0.839276 0.073322
vn 0.576447 0.685194 -0.445218
f 773/1/194 774/2/194 775/3/194 776/4/194
v -0.492624 0.839276 0.073322
v -0.655379 0.889970 -0.059036
v -0.668783 0.895831 -0.040909
v -0.505504 0.845137 0.091824
vn 0.340916 0.938185 -0.059875
f 777/1/195 778/2/195 779/3/195 780/4/195
v -0.505504 0.845137 0.091824
v -0.668783 0.895831 -0.040909
v -0.684347 0.889970 -0.024600
v -0.520597 0.839276 0.108572
vn 0.014086 0.939745 0.341585
f 781/1/196 782/2/196 783/3/196 784/4/196
v -0.520597 0.839276 0.108572
v -0.684347 0.889970 -0.024600
v -0.697903 0.873957 -0.014480
v -0.533857 0.823263 0.119076
vn -0.316438 0.689454 0.651552
f 785/1/197 786/2/197 787/3/197 788/4/197
v -0.533857 0.823263 0.119076
v -0.697903 0.873957 -0.014480
v -0.705817 0.852083 -0.013259
v -0.541733 0.801389 0.120522
vn -0.562081 0.254425 0.786977
f 789/1/198 790/2/198 791/3/198 792/4/198
v -0.541733 0.801389 0.120522
v -0.705817 0.852083 -0.013259
v -0.705969 0.830209 -0.021265
v -0.542114 0.779515 0.112524
vn -0.657053 -0.248775 0.711612
f 793/1/199 794/2/199 795/3/199 796/4/199
v -0.542114 0.779515 0.112524
v -0.705969 0.830209 -0.021265
v -0.698319 0.814196 -0.036353
v -0.534898 0.763502 0.097223
vn -0.575914 -0.685363 0.445646
f 797/1/200 798/2/200 799/3/200 800/4/200
v -0.534898 0.763502 0.097223
v -0.698319 0.814196 -0.036353
v -0.684915 0.808335 -0.054481
v -0.522018 0.757641 0.078720
vn -0.340376 -0.938354 0.060304
f 801/1/201 802/2/201 803/3/201 804/4/201
v -0.522018 0.757641 0.078720
v -0.684915 0.808335 -0.054481
v -0.669351 0.814196 -0.070789
v -0.506925 0.763502 0.061973
vn -0.013544 -0.939910 -0.341154
f 805/1/202 806/2/202 807/3/202 808/4/202
v -0.506925 0.763502 0.061973
v -0.669351 0.814196 -0.070789
v -0.655795 0.830209 -0.080910
v -0.493665 0.779515 0.051469
vn 0.316975 -0.689616 -0.651120
f 809/1/203 810/2/203 811/3/203 812/4/203
v -0.493665 0.779515 0.051469
v -0.655795 0.830209 -0.080910
v -0.647881 0.852083 -0.082131
v -0.485789 0.801389 0.050023
vn 0.562611 -0.254587 -0.786546
f 813/1/204 814/2/204 815/3/204 816/4/204
v -0.647881 0.852083 -0.082131
v -0.805595 0.902778 -0.218991
v -0.805728 0.924652 -0.210983
v -0.647729 0.873957 -0.074125
vn 0.679178 0.248110 -0.690767
f 817/1/205 818/2/205 819/3/205 820/4/205
v -0.647729 0.873957 -0.074125
v -0.805728 0.924652 -0.210983
v -0.813911 0.940664 -0.196177
v -0.655379 0.889970 -0.059036
vn 0.590091 0.684816 -0.427575
f 821/1/206 822/2/206 823/3/206 824/4/206
v -0.655379 0.889970 -0.059036
v -0.813911 0.940664 -0.196177
v -0.827952 0.946526 -0.178539
v -0.668783 0.895831 -0.040909
vn 0.342960 0.938034 -0.049709
f 825/1/207 826/2/207 827/3/207 828/4/207
v -0.668783 0.895831 -0.040909
v -0.827952 0.946526 -0.178539
v -0.844088 0.940664 -0.162796
v -0.684347 0.889970 -0.024600
vn 0.003987 0.939848 0.341569
f 829/1/208 830/2/208 831/3/208 832/4/208
v -0.684347 0.889970 -0.024600
v -0.844088 0.940664 -0.162796
v -0.857996 0.924652 -0.153165
v -0.697903 0.873957 -0.014480
vn -0.335958 0.689771 0.641365
f 833/1/209 834/2/209 835/3/209 836/4/209
v -0.697903 0.873957 -0.014480
v -0.857996 0.924652 -0.153165
v -0.865949 0.902778 -0.152227
v -0.705817 0.852083 -0.013259
vn -0.585771 0.254874 0.769358
f 837/1/210 838/2/210 839/3/210 840/4/210
v -0.705817 0.852083 -0.013259
v -0.865949 0.902778 -0.152227
v -0.865816 0.880904 -0.160234
v -0.705969 0.830209 -0.021265
vn -0.678553 -0.248312 0.691308
f 841/1/211 842/2/211 843/3/211 844/4/211
v -0.705969 0.830209 -0.021265
v -0.865816 0.880904 -0.160234
v -0.857633 0.864891 -0.175040
v -0.698319 0.814196 -0.036353
vn -0.589454 -0.685024 0.428119
f 845/1/212 846/2/212 847/3/212 848/4/212
v -0.698319 0.814196 -0.036353
v -0.857633 0.864891 -0.175040
v -0.843592 0.859030 -0.192678
v -0.684915 0.808335 -0.054481
vn -0.342307 -0.938243 0.050260
f 849/1/213 850/2/213 851/3/213 852/4/213
v -0.684915 0.808335 -0.054481
v -0.843592 0.859030 -0.192678
v -0.827456 0.864891 -0.208422
v -0.669351 0.814196 -0.070789
vn -0.003329 -0.940052 -0.341014
f 853/1/214 854/2/214 855/3/214 856/4/214
v -0.669351 0.814196 -0.070789
v -0.827456 0.864891 -0.208422
v -0.813548 0.880904 -0.218053
v -0.655795 0.830209 -0.080910
vn 0.336604 -0.689969 -0.640812
f 857/1/215 858/2/215 859/3/215 860/4/215
v -0.655795 0.830209 -0.080910
v -0.813548 0.880904 -0.218053
v -0.805595 0.902778 -0.218991
v -0.647881 0.852083 -0.082131
vn 0.586401 -0.255071 -0.768813
f 861/1/216 862/2/216 863/3/216 864/4/216
v -0.805595 0.902778 -0.218991
v -0.957286 0.953472 -0.361807
v -0.957786 0.975346 -0.353814
v -0.805728 0.924652 -0.210983
vn 0.706728 0.246978 -0.662976
f 865/1/217 866/2/217 867/3/217 868/4/217
v -0.805728 0.924652 -0.210983
v -0.957786 0.975346 -0.353814
v -0.966641 0.991359 -0.339400
v -0.813911 0.940664 -0.196177
vn 0.607467 0.683960 -0.403959
f 869/1/218 870/2/218 871/3/218 872/4/218
v -0.813911 0.940664 -0.196177
v -0.966641 0.991359 -0.339400
v -0.981478 0.997220 -0.322426
v -0.827952 0.946526 -0.178539
vn 0.345514 0.937702 -0.036549
f 873/1/219 874/2/219 875/3/219 876/4/219
v -0.827952 0.946526 -0.178539
v -0.981478 0.997220 -0.322426
v -0.998322 0.991359 -0.307441
v -0.844088 0.940664 -0.162796
vn -0.008970 0.940098 0.340786
f 877/1/220 878/2/220 879/3/220 880/4/220
v -0.844088 0.940664 -0.162796
v -0.998322 0.991359 -0.307441
v -1.012659 0.975346 -0.298460
v -0.857996 0.924652 -0.153165
vn -0.360923 0.690503 0.626849
f 881/1/221 882/2/221 883/3/221 884/4/221
v -0.857996 0.924652 -0.153165
v -1.012659 0.975346 -0.298460
v -1.020647 0.953472 -0.297890
v -0.865949 0.902778 -0.152227
vn -0.616012 0.255907 0.745011
f 885/1/222 886/2/222 887/3/222 888/4/222
v -0.865949 0.902778 -0.152227
v -1.020647 0.953472 -0.297890
v -1.020147 0.931599 -0.305883
v -0.865816 0.880904 -0.160234
vn -0.705958 -0.247238 0.663699
f 889/1/223 890/2/223 891/3/223 892/4/223
v -0.865816 0.880904 -0.160234
v -1.020147 0.931599 -0.305883
v -1.011292 0.915586 -0.320298
v -0.857633 0.864891 -0.175040
vn -0.606679 -0.684229 0.404686
f 893/1/224 894/2/224 895/3/224 896/4/224
v -0.857633 0.864891 -0.175040
v -1.011292 0.915586 -0.320298
v -0.996455 0.909725 -0.337272
v -0.843592 0.859030 -0.192678
vn -0.344701 -0.937972 0.037286
f 897/1/225 898/2/225 899/3/225 900/4/225
v -0.843592 0.859030 -0.192678
v -0.996455 0.909725 -0.337272
v -0.979611 0.915586 -0.352257
v -0.827456 0.864891 -0.208422
vn 0.009790 -0.940359 -0.340043
f 901/1/226 902/2/226 903/3/226 904/4/226
v -0.827456 0.864891 -0.208422
v -0.979611 0.915586 -0.352257
v -0.965274 0.931599 -0.361237
v -0.813548 0.880904 -0.218053
vn 0.361725 -0.690755 -0.626109
f 905/1/227 906/2/227 907/3/227 908/4/227
v -0.813548 0.880904 -0.218053
v -0.965274 0.931599 -0.361237
v -0.957286 0.953472 -0.361807
v -0.805595 0.902778 -0.218991
vn 0.616789 -0.256159 -0.744281
f 909/1/228 910/2/228 911/3/228 912/4/228
v -0.957286 0.953472 -0.361807
v -1.100933 1.004167 -0.511704
v -1.101925 1.026040 -0.503756
v -0.957786 0.975346 -0.353814
vn 0.740034 0.245710 -0.626080
f 913/1/229 914/2/229 915/3/229 916/4/229
v -0.957786 0.975346 -0.353814
v -1.101925 1.026040 -0.503756
v -1.111654 1.042052 -0.489915
v -0.966641 0.991359 -0.339400
vn 0.628088 0.682990 -0.372867
f 917/1/230 918/2/230 919/3/230 920/4/230
v -0.966641 0.991359 -0.339400
v -1.111654 1.042052 -0.489915
v -1.127512 1.047913 -0.473891
v -0.981478 0.997220 -0.322426
vn 0.347931 0.937317 -0.019523
f 921/1/231 922/2/231 923/3/231 924/4/231
v -0.981478 0.997220 -0.322426
v -1.127512 1.047913 -0.473891
v -1.145250 1.042052 -0.459977
v -0.998322 0.991359 -0.307441
vn -0.025419 0.940359 0.339233
f 925/1/232 926/2/232 927/3/232 928/4/232
v -0.998322 0.991359 -0.307441
v -1.145250 1.042052 -0.459977
v -1.160116 1.026040 -0.451902
v -1.012659 0.975346 -0.298460
vn -0.391793 0.691295 0.607132
f 929/1/233 930/2/233 931/3/233 932/4/233
v -1.012659 0.975346 -0.298460
v -1.160116 1.026040 -0.451902
v -1.168126 1.004167 -0.451829
v -1.020647 0.953472 -0.297890
vn -0.652973 0.257041 0.712429
f 933/1/234 934/2/234 935/3/234 936/4/234
v -1.020647 0.953472 -0.297890
v -1.168126 1.004167 -0.451829
v -1.167134 0.982294 -0.459777
v -1.020147 0.931599 -0.305883
vn -0.739096 -0.246045 0.627056
f 937/1/235 938/2/235 939/3/235 940/4/235
v -1.020147 0.931599 -0.305883
v -1.167134 0.982294 -0.459777
v -1.157405 0.966281 -0.473618
v -1.011292 0.915586 -0.320298
vn -0.627111 -0.683345 0.373861
f 941/1/236 942/2/236 943/3/236 944/4/236
v -1.011292 0.915586 -0.320298
v -1.157405 0.966281 -0.473618
v -1.141547 0.960420 -0.489642
v -0.996455 0.909725 -0.337272
vn -0.346899 -0.937677 0.020550
f 945/1/237 946/2/237 947/3/237 948/4/237
v -0.996455 0.909725 -0.337272
v -1.141547 0.960420 -0.489642
v -1.123809 0.966281 -0.503556
v -0.979611 0.915586 -0.352257
vn 0.026468 -0.940706 -0.338189
f 949/1/238 950/2/238 951/3/238 952/4/238
v -0.979611 0.915586 -0.352257
v -1.123809 0.966281 -0.503556
v -1.108943 0.982294 -0.511631
v -0.965274 0.931599 -0.361237
vn 0.392802 -0.691623 -0.606106
f 953/1/239 954/2/239 955/3/239 956/4/239
v -0.965274 0.931599 -0.361237
v -1.108943 0.982294 -0.511631
v -1.100933 1.004167 -0.511704
v -0.957286 0.953472 -0.361807
vn 0.653928 -0.257364 -0.711437
f 957/1/240 958/2/240 959/3/240 960/4/240
v -1.100933 1.004167 -0.511704
v -1.232602 1.054861 -0.670632
v -1.234289 1.076733 -0.662798
v -1.101925 1.026040 -0.503756
vn 0.783624 0.243272 -0.571623
f 961/1/241 962/2/241 963/3/241 964/4/241
v -1.101925 1.026040 -0.503756
v -1.234289 1.076733 -0.662798
v -1.245200 1.092744 -0.649868
v -1.111654 1.042052 -0.489915
vn 0.654708 0.681111 -0.327788
f 965/1/242 966/2/242 967/3/242 968/4/242
v -1.111654 1.042052 -0.489915
v -1.245200 1.092744 -0.649868
v -1.262410 1.098605 -0.635305
v -1.127512 1.047913 -0.473891
vn 0.350432 0.936579 0.004242
f 969/1/243 970/2/243 971/3/243 972/4/243
v -1.127512 1.047913 -0.473891
v -1.262410 1.098605 -0.635305
v -1.281309 1.092744 -0.623013
v -1.145250 1.042052 -0.459977
vn -0.047777 0.940862 0.335406
f 973/1/244 974/2/244 975/3/244 976/4/244
v -1.145250 1.042052 -0.459977
v -1.281309 1.092744 -0.623013
v -1.296832 1.076733 -0.616285
v -1.160116 1.026040 -0.451902
vn -0.432940 0.692797 0.576711
f 977/1/245 978/2/245 979/3/245 980/4/245
v -1.160116 1.026040 -0.451902
v -1.296832 1.076733 -0.616285
v -1.304820 1.054861 -0.616923
v -1.168126 1.004167 -0.451829
vn -0.701761 0.259207 0.663583
f 981/1/246 982/2/246 983/3/246 984/4/246
v -1.168126 1.004167 -0.451829
v -1.304820 1.054861 -0.616923
v -1.303132 1.032989 -0.624757
v -1.167134 0.982294 -0.459777
vn -0.782462 -0.243726 0.573018
f 985/1/247 986/2/247 987/3/247 988/4/247
v -1.167134 0.982294 -0.459777
v -1.303132 1.032989 -0.624757
v -1.292222 1.016978 -0.637688
v -1.157405 0.966281 -0.473618
vn -0.653468 -0.681605 0.329231
f 989/1/248 990/2/248 991/3/248 992/4/248
v -1.157405 0.966281 -0.473618
v -1.292222 1.016978 -0.637688
v -1.275012 1.011117 -0.652250
v -1.141547 0.960420 -0.489642
vn -0.349078 -0.937090 -0.002716
f 993/1/249 994/2/249 995/3/249 996/4/249
v -1.141547 0.960420 -0.489642
v -1.275012 1.011117 -0.652250
v -1.256113 1.016978 -0.664542
v -1.123809 0.966281 -0.503556
vn 0.049165 -0.941347 -0.333840
f 997/1/250 998/2/250 999/3/250 1000/4/250
v -1.123809 0.966281 -0.503556
v -1.256113 1.016978 -0.664542
v -1.240590 1.032989 -0.671270
v -1.108943 0.982294 -0.511631
vn 0.434246 -0.693243 -0.575191
f 1001/1/251 1002/2/251 1003/3/251 1004/4/251
v -1.108943 0.982294 -0.511631
v -1.240590 1.032989 -0.671270
v -1.232602 1.054861 -0.670632
v -1.100933 1.004167 -0.511704
vn 0.702955 -0.259640 -0.662149
f 1005/1/252 1006/2/252 1007/3/252 1008/4/252
v -1.232602 1.054861 -0.670632
v -1.345797 1.105556 -0.840544
v -1.348522 1.127424 -0.832997
v -1.234289 1.076733 -0.662798
vn 0.839465 0.239474 -0.487801
f 1009/1/253 1010/2/253 1011/3/253 1012/4/253
v -1.234289 1.076733 -0.662798
v -1.348522 1.127424 -0.832997
v -1.361077 1.143433 -0.821653
v -1.245200 1.092744 -0.649868
vn 0.687596 0.678128 -0.259525
f 1013/1/254 1014/2/254 1015/3/254 1016/4/254
v -1.245200 1.092744 -0.649868
v -1.361077 1.143433 -0.821653
v -1.380098 1.149292 -0.809551
v -1.262410 1.098605 -0.635305
vn 0.351464 0.935392 0.038925
f 1017/1/255 1018/2/255 1019/3/255 1020/4/255
v -1.262410 1.098605 -0.635305
v -1.380098 1.149292 -0.809551
v -1.400488 1.143433 -0.799933
v -1.281309 1.092744 -0.623013
vn -0.079092 0.941595 0.327327
f 1021/1/256 1022/2/256 1023/3/256 1024/4/256
v -1.281309 1.092744 -0.623013
v -1.400488 1.143433 -0.799933
v -1.416784 1.127424 -0.795377
v -1.296832 1.076733 -0.616285
vn -0.488080 0.695038 0.527920
f 1025/1/257 1026/2/257 1027/3/257 1028/4/257
v -1.296832 1.076733 -0.616285
v -1.416784 1.127424 -0.795377
v -1.424619 1.105556 -0.797103
v -1.304820 1.054861 -0.616923
vn -0.765715 0.262520 0.587166
f 1029/1/258 1030/2/258 1031/3/258 1032/4/258
v -1.304820 1.054861 -0.616923
v -1.424619 1.105556 -0.797103
v -1.421895 1.083687 -0.804650
v -1.303132 1.032989 -0.624757
vn -0.838165 -0.240068 0.489741
f 1033/1/259 1034/2/259 1035/3/259 1036/4/259
v -1.303132 1.032989 -0.624757
v -1.421895 1.083687 -0.804650
v -1.409340 1.067679 -0.815994
v -1.292222 1.016978 -0.637688
vn -0.686105 -0.678824 0.261645
f 1037/1/260 1038/2/260 1039/3/260 1040/4/260
v -1.292222 1.016978 -0.637688
v -1.409340 1.067679 -0.815994
v -1.390319 1.061819 -0.828097
v -1.275012 1.011117 -0.652250
vn -0.349681 -0.936157 -0.036510
f 1041/1/261 1042/2/261 1043/3/261 1044/4/261
v -1.275012 1.011117 -0.652250
v -1.390319 1.061819 -0.828097
v -1.369929 1.067679 -0.837715
v -1.256113 1.016978 -0.664542
vn 0.080967 -0.942315 -0.324788
f 1045/1/262 1046/2/262 1047/3/262 1048/4/262
v -1.256113 1.016978 -0.664542
v -1.369929 1.067679 -0.837715
v -1.353633 1.083687 -0.842270
v -1.240590 1.032989 -0.671270
vn 0.489747 -0.695660 -0.525552
f 1049/1/263 1050/2/263 1051/3/263 1052/4/263
v -1.240590 1.032989 -0.671270
v -1.353633 1.083687 -0.842270
v -1.345797 1.105556 -0.840544
v -1.232602 1.054861 -0.670632
vn 0.767099 -0.263086 -0.585102
f 1053/1/264 1054/2/264 1055/3/264 1056/4/264
v -1.345797 1.105556 -0.840544
v -1.429791 1.156250 -1.028917
v -1.433141 1.178122 -1.021638
v -1.348522 1.127424 -0.832997
vn 0.910109 0.231902 -0.343399
f 1057/1/265 1058/2/265 1059/3/265 1060/4/265
v -1.348522 1.127424 -0.832997
v -1.433141 1.178122 -1.021638
v -1.446603 1.194133 -1.011390
v -1.361077 1.143433 -0.821653
vn 0.726045 0.672178 -0.145036
f 1061/1/266 1062/2/266 1063/3/266 1064/4/266
v -1.361077 1.143433 -0.821653
v -1.446603 1.194133 -1.011390
v -1.466569 1.199994 -1.000919
v -1.380098 1.149292 -0.809551
vn 0.346755 0.933324 0.093094
f 1065/1/267 1066/2/267 1067/3/267 1068/4/267
v -1.380098 1.149292 -0.809551
v -1.466569 1.199994 -1.000919
v -1.487689 1.194133 -0.993032
v -1.400488 1.143433 -0.799933
vn -0.126281 0.943301 0.306980
f 1069/1/268 1070/2/268 1071/3/268 1072/4/268
v -1.400488 1.143433 -0.799933
v -1.487689 1.194133 -0.993032
v -1.504304 1.178122 -0.989842
v -1.416784 1.127424 -0.795377
vn -0.564437 0.699367 0.438517
f 1073/1/269 1074/2/269 1075/3/269 1076/4/269
v -1.416784 1.127424 -0.795377
v -1.504304 1.178122 -0.989842
v -1.511962 1.156250 -0.992203
v -1.424619 1.105556 -0.797103
vn -0.850156 0.268866 0.452710
f 1077/1/270 1078/2/270 1079/3/270 1080/4/270
v -1.424619 1.105556 -0.797103
v -1.511962 1.156250 -0.992203
v -1.508611 1.134378 -0.999483
v -1.421895 1.083687 -0.804650
vn -0.908768 -0.232757 0.346359
f 1081/1/271 1082/2/271 1083/3/271 1084/4/271
v -1.421895 1.083687 -0.804650
v -1.508611 1.134378 -0.999483
v -1.495150 1.118367 -1.009731
v -1.409340 1.067679 -0.815994
vn -0.724814 -0.672967 0.147511
f 1085/1/272 1086/2/272 1087/3/272 1088/4/272
v -1.409340 1.067679 -0.815994
v -1.495150 1.118367 -1.009731
v -1.475184 1.112506 -1.020201
v -1.390319 1.061819 -0.828097
vn -0.345730 -0.933891 -0.091208
f 1089/1/273 1090/2/273 1091/3/273 1092/4/273
v -1.390319 1.061819 -0.828097
v -1.475184 1.112506 -1.020201
v -1.454064 1.118367 -1.028088
v -1.369929 1.067679 -0.837715
vn 0.127238 -0.943743 -0.305220
f 1093/1/274 1094/2/274 1095/3/274 1096/4/274
v -1.369929 1.067679 -0.837715
v -1.454064 1.118367 -1.028088
v -1.437449 1.134378 -1.031278
v -1.353633 1.083687 -0.842270
vn 0.565548 -0.699864 -0.436287
f 1097/1/275 1098/2/275 1099/3/275 1100/4/275
v -1.353633 1.083687 -0.842270
v -1.437449 1.134378 -1.031278
v -1.429791 1.156250 -1.028917
v -1.345797 1.105556 -0.840544
vn 0.851445 -0.269552 -0.449870
f 1101/1/276 1102/2/276 1103/3/276 1104/4/276
v -1.429791 1.156250 -1.028917
v -1.466569 1.199994 -1.000919
v -1.446603 1.194133 -1.011390
v -1.433141 1.178122 -1.021638
vn -0.396544 0.234656 -0.887519
f 1105/1/277 1106/2/277 1107/3/277 1108/4/277
v -1.429791 1.156250 -1.028917
v -1.504304 1.178122 -0.989842
v -1.487689 1.194133 -0.993032
v -1.466569 1.199994 -1.000919
vn -0.396544 0.234656 -0.887519
f 1109/1/278 1110/2/278 1111/3/278 1112/4/278
v -1.429791 1.156250 -1.028917
v -1.508611 1.134378 -0.999483
v -1.511962 1.156250 -0.992203
v -1.504304 1.178122 -0.989842
vn -0.396544 0.234656 -0.887519
f 1113/1/279 1114/2/279 1115/3/279 1116/4/279
v -1.429791 1.156250 -1.028917
v -1.475184 1.112506 -1.020201
v -1.495150 1.118367 -1.009731
v -1.508611 1.134378 -0.999483
vn -0.396544 0.234656 -0.887519
f 1117/1/280 1118/2/280 1119/3/280 1120/4/280
v -1.429791 1.156250 -1.028917
v -1.437449 1.134378 -1.031278
v -1.454064 1.118367 -1.028088
v -1.475184 1.112506 -1.020201
vn -0.396544 0.234656 -0.887519
f 1121/1/281 1122/2/281 1123/3/281 1124/4/281
v -1.435157 1.153841 -1.010039
v -1.451593 1.156250 -1.069544
v -1.455964 1.173247 -1.068222
v -1.439376 1.170829 -1.008205
vn 0.933742 0.258644 -0.247444
f 1125/1/282 1126/2/282 1127/3/282 1128/4/282
v -1.439376 1.170829 -1.008205
v -1.455964 1.173247 -1.068222
v -1.468049 1.185690 -1.065243
v -1.451248 1.183264 -1.004443
vn 0.688845 0.706594 -0.161916
f 1129/1/283 1130/2/283 1131/3/283 1132/4/283
v -1.451248 1.183264 -1.004443
v -1.468049 1.185690 -1.065243
v -1.484611 1.190244 -1.061404
v -1.467591 1.187816 -0.999759
vn 0.259328 0.965220 -0.033163
f 1133/1/284 1134/2/284 1135/3/284 1136/4/284
v -1.467591 1.187816 -0.999759
v -1.484611 1.190244 -1.061404
v -1.501210 1.185690 -1.057735
v -1.484026 1.183264 -0.995409
vn -0.239751 0.965226 0.104201
f 1137/1/285 1138/2/285 1139/3/285 1140/4/285
v -1.484026 1.183264 -0.995409
v -1.501210 1.185690 -1.057735
v -1.513400 1.173247 -1.055217
v -1.496150 1.170829 -0.992559
vn -0.674630 0.706607 0.213497
f 1141/1/286 1142/2/286 1143/3/286 1144/4/286
v -1.496150 1.170829 -0.992559
v -1.513400 1.173247 -1.055217
v -1.517914 1.156250 -1.054527
v -1.500713 1.153841 -0.991972
vn -0.928720 0.258649 0.265668
f 1145/1/287 1146/2/287 1147/3/287 1148/4/287
v -1.500713 1.153841 -0.991972
v -1.517914 1.156250 -1.054527
v -1.513543 1.139253 -1.055849
v -1.496493 1.136853 -0.993806
vn -0.933907 -0.258620 0.246846
f 1149/1/288 1150/2/288 1151/3/288 1152/4/288
v -1.496493 1.136853 -0.993806
v -1.513543 1.139253 -1.055849
v -1.501458 1.126810 -1.058828
v -1.484621 1.124417 -0.997568
vn -0.688832 -0.706596 0.161964
f 1153/1/289 1154/2/289 1155/3/289 1156/4/289
v -1.484621 1.124417 -0.997568
v -1.501458 1.126810 -1.058828
v -1.484896 1.122256 -1.062667
v -1.468278 1.119866 -1.002252
vn -0.259225 -0.965235 0.033538
f 1157/1/290 1158/2/290 1159/3/290 1160/4/290
v -1.468278 1.119866 -1.002252
v -1.484896 1.122256 -1.062667
v -1.468297 1.126810 -1.066336
v -1.451843 1.124417 -1.006602
vn 0.239766 -0.965228 -0.104147
f 1161/1/291 1162/2/291 1163/3/291 1164/4/291
v -1.451843 1.124417 -1.006602
v -1.468297 1.126810 -1.066336
v -1.456107 1.139253 -1.068853
v -1.439720 1.136853 -1.009452
vn 0.674467 -0.706583 -0.214089
f 1165/1/292 1166/2/292 1167/3/292 1168/4/292
v -1.439720 1.136853 -1.009452
v -1.456107 1.139253 -1.068853
v -1.451593 1.156250 -1.069544
v -1.435157 1.153841 -1.010039
vn 0.928467 -0.258613 -0.266586
f 1169/1/293 1170/2/293 1171/3/293 1172/4/293
v -1.451593 1.156250 -1.069544
v -1.462111 1.156250 -1.128440
v -1.466633 1.173250 -1.127890
v -1.455964 1.173247 -1.068222
vn 0.951144 0.257820 -0.169865
f 1173/1/294 1174/2/294 1175/3/294 1176/4/294
v -1.455964 1.173247 -1.068222
v -1.466633 1.173250 -1.127890
v -1.478987 1.185695 -1.126389
v -1.468049 1.185690 -1.065243
vn 0.696679 0.706491 -0.124533
f 1177/1/295 1178/2/295 1179/3/295 1180/4/295
v -1.468049 1.185690 -1.065243
v -1.478987 1.185695 -1.126389
v -1.495863 1.190250 -1.124338
v -1.484611 1.190244 -1.061404
vn 0.255054 0.965854 -0.045539
f 1181/1/296 1182/2/296 1183/3/296 1184/4/296
v -1.484611 1.190244 -1.061404
v -1.495863 1.190250 -1.124338
v -1.512739 1.185695 -1.122287
v -1.501210 1.185690 -1.057735
vn -0.254909 0.965886 0.045671
f 1185/1/297 1186/2/297 1187/3/297 1188/4/297
v -1.501210 1.185690 -1.057735
v -1.512739 1.185695 -1.122287
v -1.525093 1.173250 -1.120786
v -1.513400 1.173247 -1.055217
vn -0.696082 0.707108 0.124374
f 1189/1/298 1190/2/298 1191/3/298 1192/4/298
v -1.513400 1.173247 -1.055217
v -1.525093 1.173250 -1.120786
v -1.529615 1.156250 -1.120237
v -1.517914 1.156250 -1.054527
vn -0.950769 0.259397 0.169561
f 1193/1/299 1194/2/299 1195/3/299 1196/4/299
v -1.517914 1.156250 -1.054527
v -1.529615 1.156250 -1.120237
v -1.525093 1.139250 -1.120786
v -1.513543 1.139253 -1.055849
vn -0.951234 -0.257805 0.169380
f 1197/1/300 1198/2/300 1199/3/300 1200/4/300
v -1.513543 1.139253 -1.055849
v -1.525093 1.139250 -1.120786
v -1.512739 1.126805 -1.122287
v -1.501458 1.126810 -1.058828
vn -0.696799 -0.706473 0.123966
f 1201/1/301 1202/2/301 1203/3/301 1204/4/301
v -1.501458 1.126810 -1.058828
v -1.512739 1.126805 -1.122287
v -1.495863 1.122250 -1.124338
v -1.484896 1.122256 -1.062667
vn -0.255080 -0.965852 0.045426
f 1205/1/302 1206/2/302 1207/3/302 1208/4/302
v -1.484896 1.122256 -1.062667
v -1.495863 1.122250 -1.124338
v -1.478987 1.126805 -1.126389
v -1.468297 1.126810 -1.066336
vn 0.255001 -0.965881 -0.045248
f 1209/1/303 1210/2/303 1211/3/303 1212/4/303
v -1.468297 1.126810 -1.066336
v -1.478987 1.126805 -1.126389
v -1.466633 1.139250 -1.127890
v -1.456107 1.139253 -1.068853
vn 0.696180 -0.707101 -0.123864
f 1213/1/304 1214/2/304 1215/3/304 1216/4/304
v -1.456107 1.139253 -1.068853
v -1.466633 1.139250 -1.127890
v -1.462111 1.156250 -1.128440
v -1.451593 1.156250 -1.069544
vn 0.950779 -0.259398 -0.169506
f 1217/1/305 1218/2/305 1219/3/305 1220/4/305
v -1.462111 1.156250 -1.128440
v -1.466073 1.156250 -1.189722
v -1.470618 1.173250 -1.189425
v -1.466633 1.173250 -1.127890
vn 0.964016 0.258435 -0.062317
f 1221/1/306 1222/2/306 1223/3/306 1224/4/306
v -1.466633 1.173250 -1.127890
v -1.470618 1.173250 -1.189425
v -1.483036 1.185695 -1.188611
v -1.478987 1.185695 -1.126389
vn 0.706187 0.706547 -0.045734
f 1225/1/307 1226/2/307 1227/3/307 1228/4/307
v -1.478987 1.185695 -1.126389
v -1.483036 1.185695 -1.188611
v -1.500000 1.190250 -1.187500
v -1.495863 1.190250 -1.124338
vn 0.258650 0.965824 -0.016833
f 1229/1/308 1230/2/308 1231/3/308 1232/4/308
v -1.495863 1.190250 -1.124338
v -1.500000 1.190250 -1.187500
v -1.516964 1.185695 -1.186389
v -1.512739 1.185695 -1.122287
vn -0.258637 0.965826 0.016941
f 1233/1/309 1234/2/309 1235/3/309 1236/4/309
v -1.512739 1.185695 -1.122287
v -1.516964 1.185695 -1.186389
v -1.529382 1.173250 -1.185575
v -1.525093 1.173250 -1.120786
vn -0.706112 0.706569 0.046540
f 1237/1/310 1238/2/310 1239/3/310 1240/4/310
v -1.525093 1.173250 -1.120786
v -1.529382 1.173250 -1.185575
v -1.533927 1.156250 -1.185278
v -1.529615 1.156250 -1.120237
vn -0.963913 0.258456 0.063813
f 1241/1/311 1242/2/311 1243/3/311 1244/4/311
v -1.529615 1.156250 -1.120237
v -1.533927 1.156250 -1.185278
v -1.529382 1.139250 -1.185575
v -1.525093 1.139250 -1.120786
vn -0.963906 -0.258458 0.063914
f 1245/1/312 1246/2/312 1247/3/312 1248/4/312
v -1.525093 1.139250 -1.120786
v -1.529382 1.139250 -1.185575
v -1.516964 1.126805 -1.186389
v -1.512739 1.126805 -1.122287
vn -0.706093 -0.706575 0.046745
f 1249/1/313 1250/2/313 1251/3/313 1252/4/313
v -1.512739 1.126805 -1.122287
v -1.516964 1.126805 -1.186389
v -1.500000 1.122250 -1.187500
v -1.495863 1.122250 -1.124338
vn -0.258625 -0.965827 0.017046
f 1253/1/314 1254/2/314 1255/3/314 1256/4/314
v -1.495863 1.122250 -1.124338
v -1.500000 1.122250 -1.187500
v -1.483036 1.126805 -1.188611
v -1.478987 1.126805 -1.126389
vn 0.258637 -0.965826 -0.016941
f 1257/1/315 1258/2/315 1259/3/315 1260/4/315
v -1.478987 1.126805 -1.126389
v -1.483036 1.126805 -1.188611
v -1.470618 1.139250 -1.189425
v -1.466633 1.139250 -1.127890
vn 0.706166 -0.706553 -0.045956
f 1261/1/316 1262/2/316 1263/3/316 1264/4/316
v -1.466633 1.139250 -1.127890
v -1.470618 1.139250 -1.189425
v -1.466073 1.156250 -1.189722
v -1.462111 1.156250 -1.128440
vn 0.964009 -0.258437 -0.062431
f 1265/1/317 1266/2/317 1267/3/317 1268/4/317
v -1.466073 1.156250 -1.189722
v -1.500000 1.190250 -1.187500
v -1.483036 1.185695 -1.188611
v -1.470618 1.173250 -1.189425
vn -0.065360 -0.000000 -0.997862
f 1269/1/318 1270/2/318 1271/3/318 1272/4/318
v -1.466073 1.156250 -1.189722
v -1.529382 1.173250 -1.185575
v -1.516964 1.185695 -1.186389
v -1.500000 1.190250 -1.187500
vn -0.065360 -0.000000 -0.997862
f 1273/1/319 1274/2/319 1275/3/319 1276/4/319
v -1.466073 1.156250 -1.189722
v -1.529382 1.139250 -1.185575
v -1.533927 1.156250 -1.185278
v -1.529382 1.173250 -1.185575
vn -0.065360 0.000000 -0.997862
f 1277/1/320 1278/2/320 1279/3/320 1280/4/320
v -1.466073 1.156250 -1.189722
v -1.500000 1.122250 -1.187500
v -1.516964 1.126805 -1.186389
v -1.529382 1.139250 -1.185575
vn -0.065360 0.000000 -0.997862
f 1281/1/321 1282/2/321 1283/3/321 1284/4/321
v -1.466073 1.156250 -1.189722
v -1.470618 1.139250 -1.189425
v -1.483036 1.126805 -1.188611
v -1.500000 1.122250 -1.187500
vn -0.065360 0.000000 -0.997862
f 1285/1/322 1286/2/322 1287/3/322 1288/4/322
v 0.513801 0.125000 0.872867
v -0.228816 0.692273 0.274672
v -0.226664 0.705642 0.284679
v 0.515953 0.138370 0.882874
vn 0.731929 0.328888 -0.596751
f 1289/1/323 1290/2/323 1291/3/323 1292/4/323
v 0.515953 0.138370 0.882874
v -0.226664 0.705642 0.284679
v -0.233857 0.711180 0.298860
v 0.508759 0.143907 0.897056
vn 0.607908 0.794006 -0.001713
f 1293/1/324 1294/2/324 1295/3/324 1296/4/324
v 0.508759 0.143907 0.897056
v -0.233857 0.711180 0.298860
v -0.246181 0.705642 0.308909
v 0.496435 0.138370 0.907104
vn 0.127782 0.794006 0.594329
f 1297/1/325 1298/2/325 1299/3/325 1300/4/325
v 0.496435 0.138370 0.907104
v -0.246181 0.705642 0.308909
v -0.256417 0.692273 0.308937
v 0.486199 0.125000 0.907133
vn -0.427197 0.328888 0.842221
f 1301/1/326 1302/2/326 1303/3/326 1304/4/326
v 0.486199 0.125000 0.907133
v -0.256417 0.692273 0.308937
v -0.258569 0.678903 0.298930
v 0.484047 0.111630 0.897126
vn -0.731929 -0.328888 0.596751
f 1305/1/327 1306/2/327 1307/3/327 1308/4/327
v 0.484047 0.111630 0.897126
v -0.258569 0.678903 0.298930
v -0.251376 0.673365 0.284749
v 0.491241 0.106093 0.882944
vn -0.607908 -0.794006 0.001713
f 1309/1/328 1310/2/328 1311/3/328 1312/4/328
v 0.491241 0.106093 0.882944
v -0.251376 0.673365 0.284749
v -0.239052 0.678903 0.274701
v 0.503565 0.111630 0.872896
vn -0.127782 -0.794006 -0.594329
f 1313/1/329 1314/2/329 1315/3/329 1316/4/329
v 0.503565 0.111630 0.872896
v -0.239052 0.678903 0.274701
v -0.228816 0.692273 0.274672
v 0.513801 0.125000 0.872867
vn 0.427197 -0.328888 -0.842221
f 1317/1/330 1318/2/330 1319/3/330 1320/4/330
v -0.228816 0.692273 0.274672
v -0.246181 0.705642 0.308909
v -0.233857 0.711180 0.298860
v -0.226664 0.705642 0.284679
vn -0.669291 0.511261 -0.539130
f 1321/1/331 1322/2/331 1323/3/331 1324/4/331
v -0.228816 0.692273 0.274672
v -0.258569 0.678903 0.298930
v -0.256417 0.692273 0.308937
v -0.246181 0.705642 0.308909
vn -0.669291 0.511261 -0.539130
f 1325/1/332 1326/2/332 1327/3/332 1328/4/332
v -0.228816 0.692273 0.274672
v -0.239052 0.678903 0.274701
v -0.251376 0.673365 0.284749
v -0.258569 0.678903 0.298930
vn -0.669291 0.511261 -0.539130
f 1329/1/333 1330/2/333 1331/3/333 1332/4/333
usemtl clamp
v -1.474501 1.172977 -0.904274
v -1.412001 1.172977 -0.904274
v -1.412001 1.266727 -0.904274
v -1.474501 1.266727 -0.904274
vn 0.000000 0.000000 1.000000
f 1333/1/334 1334/2/334 1335/3/334 1336/4/334
v -1.412001 1.172977 -0.966774
v -1.474501 1.172977 -0.966774
v -1.474501 1.266727 -0.966774
v -1.412001 1.266727 -0.966774
vn 0.000000 0.000000 -1.000000
f 1337/1/335 1338/2/335 1339/3/335 1340/4/335
v -1.412001 1.172977 -0.904274
v -1.412001 1.172977 -0.966774
v -1.412001 1.266727 -0.966774
v -1.412001 1.266727 -0.904274
vn 1.000000 -0.000000 0.000000
f 1341/1/336 1342/2/336 1343/3/336 1344/4/336
v -1.474501 1.172977 -0.966774
v -1.474501 1.172977 -0.904274
v -1.474501 1.266727 -0.904274
v -1.474501 1.266727 -0.966774
vn -1.000000 0.000000 0.000000
f 1345/1/337 1346/2/337 1347/3/337 1348/4/337
v -1.474501 1.266727 -0.904274
v -1.412001 1.266727 -0.904274
v -1.412001 1.266727 -0.966774
v -1.474501 1.266727 -0.966774
vn -0.000000 1.000000 0.000000
f 1349/1/338 1350/2/338 1351/3/338 1352/4/338
v -1.474501 1.172977 -0.966774
v -1.412001 1.172977 -0.966774
v -1.412001 1.172977 -0.904274
v -1.474501 1.172977 -0.904274
vn 0.000000 -1.000000 0.000000
f 1353/1/339 1354/2/339 1355/3/339 1356/4/339
usemtl porcelain
v -1.537001 1.266727 -0.841774
v -1.349501 1.266727 -0.841774
v -1.349501 1.454227 -0.841774
v -1.537001 1.454227 -0.841774
vn 0.000000 0.000000 1.000000
f 1357/1/340 1358/2/340 1359/3/340 1360/4/340
v -1.349501 1.266727 -1.029274
v -1.537001 1.266727 -1.029274
v -1.537001 1.454227 -1.029274
v -1.349501 1.454227 -1.029274
vn 0.000000 0.000000 -1.000000
f 1361/1/341 1362/2/341 1363/3/341 1364/4/341
v -1.349501 1.266727 -0.841774
v -1.349501 1.266727 -1.029274
v -1.349501 1.454227 -1.029274
v -1.349501 1.454227 -0.841774
vn 1.000000 -0.000000 0.000000
f 1365/1/342 1366/2/342 1367/3/342 1368/4/342
v -1.537001 1.266727 -1.029274
v -1.537001 1.266727 -0.841774
v -1.537001 1.454227 -0.841774
v -1.537001 1.454227 -1.029274
vn -1.000000 0.000000 0.000000
f 1369/1/343 1370/2/343 1371/3/343 1372/4/343
v -1.537001 1.454227 -0.841774
v -1.349501 1.454227 -0.841774
v -1.349501 1.454227 -1.029274
v -1.537001 1.454227 -1.029274
vn -0.000000 1.000000 0.000000
f 1373/1/344 1374/2/344 1375/3/344 1376/4/344
v -1.537001 1.266727 -1.029274
v -1.349501 1.266727 -1.029274
v -1.349501 1.266727 -0.841774
v -1.537001 1.266727 -0.841774
vn 0.000000 -1.000000 0.000000
f 1377/1/345 1378/2/345 1379/3/345 1380/4/345
