# Generated by scripts/gen_pole_light_mounts.py
mtllib pole_light_mount.mtl
o pole_light_mount_1_right_wired
vt 0 0
vt 1 0
vt 1 1
vt 0 1
usemtl clamp
v 0.312500 0.062500 1.000000
v 0.687500 0.062500 1.000000
v 0.687500 0.937500 1.000000
v 0.312500 0.937500 1.000000
vn 0.000000 0.000000 1.000000
f 1/1/1 2/2/1 3/3/1 4/4/1
v 0.687500 0.062500 0.900000
v 0.312500 0.062500 0.900000
v 0.312500 0.937500 0.900000
v 0.687500 0.937500 0.900000
vn 0.000000 0.000000 -1.000000
f 5/1/2 6/2/2 7/3/2 8/4/2
v 0.687500 0.062500 1.000000
v 0.687500 0.062500 0.900000
v 0.687500 0.937500 0.900000
v 0.687500 0.937500 1.000000
vn 1.000000 -0.000000 0.000000
f 9/1/3 10/2/3 11/3/3 12/4/3
v 0.312500 0.062500 0.900000
v 0.312500 0.062500 1.000000
v 0.312500 0.937500 1.000000
v 0.312500 0.937500 0.900000
vn -1.000000 0.000000 0.000000
f 13/1/4 14/2/4 15/3/4 16/4/4
v 0.312500 0.937500 1.000000
v 0.687500 0.937500 1.000000
v 0.687500 0.937500 0.900000
v 0.312500 0.937500 0.900000
vn -0.000000 1.000000 0.000000
f 17/1/5 18/2/5 19/3/5 20/4/5
v 0.312500 0.062500 0.900000
v 0.687500 0.062500 0.900000
v 0.687500 0.062500 1.000000
v 0.312500 0.062500 1.000000
vn 0.000000 -1.000000 0.000000
f 21/1/6 22/2/6 23/3/6 24/4/6
v 0.406250 0.312500 0.900000
v 0.593750 0.312500 0.900000
v 0.593750 0.531250 0.900000
v 0.406250 0.531250 0.900000
vn 0.000000 0.000000 1.000000
f 25/1/7 26/2/7 27/3/7 28/4/7
v 0.593750 0.312500 0.800000
v 0.406250 0.312500 0.800000
v 0.406250 0.531250 0.800000
v 0.593750 0.531250 0.800000
vn 0.000000 0.000000 -1.000000
f 29/1/8 30/2/8 31/3/8 32/4/8
v 0.593750 0.312500 0.900000
v 0.593750 0.312500 0.800000
v 0.593750 0.531250 0.800000
v 0.593750 0.531250 0.900000
vn 1.000000 -0.000000 0.000000
f 33/1/9 34/2/9 35/3/9 36/4/9
v 0.406250 0.312500 0.800000
v 0.406250 0.312500 0.900000
v 0.406250 0.531250 0.900000
v 0.406250 0.531250 0.800000
vn -1.000000 0.000000 0.000000
f 37/1/10 38/2/10 39/3/10 40/4/10
v 0.406250 0.531250 0.900000
v 0.593750 0.531250 0.900000
v 0.593750 0.531250 0.800000
v 0.406250 0.531250 0.800000
vn -0.000000 1.000000 0.000000
f 41/1/11 42/2/11 43/3/11 44/4/11
v 0.406250 0.312500 0.800000
v 0.593750 0.312500 0.800000
v 0.593750 0.312500 0.900000
v 0.406250 0.312500 0.900000
vn 0.000000 -1.000000 0.000000
f 45/1/12 46/2/12 47/3/12 48/4/12
v 0.468750 0.125000 0.900000
v 0.531250 0.125000 0.900000
v 0.531250 0.187500 0.900000
v 0.468750 0.187500 0.900000
vn 0.000000 0.000000 1.000000
f 49/1/13 50/2/13 51/3/13 52/4/13
v 0.531250 0.125000 0.880000
v 0.468750 0.125000 0.880000
v 0.468750 0.187500 0.880000
v 0.531250 0.187500 0.880000
vn 0.000000 0.000000 -1.000000
f 53/1/14 54/2/14 55/3/14 56/4/14
v 0.531250 0.125000 0.900000
v 0.531250 0.125000 0.880000
v 0.531250 0.187500 0.880000
v 0.531250 0.187500 0.900000
vn 1.000000 -0.000000 0.000000
f 57/1/15 58/2/15 59/3/15 60/4/15
v 0.468750 0.125000 0.880000
v 0.468750 0.125000 0.900000
v 0.468750 0.187500 0.900000
v 0.468750 0.187500 0.880000
vn -1.000000 0.000000 0.000000
f 61/1/16 62/2/16 63/3/16 64/4/16
v 0.468750 0.187500 0.900000
v 0.531250 0.187500 0.900000
v 0.531250 0.187500 0.880000
v 0.468750 0.187500 0.880000
vn -0.000000 1.000000 0.000000
f 65/1/17 66/2/17 67/3/17 68/4/17
v 0.468750 0.125000 0.880000
v 0.531250 0.125000 0.880000
v 0.531250 0.125000 0.900000
v 0.468750 0.125000 0.900000
vn 0.000000 -1.000000 0.000000
f 69/1/18 70/2/18 71/3/18 72/4/18
v 0.468750 0.812500 0.900000
v 0.531250 0.812500 0.900000
v 0.531250 0.875000 0.900000
v 0.468750 0.875000 0.900000
vn 0.000000 0.000000 1.000000
f 73/1/19 74/2/19 75/3/19 76/4/19
v 0.531250 0.812500 0.880000
v 0.468750 0.812500 0.880000
v 0.468750 0.875000 0.880000
v 0.531250 0.875000 0.880000
vn 0.000000 0.000000 -1.000000
f 77/1/20 78/2/20 79/3/20 80/4/20
v 0.531250 0.812500 0.900000
v 0.531250 0.812500 0.880000
v 0.531250 0.875000 0.880000
v 0.531250 0.875000 0.900000
vn 1.000000 -0.000000 0.000000
f 81/1/21 82/2/21 83/3/21 84/4/21
v 0.468750 0.812500 0.880000
v 0.468750 0.812500 0.900000
v 0.468750 0.875000 0.900000
v 0.468750 0.875000 0.880000
vn -1.000000 0.000000 0.000000
f 85/1/22 86/2/22 87/3/22 88/4/22
v 0.468750 0.875000 0.900000
v 0.531250 0.875000 0.900000
v 0.531250 0.875000 0.880000
v 0.468750 0.875000 0.880000
vn -0.000000 1.000000 0.000000
f 89/1/23 90/2/23 91/3/23 92/4/23
v 0.468750 0.812500 0.880000
v 0.531250 0.812500 0.880000
v 0.531250 0.812500 0.900000
v 0.468750 0.812500 0.900000
vn 0.000000 -1.000000 0.000000
f 93/1/24 94/2/24 95/3/24 96/4/24
usemtl metal
v 0.545000 0.410000 0.860000
v 0.536222 0.410000 0.826701
v 0.531370 0.432500 0.823124
v 0.538971 0.432500 0.860000
vn 0.936061 0.250817 -0.246741
f 97/1/25 98/2/25 99/3/25 100/4/25
v 0.538971 0.432500 0.860000
v 0.531370 0.432500 0.823124
v 0.518111 0.448971 0.813350
v 0.522500 0.448971 0.860000
vn 0.699713 0.699713 -0.144236
f 101/1/26 102/2/26 103/3/26 104/4/26
v 0.522500 0.448971 0.860000
v 0.518111 0.448971 0.813350
v 0.500000 0.455000 0.800000
v 0.500000 0.455000 0.860000
vn 0.258742 0.965640 -0.024342
f 105/1/27 106/2/27 107/3/27 108/4/27
v 0.500000 0.455000 0.860000
v 0.500000 0.455000 0.800000
v 0.481889 0.448971 0.786650
v 0.477500 0.448971 0.860000
vn -0.258819 0.965926 0.000000
f 109/1/28 110/2/28 111/3/28 112/4/28
v 0.477500 0.448971 0.860000
v 0.481889 0.448971 0.786650
v 0.468630 0.432500 0.776876
v 0.461029 0.432500 0.860000
vn -0.706475 0.706475 -0.042270
f 113/1/29 114/2/29 115/3/29 116/4/29
v 0.461029 0.432500 0.860000
v 0.468630 0.432500 0.776876
v 0.463778 0.410000 0.773299
v 0.455000 0.410000 0.860000
vn -0.962179 0.257815 -0.087990
f 117/1/30 118/2/30 119/3/30 120/4/30
v 0.455000 0.410000 0.860000
v 0.463778 0.410000 0.773299
v 0.468630 0.387500 0.776876
v 0.461029 0.387500 0.860000
vn -0.961340 -0.257590 -0.097325
f 121/1/31 122/2/31 123/3/31 124/4/31
v 0.461029 0.387500 0.860000
v 0.468630 0.387500 0.776876
v 0.481889 0.371029 0.786650
v 0.477500 0.371029 0.860000
vn -0.705633 -0.705633 -0.064529
f 125/1/32 126/2/32 127/3/32 128/4/32
v 0.477500 0.371029 0.860000
v 0.481889 0.371029 0.786650
v 0.500000 0.365000 0.800000
v 0.500000 0.365000 0.860000
vn -0.258788 -0.965810 -0.015484
f 129/1/33 130/2/33 131/3/33 132/4/33
v 0.500000 0.365000 0.860000
v 0.500000 0.365000 0.800000
v 0.518111 0.371029 0.813350
v 0.522500 0.371029 0.860000
vn 0.258819 -0.965926 0.000000
f 133/1/34 134/2/34 135/3/34 136/4/34
v 0.522500 0.371029 0.860000
v 0.518111 0.371029 0.813350
v 0.531370 0.387500 0.823124
v 0.538971 0.387500 0.860000
vn 0.705547 -0.705547 -0.066377
f 137/1/35 138/2/35 139/3/35 140/4/35
v 0.538971 0.387500 0.860000
v 0.531370 0.387500 0.823124
v 0.536222 0.410000 0.826701
v 0.545000 0.410000 0.860000
vn 0.947330 -0.253836 -0.195278
f 141/1/36 142/2/36 143/3/36 144/4/36
v 0.536222 0.410000 0.826701
v 0.628618 0.410000 0.807265
v 0.625637 0.432470 0.801897
v 0.531370 0.432500 0.823124
vn 0.201849 0.196098 0.959584
f 145/1/37 146/2/37 147/3/37 148/4/37
v 0.531370 0.432500 0.823124
v 0.625637 0.432470 0.801897
v 0.619704 0.448919 0.786508
v 0.518111 0.448971 0.813350
vn 0.175427 0.602974 0.778234
f 149/1/38 150/2/38 151/3/38 152/4/38
v 0.518111 0.448971 0.813350
v 0.619704 0.448919 0.786508
v 0.612408 0.454940 0.765222
v 0.500000 0.455000 0.800000
vn 0.083427 0.945776 0.313922
f 153/1/39 154/2/39 155/3/39 156/4/39
v 0.500000 0.455000 0.800000
v 0.612408 0.454940 0.765222
v 0.605705 0.448919 0.743741
v 0.481889 0.448971 0.786650
vn -0.093004 0.948683 -0.302243
f 157/1/40 158/2/40 159/3/40 160/4/40
v 0.481889 0.448971 0.786650
v 0.605705 0.448919 0.743741
v 0.601390 0.432470 0.727823
v 0.468630 0.432500 0.776876
vn -0.252463 0.635936 -0.729279
f 161/1/41 162/2/41 163/3/41 164/4/41
v 0.468630 0.432500 0.776876
v 0.601390 0.432470 0.727823
v 0.600620 0.410000 0.721731
v 0.463778 0.410000 0.773299
vn -0.338175 0.218472 -0.915373
f 165/1/42 166/2/42 167/3/42 168/4/42
v 0.463778 0.410000 0.773299
v 0.600620 0.410000 0.721731
v 0.603601 0.387530 0.727099
v 0.468630 0.387500 0.776876
vn -0.344047 -0.219357 -0.912970
f 169/1/43 170/2/43 171/3/43 172/4/43
v 0.468630 0.387500 0.776876
v 0.603601 0.387530 0.727099
v 0.609534 0.371081 0.742488
v 0.481889 0.371029 0.786650
vn -0.265460 -0.640997 -0.720176
f 173/1/44 174/2/44 175/3/44 176/4/44
v 0.481889 0.371029 0.786650
v 0.609534 0.371081 0.742488
v 0.616830 0.365060 0.763775
v 0.500000 0.365000 0.800000
vn -0.100845 -0.950901 -0.292606
f 177/1/45 178/2/45 179/3/45 180/4/45
v 0.500000 0.365000 0.800000
v 0.616830 0.365060 0.763775
v 0.623533 0.371081 0.785255
v 0.518111 0.371029 0.813350
vn 0.093875 -0.948937 0.301176
f 181/1/46 182/2/46 183/3/46 184/4/46
v 0.518111 0.371029 0.813350
v 0.623533 0.371081 0.785255
v 0.627848 0.387530 0.801174
v 0.531370 0.387500 0.823124
vn 0.203251 -0.615452 0.761516
f 185/1/47 186/2/47 187/3/47 188/4/47
v 0.531370 0.387500 0.823124
v 0.627848 0.387530 0.801174
v 0.628618 0.410000 0.807265
v 0.536222 0.410000 0.826701
vn 0.217471 -0.198834 0.955600
f 189/1/48 190/2/48 191/3/48 192/4/48
v 0.628618 0.410000 0.807265
v 0.694503 0.417097 0.784523
v 0.688296 0.439157 0.780351
v 0.625637 0.432470 0.801897
vn 0.290180 0.258603 0.921369
f 193/1/49 194/2/49 195/3/49 196/4/49
v 0.625637 0.432470 0.801897
v 0.688296 0.439157 0.780351
v 0.679667 0.455307 0.765952
v 0.619704 0.448919 0.786508
vn 0.162297 0.704710 0.690684
f 197/1/50 198/2/50 199/3/50 200/4/50
v 0.619704 0.448919 0.786508
v 0.679667 0.455307 0.765952
v 0.670928 0.461218 0.745184
v 0.612408 0.454940 0.765222
vn -0.008223 0.961476 0.274766
f 201/1/51 202/2/51 203/3/51 204/4/51
v 0.612408 0.454940 0.765222
v 0.670928 0.461218 0.745184
v 0.664420 0.455307 0.723613
v 0.605705 0.448919 0.743741
vn -0.176415 0.960721 -0.214228
f 205/1/52 206/2/52 207/3/52 208/4/52
v 0.605705 0.448919 0.743741
v 0.664420 0.455307 0.723613
v 0.661888 0.439157 0.707019
v 0.601390 0.432470 0.727823
vn -0.297851 0.703059 -0.645750
f 209/1/53 210/2/53 211/3/53 212/4/53
v 0.601390 0.432470 0.727823
v 0.661888 0.439157 0.707019
v 0.664009 0.417097 0.699847
v 0.600620 0.410000 0.721731
vn -0.339549 0.256931 -0.904816
f 213/1/54 214/2/54 215/3/54 216/4/54
v 0.600620 0.410000 0.721731
v 0.664009 0.417097 0.699847
v 0.670216 0.395036 0.704019
v 0.603601 0.387530 0.727099
vn -0.289249 -0.258553 -0.921675
f 217/1/55 218/2/55 219/3/55 220/4/55
v 0.603601 0.387530 0.727099
v 0.670216 0.395036 0.704019
v 0.678845 0.378887 0.718418
v 0.609534 0.371081 0.742488
vn -0.160135 -0.704552 -0.691349
f 221/1/56 222/2/56 223/3/56 224/4/56
v 0.609534 0.371081 0.742488
v 0.678845 0.378887 0.718418
v 0.687585 0.372976 0.739186
v 0.616830 0.365060 0.763775
vn 0.012369 -0.961058 -0.276069
f 225/1/57 226/2/57 227/3/57 228/4/57
v 0.616830 0.365060 0.763775
v 0.687585 0.372976 0.739186
v 0.694092 0.378887 0.760757
v 0.623533 0.371081 0.785255
vn 0.181291 -0.960184 0.212556
f 229/1/58 230/2/58 231/3/58 232/4/58
v 0.623533 0.371081 0.785255
v 0.694092 0.378887 0.760757
v 0.696625 0.395036 0.777351
v 0.627848 0.387530 0.801174
vn 0.301489 -0.702727 0.644422
f 233/1/59 234/2/59 235/3/59 236/4/59
v 0.627848 0.387530 0.801174
v 0.696625 0.395036 0.777351
v 0.694503 0.417097 0.784523
v 0.628618 0.410000 0.807265
vn 0.341225 -0.256826 0.904216
f 237/1/60 238/2/60 239/3/60 240/4/60
v 0.694503 0.417097 0.784523
v 0.759703 0.437693 0.760022
v 0.750012 0.458705 0.757348
v 0.688296 0.439157 0.780351
vn 0.269766 0.251702 0.929447
f 241/1/61 242/2/61 243/3/61 244/4/61
v 0.688296 0.439157 0.780351
v 0.750012 0.458705 0.757348
v 0.738513 0.474088 0.744167
v 0.679667 0.455307 0.765952
vn 0.056381 0.681058 0.730055
f 245/1/62 246/2/62 247/3/62 248/4/62
v 0.679667 0.455307 0.765952
v 0.738513 0.474088 0.744167
v 0.728288 0.479718 0.724009
v 0.670928 0.461218 0.745184
vn -0.171325 0.926244 0.335738
f 249/1/63 250/2/63 251/3/63 252/4/63
v 0.670928 0.461218 0.745184
v 0.728288 0.479718 0.724009
v 0.722075 0.474088 0.702277
v 0.664420 0.455307 0.723613
vn -0.352356 0.924254 -0.146969
f 253/1/64 254/2/64 255/3/64 256/4/64
v 0.664420 0.455307 0.723613
v 0.722075 0.474088 0.702277
v 0.721540 0.458705 0.684792
v 0.661888 0.439157 0.707019
vn -0.439156 0.676429 -0.591258
f 257/1/65 258/2/65 259/3/65 260/4/65
v 0.661888 0.439157 0.707019
v 0.721540 0.458705 0.684792
v 0.726827 0.437693 0.676242
v 0.664009 0.417097 0.699847
vn -0.408266 0.246489 -0.878955
f 261/1/66 262/2/66 263/3/66 264/4/66
v 0.664009 0.417097 0.699847
v 0.726827 0.437693 0.676242
v 0.736518 0.416680 0.678915
v 0.670216 0.395036 0.704019
vn -0.267245 -0.251158 -0.930323
f 265/1/67 266/2/67 267/3/67 268/4/67
v 0.670216 0.395036 0.704019
v 0.736518 0.416680 0.678915
v 0.748017 0.401298 0.692097
v 0.678845 0.378887 0.718418
vn -0.054485 -0.680575 -0.730650
f 269/1/68 270/2/68 271/3/68 272/4/68
v 0.678845 0.378887 0.718418
v 0.748017 0.401298 0.692097
v 0.758243 0.395667 0.712254
v 0.687585 0.372976 0.739186
vn 0.172144 -0.925993 -0.336011
f 273/1/69 274/2/69 275/3/69 276/4/69
v 0.687585 0.372976 0.739186
v 0.758243 0.395667 0.712254
v 0.764455 0.401298 0.733987
v 0.694092 0.378887 0.760757
vn 0.352737 -0.924132 0.146821
f 277/1/70 278/2/70 279/3/70 280/4/70
v 0.694092 0.378887 0.760757
v 0.764455 0.401298 0.733987
v 0.764990 0.416680 0.751471
v 0.696625 0.395036 0.777351
vn 0.440141 -0.676154 0.590840
f 281/1/71 282/2/71 283/3/71 284/4/71
v 0.696625 0.395036 0.777351
v 0.764990 0.416680 0.751471
v 0.759703 0.437693 0.760022
v 0.694503 0.417097 0.784523
vn 0.410315 -0.246024 0.878131
f 285/1/72 286/2/72 287/3/72 288/4/72
v 0.759703 0.437693 0.760022
v 0.824247 0.469771 0.733545
v 0.812207 0.489662 0.732144
v 0.750012 0.458705 0.757348
vn 0.263686 0.240469 0.934154
f 289/1/73 290/2/73 291/3/73 292/4/73
v 0.750012 0.458705 0.757348
v 0.812207 0.489662 0.732144
v 0.798645 0.504224 0.720034
v 0.738513 0.474088 0.744167
vn -0.011847 0.645531 0.763642
f 293/1/74 294/2/74 295/3/74 296/4/74
v 0.738513 0.474088 0.744167
v 0.798645 0.504224 0.720034
v 0.787196 0.509554 0.700461
v 0.728288 0.479718 0.724009
vn -0.283411 0.876715 0.388650
f 297/1/75 298/2/75 299/3/75 300/4/75
v 0.728288 0.479718 0.724009
v 0.787196 0.509554 0.700461
v 0.780927 0.504224 0.678669
v 0.722075 0.474088 0.702277
vn -0.478291 0.873618 -0.089606
f 301/1/76 302/2/76 303/3/76 304/4/76
v 0.722075 0.474088 0.702277
v 0.780927 0.504224 0.678669
v 0.781518 0.489662 0.660498
v 0.721540 0.458705 0.684792
vn -0.544932 0.637718 -0.544394
f 305/1/77 306/2/77 307/3/77 308/4/77
v 0.721540 0.458705 0.684792
v 0.781518 0.489662 0.660498
v 0.788810 0.469771 0.650815
v 0.726827 0.437693 0.676242
vn -0.465247 0.230716 -0.854585
f 309/1/78 310/2/78 311/3/78 312/4/78
v 0.726827 0.437693 0.676242
v 0.788810 0.469771 0.650815
v 0.800851 0.449880 0.652217
v 0.736518 0.416680 0.678915
vn -0.260086 -0.238985 -0.935543
f 313/1/79 314/2/79 315/3/79 316/4/79
v 0.736518 0.416680 0.678915
v 0.800851 0.449880 0.652217
v 0.814412 0.435318 0.664326
v 0.748017 0.401298 0.692097
vn 0.015026 -0.644124 -0.764773
f 317/1/80 318/2/80 319/3/80 320/4/80
v 0.748017 0.401298 0.692097
v 0.814412 0.435318 0.664326
v 0.825862 0.429988 0.683899
v 0.758243 0.395667 0.712254
vn 0.285729 -0.875581 -0.389509
f 321/1/81 322/2/81 323/3/81 324/4/81
v 0.758243 0.395667 0.712254
v 0.825862 0.429988 0.683899
v 0.832131 0.435318 0.705691
v 0.764455 0.401298 0.733987
vn 0.480181 -0.872661 0.088818
f 325/1/82 326/2/82 327/3/82 328/4/82
v 0.764455 0.401298 0.733987
v 0.832131 0.435318 0.705691
v 0.831540 0.449880 0.723863
v 0.764990 0.416680 0.751471
vn 0.547224 -0.636631 0.543367
f 329/1/83 330/2/83 331/3/83 332/4/83
v 0.764990 0.416680 0.751471
v 0.831540 0.449880 0.723863
v 0.824247 0.469771 0.733545
v 0.759703 0.437693 0.760022
vn 0.468389 -0.229374 0.853229
f 333/1/84 334/2/84 335/3/84 336/4/84
v 0.824247 0.469771 0.733545
v 0.888042 0.510193 0.704986
v 0.874712 0.529291 0.704577
v 0.812207 0.489662 0.732144
vn 0.272153 0.230551 0.934226
f 337/1/85 338/2/85 339/3/85 340/4/85
v 0.812207 0.489662 0.732144
v 0.874712 0.529291 0.704577
v 0.859835 0.543272 0.693361
v 0.798645 0.504224 0.720034
vn -0.042679 0.615026 0.787351
f 341/1/86 342/2/86 343/3/86 344/4/86
v 0.798645 0.504224 0.720034
v 0.859835 0.543272 0.693361
v 0.847397 0.548389 0.674342
v 0.787196 0.509554 0.700461
vn -0.345404 0.834512 0.429286
f 345/1/87 346/2/87 347/3/87 348/4/87
v 0.787196 0.509554 0.700461
v 0.847397 0.548389 0.674342
v 0.840731 0.543272 0.652617
v 0.780927 0.504224 0.678669
vn -0.554853 0.830806 -0.043581
f 349/1/88 350/2/88 351/3/88 352/4/88
v 0.780927 0.504224 0.678669
v 0.840731 0.543272 0.652617
v 0.841623 0.529291 0.634007
v 0.781518 0.489662 0.660498
vn -0.615238 0.605308 -0.505060
f 353/1/89 354/2/89 355/3/89 356/4/89
v 0.781518 0.489662 0.660498
v 0.841623 0.529291 0.634007
v 0.849834 0.510193 0.623498
v 0.788810 0.469771 0.650815
vn -0.510307 0.217865 -0.831938
f 357/1/90 358/2/90 359/3/90 360/4/90
v 0.788810 0.469771 0.650815
v 0.849834 0.510193 0.623498
v 0.863164 0.491094 0.623907
v 0.800851 0.449880 0.652217
vn -0.267915 -0.228114 -0.936048
f 361/1/91 362/2/91 363/3/91 364/4/91
v 0.800851 0.449880 0.652217
v 0.863164 0.491094 0.623907
v 0.878041 0.477113 0.635123
v 0.814412 0.435318 0.664326
vn 0.046738 -0.612616 -0.788998
f 365/1/92 366/2/92 367/3/92 368/4/92
v 0.814412 0.435318 0.664326
v 0.878041 0.477113 0.635123
v 0.890479 0.471996 0.654142
v 0.825862 0.429988 0.683899
vn 0.348976 -0.832262 -0.430763
f 369/1/93 370/2/93 371/3/93 372/4/93
v 0.825862 0.429988 0.683899
v 0.890479 0.471996 0.654142
v 0.897145 0.477113 0.675867
v 0.832131 0.435318 0.705691
vn 0.558125 -0.828687 0.042122
f 373/1/94 374/2/94 375/3/94 376/4/94
v 0.832131 0.435318 0.705691
v 0.897145 0.477113 0.675867
v 0.896253 0.491094 0.694477
v 0.831540 0.449880 0.723863
vn 0.618681 -0.603144 0.503438
f 377/1/95 378/2/95 379/3/95 380/4/95
v 0.831540 0.449880 0.723863
v 0.896253 0.491094 0.694477
v 0.888042 0.510193 0.704986
v 0.824247 0.469771 0.733545
vn 0.514230 -0.215544 0.830125
f 381/1/96 382/2/96 383/3/96 384/4/96
v 0.888042 0.510193 0.704986
v 0.950956 0.555000 0.674088
v 0.937230 0.573818 0.674388
v 0.874712 0.529291 0.704577
vn 0.295104 0.225834 0.928393
f 385/1/97 386/2/97 387/3/97 388/4/97
v 0.874712 0.529291 0.704577
v 0.937230 0.573818 0.674388
v 0.921652 0.587594 0.663894
v 0.859835 0.543272 0.693361
vn -0.040274 0.598838 0.799857
f 389/1/98 390/2/98 391/3/98 392/4/98
v 0.859835 0.543272 0.693361
v 0.921652 0.587594 0.663894
v 0.908395 0.592636 0.645416
v 0.847397 0.548389 0.674342
vn -0.364283 0.811658 0.456627
f 393/1/99 394/2/99 395/3/99 396/4/99
v 0.847397 0.548389 0.674342
v 0.908395 0.592636 0.645416
v 0.901011 0.587594 0.623907
v 0.840731 0.543272 0.652617
vn -0.589988 0.807360 -0.009147
f 397/1/100 398/2/100 399/3/100 400/4/100
v 0.840731 0.543272 0.652617
v 0.901011 0.587594 0.623907
v 0.901479 0.573818 0.605129
v 0.841623 0.529291 0.634007
vn -0.656975 0.587308 -0.472709
f 401/1/101 402/2/101 403/3/101 404/4/101
v 0.841623 0.529291 0.634007
v 0.901479 0.573818 0.605129
v 0.909674 0.555000 0.594114
v 0.849834 0.510193 0.623498
vn -0.547329 0.210400 -0.810039
f 405/1/102 406/2/102 407/3/102 408/4/102
v 0.849834 0.510193 0.623498
v 0.909674 0.555000 0.594114
v 0.923399 0.536182 0.593814
v 0.863164 0.491094 0.623907
vn -0.290352 -0.222566 -0.930677
f 409/1/103 410/2/103 411/3/103 412/4/103
v 0.863164 0.491094 0.623907
v 0.923399 0.536182 0.593814
v 0.938978 0.522406 0.604309
v 0.878041 0.477113 0.635123
vn 0.045057 -0.595525 -0.802072
f 413/1/104 414/2/104 415/3/104 416/4/104
v 0.878041 0.477113 0.635123
v 0.938978 0.522406 0.604309
v 0.952235 0.517364 0.622786
v 0.890479 0.471996 0.654142
vn 0.368871 -0.808384 -0.458747
f 417/1/105 418/2/105 419/3/105 420/4/105
v 0.890479 0.471996 0.654142
v 0.952235 0.517364 0.622786
v 0.959619 0.522406 0.644296
v 0.897145 0.477113 0.675867
vn 0.594353 -0.804173 0.007057
f 421/1/106 422/2/106 423/3/106 424/4/106
v 0.897145 0.477113 0.675867
v 0.959619 0.522406 0.644296
v 0.959150 0.536182 0.663073
v 0.896253 0.491094 0.694477
vn 0.661310 -0.584164 0.470555
f 425/1/107 426/2/107 427/3/107 428/4/107
v 0.896253 0.491094 0.694477
v 0.959150 0.536182 0.663073
v 0.950956 0.555000 0.674088
v 0.888042 0.510193 0.704986
vn 0.551855 -0.207214 0.807786
f 429/1/108 430/2/108 431/3/108 432/4/108
v 0.950956 0.555000 0.674088
v 1.012700 0.599807 0.640632
v 0.999379 0.618905 0.641280
v 0.937230 0.573818 0.674388
vn 0.331394 0.227098 0.915754
f 433/1/109 434/2/109 435/3/109 436/4/109
v 0.937230 0.573818 0.674388
v 0.999379 0.618905 0.641280
v 0.983661 0.632886 0.631276
v 0.921652 0.587594 0.663894
vn -0.008769 0.599683 0.800190
f 437/1/110 438/2/110 439/3/110 440/4/110
v 0.921652 0.587594 0.663894
v 0.983661 0.632886 0.631276
v 0.969757 0.638003 0.613301
v 0.908395 0.592636 0.645416
vn -0.346010 0.812098 0.469865
f 441/1/111 442/2/111 443/3/111 444/4/111
v 0.908395 0.592636 0.645416
v 0.969757 0.638003 0.613301
v 0.961393 0.632886 0.592171
v 0.901011 0.587594 0.623907
vn -0.589947 0.807333 0.013259
f 445/1/112 446/2/112 447/3/112 448/4/112
v 0.901011 0.587594 0.623907
v 0.961393 0.632886 0.592171
v 0.960811 0.618905 0.573549
v 0.901479 0.573818 0.605129
vn -0.675118 0.586682 -0.447236
f 449/1/113 450/2/113 451/3/113 452/4/113
v 0.901479 0.573818 0.605129
v 0.960811 0.618905 0.573549
v 0.968165 0.599807 0.562423
v 0.909674 0.555000 0.594114
vn -0.578663 0.209382 -0.788231
f 453/1/114 454/2/114 455/3/114 456/4/114
v 0.909674 0.555000 0.594114
v 0.968165 0.599807 0.562423
v 0.981486 0.580710 0.561775
v 0.923399 0.536182 0.593814
vn -0.326442 -0.223444 -0.918427
f 457/1/115 458/2/115 459/3/115 460/4/115
v 0.923399 0.536182 0.593814
v 0.981486 0.580710 0.561775
v 0.997205 0.566729 0.571779
v 0.938978 0.522406 0.604309
vn 0.013946 -0.595914 -0.802927
f 461/1/116 462/2/116 463/3/116 464/4/116
v 0.938978 0.522406 0.604309
v 0.997205 0.566729 0.571779
v 1.011108 0.561612 0.589754
v 0.952235 0.517364 0.622786
vn 0.351249 -0.808266 -0.472579
f 465/1/117 466/2/117 467/3/117 468/4/117
v 0.952235 0.517364 0.622786
v 1.011108 0.561612 0.589754
v 1.019472 0.566729 0.610884
v 0.959619 0.522406 0.644296
vn 0.595021 -0.803553 -0.015887
f 469/1/118 470/2/118 471/3/118 472/4/118
v 0.959619 0.522406 0.644296
v 1.019472 0.566729 0.610884
v 1.020055 0.580710 0.629506
v 0.959150 0.536182 0.663073
vn 0.679969 -0.583019 0.444670
f 473/1/119 474/2/119 475/3/119 476/4/119
v 0.959150 0.536182 0.663073
v 1.020055 0.580710 0.629506
v 1.012700 0.599807 0.640632
v 0.950956 0.555000 0.674088
vn 0.583453 -0.205783 0.785644
f 477/1/120 478/2/120 479/3/120 480/4/120
v 1.012700 0.599807 0.640632
v 1.073164 0.640229 0.604536
v 1.061052 0.660119 0.605052
v 0.999379 0.618905 0.641280
vn 0.378491 0.233631 0.895634
f 481/1/121 482/2/121 483/3/121 484/4/121
v 0.999379 0.618905 0.641280
v 1.061052 0.660119 0.605052
v 1.045749 0.674680 0.595234
v 0.983661 0.632886 0.631276
vn 0.048984 0.617063 0.785388
f 485/1/122 486/2/122 487/3/122 488/4/122
v 0.983661 0.632886 0.631276
v 1.045749 0.674680 0.595234
v 1.031355 0.680010 0.577712
v 0.969757 0.638003 0.613301
vn -0.292923 0.835726 0.464498
f 489/1/123 490/2/123 491/3/123 492/4/123
v 0.969757 0.638003 0.613301
v 1.031355 0.680010 0.577712
v 1.021728 0.674680 0.557181
v 0.961393 0.632886 0.592171
vn -0.555883 0.831048 0.018768
f 493/1/124 494/2/124 495/3/124 496/4/124
v 0.961393 0.632886 0.592171
v 1.021728 0.674680 0.557181
v 1.019447 0.660119 0.539143
v 0.960811 0.618905 0.573549
vn -0.669307 0.604083 -0.432564
f 497/1/125 498/2/125 499/3/125 500/4/125
v 0.960811 0.618905 0.573549
v 1.019447 0.660119 0.539143
v 1.025123 0.640229 0.528430
v 0.968165 0.599807 0.562423
vn -0.602478 0.215656 -0.768448
f 501/1/126 502/2/126 503/3/126 504/4/126
v 0.968165 0.599807 0.562423
v 1.025123 0.640229 0.528430
v 1.037235 0.620338 0.527914
v 0.981486 0.580710 0.561775
vn -0.373265 -0.229878 -0.898793
f 505/1/127 506/2/127 507/3/127 508/4/127
v 0.981486 0.580710 0.561775
v 1.037235 0.620338 0.527914
v 1.052538 0.605778 0.537733
v 0.997205 0.566729 0.571779
vn -0.043288 -0.613108 -0.788812
f 509/1/128 510/2/128 511/3/128 512/4/128
v 0.997205 0.566729 0.571779
v 1.052538 0.605778 0.537733
v 1.066931 0.600448 0.555255
v 1.011108 0.561612 0.589754
vn 0.298935 -0.831641 -0.467986
f 513/1/129 514/2/129 515/3/129 516/4/129
v 1.011108 0.561612 0.589754
v 1.066931 0.600448 0.555255
v 1.076558 0.605778 0.575786
v 1.019472 0.566729 0.610884
vn 0.561731 -0.827026 -0.022057
f 517/1/130 518/2/130 519/3/130 520/4/130
v 1.019472 0.566729 0.610884
v 1.076558 0.605778 0.575786
v 1.078840 0.620338 0.593824
v 1.020055 0.580710 0.629506
vn 0.674678 -0.600263 0.429528
f 521/1/131 522/2/131 523/3/131 524/4/131
v 1.020055 0.580710 0.629506
v 1.078840 0.620338 0.593824
v 1.073164 0.640229 0.604536
v 1.012700 0.599807 0.640632
vn 0.607543 -0.211976 0.765478
f 525/1/132 526/2/132 527/3/132 528/4/132
v 1.073164 0.640229 0.604536
v 1.132033 0.672307 0.565388
v 1.121982 0.693319 0.565103
v 1.061052 0.660119 0.605052
vn 0.440350 0.245742 0.863541
f 529/1/133 530/2/133 531/3/133 532/4/133
v 1.061052 0.660119 0.605052
v 1.121982 0.693319 0.565103
v 1.107671 0.708701 0.555044
v 1.045749 0.674680 0.595234
vn 0.137173 0.648851 0.748449
f 533/1/134 534/2/134 535/3/134 536/4/134
v 1.045749 0.674680 0.595234
v 1.107671 0.708701 0.555044
v 1.092934 0.714331 0.537906
v 1.031355 0.680010 0.577712
vn -0.201715 0.878571 0.432926
f 537/1/135 538/2/135 539/3/135 540/4/135
v 1.031355 0.680010 0.577712
v 1.092934 0.714331 0.537906
v 1.081720 0.708701 0.518281
v 1.021728 0.674680 0.557181
vn -0.486265 0.873810 0.001179
f 541/1/136 542/2/136 543/3/136 544/4/136
v 1.021728 0.674680 0.557181
v 1.081720 0.708701 0.518281
v 1.077033 0.693319 0.501428
v 1.019447 0.660119 0.539143
vn -0.640273 0.635273 -0.431832
f 545/1/137 546/2/137 547/3/137 548/4/137
v 1.019447 0.660119 0.539143
v 1.077033 0.693319 0.501428
v 1.080131 0.672307 0.491862
v 1.025123 0.640229 0.528430
vn -0.621653 0.226449 -0.749845
f 549/1/138 550/2/138 551/3/138 552/4/138
v 1.025123 0.640229 0.528430
v 1.080131 0.672307 0.491862
v 1.090181 0.651296 0.492146
v 1.037235 0.620338 0.527914
vn -0.435084 -0.242443 -0.867135
f 553/1/139 554/2/139 555/3/139 556/4/139
v 1.037235 0.620338 0.527914
v 1.090181 0.651296 0.492146
v 1.104493 0.635914 0.502205
v 1.052538 0.605778 0.537733
vn -0.131126 -0.645292 -0.752598
f 557/1/140 558/2/140 559/3/140 560/4/140
v 1.052538 0.605778 0.537733
v 1.104493 0.635914 0.502205
v 1.119230 0.630284 0.519343
v 1.066931 0.600448 0.555255
vn 0.208416 -0.874835 -0.437294
f 561/1/141 562/2/141 563/3/141 564/4/141
v 1.066931 0.600448 0.555255
v 1.119230 0.630284 0.519343
v 1.130444 0.635914 0.538968
v 1.076558 0.605778 0.575786
vn 0.492815 -0.870118 -0.005209
f 565/1/142 566/2/142 567/3/142 568/4/142
v 1.076558 0.605778 0.575786
v 1.130444 0.635914 0.538968
v 1.135131 0.651296 0.555822
v 1.078840 0.620338 0.593824
vn 0.646010 -0.631829 0.428326
f 569/1/143 570/2/143 571/3/143 572/4/143
v 1.078840 0.620338 0.593824
v 1.135131 0.651296 0.555822
v 1.132033 0.672307 0.565388
v 1.073164 0.640229 0.604536
vn 0.626760 -0.223219 0.746555
f 573/1/144 574/2/144 575/3/144 576/4/144
v 1.132033 0.672307 0.565388
v 1.188846 0.692903 0.522989
v 1.181630 0.714963 0.521018
v 1.121982 0.693319 0.565103
vn 0.516061 0.257920 0.816798
f 577/1/145 578/2/145 579/3/145 580/4/145
v 1.121982 0.693319 0.565103
v 1.181630 0.714963 0.521018
v 1.168854 0.731112 0.510129
v 1.107671 0.708701 0.555044
vn 0.256038 0.684558 0.682514
f 581/1/146 582/2/146 583/3/146 584/4/146
v 1.107671 0.708701 0.555044
v 1.168854 0.731112 0.510129
v 1.153942 0.737023 0.493239
v 1.092934 0.714331 0.537906
vn -0.071175 0.927879 0.366025
f 585/1/147 586/2/147 587/3/147 588/4/147
v 1.092934 0.714331 0.537906
v 1.153942 0.737023 0.493239
v 1.140888 0.731112 0.474874
v 1.081720 0.708701 0.518281
vn -0.379168 0.924060 -0.048432
f 589/1/148 590/2/148 591/3/148 592/4/148
v 1.081720 0.708701 0.518281
v 1.140888 0.731112 0.474874
v 1.133191 0.714963 0.459956
v 1.077033 0.693319 0.501428
vn -0.585995 0.673010 -0.451295
f 593/1/149 594/2/149 595/3/149 596/4/149
v 1.077033 0.693319 0.501428
v 1.133191 0.714963 0.459956
v 1.132913 0.692903 0.452480
v 1.080131 0.672307 0.491862
vn -0.634913 0.240646 -0.734149
f 597/1/150 598/2/150 599/3/150 600/4/150
v 1.080131 0.672307 0.491862
v 1.132913 0.692903 0.452480
v 1.140129 0.670843 0.454452
v 1.090181 0.651296 0.492146
vn -0.511922 -0.255983 -0.820006
f 601/1/151 602/2/151 603/3/151 604/4/151
v 1.090181 0.651296 0.492146
v 1.140129 0.670843 0.454452
v 1.152905 0.654694 0.465341
v 1.104493 0.635914 0.502205
vn -0.250988 -0.682456 -0.686483
f 605/1/152 606/2/152 607/3/152 608/4/152
v 1.104493 0.635914 0.502205
v 1.152905 0.654694 0.465341
v 1.167818 0.648783 0.482231
v 1.119230 0.630284 0.519343
vn 0.077070 -0.925681 -0.370372
f 609/1/153 610/2/153 611/3/153 612/4/153
v 1.119230 0.630284 0.519343
v 1.167818 0.648783 0.482231
v 1.180871 0.654694 0.500596
v 1.130444 0.635914 0.538968
vn 0.384969 -0.921857 0.044485
f 613/1/154 614/2/154 615/3/154 616/4/154
v 1.130444 0.635914 0.538968
v 1.180871 0.654694 0.500596
v 1.188568 0.670843 0.515514
v 1.135131 0.651296 0.555822
vn 0.590827 -0.670941 0.448063
f 617/1/155 618/2/155 619/3/155 620/4/155
v 1.135131 0.651296 0.555822
v 1.188568 0.670843 0.515514
v 1.188846 0.692903 0.522989
v 1.132033 0.672307 0.565388
vn 0.638929 -0.238748 0.731279
f 621/1/156 622/2/156 623/3/156 624/4/156
v 1.188846 0.692903 0.522989
v 1.243401 0.700000 0.477109
v 1.232784 0.720681 0.478584
v 1.181630 0.714963 0.521018
vn 0.600492 0.263875 0.754837
f 625/1/157 626/2/157 627/3/157 628/4/157
v 1.181630 0.714963 0.521018
v 1.232784 0.720681 0.478584
v 1.216923 0.735820 0.470723
v 1.168854 0.731112 0.510129
vn 0.401747 0.708811 0.579816
f 629/1/158 630/2/158 631/3/158 632/4/158
v 1.168854 0.731112 0.510129
v 1.216923 0.735820 0.470723
v 1.200066 0.741362 0.455632
v 1.153942 0.737023 0.493239
vn 0.105663 0.963984 0.244072
f 633/1/159 634/2/159 635/3/159 636/4/159
v 1.153942 0.737023 0.493239
v 1.200066 0.741362 0.455632
v 1.186731 0.735820 0.437355
v 1.140888 0.731112 0.474874
vn -0.217477 0.963589 -0.155563
f 637/1/160 638/2/160 639/3/160 640/4/160
v 1.140888 0.731112 0.474874
v 1.186731 0.735820 0.437355
v 1.180491 0.720681 0.420788
v 1.133191 0.714963 0.459956
vn -0.490650 0.705846 -0.510924
f 641/1/161 642/2/161 643/3/161 644/4/161
v 1.133191 0.714963 0.459956
v 1.180491 0.720681 0.420788
v 1.183018 0.700000 0.410371
v 1.132913 0.692903 0.452480
vn -0.634790 0.255134 -0.729348
f 645/1/162 646/2/162 647/3/162 648/4/162
v 1.132913 0.692903 0.452480
v 1.183018 0.700000 0.410371
v 1.193635 0.679319 0.408895
v 1.140129 0.670843 0.454452
vn -0.598529 -0.263387 -0.756565
f 649/1/163 650/2/163 651/3/163 652/4/163
v 1.140129 0.670843 0.454452
v 1.193635 0.679319 0.408895
v 1.209497 0.664180 0.416756
v 1.152905 0.654694 0.465341
vn -0.390408 -0.706722 -0.590022
f 653/1/164 654/2/164 655/3/164 656/4/164
v 1.152905 0.654694 0.465341
v 1.209497 0.664180 0.416756
v 1.226354 0.658638 0.431847
v 1.167818 0.648783 0.482231
vn -0.072514 -0.959615 -0.271811
f 657/1/165 658/2/165 659/3/165 660/4/165
v 1.167818 0.648783 0.482231
v 1.226354 0.658638 0.431847
v 1.239688 0.664180 0.450125
v 1.180871 0.654694 0.500596
vn 0.264424 -0.956906 0.120042
f 661/1/166 662/2/166 663/3/166 664/4/166
v 1.180871 0.654694 0.500596
v 1.239688 0.664180 0.450125
v 1.245928 0.679319 0.466692
v 1.188568 0.670843 0.515514
vn 0.527655 -0.698311 0.483675
f 665/1/167 666/2/167 667/3/167 668/4/167
v 1.188568 0.670843 0.515514
v 1.245928 0.679319 0.466692
v 1.243401 0.700000 0.477109
v 1.188846 0.692903 0.522989
vn 0.648603 -0.251580 0.718346
f 669/1/168 670/2/168 671/3/168 672/4/168
v 1.243401 0.700000 0.477109
v 1.322648 0.791250 0.398210
v 1.308413 0.808364 0.405072
v 1.232784 0.720681 0.478584
vn 0.546687 0.223062 0.807079
f 673/1/169 674/2/169 675/3/169 676/4/169
v 1.232784 0.720681 0.478584
v 1.308413 0.808364 0.405072
v 1.289009 0.820892 0.402052
v 1.216923 0.735820 0.470723
vn 0.135970 0.565009 0.813804
f 677/1/170 678/2/170 679/3/170 680/4/170
v 1.216923 0.735820 0.470723
v 1.289009 0.820892 0.402052
v 1.269635 0.825478 0.389960
v 1.200066 0.741362 0.455632
vn -0.297488 0.739510 0.603842
f 681/1/171 682/2/171 683/3/171 684/4/171
v 1.200066 0.741362 0.455632
v 1.269635 0.825478 0.389960
v 1.255482 0.820892 0.372037
v 1.186731 0.735820 0.437355
vn -0.642121 0.725171 0.248613
f 685/1/172 686/2/172 687/3/172 688/4/172
v 1.186731 0.735820 0.437355
v 1.255482 0.820892 0.372037
v 1.250342 0.808364 0.353083
v 1.180491 0.720681 0.420788
vn -0.827300 0.533499 -0.175935
f 689/1/173 690/2/173 691/3/173 692/4/173
v 1.180491 0.720681 0.420788
v 1.250342 0.808364 0.353083
v 1.255593 0.791250 0.338179
v 1.183018 0.700000 0.410371
vn -0.796437 0.191583 -0.573571
f 693/1/174 694/2/174 695/3/174 696/4/174
v 1.183018 0.700000 0.410371
v 1.255593 0.791250 0.338179
v 1.269828 0.774136 0.331318
v 1.193635 0.679319 0.408895
vn -0.537103 -0.217579 -0.814972
f 697/1/175 698/2/175 699/3/175 700/4/175
v 1.193635 0.679319 0.408895
v 1.269828 0.774136 0.331318
v 1.289232 0.761608 0.334337
v 1.209497 0.664180 0.416756
vn -0.131852 -0.562092 -0.816497
f 701/1/176 702/2/176 703/3/176 704/4/176
v 1.209497 0.664180 0.416756
v 1.289232 0.761608 0.334337
v 1.308606 0.757022 0.346429
v 1.226354 0.658638 0.431847
vn 0.291471 -0.745547 -0.599337
f 705/1/177 706/2/177 707/3/177 708/4/177
v 1.226354 0.658638 0.431847
v 1.308606 0.757022 0.346429
v 1.322759 0.761608 0.364353
v 1.239688 0.664180 0.450125
vn 0.633061 -0.736415 -0.238595
f 709/1/178 710/2/178 711/3/178 712/4/178
v 1.239688 0.664180 0.450125
v 1.322759 0.761608 0.364353
v 1.327899 0.774136 0.383306
v 1.245928 0.679319 0.466692
vn 0.821875 -0.539360 0.183335
f 713/1/179 714/2/179 715/3/179 716/4/179
v 1.245928 0.679319 0.466692
v 1.327899 0.774136 0.383306
v 1.322648 0.791250 0.398210
v 1.243401 0.700000 0.477109
vn 0.799322 -0.189545 0.570226
f 717/1/180 718/2/180 719/3/180 720/4/180
v 1.322648 0.791250 0.398210
v 1.392759 0.882500 0.310149
v 1.379461 0.899610 0.318693
v 1.308413 0.808364 0.405072
vn 0.632042 0.228870 0.740366
f 721/1/181 722/2/181 723/3/181 724/4/181
v 1.308413 0.808364 0.405072
v 1.379461 0.899610 0.318693
v 1.359832 0.912136 0.318056
v 1.289009 0.820892 0.402052
vn 0.239919 0.562322 0.791349
f 725/1/182 726/2/182 727/3/182 728/4/182
v 1.289009 0.820892 0.402052
v 1.359832 0.912136 0.318056
v 1.339131 0.916721 0.308410
v 1.269635 0.825478 0.389960
vn -0.215898 0.746723 0.629121
f 729/1/183 730/2/183 731/3/183 732/4/183
v 1.269635 0.825478 0.389960
v 1.339131 0.916721 0.308410
v 1.322906 0.912136 0.292338
v 1.255482 0.820892 0.372037
vn -0.613058 0.732183 0.296761
f 733/1/184 734/2/184 735/3/184 736/4/184
v 1.255482 0.820892 0.372037
v 1.322906 0.912136 0.292338
v 1.315502 0.899610 0.274148
v 1.250342 0.808364 0.353083
vn -0.844651 0.522520 -0.116350
f 737/1/185 738/2/185 739/3/185 740/4/185
v 1.250342 0.808364 0.353083
v 1.315502 0.899610 0.274148
v 1.318906 0.882500 0.258712
v 1.255593 0.791250 0.338179
vn -0.848786 0.174293 -0.499184
f 741/1/186 742/2/186 743/3/186 744/4/186
v 1.255593 0.791250 0.338179
v 1.318906 0.882500 0.258712
v 1.332203 0.865390 0.250168
v 1.269828 0.774136 0.331318
vn -0.624756 -0.219176 -0.749427
f 745/1/187 746/2/187 747/3/187 748/4/187
v 1.269828 0.774136 0.331318
v 1.332203 0.865390 0.250168
v 1.351832 0.852864 0.250805
v 1.289232 0.761608 0.334337
vn -0.232385 -0.552801 -0.800255
f 749/1/188 750/2/188 751/3/188 752/4/188
v 1.289232 0.761608 0.334337
v 1.351832 0.852864 0.250805
v 1.372533 0.848279 0.260451
v 1.308606 0.757022 0.346429
vn 0.223548 -0.737106 -0.637731
f 753/1/189 754/2/189 755/3/189 756/4/189
v 1.308606 0.757022 0.346429
v 1.372533 0.848279 0.260451
v 1.388759 0.852864 0.276523
v 1.322759 0.761608 0.364353
vn 0.620581 -0.722297 -0.305231
f 757/1/190 758/2/190 759/3/190 760/4/190
v 1.322759 0.761608 0.364353
v 1.388759 0.852864 0.276523
v 1.396162 0.865390 0.294713
v 1.327899 0.774136 0.383306
vn 0.851927 -0.512460 0.107727
f 761/1/191 762/2/191 763/3/191 764/4/191
v 1.327899 0.774136 0.383306
v 1.396162 0.865390 0.294713
v 1.392759 0.882500 0.310149
v 1.322648 0.791250 0.398210
vn 0.855942 -0.164329 0.490264
f 765/1/192 766/2/192 767/3/192 768/4/192
v 1.392759 0.882500 0.310149
v 1.451276 0.973750 0.213412
v 1.439228 0.990858 0.223648
v 1.379461 0.899610 0.318693
vn 0.719515 0.232386 0.654443
f 769/1/193 770/2/193 771/3/193 772/4/193
v 1.379461 0.899610 0.318693
v 1.439228 0.990858 0.223648
v 1.419687 1.003381 0.225623
v 1.359832 0.912136 0.318056
vn 0.336040 0.564900 0.753635
f 773/1/194 774/2/194 775/3/194 776/4/194
v 1.359832 0.912136 0.318056
v 1.419687 1.003381 0.225623
v 1.397889 1.007965 0.218809
v 1.339131 0.916721 0.308410
vn -0.137039 0.747883 0.649531
f 777/1/195 778/2/195 779/3/195 780/4/195
v 1.339131 0.916721 0.308410
v 1.397889 1.007965 0.218809
v 1.379674 1.003381 0.205032
v 1.322906 0.912136 0.292338
vn -0.572765 0.731704 0.369526
f 781/1/196 782/2/196 783/3/196 784/4/196
v 1.322906 0.912136 0.292338
v 1.379674 1.003381 0.205032
v 1.369924 0.990858 0.187982
v 1.315502 0.899610 0.274148
vn -0.853729 0.520600 -0.011028
f 785/1/197 786/2/197 787/3/197 788/4/197
v 1.315502 0.899610 0.274148
v 1.369924 0.990858 0.187982
v 1.371251 0.973750 0.172229
v 1.318906 0.882500 0.258712
vn -0.904798 0.171614 -0.389731
f 789/1/198 790/2/198 791/3/198 792/4/198
v 1.318906 0.882500 0.258712
v 1.371251 0.973750 0.172229
v 1.383299 0.956642 0.161993
v 1.332203 0.865390 0.250168
vn -0.712818 -0.221719 -0.665381
f 793/1/199 794/2/199 795/3/199 796/4/199
v 1.332203 0.865390 0.250168
v 1.383299 0.956642 0.161993
v 1.402840 0.944119 0.160017
v 1.351832 0.852864 0.250805
vn -0.329009 -0.554430 -0.764434
f 797/1/200 798/2/200 799/3/200 800/4/200
v 1.351832 0.852864 0.250805
v 1.402840 0.944119 0.160017
v 1.424638 0.939535 0.166831
v 1.372533 0.848279 0.260451
vn 0.144273 -0.737272 -0.660011
f 801/1/201 802/2/201 803/3/201 804/4/201
v 1.372533 0.848279 0.260451
v 1.424638 0.939535 0.166831
v 1.442852 0.944119 0.180609
v 1.388759 0.852864 0.276523
vn 0.579869 -0.720755 -0.379822
f 805/1/202 806/2/202 807/3/202 808/4/202
v 1.388759 0.852864 0.276523
v 1.442852 0.944119 0.180609
v 1.452602 0.956642 0.197658
v 1.396162 0.865390 0.294713
vn 0.860499 -0.509452 0.000597
f 809/1/203 810/2/203 811/3/203 812/4/203
v 1.396162 0.865390 0.294713
v 1.452602 0.956642 0.197658
v 1.451276 0.973750 0.213412
v 1.392759 0.882500 0.310149
vn 0.911362 -0.160608 0.378977
f 813/1/204 814/2/204 815/3/204 816/4/204
v 1.451276 0.973750 0.213412
v 1.496037 1.065000 0.109414
v 1.485498 1.082108 0.121198
v 1.439228 0.990858 0.223648
vn 0.801057 0.234662 0.550674
f 817/1/205 818/2/205 819/3/205 820/4/205
v 1.439228 0.990858 0.223648
v 1.485498 1.082108 0.121198
v 1.466410 1.094631 0.125822
v 1.419687 1.003381 0.225623
vn 0.433906 0.566519 0.700558
f 821/1/206 822/2/206 823/3/206 824/4/206
v 1.419687 1.003381 0.225623
v 1.466410 1.094631 0.125822
v 1.443886 1.099215 0.122046
v 1.397889 1.007965 0.218809
vn -0.049306 0.748509 0.661289
f 825/1/207 826/2/207 827/3/207 828/4/207
v 1.397889 1.007965 0.218809
v 1.443886 1.099215 0.122046
v 1.423962 1.094631 0.110883
v 1.379674 1.003381 0.205032
vn -0.518960 0.731162 0.442812
f 829/1/208 830/2/208 831/3/208 832/4/208
v 1.379674 1.003381 0.205032
v 1.423962 1.094631 0.110883
v 1.411976 1.082108 0.095323
v 1.369924 0.990858 0.187982
vn -0.848420 0.519017 0.103943
f 833/1/209 834/2/209 835/3/209 836/4/209
v 1.369924 0.990858 0.187982
v 1.411976 1.082108 0.095323
v 1.411141 1.065000 0.079536
v 1.371251 0.973750 0.172229
vn -0.949511 0.169481 -0.264017
f 837/1/210 838/2/210 839/3/210 840/4/210
v 1.371251 0.973750 0.172229
v 1.411141 1.065000 0.079536
v 1.421679 1.047892 0.067752
v 1.383299 0.956642 0.161993
vn -0.795789 -0.223743 -0.562724
f 841/1/211 842/2/211 843/3/211 844/4/211
v 1.383299 0.956642 0.161993
v 1.421679 1.047892 0.067752
v 1.440768 1.035369 0.063128
v 1.402840 0.944119 0.160017
vn -0.428237 -0.555782 -0.712545
f 845/1/212 846/2/212 847/3/212 848/4/212
v 1.402840 0.944119 0.160017
v 1.440768 1.035369 0.063128
v 1.463292 1.030785 0.066904
v 1.424638 0.939535 0.166831
vn 0.055269 -0.737569 -0.673006
f 849/1/213 850/2/213 851/3/213 852/4/213
v 1.424638 0.939535 0.166831
v 1.463292 1.030785 0.066904
v 1.483216 1.035369 0.078067
v 1.442852 0.944119 0.180609
vn 0.524814 -0.719836 -0.454320
f 853/1/214 854/2/214 855/3/214 856/4/214
v 1.442852 0.944119 0.180609
v 1.483216 1.035369 0.078067
v 1.495201 1.047892 0.093627
v 1.452602 0.956642 0.197658
vn 0.853869 -0.507508 -0.115513
f 857/1/215 858/2/215 859/3/215 860/4/215
v 1.452602 0.956642 0.197658
v 1.495201 1.047892 0.093627
v 1.496037 1.065000 0.109414
v 1.451276 0.973750 0.213412
vn 0.954666 -0.158177 0.252175
f 861/1/216 862/2/216 863/3/216 864/4/216
v 1.496037 1.065000 0.109414
v 1.525550 1.156250 0.003319
v 1.515842 1.173374 0.015773
v 1.485498 1.082108 0.121198
vn 0.867606 0.231223 0.440222
f 865/1/217 866/2/217 867/3/217 868/4/217
v 1.485498 1.082108 0.121198
v 1.515842 1.173374 0.015773
v 1.497116 1.185910 0.021670
v 1.466410 1.094631 0.125822
vn 0.524273 0.563337 0.638583
f 869/1/218 870/2/218 871/3/218 872/4/218
v 1.466410 1.094631 0.125822
v 1.497116 1.185910 0.021670
v 1.474389 1.190499 0.019429
v 1.443886 1.099215 0.122046
vn 0.040216 0.745539 0.665248
f 873/1/219 874/2/219 875/3/219 876/4/219
v 1.443886 1.099215 0.122046
v 1.474389 1.190499 0.019429
v 1.453751 1.185910 0.009650
v 1.423962 1.094631 0.110883
vn -0.454783 0.728265 0.512643
f 877/1/220 878/2/220 879/3/220 880/4/220
v 1.423962 1.094631 0.110883
v 1.453751 1.185910 0.009650
v 1.440732 1.173374 -0.005045
v 1.411976 1.082108 0.095323
vn -0.827305 0.516075 0.221885
f 881/1/221 882/2/221 883/3/221 884/4/221
v 1.411976 1.082108 0.095323
v 1.440732 1.173374 -0.005045
v 1.438820 1.156250 -0.020720
v 1.411141 1.065000 0.079536
vn -0.977609 0.166493 -0.128691
f 885/1/222 886/2/222 887/3/222 888/4/222
v 1.411141 1.065000 0.079536
v 1.438820 1.156250 -0.020720
v 1.448528 1.139126 -0.033174
v 1.421679 1.047892 0.067752
vn -0.866124 -0.226701 -0.445462
f 889/1/223 890/2/223 891/3/223 892/4/223
v 1.421679 1.047892 0.067752
v 1.448528 1.139126 -0.033174
v 1.467254 1.126590 -0.039071
v 1.440768 1.035369 0.063128
vn -0.522552 -0.558694 -0.644050
f 893/1/224 894/2/224 895/3/224 896/4/224
v 1.440768 1.035369 0.063128
v 1.467254 1.126590 -0.039071
v 1.489982 1.122001 -0.036830
v 1.463292 1.030785 0.066904
vn -0.038250 -0.740548 -0.670914
f 897/1/225 898/2/225 899/3/225 900/4/225
v 1.463292 1.030785 0.066904
v 1.489982 1.122001 -0.036830
v 1.510620 1.126590 -0.027051
v 1.483216 1.035369 0.078067
vn 0.456737 -0.723035 -0.518277
f 901/1/226 902/2/226 903/3/226 904/4/226
v 1.483216 1.035369 0.078067
v 1.510620 1.126590 -0.027051
v 1.523639 1.139126 -0.012356
v 1.495201 1.047892 0.093627
vn 0.829002 -0.510970 -0.227300
f 905/1/227 906/2/227 907/3/227 908/4/227
v 1.495201 1.047892 0.093627
v 1.523639 1.139126 -0.012356
v 1.525550 1.156250 0.003319
v 1.496037 1.065000 0.109414
vn 0.979078 -0.161747 0.123470
f 909/1/228 910/2/228 911/3/228 912/4/228
v 1.525550 1.156250 0.003319
v 1.474389 1.190499 0.019429
v 1.497116 1.185910 0.021670
v 1.515842 1.173374 0.015773
vn 0.203280 0.648658 -0.733431
f 913/1/229 914/2/229 915/3/229 916/4/229
v 1.525550 1.156250 0.003319
v 1.440732 1.173374 -0.005045
v 1.453751 1.185910 0.009650
v 1.474389 1.190499 0.019429
vn 0.203280 0.648658 -0.733431
f 917/1/230 918/2/230 919/3/230 920/4/230
v 1.525550 1.156250 0.003319
v 1.448528 1.139126 -0.033174
v 1.438820 1.156250 -0.020720
v 1.440732 1.173374 -0.005045
vn 0.203280 0.648658 -0.733431
f 921/1/231 922/2/231 923/3/231 924/4/231
v 1.525550 1.156250 0.003319
v 1.489982 1.122001 -0.036830
v 1.467254 1.126590 -0.039071
v 1.448528 1.139126 -0.033174
vn 0.203280 0.648658 -0.733431
f 925/1/232 926/2/232 927/3/232 928/4/232
v 1.525550 1.156250 0.003319
v 1.523639 1.139126 -0.012356
v 1.510620 1.126590 -0.027051
v 1.489982 1.122001 -0.036830
vn 0.203280 0.648658 -0.733431
f 929/1/233 930/2/233 931/3/233 932/4/233
v 1.513561 1.147735 0.007078
v 1.524933 1.156250 -0.056484
v 1.520264 1.173212 -0.055996
v 1.508678 1.164583 0.008505
vn 0.944856 0.256644 0.203421
f 933/1/234 934/2/234 935/3/234 936/4/234
v 1.508678 1.164583 0.008505
v 1.520264 1.173212 -0.055996
v 1.507825 1.185629 -0.056912
v 1.496136 1.176917 0.007942
vn 0.679678 0.701026 0.215871
f 937/1/235 938/2/235 939/3/235 940/4/235
v 1.496136 1.176917 0.007942
v 1.507825 1.185629 -0.056912
v 1.490949 1.190174 -0.058988
v 1.479295 1.181431 0.005540
vn 0.232375 0.957562 0.170519
f 941/1/236 942/2/236 943/3/236 944/4/236
v 1.479295 1.181431 0.005540
v 1.490949 1.190174 -0.058988
v 1.474159 1.185629 -0.061667
v 1.462669 1.176917 0.001942
vn -0.277227 0.957496 0.079661
f 945/1/237 946/2/237 947/3/237 948/4/237
v 1.462669 1.176917 0.001942
v 1.474159 1.185629 -0.061667
v 1.461953 1.173212 -0.064231
v 1.450712 1.164583 -0.001887
vn -0.712517 0.700892 -0.032703
f 949/1/238 950/2/238 951/3/238 952/4/238
v 1.450712 1.164583 -0.001887
v 1.461953 1.173212 -0.064231
v 1.457601 1.156250 -0.065993
v 1.446628 1.147735 -0.004921
vn -0.956767 0.256577 -0.136987
f 953/1/239 954/2/239 955/3/239 956/4/239
v 1.446628 1.147735 -0.004921
v 1.457601 1.156250 -0.065993
v 1.462270 1.139288 -0.066482
v 1.451512 1.130886 -0.006348
vn -0.944494 -0.256368 -0.205440
f 957/1/240 958/2/240 959/3/240 960/4/240
v 1.451512 1.130886 -0.006348
v 1.462270 1.139288 -0.066482
v 1.474709 1.126871 -0.065565
v 1.464054 1.118553 -0.005785
vn -0.679052 -0.700548 -0.219367
f 961/1/241 962/2/241 963/3/241 964/4/241
v 1.464054 1.118553 -0.005785
v 1.474709 1.126871 -0.065565
v 1.491585 1.122326 -0.063489
v 1.480895 1.114038 -0.003383
vn -0.231668 -0.957023 -0.174462
f 965/1/242 966/2/242 967/3/242 968/4/242
v 1.480895 1.114038 -0.003383
v 1.491585 1.122326 -0.063489
v 1.508375 1.126871 -0.060810
v 1.497521 1.118553 0.000215
vn 0.277749 -0.957098 -0.082575
f 969/1/243 970/2/243 971/3/243 972/4/243
v 1.497521 1.118553 0.000215
v 1.508375 1.126871 -0.060810
v 1.520581 1.139288 -0.058246
v 1.509478 1.130886 0.004044
vn 0.712775 -0.700696 0.031267
f 973/1/244 974/2/244 975/3/244 976/4/244
v 1.509478 1.130886 0.004044
v 1.520581 1.139288 -0.058246
v 1.524933 1.156250 -0.056484
v 1.513561 1.147735 0.007078
vn 0.956944 -0.256441 0.135996
f 977/1/245 978/2/245 979/3/245 980/4/245
v 1.524933 1.156250 -0.056484
v 1.531730 1.156250 -0.121869
v 1.527186 1.173250 -0.122183
v 1.520264 1.173212 -0.055996
vn 0.960054 0.261411 0.099807
f 981/1/246 982/2/246 983/3/246 984/4/246
v 1.520264 1.173212 -0.055996
v 1.527186 1.173250 -0.122183
v 1.514771 1.185695 -0.123042
v 1.507825 1.185629 -0.056912
vn 0.701827 0.708513 0.073810
f 985/1/247 986/2/247 987/3/247 988/4/247
v 1.507825 1.185629 -0.056912
v 1.514771 1.185695 -0.123042
v 1.497811 1.190250 -0.124215
v 1.490949 1.190174 -0.058988
vn 0.256749 0.966074 0.027930
f 989/1/248 990/2/248 991/3/248 992/4/248
v 1.490949 1.190174 -0.058988
v 1.497811 1.190250 -0.124215
v 1.480852 1.185695 -0.125388
v 1.474159 1.185629 -0.061667
vn -0.257337 0.965973 -0.025947
f 993/1/249 994/2/249 995/3/249 996/4/249
v 1.474159 1.185629 -0.061667
v 1.480852 1.185695 -0.125388
v 1.468437 1.173250 -0.126247
v 1.461953 1.173212 -0.064231
vn -0.703626 0.706792 -0.073176
f 997/1/250 998/2/250 999/3/250 1000/4/250
v 1.461953 1.173212 -0.064231
v 1.468437 1.173250 -0.126247
v 1.463892 1.156250 -0.126561
v 1.457601 1.156250 -0.065993
vn -0.961186 0.257009 -0.100340
f 1001/1/251 1002/2/251 1003/3/251 1004/4/251
v 1.457601 1.156250 -0.065993
v 1.463892 1.156250 -0.126561
v 1.468437 1.139250 -0.126247
v 1.462270 1.139288 -0.066482
vn -0.960061 -0.261415 -0.099723
f 1005/1/252 1006/2/252 1007/3/252 1008/4/252
v 1.462270 1.139288 -0.066482
v 1.468437 1.139250 -0.126247
v 1.480852 1.126805 -0.125388
v 1.474709 1.126871 -0.065565
vn -0.701990 -0.708540 -0.071977
f 1009/1/253 1010/2/253 1011/3/253 1012/4/253
v 1.474709 1.126871 -0.065565
v 1.480852 1.126805 -0.125388
v 1.497811 1.122250 -0.124215
v 1.491585 1.122326 -0.063489
vn -0.257065 -0.966062 -0.025332
f 1013/1/254 1014/2/254 1015/3/254 1016/4/254
v 1.491585 1.122326 -0.063489
v 1.497811 1.122250 -0.124215
v 1.514771 1.126805 -0.123042
v 1.508375 1.126871 -0.060810
vn 0.257085 -0.965996 0.027570
f 1017/1/255 1018/2/255 1019/3/255 1020/4/255
v 1.508375 1.126871 -0.060810
v 1.514771 1.126805 -0.123042
v 1.527186 1.139250 -0.122183
v 1.520581 1.139288 -0.058246
vn 0.703644 -0.706786 0.073062
f 1021/1/256 1022/2/256 1023/3/256 1024/4/256
v 1.520581 1.139288 -0.058246
v 1.527186 1.139250 -0.122183
v 1.531730 1.156250 -0.121869
v 1.524933 1.156250 -0.056484
vn 0.961295 -0.256945 0.099453
f 1025/1/257 1026/2/257 1027/3/257 1028/4/257
v 1.531730 1.156250 -0.121869
v 1.533980 1.156250 -0.186325
v 1.529427 1.173250 -0.186482
v 1.527186 1.173250 -0.122183
vn 0.965376 0.258678 0.033689
f 1029/1/258 1030/2/258 1031/3/258 1032/4/258
v 1.527186 1.173250 -0.122183
v 1.529427 1.173250 -0.186482
v 1.516990 1.185695 -0.186912
v 1.514771 1.185695 -0.123042
vn 0.706884 0.706900 0.024639
f 1033/1/259 1034/2/259 1035/3/259 1036/4/259
v 1.514771 1.185695 -0.123042
v 1.516990 1.185695 -0.186912
v 1.500000 1.190250 -0.187500
v 1.497811 1.190250 -0.124215
vn 0.258805 0.965888 0.008991
f 1037/1/260 1038/2/260 1039/3/260 1040/4/260
v 1.497811 1.190250 -0.124215
v 1.500000 1.190250 -0.187500
v 1.483010 1.185695 -0.188088
v 1.480852 1.185695 -0.125388
vn -0.258808 0.965887 -0.008951
f 1041/1/261 1042/2/261 1043/3/261 1044/4/261
v 1.480852 1.185695 -0.125388
v 1.483010 1.185695 -0.188088
v 1.470573 1.173250 -0.188518
v 1.468437 1.173250 -0.126247
vn -0.706900 0.706894 -0.024333
f 1045/1/262 1046/2/262 1047/3/262 1048/4/262
v 1.468437 1.173250 -0.126247
v 1.470573 1.173250 -0.188518
v 1.466020 1.156250 -0.188675
v 1.463892 1.156250 -0.126561
vn -0.965397 0.258673 -0.033115
f 1049/1/263 1050/2/263 1051/3/263 1052/4/263
v 1.463892 1.156250 -0.126561
v 1.466020 1.156250 -0.188675
v 1.470573 1.139250 -0.188518
v 1.468437 1.139250 -0.126247
vn -0.965399 -0.258673 -0.033073
f 1053/1/264 1054/2/264 1055/3/264 1056/4/264
v 1.468437 1.139250 -0.126247
v 1.470573 1.139250 -0.188518
v 1.483010 1.126805 -0.188088
v 1.480852 1.126805 -0.125388
vn -0.706905 -0.706893 -0.024249
f 1057/1/265 1058/2/265 1059/3/265 1060/4/265
v 1.480852 1.126805 -0.125388
v 1.483010 1.126805 -0.188088
v 1.500000 1.122250 -0.187500
v 1.497811 1.122250 -0.124215
vn -0.258811 -0.965887 -0.008909
f 1061/1/266 1062/2/266 1063/3/266 1064/4/266
v 1.497811 1.122250 -0.124215
v 1.500000 1.122250 -0.187500
v 1.516990 1.126805 -0.186912
v 1.514771 1.126805 -0.123042
vn 0.258808 -0.965887 0.008951
f 1065/1/267 1066/2/267 1067/3/267 1068/4/267
v 1.514771 1.126805 -0.123042
v 1.516990 1.126805 -0.186912
v 1.529427 1.139250 -0.186482
v 1.527186 1.139250 -0.122183
vn 0.706889 -0.706898 0.024559
f 1069/1/268 1070/2/268 1071/3/268 1072/4/268
v 1.527186 1.139250 -0.122183
v 1.529427 1.139250 -0.186482
v 1.533980 1.156250 -0.186325
v 1.531730 1.156250 -0.121869
vn 0.965377 -0.258678 0.033649
f 1073/1/269 1074/2/269 1075/3/269 1076/4/269
v 1.533980 1.156250 -0.186325
v 1.500000 1.190250 -0.187500
v 1.516990 1.185695 -0.186912
v 1.529427 1.173250 -0.186482
vn 0.034563 -0.000000 -0.999403
f 1077/1/270 1078/2/270 1079/3/270 1080/4/270
v 1.533980 1.156250 -0.186325
v 1.470573 1.173250 -0.188518
v 1.483010 1.185695 -0.188088
v 1.500000 1.190250 -0.187500
vn 0.034563 -0.000000 -0.999403
f 1081/1/271 1082/2/271 1083/3/271 1084/4/271
v 1.533980 1.156250 -0.186325
v 1.470573 1.139250 -0.188518
v 1.466020 1.156250 -0.188675
v 1.470573 1.173250 -0.188518
vn 0.034563 0.000000 -0.999403
f 1085/1/272 1086/2/272 1087/3/272 1088/4/272
v 1.533980 1.156250 -0.186325
v 1.500000 1.122250 -0.187500
v 1.483010 1.126805 -0.188088
v 1.470573 1.139250 -0.188518
vn 0.034563 0.000000 -0.999403
f 1089/1/273 1090/2/273 1091/3/273 1092/4/273
v 1.533980 1.156250 -0.186325
v 1.529427 1.139250 -0.186482
v 1.516990 1.126805 -0.186912
v 1.500000 1.122250 -0.187500
vn 0.034563 0.000000 -0.999403
f 1093/1/274 1094/2/274 1095/3/274 1096/4/274
v 0.511796 0.125000 0.908570
v 1.248487 0.700217 0.440633
v 1.237806 0.713206 0.439784
v 0.501115 0.137989 0.907721
vn 0.317589 0.319525 0.892772
f 1097/1/275 1098/2/275 1099/3/275 1100/4/275
v 0.501115 0.137989 0.907721
v 1.237806 0.713206 0.439784
v 1.226472 0.718586 0.428554
v 0.489780 0.143369 0.896491
vn -0.223983 0.771401 0.595628
f 1101/1/276 1102/2/276 1103/3/276 1104/4/276
v 0.489780 0.143369 0.896491
v 1.226472 0.718586 0.428554
v 1.221124 0.713206 0.413521
v 0.484433 0.137989 0.881459
vn -0.634349 0.771401 -0.050426
f 1105/1/277 1106/2/277 1107/3/277 1108/4/277
v 0.484433 0.137989 0.881459
v 1.221124 0.713206 0.413521
v 1.224896 0.700217 0.403492
v 0.488204 0.125000 0.871430
vn -0.673122 0.319525 -0.666942
f 1109/1/278 1110/2/278 1111/3/278 1112/4/278
v 0.488204 0.125000 0.871430
v 1.224896 0.700217 0.403492
v 1.235577 0.687228 0.404341
v 0.498885 0.112011 0.872279
vn -0.317589 -0.319525 -0.892772
f 1113/1/279 1114/2/279 1115/3/279 1116/4/279
v 0.498885 0.112011 0.872279
v 1.235577 0.687228 0.404341
v 1.246911 0.681848 0.415571
v 0.510220 0.106631 0.883509
vn 0.223983 -0.771401 -0.595628
f 1117/1/280 1118/2/280 1119/3/280 1120/4/280
v 0.510220 0.106631 0.883509
v 1.246911 0.681848 0.415571
v 1.252259 0.687228 0.430604
v 0.515567 0.112011 0.898541
vn 0.634349 -0.771401 0.050426
f 1121/1/281 1122/2/281 1123/3/281 1124/4/281
v 0.515567 0.112011 0.898541
v 1.252259 0.687228 0.430604
v 1.248487 0.700217 0.440633
v 0.511796 0.125000 0.908570
vn 0.673122 -0.319525 0.666942
f 1125/1/282 1126/2/282 1127/3/282 1128/4/282
v 1.248487 0.700217 0.440633
v 1.221124 0.713206 0.413521
v 1.226472 0.718586 0.428554
v 1.237806 0.713206 0.439784
vn 0.704797 0.550314 -0.447678
f 1129/1/283 1130/2/283 1131/3/283 1132/4/283
v 1.248487 0.700217 0.440633
v 1.235577 0.687228 0.404341
v 1.224896 0.700217 0.403492
v 1.221124 0.713206 0.413521
vn 0.704797 0.550314 -0.447678
f 1133/1/284 1134/2/284 1135/3/284 1136/4/284
v 1.248487 0.700217 0.440633
v 1.252259 0.687228 0.430604
v 1.246911 0.681848 0.415571
v 1.235577 0.687228 0.404341
vn 0.704797 0.550314 -0.447678
f 1137/1/285 1138/2/285 1139/3/285 1140/4/285
usemtl clamp
v 0.468750 0.750000 0.900000
v 0.531250 0.750000 0.900000
v 0.531250 0.812500 0.900000
v 0.468750 0.812500 0.900000
vn 0.000000 0.000000 1.000000
f 1141/1/286 1142/2/286 1143/3/286 1144/4/286
v 0.531250 0.750000 0.812500
v 0.468750 0.750000 0.812500
v 0.468750 0.812500 0.812500
v 0.531250 0.812500 0.812500
vn 0.000000 0.000000 -1.000000
f 1145/1/287 1146/2/287 1147/3/287 1148/4/287
v 0.531250 0.750000 0.900000
v 0.531250 0.750000 0.812500
v 0.531250 0.812500 0.812500
v 0.531250 0.812500 0.900000
vn 1.000000 -0.000000 0.000000
f 1149/1/288 1150/2/288 1151/3/288 1152/4/288
v 0.468750 0.750000 0.812500
v 0.468750 0.750000 0.900000
v 0.468750 0.812500 0.900000
v 0.468750 0.812500 0.812500
vn -1.000000 0.000000 0.000000
f 1153/1/289 1154/2/289 1155/3/289 1156/4/289
v 0.468750 0.812500 0.900000
v 0.531250 0.812500 0.900000
v 0.531250 0.812500 0.812500
v 0.468750 0.812500 0.812500
vn -0.000000 1.000000 0.000000
f 1157/1/290 1158/2/290 1159/3/290 1160/4/290
v 0.468750 0.750000 0.812500
v 0.531250 0.750000 0.812500
v 0.531250 0.750000 0.900000
v 0.468750 0.750000 0.900000
vn 0.000000 -1.000000 0.000000
f 1161/1/291 1162/2/291 1163/3/291 1164/4/291
usemtl porcelain
v 0.437500 0.812500 0.875000
v 0.562500 0.812500 0.875000
v 0.562500 0.937500 0.875000
v 0.437500 0.937500 0.875000
vn 0.000000 0.000000 1.000000
f 1165/1/292 1166/2/292 1167/3/292 1168/4/292
v 0.562500 0.812500 0.750000
v 0.437500 0.812500 0.750000
v 0.437500 0.937500 0.750000
v 0.562500 0.937500 0.750000
vn 0.000000 0.000000 -1.000000
f 1169/1/293 1170/2/293 1171/3/293 1172/4/293
v 0.562500 0.812500 0.875000
v 0.562500 0.812500 0.750000
v 0.562500 0.937500 0.750000
v 0.562500 0.937500 0.875000
vn 1.000000 -0.000000 0.000000
f 1173/1/294 1174/2/294 1175/3/294 1176/4/294
v 0.437500 0.812500 0.750000
v 0.437500 0.812500 0.875000
v 0.437500 0.937500 0.875000
v 0.437500 0.937500 0.750000
vn -1.000000 0.000000 0.000000
f 1177/1/295 1178/2/295 1179/3/295 1180/4/295
v 0.437500 0.937500 0.875000
v 0.562500 0.937500 0.875000
v 0.562500 0.937500 0.750000
v 0.437500 0.937500 0.750000
vn -0.000000 1.000000 0.000000
f 1181/1/296 1182/2/296 1183/3/296 1184/4/296
v 0.437500 0.812500 0.750000
v 0.562500 0.812500 0.750000
v 0.562500 0.812500 0.875000
v 0.437500 0.812500 0.875000
vn 0.000000 -1.000000 0.000000
f 1185/1/297 1186/2/297 1187/3/297 1188/4/297
usemtl cable
v 0.500000 0.876623 0.766922
v 0.560650 0.543332 0.798818
v 0.574992 0.546626 0.790306
v 0.514485 0.878436 0.758209
vn 0.492026 0.171222 0.853577
f 1189/1/298 1190/2/298 1191/3/298 1192/4/298
v 0.514485 0.878436 0.758209
v 0.574992 0.546626 0.790306
v 0.574992 0.546566 0.773307
v 0.514485 0.876812 0.741287
vn 0.983923 0.177775 -0.017052
f 1193/1/299 1194/2/299 1195/3/299 1196/4/299
v 0.514485 0.876812 0.741287
v 0.574992 0.546566 0.773307
v 0.560650 0.543212 0.764818
v 0.500000 0.873377 0.733078
vn 0.492045 0.005747 -0.870551
f 1197/1/300 1198/2/300 1199/3/300 1200/4/300
v 0.500000 0.873377 0.733078
v 0.560650 0.543212 0.764818
v 0.546307 0.539918 0.773330
v 0.485515 0.871564 0.741791
vn -0.491812 -0.172392 -0.853465
f 1201/1/301 1202/2/301 1203/3/301 1204/4/301
v 0.485515 0.871564 0.741791
v 0.546307 0.539918 0.773330
v 0.546307 0.539978 0.790330
v 0.485515 0.873188 0.758713
vn -0.983755 -0.178696 0.017140
f 1205/1/302 1206/2/302 1207/3/302 1208/4/302
v 0.485515 0.873188 0.758713
v 0.546307 0.539978 0.790330
v 0.560650 0.543332 0.798818
v 0.500000 0.876623 0.766922
vn -0.491796 -0.007109 0.870682
f 1209/1/303 1210/2/303 1211/3/303 1212/4/303
v 0.560650 0.543332 0.798818
v 0.620912 0.327683 0.779308
v 0.635006 0.332777 0.771282
v 0.574992 0.546626 0.790306
vn 0.498967 0.061226 0.864455
f 1213/1/304 1214/2/304 1215/3/304 1216/4/304
v 0.574992 0.546626 0.790306
v 0.635006 0.332777 0.771282
v 0.635006 0.334498 0.754370
v 0.574992 0.546566 0.773307
vn 0.962782 0.270279 -0.000956
f 1217/1/305 1218/2/305 1219/3/305 1220/4/305
v 0.574992 0.546566 0.773307
v 0.635006 0.334498 0.754370
v 0.620912 0.331125 0.745482
v 0.560650 0.543212 0.764818
vn 0.461785 0.207686 -0.862335
f 1221/1/306 1222/2/306 1223/3/306 1224/4/306
v 0.560650 0.543212 0.764818
v 0.620912 0.331125 0.745482
v 0.606818 0.326030 0.753508
v 0.546307 0.539918 0.773330
vn -0.498635 -0.062864 -0.864530
f 1225/1/307 1226/2/307 1227/3/307 1228/4/307
v 0.546307 0.539918 0.773330
v 0.606818 0.326030 0.753508
v 0.606818 0.324310 0.770421
v 0.546307 0.539978 0.790330
vn -0.962210 -0.272308 0.000963
f 1229/1/308 1230/2/308 1231/3/308 1232/4/308
v 0.546307 0.539978 0.790330
v 0.606818 0.324310 0.770421
v 0.620912 0.327683 0.779308
v 0.560650 0.543332 0.798818
vn -0.461395 -0.209050 0.862214
f 1233/1/309 1234/2/309 1235/3/309 1236/4/309
v 0.620912 0.327683 0.779308
v 0.680736 0.143504 0.758524
v 0.694637 0.149388 0.750704
v 0.635006 0.332777 0.771282
vn 0.478525 0.056551 0.876251
f 1237/1/310 1238/2/310 1239/3/310 1240/4/310
v 0.635006 0.332777 0.771282
v 0.694637 0.149388 0.750704
v 0.694637 0.151533 0.733840
v 0.635006 0.334498 0.754370
vn 0.951551 0.305911 0.031127
f 1241/1/311 1242/2/311 1243/3/311 1244/4/311
v 0.635006 0.334498 0.754370
v 0.694637 0.151533 0.733840
v 0.680736 0.147795 0.724796
v 0.620912 0.331125 0.745482
vn 0.473223 0.249042 -0.845008
f 1245/1/312 1246/2/312 1247/3/312 1248/4/312
v 0.620912 0.331125 0.745482
v 0.680736 0.147795 0.724796
v 0.666835 0.141911 0.732616
v 0.606818 0.326030 0.753508
vn -0.478326 -0.057205 -0.876317
f 1249/1/313 1250/2/313 1251/3/313 1252/4/313
v 0.606818 0.326030 0.753508
v 0.666835 0.141911 0.732616
v 0.666835 0.139766 0.749480
v 0.606818 0.324310 0.770421
vn -0.951338 -0.306566 -0.031194
f 1253/1/314 1254/2/314 1255/3/314 1256/4/314
v 0.606818 0.324310 0.770421
v 0.666835 0.139766 0.749480
v 0.680736 0.143504 0.758524
v 0.620912 0.327683 0.779308
vn -0.473014 -0.249708 0.844928
f 1257/1/315 1258/2/315 1259/3/315 1260/4/315
v 0.680736 0.143504 0.758524
v 0.740019 -0.013786 0.736204
v 0.753635 -0.006890 0.728719
v 0.694637 0.149388 0.750704
vn 0.472404 0.053207 0.879775
f 1261/1/316 1262/2/316 1263/3/316 1264/4/316
v 0.694637 0.149388 0.750704
v 0.753635 -0.006890 0.728719
v 0.753635 -0.004146 0.711942
v 0.694637 0.151533 0.733840
vn 0.936674 0.347402 0.044198
f 1265/1/317 1266/2/317 1267/3/317 1268/4/317
v 0.694637 0.151533 0.733840
v 0.753635 -0.004146 0.711942
v 0.740019 -0.008298 0.702650
v 0.680736 0.147795 0.724796
vn 0.464600 0.293587 -0.835436
f 1269/1/318 1270/2/318 1271/3/318 1272/4/318
v 0.680736 0.147795 0.724796
v 0.740019 -0.008298 0.702650
v 0.726402 -0.015194 0.710135
v 0.666835 0.141911 0.732616
vn -0.471980 -0.054413 -0.879928
f 1273/1/319 1274/2/319 1275/3/319 1276/4/319
v 0.666835 0.141911 0.732616
v 0.726402 -0.015194 0.710135
v 0.726402 -0.017938 0.726912
v 0.666835 0.139766 0.749480
vn -0.936214 -0.348621 -0.044353
f 1277/1/320 1278/2/320 1279/3/320 1280/4/320
v 0.666835 0.139766 0.749480
v 0.726402 -0.017938 0.726912
v 0.740019 -0.013786 0.736204
v 0.680736 0.143504 0.758524
vn -0.464142 -0.294839 0.835250
f 1281/1/321 1282/2/321 1283/3/321 1284/4/321
v 0.740019 -0.013786 0.736204
v 0.805326 -0.139604 0.711150
v 0.813004 -0.131050 0.698624
v 0.753635 -0.006890 0.728719
vn 0.457094 0.060558 0.887354
f 1285/1/322 1286/2/322 1287/3/322 1288/4/322
v 0.753635 -0.006890 0.728719
v 0.813004 -0.131050 0.698624
v 0.806323 -0.131050 0.682992
v 0.753635 -0.004146 0.711942
vn 0.906401 0.416878 0.068189
f 1289/1/323 1290/2/323 1291/3/323 1292/4/323
v 0.753635 -0.004146 0.711942
v 0.806323 -0.131050 0.682992
v 0.791964 -0.139604 0.679886
v 0.740019 -0.008298 0.702650
vn 0.443859 0.370419 -0.815953
f 1293/1/324 1294/2/324 1295/3/324 1296/4/324
v 0.740019 -0.008298 0.702650
v 0.791964 -0.139604 0.679886
v 0.784286 -0.148158 0.692411
v 0.726402 -0.015194 0.710135
vn -0.468794 -0.032419 -0.882713
f 1297/1/325 1298/2/325 1299/3/325 1300/4/325
v 0.726402 -0.015194 0.710135
v 0.784286 -0.148158 0.692411
v 0.790967 -0.148158 0.708043
v 0.726402 -0.017938 0.726912
vn -0.918098 -0.391154 -0.063981
f 1301/1/326 1302/2/326 1303/3/326 1304/4/326
v 0.726402 -0.017938 0.726912
v 0.790967 -0.148158 0.708043
v 0.805326 -0.139604 0.711150
v 0.740019 -0.013786 0.736204
vn -0.455163 -0.344646 0.821003
f 1305/1/327 1306/2/327 1307/3/327 1308/4/327
v 0.805326 -0.139604 0.711150
v 0.863761 -0.203302 0.685445
v 0.865912 -0.190005 0.675074
v 0.813004 -0.131050 0.698624
vn 0.671150 0.352529 0.652135
f 1309/1/328 1310/2/328 1311/3/328 1312/4/328
v 0.813004 -0.131050 0.698624
v 0.865912 -0.190005 0.675074
v 0.858752 -0.190005 0.659655
v 0.806323 -0.131050 0.682992
vn 0.656010 0.700736 -0.280393
f 1313/1/329 1314/2/329 1315/3/329 1316/4/329
v 0.806323 -0.131050 0.682992
v 0.858752 -0.190005 0.659655
v 0.849441 -0.203302 0.654608
v 0.791964 -0.139604 0.679886
vn -0.011872 0.358883 -0.933307
f 1317/1/330 1318/2/330 1319/3/330 1320/4/330
v 0.791964 -0.139604 0.679886
v 0.849441 -0.203302 0.654608
v 0.847290 -0.216599 0.664978
v 0.784286 -0.148158 0.692411
vn -0.673562 -0.349281 -0.651396
f 1321/1/331 1322/2/331 1323/3/331 1324/4/331
v 0.784286 -0.148158 0.692411
v 0.847290 -0.216599 0.664978
v 0.854450 -0.216599 0.680397
v 0.790967 -0.148158 0.708043
vn -0.648906 -0.708516 0.277356
f 1325/1/332 1326/2/332 1327/3/332 1328/4/332
v 0.790967 -0.148158 0.708043
v 0.854450 -0.216599 0.680397
v 0.863761 -0.203302 0.685445
v 0.805326 -0.139604 0.711150
vn 0.014571 -0.362845 0.931736
f 1329/1/333 1330/2/333 1331/3/333 1332/4/333
v 0.863761 -0.203302 0.685445
v 0.921268 -0.209573 0.657724
v 0.917708 -0.194853 0.649999
v 0.865912 -0.190005 0.675074
vn 0.416953 0.516082 0.748204
f 1333/1/334 1334/2/334 1335/3/334 1336/4/334
v 0.865912 -0.190005 0.675074
v 0.917708 -0.194853 0.649999
v 0.910074 -0.194853 0.634810
v 0.858752 -0.190005 0.659655
vn 0.076157 0.996468 -0.035366
f 1337/1/335 1338/2/335 1339/3/335 1340/4/335
v 0.858752 -0.190005 0.659655
v 0.910074 -0.194853 0.634810
v 0.905999 -0.209573 0.627345
v 0.849441 -0.203302 0.654608
vn -0.329205 0.527760 -0.783003
f 1341/1/336 1342/2/336 1343/3/336 1344/4/336
v 0.849441 -0.203302 0.654608
v 0.905999 -0.209573 0.627345
v 0.909559 -0.224292 0.635069
v 0.847290 -0.216599 0.664978
vn -0.417736 -0.515778 -0.747977
f 1345/1/337 1346/2/337 1347/3/337 1348/4/337
v 0.847290 -0.216599 0.664978
v 0.909559 -0.224292 0.635069
v 0.917193 -0.224292 0.650258
v 0.854450 -0.216599 0.680397
vn -0.100394 -0.993855 0.046621
f 1349/1/338 1350/2/338 1351/3/338 1352/4/338
v 0.854450 -0.216599 0.680397
v 0.917193 -0.224292 0.650258
v 0.921268 -0.209573 0.657724
v 0.863761 -0.203302 0.685445
vn 0.316395 -0.522192 0.791966
f 1353/1/339 1354/2/339 1355/3/339 1356/4/339
v 0.921268 -0.209573 0.657724
v 0.977915 -0.205799 0.628072
v 0.972430 -0.191162 0.621388
v 0.917708 -0.194853 0.649999
vn 0.375159 0.500238 0.780396
f 1357/1/340 1358/2/340 1359/3/340 1360/4/340
v 0.917708 -0.194853 0.649999
v 0.972430 -0.191162 0.621388
v 0.964242 -0.191162 0.606489
v 0.910074 -0.194853 0.634810
vn -0.053320 0.998218 0.026798
f 1361/1/341 1362/2/341 1363/3/341 1364/4/341
v 0.910074 -0.194853 0.634810
v 0.964242 -0.191162 0.606489
v 0.961540 -0.205799 0.598276
v 0.905999 -0.209573 0.627345
vn -0.427712 0.500234 -0.752880
f 1365/1/342 1366/2/342 1367/3/342 1368/4/342
v 0.905999 -0.209573 0.627345
v 0.961540 -0.205799 0.598276
v 0.967025 -0.220435 0.604960
v 0.909559 -0.224292 0.635069
vn -0.374596 -0.500242 -0.780663
f 1369/1/343 1370/2/343 1371/3/343 1372/4/343
v 0.909559 -0.224292 0.635069
v 0.967025 -0.220435 0.604960
v 0.975212 -0.220435 0.619858
v 0.917193 -0.224292 0.650258
vn 0.053036 -0.998237 -0.026655
f 1373/1/344 1374/2/344 1375/3/344 1376/4/344
v 0.917193 -0.224292 0.650258
v 0.975212 -0.220435 0.619858
v 0.977915 -0.205799 0.628072
v 0.921268 -0.209573 0.657724
vn 0.427729 -0.500234 0.752871
f 1377/1/345 1378/2/345 1379/3/345 1380/4/345
v 0.977915 -0.205799 0.628072
v 1.033353 -0.195810 0.596106
v 1.026739 -0.181319 0.590168
v 0.972430 -0.191162 0.621388
vn 0.364764 0.496446 0.787711
f 1381/1/346 1382/2/346 1383/3/346 1384/4/346
v 0.972430 -0.191162 0.621388
v 1.026739 -0.181319 0.590168
v 1.017960 -0.181319 0.575611
v 0.964242 -0.191162 0.606489
vn -0.136063 0.987874 0.074778
f 1385/1/347 1386/2/347 1387/3/347 1388/4/347
v 0.964242 -0.191162 0.606489
v 1.017960 -0.181319 0.575611
v 1.015794 -0.195810 0.566991
v 0.961540 -0.205799 0.598276
vn -0.499851 0.492222 -0.712648
f 1389/1/348 1390/2/348 1391/3/348 1392/4/348
v 0.961540 -0.205799 0.598276
v 1.015794 -0.195810 0.566991
v 1.022408 -0.210302 0.572928
v 0.967025 -0.220435 0.604960
vn -0.363311 -0.496262 -0.788498
f 1393/1/349 1394/2/349 1395/3/349 1396/4/349
v 0.967025 -0.220435 0.604960
v 1.022408 -0.210302 0.572928
v 1.031187 -0.210302 0.587486
v 0.975212 -0.220435 0.619858
vn 0.137129 -0.987682 -0.075363
f 1397/1/350 1398/2/350 1399/3/350 1400/4/350
v 0.975212 -0.220435 0.619858
v 1.031187 -0.210302 0.587486
v 1.033353 -0.195810 0.596106
v 0.977915 -0.205799 0.628072
vn 0.500883 -0.492066 0.712031
f 1401/1/351 1402/2/351 1403/3/351 1404/4/351
v 1.033353 -0.195810 0.596106
v 1.087557 -0.183100 0.561934
v 1.080451 -0.168662 0.556454
v 1.026739 -0.181319 0.590168
vn 0.378092 0.493481 0.783277
f 1405/1/352 1406/2/352 1407/3/352 1408/4/352
v 1.026739 -0.181319 0.590168
v 1.080451 -0.168662 0.556454
v 1.071025 -0.168662 0.542307
v 1.017960 -0.181319 0.575611
vn -0.167633 0.980652 0.101097
f 1409/1/353 1410/2/353 1411/3/353 1412/4/353
v 1.017960 -0.181319 0.575611
v 1.071025 -0.168662 0.542307
v 1.068705 -0.183100 0.533638
v 1.015794 -0.195810 0.566991
vn -0.544611 0.487384 -0.682536
f 1413/1/354 1414/2/354 1415/3/354 1416/4/354
v 1.015794 -0.195810 0.566991
v 1.068705 -0.183100 0.533638
v 1.075812 -0.197539 0.539118
v 1.022408 -0.210302 0.572928
vn -0.376070 -0.493064 -0.784512
f 1417/1/355 1418/2/355 1419/3/355 1420/4/355
v 1.022408 -0.210302 0.572928
v 1.075812 -0.197539 0.539118
v 1.085238 -0.197539 0.553265
v 1.031187 -0.210302 0.587486
vn 0.169524 -0.980209 -0.102238
f 1421/1/356 1422/2/356 1423/3/356 1424/4/356
v 1.031187 -0.210302 0.587486
v 1.085238 -0.197539 0.553265
v 1.087557 -0.183100 0.561934
v 1.033353 -0.195810 0.596106
vn 0.546395 -0.486976 0.681400
f 1425/1/357 1426/2/357 1427/3/357 1428/4/357
v 1.087557 -0.183100 0.561934
v 1.140040 -0.170597 0.525022
v 1.132896 -0.156105 0.519737
v 1.080451 -0.168662 0.556454
vn 0.417957 0.494821 0.761882
f 1429/1/358 1430/2/358 1431/3/358 1432/4/358
v 1.080451 -0.168662 0.556454
v 1.132896 -0.156105 0.519737
v 1.122773 -0.156105 0.506079
v 1.071025 -0.168662 0.542307
vn -0.160217 0.981293 0.106745
f 1433/1/359 1434/2/359 1435/3/359 1436/4/359
v 1.071025 -0.168662 0.542307
v 1.122773 -0.156105 0.506079
v 1.119794 -0.170597 0.497707
v 1.068705 -0.183100 0.533638
vn -0.577209 0.486480 -0.655871
f 1437/1/360 1438/2/360 1439/3/360 1440/4/360
v 1.068705 -0.183100 0.533638
v 1.119794 -0.170597 0.497707
v 1.126938 -0.185090 0.502992
v 1.075812 -0.197539 0.539118
vn -0.415878 -0.494346 -0.763327
f 1441/1/361 1442/2/361 1443/3/361 1444/4/361
v 1.075812 -0.197539 0.539118
v 1.126938 -0.185090 0.502992
v 1.137061 -0.185090 0.516650
v 1.085238 -0.197539 0.553265
vn 0.162383 -0.980779 -0.108188
f 1445/1/362 1446/2/362 1447/3/362 1448/4/362
v 1.085238 -0.197539 0.553265
v 1.137061 -0.185090 0.516650
v 1.140040 -0.170597 0.525022
v 1.087557 -0.183100 0.561934
vn 0.579185 -0.485975 0.654502
f 1449/1/363 1450/2/363 1451/3/363 1452/4/363
v 1.140040 -0.170597 0.525022
v 1.190638 -0.160455 0.485541
v 1.182337 -0.146219 0.481368
v 1.132896 -0.156105 0.519737
vn 0.469477 0.497454 0.729473
f 1453/1/364 1454/2/364 1455/3/364 1456/4/364
v 1.132896 -0.156105 0.519737
v 1.182337 -0.146219 0.481368
v 1.171525 -0.146219 0.468249
v 1.122773 -0.156105 0.506079
vn -0.125384 0.987746 0.092935
f 1457/1/365 1458/2/365 1459/3/365 1460/4/365
v 1.122773 -0.156105 0.506079
v 1.171525 -0.146219 0.468249
v 1.169015 -0.160455 0.459303
v 1.119794 -0.170597 0.497707
vn -0.594157 0.490435 -0.637535
f 1461/1/366 1462/2/366 1463/3/366 1464/4/366
v 1.119794 -0.170597 0.497707
v 1.169015 -0.160455 0.459303
v 1.177316 -0.174691 0.463476
v 1.126938 -0.185090 0.502992
vn -0.467770 -0.497100 -0.730810
f 1465/1/367 1466/2/367 1467/3/367 1468/4/367
v 1.126938 -0.185090 0.502992
v 1.177316 -0.174691 0.463476
v 1.188128 -0.174691 0.476595
v 1.137061 -0.185090 0.516650
vn 0.128834 -0.987058 -0.095492
f 1469/1/368 1470/2/368 1471/3/368 1472/4/368
v 1.137061 -0.185090 0.516650
v 1.188128 -0.174691 0.476595
v 1.190638 -0.160455 0.485541
v 1.140040 -0.170597 0.525022
vn 0.597663 -0.489621 0.634878
f 1473/1/369 1474/2/369 1475/3/369 1476/4/369
v 1.190638 -0.160455 0.485541
v 1.239036 -0.136888 0.443311
v 1.227314 -0.124600 0.442546
v 1.182337 -0.146219 0.481368
vn 0.434277 0.477184 0.764002
f 1477/1/370 1478/2/370 1479/3/370 1480/4/370
v 1.182337 -0.146219 0.481368
v 1.227314 -0.124600 0.442546
v 1.215804 -0.124600 0.430036
v 1.171525 -0.146219 0.468249
vn -0.263923 0.939698 0.217516
f 1481/1/371 1482/2/371 1483/3/371 1484/4/371
v 1.171525 -0.146219 0.468249
v 1.215804 -0.124600 0.430036
v 1.216015 -0.136888 0.418290
v 1.169015 -0.160455 0.459303
vn -0.697486 0.465400 -0.544900
f 1485/1/372 1486/2/372 1487/3/372 1488/4/372
v 1.169015 -0.160455 0.459303
v 1.216015 -0.136888 0.418290
v 1.227738 -0.149177 0.419055
v 1.177316 -0.174691 0.463476
vn -0.430587 -0.475881 -0.766898
f 1489/1/373 1490/2/373 1491/3/373 1492/4/373
v 1.177316 -0.174691 0.463476
v 1.227738 -0.149177 0.419055
v 1.239248 -0.149177 0.431566
v 1.188128 -0.174691 0.476595
vn 0.274052 -0.934816 -0.225864
f 1493/1/374 1494/2/374 1495/3/374 1496/4/374
v 1.188128 -0.174691 0.476595
v 1.239248 -0.149177 0.431566
v 1.239036 -0.136888 0.443311
v 1.190638 -0.160455 0.485541
vn 0.704747 -0.462392 0.538076
f 1497/1/375 1498/2/375 1499/3/375 1500/4/375
v 1.239036 -0.136888 0.443311
v 1.284892 -0.070422 0.397988
v 1.271184 -0.060592 0.400099
v 1.227314 -0.124600 0.442546
vn 0.328081 0.367160 0.870377
f 1501/1/376 1502/2/376 1503/3/376 1504/4/376
v 1.227314 -0.124600 0.442546
v 1.271184 -0.060592 0.400099
v 1.258843 -0.060592 0.388407
v 1.215804 -0.124600 0.430036
vn -0.532629 0.690038 0.490055
f 1505/1/377 1506/2/377 1507/3/377 1508/4/377
v 1.215804 -0.124600 0.430036
v 1.258843 -0.060592 0.388407
v 1.260210 -0.070422 0.374605
v 1.216015 -0.136888 0.418290
vn -0.864214 0.339770 -0.371067
f 1509/1/378 1510/2/378 1511/3/378 1512/4/378
v 1.216015 -0.136888 0.418290
v 1.260210 -0.070422 0.374605
v 1.273918 -0.080253 0.372495
v 1.227738 -0.149177 0.419055
vn -0.321670 -0.361345 -0.875190
f 1513/1/379 1514/2/379 1515/3/379 1516/4/379
v 1.227738 -0.149177 0.419055
v 1.273918 -0.080253 0.372495
v 1.286259 -0.080253 0.384186
v 1.239248 -0.149177 0.431566
vn 0.533408 -0.688926 -0.490772
f 1517/1/380 1518/2/380 1519/3/380 1520/4/380
v 1.239248 -0.149177 0.431566
v 1.286259 -0.080253 0.384186
v 1.284892 -0.070422 0.397988
v 1.239036 -0.136888 0.443311
vn 0.866187 -0.337399 0.368621
f 1521/1/381 1522/2/381 1523/3/381 1524/4/381
v 1.284892 -0.070422 0.397988
v 1.327570 0.004464 0.349651
v 1.313703 0.013666 0.353117
v 1.271184 -0.060592 0.400099
vn 0.377079 0.340950 0.861142
f 1525/1/382 1526/2/382 1527/3/382 1528/4/382
v 1.271184 -0.060592 0.400099
v 1.313703 0.013666 0.353117
v 1.300581 0.013666 0.342308
v 1.258843 -0.060592 0.388407
vn -0.523220 0.649012 0.552290
f 1529/1/383 1530/2/383 1531/3/383 1532/4/383
v 1.258843 -0.060592 0.388407
v 1.300581 0.013666 0.342308
v 1.301327 0.004464 0.328034
v 1.260210 -0.070422 0.374605
vn -0.897886 0.311673 -0.310903
f 1533/1/384 1534/2/384 1535/3/384 1536/4/384
v 1.260210 -0.070422 0.374605
v 1.301327 0.004464 0.328034
v 1.315195 -0.004738 0.324567
v 1.273918 -0.080253 0.372495
vn -0.372690 -0.333824 -0.865831
f 1537/1/385 1538/2/385 1539/3/385 1540/4/385
v 1.273918 -0.080253 0.372495
v 1.315195 -0.004738 0.324567
v 1.328316 -0.004738 0.335376
v 1.286259 -0.080253 0.384186
vn 0.527471 -0.641695 -0.556778
f 1541/1/386 1542/2/386 1543/3/386 1544/4/386
v 1.286259 -0.080253 0.384186
v 1.328316 -0.004738 0.335376
v 1.327570 0.004464 0.349651
v 1.284892 -0.070422 0.397988
vn 0.901980 -0.304456 0.306169
f 1545/1/387 1546/2/387 1547/3/387 1548/4/387
v 1.327570 0.004464 0.349651
v 1.366755 0.087868 0.298368
v 1.352921 0.096486 0.303200
v 1.313703 0.013666 0.353117
vn 0.424611 0.321022 0.846552
f 1549/1/388 1550/2/388 1551/3/388 1552/4/388
v 1.313703 0.013666 0.353117
v 1.352921 0.096486 0.303200
v 1.339045 0.096486 0.293378
v 1.300581 0.013666 0.342308
vn -0.504668 0.608235 0.612666
f 1553/1/389 1554/2/389 1555/3/389 1556/4/389
v 1.300581 0.013666 0.342308
v 1.339045 0.096486 0.293378
v 1.339004 0.087868 0.278724
v 1.301327 0.004464 0.328034
vn -0.927106 0.291088 -0.236097
f 1557/1/390 1558/2/390 1559/3/390 1560/4/390
v 1.301327 0.004464 0.328034
v 1.339004 0.087868 0.278724
v 1.352839 0.079251 0.273893
v 1.315195 -0.004738 0.324567
vn -0.420695 -0.313300 -0.851387
f 1561/1/391 1562/2/391 1563/3/391 1564/4/391
v 1.315195 -0.004738 0.324567
v 1.352839 0.079251 0.273893
v 1.366714 0.079251 0.283715
v 1.328316 -0.004738 0.335376
vn 0.508475 -0.600340 -0.617288
f 1565/1/392 1566/2/392 1567/3/392 1568/4/392
v 1.328316 -0.004738 0.335376
v 1.366714 0.079251 0.283715
v 1.366755 0.087868 0.298368
v 1.327570 0.004464 0.349651
vn 0.930742 -0.283272 0.231249
f 1569/1/393 1570/2/393 1571/3/393 1572/4/393
v 1.366755 0.087868 0.298368
v 1.402001 0.179968 0.244226
v 1.388388 0.188040 0.250431
v 1.352921 0.096486 0.303200
vn 0.476779 0.302688 0.825265
f 1573/1/394 1574/2/394 1575/3/394 1576/4/394
v 1.352921 0.096486 0.303200
v 1.388388 0.188040 0.250431
v 1.373797 0.188040 0.241707
v 1.339045 0.096486 0.293378
vn -0.474603 0.570291 0.670462
f 1577/1/395 1578/2/395 1579/3/395 1580/4/395
v 1.339045 0.096486 0.293378
v 1.373797 0.188040 0.241707
v 1.372820 0.179968 0.226778
v 1.339004 0.087868 0.278724
vn -0.949465 0.271711 -0.157130
f 1581/1/396 1582/2/396 1583/3/396 1584/4/396
v 1.339004 0.087868 0.278724
v 1.372820 0.179968 0.226778
v 1.386433 0.171895 0.220573
v 1.352839 0.079251 0.273893
vn -0.473369 -0.294450 -0.830193
f 1585/1/397 1586/2/397 1587/3/397 1588/4/397
v 1.352839 0.079251 0.273893
v 1.386433 0.171895 0.220573
v 1.401024 0.171895 0.229297
v 1.366714 0.079251 0.283715
vn 0.477936 -0.561893 -0.675169
f 1589/1/398 1590/2/398 1591/3/398 1592/4/398
v 1.366714 0.079251 0.283715
v 1.401024 0.171895 0.229297
v 1.402001 0.179968 0.244226
v 1.366755 0.087868 0.298368
vn 0.952607 -0.263379 0.152221
f 1593/1/399 1594/2/399 1595/3/399 1596/4/399
v 1.402001 0.179968 0.244226
v 1.432892 0.281067 0.187434
v 1.419674 0.288625 0.194994
v 1.388388 0.188040 0.250431
vn 0.532352 0.285095 0.797071
f 1597/1/400 1598/2/400 1599/3/400 1600/4/400
v 1.388388 0.188040 0.250431
v 1.419674 0.288625 0.194994
v 1.404434 0.288625 0.187463
v 1.373797 0.188040 0.241707
vn -0.433681 0.534644 0.725311
f 1601/1/401 1602/2/401 1603/3/401 1604/4/401
v 1.373797 0.188040 0.241707
v 1.404434 0.288625 0.187463
v 1.402411 0.281067 0.172371
v 1.372820 0.179968 0.226778
vn -0.964418 0.253783 -0.074109
f 1605/1/402 1606/2/402 1607/3/402 1608/4/402
v 1.372820 0.179968 0.226778
v 1.402411 0.281067 0.172371
v 1.415628 0.273508 0.164810
v 1.386433 0.171895 0.220573
vn -0.529523 -0.276581 -0.801940
f 1609/1/403 1610/2/403 1611/3/403 1612/4/403
v 1.386433 0.171895 0.220573
v 1.415628 0.273508 0.164810
v 1.430869 0.273508 0.172341
v 1.401024 0.171895 0.229297
vn 0.436461 -0.525985 -0.729960
f 1613/1/404 1614/2/404 1615/3/404 1616/4/404
v 1.401024 0.171895 0.229297
v 1.430869 0.273508 0.172341
v 1.432892 0.281067 0.187434
v 1.402001 0.179968 0.244226
vn 0.966999 -0.245179 0.069287
f 1617/1/405 1618/2/405 1619/3/405 1620/4/405
v 1.432892 0.281067 0.187434
v 1.459093 0.391697 0.128308
v 1.446428 0.398759 0.137180
v 1.419674 0.288625 0.194994
vn 0.589217 0.267851 0.762286
f 1621/1/406 1622/2/406 1623/3/406 1624/4/406
v 1.419674 0.288625 0.194994
v 1.446428 0.398759 0.137180
v 1.430626 0.398759 0.130910
v 1.404434 0.288625 0.187463
vn -0.383527 0.500575 0.776101
f 1625/1/407 1626/2/407 1627/3/407 1628/4/407
v 1.404434 0.288625 0.187463
v 1.430626 0.398759 0.130910
v 1.427490 0.391697 0.115768
v 1.402411 0.281067 0.172371
vn -0.971450 0.236963 0.011544
f 1629/1/408 1630/2/408 1631/3/408 1632/4/408
v 1.402411 0.281067 0.172371
v 1.427490 0.391697 0.115768
v 1.440156 0.384636 0.106895
v 1.415628 0.273508 0.164810
vn -0.586998 -0.259322 -0.766932
f 1633/1/409 1634/2/409 1635/3/409 1636/4/409
v 1.415628 0.273508 0.164810
v 1.440156 0.384636 0.106895
v 1.455957 0.384636 0.113165
v 1.430869 0.273508 0.172341
vn 0.385720 -0.491916 -0.780538
f 1637/1/410 1638/2/410 1639/3/410 1640/4/410
v 1.430869 0.273508 0.172341
v 1.455957 0.384636 0.113165
v 1.459093 0.391697 0.128308
v 1.432892 0.281067 0.187434
vn 0.973445 -0.228352 -0.016124
f 1641/1/411 1642/2/411 1643/3/411 1644/4/411
v 1.459093 0.391697 0.128308
v 1.480389 0.512807 0.067250
v 1.468405 0.519369 0.077366
v 1.446428 0.398759 0.137180
vn 0.645244 0.250424 0.721767
f 1645/1/412 1646/2/412 1647/3/412 1648/4/412
v 1.446428 0.398759 0.137180
v 1.468405 0.519369 0.077366
v 1.452149 0.519369 0.072392
v 1.430626 0.398759 0.130910
vn -0.326134 0.467035 0.821897
f 1649/1/413 1650/2/413 1651/3/413 1652/4/413
v 1.430626 0.398759 0.130910
v 1.452149 0.519369 0.072392
v 1.447876 0.512807 0.057303
v 1.427490 0.391697 0.115768
vn -0.970396 0.220730 0.098034
f 1653/1/414 1654/2/414 1655/3/414 1656/4/414
v 1.427490 0.391697 0.115768
v 1.447876 0.512807 0.057303
v 1.459860 0.506245 0.047187
v 1.440156 0.384636 0.106895
vn -0.643616 -0.242146 -0.726033
f 1657/1/415 1658/2/415 1659/3/415 1660/4/415
v 1.440156 0.384636 0.106895
v 1.459860 0.506245 0.047187
v 1.476116 0.506245 0.052161
v 1.455957 0.384636 0.113165
vn 0.327751 -0.458641 -0.825971
f 1661/1/416 1662/2/416 1663/3/416 1664/4/416
v 1.455957 0.384636 0.113165
v 1.476116 0.506245 0.052161
v 1.480389 0.512807 0.067250
v 1.459093 0.391697 0.128308
vn 0.971826 -0.212380 -0.102224
f 1665/1/417 1666/2/417 1667/3/417 1668/4/417
v 1.480389 0.512807 0.067250
v 1.496722 0.646184 0.004618
v 1.485681 0.653173 0.015492
v 1.468405 0.519369 0.077366
vn 0.698536 0.232284 0.676825
f 1669/1/418 1670/2/418 1671/3/418 1672/4/418
v 1.468405 0.519369 0.077366
v 1.485681 0.653173 0.015492
v 1.469063 0.653173 0.011906
v 1.452149 0.519369 0.072392
vn -0.263738 0.432706 0.862095
f 1673/1/419 1674/2/419 1675/3/419 1676/4/419
v 1.452149 0.519369 0.072392
v 1.469063 0.653173 0.011906
v 1.463487 0.646184 -0.002553
v 1.447876 0.512807 0.057303
vn -0.961551 0.204442 0.183366
f 1677/1/420 1678/2/420 1679/3/420 1680/4/420
v 1.447876 0.512807 0.057303
v 1.463487 0.646184 -0.002553
v 1.474529 0.639195 -0.013426
v 1.459860 0.506245 0.047187
vn -0.697355 -0.223925 -0.680848
f 1681/1/421 1682/2/421 1683/3/421 1684/4/421
v 1.459860 0.506245 0.047187
v 1.474529 0.639195 -0.013426
v 1.491146 0.639195 -0.009841
v 1.476116 0.506245 0.052161
vn 0.264937 -0.424059 -0.866015
f 1685/1/422 1686/2/422 1687/3/422 1688/4/422
v 1.476116 0.506245 0.052161
v 1.491146 0.639195 -0.009841
v 1.496722 0.646184 0.004618
v 1.480389 0.512807 0.067250
vn 0.962530 -0.196141 -0.187253
f 1689/1/423 1690/2/423 1691/3/423 1692/4/423
v 1.496722 0.646184 0.004618
v 1.508099 0.750155 -0.058853
v 1.497862 0.757382 -0.047365
v 1.485681 0.653173 0.015492
vn 0.757559 0.277735 0.590735
f 1693/1/424 1694/2/424 1695/3/424 1696/4/424
v 1.485681 0.653173 0.015492
v 1.497862 0.757382 -0.047365
v 1.481034 0.757382 -0.049781
v 1.469063 0.653173 0.011906
vn -0.179698 0.523404 0.832921
f 1697/1/425 1698/2/425 1699/3/425 1700/4/425
v 1.469063 0.653173 0.011906
v 1.481034 0.757382 -0.049781
v 1.474444 0.750155 -0.063686
v 1.463487 0.646184 -0.002553
vn -0.937788 0.250221 0.240713
f 1701/1/426 1702/2/426 1703/3/426 1704/4/426
v 1.463487 0.646184 -0.002553
v 1.474444 0.750155 -0.063686
v 1.484681 0.742929 -0.075175
v 1.474529 0.639195 -0.013426
vn -0.756957 -0.270100 -0.595031
f 1705/1/427 1706/2/427 1707/3/427 1708/4/427
v 1.474529 0.639195 -0.013426
v 1.484681 0.742929 -0.075175
v 1.501508 0.742929 -0.072758
v 1.491146 0.639195 -0.009841
vn 0.180638 -0.516074 -0.837280
f 1709/1/428 1710/2/428 1711/3/428 1712/4/428
v 1.491146 0.639195 -0.009841
v 1.501508 0.742929 -0.072758
v 1.508099 0.750155 -0.058853
v 1.496722 0.646184 0.004618
vn 0.938775 -0.242318 -0.244913
f 1713/1/429 1714/2/429 1715/3/429 1716/4/429
v 1.508099 0.750155 -0.058853
v 1.497812 0.865670 -0.140093
v 1.512529 0.868337 -0.132011
v 1.497862 0.757382 -0.047365
vn 0.795205 0.394587 0.460380
f 1717/1/430 1718/2/430 1719/3/430 1720/4/430
v 1.497862 0.757382 -0.047365
v 1.512529 0.868337 -0.132011
v 1.512529 0.874452 -0.116149
v 1.481034 0.757382 -0.049781
vn -0.112411 0.612043 0.782794
f 1721/1/431 1722/2/431 1723/3/431 1724/4/431
v 1.481034 0.757382 -0.049781
v 1.512529 0.874452 -0.116149
v 1.497812 0.877900 -0.108368
v 1.474444 0.750155 -0.063686
vn -0.898341 0.373122 0.231868
f 1725/1/432 1726/2/432 1727/3/432 1728/4/432
v 1.474444 0.750155 -0.063686
v 1.497812 0.877900 -0.108368
v 1.483096 0.875233 -0.116450
v 1.484681 0.742929 -0.075175
vn -0.768946 -0.081145 -0.634143
f 1729/1/433 1730/2/433 1731/3/433 1732/4/433
v 1.484681 0.742929 -0.075175
v 1.483096 0.875233 -0.116450
v 1.483096 0.869119 -0.132312
v 1.501508 0.742929 -0.072758
vn 0.135881 -0.293572 -0.946230
f 1733/1/434 1734/2/434 1735/3/434 1736/4/434
v 1.501508 0.742929 -0.072758
v 1.483096 0.869119 -0.132312
v 1.497812 0.865670 -0.140093
v 1.508099 0.750155 -0.058853
vn 0.913317 -0.057042 -0.403236
f 1737/1/435 1738/2/435 1739/3/435 1740/4/435
v 1.497812 0.865670 -0.140093
v 1.500000 1.106907 -0.203936
v 1.514722 1.108953 -0.195685
v 1.512529 0.868337 -0.132011
vn 0.500041 -0.225794 -0.836048
f 1741/1/436 1742/2/436 1743/3/436 1744/4/436
v 1.512529 0.868337 -0.132011
v 1.514722 1.108953 -0.195685
v 1.514722 1.113296 -0.179249
v 1.512529 0.874452 -0.116149
vn 0.999961 -0.008271 0.003188
f 1745/1/437 1746/2/437 1747/3/437 1748/4/437
v 1.512529 0.874452 -0.116149
v 1.514722 1.113296 -0.179249
v 1.500000 1.115593 -0.171064
v 1.497812 0.877900 -0.108368
vn 0.495552 0.217600 0.840880
f 1749/1/438 1750/2/438 1751/3/438 1752/4/438
v 1.497812 0.877900 -0.108368
v 1.500000 1.115593 -0.171064
v 1.485278 1.113547 -0.179315
v 1.483096 0.875233 -0.116450
vn -0.500025 0.225171 0.836225
f 1753/1/439 1754/2/439 1755/3/439 1756/4/439
v 1.483096 0.875233 -0.116450
v 1.485278 1.113547 -0.179315
v 1.485278 1.109204 -0.195751
v 1.483096 0.869119 -0.132312
vn -0.999960 0.008312 -0.003204
f 1757/1/440 1758/2/440 1759/3/440 1760/4/440
v 1.483096 0.869119 -0.132312
v 1.485278 1.109204 -0.195751
v 1.500000 1.106907 -0.203936
v 1.497812 0.865670 -0.140093
vn -0.495557 -0.217678 -0.840856
f 1761/1/441 1762/2/441 1763/3/441 1764/4/441
v 1.500000 1.106907 -0.203936
v 1.500000 1.115593 -0.171064
v 1.514722 1.113296 -0.179249
v 1.514722 1.108953 -0.195685
vn 0.008833 0.966786 -0.255435
f 1765/1/442 1766/2/442 1767/3/442 1768/4/442
v 1.500000 1.106907 -0.203936
v 1.485278 1.109204 -0.195751
v 1.485278 1.113547 -0.179315
v 1.500000 1.115593 -0.171064
vn 0.008833 0.966786 -0.255435
f 1769/1/443 1770/2/443 1771/3/443 1772/4/443
