# Generated by scripts/gen_pole_light_mounts.py
mtllib pole_light_mount.mtl
o pole_light_mount_5_left_wired
vt 0 0
vt 1 0
vt 1 1
vt 0 1
usemtl clamp
v 0.312500 0.062500 1.000000
v 0.687500 0.062500 1.000000
v 0.687500 0.937500 1.000000
v 0.312500 0.937500 1.000000
vn 0.000000 0.000000 1.000000
f 1/1/1 2/2/1 3/3/1 4/4/1
v 0.687500 0.062500 0.900000
v 0.312500 0.062500 0.900000
v 0.312500 0.937500 0.900000
v 0.687500 0.937500 0.900000
vn 0.000000 0.000000 -1.000000
f 5/1/2 6/2/2 7/3/2 8/4/2
v 0.687500 0.062500 1.000000
v 0.687500 0.062500 0.900000
v 0.687500 0.937500 0.900000
v 0.687500 0.937500 1.000000
vn 1.000000 -0.000000 0.000000
f 9/1/3 10/2/3 11/3/3 12/4/3
v 0.312500 0.062500 0.900000
v 0.312500 0.062500 1.000000
v 0.312500 0.937500 1.000000
v 0.312500 0.937500 0.900000
vn -1.000000 0.000000 0.000000
f 13/1/4 14/2/4 15/3/4 16/4/4
v 0.312500 0.937500 1.000000
v 0.687500 0.937500 1.000000
v 0.687500 0.937500 0.900000
v 0.312500 0.937500 0.900000
vn -0.000000 1.000000 0.000000
f 17/1/5 18/2/5 19/3/5 20/4/5
v 0.312500 0.062500 0.900000
v 0.687500 0.062500 0.900000
v 0.687500 0.062500 1.000000
v 0.312500 0.062500 1.000000
vn 0.000000 -1.000000 0.000000
f 21/1/6 22/2/6 23/3/6 24/4/6
v 0.406250 0.312500 0.900000
v 0.593750 0.312500 0.900000
v 0.593750 0.531250 0.900000
v 0.406250 0.531250 0.900000
vn 0.000000 0.000000 1.000000
f 25/1/7 26/2/7 27/3/7 28/4/7
v 0.593750 0.312500 0.800000
v 0.406250 0.312500 0.800000
v 0.406250 0.531250 0.800000
v 0.593750 0.531250 0.800000
vn 0.000000 0.000000 -1.000000
f 29/1/8 30/2/8 31/3/8 32/4/8
v 0.593750 0.312500 0.900000
v 0.593750 0.312500 0.800000
v 0.593750 0.531250 0.800000
v 0.593750 0.531250 0.900000
vn 1.000000 -0.000000 0.000000
f 33/1/9 34/2/9 35/3/9 36/4/9
v 0.406250 0.312500 0.800000
v 0.406250 0.312500 0.900000
v 0.406250 0.531250 0.900000
v 0.406250 0.531250 0.800000
vn -1.000000 0.000000 0.000000
f 37/1/10 38/2/10 39/3/10 40/4/10
v 0.406250 0.531250 0.900000
v 0.593750 0.531250 0.900000
v 0.593750 0.531250 0.800000
v 0.406250 0.531250 0.800000
vn -0.000000 1.000000 0.000000
f 41/1/11 42/2/11 43/3/11 44/4/11
v 0.406250 0.312500 0.800000
v 0.593750 0.312500 0.800000
v 0.593750 0.312500 0.900000
v 0.406250 0.312500 0.900000
vn 0.000000 -1.000000 0.000000
f 45/1/12 46/2/12 47/3/12 48/4/12
v 0.468750 0.125000 0.900000
v 0.531250 0.125000 0.900000
v 0.531250 0.187500 0.900000
v 0.468750 0.187500 0.900000
vn 0.000000 0.000000 1.000000
f 49/1/13 50/2/13 51/3/13 52/4/13
v 0.531250 0.125000 0.880000
v 0.468750 0.125000 0.880000
v 0.468750 0.187500 0.880000
v 0.531250 0.187500 0.880000
vn 0.000000 0.000000 -1.000000
f 53/1/14 54/2/14 55/3/14 56/4/14
v 0.531250 0.125000 0.900000
v 0.531250 0.125000 0.880000
v 0.531250 0.187500 0.880000
v 0.531250 0.187500 0.900000
vn 1.000000 -0.000000 0.000000
f 57/1/15 58/2/15 59/3/15 60/4/15
v 0.468750 0.125000 0.880000
v 0.468750 0.125000 0.900000
v 0.468750 0.187500 0.900000
v 0.468750 0.187500 0.880000
vn -1.000000 0.000000 0.000000
f 61/1/16 62/2/16 63/3/16 64/4/16
v 0.468750 0.187500 0.900000
v 0.531250 0.187500 0.900000
v 0.531250 0.187500 0.880000
v 0.468750 0.187500 0.880000
vn -0.000000 1.000000 0.000000
f 65/1/17 66/2/17 67/3/17 68/4/17
v 0.468750 0.125000 0.880000
v 0.531250 0.125000 0.880000
v 0.531250 0.125000 0.900000
v 0.468750 0.125000 0.900000
vn 0.000000 -1.000000 0.000000
f 69/1/18 70/2/18 71/3/18 72/4/18
v 0.468750 0.812500 0.900000
v 0.531250 0.812500 0.900000
v 0.531250 0.875000 0.900000
v 0.468750 0.875000 0.900000
vn 0.000000 0.000000 1.000000
f 73/1/19 74/2/19 75/3/19 76/4/19
v 0.531250 0.812500 0.880000
v 0.468750 0.812500 0.880000
v 0.468750 0.875000 0.880000
v 0.531250 0.875000 0.880000
vn 0.000000 0.000000 -1.000000
f 77/1/20 78/2/20 79/3/20 80/4/20
v 0.531250 0.812500 0.900000
v 0.531250 0.812500 0.880000
v 0.531250 0.875000 0.880000
v 0.531250 0.875000 0.900000
vn 1.000000 -0.000000 0.000000
f 81/1/21 82/2/21 83/3/21 84/4/21
v 0.468750 0.812500 0.880000
v 0.468750 0.812500 0.900000
v 0.468750 0.875000 0.900000
v 0.468750 0.875000 0.880000
vn -1.000000 0.000000 0.000000
f 85/1/22 86/2/22 87/3/22 88/4/22
v 0.468750 0.875000 0.900000
v 0.531250 0.875000 0.900000
v 0.531250 0.875000 0.880000
v 0.468750 0.875000 0.880000
vn -0.000000 1.000000 0.000000
f 89/1/23 90/2/23 91/3/23 92/4/23
v 0.468750 0.812500 0.880000
v 0.531250 0.812500 0.880000
v 0.531250 0.812500 0.900000
v 0.468750 0.812500 0.900000
vn 0.000000 -1.000000 0.000000
f 93/1/24 94/2/24 95/3/24 96/4/24
usemtl metal
v 0.545000 0.410000 0.860000
v 0.540699 0.410000 0.780801
v 0.535246 0.432500 0.783374
v 0.538971 0.432500 0.860000
vn 0.964600 0.258464 -0.052383
f 97/1/25 98/2/25 99/3/25 100/4/25
v 0.538971 0.432500 0.860000
v 0.535246 0.432500 0.783374
v 0.520350 0.448971 0.790401
v 0.522500 0.448971 0.860000
vn 0.706689 0.706689 -0.034351
f 101/1/26 102/2/26 103/3/26 104/4/26
v 0.522500 0.448971 0.860000
v 0.520350 0.448971 0.790401
v 0.500000 0.455000 0.800000
v 0.500000 0.455000 0.860000
vn 0.258811 0.965895 -0.007997
f 105/1/27 106/2/27 107/3/27 108/4/27
v 0.500000 0.455000 0.860000
v 0.500000 0.455000 0.800000
v 0.479650 0.448971 0.809599
v 0.477500 0.448971 0.860000
vn -0.258819 0.965926 0.000000
f 109/1/28 110/2/28 111/3/28 112/4/28
v 0.477500 0.448971 0.860000
v 0.479650 0.448971 0.809599
v 0.464754 0.432500 0.816626
v 0.461029 0.432500 0.860000
vn -0.706785 0.706785 -0.030157
f 113/1/29 114/2/29 115/3/29 116/4/29
v 0.461029 0.432500 0.860000
v 0.464754 0.432500 0.816626
v 0.459301 0.410000 0.819199
v 0.455000 0.410000 0.860000
vn -0.962620 0.257933 -0.082665
f 117/1/30 118/2/30 119/3/30 120/4/30
v 0.455000 0.410000 0.860000
v 0.459301 0.410000 0.819199
v 0.464754 0.387500 0.816626
v 0.461029 0.387500 0.860000
vn -0.960957 -0.257488 -0.101296
f 121/1/31 122/2/31 123/3/31 124/4/31
v 0.461029 0.387500 0.860000
v 0.464754 0.387500 0.816626
v 0.479650 0.371029 0.809599
v 0.477500 0.371029 0.860000
vn -0.705807 -0.705807 -0.060611
f 125/1/32 126/2/32 127/3/32 128/4/32
v 0.477500 0.371029 0.860000
v 0.479650 0.371029 0.809599
v 0.500000 0.365000 0.800000
v 0.500000 0.365000 0.860000
vn -0.258803 -0.965867 -0.011042
f 129/1/33 130/2/33 131/3/33 132/4/33
v 0.500000 0.365000 0.860000
v 0.500000 0.365000 0.800000
v 0.520350 0.371029 0.790401
v 0.522500 0.371029 0.860000
vn 0.258819 -0.965926 0.000000
f 133/1/34 134/2/34 135/3/34 136/4/34
v 0.522500 0.371029 0.860000
v 0.520350 0.371029 0.790401
v 0.535246 0.387500 0.783374
v 0.538971 0.387500 0.860000
vn 0.706938 -0.706938 -0.021843
f 137/1/35 138/2/35 139/3/35 140/4/35
v 0.538971 0.387500 0.860000
v 0.535246 0.387500 0.783374
v 0.540699 0.410000 0.780801
v 0.545000 0.410000 0.860000
vn 0.964863 -0.258534 -0.046901
f 141/1/36 142/2/36 143/3/36 144/4/36
v 0.540699 0.410000 0.780801
v 0.436012 0.410000 0.688957
v 0.433055 0.432471 0.694332
v 0.535246 0.432500 0.783374
vn 0.640439 0.238653 -0.729988
f 145/1/37 146/2/37 147/3/37 148/4/37
v 0.535246 0.432500 0.783374
v 0.433055 0.432471 0.694332
v 0.423222 0.448921 0.707572
v 0.520350 0.448971 0.790401
vn 0.484379 0.675349 -0.556131
f 149/1/38 150/2/38 151/3/38 152/4/38
v 0.520350 0.448971 0.790401
v 0.423222 0.448921 0.707572
v 0.409147 0.454943 0.725129
v 0.500000 0.455000 0.800000
vn 0.182823 0.959358 -0.214961
f 153/1/39 154/2/39 155/3/39 156/4/39
v 0.500000 0.455000 0.800000
v 0.409147 0.454943 0.725129
v 0.394603 0.448921 0.742299
v 0.479650 0.448971 0.809599
vn -0.180885 0.958866 0.218761
f 157/1/40 158/2/40 159/3/40 160/4/40
v 0.479650 0.448971 0.809599
v 0.394603 0.448921 0.742299
v 0.383486 0.432471 0.754481
v 0.464754 0.432500 0.816626
vn -0.462407 0.667304 0.583853
f 161/1/41 162/2/41 163/3/41 164/4/41
v 0.464754 0.432500 0.816626
v 0.383486 0.432471 0.754481
v 0.378775 0.410000 0.758411
v 0.459301 0.410000 0.819199
vn -0.590989 0.231556 0.772731
f 165/1/42 166/2/42 167/3/42 168/4/42
v 0.459301 0.410000 0.819199
v 0.378775 0.410000 0.758411
v 0.381733 0.387529 0.753036
v 0.464754 0.387500 0.816626
vn -0.586218 -0.230839 0.776571
f 169/1/43 170/2/43 171/3/43 172/4/43
v 0.464754 0.387500 0.816626
v 0.381733 0.387529 0.753036
v 0.391566 0.371079 0.739796
v 0.479650 0.371029 0.809599
vn -0.454653 -0.664313 0.593278
f 173/1/44 174/2/44 175/3/44 176/4/44
v 0.479650 0.371029 0.809599
v 0.391566 0.371079 0.739796
v 0.405640 0.365057 0.722239
v 0.500000 0.365000 0.800000
vn -0.178143 -0.958142 0.224117
f 177/1/45 178/2/45 179/3/45 180/4/45
v 0.500000 0.365000 0.800000
v 0.405640 0.365057 0.722239
v 0.420184 0.371079 0.705069
v 0.520350 0.371029 0.790401
vn 0.180429 -0.958748 -0.219652
f 181/1/46 182/2/46 183/3/46 184/4/46
v 0.520350 0.371029 0.790401
v 0.420184 0.371079 0.705069
v 0.431301 0.387529 0.692887
v 0.535246 0.387500 0.783374
vn 0.479164 -0.673499 -0.562851
f 185/1/47 186/2/47 187/3/47 188/4/47
v 0.535246 0.387500 0.783374
v 0.431301 0.387529 0.692887
v 0.436012 0.410000 0.688957
v 0.540699 0.410000 0.780801
vn 0.637642 -0.238269 -0.732557
f 189/1/48 190/2/48 191/3/48 192/4/48
v 0.436012 0.410000 0.688957
v 0.381995 0.417097 0.644442
v 0.381501 0.439176 0.651847
v 0.433055 0.432471 0.694332
vn 0.634414 0.257806 -0.728735
f 193/1/49 194/2/49 195/3/49 196/4/49
v 0.433055 0.432471 0.694332
v 0.381501 0.439176 0.651847
v 0.373470 0.455340 0.666573
v 0.423222 0.448921 0.707572
vn 0.503947 0.704003 -0.500417
f 197/1/50 198/2/50 199/3/50 200/4/50
v 0.423222 0.448921 0.707572
v 0.373470 0.455340 0.666573
v 0.360054 0.461256 0.684673
v 0.409147 0.454943 0.725129
vn 0.238271 0.961250 -0.138652
f 201/1/51 202/2/51 203/3/51 204/4/51
v 0.409147 0.454943 0.725129
v 0.360054 0.461256 0.684673
v 0.344849 0.455340 0.701298
v 0.394603 0.448921 0.742299
vn -0.090793 0.961279 0.260192
f 205/1/52 206/2/52 207/3/52 208/4/52
v 0.394603 0.448921 0.742299
v 0.344849 0.455340 0.701298
v 0.331927 0.439176 0.711993
v 0.383486 0.432471 0.754481
vn -0.395333 0.704045 0.589942
f 209/1/53 210/2/53 211/3/53 212/4/53
v 0.383486 0.432471 0.754481
v 0.331927 0.439176 0.711993
v 0.324752 0.417097 0.713892
v 0.378775 0.410000 0.758411
vn -0.594272 0.257820 0.761820
f 213/1/54 214/2/54 215/3/54 216/4/54
v 0.378775 0.410000 0.758411
v 0.324752 0.417097 0.713892
v 0.325247 0.395017 0.706486
v 0.381733 0.387529 0.753036
vn -0.634412 -0.257806 0.728737
f 217/1/55 218/2/55 219/3/55 220/4/55
v 0.381733 0.387529 0.753036
v 0.325247 0.395017 0.706486
v 0.333277 0.378854 0.691761
v 0.391566 0.371079 0.739796
vn -0.504974 -0.703900 0.499525
f 221/1/56 222/2/56 223/3/56 224/4/56
v 0.391566 0.371079 0.739796
v 0.333277 0.378854 0.691761
v 0.346693 0.372937 0.673660
v 0.405640 0.365057 0.722239
vn -0.240730 -0.960935 0.136573
f 225/1/57 226/2/57 227/3/57 228/4/57
v 0.405640 0.365057 0.722239
v 0.346693 0.372937 0.673660
v 0.361899 0.378854 0.657035
v 0.420184 0.371079 0.705069
vn 0.087892 -0.960915 -0.262522
f 229/1/58 230/2/58 231/3/58 232/4/58
v 0.420184 0.371079 0.705069
v 0.361899 0.378854 0.657035
v 0.374820 0.395017 0.646341
v 0.431301 0.387529 0.692887
vn 0.393477 -0.703867 -0.591395
f 233/1/59 234/2/59 235/3/59 236/4/59
v 0.431301 0.387529 0.692887
v 0.374820 0.395017 0.646341
v 0.381995 0.417097 0.644442
v 0.436012 0.410000 0.688957
vn 0.593889 -0.257793 -0.762128
f 237/1/60 238/2/60 239/3/60 240/4/60
v 0.381995 0.417097 0.644442
v 0.328028 0.437693 0.599954
v 0.330263 0.458767 0.609622
v 0.381501 0.439176 0.651847
vn 0.670877 0.249263 -0.698421
f 241/1/61 242/2/61 243/3/61 244/4/61
v 0.381501 0.439176 0.651847
v 0.330263 0.458767 0.609622
v 0.324218 0.474194 0.625995
v 0.373470 0.455340 0.666573
vn 0.603474 0.679690 -0.416942
f 245/1/62 246/2/62 247/3/62 248/4/62
v 0.373470 0.455340 0.666573
v 0.324218 0.474194 0.625995
v 0.311512 0.479841 0.644684
v 0.360054 0.461256 0.684673
vn 0.375163 0.926627 -0.024813
f 249/1/63 250/2/63 251/3/63 252/4/63
v 0.360054 0.461256 0.684673
v 0.311512 0.479841 0.644684
v 0.295551 0.474194 0.660682
v 0.344849 0.455340 0.701298
vn 0.047393 0.926585 0.373089
f 253/1/64 254/2/64 255/3/64 256/4/64
v 0.344849 0.455340 0.701298
v 0.295551 0.474194 0.660682
v 0.280610 0.458767 0.669702
v 0.331927 0.439176 0.711993
vn -0.293842 0.679629 0.672132
f 257/1/65 258/2/65 259/3/65 260/4/65
v 0.331927 0.439176 0.711993
v 0.280610 0.458767 0.669702
v 0.270693 0.437693 0.669327
v 0.324752 0.417097 0.713892
vn -0.557456 0.249259 0.791905
f 261/1/66 262/2/66 263/3/66 264/4/66
v 0.324752 0.417097 0.713892
v 0.270693 0.437693 0.669327
v 0.268458 0.416618 0.659659
v 0.325247 0.395017 0.706486
vn -0.670787 -0.249287 0.698498
f 265/1/67 266/2/67 267/3/67 268/4/67
v 0.325247 0.395017 0.706486
v 0.268458 0.416618 0.659659
v 0.274503 0.401191 0.643286
v 0.333277 0.378854 0.691761
vn -0.602873 -0.679889 0.417488
f 269/1/68 270/2/68 271/3/68 272/4/68
v 0.333277 0.378854 0.691761
v 0.274503 0.401191 0.643286
v 0.287208 0.395544 0.624597
v 0.346693 0.372937 0.673660
vn -0.373801 -0.927144 0.025992
f 273/1/69 274/2/69 275/3/69 276/4/69
v 0.346693 0.372937 0.673660
v 0.287208 0.395544 0.624597
v 0.303170 0.401191 0.608599
v 0.361899 0.378854 0.657035
vn -0.045730 -0.927192 -0.371783
f 277/1/70 278/2/70 279/3/70 280/4/70
v 0.361899 0.378854 0.657035
v 0.303170 0.401191 0.608599
v 0.318111 0.416618 0.599579
v 0.374820 0.395017 0.646341
vn 0.294996 -0.679981 -0.671270
f 281/1/71 282/2/71 283/3/71 284/4/71
v 0.374820 0.395017 0.646341
v 0.318111 0.416618 0.599579
v 0.328028 0.437693 0.599954
v 0.381995 0.417097 0.644442
vn 0.557796 -0.249347 -0.791637
f 285/1/72 286/2/72 287/3/72 288/4/72
v 0.328028 0.437693 0.599954
v 0.274175 0.469771 0.555326
v 0.278278 0.489763 0.566556
v 0.330263 0.458767 0.609622
vn 0.699439 0.235413 -0.674808
f 289/1/73 290/2/73 291/3/73 292/4/73
v 0.330263 0.458767 0.609622
v 0.278278 0.489763 0.566556
v 0.273587 0.504398 0.584061
v 0.324218 0.474194 0.625995
vn 0.678123 0.643162 -0.355657
f 293/1/74 294/2/74 295/3/74 296/4/74
v 0.324218 0.474194 0.625995
v 0.273587 0.504398 0.584061
v 0.261360 0.509754 0.603150
v 0.311512 0.479841 0.644684
vn 0.475536 0.877777 0.058077
f 297/1/75 298/2/75 299/3/75 300/4/75
v 0.311512 0.479841 0.644684
v 0.261360 0.509754 0.603150
v 0.244874 0.504398 0.618710
v 0.295551 0.474194 0.660682
vn 0.146221 0.877992 0.455796
f 301/1/76 302/2/76 303/3/76 304/4/76
v 0.295551 0.474194 0.660682
v 0.244874 0.504398 0.618710
v 0.228545 0.489763 0.626570
v 0.280610 0.458767 0.669702
vn -0.222693 0.643740 0.732125
f 305/1/77 306/2/77 307/3/77 308/4/77
v 0.280610 0.458767 0.669702
v 0.228545 0.489763 0.626570
v 0.216749 0.469771 0.624624
v 0.270693 0.437693 0.669327
vn -0.532649 0.236206 0.812706
f 309/1/78 310/2/78 311/3/78 312/4/78
v 0.270693 0.437693 0.669327
v 0.216749 0.469771 0.624624
v 0.212647 0.449779 0.613395
v 0.268458 0.416618 0.659659
vn -0.699320 -0.235473 0.674910
f 313/1/79 314/2/79 315/3/79 316/4/79
v 0.268458 0.416618 0.659659
v 0.212647 0.449779 0.613395
v 0.217337 0.435145 0.595890
v 0.274503 0.401191 0.643286
vn -0.677562 -0.643475 0.356159
f 317/1/80 318/2/80 319/3/80 320/4/80
v 0.274503 0.401191 0.643286
v 0.217337 0.435145 0.595890
v 0.229564 0.429788 0.576801
v 0.287208 0.395544 0.624597
vn -0.474407 -0.878451 -0.057106
f 321/1/81 322/2/81 323/3/81 324/4/81
v 0.287208 0.395544 0.624597
v 0.229564 0.429788 0.576801
v 0.246050 0.435145 0.561241
v 0.303170 0.401191 0.608599
vn -0.144929 -0.878737 -0.454770
f 325/1/82 326/2/82 327/3/82 328/4/82
v 0.303170 0.401191 0.608599
v 0.246050 0.435145 0.561241
v 0.262379 0.449779 0.553381
v 0.318111 0.416618 0.599579
vn 0.223547 -0.644186 -0.731472
f 329/1/83 330/2/83 331/3/83 332/4/83
v 0.318111 0.416618 0.599579
v 0.262379 0.449779 0.553381
v 0.274175 0.469771 0.555326
v 0.328028 0.437693 0.599954
vn 0.532900 -0.236327 -0.812507
f 333/1/84 334/2/84 335/3/84 336/4/84
v 0.274175 0.469771 0.555326
v 0.220277 0.510193 0.510661
v 0.225434 0.529415 0.522765
v 0.278278 0.489763 0.566556
vn 0.716044 0.224365 -0.661016
f 337/1/85 338/2/85 339/3/85 340/4/85
v 0.278278 0.489763 0.566556
v 0.225434 0.529415 0.522765
v 0.221516 0.543487 0.540909
v 0.273587 0.504398 0.584061
vn 0.723461 0.612603 -0.318310
f 341/1/86 342/2/86 343/3/86 344/4/86
v 0.273587 0.504398 0.584061
v 0.221516 0.543487 0.540909
v 0.209572 0.548638 0.560233
v 0.261360 0.509754 0.603150
vn 0.537188 0.836341 0.109377
f 345/1/87 346/2/87 347/3/87 348/4/87
v 0.261360 0.509754 0.603150
v 0.209572 0.548638 0.560233
v 0.192803 0.543487 0.575558
v 0.244874 0.504398 0.618710
vn 0.207287 0.836308 0.507564
f 349/1/88 350/2/88 351/3/88 352/4/88
v 0.244874 0.504398 0.618710
v 0.192803 0.543487 0.575558
v 0.175701 0.529415 0.582779
v 0.228545 0.489763 0.626570
vn -0.178319 0.612542 0.770062
f 353/1/89 354/2/89 355/3/89 356/4/89
v 0.228545 0.489763 0.626570
v 0.175701 0.529415 0.582779
v 0.162851 0.510193 0.579959
v 0.216749 0.469771 0.624624
vn -0.516486 0.224337 0.826387
f 357/1/90 358/2/90 359/3/90 360/4/90
v 0.216749 0.469771 0.624624
v 0.162851 0.510193 0.579959
v 0.157693 0.490970 0.567855
v 0.212647 0.449779 0.613395
vn -0.716044 -0.224365 0.661016
f 361/1/91 362/2/91 363/3/91 364/4/91
v 0.212647 0.449779 0.613395
v 0.157693 0.490970 0.567855
v 0.161612 0.476898 0.549711
v 0.217337 0.435145 0.595890
vn -0.723242 -0.612762 0.318502
f 365/1/92 366/2/92 367/3/92 368/4/92
v 0.217337 0.435145 0.595890
v 0.161612 0.476898 0.549711
v 0.173556 0.471748 0.530387
v 0.229564 0.429788 0.576801
vn -0.536669 -0.836731 -0.108935
f 369/1/93 370/2/93 371/3/93 372/4/93
v 0.229564 0.429788 0.576801
v 0.173556 0.471748 0.530387
v 0.190325 0.476898 0.515062
v 0.246050 0.435145 0.561241
vn -0.206675 -0.836759 -0.507070
f 373/1/94 374/2/94 375/3/94 376/4/94
v 0.246050 0.435145 0.561241
v 0.190325 0.476898 0.515062
v 0.207426 0.490970 0.507842
v 0.262379 0.449779 0.553381
vn 0.178716 -0.612818 -0.769750
f 377/1/95 378/2/95 379/3/95 380/4/95
v 0.262379 0.449779 0.553381
v 0.207426 0.490970 0.507842
v 0.220277 0.510193 0.510661
v 0.274175 0.469771 0.555326
vn 0.516570 -0.224393 -0.826319
f 381/1/96 382/2/96 383/3/96 384/4/96
v 0.220277 0.510193 0.510661
v 0.166403 0.555000 0.466016
v 0.171888 0.573950 0.478402
v 0.225434 0.529415 0.522765
vn 0.723819 0.218011 -0.654643
f 385/1/97 386/2/97 387/3/97 388/4/97
v 0.225434 0.529415 0.522765
v 0.171888 0.573950 0.478402
v 0.168202 0.587823 0.496748
v 0.221516 0.543487 0.540909
vn 0.744757 0.595570 -0.301053
f 389/1/98 390/2/98 391/3/98 392/4/98
v 0.221516 0.543487 0.540909
v 0.168202 0.587823 0.496748
v 0.156335 0.592900 0.516138
v 0.209572 0.548638 0.560233
vn 0.566187 0.813454 0.133139
f 393/1/99 394/2/99 395/3/99 396/4/99
v 0.209572 0.548638 0.560233
v 0.156335 0.592900 0.516138
v 0.139465 0.587823 0.531377
v 0.192803 0.543487 0.575558
vn 0.235990 0.813443 0.531619
f 397/1/100 398/2/100 399/3/100 400/4/100
v 0.192803 0.543487 0.575558
v 0.139465 0.587823 0.531377
v 0.122113 0.573950 0.538381
v 0.175701 0.529415 0.582779
vn -0.157471 0.595550 0.787733
f 401/1/101 402/2/101 403/3/101 404/4/101
v 0.175701 0.529415 0.582779
v 0.122113 0.573950 0.538381
v 0.108928 0.555000 0.535274
v 0.162851 0.510193 0.579959
vn -0.508810 0.218001 0.832819
f 405/1/102 406/2/102 407/3/102 408/4/102
v 0.162851 0.510193 0.579959
v 0.108928 0.555000 0.535274
v 0.103444 0.536050 0.522888
v 0.157693 0.490970 0.567855
vn -0.723750 -0.218066 0.654701
f 409/1/103 410/2/103 411/3/103 412/4/103
v 0.157693 0.490970 0.567855
v 0.103444 0.536050 0.522888
v 0.107129 0.522177 0.504542
v 0.161612 0.476898 0.549711
vn -0.744625 -0.595679 0.301166
f 413/1/104 414/2/104 415/3/104 416/4/104
v 0.161612 0.476898 0.549711
v 0.107129 0.522177 0.504542
v 0.118997 0.517100 0.485152
v 0.173556 0.471748 0.530387
vn -0.565966 -0.813638 -0.132953
f 417/1/105 418/2/105 419/3/105 420/4/105
v 0.173556 0.471748 0.530387
v 0.118997 0.517100 0.485152
v 0.135867 0.522177 0.469913
v 0.190325 0.476898 0.515062
vn -0.235742 -0.813647 -0.531417
f 421/1/106 422/2/106 423/3/106 424/4/106
v 0.190325 0.476898 0.515062
v 0.135867 0.522177 0.469913
v 0.153218 0.536050 0.462909
v 0.207426 0.490970 0.507842
vn 0.157655 -0.595698 -0.787584
f 425/1/107 426/2/107 427/3/107 428/4/107
v 0.207426 0.490970 0.507842
v 0.153218 0.536050 0.462909
v 0.166403 0.555000 0.466016
v 0.220277 0.510193 0.510661
vn 0.508904 -0.218075 -0.832743
f 429/1/108 430/2/108 431/3/108 432/4/108
v 0.166403 0.555000 0.466016
v 0.112617 0.599807 0.421317
v 0.117748 0.619030 0.433432
v 0.171888 0.573950 0.478402
vn 0.724665 0.217620 -0.653837
f 433/1/109 434/2/109 435/3/109 436/4/109
v 0.171888 0.573950 0.478402
v 0.117748 0.619030 0.433432
v 0.113791 0.633102 0.451568
v 0.168202 0.587823 0.496748
vn 0.745231 0.595290 -0.300436
f 437/1/110 438/2/110 439/3/110 440/4/110
v 0.168202 0.587823 0.496748
v 0.113791 0.633102 0.451568
v 0.101806 0.638252 0.470866
v 0.156335 0.592900 0.516138
vn 0.566109 0.813454 0.133464
f 441/1/111 442/2/111 443/3/111 444/4/111
v 0.156335 0.592900 0.516138
v 0.101806 0.638252 0.470866
v 0.085004 0.633102 0.486156
v 0.139465 0.587823 0.531377
vn 0.235329 0.813630 0.531627
f 445/1/112 446/2/112 447/3/112 448/4/112
v 0.139465 0.587823 0.531377
v 0.085004 0.633102 0.486156
v 0.067887 0.619030 0.493339
v 0.122113 0.573950 0.538381
vn -0.158468 0.595761 0.787373
f 449/1/113 450/2/113 451/3/113 452/4/113
v 0.122113 0.573950 0.538381
v 0.067887 0.619030 0.493339
v 0.055042 0.599807 0.490492
v 0.108928 0.555000 0.535274
vn -0.509787 0.218245 0.832158
f 453/1/114 454/2/114 455/3/114 456/4/114
v 0.108928 0.555000 0.535274
v 0.055042 0.599807 0.490492
v 0.049911 0.580585 0.478377
v 0.103444 0.536050 0.522888
vn -0.724523 -0.217738 0.653954
f 457/1/115 458/2/115 459/3/115 460/4/115
v 0.103444 0.536050 0.522888
v 0.049911 0.580585 0.478377
v 0.053868 0.566513 0.460241
v 0.107129 0.522177 0.504542
vn -0.745151 -0.595356 0.300502
f 461/1/116 462/2/116 463/3/116 464/4/116
v 0.107129 0.522177 0.504542
v 0.053868 0.566513 0.460241
v 0.065854 0.561362 0.440943
v 0.118997 0.517100 0.485152
vn -0.566119 -0.813446 -0.133472
f 465/1/117 466/2/117 467/3/117 468/4/117
v 0.118997 0.517100 0.485152
v 0.065854 0.561362 0.440943
v 0.082656 0.566513 0.425654
v 0.135867 0.522177 0.469913
vn -0.235367 -0.813598 -0.531659
f 469/1/118 470/2/118 471/3/118 472/4/118
v 0.135867 0.522177 0.469913
v 0.082656 0.566513 0.425654
v 0.099772 0.580585 0.418470
v 0.153218 0.536050 0.462909
vn 0.158491 -0.595780 -0.787354
f 473/1/119 474/2/119 475/3/119 476/4/119
v 0.153218 0.536050 0.462909
v 0.099772 0.580585 0.418470
v 0.112617 0.599807 0.421317
v 0.166403 0.555000 0.466016
vn 0.509899 -0.218338 -0.832064
f 477/1/120 478/2/120 479/3/120 480/4/120
v 0.112617 0.599807 0.421317
v 0.058872 0.640229 0.376519
v 0.062942 0.660221 0.387760
v 0.117748 0.619030 0.433432
vn 0.717850 0.223847 -0.659230
f 481/1/121 482/2/121 483/3/121 484/4/121
v 0.117748 0.619030 0.433432
v 0.062942 0.660221 0.387760
v 0.058202 0.674855 0.405251
v 0.113791 0.633102 0.451568
vn 0.724327 0.612258 -0.317003
f 485/1/122 486/2/122 487/3/122 488/4/122
v 0.113791 0.633102 0.451568
v 0.058202 0.674855 0.405251
v 0.045920 0.680212 0.424306
v 0.101806 0.638252 0.470866
vn 0.536682 0.836580 0.110033
f 489/1/123 490/2/123 491/3/123 492/4/123
v 0.101806 0.638252 0.470866
v 0.045920 0.680212 0.424306
v 0.029389 0.674855 0.439818
v 0.085004 0.633102 0.486156
vn 0.205370 0.836769 0.507583
f 493/1/124 494/2/124 495/3/124 496/4/124
v 0.085004 0.633102 0.486156
v 0.029389 0.674855 0.439818
v 0.013038 0.660221 0.447631
v 0.067887 0.619030 0.493339
vn -0.180914 0.612766 0.769277
f 497/1/125 498/2/125 499/3/125 500/4/125
v 0.067887 0.619030 0.493339
v 0.013038 0.660221 0.447631
v 0.001247 0.640229 0.445652
v 0.055042 0.599807 0.490492
vn -0.518810 0.224506 0.824884
f 501/1/126 502/2/126 503/3/126 504/4/126
v 0.055042 0.599807 0.490492
v 0.001247 0.640229 0.445652
v -0.002823 0.620237 0.434410
v 0.049911 0.580585 0.478377
vn -0.717781 -0.223901 0.659286
f 505/1/127 506/2/127 507/3/127 508/4/127
v 0.049911 0.580585 0.478377
v -0.002823 0.620237 0.434410
v 0.001918 0.605602 0.416919
v 0.053868 0.566513 0.460241
vn -0.724482 -0.612139 0.316877
f 509/1/128 510/2/128 511/3/128 512/4/128
v 0.053868 0.566513 0.460241
v 0.001918 0.605602 0.416919
v 0.014199 0.600246 0.397865
v 0.065854 0.561362 0.440943
vn -0.537139 -0.836236 -0.110408
f 513/1/129 514/2/129 515/3/129 516/4/129
v 0.065854 0.561362 0.440943
v 0.014199 0.600246 0.397865
v 0.030731 0.605602 0.382353
v 0.082656 0.566513 0.425654
vn -0.205898 -0.836369 -0.508029
f 517/1/130 518/2/130 519/3/130 520/4/130
v 0.082656 0.566513 0.425654
v 0.030731 0.605602 0.382353
v 0.047082 0.620237 0.374540
v 0.099772 0.580585 0.418470
vn 0.180613 -0.612531 -0.769535
f 521/1/131 522/2/131 523/3/131 524/4/131
v 0.099772 0.580585 0.418470
v 0.047082 0.620237 0.374540
v 0.058872 0.640229 0.376519
v 0.112617 0.599807 0.421317
vn 0.518804 -0.224501 -0.824889
f 525/1/132 526/2/132 527/3/132 528/4/132
v 0.058872 0.640229 0.376519
v 0.005102 0.672307 0.331699
v 0.007297 0.693382 0.341377
v 0.062942 0.660221 0.387760
vn 0.701326 0.235532 -0.672805
f 529/1/133 530/2/133 531/3/133 532/4/133
v 0.062942 0.660221 0.387760
v 0.007297 0.693382 0.341377
v 0.001183 0.708809 0.357724
v 0.058202 0.674855 0.405251
vn 0.678695 0.643306 -0.354303
f 533/1/134 534/2/134 535/3/134 536/4/134
v 0.058202 0.674855 0.405251
v 0.001183 0.708809 0.357724
v -0.011600 0.714456 0.376360
v 0.045920 0.680212 0.424306
vn 0.474197 0.878461 0.058679
f 537/1/135 538/2/135 539/3/135 540/4/135
v 0.045920 0.680212 0.424306
v -0.011600 0.714456 0.376360
v -0.027629 0.708809 0.392291
v 0.029389 0.674855 0.439818
vn 0.143048 0.878502 0.455819
f 541/1/136 542/2/136 543/3/136 544/4/136
v 0.029389 0.674855 0.439818
v -0.027629 0.708809 0.392291
v -0.042608 0.693382 0.401248
v 0.013038 0.660221 0.447631
vn -0.226424 0.643395 0.731283
f 545/1/137 546/2/137 547/3/137 548/4/137
v 0.013038 0.660221 0.447631
v -0.042608 0.693382 0.401248
v -0.052523 0.672307 0.400832
v 0.001247 0.640229 0.445652
vn -0.535579 0.235581 0.810961
f 549/1/138 550/2/138 551/3/138 552/4/138
v 0.001247 0.640229 0.445652
v -0.052523 0.672307 0.400832
v -0.054717 0.651233 0.391154
v -0.002823 0.620237 0.434410
vn -0.701326 -0.235532 0.672805
f 553/1/139 554/2/139 555/3/139 556/4/139
v -0.002823 0.620237 0.434410
v -0.054717 0.651233 0.391154
v -0.048604 0.635806 0.374807
v 0.001918 0.605602 0.416919
vn -0.679125 -0.643039 0.353963
f 557/1/140 558/2/140 559/3/140 560/4/140
v 0.001918 0.605602 0.416919
v -0.048604 0.635806 0.374807
v -0.035820 0.630159 0.356172
v 0.014199 0.600246 0.397865
vn -0.475215 -0.877855 -0.059505
f 561/1/141 562/2/141 563/3/141 564/4/141
v 0.014199 0.600246 0.397865
v -0.035820 0.630159 0.356172
v -0.019791 0.635806 0.340241
v 0.030731 0.605602 0.382353
vn -0.144200 -0.877802 -0.456805
f 565/1/142 566/2/142 567/3/142 568/4/142
v 0.030731 0.605602 0.382353
v -0.019791 0.635806 0.340241
v -0.004813 0.651233 0.331283
v 0.047082 0.620237 0.374540
vn 0.225710 -0.642932 -0.731911
f 569/1/143 570/2/143 571/3/143 572/4/143
v 0.047082 0.620237 0.374540
v -0.004813 0.651233 0.331283
v 0.005102 0.672307 0.331699
v 0.058872 0.640229 0.376519
vn 0.535428 -0.235479 -0.811090
f 573/1/144 574/2/144 575/3/144 576/4/144
v 0.005102 0.672307 0.331699
v -0.048615 0.692903 0.286924
v -0.049161 0.714983 0.294326
v 0.007297 0.693382 0.341377
vn 0.674656 0.248869 -0.694912
f 577/1/145 578/2/145 579/3/145 580/4/145
v 0.007297 0.693382 0.341377
v -0.049161 0.714983 0.294326
v -0.057296 0.731146 0.308994
v 0.001183 0.708809 0.357724
vn 0.605476 0.679311 -0.414652
f 581/1/146 582/2/146 583/3/146 584/4/146
v 0.001183 0.708809 0.357724
v -0.057296 0.731146 0.308994
v -0.070839 0.737063 0.327000
v -0.011600 0.714456 0.376360
vn 0.374239 0.927017 -0.024171
f 585/1/147 586/2/147 587/3/147 588/4/147
v -0.011600 0.714456 0.376360
v -0.070839 0.737063 0.327000
v -0.086161 0.731146 0.343517
v -0.027629 0.708809 0.392291
vn 0.043509 0.927061 0.372378
f 589/1/148 590/2/148 591/3/148 592/4/148
v -0.027629 0.708809 0.392291
v -0.086161 0.731146 0.343517
v -0.099158 0.714983 0.354120
v -0.042608 0.693382 0.401248
vn -0.299059 0.679411 0.670048
f 593/1/149 594/2/149 595/3/149 596/4/149
v -0.042608 0.693382 0.401248
v -0.099158 0.714983 0.354120
v -0.106346 0.692903 0.355968
v -0.052523 0.672307 0.400832
vn -0.562177 0.248929 0.788664
f 597/1/150 598/2/150 599/3/150 600/4/150
v -0.052523 0.672307 0.400832
v -0.106346 0.692903 0.355968
v -0.105799 0.670824 0.348567
v -0.054717 0.651233 0.391154
vn -0.674556 -0.248916 0.694993
f 601/1/151 602/2/151 603/3/151 604/4/151
v -0.054717 0.651233 0.391154
v -0.105799 0.670824 0.348567
v -0.097665 0.654660 0.333898
v -0.048604 0.635806 0.374807
vn -0.605888 -0.679137 0.414334
f 605/1/152 606/2/152 607/3/152 608/4/152
v -0.048604 0.635806 0.374807
v -0.097665 0.654660 0.333898
v -0.084122 0.648744 0.315893
v -0.035820 0.630159 0.356172
vn -0.375431 -0.926560 0.023214
f 609/1/153 610/2/153 611/3/153 612/4/153
v -0.035820 0.630159 0.356172
v -0.084122 0.648744 0.315893
v -0.068799 0.654660 0.299376
v -0.019791 0.635806 0.340241
vn -0.044928 -0.926499 -0.373606
f 613/1/154 614/2/154 615/3/154 616/4/154
v -0.019791 0.635806 0.340241
v -0.068799 0.654660 0.299376
v -0.055803 0.670824 0.288772
v -0.004813 0.651233 0.331283
vn 0.298165 -0.679010 -0.670853
f 617/1/155 618/2/155 619/3/155 620/4/155
v -0.004813 0.651233 0.331283
v -0.055803 0.670824 0.288772
v -0.048615 0.692903 0.286924
v 0.005102 0.672307 0.331699
vn 0.562022 -0.248853 -0.788799
f 621/1/156 622/2/156 623/3/156 624/4/156
v -0.048615 0.692903 0.286924
v -0.102177 0.700000 0.242003
v -0.104352 0.722390 0.248049
v -0.049161 0.714983 0.294326
vn 0.640648 0.258259 -0.723099
f 625/1/157 626/2/157 627/3/157 628/4/157
v -0.049161 0.714983 0.294326
v -0.104352 0.722390 0.248049
v -0.113699 0.738781 0.261709
v -0.057296 0.731146 0.308994
vn 0.509002 0.704715 -0.494261
f 629/1/158 630/2/158 631/3/158 632/4/158
v -0.057296 0.731146 0.308994
v -0.113699 0.738781 0.261709
v -0.127712 0.744780 0.279323
v -0.070839 0.737063 0.327000
vn 0.242121 0.960996 -0.133654
f 633/1/159 634/2/159 635/3/159 636/4/159
v -0.070839 0.737063 0.327000
v -0.127712 0.744780 0.279323
v -0.142637 0.738781 0.296171
v -0.086161 0.731146 0.343517
vn -0.088971 0.961040 0.261697
f 637/1/160 638/2/160 639/3/160 640/4/160
v -0.086161 0.731146 0.343517
v -0.142637 0.738781 0.296171
v -0.154474 0.722390 0.307739
v -0.099158 0.714983 0.354120
vn -0.397302 0.704914 0.587578
f 641/1/161 642/2/161 643/3/161 644/4/161
v -0.099158 0.714983 0.354120
v -0.154474 0.722390 0.307739
v -0.160053 0.700000 0.310927
v -0.106346 0.692903 0.355968
vn -0.600052 0.258718 0.756969
f 645/1/162 646/2/162 647/3/162 648/4/162
v -0.106346 0.692903 0.355968
v -0.160053 0.700000 0.310927
v -0.157878 0.677610 0.304881
v -0.105799 0.670824 0.348567
vn -0.640594 -0.258272 0.723143
f 649/1/163 650/2/163 651/3/163 652/4/163
v -0.105799 0.670824 0.348567
v -0.157878 0.677610 0.304881
v -0.148531 0.661219 0.291221
v -0.097665 0.654660 0.333898
vn -0.507463 -0.705003 0.495432
f 653/1/164 654/2/164 655/3/164 656/4/164
v -0.097665 0.654660 0.333898
v -0.148531 0.661219 0.291221
v -0.134518 0.655220 0.273607
v -0.084122 0.648744 0.315893
vn -0.238526 -0.961492 0.136521
f 657/1/165 658/2/165 659/3/165 660/4/165
v -0.084122 0.648744 0.315893
v -0.134518 0.655220 0.273607
v -0.119594 0.661219 0.256759
v -0.068799 0.654660 0.299376
vn 0.093025 -0.961618 -0.258143
f 661/1/166 662/2/166 663/3/166 664/4/166
v -0.068799 0.654660 0.299376
v -0.119594 0.661219 0.256759
v -0.107756 0.677610 0.245192
v -0.055803 0.670824 0.288772
vn 0.399887 -0.705431 -0.585199
f 665/1/167 666/2/167 667/3/167 668/4/167
v -0.055803 0.670824 0.288772
v -0.107756 0.677610 0.245192
v -0.102177 0.700000 0.242003
v -0.048615 0.692903 0.286924
vn 0.600694 -0.258880 -0.756405
f 669/1/168 670/2/168 671/3/168 672/4/168
v -0.102177 0.700000 0.242003
v -0.313639 0.726838 0.064213
v -0.315866 0.749233 0.070223
v -0.104352 0.722390 0.248049
vn 0.640768 0.257548 -0.723246
f 673/1/169 674/2/169 675/3/169 676/4/169
v -0.104352 0.722390 0.248049
v -0.315866 0.749233 0.070223
v -0.325273 0.765627 0.083837
v -0.113699 0.738781 0.261709
vn 0.507391 0.703754 -0.497278
f 677/1/170 678/2/170 679/3/170 680/4/170
v -0.113699 0.738781 0.261709
v -0.325273 0.765627 0.083837
v -0.339339 0.771628 0.101408
v -0.127712 0.744780 0.279323
vn 0.238060 0.961387 -0.138064
f 681/1/171 682/2/171 683/3/171 684/4/171
v -0.127712 0.744780 0.279323
v -0.339339 0.771628 0.101408
v -0.354296 0.765627 0.118227
v -0.142637 0.738781 0.296171
vn -0.095055 0.961418 0.258146
f 685/1/172 686/2/172 687/3/172 688/4/172
v -0.142637 0.738781 0.296171
v -0.354296 0.765627 0.118227
v -0.366136 0.749233 0.129787
v -0.154474 0.722390 0.307739
vn -0.402699 0.703839 0.585187
f 689/1/173 690/2/173 691/3/173 692/4/173
v -0.154474 0.722390 0.307739
v -0.366136 0.749233 0.129787
v -0.371687 0.726838 0.132992
v -0.160053 0.700000 0.310927
vn -0.602439 0.257666 0.755431
f 693/1/174 694/2/174 695/3/174 696/4/174
v -0.160053 0.700000 0.310927
v -0.371687 0.726838 0.132992
v -0.369460 0.704444 0.126982
v -0.157878 0.677610 0.304881
vn -0.640753 -0.257550 0.723259
f 697/1/175 698/2/175 699/3/175 700/4/175
v -0.157878 0.677610 0.304881
v -0.369460 0.704444 0.126982
v -0.360053 0.688050 0.113368
v -0.148531 0.661219 0.291221
vn -0.507375 -0.703755 0.497291
f 701/1/176 702/2/176 703/3/176 704/4/176
v -0.148531 0.661219 0.291221
v -0.360053 0.688050 0.113368
v -0.345987 0.682049 0.095797
v -0.134518 0.655220 0.273607
vn -0.238044 -0.961389 0.138077
f 705/1/177 706/2/177 707/3/177 708/4/177
v -0.134518 0.655220 0.273607
v -0.345987 0.682049 0.095797
v -0.331030 0.688050 0.078979
v -0.119594 0.661219 0.256759
vn 0.095072 -0.961420 -0.258132
f 709/1/178 710/2/178 711/3/178 712/4/178
v -0.119594 0.661219 0.256759
v -0.331030 0.688050 0.078979
v -0.319190 0.704444 0.067418
v -0.107756 0.677610 0.245192
vn 0.402715 -0.703841 -0.585174
f 713/1/179 714/2/179 715/3/179 716/4/179
v -0.107756 0.677610 0.245192
v -0.319190 0.704444 0.067418
v -0.313639 0.726838 0.064213
v -0.102177 0.700000 0.242003
vn 0.602454 -0.257668 -0.755418
f 717/1/180 718/2/180 719/3/180 720/4/180
v -0.313639 0.726838 0.064213
v -0.524383 0.753676 -0.114329
v -0.526633 0.776071 -0.108328
v -0.315866 0.749233 0.070223
vn 0.643499 0.257431 -0.720860
f 721/1/181 722/2/181 723/3/181 724/4/181
v -0.315866 0.749233 0.070223
v -0.526633 0.776071 -0.108328
v -0.536093 0.792465 -0.094751
v -0.325273 0.765627 0.083837
vn 0.509310 0.703666 -0.495436
f 725/1/182 726/2/182 727/3/182 728/4/182
v -0.325273 0.765627 0.083837
v -0.536093 0.792465 -0.094751
v -0.550228 0.798466 -0.077236
v -0.339339 0.771628 0.101408
vn 0.238656 0.961355 -0.137257
f 729/1/183 730/2/183 731/3/183 732/4/183
v -0.339339 0.771628 0.101408
v -0.550228 0.798466 -0.077236
v -0.565251 0.792465 -0.060475
v -0.354296 0.765627 0.118227
vn -0.095943 0.961449 0.257703
f 733/1/184 734/2/184 735/3/184 736/4/184
v -0.354296 0.765627 0.118227
v -0.565251 0.792465 -0.060475
v -0.577136 0.776071 -0.048961
v -0.366136 0.749233 0.129787
vn -0.404831 0.703922 0.583614
f 737/1/185 738/2/185 739/3/185 740/4/185
v -0.366136 0.749233 0.129787
v -0.577136 0.776071 -0.048961
v -0.582699 0.753676 -0.045778
v -0.371687 0.726838 0.132992
vn -0.605241 0.257780 0.753148
f 741/1/186 742/2/186 743/3/186 744/4/186
v -0.371687 0.726838 0.132992
v -0.582699 0.753676 -0.045778
v -0.580449 0.731282 -0.051779
v -0.369460 0.704444 0.126982
vn -0.643475 -0.257434 0.720880
f 745/1/187 746/2/187 747/3/187 748/4/187
v -0.369460 0.704444 0.126982
v -0.580449 0.731282 -0.051779
v -0.570989 0.714888 -0.065357
v -0.360053 0.688050 0.113368
vn -0.509286 -0.703669 0.495456
f 749/1/188 750/2/188 751/3/188 752/4/188
v -0.360053 0.688050 0.113368
v -0.570989 0.714888 -0.065357
v -0.556854 0.708887 -0.082872
v -0.345987 0.682049 0.095797
vn -0.238632 -0.961358 0.137277
f 753/1/189 754/2/189 755/3/189 756/4/189
v -0.345987 0.682049 0.095797
v -0.556854 0.708887 -0.082872
v -0.541831 0.714888 -0.099632
v -0.331030 0.688050 0.078979
vn 0.095967 -0.961452 -0.257683
f 757/1/190 758/2/190 759/3/190 760/4/190
v -0.331030 0.688050 0.078979
v -0.541831 0.714888 -0.099632
v -0.529946 0.731282 -0.111146
v -0.319190 0.704444 0.067418
vn 0.404855 -0.703925 -0.583594
f 761/1/191 762/2/191 763/3/191 764/4/191
v -0.319190 0.704444 0.067418
v -0.529946 0.731282 -0.111146
v -0.524383 0.753676 -0.114329
v -0.313639 0.726838 0.064213
vn 0.605265 -0.257783 -0.753128
f 765/1/192 766/2/192 767/3/192 768/4/192
v -0.524383 0.753676 -0.114329
v -0.734378 0.780515 -0.293708
v -0.736655 0.802909 -0.287717
v -0.526633 0.776071 -0.108328
vn 0.646424 0.257416 -0.718243
f 769/1/193 770/2/193 771/3/193 772/4/193
v -0.526633 0.776071 -0.108328
v -0.736655 0.802909 -0.287717
v -0.746177 0.819303 -0.274183
v -0.536093 0.792465 -0.094751
vn 0.511326 0.703656 -0.493370
f 773/1/194 774/2/194 775/3/194 776/4/194
v -0.536093 0.792465 -0.094751
v -0.746177 0.819303 -0.274183
v -0.760392 0.825304 -0.256732
v -0.550228 0.798466 -0.077236
vn 0.239222 0.961351 -0.136296
f 777/1/195 778/2/195 779/3/195 780/4/195
v -0.550228 0.798466 -0.077236
v -0.760392 0.825304 -0.256732
v -0.775490 0.819303 -0.240040
v -0.565251 0.792465 -0.060475
vn -0.096978 0.961452 0.257303
f 781/1/196 782/2/196 783/3/196 784/4/196
v -0.565251 0.792465 -0.060475
v -0.775490 0.819303 -0.240040
v -0.787428 0.802909 -0.228580
v -0.577136 0.776071 -0.048961
vn -0.407189 0.703932 0.581960
f 785/1/197 786/2/197 787/3/197 788/4/197
v -0.577136 0.776071 -0.048961
v -0.787428 0.802909 -0.228580
v -0.793005 0.780515 -0.225422
v -0.582699 0.753676 -0.045778
vn -0.608290 0.257794 0.750684
f 789/1/198 790/2/198 791/3/198 792/4/198
v -0.582699 0.753676 -0.045778
v -0.793005 0.780515 -0.225422
v -0.790727 0.758120 -0.231413
v -0.580449 0.731282 -0.051779
vn -0.646396 -0.257420 0.718266
f 793/1/199 794/2/199 795/3/199 796/4/199
v -0.580449 0.731282 -0.051779
v -0.790727 0.758120 -0.231413
v -0.781206 0.741726 -0.244947
v -0.570989 0.714888 -0.065357
vn -0.511298 -0.703659 0.493394
f 797/1/200 798/2/200 799/3/200 800/4/200
v -0.570989 0.714888 -0.065357
v -0.781206 0.741726 -0.244947
v -0.766991 0.735725 -0.262398
v -0.556854 0.708887 -0.082872
vn -0.239194 -0.961355 0.136319
f 801/1/201 802/2/201 803/3/201 804/4/201
v -0.556854 0.708887 -0.082872
v -0.766991 0.735725 -0.262398
v -0.751893 0.741726 -0.279090
v -0.541831 0.714888 -0.099632
vn 0.097006 -0.961456 -0.257279
f 805/1/202 806/2/202 807/3/202 808/4/202
v -0.541831 0.714888 -0.099632
v -0.751893 0.741726 -0.279090
v -0.739955 0.758120 -0.290550
v -0.529946 0.731282 -0.111146
vn 0.407216 -0.703936 -0.581936
f 809/1/203 810/2/203 811/3/203 812/4/203
v -0.529946 0.731282 -0.111146
v -0.739955 0.758120 -0.290550
v -0.734378 0.780515 -0.293708
v -0.524383 0.753676 -0.114329
vn 0.608317 -0.257797 -0.750660
f 813/1/204 814/2/204 815/3/204 816/4/204
v -0.734378 0.780515 -0.293708
v -0.943452 0.807353 -0.474120
v -0.945760 0.829748 -0.468141
v -0.736655 0.802909 -0.287717
vn 0.650023 0.257372 -0.715004
f 817/1/205 818/2/205 819/3/205 820/4/205
v -0.736655 0.802909 -0.287717
v -0.945760 0.829748 -0.468141
v -0.955351 0.846142 -0.454656
v -0.746177 0.819303 -0.274183
vn 0.513814 0.703623 -0.490826
f 821/1/206 822/2/206 823/3/206 824/4/206
v -0.746177 0.819303 -0.274183
v -0.955351 0.846142 -0.454656
v -0.969654 0.852142 -0.437278
v -0.760392 0.825304 -0.256732
vn 0.239933 0.961339 -0.135128
f 825/1/207 826/2/207 827/3/207 828/4/207
v -0.760392 0.825304 -0.256732
v -0.969654 0.852142 -0.437278
v -0.984838 0.846142 -0.420663
v -0.775490 0.819303 -0.240040
vn -0.098235 0.961464 0.256782
f 829/1/208 830/2/208 831/3/208 832/4/208
v -0.775490 0.819303 -0.240040
v -0.984838 0.846142 -0.420663
v -0.996833 0.829748 -0.409264
v -0.787428 0.802909 -0.228580
vn -0.410076 0.703964 0.579890
f 833/1/209 834/2/209 835/3/209 836/4/209
v -0.787428 0.802909 -0.228580
v -0.996833 0.829748 -0.409264
v -1.002427 0.807353 -0.406135
v -0.793005 0.780515 -0.225422
vn -0.612033 0.257838 0.747620
f 837/1/210 838/2/210 839/3/210 840/4/210
v -0.793005 0.780515 -0.225422
v -1.002427 0.807353 -0.406135
v -1.000119 0.784958 -0.412114
v -0.790727 0.758120 -0.231413
vn -0.649992 -0.257376 0.715030
f 841/1/211 842/2/211 843/3/211 844/4/211
v -0.790727 0.758120 -0.231413
v -1.000119 0.784958 -0.412114
v -0.990528 0.768564 -0.425599
v -0.781206 0.741726 -0.244947
vn -0.513783 -0.703627 0.490853
f 845/1/212 846/2/212 847/3/212 848/4/212
v -0.781206 0.741726 -0.244947
v -0.990528 0.768564 -0.425599
v -0.976225 0.762564 -0.442978
v -0.766991 0.735725 -0.262398
vn -0.239901 -0.961343 0.135155
f 849/1/213 850/2/213 851/3/213 852/4/213
v -0.766991 0.735725 -0.262398
v -0.976225 0.762564 -0.442978
v -0.961041 0.768564 -0.459592
v -0.751893 0.741726 -0.279090
vn 0.098266 -0.961468 -0.256755
f 853/1/214 854/2/214 855/3/214 856/4/214
v -0.751893 0.741726 -0.279090
v -0.961041 0.768564 -0.459592
v -0.949045 0.784958 -0.470991
v -0.739955 0.758120 -0.290550
vn 0.410107 -0.703968 -0.579863
f 857/1/215 858/2/215 859/3/215 860/4/215
v -0.739955 0.758120 -0.290550
v -0.949045 0.784958 -0.470991
v -0.943452 0.807353 -0.474120
v -0.734378 0.780515 -0.293708
vn 0.612064 -0.257841 -0.747593
f 861/1/216 862/2/216 863/3/216 864/4/216
v -0.943452 0.807353 -0.474120
v -1.151578 0.834191 -0.655612
v -1.153918 0.856586 -0.649645
v -0.945760 0.829748 -0.468141
vn 0.653734 0.257363 -0.711615
f 865/1/217 866/2/217 867/3/217 868/4/217
v -0.945760 0.829748 -0.468141
v -1.153918 0.856586 -0.649645
v -1.163580 0.872980 -0.636211
v -0.955351 0.846142 -0.454656
vn 0.516364 0.703616 -0.488152
f 869/1/218 870/2/218 871/3/218 872/4/218
v -0.955351 0.846142 -0.454656
v -1.163580 0.872980 -0.636211
v -1.177975 0.878981 -0.618908
v -0.969654 0.852142 -0.437278
vn 0.240638 0.961337 -0.133884
f 873/1/219 874/2/219 875/3/219 876/4/219
v -0.969654 0.852142 -0.437278
v -1.177975 0.878981 -0.618908
v -1.193247 0.872980 -0.602375
v -0.984838 0.846142 -0.420663
vn -0.099563 0.961466 0.256262
f 877/1/220 878/2/220 879/3/220 880/4/220
v -0.984838 0.846142 -0.420663
v -1.193247 0.872980 -0.602375
v -1.205303 0.856586 -0.591039
v -0.996833 0.829748 -0.409264
vn -0.413081 0.703970 0.577746
f 881/1/221 882/2/221 883/3/221 884/4/221
v -0.996833 0.829748 -0.409264
v -1.205303 0.856586 -0.591039
v -1.210912 0.834191 -0.587940
v -1.002427 0.807353 -0.406135
vn -0.615910 0.257846 0.744426
f 885/1/222 886/2/222 887/3/222 888/4/222
v -1.002427 0.807353 -0.406135
v -1.210912 0.834191 -0.587940
v -1.208573 0.811797 -0.593907
v -1.000119 0.784958 -0.412114
vn -0.653702 -0.257367 0.711643
f 889/1/223 890/2/223 891/3/223 892/4/223
v -1.000119 0.784958 -0.412114
v -1.208573 0.811797 -0.593907
v -1.198911 0.795402 -0.607341
v -0.990528 0.768564 -0.425599
vn -0.516332 -0.703620 0.488180
f 893/1/224 894/2/224 895/3/224 896/4/224
v -0.990528 0.768564 -0.425599
v -1.198911 0.795402 -0.607341
v -1.184516 0.789402 -0.624643
v -0.976225 0.762564 -0.442978
vn -0.240606 -0.961341 0.133912
f 897/1/225 898/2/225 899/3/225 900/4/225
v -0.976225 0.762564 -0.442978
v -1.184516 0.789402 -0.624643
v -1.169244 0.795402 -0.641177
v -0.961041 0.768564 -0.459592
vn 0.099595 -0.961470 -0.256234
f 901/1/226 902/2/226 903/3/226 904/4/226
v -0.961041 0.768564 -0.459592
v -1.169244 0.795402 -0.641177
v -1.157188 0.811797 -0.652512
v -0.949045 0.784958 -0.470991
vn 0.413113 -0.703974 -0.577718
f 905/1/227 906/2/227 907/3/227 908/4/227
v -0.949045 0.784958 -0.470991
v -1.157188 0.811797 -0.652512
v -1.151578 0.834191 -0.655612
v -0.943452 0.807353 -0.474120
vn 0.615942 -0.257850 -0.744398
f 909/1/228 910/2/228 911/3/228 912/4/228
v -1.151578 0.834191 -0.655612
v -1.358687 0.861029 -0.838195
v -1.361064 0.883424 -0.832243
v -1.153918 0.856586 -0.649645
vn 0.657573 0.257353 -0.708073
f 913/1/229 914/2/229 915/3/229 916/4/229
v -1.153918 0.856586 -0.649645
v -1.361064 0.883424 -0.832243
v -1.370810 0.899818 -0.818870
v -1.163580 0.872980 -0.636211
vn 0.519001 0.703609 -0.485358
f 917/1/230 918/2/230 919/3/230 920/4/230
v -1.163580 0.872980 -0.636211
v -1.370810 0.899818 -0.818870
v -1.385315 0.905819 -0.801659
v -1.177975 0.878981 -0.618908
vn 0.241367 0.961334 -0.132587
f 921/1/231 922/2/231 923/3/231 924/4/231
v -1.177975 0.878981 -0.618908
v -1.385315 0.905819 -0.801659
v -1.400690 0.899818 -0.785222
v -1.193247 0.872980 -0.602375
vn -0.100936 0.961468 0.255716
f 925/1/232 926/2/232 927/3/232 928/4/232
v -1.193247 0.872980 -0.602375
v -1.400690 0.899818 -0.785222
v -1.412818 0.883424 -0.773963
v -1.205303 0.856586 -0.591039
vn -0.416189 0.703976 0.575503
f 929/1/233 930/2/233 931/3/233 932/4/233
v -1.205303 0.856586 -0.591039
v -1.412818 0.883424 -0.773963
v -1.418447 0.861029 -0.770899
v -1.210912 0.834191 -0.587940
vn -0.619918 0.257855 0.741089
f 933/1/234 934/2/234 935/3/234 936/4/234
v -1.210912 0.834191 -0.587940
v -1.418447 0.861029 -0.770899
v -1.416070 0.838635 -0.776851
v -1.208573 0.811797 -0.593907
vn -0.657536 -0.257358 0.708106
f 937/1/235 938/2/235 939/3/235 940/4/235
v -1.208573 0.811797 -0.593907
v -1.416070 0.838635 -0.776851
v -1.406323 0.822241 -0.790224
v -1.198911 0.795402 -0.607341
vn -0.518963 -0.703614 0.485391
f 941/1/236 942/2/236 943/3/236 944/4/236
v -1.198911 0.795402 -0.607341
v -1.406323 0.822241 -0.790224
v -1.391819 0.816240 -0.807435
v -1.184516 0.789402 -0.624643
vn -0.241329 -0.961339 0.132620
f 945/1/237 946/2/237 947/3/237 948/4/237
v -1.184516 0.789402 -0.624643
v -1.391819 0.816240 -0.807435
v -1.376443 0.822241 -0.823872
v -1.169244 0.795402 -0.641177
vn 0.100975 -0.961473 -0.255682
f 949/1/238 950/2/238 951/3/238 952/4/238
v -1.169244 0.795402 -0.641177
v -1.376443 0.822241 -0.823872
v -1.364316 0.838635 -0.835131
v -1.157188 0.811797 -0.652512
vn 0.416227 -0.703981 -0.575470
f 953/1/239 954/2/239 955/3/239 956/4/239
v -1.157188 0.811797 -0.652512
v -1.364316 0.838635 -0.835131
v -1.358687 0.861029 -0.838195
v -1.151578 0.834191 -0.655612
vn 0.619955 -0.257860 -0.741056
f 957/1/240 958/2/240 959/3/240 960/4/240
v -1.358687 0.861029 -0.838195
v -1.564445 0.887868 -1.022245
v -1.566865 0.910262 -1.016310
v -1.361064 0.883424 -0.832243
vn 0.662679 0.257268 -0.703328
f 961/1/241 962/2/241 963/3/241 964/4/241
v -1.361064 0.883424 -0.832243
v -1.566865 0.910262 -1.016310
v -1.576706 0.926656 -1.003006
v -1.370810 0.899818 -0.818870
vn 0.522531 0.703546 -0.481648
f 965/1/242 966/2/242 967/3/242 968/4/242
v -1.370810 0.899818 -0.818870
v -1.576706 0.926656 -1.003006
v -1.591332 0.932657 -0.985899
v -1.385315 0.905819 -0.801659
vn 0.242376 0.961311 -0.130904
f 969/1/243 970/2/243 971/3/243 972/4/243
v -1.385315 0.905819 -0.801659
v -1.591332 0.932657 -0.985899
v -1.606824 0.926656 -0.969571
v -1.400690 0.899818 -0.785222
vn -0.102719 0.961490 0.254922
f 973/1/244 974/2/244 975/3/244 976/4/244
v -1.400690 0.899818 -0.785222
v -1.606824 0.926656 -0.969571
v -1.619031 0.910262 -0.958398
v -1.412818 0.883424 -0.773963
vn -0.420284 0.704037 0.572445
f 977/1/245 978/2/245 979/3/245 980/4/245
v -1.412818 0.883424 -0.773963
v -1.619031 0.910262 -0.958398
v -1.624681 0.887868 -0.955375
v -1.418447 0.861029 -0.770899
vn -0.625227 0.257938 0.736586
f 981/1/246 982/2/246 983/3/246 984/4/246
v -1.418447 0.861029 -0.770899
v -1.624681 0.887868 -0.955375
v -1.622262 0.865473 -0.961309
v -1.416070 0.838635 -0.776851
vn -0.662636 -0.257273 0.703366
f 985/1/247 986/2/247 987/3/247 988/4/247
v -1.416070 0.838635 -0.776851
v -1.622262 0.865473 -0.961309
v -1.612421 0.849079 -0.974613
v -1.406323 0.822241 -0.790224
vn -0.522488 -0.703551 0.481686
f 989/1/248 990/2/248 991/3/248 992/4/248
v -1.406323 0.822241 -0.790224
v -1.612421 0.849079 -0.974613
v -1.597795 0.843078 -0.991720
v -1.391819 0.816240 -0.807435
vn -0.242333 -0.961316 0.130942
f 993/1/249 994/2/249 995/3/249 996/4/249
v -1.391819 0.816240 -0.807435
v -1.597795 0.843078 -0.991720
v -1.582303 0.849079 -1.008048
v -1.376443 0.822241 -0.823872
vn 0.102762 -0.961496 -0.254884
f 997/1/250 998/2/250 999/3/250 1000/4/250
v -1.376443 0.822241 -0.823872
v -1.582303 0.849079 -1.008048
v -1.570096 0.865473 -1.019221
v -1.364316 0.838635 -0.835131
vn 0.420327 -0.704042 -0.572407
f 1001/1/251 1002/2/251 1003/3/251 1004/4/251
v -1.364316 0.838635 -0.835131
v -1.570096 0.865473 -1.019221
v -1.564445 0.887868 -1.022245
v -1.358687 0.861029 -0.838195
vn 0.625270 -0.257944 -0.736548
f 1005/1/252 1006/2/252 1007/3/252 1008/4/252
v -1.564445 0.887868 -1.022245
v -1.768878 0.914706 -1.207692
v -1.771346 0.937101 -1.201778
v -1.566865 0.910262 -1.016310
vn 0.667572 0.257279 -0.698681
f 1009/1/253 1010/2/253 1011/3/253 1012/4/253
v -1.566865 0.910262 -1.016310
v -1.771346 0.937101 -1.201778
v -1.781296 0.953495 -1.188555
v -1.576706 0.926656 -1.003006
vn 0.525877 0.703554 -0.477981
f 1013/1/254 1014/2/254 1015/3/254 1016/4/254
v -1.576706 0.926656 -1.003006
v -1.781296 0.953495 -1.188555
v -1.796061 0.959495 -1.171568
v -1.591332 0.932657 -0.985899
vn 0.243279 0.961313 -0.129198
f 1017/1/255 1018/2/255 1019/3/255 1020/4/255
v -1.591332 0.932657 -0.985899
v -1.796061 0.959495 -1.171568
v -1.811687 0.953495 -1.155368
v -1.606824 0.926656 -0.969571
vn -0.104500 0.961487 0.254210
f 1021/1/256 1022/2/256 1023/3/256 1024/4/256
v -1.606824 0.926656 -0.969571
v -1.811687 0.953495 -1.155368
v -1.823984 0.937101 -1.144295
v -1.619031 0.910262 -0.958398
vn -0.424272 0.704028 0.569506
f 1025/1/257 1026/2/257 1027/3/257 1028/4/257
v -1.619031 0.910262 -0.958398
v -1.823984 0.937101 -1.144295
v -1.829660 0.914706 -1.141318
v -1.624681 0.887868 -0.955375
vn -0.630352 0.257927 0.732209
f 1029/1/258 1030/2/258 1031/3/258 1032/4/258
v -1.624681 0.887868 -0.955375
v -1.829660 0.914706 -1.141318
v -1.827192 0.892311 -1.147233
v -1.622262 0.865473 -0.961309
vn -0.667525 -0.257285 0.698724
f 1033/1/259 1034/2/259 1035/3/259 1036/4/259
v -1.622262 0.865473 -0.961309
v -1.827192 0.892311 -1.147233
v -1.817242 0.875917 -1.160455
v -1.612421 0.849079 -0.974613
vn -0.525829 -0.703560 0.478024
f 1037/1/260 1038/2/260 1039/3/260 1040/4/260
v -1.612421 0.849079 -0.974613
v -1.817242 0.875917 -1.160455
v -1.802477 0.869917 -1.177442
v -1.597795 0.843078 -0.991720
vn -0.243230 -0.961320 0.129242
f 1041/1/261 1042/2/261 1043/3/261 1044/4/261
v -1.597795 0.843078 -0.991720
v -1.802477 0.869917 -1.177442
v -1.786852 0.875917 -1.193643
v -1.582303 0.849079 -1.008048
vn 0.104549 -0.961493 -0.254165
f 1045/1/262 1046/2/262 1047/3/262 1048/4/262
v -1.582303 0.849079 -1.008048
v -1.786852 0.875917 -1.193643
v -1.774554 0.892311 -1.204715
v -1.570096 0.865473 -1.019221
vn 0.424320 -0.704035 -0.569463
f 1049/1/263 1050/2/263 1051/3/263 1052/4/263
v -1.570096 0.865473 -1.019221
v -1.774554 0.892311 -1.204715
v -1.768878 0.914706 -1.207692
v -1.564445 0.887868 -1.022245
vn 0.630400 -0.257933 -0.732166
f 1053/1/264 1054/2/264 1055/3/264 1056/4/264
v -1.768878 0.914706 -1.207692
v -1.971511 0.941544 -1.395008
v -1.974036 0.963939 -1.389117
v -1.771346 0.937101 -1.201778
vn 0.674125 0.257164 -0.692403
f 1057/1/265 1058/2/265 1059/3/265 1060/4/265
v -1.771346 0.937101 -1.201778
v -1.974036 0.963939 -1.389117
v -1.984112 0.980333 -1.375991
v -1.781296 0.953495 -1.188555
vn 0.530401 0.703469 -0.473081
f 1061/1/266 1062/2/266 1063/3/266 1064/4/266
v -1.781296 0.953495 -1.188555
v -1.984112 0.980333 -1.375991
v -1.999041 0.986333 -1.359147
v -1.796061 0.959495 -1.171568
vn 0.244562 0.961282 -0.126988
f 1065/1/267 1066/2/267 1067/3/267 1068/4/267
v -1.796061 0.959495 -1.171568
v -1.999041 0.986333 -1.359147
v -2.014822 0.980333 -1.343099
v -1.811687 0.953495 -1.155368
vn -0.106802 0.961516 0.253141
f 1069/1/268 1070/2/268 1071/3/268 1072/4/268
v -1.811687 0.953495 -1.155368
v -2.014822 0.980333 -1.343099
v -2.027226 0.963939 -1.332146
v -1.823984 0.937101 -1.144295
vn -0.429539 0.704108 0.565445
f 1073/1/269 1074/2/269 1075/3/269 1076/4/269
v -1.823984 0.937101 -1.144295
v -2.027226 0.963939 -1.332146
v -2.032930 0.941544 -1.329223
v -1.829660 0.914706 -1.141318
vn -0.637171 0.258038 0.726244
f 1077/1/270 1078/2/270 1079/3/270 1080/4/270
v -1.829660 0.914706 -1.141318
v -2.032930 0.941544 -1.329223
v -2.030405 0.919149 -1.335114
v -1.827192 0.892311 -1.147233
vn -0.674068 -0.257172 0.692456
f 1081/1/271 1082/2/271 1083/3/271 1084/4/271
v -1.827192 0.892311 -1.147233
v -2.030405 0.919149 -1.335114
v -2.020329 0.902755 -1.348240
v -1.817242 0.875917 -1.160455
vn -0.530344 -0.703477 0.473134
f 1085/1/272 1086/2/272 1087/3/272 1088/4/272
v -1.817242 0.875917 -1.160455
v -2.020329 0.902755 -1.348240
v -2.005400 0.896755 -1.365084
v -1.802477 0.869917 -1.177442
vn -0.244505 -0.961290 0.127041
f 1089/1/273 1090/2/273 1091/3/273 1092/4/273
v -1.802477 0.869917 -1.177442
v -2.005400 0.896755 -1.365084
v -1.989619 0.902755 -1.381132
v -1.786852 0.875917 -1.193643
vn 0.106859 -0.961524 -0.253088
f 1093/1/274 1094/2/274 1095/3/274 1096/4/274
v -1.786852 0.875917 -1.193643
v -1.989619 0.902755 -1.381132
v -1.977215 0.919149 -1.392085
v -1.774554 0.892311 -1.204715
vn 0.429596 -0.704116 -0.565392
f 1097/1/275 1098/2/275 1099/3/275 1100/4/275
v -1.774554 0.892311 -1.204715
v -1.977215 0.919149 -1.392085
v -1.971511 0.941544 -1.395008
v -1.768878 0.914706 -1.207692
vn 0.637228 -0.258045 -0.726191
f 1101/1/276 1102/2/276 1103/3/276 1104/4/276
v -1.971511 0.941544 -1.395008
v -2.172229 0.968382 -1.584276
v -2.174820 0.990777 -1.578413
v -1.974036 0.963939 -1.389117
vn 0.680958 0.257140 -0.685694
f 1105/1/277 1106/2/277 1107/3/277 1108/4/277
v -1.974036 0.963939 -1.389117
v -2.174820 0.990777 -1.578413
v -2.185042 1.007171 -1.565400
v -1.984112 0.980333 -1.375991
vn 0.535077 0.703451 -0.467814
f 1109/1/278 1110/2/278 1111/3/278 1112/4/278
v -1.984112 0.980333 -1.375991
v -2.185042 1.007171 -1.565400
v -2.200157 1.013172 -1.548723
v -1.999041 0.986333 -1.359147
vn 0.245829 0.961275 -0.124573
f 1113/1/279 1114/2/279 1115/3/279 1116/4/279
v -1.999041 0.986333 -1.359147
v -2.200157 1.013172 -1.548723
v -2.216115 1.007171 -1.532851
v -2.014822 0.980333 -1.343099
vn -0.109283 0.961522 0.252058
f 1117/1/280 1118/2/280 1119/3/280 1120/4/280
v -2.014822 0.980333 -1.343099
v -2.216115 1.007171 -1.532851
v -2.228640 0.990777 -1.522037
v -2.027226 0.963939 -1.332146
vn -0.435102 0.704125 0.561155
f 1121/1/281 1122/2/281 1123/3/281 1124/4/281
v -2.027226 0.963939 -1.332146
v -2.228640 0.990777 -1.522037
v -2.234376 0.968382 -1.519177
v -2.032930 0.941544 -1.329223
vn -0.644324 0.258060 0.719896
f 1125/1/282 1126/2/282 1127/3/282 1128/4/282
v -2.032930 0.941544 -1.329223
v -2.234376 0.968382 -1.519177
v -2.231786 0.945988 -1.525040
v -2.030405 0.919149 -1.335114
vn -0.680894 -0.257148 0.685754
f 1129/1/283 1130/2/283 1131/3/283 1132/4/283
v -2.030405 0.919149 -1.335114
v -2.231786 0.945988 -1.525040
v -2.221564 0.929594 -1.538053
v -2.020329 0.902755 -1.348240
vn -0.535012 -0.703459 0.467875
f 1133/1/284 1134/2/284 1135/3/284 1136/4/284
v -2.020329 0.902755 -1.348240
v -2.221564 0.929594 -1.538053
v -2.206449 0.923593 -1.554730
v -2.005400 0.896755 -1.365084
vn -0.245764 -0.961284 0.124634
f 1137/1/285 1138/2/285 1139/3/285 1140/4/285
v -2.005400 0.896755 -1.365084
v -2.206449 0.923593 -1.554730
v -2.190491 0.929594 -1.570602
v -1.989619 0.902755 -1.381132
vn 0.109348 -0.961530 -0.251997
f 1141/1/286 1142/2/286 1143/3/286 1144/4/286
v -1.989619 0.902755 -1.381132
v -2.190491 0.929594 -1.570602
v -2.177966 0.945988 -1.581417
v -1.977215 0.919149 -1.392085
vn 0.435167 -0.704133 -0.561094
f 1145/1/287 1146/2/287 1147/3/287 1148/4/287
v -1.977215 0.919149 -1.392085
v -2.177966 0.945988 -1.581417
v -2.172229 0.968382 -1.584276
v -1.971511 0.941544 -1.395008
vn 0.644388 -0.258069 -0.719836
f 1149/1/288 1150/2/288 1151/3/288 1152/4/288
v -2.172229 0.968382 -1.584276
v -2.370509 0.995221 -1.775913
v -2.373181 1.017615 -1.770088
v -2.174820 0.990777 -1.578413
vn 0.689376 0.257025 -0.677273
f 1153/1/289 1154/2/289 1155/3/289 1156/4/289
v -2.174820 0.990777 -1.578413
v -2.373181 1.017615 -1.770088
v -2.383583 1.034009 -1.757219
v -2.185042 1.007171 -1.565400
vn 0.540861 0.703365 -0.461245
f 1157/1/290 1158/2/290 1159/3/290 1160/4/290
v -2.185042 1.007171 -1.565400
v -2.383583 1.034009 -1.757219
v -2.398930 1.040010 -1.740754
v -2.200157 1.013172 -1.548723
vn 0.247431 0.961243 -0.121611
f 1161/1/291 1162/2/291 1163/3/291 1164/4/291
v -2.200157 1.013172 -1.548723
v -2.398930 1.040010 -1.740754
v -2.415108 1.034009 -1.725106
v -2.216115 1.007171 -1.532851
vn -0.112293 0.961550 0.250622
f 1165/1/292 1166/2/292 1167/3/292 1168/4/292
v -2.216115 1.007171 -1.532851
v -2.415108 1.034009 -1.725106
v -2.427783 1.017615 -1.714467
v -2.228640 0.990777 -1.522037
vn -0.441914 0.704203 0.555706
f 1169/1/293 1170/2/293 1171/3/293 1172/4/293
v -2.228640 0.990777 -1.522037
v -2.427783 1.017615 -1.714467
v -2.433558 0.995221 -1.711689
v -2.234376 0.968382 -1.519177
vn -0.653110 0.258170 0.711896
f 1173/1/294 1174/2/294 1175/3/294 1176/4/294
v -2.234376 0.968382 -1.519177
v -2.433558 0.995221 -1.711689
v -2.430886 0.972826 -1.717514
v -2.231786 0.945988 -1.525040
vn -0.689298 -0.257036 0.677349
f 1177/1/295 1178/2/295 1179/3/295 1180/4/295
v -2.231786 0.945988 -1.525040
v -2.430886 0.972826 -1.717514
v -2.420484 0.956432 -1.730384
v -2.221564 0.929594 -1.538053
vn -0.540782 -0.703376 0.461321
f 1181/1/296 1182/2/296 1183/3/296 1184/4/296
v -2.221564 0.929594 -1.538053
v -2.420484 0.956432 -1.730384
v -2.405137 0.950431 -1.746848
v -2.206449 0.923593 -1.554730
vn -0.247350 -0.961254 0.121688
f 1185/1/297 1186/2/297 1187/3/297 1188/4/297
v -2.206449 0.923593 -1.554730
v -2.405137 0.950431 -1.746848
v -2.388959 0.956432 -1.762496
v -2.190491 0.929594 -1.570602
vn 0.112374 -0.961561 -0.250544
f 1189/1/298 1190/2/298 1191/3/298 1192/4/298
v -2.190491 0.929594 -1.570602
v -2.388959 0.956432 -1.762496
v -2.376285 0.972826 -1.773135
v -2.177966 0.945988 -1.581417
vn 0.441994 -0.704214 -0.555629
f 1193/1/299 1194/2/299 1195/3/299 1196/4/299
v -2.177966 0.945988 -1.581417
v -2.376285 0.972826 -1.773135
v -2.370509 0.995221 -1.775913
v -2.172229 0.968382 -1.584276
vn 0.653188 -0.258181 -0.711820
f 1197/1/300 1198/2/300 1199/3/300 1200/4/300
v -2.370509 0.995221 -1.775913
v -2.565655 1.022059 -1.970494
v -2.568430 1.044453 -1.964716
v -2.373181 1.017615 -1.770088
vn 0.699874 0.256869 -0.666479
f 1201/1/301 1202/2/301 1203/3/301 1204/4/301
v -2.373181 1.017615 -1.770088
v -2.568430 1.044453 -1.964716
v -2.579060 1.060847 -1.952035
v -2.383583 1.034009 -1.757219
vn 0.548067 0.703248 -0.452840
f 1205/1/302 1206/2/302 1207/3/302 1208/4/302
v -2.383583 1.034009 -1.757219
v -2.579060 1.060847 -1.952035
v -2.594698 1.066848 -1.935847
v -2.398930 1.040010 -1.740754
vn 0.249413 0.961200 -0.117843
f 1209/1/303 1210/2/303 1211/3/303 1212/4/303
v -2.398930 1.040010 -1.740754
v -2.594698 1.066848 -1.935847
v -2.611153 1.060847 -1.920490
v -2.415108 1.034009 -1.725106
vn -0.116065 0.961589 0.248749
f 1213/1/304 1214/2/304 1215/3/304 1216/4/304
v -2.415108 1.034009 -1.725106
v -2.611153 1.060847 -1.920490
v -2.624015 1.044453 -1.910079
v -2.427783 1.017615 -1.714467
vn -0.450425 0.704309 0.548695
f 1217/1/305 1218/2/305 1219/3/305 1220/4/305
v -2.427783 1.017615 -1.714467
v -2.624015 1.044453 -1.910079
v -2.629839 1.022059 -1.907403
v -2.433558 0.995221 -1.711689
vn -0.664075 0.258317 0.701625
f 1221/1/306 1222/2/306 1223/3/306 1224/4/306
v -2.433558 0.995221 -1.711689
v -2.629839 1.022059 -1.907403
v -2.627064 0.999664 -1.913181
v -2.430886 0.972826 -1.717514
vn -0.699777 -0.256883 0.666576
f 1225/1/307 1226/2/307 1227/3/307 1228/4/307
v -2.430886 0.972826 -1.717514
v -2.627064 0.999664 -1.913181
v -2.616434 0.983270 -1.925862
v -2.420484 0.956432 -1.730384
vn -0.547968 -0.703263 0.452938
f 1229/1/308 1230/2/308 1231/3/308 1232/4/308
v -2.420484 0.956432 -1.730384
v -2.616434 0.983270 -1.925862
v -2.600796 0.977270 -1.942050
v -2.405137 0.950431 -1.746848
vn -0.249312 -0.961214 0.117943
f 1233/1/309 1234/2/309 1235/3/309 1236/4/309
v -2.405137 0.950431 -1.746848
v -2.600796 0.977270 -1.942050
v -2.584342 0.983270 -1.957407
v -2.388959 0.956432 -1.762496
vn 0.116167 -0.961602 -0.248649
f 1237/1/310 1238/2/310 1239/3/310 1240/4/310
v -2.388959 0.956432 -1.762496
v -2.584342 0.983270 -1.957407
v -2.571479 0.999664 -1.967818
v -2.376285 0.972826 -1.773135
vn 0.450526 -0.704322 -0.548595
f 1241/1/311 1242/2/311 1243/3/311 1244/4/311
v -2.376285 0.972826 -1.773135
v -2.571479 0.999664 -1.967818
v -2.565655 1.022059 -1.970494
v -2.370509 0.995221 -1.775913
vn 0.664172 -0.258331 -0.701527
f 1245/1/312 1246/2/312 1247/3/312 1248/4/312
v -2.565655 1.022059 -1.970494
v -2.756681 1.048897 -2.168775
v -2.759590 1.071292 -2.163064
v -2.568430 1.044453 -1.964716
vn 0.713160 0.256653 -0.652328
f 1249/1/313 1250/2/313 1251/3/313 1252/4/313
v -2.568430 1.044453 -1.964716
v -2.759590 1.071292 -2.163064
v -2.770513 1.087686 -2.150633
v -2.579060 1.060847 -1.952035
vn 0.557172 0.703086 -0.441849
f 1253/1/314 1254/2/314 1255/3/314 1256/4/314
v -2.579060 1.060847 -1.952035
v -2.770513 1.087686 -2.150633
v -2.786523 1.093686 -2.134813
v -2.594698 1.066848 -1.935847
vn 0.251897 0.961141 -0.112947
f 1257/1/315 1258/2/315 1259/3/315 1260/4/315
v -2.594698 1.066848 -1.935847
v -2.786523 1.093686 -2.134813
v -2.803331 1.087686 -2.119843
v -2.611153 1.060847 -1.920490
vn -0.120870 0.961641 0.246246
f 1261/1/316 1262/2/316 1263/3/316 1264/4/316
v -2.611153 1.060847 -1.920490
v -2.803331 1.087686 -2.119843
v -2.816432 1.071292 -2.109735
v -2.624015 1.044453 -1.910079
vn -0.461224 0.704453 0.539461
f 1265/1/317 1266/2/317 1267/3/317 1268/4/317
v -2.624015 1.044453 -1.910079
v -2.816432 1.071292 -2.109735
v -2.822317 1.048897 -2.107196
v -2.629839 1.022059 -1.907403
vn -0.677966 0.258520 0.688135
f 1269/1/318 1270/2/318 1271/3/318 1272/4/318
v -2.629839 1.022059 -1.907403
v -2.822317 1.048897 -2.107196
v -2.819408 1.026502 -2.112907
v -2.627064 0.999664 -1.913181
vn -0.713038 -0.256671 0.652454
f 1273/1/319 1274/2/319 1275/3/319 1276/4/319
v -2.627064 0.999664 -1.913181
v -2.819408 1.026502 -2.112907
v -2.808486 1.010108 -2.125338
v -2.616434 0.983270 -1.925862
vn -0.557046 -0.703104 0.441977
f 1277/1/320 1278/2/320 1279/3/320 1280/4/320
v -2.616434 0.983270 -1.925862
v -2.808486 1.010108 -2.125338
v -2.792475 1.004108 -2.141158
v -2.600796 0.977270 -1.942050
vn -0.251767 -0.961159 0.113079
f 1281/1/321 1282/2/321 1283/3/321 1284/4/321
v -2.600796 0.977270 -1.942050
v -2.792475 1.004108 -2.141158
v -2.775668 1.010108 -2.156127
v -2.584342 0.983270 -1.957407
vn 0.121001 -0.961659 -0.246112
f 1285/1/322 1286/2/322 1287/3/322 1288/4/322
v -2.584342 0.983270 -1.957407
v -2.775668 1.010108 -2.156127
v -2.762566 1.026502 -2.166236
v -2.571479 0.999664 -1.967818
vn 0.461352 -0.704470 -0.539330
f 1289/1/323 1290/2/323 1291/3/323 1292/4/323
v -2.571479 0.999664 -1.967818
v -2.762566 1.026502 -2.166236
v -2.756681 1.048897 -2.168775
v -2.565655 1.022059 -1.970494
vn 0.678089 -0.258537 -0.688008
f 1293/1/324 1294/2/324 1295/3/324 1296/4/324
v -2.756681 1.048897 -2.168775
v -2.942126 1.075735 -2.371748
v -2.945215 1.098130 -2.366132
v -2.759590 1.071292 -2.163064
vn 0.730237 0.256345 -0.633279
f 1297/1/325 1298/2/325 1299/3/325 1300/4/325
v -2.759590 1.071292 -2.163064
v -2.945215 1.098130 -2.366132
v -2.956529 1.114524 -2.354057
v -2.770513 1.087686 -2.150633
vn 0.568849 0.702852 -0.427094
f 1301/1/326 1302/2/326 1303/3/326 1304/4/326
v -2.770513 1.087686 -2.150633
v -2.956529 1.114524 -2.354057
v -2.973037 1.120525 -2.338757
v -2.786523 1.093686 -2.134813
vn 0.255044 0.961055 -0.106426
f 1305/1/327 1306/2/327 1307/3/327 1308/4/327
v -2.786523 1.093686 -2.134813
v -2.973037 1.120525 -2.338757
v -2.990314 1.114524 -2.324332
v -2.803331 1.087686 -2.119843
vn -0.127101 0.961715 0.242797
f 1309/1/328 1310/2/328 1311/3/328 1312/4/328
v -2.803331 1.087686 -2.119843
v -2.990314 1.114524 -2.324332
v -3.003732 1.098130 -2.314647
v -2.816432 1.071292 -2.109735
vn -0.475155 0.704654 0.526963
f 1313/1/329 1314/2/329 1315/3/329 1316/4/329
v -2.816432 1.071292 -2.109735
v -3.003732 1.098130 -2.314647
v -3.009695 1.075735 -2.312298
v -2.822317 1.048897 -2.107196
vn -0.695848 0.258805 0.669937
f 1317/1/330 1318/2/330 1319/3/330 1320/4/330
v -2.822317 1.048897 -2.107196
v -3.009695 1.075735 -2.312298
v -3.006606 1.053341 -2.317913
v -2.819408 1.026502 -2.112907
vn -0.730082 -0.256368 0.633448
f 1321/1/331 1322/2/331 1323/3/331 1324/4/331
v -2.819408 1.026502 -2.112907
v -3.006606 1.053341 -2.317913
v -2.995292 1.036947 -2.329989
v -2.808486 1.010108 -2.125338
vn -0.568687 -0.702877 0.427270
f 1325/1/332 1326/2/332 1327/3/332 1328/4/332
v -2.808486 1.010108 -2.125338
v -2.995292 1.036947 -2.329989
v -2.978784 1.030946 -2.345289
v -2.792475 1.004108 -2.141158
vn -0.254872 -0.961080 0.106610
f 1329/1/333 1330/2/333 1331/3/333 1332/4/333
v -2.792475 1.004108 -2.141158
v -2.978784 1.030946 -2.345289
v -2.961507 1.036947 -2.359714
v -2.775668 1.010108 -2.156127
vn 0.127277 -0.961739 -0.242610
f 1333/1/334 1334/2/334 1335/3/334 1336/4/334
v -2.775668 1.010108 -2.156127
v -2.961507 1.036947 -2.359714
v -2.948089 1.053341 -2.369398
v -2.762566 1.026502 -2.166236
vn 0.475322 -0.704677 -0.526782
f 1337/1/335 1338/2/335 1339/3/335 1340/4/335
v -2.762566 1.026502 -2.166236
v -2.948089 1.053341 -2.369398
v -2.942126 1.075735 -2.371748
v -2.756681 1.048897 -2.168775
vn 0.696005 -0.258827 -0.669765
f 1341/1/336 1342/2/336 1343/3/336 1344/4/336
v -2.942126 1.075735 -2.371748
v -3.119325 1.102574 -2.580898
v -3.122689 1.124968 -2.575441
v -2.945215 1.098130 -2.366132
vn 0.753534 0.255809 -0.605597
f 1345/1/337 1346/2/337 1347/3/337 1348/4/337
v -2.945215 1.098130 -2.366132
v -3.122689 1.124968 -2.575441
v -3.134587 1.141362 -2.563940
v -2.956529 1.114524 -2.354057
vn 0.584759 0.702441 -0.405750
f 1349/1/338 1350/2/338 1351/3/338 1352/4/338
v -2.956529 1.114524 -2.354057
v -3.134587 1.141362 -2.563940
v -3.151832 1.147363 -2.549477
v -2.973037 1.120525 -2.338757
vn 0.259296 0.960904 -0.097105
f 1353/1/339 1354/2/339 1355/3/339 1356/4/339
v -2.973037 1.120525 -2.338757
v -3.151832 1.147363 -2.549477
v -3.169803 1.141362 -2.535925
v -2.990314 1.114524 -2.324332
vn -0.135668 0.961838 0.237617
f 1357/1/340 1358/2/340 1359/3/340 1360/4/340
v -2.990314 1.114524 -2.324332
v -3.169803 1.141362 -2.535925
v -3.183684 1.124968 -2.526918
v -3.003732 1.098130 -2.314647
vn -0.494224 0.704991 0.508654
f 1361/1/341 1362/2/341 1363/3/341 1364/4/341
v -3.003732 1.098130 -2.314647
v -3.183684 1.124968 -2.526918
v -3.189757 1.102574 -2.524867
v -3.009695 1.075735 -2.312298
vn -0.720282 0.259291 0.643399
f 1365/1/342 1366/2/342 1367/3/342 1368/4/342
v -3.009695 1.075735 -2.312298
v -3.189757 1.102574 -2.524867
v -3.186394 1.080179 -2.530324
v -3.006606 1.053341 -2.317913
vn -0.753338 -0.255840 0.605829
f 1369/1/343 1370/2/343 1371/3/343 1372/4/343
v -3.006606 1.053341 -2.317913
v -3.186394 1.080179 -2.530324
v -3.174496 1.063785 -2.541825
v -2.995292 1.036947 -2.329989
vn -0.584539 -0.702477 0.406005
f 1373/1/344 1374/2/344 1375/3/344 1376/4/344
v -2.995292 1.036947 -2.329989
v -3.174496 1.063785 -2.541825
v -3.157251 1.057784 -2.556288
v -2.978784 1.030946 -2.345289
vn -0.259043 -0.960943 0.097393
f 1377/1/345 1378/2/345 1379/3/345 1380/4/345
v -2.978784 1.030946 -2.345289
v -3.157251 1.057784 -2.556288
v -3.139280 1.063785 -2.569840
v -2.961507 1.036947 -2.359714
vn 0.135930 -0.961875 -0.237319
f 1381/1/346 1382/2/346 1383/3/346 1384/4/346
v -2.961507 1.036947 -2.359714
v -3.139280 1.063785 -2.569840
v -3.125398 1.080179 -2.578847
v -2.948089 1.053341 -2.369398
vn 0.494462 -0.705023 -0.508379
f 1385/1/347 1386/2/347 1387/3/347 1388/4/347
v -2.948089 1.053341 -2.369398
v -3.125398 1.080179 -2.578847
v -3.119325 1.102574 -2.580898
v -2.942126 1.075735 -2.371748
vn 0.720487 -0.259320 -0.643158
f 1389/1/348 1390/2/348 1391/3/348 1392/4/348
v -3.119325 1.102574 -2.580898
v -3.282159 1.129412 -2.798959
v -3.286008 1.151806 -2.793831
v -3.122689 1.124968 -2.575441
vn 0.789610 0.254610 -0.558293
f 1393/1/349 1394/2/349 1395/3/349 1396/4/349
v -3.122689 1.124968 -2.575441
v -3.286008 1.151806 -2.793831
v -3.298913 1.168199 -2.783472
v -3.134587 1.141362 -2.563940
vn 0.609389 0.701501 -0.369515
f 1397/1/350 1398/2/350 1399/3/350 1400/4/350
v -3.134587 1.141362 -2.563940
v -3.298913 1.168199 -2.783472
v -3.317416 1.174200 -2.770657
v -3.151832 1.147363 -2.549477
vn 0.265835 0.960562 -0.081558
f 1401/1/351 1402/2/351 1403/3/351 1404/4/351
v -3.151832 1.147363 -2.549477
v -3.317416 1.174200 -2.770657
v -3.336559 1.168199 -2.758819
v -3.169803 1.141362 -2.535925
vn -0.149070 0.962102 0.228338
f 1405/1/352 1406/2/352 1407/3/352 1408/4/352
v -3.169803 1.141362 -2.535925
v -3.336559 1.168199 -2.758819
v -3.351213 1.151806 -2.751131
v -3.183684 1.124968 -2.526918
vn -0.523934 0.705701 0.476947
f 1409/1/353 1410/2/353 1411/3/353 1412/4/353
v -3.183684 1.124968 -2.526918
v -3.351213 1.151806 -2.751131
v -3.357451 1.129412 -2.749652
v -3.189757 1.102574 -2.524867
vn -0.758256 0.260343 0.597720
f 1413/1/354 1414/2/354 1415/3/354 1416/4/354
v -3.189757 1.102574 -2.524867
v -3.357451 1.129412 -2.749652
v -3.353602 1.107018 -2.754780
v -3.186394 1.080179 -2.530324
vn -0.789432 -0.254641 0.558530
f 1417/1/355 1418/2/355 1419/3/355 1420/4/355
v -3.186394 1.080179 -2.530324
v -3.353602 1.107018 -2.754780
v -3.340698 1.090624 -2.765139
v -3.174496 1.063785 -2.541825
vn -0.609113 -0.701552 0.369873
f 1421/1/356 1422/2/356 1423/3/356 1424/4/356
v -3.174496 1.063785 -2.541825
v -3.340698 1.090624 -2.765139
v -3.322195 1.084624 -2.777954
v -3.157251 1.057784 -2.556288
vn -0.265418 -0.960633 0.082084
f 1425/1/357 1426/2/357 1427/3/357 1428/4/357
v -3.157251 1.057784 -2.556288
v -3.322195 1.084624 -2.777954
v -3.303051 1.090624 -2.789792
v -3.139280 1.063785 -2.569840
vn 0.149526 -0.962168 -0.227762
f 1429/1/358 1430/2/358 1431/3/358 1432/4/358
v -3.139280 1.063785 -2.569840
v -3.303051 1.090624 -2.789792
v -3.288398 1.107018 -2.797480
v -3.125398 1.080179 -2.578847
vn 0.524287 -0.705748 -0.476490
f 1433/1/359 1434/2/359 1435/3/359 1436/4/359
v -3.125398 1.080179 -2.578847
v -3.288398 1.107018 -2.797480
v -3.282159 1.129412 -2.798959
v -3.119325 1.102574 -2.580898
vn 0.758471 -0.260375 -0.597433
f 1437/1/360 1438/2/360 1439/3/360 1440/4/360
v -3.282159 1.129412 -2.798959
v -3.417453 1.156250 -3.036303
v -3.421611 1.178644 -3.031424
v -3.286008 1.151806 -2.793831
vn 0.852825 0.251372 -0.457713
f 1441/1/361 1442/2/361 1443/3/361 1444/4/361
v -3.286008 1.151806 -2.793831
v -3.421611 1.178644 -3.031424
v -3.435128 1.195038 -3.021878
v -3.298913 1.168199 -2.783472
vn 0.652320 0.698871 -0.293357
f 1445/1/362 1446/2/362 1447/3/362 1448/4/362
v -3.298913 1.168199 -2.783472
v -3.435128 1.195038 -3.021878
v -3.454382 1.201039 -3.010222
v -3.317416 1.174200 -2.770657
vn 0.276596 0.959685 -0.049998
f 1449/1/363 1450/2/363 1451/3/363 1452/4/363
v -3.317416 1.174200 -2.770657
v -3.454382 1.201039 -3.010222
v -3.474215 1.195038 -2.999580
v -3.336559 1.168199 -2.758819
vn -0.173680 0.962767 0.207158
f 1453/1/364 1454/2/364 1455/3/364 1456/4/364
v -3.336559 1.168199 -2.758819
v -3.474215 1.195038 -2.999580
v -3.489312 1.178644 -2.992804
v -3.351213 1.151806 -2.751131
vn -0.576845 0.707283 0.408657
f 1457/1/365 1458/2/365 1459/3/365 1460/4/365
v -3.351213 1.151806 -2.751131
v -3.489312 1.178644 -2.992804
v -3.495628 1.156250 -2.991708
v -3.357451 1.129412 -2.749652
vn -0.824856 0.262827 0.500535
f 1461/1/366 1462/2/366 1463/3/366 1464/4/366
v -3.357451 1.129412 -2.749652
v -3.495628 1.156250 -2.991708
v -3.491470 1.133856 -2.996587
v -3.353602 1.107018 -2.754780
vn -0.852290 -0.251493 0.458642
f 1465/1/367 1466/2/367 1467/3/367 1468/4/367
v -3.353602 1.107018 -2.754780
v -3.491470 1.133856 -2.996587
v -3.477953 1.117462 -3.006134
v -3.340698 1.090624 -2.765139
vn -0.651872 -0.698981 0.294089
f 1469/1/368 1470/2/368 1471/3/368 1472/4/368
v -3.340698 1.090624 -2.765139
v -3.477953 1.117462 -3.006134
v -3.458699 1.111461 -3.017789
v -3.322195 1.084624 -2.777954
vn -0.276286 -0.959749 0.050475
f 1473/1/369 1474/2/369 1475/3/369 1476/4/369
v -3.322195 1.084624 -2.777954
v -3.458699 1.111461 -3.017789
v -3.438866 1.117462 -3.028431
v -3.303051 1.090624 -2.789792
vn 0.173949 -0.962808 -0.206743
f 1477/1/370 1478/2/370 1479/3/370 1480/4/370
v -3.303051 1.090624 -2.789792
v -3.438866 1.117462 -3.028431
v -3.423769 1.133856 -3.035207
v -3.288398 1.107018 -2.797480
vn 0.577215 -0.707330 -0.408053
f 1481/1/371 1482/2/371 1483/3/371 1484/4/371
v -3.288398 1.107018 -2.797480
v -3.423769 1.133856 -3.035207
v -3.417453 1.156250 -3.036303
v -3.282159 1.129412 -2.798959
vn 0.825354 -0.262909 -0.499670
f 1485/1/372 1486/2/372 1487/3/372 1488/4/372
v -3.417453 1.156250 -3.036303
v -3.454382 1.201039 -3.010222
v -3.435128 1.195038 -3.021878
v -3.421611 1.178644 -3.031424
vn -0.493167 0.096798 -0.864533
f 1489/1/373 1490/2/373 1491/3/373 1492/4/373
v -3.417453 1.156250 -3.036303
v -3.489312 1.178644 -2.992804
v -3.474215 1.195038 -2.999580
v -3.454382 1.201039 -3.010222
vn -0.493167 0.096798 -0.864533
f 1493/1/374 1494/2/374 1495/3/374 1496/4/374
v -3.417453 1.156250 -3.036303
v -3.491470 1.133856 -2.996587
v -3.495628 1.156250 -2.991708
v -3.489312 1.178644 -2.992804
vn -0.493167 0.096798 -0.864533
f 1497/1/375 1498/2/375 1499/3/375 1500/4/375
v -3.417453 1.156250 -3.036303
v -3.458699 1.111461 -3.017789
v -3.477953 1.117462 -3.006134
v -3.491470 1.133856 -2.996587
vn -0.493167 0.096798 -0.864533
f 1501/1/376 1502/2/376 1503/3/376 1504/4/376
v -3.417453 1.156250 -3.036303
v -3.423769 1.133856 -3.035207
v -3.438866 1.117462 -3.028431
v -3.458699 1.111461 -3.017789
vn -0.493167 0.096798 -0.864533
f 1505/1/377 1506/2/377 1507/3/377 1508/4/377
v -3.420833 1.155279 -3.017514
v -3.443655 1.156250 -3.074495
v -3.447932 1.173249 -3.072924
v -3.424966 1.172277 -3.015582
vn 0.898197 0.258800 -0.355338
f 1509/1/378 1510/2/378 1511/3/378 1512/4/378
v -3.424966 1.172277 -3.015582
v -3.447932 1.173249 -3.072924
v -3.459701 1.185694 -3.068878
v -3.436452 1.184720 -3.010788
vn 0.660545 0.707029 -0.252569
f 1513/1/379 1514/2/379 1515/3/379 1516/4/379
v -3.436452 1.184720 -3.010788
v -3.459701 1.185694 -3.068878
v -3.475809 1.190249 -3.063441
v -3.452213 1.189275 -3.004416
vn 0.245863 0.965811 -0.082215
f 1517/1/380 1518/2/380 1519/3/380 1520/4/380
v -3.452213 1.189275 -3.004416
v -3.475809 1.190249 -3.063441
v -3.491938 1.185694 -3.058071
v -3.468026 1.184720 -2.998174
vn -0.234837 0.965812 0.109817
f 1521/1/381 1522/2/381 1523/3/381 1524/4/381
v -3.468026 1.184720 -2.998174
v -3.491938 1.185694 -3.058071
v -3.503768 1.173249 -3.054206
v -3.479653 1.172277 -2.993735
vn -0.652746 0.707029 0.272091
f 1525/1/382 1526/2/382 1527/3/382 1528/4/382
v -3.479653 1.172277 -2.993735
v -3.503768 1.173249 -3.054206
v -3.508129 1.156250 -3.052881
v -3.483980 1.155279 -2.992287
vn -0.895781 0.258799 0.361386
f 1529/1/383 1530/2/383 1531/3/383 1532/4/383
v -3.483980 1.155279 -2.992287
v -3.508129 1.156250 -3.052881
v -3.503851 1.139251 -3.054453
v -3.479847 1.138281 -2.994219
vn -0.898724 -0.258778 0.354018
f 1533/1/384 1534/2/384 1535/3/384 1536/4/384
v -3.479847 1.138281 -2.994219
v -3.503851 1.139251 -3.054453
v -3.492082 1.126806 -3.058499
v -3.468361 1.125838 -2.999013
vn -0.660789 -0.707019 0.251956
f 1537/1/385 1538/2/385 1539/3/385 1540/4/385
v -3.468361 1.125838 -2.999013
v -3.492082 1.126806 -3.058499
v -3.475975 1.122251 -3.063936
v -3.452600 1.121283 -3.005384
vn -0.245828 -0.965813 0.082305
f 1541/1/386 1542/2/386 1543/3/386 1544/4/386
v -3.452600 1.121283 -3.005384
v -3.475975 1.122251 -3.063936
v -3.459845 1.126806 -3.069306
v -3.436787 1.125838 -3.011626
vn 0.234870 -0.965813 -0.109733
f 1545/1/387 1546/2/387 1547/3/387 1548/4/387
v -3.436787 1.125838 -3.011626
v -3.459845 1.126806 -3.069306
v -3.448015 1.139251 -3.073171
v -3.425159 1.138281 -3.016066
vn 0.652496 -0.707018 -0.272715
f 1549/1/388 1550/2/388 1551/3/388 1552/4/388
v -3.425159 1.138281 -3.016066
v -3.448015 1.139251 -3.073171
v -3.443655 1.156250 -3.074495
v -3.420833 1.155279 -3.017514
vn 0.895251 -0.258777 -0.362712
f 1553/1/389 1554/2/389 1555/3/389 1556/4/389
v -3.443655 1.156250 -3.074495
v -3.459201 1.156250 -3.131209
v -3.463672 1.173250 -3.130338
v -3.447932 1.173249 -3.072924
vn 0.931756 0.258062 -0.255412
f 1557/1/390 1558/2/390 1559/3/390 1560/4/390
v -3.447932 1.173249 -3.072924
v -3.463672 1.173250 -3.130338
v -3.475888 1.185695 -3.127960
v -3.459701 1.185694 -3.068878
vn 0.682616 0.706412 -0.187130
f 1561/1/391 1562/2/391 1563/3/391 1564/4/391
v -3.459701 1.185694 -3.068878
v -3.475888 1.185695 -3.127960
v -3.492575 1.190250 -3.124711
v -3.475809 1.190249 -3.063441
vn 0.250012 0.965818 -0.068480
f 1565/1/392 1566/2/392 1567/3/392 1568/4/392
v -3.475809 1.190249 -3.063441
v -3.492575 1.190250 -3.124711
v -3.509261 1.185695 -3.121463
v -3.491938 1.185694 -3.058071
vn -0.249973 0.965832 0.068418
f 1569/1/393 1570/2/393 1571/3/393 1572/4/393
v -3.491938 1.185694 -3.058071
v -3.509261 1.185695 -3.121463
v -3.521477 1.173250 -3.119084
v -3.503768 1.173249 -3.054206
vn -0.682484 0.706703 0.186511
f 1573/1/394 1574/2/394 1575/3/394 1576/4/394
v -3.503768 1.173249 -3.054206
v -3.521477 1.173250 -3.119084
v -3.525948 1.156250 -3.118214
v -3.508129 1.156250 -3.052881
vn -0.931835 0.258828 0.254346
f 1577/1/395 1578/2/395 1579/3/395 1580/4/395
v -3.508129 1.156250 -3.052881
v -3.525948 1.156250 -3.118214
v -3.521477 1.139250 -3.119084
v -3.503851 1.139251 -3.054453
vn -0.932087 -0.258035 0.254227
f 1581/1/396 1582/2/396 1583/3/396 1584/4/396
v -3.503851 1.139251 -3.054453
v -3.521477 1.139250 -3.119084
v -3.509261 1.126805 -3.121463
v -3.492082 1.126806 -3.058499
vn -0.682891 -0.706382 0.186238
f 1585/1/397 1586/2/397 1587/3/397 1588/4/397
v -3.492082 1.126806 -3.058499
v -3.509261 1.126805 -3.121463
v -3.492575 1.122250 -3.124711
v -3.475975 1.122251 -3.063936
vn -0.250088 -0.965815 0.068249
f 1589/1/398 1590/2/398 1591/3/398 1592/4/398
v -3.475975 1.122251 -3.063936
v -3.492575 1.122250 -3.124711
v -3.475888 1.126805 -3.127960
v -3.459845 1.126806 -3.069306
vn 0.250021 -0.965830 -0.068273
f 1593/1/399 1594/2/399 1595/3/399 1596/4/399
v -3.459845 1.126806 -3.069306
v -3.475888 1.126805 -3.127960
v -3.463672 1.139250 -3.130338
v -3.448015 1.139251 -3.073171
vn 0.682443 -0.706706 -0.186648
f 1597/1/400 1598/2/400 1599/3/400 1600/4/400
v -3.448015 1.139251 -3.073171
v -3.463672 1.139250 -3.130338
v -3.459201 1.156250 -3.131209
v -3.443655 1.156250 -3.074495
vn 0.931613 -0.258834 -0.255149
f 1601/1/401 1602/2/401 1603/3/401 1604/4/401
v -3.459201 1.156250 -3.131209
v -3.466235 1.156250 -3.191493
v -3.470759 1.173250 -3.190958
v -3.463672 1.173250 -3.130338
vn 0.959603 0.258119 -0.111968
f 1605/1/402 1606/2/402 1607/3/402 1608/4/402
v -3.463672 1.173250 -3.130338
v -3.470759 1.173250 -3.190958
v -3.483118 1.185695 -3.189497
v -3.475888 1.185695 -3.127960
vn 0.703336 0.706086 -0.082221
f 1609/1/403 1610/2/403 1611/3/403 1612/4/403
v -3.475888 1.185695 -3.127960
v -3.483118 1.185695 -3.189497
v -3.500000 1.190250 -3.187500
v -3.492575 1.190250 -3.124711
vn 0.257733 0.965742 -0.030280
f 1613/1/404 1614/2/404 1615/3/404 1616/4/404
v -3.492575 1.190250 -3.124711
v -3.500000 1.190250 -3.187500
v -3.516882 1.185695 -3.185503
v -3.509261 1.185695 -3.121463
vn -0.257696 0.965745 0.030475
f 1617/1/405 1618/2/405 1619/3/405 1620/4/405
v -3.509261 1.185695 -3.121463
v -3.516882 1.185695 -3.185503
v -3.529241 1.173250 -3.184042
v -3.521477 1.173250 -3.119084
vn -0.703110 0.706141 0.083673
f 1621/1/406 1622/2/406 1623/3/406 1624/4/406
v -3.521477 1.173250 -3.119084
v -3.529241 1.173250 -3.184042
v -3.533765 1.156250 -3.183507
v -3.525948 1.156250 -3.118214
vn -0.959271 0.258170 0.114661
f 1625/1/407 1626/2/407 1627/3/407 1628/4/407
v -3.525948 1.156250 -3.118214
v -3.533765 1.156250 -3.183507
v -3.529241 1.139250 -3.184042
v -3.521477 1.139250 -3.119084
vn -0.959249 -0.258173 0.114839
f 1629/1/408 1630/2/408 1631/3/408 1632/4/408
v -3.521477 1.139250 -3.119084
v -3.529241 1.139250 -3.184042
v -3.516882 1.126805 -3.185503
v -3.509261 1.126805 -3.121463
vn -0.703053 -0.706155 0.084035
f 1633/1/409 1634/2/409 1635/3/409 1636/4/409
v -3.509261 1.126805 -3.121463
v -3.516882 1.126805 -3.185503
v -3.500000 1.122250 -3.187500
v -3.492575 1.122250 -3.124711
vn -0.257661 -0.965749 0.030663
f 1637/1/410 1638/2/410 1639/3/410 1640/4/410
v -3.492575 1.122250 -3.124711
v -3.500000 1.122250 -3.187500
v -3.483118 1.126805 -3.189497
v -3.475888 1.126805 -3.127960
vn 0.257696 -0.965745 -0.030475
f 1641/1/411 1642/2/411 1643/3/411 1644/4/411
v -3.475888 1.126805 -3.127960
v -3.483118 1.126805 -3.189497
v -3.470759 1.139250 -3.190958
v -3.463672 1.139250 -3.130338
vn 0.703273 -0.706102 -0.082626
f 1645/1/412 1646/2/412 1647/3/412 1648/4/412
v -3.463672 1.139250 -3.130338
v -3.470759 1.139250 -3.190958
v -3.466235 1.156250 -3.191493
v -3.459201 1.156250 -3.131209
vn 0.959577 -0.258123 -0.112176
f 1649/1/413 1650/2/413 1651/3/413 1652/4/413
v -3.466235 1.156250 -3.191493
v -3.500000 1.190250 -3.187500
v -3.483118 1.185695 -3.189497
v -3.470759 1.173250 -3.190958
vn -0.117442 -0.000000 -0.993080
f 1653/1/414 1654/2/414 1655/3/414 1656/4/414
v -3.466235 1.156250 -3.191493
v -3.529241 1.173250 -3.184042
v -3.516882 1.185695 -3.185503
v -3.500000 1.190250 -3.187500
vn -0.117442 -0.000000 -0.993080
f 1657/1/415 1658/2/415 1659/3/415 1660/4/415
v -3.466235 1.156250 -3.191493
v -3.529241 1.139250 -3.184042
v -3.533765 1.156250 -3.183507
v -3.529241 1.173250 -3.184042
vn -0.117442 0.000000 -0.993080
f 1661/1/416 1662/2/416 1663/3/416 1664/4/416
v -3.466235 1.156250 -3.191493
v -3.500000 1.122250 -3.187500
v -3.516882 1.126805 -3.185503
v -3.529241 1.139250 -3.184042
vn -0.117442 0.000000 -0.993080
f 1665/1/417 1666/2/417 1667/3/417 1668/4/417
v -3.466235 1.156250 -3.191493
v -3.470759 1.139250 -3.190958
v -3.483118 1.126805 -3.189497
v -3.500000 1.122250 -3.187500
vn -0.117442 0.000000 -0.993080
f 1669/1/418 1670/2/418 1671/3/418 1672/4/418
v 0.515238 0.125000 0.874132
v -0.177174 0.680768 0.209190
v -0.176015 0.694231 0.219236
v 0.516397 0.138463 0.884178
vn 0.778221 0.331187 -0.533561
f 1673/1/419 1674/2/419 1675/3/419 1676/4/419
v 0.516397 0.138463 0.884178
v -0.176015 0.694231 0.219236
v -0.184462 0.699808 0.232693
v 0.507950 0.144040 0.897635
vn 0.598934 0.799555 0.044603
f 1677/1/420 1678/2/420 1679/3/420 1680/4/420
v 0.507950 0.144040 0.897635
v -0.184462 0.699808 0.232693
v -0.197566 0.694231 0.241677
v 0.494846 0.138463 0.906619
vn 0.068799 0.799555 0.596639
f 1681/1/421 1682/2/421 1683/3/421 1684/4/421
v 0.494846 0.138463 0.906619
v -0.197566 0.694231 0.241677
v -0.207650 0.680768 0.240926
v 0.484762 0.125000 0.905868
vn -0.501637 0.331187 0.799172
f 1685/1/422 1686/2/422 1687/3/422 1688/4/422
v 0.484762 0.125000 0.905868
v -0.207650 0.680768 0.240926
v -0.208809 0.667305 0.230880
v 0.483603 0.111537 0.895822
vn -0.778221 -0.331187 0.533561
f 1689/1/423 1690/2/423 1691/3/423 1692/4/423
v 0.483603 0.111537 0.895822
v -0.208809 0.667305 0.230880
v -0.200362 0.661729 0.217423
v 0.492050 0.105960 0.882365
vn -0.598934 -0.799555 -0.044603
f 1693/1/424 1694/2/424 1695/3/424 1696/4/424
v 0.492050 0.105960 0.882365
v -0.200362 0.661729 0.217423
v -0.187258 0.667305 0.208439
v 0.505154 0.111537 0.873381
vn -0.068799 -0.799555 -0.596639
f 1697/1/425 1698/2/425 1699/3/425 1700/4/425
v 0.505154 0.111537 0.873381
v -0.187258 0.667305 0.208439
v -0.177174 0.680768 0.209190
v 0.515238 0.125000 0.874132
vn 0.501637 -0.331187 -0.799172
f 1701/1/426 1702/2/426 1703/3/426 1704/4/426
v -0.177174 0.680768 0.209190
v -0.197566 0.694231 0.241677
v -0.184462 0.699808 0.232693
v -0.176015 0.694231 0.219236
vn -0.624210 0.501026 -0.599446
f 1705/1/427 1706/2/427 1707/3/427 1708/4/427
v -0.177174 0.680768 0.209190
v -0.208809 0.667305 0.230880
v -0.207650 0.680768 0.240926
v -0.197566 0.694231 0.241677
vn -0.624210 0.501026 -0.599446
f 1709/1/428 1710/2/428 1711/3/428 1712/4/428
v -0.177174 0.680768 0.209190
v -0.187258 0.667305 0.208439
v -0.200362 0.661729 0.217423
v -0.208809 0.667305 0.230880
vn -0.624210 0.501026 -0.599446
f 1713/1/429 1714/2/429 1715/3/429 1716/4/429
usemtl clamp
v -3.453067 1.184482 -2.910716
v -3.390567 1.184482 -2.910716
v -3.390567 1.278232 -2.910716
v -3.453067 1.278232 -2.910716
vn 0.000000 0.000000 1.000000
f 1717/1/430 1718/2/430 1719/3/430 1720/4/430
v -3.390567 1.184482 -2.973216
v -3.453067 1.184482 -2.973216
v -3.453067 1.278232 -2.973216
v -3.390567 1.278232 -2.973216
vn 0.000000 0.000000 -1.000000
f 1721/1/431 1722/2/431 1723/3/431 1724/4/431
v -3.390567 1.184482 -2.910716
v -3.390567 1.184482 -2.973216
v -3.390567 1.278232 -2.973216
v -3.390567 1.278232 -2.910716
vn 1.000000 -0.000000 0.000000
f 1725/1/432 1726/2/432 1727/3/432 1728/4/432
v -3.453067 1.184482 -2.973216
v -3.453067 1.184482 -2.910716
v -3.453067 1.278232 -2.910716
v -3.453067 1.278232 -2.973216
vn -1.000000 0.000000 0.000000
f 1729/1/433 1730/2/433 1731/3/433 1732/4/433
v -3.453067 1.278232 -2.910716
v -3.390567 1.278232 -2.910716
v -3.390567 1.278232 -2.973216
v -3.453067 1.278232 -2.973216
vn -0.000000 1.000000 0.000000
f 1733/1/434 1734/2/434 1735/3/434 1736/4/434
v -3.453067 1.184482 -2.973216
v -3.390567 1.184482 -2.973216
v -3.390567 1.184482 -2.910716
v -3.453067 1.184482 -2.910716
vn 0.000000 -1.000000 0.000000
f 1737/1/435 1738/2/435 1739/3/435 1740/4/435
usemtl porcelain
v -3.515567 1.278232 -2.848216
v -3.328067 1.278232 -2.848216
v -3.328067 1.465732 -2.848216
v -3.515567 1.465732 -2.848216
vn 0.000000 0.000000 1.000000
f 1741/1/436 1742/2/436 1743/3/436 1744/4/436
v -3.328067 1.278232 -3.035716
v -3.515567 1.278232 -3.035716
v -3.515567 1.465732 -3.035716
v -3.328067 1.465732 -3.035716
vn 0.000000 0.000000 -1.000000
f 1745/1/437 1746/2/437 1747/3/437 1748/4/437
v -3.328067 1.278232 -2.848216
v -3.328067 1.278232 -3.035716
v -3.328067 1.465732 -3.035716
v -3.328067 1.465732 -2.848216
vn 1.000000 -0.000000 0.000000
f 1749/1/438 1750/2/438 1751/3/438 1752/4/438
v -3.515567 1.278232 -3.035716
v -3.515567 1.278232 -2.848216
v -3.515567 1.465732 -2.848216
v -3.515567 1.465732 -3.035716
vn -1.000000 0.000000 0.000000
f 1753/1/439 1754/2/439 1755/3/439 1756/4/439
v -3.515567 1.465732 -2.848216
v -3.328067 1.465732 -2.848216
v -3.328067 1.465732 -3.035716
v -3.515567 1.465732 -3.035716
vn -0.000000 1.000000 0.000000
f 1757/1/440 1758/2/440 1759/3/440 1760/4/440
v -3.515567 1.278232 -3.035716
v -3.328067 1.278232 -3.035716
v -3.328067 1.278232 -2.848216
v -3.515567 1.278232 -2.848216
vn 0.000000 -1.000000 0.000000
f 1761/1/441 1762/2/441 1763/3/441 1764/4/441
usemtl cable
v -3.338673 1.402221 -2.968309
v -3.347913 1.103931 -2.986082
v -3.333204 1.104044 -2.994605
v -3.323957 1.402271 -2.976821
vn 0.499761 -0.066936 0.863573
f 1765/1/442 1766/2/442 1767/3/442 1768/4/442
v -3.323957 1.402271 -2.976821
v -3.333204 1.104044 -2.994605
v -3.333204 1.105537 -3.011540
v -3.323957 1.403282 -2.993791
vn 0.999521 -0.030882 -0.001839
f 1769/1/443 1770/2/443 1771/3/443 1772/4/443
v -3.323957 1.403282 -2.993791
v -3.333204 1.105537 -3.011540
v -3.347913 1.106917 -3.019951
v -3.338673 1.404242 -3.002249
vn 0.499761 0.036066 -0.865412
f 1773/1/444 1774/2/444 1775/3/444 1776/4/444
v -3.338673 1.404242 -3.002249
v -3.347913 1.106917 -3.019951
v -3.362622 1.106803 -3.011428
v -3.353388 1.404192 -2.993737
vn -0.499760 0.066946 -0.863573
f 1777/1/445 1778/2/445 1779/3/445 1780/4/445
v -3.353388 1.404192 -2.993737
v -3.362622 1.106803 -3.011428
v -3.362622 1.105310 -2.994494
v -3.353388 1.403181 -2.976767
vn -0.999520 0.030924 0.001842
f 1781/1/446 1782/2/446 1783/3/446 1784/4/446
v -3.353388 1.403181 -2.976767
v -3.362622 1.105310 -2.994494
v -3.347913 1.103931 -2.986082
v -3.338673 1.402221 -2.968309
vn -0.499759 -0.036010 0.865415
f 1785/1/447 1786/2/447 1787/3/447 1788/4/447
v -3.347913 1.103931 -2.986082
v -3.349447 0.796808 -3.045675
v -3.359056 0.810800 -3.046614
v -3.333204 1.104044 -2.994605
vn 0.495217 -0.167868 0.852397
f 1789/1/448 1790/2/448 1791/3/448 1792/4/448
v -3.333204 1.104044 -2.994605
v -3.359056 0.810800 -3.046614
v -3.374736 0.810800 -3.040048
v -3.333204 1.105537 -3.011540
vn 0.996225 -0.086472 -0.007624
f 1793/1/449 1794/2/449 1795/3/449 1796/4/449
v -3.333204 1.105537 -3.011540
v -3.374736 0.810800 -3.040048
v -3.380808 0.796808 -3.032542
v -3.347913 1.106917 -3.019951
vn 0.497351 0.013820 -0.867439
f 1797/1/450 1798/2/450 1799/3/450 1800/4/450
v -3.347913 1.106917 -3.019951
v -3.380808 0.796808 -3.032542
v -3.371199 0.782815 -3.031602
v -3.362622 1.106803 -3.011428
vn -0.499925 0.088011 -0.861585
f 1801/1/451 1802/2/451 1803/3/451 1804/4/451
v -3.362622 1.106803 -3.011428
v -3.371199 0.782815 -3.031602
v -3.355519 0.782815 -3.038169
v -3.362622 1.105310 -2.994494
vn -0.999651 0.026321 0.002321
f 1805/1/452 1806/2/452 1807/3/452 1808/4/452
v -3.362622 1.105310 -2.994494
v -3.355519 0.782815 -3.038169
v -3.349447 0.796808 -3.045675
v -3.347913 1.103931 -2.986082
vn -0.501351 -0.126953 0.855880
f 1809/1/453 1810/2/453 1811/3/453 1812/4/453
v -3.349447 0.796808 -3.045675
v -3.375512 0.870250 -3.109467
v -3.379552 0.878574 -3.095206
v -3.359056 0.810800 -3.046614
vn 0.771078 0.550941 0.319222
f 1813/1/454 1814/2/454 1815/3/454 1816/4/454
v -3.359056 0.810800 -3.046614
v -3.379552 0.878574 -3.095206
v -3.395609 0.878574 -3.089622
v -3.374736 0.810800 -3.040048
vn 0.304851 0.614116 0.727961
f 1817/1/455 1818/2/455 1819/3/455 1820/4/455
v -3.374736 0.810800 -3.040048
v -3.395609 0.878574 -3.089622
v -3.407626 0.870250 -3.098300
v -3.380808 0.796808 -3.032542
vn -0.215182 0.532516 0.818610
f 1821/1/456 1822/2/456 1823/3/456 1824/4/456
v -3.380808 0.796808 -3.032542
v -3.407626 0.870250 -3.098300
v -3.403586 0.861926 -3.112562
v -3.371199 0.782815 -3.031602
vn -0.776437 -0.553426 -0.301439
f 1825/1/457 1826/2/457 1827/3/457 1828/4/457
v -3.371199 0.782815 -3.031602
v -3.403586 0.861926 -3.112562
v -3.387529 0.861926 -3.118145
v -3.355519 0.782815 -3.038169
vn -0.259566 -0.740571 -0.619822
f 1829/1/458 1830/2/458 1831/3/458 1832/4/458
v -3.355519 0.782815 -3.038169
v -3.387529 0.861926 -3.118145
v -3.375512 0.870250 -3.109467
v -3.349447 0.796808 -3.045675
vn 0.407127 -0.562641 -0.719501
f 1833/1/459 1834/2/459 1835/3/459 1836/4/459
v -3.375512 0.870250 -3.109467
v -3.406656 1.059750 -3.206407
v -3.398651 1.067185 -3.193382
v -3.379552 0.878574 -3.095206
vn 0.963349 0.229432 0.138999
f 1837/1/460 1838/2/460 1839/3/460 1840/4/460
v -3.379552 0.878574 -3.095206
v -3.398651 1.067185 -3.193382
v -3.405740 1.067185 -3.177931
v -3.395609 0.878574 -3.089622
vn 0.290805 0.464770 0.836314
f 1841/1/461 1842/2/461 1843/3/461 1844/4/461
v -3.395609 0.878574 -3.089622
v -3.405740 1.067185 -3.177931
v -3.420835 1.059750 -3.175504
v -3.407626 0.870250 -3.098300
vn -0.681880 0.279802 0.675833
f 1845/1/462 1846/2/462 1847/3/462 1848/4/462
v -3.407626 0.870250 -3.098300
v -3.420835 1.059750 -3.175504
v -3.428840 1.052315 -3.188529
v -3.403586 0.861926 -3.112562
vn -0.970927 -0.145207 -0.190304
f 1849/1/463 1850/2/463 1851/3/463 1852/4/463
v -3.403586 0.861926 -3.112562
v -3.428840 1.052315 -3.188529
v -3.421751 1.052315 -3.203980
v -3.387529 0.861926 -3.118145
vn -0.302762 -0.387577 -0.870700
f 1853/1/464 1854/2/464 1855/3/464 1856/4/464
v -3.387529 0.861926 -3.118145
v -3.421751 1.052315 -3.203980
v -3.406656 1.059750 -3.206407
v -3.375512 0.870250 -3.109467
vn 0.662558 -0.205618 -0.720234
f 1857/1/465 1858/2/465 1859/3/465 1860/4/465
v -3.406656 1.059750 -3.206407
v -3.500681 1.139250 -3.204486
v -3.490375 1.150080 -3.196392
v -3.398651 1.067185 -3.193382
vn 0.488843 0.593595 -0.639279
f 1861/1/466 1862/2/466 1863/3/466 1864/4/466
v -3.398651 1.067185 -3.193382
v -3.490375 1.150080 -3.196392
v -3.489694 1.150080 -3.179406
v -3.405740 1.067185 -3.177931
vn 0.636028 0.714363 0.291811
f 1865/1/467 1866/2/467 1867/3/467 1868/4/467
v -3.405740 1.067185 -3.177931
v -3.489694 1.150080 -3.179406
v -3.499319 1.139250 -3.170514
v -3.420835 1.059750 -3.175504
vn 0.100176 0.119036 0.987823
f 1869/1/468 1870/2/468 1871/3/468 1872/4/468
v -3.420835 1.059750 -3.175504
v -3.499319 1.139250 -3.170514
v -3.509625 1.128420 -3.178608
v -3.428840 1.052315 -3.188529
vn -0.525223 -0.558803 0.641779
f 1873/1/469 1874/2/469 1875/3/469 1876/4/469
v -3.428840 1.052315 -3.188529
v -3.509625 1.128420 -3.178608
v -3.510306 1.128420 -3.195594
v -3.421751 1.052315 -3.203980
vn -0.672084 -0.673217 -0.308354
f 1877/1/470 1878/2/470 1879/3/470 1880/4/470
v -3.421751 1.052315 -3.203980
v -3.510306 1.128420 -3.195594
v -3.500681 1.139250 -3.204486
v -3.406656 1.059750 -3.206407
vn -0.135279 -0.048358 -0.989627
f 1881/1/471 1882/2/471 1883/3/471 1884/4/471
v -3.500681 1.139250 -3.204486
v -3.499319 1.139250 -3.170514
v -3.489694 1.150080 -3.179406
v -3.490375 1.150080 -3.196392
vn -0.734992 0.677436 0.029445
f 1885/1/472 1886/2/472 1887/3/472 1888/4/472
v -3.500681 1.139250 -3.204486
v -3.510306 1.128420 -3.195594
v -3.509625 1.128420 -3.178608
v -3.499319 1.139250 -3.170514
vn -0.734992 0.677436 0.029445
f 1889/1/473 1890/2/473 1891/3/473 1892/4/473
