# Generated by scripts/gen_pole_light_mounts.py
mtllib pole_light_mount.mtl
o pole_light_mount_1_straight_wired
vt 0 0
vt 1 0
vt 1 1
vt 0 1
usemtl clamp
v 0.312500 0.062500 1.000000
v 0.687500 0.062500 1.000000
v 0.687500 0.937500 1.000000
v 0.312500 0.937500 1.000000
vn 0.000000 0.000000 1.000000
f 1/1/1 2/2/1 3/3/1 4/4/1
v 0.687500 0.062500 0.900000
v 0.312500 0.062500 0.900000
v 0.312500 0.937500 0.900000
v 0.687500 0.937500 0.900000
vn 0.000000 0.000000 -1.000000
f 5/1/2 6/2/2 7/3/2 8/4/2
v 0.687500 0.062500 1.000000
v 0.687500 0.062500 0.900000
v 0.687500 0.937500 0.900000
v 0.687500 0.937500 1.000000
vn 1.000000 -0.000000 0.000000
f 9/1/3 10/2/3 11/3/3 12/4/3
v 0.312500 0.062500 0.900000
v 0.312500 0.062500 1.000000
v 0.312500 0.937500 1.000000
v 0.312500 0.937500 0.900000
vn -1.000000 0.000000 0.000000
f 13/1/4 14/2/4 15/3/4 16/4/4
v 0.312500 0.937500 1.000000
v 0.687500 0.937500 1.000000
v 0.687500 0.937500 0.900000
v 0.312500 0.937500 0.900000
vn -0.000000 1.000000 0.000000
f 17/1/5 18/2/5 19/3/5 20/4/5
v 0.312500 0.062500 0.900000
v 0.687500 0.062500 0.900000
v 0.687500 0.062500 1.000000
v 0.312500 0.062500 1.000000
vn 0.000000 -1.000000 0.000000
f 21/1/6 22/2/6 23/3/6 24/4/6
v 0.406250 0.312500 0.900000
v 0.593750 0.312500 0.900000
v 0.593750 0.531250 0.900000
v 0.406250 0.531250 0.900000
vn 0.000000 0.000000 1.000000
f 25/1/7 26/2/7 27/3/7 28/4/7
v 0.593750 0.312500 0.800000
v 0.406250 0.312500 0.800000
v 0.406250 0.531250 0.800000
v 0.593750 0.531250 0.800000
vn 0.000000 0.000000 -1.000000
f 29/1/8 30/2/8 31/3/8 32/4/8
v 0.593750 0.312500 0.900000
v 0.593750 0.312500 0.800000
v 0.593750 0.531250 0.800000
v 0.593750 0.531250 0.900000
vn 1.000000 -0.000000 0.000000
f 33/1/9 34/2/9 35/3/9 36/4/9
v 0.406250 0.312500 0.800000
v 0.406250 0.312500 0.900000
v 0.406250 0.531250 0.900000
v 0.406250 0.531250 0.800000
vn -1.000000 0.000000 0.000000
f 37/1/10 38/2/10 39/3/10 40/4/10
v 0.406250 0.531250 0.900000
v 0.593750 0.531250 0.900000
v 0.593750 0.531250 0.800000
v 0.406250 0.531250 0.800000
vn -0.000000 1.000000 0.000000
f 41/1/11 42/2/11 43/3/11 44/4/11
v 0.406250 0.312500 0.800000
v 0.593750 0.312500 0.800000
v 0.593750 0.312500 0.900000
v 0.406250 0.312500 0.900000
vn 0.000000 -1.000000 0.000000
f 45/1/12 46/2/12 47/3/12 48/4/12
v 0.468750 0.125000 0.900000
v 0.531250 0.125000 0.900000
v 0.531250 0.187500 0.900000
v 0.468750 0.187500 0.900000
vn 0.000000 0.000000 1.000000
f 49/1/13 50/2/13 51/3/13 52/4/13
v 0.531250 0.125000 0.880000
v 0.468750 0.125000 0.880000
v 0.468750 0.187500 0.880000
v 0.531250 0.187500 0.880000
vn 0.000000 0.000000 -1.000000
f 53/1/14 54/2/14 55/3/14 56/4/14
v 0.531250 0.125000 0.900000
v 0.531250 0.125000 0.880000
v 0.531250 0.187500 0.880000
v 0.531250 0.187500 0.900000
vn 1.000000 -0.000000 0.000000
f 57/1/15 58/2/15 59/3/15 60/4/15
v 0.468750 0.125000 0.880000
v 0.468750 0.125000 0.900000
v 0.468750 0.187500 0.900000
v 0.468750 0.187500 0.880000
vn -1.000000 0.000000 0.000000
f 61/1/16 62/2/16 63/3/16 64/4/16
v 0.468750 0.187500 0.900000
v 0.531250 0.187500 0.900000
v 0.531250 0.187500 0.880000
v 0.468750 0.187500 0.880000
vn -0.000000 1.000000 0.000000
f 65/1/17 66/2/17 67/3/17 68/4/17
v 0.468750 0.125000 0.880000
v 0.531250 0.125000 0.880000
v 0.531250 0.125000 0.900000
v 0.468750 0.125000 0.900000
vn 0.000000 -1.000000 0.000000
f 69/1/18 70/2/18 71/3/18 72/4/18
v 0.468750 0.812500 0.900000
v 0.531250 0.812500 0.900000
v 0.531250 0.875000 0.900000
v 0.468750 0.875000 0.900000
vn 0.000000 0.000000 1.000000
f 73/1/19 74/2/19 75/3/19 76/4/19
v 0.531250 0.812500 0.880000
v 0.468750 0.812500 0.880000
v 0.468750 0.875000 0.880000
v 0.531250 0.875000 0.880000
vn 0.000000 0.000000 -1.000000
f 77/1/20 78/2/20 79/3/20 80/4/20
v 0.531250 0.812500 0.900000
v 0.531250 0.812500 0.880000
v 0.531250 0.875000 0.880000
v 0.531250 0.875000 0.900000
vn 1.000000 -0.000000 0.000000
f 81/1/21 82/2/21 83/3/21 84/4/21
v 0.468750 0.812500 0.880000
v 0.468750 0.812500 0.900000
v 0.468750 0.875000 0.900000
v 0.468750 0.875000 0.880000
vn -1.000000 0.000000 0.000000
f 85/1/22 86/2/22 87/3/22 88/4/22
v 0.468750 0.875000 0.900000
v 0.531250 0.875000 0.900000
v 0.531250 0.875000 0.880000
v 0.468750 0.875000 0.880000
vn -0.000000 1.000000 0.000000
f 89/1/23 90/2/23 91/3/23 92/4/23
v 0.468750 0.812500 0.880000
v 0.531250 0.812500 0.880000
v 0.531250 0.812500 0.900000
v 0.468750 0.812500 0.900000
vn 0.000000 -1.000000 0.000000
f 93/1/24 94/2/24 95/3/24 96/4/24
usemtl metal
v 0.545000 0.410000 0.860000
v 0.545000 0.410000 0.800000
v 0.538971 0.432500 0.800000
v 0.538971 0.432500 0.860000
vn 0.965926 0.258819 0.000000
f 97/1/25 98/2/25 99/3/25 100/4/25
v 0.538971 0.432500 0.860000
v 0.538971 0.432500 0.800000
v 0.522500 0.448971 0.800000
v 0.522500 0.448971 0.860000
vn 0.707107 0.707107 0.000000
f 101/1/26 102/2/26 103/3/26 104/4/26
v 0.522500 0.448971 0.860000
v 0.522500 0.448971 0.800000
v 0.500000 0.455000 0.800000
v 0.500000 0.455000 0.860000
vn 0.258819 0.965926 0.000000
f 105/1/27 106/2/27 107/3/27 108/4/27
v 0.500000 0.455000 0.860000
v 0.500000 0.455000 0.800000
v 0.477500 0.448971 0.800000
v 0.477500 0.448971 0.860000
vn -0.258819 0.965926 0.000000
f 109/1/28 110/2/28 111/3/28 112/4/28
v 0.477500 0.448971 0.860000
v 0.477500 0.448971 0.800000
v 0.461029 0.432500 0.800000
v 0.461029 0.432500 0.860000
vn -0.707107 0.707107 0.000000
f 113/1/29 114/2/29 115/3/29 116/4/29
v 0.461029 0.432500 0.860000
v 0.461029 0.432500 0.800000
v 0.455000 0.410000 0.800000
v 0.455000 0.410000 0.860000
vn -0.965926 0.258819 0.000000
f 117/1/30 118/2/30 119/3/30 120/4/30
v 0.455000 0.410000 0.860000
v 0.455000 0.410000 0.800000
v 0.461029 0.387500 0.800000
v 0.461029 0.387500 0.860000
vn -0.965926 -0.258819 -0.000000
f 121/1/31 122/2/31 123/3/31 124/4/31
v 0.461029 0.387500 0.860000
v 0.461029 0.387500 0.800000
v 0.477500 0.371029 0.800000
v 0.477500 0.371029 0.860000
vn -0.707107 -0.707107 -0.000000
f 125/1/32 126/2/32 127/3/32 128/4/32
v 0.477500 0.371029 0.860000
v 0.477500 0.371029 0.800000
v 0.500000 0.365000 0.800000
v 0.500000 0.365000 0.860000
vn -0.258819 -0.965926 -0.000000
f 129/1/33 130/2/33 131/3/33 132/4/33
v 0.500000 0.365000 0.860000
v 0.500000 0.365000 0.800000
v 0.522500 0.371029 0.800000
v 0.522500 0.371029 0.860000
vn 0.258819 -0.965926 0.000000
f 133/1/34 134/2/34 135/3/34 136/4/34
v 0.522500 0.371029 0.860000
v 0.522500 0.371029 0.800000
v 0.538971 0.387500 0.800000
v 0.538971 0.387500 0.860000
vn 0.707107 -0.707107 0.000000
f 137/1/35 138/2/35 139/3/35 140/4/35
v 0.538971 0.387500 0.860000
v 0.538971 0.387500 0.800000
v 0.545000 0.410000 0.800000
v 0.545000 0.410000 0.860000
vn 0.965926 -0.258819 0.000000
f 141/1/36 142/2/36 143/3/36 144/4/36
v 0.545000 0.410000 0.800000
v 0.545000 0.410000 0.720000
v 0.538971 0.432394 0.722186
v 0.538971 0.432500 0.800000
vn 0.965926 0.258819 0.000000
f 145/1/37 146/2/37 147/3/37 148/4/37
v 0.538971 0.432500 0.800000
v 0.538971 0.432394 0.722186
v 0.522500 0.448787 0.723787
v 0.522500 0.448971 0.800000
vn 0.707106 0.707106 -0.000967
f 149/1/38 150/2/38 151/3/38 152/4/38
v 0.522500 0.448971 0.800000
v 0.522500 0.448787 0.723787
v 0.500000 0.454787 0.724372
v 0.500000 0.455000 0.800000
vn 0.258818 0.965923 -0.002337
f 153/1/39 154/2/39 155/3/39 156/4/39
v 0.500000 0.455000 0.800000
v 0.500000 0.454787 0.724372
v 0.477500 0.448787 0.723787
v 0.477500 0.448971 0.800000
vn -0.258818 0.965922 -0.002720
f 157/1/40 158/2/40 159/3/40 160/4/40
v 0.477500 0.448971 0.800000
v 0.477500 0.448787 0.723787
v 0.461029 0.432394 0.722186
v 0.461029 0.432500 0.800000
vn -0.707106 0.707106 -0.001711
f 161/1/41 162/2/41 163/3/41 164/4/41
v 0.461029 0.432500 0.800000
v 0.461029 0.432394 0.722186
v 0.455000 0.410000 0.720000
v 0.455000 0.410000 0.800000
vn -0.965926 0.258819 -0.000354
f 165/1/42 166/2/42 167/3/42 168/4/42
v 0.455000 0.410000 0.800000
v 0.455000 0.410000 0.720000
v 0.461029 0.387606 0.717814
v 0.461029 0.387500 0.800000
vn -0.965926 -0.258819 -0.000000
f 169/1/43 170/2/43 171/3/43 172/4/43
v 0.461029 0.387500 0.800000
v 0.461029 0.387606 0.717814
v 0.477500 0.371213 0.716213
v 0.477500 0.371029 0.800000
vn -0.707106 -0.707106 -0.000916
f 173/1/44 174/2/44 175/3/44 176/4/44
v 0.477500 0.371029 0.800000
v 0.477500 0.371213 0.716213
v 0.500000 0.365213 0.715628
v 0.500000 0.365000 0.800000
vn -0.258818 -0.965924 -0.002126
f 177/1/45 178/2/45 179/3/45 180/4/45
v 0.500000 0.365000 0.800000
v 0.500000 0.365213 0.715628
v 0.522500 0.371213 0.716213
v 0.522500 0.371029 0.800000
vn 0.258818 -0.965923 -0.002438
f 181/1/46 182/2/46 183/3/46 184/4/46
v 0.522500 0.371029 0.800000
v 0.522500 0.371213 0.716213
v 0.538971 0.387606 0.717814
v 0.538971 0.387500 0.800000
vn 0.707106 -0.707106 -0.001556
f 185/1/47 186/2/47 187/3/47 188/4/47
v 0.538971 0.387500 0.800000
v 0.538971 0.387606 0.717814
v 0.545000 0.410000 0.720000
v 0.545000 0.410000 0.800000
vn 0.965926 -0.258819 -0.000335
f 189/1/48 190/2/48 191/3/48 192/4/48
v 0.545000 0.410000 0.720000
v 0.545000 0.417097 0.684000
v 0.538971 0.438177 0.691866
v 0.538971 0.432394 0.722186
vn 0.965618 0.255058 0.050280
f 193/1/49 194/2/49 195/3/49 196/4/49
v 0.538971 0.432394 0.722186
v 0.538971 0.438177 0.691866
v 0.522500 0.453609 0.697624
v 0.522500 0.448787 0.723787
vn 0.705634 0.696027 0.132765
f 197/1/50 198/2/50 199/3/50 200/4/50
v 0.522500 0.448787 0.723787
v 0.522500 0.453609 0.697624
v 0.500000 0.459257 0.699732
v 0.500000 0.454787 0.724372
vn 0.257948 0.950155 0.175126
f 201/1/51 202/2/51 203/3/51 204/4/51
v 0.500000 0.454787 0.724372
v 0.500000 0.459257 0.699732
v 0.477500 0.453609 0.697624
v 0.477500 0.448787 0.723787
vn -0.258004 0.950627 0.172459
f 205/1/52 206/2/52 207/3/52 208/4/52
v 0.477500 0.448787 0.723787
v 0.477500 0.453609 0.697624
v 0.461029 0.438177 0.691866
v 0.461029 0.432394 0.722186
vn -0.705828 0.696649 0.128402
f 209/1/53 210/2/53 211/3/53 212/4/53
v 0.461029 0.432394 0.722186
v 0.461029 0.438177 0.691866
v 0.455000 0.417097 0.684000
v 0.455000 0.410000 0.720000
vn -0.965656 0.255224 0.048683
f 213/1/54 214/2/54 215/3/54 216/4/54
v 0.455000 0.410000 0.720000
v 0.455000 0.417097 0.684000
v 0.461029 0.396017 0.676134
v 0.461029 0.387606 0.717814
vn -0.965618 -0.255058 -0.050280
f 217/1/55 218/2/55 219/3/55 220/4/55
v 0.461029 0.387606 0.717814
v 0.461029 0.396017 0.676134
v 0.477500 0.380585 0.670376
v 0.477500 0.371213 0.716213
vn -0.705270 -0.694933 -0.140223
f 221/1/56 222/2/56 223/3/56 224/4/56
v 0.477500 0.371213 0.716213
v 0.477500 0.380585 0.670376
v 0.500000 0.374936 0.668268
v 0.500000 0.365213 0.715628
vn -0.257505 -0.946694 -0.193552
f 225/1/57 226/2/57 227/3/57 228/4/57
v 0.500000 0.365213 0.715628
v 0.500000 0.374936 0.668268
v 0.522500 0.380585 0.670376
v 0.522500 0.371213 0.716213
vn 0.257484 -0.946539 -0.194335
f 229/1/58 230/2/58 231/3/58 232/4/58
v 0.522500 0.371213 0.716213
v 0.522500 0.380585 0.670376
v 0.538971 0.396017 0.676134
v 0.538971 0.387606 0.717814
vn 0.705176 -0.694663 -0.142024
f 233/1/59 234/2/59 235/3/59 236/4/59
v 0.538971 0.387606 0.717814
v 0.538971 0.396017 0.676134
v 0.545000 0.417097 0.684000
v 0.545000 0.410000 0.720000
vn 0.965588 -0.254937 -0.051441
f 237/1/60 238/2/60 239/3/60 240/4/60
v 0.545000 0.417097 0.684000
v 0.545000 0.437693 0.648000
v 0.538971 0.455956 0.661142
v 0.538971 0.438177 0.691866
vn 0.965057 0.227447 0.130123
f 241/1/61 242/2/61 243/3/61 244/4/61
v 0.538971 0.438177 0.691866
v 0.538971 0.455956 0.661142
v 0.522500 0.469325 0.670763
v 0.522500 0.453609 0.697624
vn 0.702111 0.616321 0.356636
f 245/1/62 246/2/62 247/3/62 248/4/62
v 0.522500 0.453609 0.697624
v 0.522500 0.469325 0.670763
v 0.500000 0.474219 0.674284
v 0.500000 0.459257 0.699732
vn 0.255241 0.834534 0.488267
f 249/1/63 250/2/63 251/3/63 252/4/63
v 0.500000 0.459257 0.699732
v 0.500000 0.474219 0.674284
v 0.477500 0.469325 0.670763
v 0.477500 0.453609 0.697624
vn -0.255153 0.833521 0.490040
f 253/1/64 254/2/64 255/3/64 256/4/64
v 0.477500 0.453609 0.697624
v 0.477500 0.469325 0.670763
v 0.461029 0.455956 0.661142
v 0.461029 0.438177 0.691866
vn -0.701818 0.614852 0.359735
f 257/1/65 258/2/65 259/3/65 260/4/65
v 0.461029 0.438177 0.691866
v 0.461029 0.455956 0.661142
v 0.455000 0.437693 0.648000
v 0.455000 0.417097 0.684000
vn -0.965003 0.226977 0.131341
f 261/1/66 262/2/66 263/3/66 264/4/66
v 0.455000 0.417097 0.684000
v 0.455000 0.437693 0.648000
v 0.461029 0.419430 0.634858
v 0.461029 0.396017 0.676134
vn -0.965057 -0.227447 -0.130123
f 265/1/67 266/2/67 267/3/67 268/4/67
v 0.461029 0.396017 0.676134
v 0.461029 0.419430 0.634858
v 0.477500 0.406060 0.625237
v 0.477500 0.380585 0.670376
vn -0.702614 -0.618933 -0.351077
f 269/1/68 270/2/68 271/3/68 272/4/68
v 0.477500 0.380585 0.670376
v 0.477500 0.406060 0.625237
v 0.500000 0.401167 0.621716
v 0.500000 0.374936 0.668268
vn -0.255858 -0.841886 -0.475147
f 273/1/69 274/2/69 275/3/69 276/4/69
v 0.500000 0.374936 0.668268
v 0.500000 0.401167 0.621716
v 0.522500 0.406060 0.625237
v 0.522500 0.380585 0.670376
vn 0.255884 -0.842213 -0.474553
f 277/1/70 278/2/70 279/3/70 280/4/70
v 0.522500 0.380585 0.670376
v 0.522500 0.406060 0.625237
v 0.538971 0.419430 0.634858
v 0.538971 0.396017 0.676134
vn 0.702736 -0.619583 -0.349683
f 281/1/71 282/2/71 283/3/71 284/4/71
v 0.538971 0.396017 0.676134
v 0.538971 0.419430 0.634858
v 0.545000 0.437693 0.648000
v 0.545000 0.417097 0.684000
vn 0.965097 -0.227798 -0.129214
f 285/1/72 286/2/72 287/3/72 288/4/72
v 0.545000 0.437693 0.648000
v 0.545000 0.469771 0.612000
v 0.538971 0.485679 0.627912
v 0.538971 0.455956 0.661142
vn 0.965573 0.194215 0.173060
f 289/1/73 290/2/73 291/3/73 292/4/73
v 0.538971 0.455956 0.661142
v 0.538971 0.485679 0.627912
v 0.522500 0.497324 0.639560
v 0.522500 0.469325 0.670763
vn 0.705114 0.528515 0.472743
f 293/1/74 294/2/74 295/3/74 296/4/74
v 0.522500 0.469325 0.670763
v 0.522500 0.497324 0.639560
v 0.500000 0.501587 0.643824
v 0.500000 0.474219 0.674284
vn 0.257422 0.719192 0.645366
f 297/1/75 298/2/75 299/3/75 300/4/75
v 0.500000 0.474219 0.674284
v 0.500000 0.501587 0.643824
v 0.477500 0.497324 0.639560
v 0.477500 0.469325 0.670763
vn -0.257405 0.718785 0.645825
f 301/1/76 302/2/76 303/3/76 304/4/76
v 0.477500 0.469325 0.670763
v 0.477500 0.497324 0.639560
v 0.461029 0.485679 0.627912
v 0.461029 0.455956 0.661142
vn -0.705054 0.527805 0.473625
f 305/1/77 306/2/77 307/3/77 308/4/77
v 0.461029 0.455956 0.661142
v 0.461029 0.485679 0.627912
v 0.455000 0.469771 0.612000
v 0.455000 0.437693 0.648000
vn -0.965560 0.193923 0.173459
f 309/1/78 310/2/78 311/3/78 312/4/78
v 0.455000 0.437693 0.648000
v 0.455000 0.469771 0.612000
v 0.461029 0.453863 0.596088
v 0.461029 0.419430 0.634858
vn -0.965573 -0.194215 -0.173060
f 313/1/79 314/2/79 315/3/79 316/4/79
v 0.461029 0.419430 0.634858
v 0.461029 0.453863 0.596088
v 0.477500 0.442218 0.584440
v 0.477500 0.406060 0.625237
vn -0.705245 -0.530079 -0.470793
f 317/1/80 318/2/80 319/3/80 320/4/80
v 0.477500 0.406060 0.625237
v 0.477500 0.442218 0.584440
v 0.500000 0.437955 0.580176
v 0.500000 0.401167 0.621716
vn -0.257578 -0.723129 -0.640889
f 321/1/81 322/2/81 323/3/81 324/4/81
v 0.500000 0.401167 0.621716
v 0.500000 0.437955 0.580176
v 0.522500 0.442218 0.584440
v 0.522500 0.406060 0.625237
vn 0.257586 -0.723358 -0.640627
f 325/1/82 326/2/82 327/3/82 328/4/82
v 0.522500 0.406060 0.625237
v 0.522500 0.442218 0.584440
v 0.538971 0.453863 0.596088
v 0.538971 0.419430 0.634858
vn 0.705283 -0.530547 -0.470209
f 329/1/83 330/2/83 331/3/83 332/4/83
v 0.538971 0.419430 0.634858
v 0.538971 0.453863 0.596088
v 0.545000 0.469771 0.612000
v 0.545000 0.437693 0.648000
vn 0.965584 -0.194466 -0.172716
f 333/1/84 334/2/84 335/3/84 336/4/84
v 0.545000 0.469771 0.612000
v 0.545000 0.510193 0.576000
v 0.538971 0.524726 0.593177
v 0.538971 0.485679 0.627912
vn 0.965818 0.172404 0.193578
f 337/1/85 338/2/85 339/3/85 340/4/85
v 0.538971 0.485679 0.627912
v 0.538971 0.524726 0.593177
v 0.522500 0.535365 0.605751
v 0.522500 0.497324 0.639560
vn 0.706507 0.470380 0.528764
f 341/1/86 342/2/86 343/3/86 344/4/86
v 0.522500 0.497324 0.639560
v 0.522500 0.535365 0.605751
v 0.500000 0.539259 0.610353
v 0.500000 0.501587 0.643824
vn 0.258403 0.641756 0.722064
f 345/1/87 346/2/87 347/3/87 348/4/87
v 0.500000 0.501587 0.643824
v 0.500000 0.539259 0.610353
v 0.477500 0.535365 0.605751
v 0.477500 0.497324 0.639560
vn -0.258401 0.641633 0.722174
f 349/1/88 350/2/88 351/3/88 352/4/88
v 0.477500 0.497324 0.639560
v 0.477500 0.535365 0.605751
v 0.461029 0.524726 0.593177
v 0.461029 0.485679 0.627912
vn -0.706497 0.470148 0.528982
f 353/1/89 354/2/89 355/3/89 356/4/89
v 0.461029 0.485679 0.627912
v 0.461029 0.524726 0.593177
v 0.455000 0.510193 0.576000
v 0.455000 0.469771 0.612000
vn -0.965816 0.172298 0.193683
f 357/1/90 358/2/90 359/3/90 360/4/90
v 0.455000 0.469771 0.612000
v 0.455000 0.510193 0.576000
v 0.461029 0.495659 0.558823
v 0.461029 0.453863 0.596088
vn -0.965818 -0.172404 -0.193578
f 361/1/91 362/2/91 363/3/91 364/4/91
v 0.461029 0.453863 0.596088
v 0.461029 0.495659 0.558823
v 0.477500 0.485021 0.546249
v 0.477500 0.442218 0.584440
vn -0.706529 -0.470954 -0.528222
f 365/1/92 366/2/92 367/3/92 368/4/92
v 0.477500 0.442218 0.584440
v 0.477500 0.485021 0.546249
v 0.500000 0.481126 0.541647
v 0.500000 0.437955 0.580176
vn -0.258430 -0.643148 -0.720815
f 369/1/93 370/2/93 371/3/93 372/4/93
v 0.500000 0.437955 0.580176
v 0.500000 0.481126 0.541647
v 0.522500 0.485021 0.546249
v 0.522500 0.442218 0.584440
vn 0.258432 -0.643243 -0.720730
f 373/1/94 374/2/94 375/3/94 376/4/94
v 0.522500 0.442218 0.584440
v 0.522500 0.485021 0.546249
v 0.538971 0.495659 0.558823
v 0.538971 0.453863 0.596088
vn 0.706537 -0.471145 -0.528041
f 377/1/95 378/2/95 379/3/95 380/4/95
v 0.538971 0.453863 0.596088
v 0.538971 0.495659 0.558823
v 0.545000 0.510193 0.576000
v 0.545000 0.469771 0.612000
vn 0.965820 -0.172503 -0.193480
f 381/1/96 382/2/96 383/3/96 384/4/96
v 0.545000 0.510193 0.576000
v 0.545000 0.555000 0.540000
v 0.538971 0.569092 0.557540
v 0.538971 0.524726 0.593177
vn 0.965905 0.162154 0.201826
f 385/1/97 386/2/97 387/3/97 388/4/97
v 0.538971 0.524726 0.593177
v 0.538971 0.569092 0.557540
v 0.522500 0.579409 0.570380
v 0.522500 0.535365 0.605751
vn 0.706992 0.442882 0.551378
f 389/1/98 390/2/98 391/3/98 392/4/98
v 0.522500 0.535365 0.605751
v 0.522500 0.579409 0.570380
v 0.500000 0.583185 0.575080
v 0.500000 0.539259 0.610353
vn 0.258740 0.604832 0.753148
f 393/1/99 394/2/99 395/3/99 396/4/99
v 0.500000 0.539259 0.610353
v 0.500000 0.583185 0.575080
v 0.477500 0.579409 0.570380
v 0.477500 0.535365 0.605751
vn -0.258740 0.604806 0.753169
f 397/1/100 398/2/100 399/3/100 400/4/100
v 0.477500 0.535365 0.605751
v 0.477500 0.579409 0.570380
v 0.461029 0.569092 0.557540
v 0.461029 0.524726 0.593177
vn -0.706991 0.442831 0.551421
f 401/1/101 402/2/101 403/3/101 404/4/101
v 0.461029 0.524726 0.593177
v 0.461029 0.569092 0.557540
v 0.455000 0.555000 0.540000
v 0.455000 0.510193 0.576000
vn -0.965905 0.162129 0.201847
f 405/1/102 406/2/102 407/3/102 408/4/102
v 0.455000 0.510193 0.576000
v 0.455000 0.555000 0.540000
v 0.461029 0.540908 0.522460
v 0.461029 0.495659 0.558823
vn -0.965905 -0.162154 -0.201826
f 409/1/103 410/2/103 411/3/103 412/4/103
v 0.461029 0.495659 0.558823
v 0.461029 0.540908 0.522460
v 0.477500 0.530591 0.509620
v 0.477500 0.485021 0.546249
vn -0.706994 -0.443020 -0.551265
f 413/1/104 414/2/104 415/3/104 416/4/104
v 0.477500 0.485021 0.546249
v 0.477500 0.530591 0.509620
v 0.500000 0.526815 0.504920
v 0.500000 0.481126 0.541647
vn -0.258743 -0.605161 -0.752883
f 417/1/105 418/2/105 419/3/105 420/4/105
v 0.500000 0.481126 0.541647
v 0.500000 0.526815 0.504920
v 0.522500 0.530591 0.509620
v 0.522500 0.485021 0.546249
vn 0.258743 -0.605185 -0.752863
f 421/1/106 422/2/106 423/3/106 424/4/106
v 0.522500 0.485021 0.546249
v 0.522500 0.530591 0.509620
v 0.538971 0.540908 0.522460
v 0.538971 0.495659 0.558823
vn 0.706995 -0.443069 -0.551224
f 425/1/107 426/2/107 427/3/107 428/4/107
v 0.538971 0.495659 0.558823
v 0.538971 0.540908 0.522460
v 0.545000 0.555000 0.540000
v 0.545000 0.510193 0.576000
vn 0.965905 -0.162179 -0.201805
f 429/1/108 430/2/108 431/3/108 432/4/108
v 0.545000 0.555000 0.540000
v 0.545000 0.599807 0.504000
v 0.538971 0.614341 0.521177
v 0.538971 0.569092 0.557540
vn 0.965926 0.162106 0.201765
f 433/1/109 434/2/109 435/3/109 436/4/109
v 0.538971 0.569092 0.557540
v 0.538971 0.614341 0.521177
v 0.522500 0.624979 0.533751
v 0.522500 0.579409 0.570380
vn 0.707107 0.442949 0.551177
f 437/1/110 438/2/110 439/3/110 440/4/110
v 0.522500 0.579409 0.570380
v 0.522500 0.624979 0.533751
v 0.500000 0.628874 0.538353
v 0.500000 0.583185 0.575080
vn 0.258819 0.605148 0.752867
f 441/1/111 442/2/111 443/3/111 444/4/111
v 0.500000 0.583185 0.575080
v 0.500000 0.628874 0.538353
v 0.477500 0.624979 0.533751
v 0.477500 0.579409 0.570380
vn -0.258819 0.605172 0.752847
f 445/1/112 446/2/112 447/3/112 448/4/112
v 0.477500 0.579409 0.570380
v 0.477500 0.624979 0.533751
v 0.461029 0.614341 0.521177
v 0.461029 0.569092 0.557540
vn -0.707107 0.442999 0.551137
f 449/1/113 450/2/113 451/3/113 452/4/113
v 0.461029 0.569092 0.557540
v 0.461029 0.614341 0.521177
v 0.455000 0.599807 0.504000
v 0.455000 0.555000 0.540000
vn -0.965926 0.162131 0.201745
f 453/1/114 454/2/114 455/3/114 456/4/114
v 0.455000 0.555000 0.540000
v 0.455000 0.599807 0.504000
v 0.461029 0.585274 0.486823
v 0.461029 0.540908 0.522460
vn -0.965926 -0.162106 -0.201765
f 457/1/115 458/2/115 459/3/115 460/4/115
v 0.461029 0.540908 0.522460
v 0.461029 0.585274 0.486823
v 0.477500 0.574635 0.474249
v 0.477500 0.530591 0.509620
vn -0.707107 -0.442810 -0.551289
f 461/1/116 462/2/116 463/3/116 464/4/116
v 0.477500 0.530591 0.509620
v 0.477500 0.574635 0.474249
v 0.500000 0.570741 0.469647
v 0.500000 0.526815 0.504920
vn -0.258819 -0.604819 -0.753131
f 465/1/117 466/2/117 467/3/117 468/4/117
v 0.500000 0.526815 0.504920
v 0.500000 0.570741 0.469647
v 0.522500 0.574635 0.474249
v 0.522500 0.530591 0.509620
vn 0.258819 -0.604792 -0.753153
f 469/1/118 470/2/118 471/3/118 472/4/118
v 0.522500 0.530591 0.509620
v 0.522500 0.574635 0.474249
v 0.538971 0.585274 0.486823
v 0.538971 0.540908 0.522460
vn 0.707107 -0.442758 -0.551331
f 473/1/119 474/2/119 475/3/119 476/4/119
v 0.538971 0.540908 0.522460
v 0.538971 0.585274 0.486823
v 0.545000 0.599807 0.504000
v 0.545000 0.555000 0.540000
vn 0.965926 -0.162080 -0.201786
f 477/1/120 478/2/120 479/3/120 480/4/120
v 0.545000 0.599807 0.504000
v 0.545000 0.640229 0.468000
v 0.538971 0.656137 0.483912
v 0.538971 0.614341 0.521177
vn 0.965905 0.172188 0.193336
f 481/1/121 482/2/121 483/3/121 484/4/121
v 0.538971 0.614341 0.521177
v 0.538971 0.656137 0.483912
v 0.522500 0.667782 0.495560
v 0.522500 0.624979 0.533751
vn 0.706988 0.470649 0.527880
f 485/1/122 486/2/122 487/3/122 488/4/122
v 0.522500 0.624979 0.533751
v 0.522500 0.667782 0.495560
v 0.500000 0.672045 0.499824
v 0.500000 0.628874 0.538353
vn 0.258736 0.643094 0.720754
f 489/1/123 490/2/123 491/3/123 492/4/123
v 0.500000 0.628874 0.538353
v 0.500000 0.672045 0.499824
v 0.477500 0.667782 0.495560
v 0.477500 0.624979 0.533751
vn -0.258735 0.643189 0.720670
f 493/1/124 494/2/124 495/3/124 496/4/124
v 0.477500 0.624979 0.533751
v 0.477500 0.667782 0.495560
v 0.461029 0.656137 0.483912
v 0.461029 0.614341 0.521177
vn -0.706985 0.470848 0.527708
f 497/1/125 498/2/125 499/3/125 500/4/125
v 0.461029 0.614341 0.521177
v 0.461029 0.656137 0.483912
v 0.455000 0.640229 0.468000
v 0.455000 0.599807 0.504000
vn -0.965904 0.172295 0.193246
f 501/1/126 502/2/126 503/3/126 504/4/126
v 0.455000 0.599807 0.504000
v 0.455000 0.640229 0.468000
v 0.461029 0.624321 0.452088
v 0.461029 0.585274 0.486823
vn -0.965905 -0.172188 -0.193336
f 505/1/127 506/2/127 507/3/127 508/4/127
v 0.461029 0.585274 0.486823
v 0.461029 0.624321 0.452088
v 0.477500 0.612676 0.440440
v 0.477500 0.574635 0.474249
vn -0.706998 -0.470053 -0.528397
f 509/1/128 510/2/128 511/3/128 512/4/128
v 0.477500 0.574635 0.474249
v 0.477500 0.612676 0.440440
v 0.500000 0.608413 0.436176
v 0.500000 0.570741 0.469647
vn -0.258747 -0.641695 -0.721996
f 513/1/129 514/2/129 515/3/129 516/4/129
v 0.500000 0.570741 0.469647
v 0.500000 0.608413 0.436176
v 0.522500 0.612676 0.440440
v 0.522500 0.574635 0.474249
vn 0.258748 -0.641571 -0.722105
f 517/1/130 518/2/130 519/3/130 520/4/130
v 0.522500 0.574635 0.474249
v 0.522500 0.612676 0.440440
v 0.538971 0.624321 0.452088
v 0.538971 0.585274 0.486823
vn 0.707002 -0.469813 -0.528605
f 521/1/131 522/2/131 523/3/131 524/4/131
v 0.538971 0.585274 0.486823
v 0.538971 0.624321 0.452088
v 0.545000 0.640229 0.468000
v 0.545000 0.599807 0.504000
vn 0.965906 -0.172074 -0.193433
f 525/1/132 526/2/132 527/3/132 528/4/132
v 0.545000 0.640229 0.468000
v 0.545000 0.672307 0.432000
v 0.538971 0.690570 0.445142
v 0.538971 0.656137 0.483912
vn 0.965818 0.193534 0.172453
f 529/1/133 530/2/133 531/3/133 532/4/133
v 0.538971 0.656137 0.483912
v 0.538971 0.690570 0.445142
v 0.522500 0.703940 0.454763
v 0.522500 0.667782 0.495560
vn 0.706485 0.529155 0.469972
f 533/1/134 534/2/134 535/3/134 536/4/134
v 0.522500 0.667782 0.495560
v 0.522500 0.703940 0.454763
v 0.500000 0.708833 0.458284
v 0.500000 0.672045 0.499824
vn 0.258379 0.722969 0.640747
f 537/1/135 538/2/135 539/3/135 540/4/135
v 0.500000 0.672045 0.499824
v 0.500000 0.708833 0.458284
v 0.477500 0.703940 0.454763
v 0.477500 0.667782 0.495560
vn -0.258374 0.723201 0.640487
f 541/1/136 542/2/136 543/3/136 544/4/136
v 0.477500 0.667782 0.495560
v 0.477500 0.703940 0.454763
v 0.461029 0.690570 0.445142
v 0.461029 0.656137 0.483912
vn -0.706462 0.529667 0.469429
f 545/1/137 546/2/137 547/3/137 548/4/137
v 0.461029 0.656137 0.483912
v 0.461029 0.690570 0.445142
v 0.455000 0.672307 0.432000
v 0.455000 0.640229 0.468000
vn -0.965812 0.193832 0.172153
f 549/1/138 550/2/138 551/3/138 552/4/138
v 0.455000 0.640229 0.468000
v 0.455000 0.672307 0.432000
v 0.461029 0.654044 0.418858
v 0.461029 0.624321 0.452088
vn -0.965818 -0.193534 -0.172453
f 553/1/139 554/2/139 555/3/139 556/4/139
v 0.461029 0.624321 0.452088
v 0.461029 0.654044 0.418858
v 0.477500 0.640675 0.409237
v 0.477500 0.612676 0.440440
vn -0.706556 -0.527444 -0.471785
f 557/1/140 558/2/140 559/3/140 560/4/140
v 0.477500 0.612676 0.440440
v 0.477500 0.640675 0.409237
v 0.500000 0.635781 0.405716
v 0.500000 0.608413 0.436176
vn -0.258465 -0.718985 -0.645180
f 561/1/141 562/2/141 563/3/141 564/4/141
v 0.500000 0.608413 0.436176
v 0.500000 0.635781 0.405716
v 0.522500 0.640675 0.409237
v 0.522500 0.612676 0.440440
vn 0.258473 -0.718573 -0.645635
f 565/1/142 566/2/142 567/3/142 568/4/142
v 0.522500 0.612676 0.440440
v 0.522500 0.640675 0.409237
v 0.538971 0.654044 0.418858
v 0.538971 0.624321 0.452088
vn 0.706587 -0.526668 -0.472605
f 569/1/143 570/2/143 571/3/143 572/4/143
v 0.538971 0.624321 0.452088
v 0.538971 0.654044 0.418858
v 0.545000 0.672307 0.432000
v 0.545000 0.640229 0.468000
vn 0.965825 -0.193188 -0.172802
f 573/1/144 574/2/144 575/3/144 576/4/144
v 0.545000 0.672307 0.432000
v 0.545000 0.692903 0.396000
v 0.538971 0.713983 0.403866
v 0.538971 0.690570 0.445142
vn 0.965573 0.225793 0.129177
f 577/1/145 578/2/145 579/3/145 580/4/145
v 0.538971 0.690570 0.445142
v 0.538971 0.713983 0.403866
v 0.522500 0.729415 0.409624
v 0.522500 0.703940 0.454763
vn 0.705046 0.616837 0.349888
f 581/1/146 582/2/146 583/3/146 584/4/146
v 0.522500 0.703940 0.454763
v 0.522500 0.729415 0.409624
v 0.500000 0.735064 0.411732
v 0.500000 0.708833 0.458284
vn 0.257360 0.841539 0.474950
f 585/1/147 586/2/147 587/3/147 588/4/147
v 0.500000 0.708833 0.458284
v 0.500000 0.735064 0.411732
v 0.477500 0.729415 0.409624
v 0.477500 0.703940 0.454763
vn -0.257342 0.841876 0.474363
f 589/1/148 590/2/148 591/3/148 592/4/148
v 0.477500 0.703940 0.454763
v 0.477500 0.729415 0.409624
v 0.461029 0.713983 0.403866
v 0.461029 0.690570 0.445142
vn -0.704963 0.617662 0.348598
f 593/1/149 594/2/149 595/3/149 596/4/149
v 0.461029 0.690570 0.445142
v 0.461029 0.713983 0.403866
v 0.455000 0.692903 0.396000
v 0.455000 0.672307 0.432000
vn -0.965547 0.226349 0.128392
f 597/1/150 598/2/150 599/3/150 600/4/150
v 0.455000 0.672307 0.432000
v 0.455000 0.692903 0.396000
v 0.461029 0.671823 0.388134
v 0.461029 0.654044 0.418858
vn -0.965573 -0.225793 -0.129177
f 601/1/151 602/2/151 603/3/151 604/4/151
v 0.461029 0.654044 0.418858
v 0.461029 0.671823 0.388134
v 0.477500 0.656391 0.382376
v 0.477500 0.640675 0.409237
vn -0.705363 -0.613533 -0.355022
f 605/1/152 606/2/152 607/3/152 608/4/152
v 0.477500 0.640675 0.409237
v 0.477500 0.656391 0.382376
v 0.500000 0.650743 0.380268
v 0.500000 0.635781 0.405716
vn -0.257744 -0.833961 -0.487931
f 609/1/153 610/2/153 611/3/153 612/4/153
v 0.500000 0.635781 0.405716
v 0.500000 0.650743 0.380268
v 0.522500 0.656391 0.382376
v 0.522500 0.640675 0.409237
vn 0.257791 -0.832918 -0.489686
f 613/1/154 614/2/154 615/3/154 616/4/154
v 0.522500 0.640675 0.409237
v 0.522500 0.656391 0.382376
v 0.538971 0.671823 0.388134
v 0.538971 0.654044 0.418858
vn 0.705528 -0.611680 -0.357880
f 617/1/155 618/2/155 619/3/155 620/4/155
v 0.538971 0.654044 0.418858
v 0.538971 0.671823 0.388134
v 0.545000 0.692903 0.396000
v 0.545000 0.672307 0.432000
vn 0.965606 -0.225049 -0.130225
f 621/1/156 622/2/156 623/3/156 624/4/156
v 0.545000 0.692903 0.396000
v 0.545000 0.700000 0.360000
v 0.538971 0.720553 0.369155
v 0.538971 0.713983 0.403866
vn 0.965057 0.257091 0.050681
f 625/1/157 626/2/157 627/3/157 628/4/157
v 0.538971 0.713983 0.403866
v 0.538971 0.720553 0.369155
v 0.522500 0.735599 0.375858
v 0.522500 0.729415 0.409624
vn 0.701949 0.699803 0.132451
f 629/1/158 630/2/158 631/3/158 632/4/158
v 0.522500 0.729415 0.409624
v 0.522500 0.735599 0.375858
v 0.500000 0.741106 0.378311
v 0.500000 0.735064 0.411732
vn 0.255082 0.951103 0.174176
f 633/1/159 634/2/159 635/3/159 636/4/159
v 0.500000 0.735064 0.411732
v 0.500000 0.741106 0.378311
v 0.477500 0.735599 0.375858
v 0.477500 0.729415 0.409624
vn -0.254985 0.951519 0.172032
f 637/1/160 638/2/160 639/3/160 640/4/160
v 0.477500 0.729415 0.409624
v 0.477500 0.735599 0.375858
v 0.461029 0.720553 0.369155
v 0.461029 0.713983 0.403866
vn -0.701580 0.700934 0.128362
f 641/1/161 642/2/161 643/3/161 644/4/161
v 0.461029 0.713983 0.403866
v 0.461029 0.720553 0.369155
v 0.455000 0.700000 0.360000
v 0.455000 0.692903 0.396000
vn -0.964973 0.257773 0.048788
f 645/1/162 646/2/162 647/3/162 648/4/162
v 0.455000 0.692903 0.396000
v 0.455000 0.700000 0.360000
v 0.461029 0.679447 0.350845
v 0.461029 0.671823 0.388134
vn -0.965057 -0.257091 -0.050681
f 649/1/163 650/2/163 651/3/163 652/4/163
v 0.461029 0.671823 0.388134
v 0.461029 0.679447 0.350845
v 0.477500 0.664401 0.344142
v 0.477500 0.656391 0.382376
vn -0.702804 -0.696966 -0.142498
f 653/1/164 654/2/164 655/3/164 656/4/164
v 0.477500 0.656391 0.382376
v 0.477500 0.664401 0.344142
v 0.500000 0.658894 0.341689
v 0.500000 0.650743 0.380268
vn -0.256081 -0.946115 -0.198212
f 657/1/165 658/2/165 659/3/165 660/4/165
v 0.500000 0.650743 0.380268
v 0.500000 0.658894 0.341689
v 0.522500 0.664401 0.344142
v 0.522500 0.656391 0.382376
vn 0.256143 -0.945759 -0.199825
f 661/1/166 662/2/166 663/3/166 664/4/166
v 0.522500 0.656391 0.382376
v 0.522500 0.664401 0.344142
v 0.538971 0.679447 0.350845
v 0.538971 0.671823 0.388134
vn 0.703069 -0.696011 -0.145815
f 665/1/167 666/2/167 667/3/167 668/4/167
v 0.538971 0.671823 0.388134
v 0.538971 0.679447 0.350845
v 0.545000 0.700000 0.360000
v 0.545000 0.692903 0.396000
vn 0.965132 -0.256458 -0.052434
f 669/1/168 670/2/168 671/3/168 672/4/168
v 0.545000 0.700000 0.360000
v 0.545000 0.850000 0.160000
v 0.538971 0.868000 0.173500
v 0.538971 0.720553 0.369155
vn 0.964244 0.212012 0.159009
f 673/1/169 674/2/169 675/3/169 676/4/169
v 0.538971 0.720553 0.369155
v 0.538971 0.868000 0.173500
v 0.522500 0.881177 0.183383
v 0.522500 0.735599 0.375858
vn 0.697882 0.571979 0.431046
f 677/1/170 678/2/170 679/3/170 680/4/170
v 0.522500 0.735599 0.375858
v 0.522500 0.881177 0.183383
v 0.500000 0.886000 0.187000
v 0.500000 0.741106 0.378311
vn 0.252527 0.771714 0.583684
f 681/1/171 682/2/171 683/3/171 684/4/171
v 0.500000 0.741106 0.378311
v 0.500000 0.886000 0.187000
v 0.477500 0.881177 0.183383
v 0.477500 0.735599 0.375858
vn -0.252491 0.771341 0.584193
f 685/1/172 686/2/172 687/3/172 688/4/172
v 0.477500 0.735599 0.375858
v 0.477500 0.881177 0.183383
v 0.461029 0.868000 0.173500
v 0.461029 0.720553 0.369155
vn -0.697737 0.571338 0.432130
f 689/1/173 690/2/173 691/3/173 692/4/173
v 0.461029 0.720553 0.369155
v 0.461029 0.868000 0.173500
v 0.455000 0.850000 0.160000
v 0.455000 0.700000 0.360000
vn -0.964209 0.211749 0.159575
f 693/1/174 694/2/174 695/3/174 696/4/174
v 0.455000 0.700000 0.360000
v 0.455000 0.850000 0.160000
v 0.461029 0.832000 0.146500
v 0.461029 0.679447 0.350845
vn -0.964244 -0.212012 -0.159009
f 697/1/175 698/2/175 699/3/175 700/4/175
v 0.461029 0.679447 0.350845
v 0.461029 0.832000 0.146500
v 0.477500 0.818823 0.136617
v 0.477500 0.664401 0.344142
vn -0.698251 -0.573632 -0.428244
f 701/1/176 702/2/176 703/3/176 704/4/176
v 0.477500 0.664401 0.344142
v 0.477500 0.818823 0.136617
v 0.500000 0.814000 0.133000
v 0.500000 0.658894 0.341689
vn -0.252950 -0.776171 -0.577559
f 705/1/177 706/2/177 707/3/177 708/4/177
v 0.500000 0.658894 0.341689
v 0.500000 0.814000 0.133000
v 0.522500 0.818823 0.136617
v 0.522500 0.664401 0.344142
vn 0.252980 -0.776489 -0.577118
f 709/1/178 710/2/178 711/3/178 712/4/178
v 0.522500 0.664401 0.344142
v 0.522500 0.818823 0.136617
v 0.538971 0.832000 0.146500
v 0.538971 0.679447 0.350845
vn 0.698377 -0.574203 -0.427272
f 713/1/179 714/2/179 715/3/179 716/4/179
v 0.538971 0.679447 0.350845
v 0.538971 0.832000 0.146500
v 0.545000 0.850000 0.160000
v 0.545000 0.700000 0.360000
vn 0.964278 -0.212264 -0.158465
f 717/1/180 718/2/180 719/3/180 720/4/180
v 0.545000 0.850000 0.160000
v 0.500000 0.886000 0.187000
v 0.522500 0.881177 0.183383
v 0.538971 0.868000 0.173500
vn 0.000000 0.600000 -0.800000
f 721/1/181 722/2/181 723/3/181 724/4/181
v 0.545000 0.850000 0.160000
v 0.461029 0.868000 0.173500
v 0.477500 0.881177 0.183383
v 0.500000 0.886000 0.187000
vn -0.000000 0.600000 -0.800000
f 725/1/182 726/2/182 727/3/182 728/4/182
v 0.545000 0.850000 0.160000
v 0.461029 0.832000 0.146500
v 0.455000 0.850000 0.160000
v 0.461029 0.868000 0.173500
vn -0.000000 0.600000 -0.800000
f 729/1/183 730/2/183 731/3/183 732/4/183
v 0.545000 0.850000 0.160000
v 0.500000 0.814000 0.133000
v 0.477500 0.818823 0.136617
v 0.461029 0.832000 0.146500
vn -0.000000 0.600000 -0.800000
f 733/1/184 734/2/184 735/3/184 736/4/184
v 0.545000 0.850000 0.160000
v 0.538971 0.832000 0.146500
v 0.522500 0.818823 0.136617
v 0.500000 0.814000 0.133000
vn -0.000000 0.600000 -0.800000
f 737/1/185 738/2/185 739/3/185 740/4/185
v 0.534000 0.842500 0.170000
v 0.534000 0.850000 0.000000
v 0.529445 0.866983 0.000749
v 0.529445 0.859483 0.170749
vn 0.965926 0.258568 0.011407
f 741/1/186 742/2/186 743/3/186 744/4/186
v 0.529445 0.859483 0.170749
v 0.529445 0.866983 0.000749
v 0.517000 0.879416 0.001298
v 0.517000 0.871916 0.171298
vn 0.707107 0.706420 0.031166
f 745/1/187 746/2/187 747/3/187 748/4/187
v 0.517000 0.871916 0.171298
v 0.517000 0.879416 0.001298
v 0.500000 0.883967 0.001499
v 0.500000 0.876467 0.171499
vn 0.258819 0.964987 0.042573
f 749/1/188 750/2/188 751/3/188 752/4/188
v 0.500000 0.876467 0.171499
v 0.500000 0.883967 0.001499
v 0.483000 0.879416 0.001298
v 0.483000 0.871916 0.171298
vn -0.258819 0.964987 0.042573
f 753/1/189 754/2/189 755/3/189 756/4/189
v 0.483000 0.871916 0.171298
v 0.483000 0.879416 0.001298
v 0.470555 0.866983 0.000749
v 0.470555 0.859483 0.170749
vn -0.707107 0.706420 0.031166
f 757/1/190 758/2/190 759/3/190 760/4/190
v 0.470555 0.859483 0.170749
v 0.470555 0.866983 0.000749
v 0.466000 0.850000 0.000000
v 0.466000 0.842500 0.170000
vn -0.965926 0.258568 0.011407
f 761/1/191 762/2/191 763/3/191 764/4/191
v 0.466000 0.842500 0.170000
v 0.466000 0.850000 0.000000
v 0.470555 0.833017 -0.000749
v 0.470555 0.825517 0.169251
vn -0.965926 -0.258568 -0.011407
f 765/1/192 766/2/192 767/3/192 768/4/192
v 0.470555 0.825517 0.169251
v 0.470555 0.833017 -0.000749
v 0.483000 0.820584 -0.001298
v 0.483000 0.813084 0.168702
vn -0.707107 -0.706420 -0.031166
f 769/1/193 770/2/193 771/3/193 772/4/193
v 0.483000 0.813084 0.168702
v 0.483000 0.820584 -0.001298
v 0.500000 0.816033 -0.001499
v 0.500000 0.808533 0.168501
vn -0.258819 -0.964987 -0.042573
f 773/1/194 774/2/194 775/3/194 776/4/194
v 0.500000 0.808533 0.168501
v 0.500000 0.816033 -0.001499
v 0.517000 0.820584 -0.001298
v 0.517000 0.813084 0.168702
vn 0.258819 -0.964987 -0.042573
f 777/1/195 778/2/195 779/3/195 780/4/195
v 0.517000 0.813084 0.168702
v 0.517000 0.820584 -0.001298
v 0.529445 0.833017 -0.000749
v 0.529445 0.825517 0.169251
vn 0.707107 -0.706420 -0.031166
f 781/1/196 782/2/196 783/3/196 784/4/196
v 0.529445 0.825517 0.169251
v 0.529445 0.833017 -0.000749
v 0.534000 0.850000 0.000000
v 0.534000 0.842500 0.170000
vn 0.965926 -0.258568 -0.011407
f 785/1/197 786/2/197 787/3/197 788/4/197
v 0.534000 0.850000 0.000000
v 0.500000 0.883967 0.001499
v 0.517000 0.879416 0.001298
v 0.529445 0.866983 0.000749
vn -0.000000 0.044075 -0.999028
f 789/1/198 790/2/198 791/3/198 792/4/198
v 0.534000 0.850000 0.000000
v 0.470555 0.866983 0.000749
v 0.483000 0.879416 0.001298
v 0.500000 0.883967 0.001499
vn 0.000000 0.044075 -0.999028
f 793/1/199 794/2/199 795/3/199 796/4/199
v 0.534000 0.850000 0.000000
v 0.470555 0.833017 -0.000749
v 0.466000 0.850000 0.000000
v 0.470555 0.866983 0.000749
vn -0.000000 0.044075 -0.999028
f 797/1/200 798/2/200 799/3/200 800/4/200
v 0.534000 0.850000 0.000000
v 0.500000 0.816033 -0.001499
v 0.483000 0.820584 -0.001298
v 0.470555 0.833017 -0.000749
vn -0.000000 0.044075 -0.999028
f 801/1/201 802/2/201 803/3/201 804/4/201
v 0.534000 0.850000 0.000000
v 0.529445 0.833017 -0.000749
v 0.517000 0.820584 -0.001298
v 0.500000 0.816033 -0.001499
vn -0.000000 0.044075 -0.999028
f 805/1/202 806/2/202 807/3/202 808/4/202
v 0.522000 0.125000 0.890000
v 0.522000 0.673000 0.360000
v 0.515556 0.683815 0.371182
v 0.515556 0.135815 0.901182
vn 0.923880 0.266043 0.275078
f 809/1/203 810/2/203 811/3/203 812/4/203
v 0.515556 0.135815 0.901182
v 0.515556 0.683815 0.371182
v 0.500000 0.688294 0.375814
v 0.500000 0.140294 0.905814
vn 0.382683 0.642284 0.664097
f 813/1/204 814/2/204 815/3/204 816/4/204
v 0.500000 0.140294 0.905814
v 0.500000 0.688294 0.375814
v 0.484444 0.683815 0.371182
v 0.484444 0.135815 0.901182
vn -0.382683 0.642284 0.664097
f 817/1/205 818/2/205 819/3/205 820/4/205
v 0.484444 0.135815 0.901182
v 0.484444 0.683815 0.371182
v 0.478000 0.673000 0.360000
v 0.478000 0.125000 0.890000
vn -0.923880 0.266043 0.275078
f 821/1/206 822/2/206 823/3/206 824/4/206
v 0.478000 0.125000 0.890000
v 0.478000 0.673000 0.360000
v 0.484444 0.662185 0.348818
v 0.484444 0.114185 0.878818
vn -0.923880 -0.266043 -0.275078
f 825/1/207 826/2/207 827/3/207 828/4/207
v 0.484444 0.114185 0.878818
v 0.484444 0.662185 0.348818
v 0.500000 0.657706 0.344186
v 0.500000 0.109706 0.874186
vn -0.382683 -0.642284 -0.664097
f 829/1/208 830/2/208 831/3/208 832/4/208
v 0.500000 0.109706 0.874186
v 0.500000 0.657706 0.344186
v 0.515556 0.662185 0.348818
v 0.515556 0.114185 0.878818
vn 0.382683 -0.642284 -0.664097
f 833/1/209 834/2/209 835/3/209 836/4/209
v 0.515556 0.114185 0.878818
v 0.515556 0.662185 0.348818
v 0.522000 0.673000 0.360000
v 0.522000 0.125000 0.890000
vn 0.923880 -0.266043 -0.275078
f 837/1/210 838/2/210 839/3/210 840/4/210
v 0.522000 0.673000 0.360000
v 0.484444 0.683815 0.371182
v 0.500000 0.688294 0.375814
v 0.515556 0.683815 0.371182
vn 0.000000 0.718814 -0.695203
f 841/1/211 842/2/211 843/3/211 844/4/211
v 0.522000 0.673000 0.360000
v 0.484444 0.662185 0.348818
v 0.478000 0.673000 0.360000
v 0.484444 0.683815 0.371182
vn 0.000000 0.718814 -0.695203
f 845/1/212 846/2/212 847/3/212 848/4/212
v 0.522000 0.673000 0.360000
v 0.515556 0.662185 0.348818
v 0.500000 0.657706 0.344186
v 0.484444 0.662185 0.348818
vn 0.000000 0.718814 -0.695203
f 849/1/213 850/2/213 851/3/213 852/4/213
usemtl clamp
v 0.468750 0.750000 0.900000
v 0.531250 0.750000 0.900000
v 0.531250 0.812500 0.900000
v 0.468750 0.812500 0.900000
vn 0.000000 0.000000 1.000000
f 853/1/214 854/2/214 855/3/214 856/4/214
v 0.531250 0.750000 0.812500
v 0.468750 0.750000 0.812500
v 0.468750 0.812500 0.812500
v 0.531250 0.812500 0.812500
vn 0.000000 0.000000 -1.000000
f 857/1/215 858/2/215 859/3/215 860/4/215
v 0.531250 0.750000 0.900000
v 0.531250 0.750000 0.812500
v 0.531250 0.812500 0.812500
v 0.531250 0.812500 0.900000
vn 1.000000 -0.000000 0.000000
f 861/1/216 862/2/216 863/3/216 864/4/216
v 0.468750 0.750000 0.812500
v 0.468750 0.750000 0.900000
v 0.468750 0.812500 0.900000
v 0.468750 0.812500 0.812500
vn -1.000000 0.000000 0.000000
f 865/1/217 866/2/217 867/3/217 868/4/217
v 0.468750 0.812500 0.900000
v 0.531250 0.812500 0.900000
v 0.531250 0.812500 0.812500
v 0.468750 0.812500 0.812500
vn -0.000000 1.000000 0.000000
f 869/1/218 870/2/218 871/3/218 872/4/218
v 0.468750 0.750000 0.812500
v 0.531250 0.750000 0.812500
v 0.531250 0.750000 0.900000
v 0.468750 0.750000 0.900000
vn 0.000000 -1.000000 0.000000
f 873/1/219 874/2/219 875/3/219 876/4/219
usemtl porcelain
v 0.437500 0.812500 0.875000
v 0.562500 0.812500 0.875000
v 0.562500 0.937500 0.875000
v 0.437500 0.937500 0.875000
vn 0.000000 0.000000 1.000000
f 877/1/220 878/2/220 879/3/220 880/4/220
v 0.562500 0.812500 0.750000
v 0.437500 0.812500 0.750000
v 0.437500 0.937500 0.750000
v 0.562500 0.937500 0.750000
vn 0.000000 0.000000 -1.000000
f 881/1/221 882/2/221 883/3/221 884/4/221
v 0.562500 0.812500 0.875000
v 0.562500 0.812500 0.750000
v 0.562500 0.937500 0.750000
v 0.562500 0.937500 0.875000
vn 1.000000 -0.000000 0.000000
f 885/1/222 886/2/222 887/3/222 888/4/222
v 0.437500 0.812500 0.750000
v 0.437500 0.812500 0.875000
v 0.437500 0.937500 0.875000
v 0.437500 0.937500 0.750000
vn -1.000000 0.000000 0.000000
f 889/1/223 890/2/223 891/3/223 892/4/223
v 0.437500 0.937500 0.875000
v 0.562500 0.937500 0.875000
v 0.562500 0.937500 0.750000
v 0.437500 0.937500 0.750000
vn -0.000000 1.000000 0.000000
f 893/1/224 894/2/224 895/3/224 896/4/224
v 0.437500 0.812500 0.750000
v 0.562500 0.812500 0.750000
v 0.562500 0.812500 0.875000
v 0.437500 0.812500 0.875000
vn 0.000000 -1.000000 0.000000
f 897/1/225 898/2/225 899/3/225 900/4/225
usemtl cable
v 0.500000 0.875982 0.766972
v 0.500000 0.585812 0.783628
v 0.514722 0.586388 0.775147
v 0.514722 0.875491 0.758486
vn 0.500000 0.049629 0.864602
f 901/1/226 902/2/226 903/3/226 904/4/226
v 0.514722 0.875491 0.758486
v 0.514722 0.586388 0.775147
v 0.514722 0.587539 0.758186
v 0.514722 0.874509 0.741514
vn 1.000000 0.000000 0.000000
f 905/1/227 906/2/227 907/3/227 908/4/227
v 0.514722 0.874509 0.741514
v 0.514722 0.587539 0.758186
v 0.500000 0.588115 0.749706
v 0.500000 0.874018 0.733028
vn 0.500000 -0.050229 -0.864568
f 909/1/228 910/2/228 911/3/228 912/4/228
v 0.500000 0.874018 0.733028
v 0.500000 0.588115 0.749706
v 0.485278 0.587539 0.758186
v 0.485278 0.874509 0.741514
vn -0.500000 -0.050431 -0.864556
f 913/1/229 914/2/229 915/3/229 916/4/229
v 0.485278 0.874509 0.741514
v 0.485278 0.587539 0.758186
v 0.485278 0.586388 0.775147
v 0.485278 0.875491 0.758486
vn -1.000000 0.000000 0.000000
f 917/1/230 918/2/230 919/3/230 920/4/230
v 0.485278 0.875491 0.758486
v 0.485278 0.586388 0.775147
v 0.500000 0.585812 0.783628
v 0.500000 0.875982 0.766972
vn -0.500000 0.049827 0.864591
f 921/1/231 922/2/231 923/3/231 924/4/231
v 0.500000 0.585812 0.783628
v 0.500000 0.413204 0.749957
v 0.514722 0.414983 0.741645
v 0.514722 0.586388 0.775147
vn 0.497073 -0.166134 0.851656
f 925/1/232 926/2/232 927/3/232 928/4/232
v 0.514722 0.586388 0.775147
v 0.514722 0.414983 0.741645
v 0.514722 0.418542 0.725022
v 0.514722 0.587539 0.758186
vn 1.000000 0.000000 0.000000
f 929/1/233 930/2/233 931/3/233 932/4/233
v 0.514722 0.587539 0.758186
v 0.514722 0.418542 0.725022
v 0.500000 0.420321 0.716710
v 0.500000 0.588115 0.749706
vn 0.497019 0.167100 -0.851498
f 933/1/234 934/2/234 935/3/234 936/4/234
v 0.500000 0.588115 0.749706
v 0.500000 0.420321 0.716710
v 0.485278 0.418542 0.725022
v 0.485278 0.587539 0.758186
vn -0.497001 0.167431 -0.851444
f 937/1/235 938/2/235 939/3/235 940/4/235
v 0.485278 0.587539 0.758186
v 0.485278 0.418542 0.725022
v 0.485278 0.414983 0.741645
v 0.485278 0.586388 0.775147
vn -1.000000 -0.000000 0.000000
f 941/1/236 942/2/236 943/3/236 944/4/236
v 0.485278 0.586388 0.775147
v 0.485278 0.414983 0.741645
v 0.500000 0.413204 0.749957
v 0.500000 0.585812 0.783628
vn -0.497055 -0.166451 0.851604
f 945/1/237 946/2/237 947/3/237 948/4/237
v 0.500000 0.413204 0.749957
v 0.500000 0.269173 0.716485
v 0.514722 0.271248 0.708243
v 0.514722 0.414983 0.741645
vn 0.499943 -0.196039 0.843579
f 949/1/238 950/2/238 951/3/238 952/4/238
v 0.514722 0.414983 0.741645
v 0.514722 0.271248 0.708243
v 0.514722 0.275400 0.691757
v 0.514722 0.418542 0.725022
vn 1.000000 0.000000 0.000000
f 953/1/239 954/2/239 955/3/239 956/4/239
v 0.514722 0.418542 0.725022
v 0.514722 0.275400 0.691757
v 0.500000 0.277476 0.683515
v 0.500000 0.420321 0.716710
vn 0.499943 0.196037 -0.843580
f 957/1/240 958/2/240 959/3/240 960/4/240
v 0.500000 0.420321 0.716710
v 0.500000 0.277476 0.683515
v 0.485278 0.275400 0.691757
v 0.485278 0.418542 0.725022
vn -0.499943 0.196036 -0.843580
f 961/1/241 962/2/241 963/3/241 964/4/241
v 0.485278 0.418542 0.725022
v 0.485278 0.275400 0.691757
v 0.485278 0.271248 0.708243
v 0.485278 0.414983 0.741645
vn -1.000000 -0.000000 0.000000
f 965/1/242 966/2/242 967/3/242 968/4/242
v 0.485278 0.414983 0.741645
v 0.485278 0.271248 0.708243
v 0.500000 0.269173 0.716485
v 0.500000 0.413204 0.749957
vn -0.499943 -0.196039 0.843579
f 969/1/243 970/2/243 971/3/243 972/4/243
v 0.500000 0.269173 0.716485
v 0.500000 0.145690 0.682960
v 0.514722 0.148115 0.674813
v 0.514722 0.271248 0.708243
vn 0.499937 -0.226918 0.835806
f 973/1/244 974/2/244 975/3/244 976/4/244
v 0.514722 0.271248 0.708243
v 0.514722 0.148115 0.674813
v 0.514722 0.152965 0.658520
v 0.514722 0.275400 0.691757
vn 1.000000 0.000000 0.000000
f 977/1/245 978/2/245 979/3/245 980/4/245
v 0.514722 0.275400 0.691757
v 0.514722 0.152965 0.658520
v 0.500000 0.155390 0.650373
v 0.500000 0.277476 0.683515
vn 0.499937 0.226897 -0.835812
f 981/1/246 982/2/246 983/3/246 984/4/246
v 0.500000 0.277476 0.683515
v 0.500000 0.155390 0.650373
v 0.485278 0.152965 0.658520
v 0.485278 0.275400 0.691757
vn -0.499937 0.226890 -0.835813
f 985/1/247 986/2/247 987/3/247 988/4/247
v 0.485278 0.275400 0.691757
v 0.485278 0.152965 0.658520
v 0.485278 0.148115 0.674813
v 0.485278 0.271248 0.708243
vn -1.000000 -0.000000 0.000000
f 989/1/248 990/2/248 991/3/248 992/4/248
v 0.485278 0.271248 0.708243
v 0.485278 0.148115 0.674813
v 0.500000 0.145690 0.682960
v 0.500000 0.269173 0.716485
vn -0.499937 -0.226911 0.835808
f 993/1/249 994/2/249 995/3/249 996/4/249
v 0.500000 0.145690 0.682960
v 0.500000 0.041922 0.649312
v 0.514722 0.044823 0.641323
v 0.514722 0.148115 0.674813
vn 0.499890 -0.267146 0.823859
f 997/1/250 998/2/250 999/3/250 1000/4/250
v 0.514722 0.148115 0.674813
v 0.514722 0.044823 0.641323
v 0.514722 0.050627 0.625344
v 0.514722 0.152965 0.658520
vn 1.000000 0.000000 0.000000
f 1001/1/251 1002/2/251 1003/3/251 1004/4/251
v 0.514722 0.152965 0.658520
v 0.514722 0.050627 0.625344
v 0.500000 0.053528 0.617355
v 0.500000 0.155390 0.650373
vn 0.499890 0.267085 -0.823878
f 1005/1/252 1006/2/252 1007/3/252 1008/4/252
v 0.500000 0.155390 0.650373
v 0.500000 0.053528 0.617355
v 0.485278 0.050627 0.625344
v 0.485278 0.152965 0.658520
vn -0.499891 0.267064 -0.823885
f 1009/1/253 1010/2/253 1011/3/253 1012/4/253
v 0.485278 0.152965 0.658520
v 0.485278 0.050627 0.625344
v 0.485278 0.044823 0.641323
v 0.485278 0.148115 0.674813
vn -1.000000 -0.000000 0.000000
f 1013/1/254 1014/2/254 1015/3/254 1016/4/254
v 0.485278 0.148115 0.674813
v 0.485278 0.044823 0.641323
v 0.500000 0.041922 0.649312
v 0.500000 0.145690 0.682960
vn -0.499890 -0.267126 0.823865
f 1017/1/255 1018/2/255 1019/3/255 1020/4/255
v 0.500000 0.041922 0.649312
v 0.500000 -0.042128 0.615413
v 0.514722 -0.038541 0.607706
v 0.514722 0.044823 0.641323
vn 0.499770 -0.323986 0.803283
f 1021/1/256 1022/2/256 1023/3/256 1024/4/256
v 0.514722 0.044823 0.641323
v 0.514722 -0.038541 0.607706
v 0.514722 -0.031369 0.592294
v 0.514722 0.050627 0.625344
vn 1.000000 0.000000 0.000000
f 1025/1/257 1026/2/257 1027/3/257 1028/4/257
v 0.514722 0.050627 0.625344
v 0.514722 -0.031369 0.592294
v 0.500000 -0.027782 0.584587
v 0.500000 0.053528 0.617355
vn 0.499773 0.323811 -0.803351
f 1029/1/258 1030/2/258 1031/3/258 1032/4/258
v 0.500000 0.053528 0.617355
v 0.500000 -0.027782 0.584587
v 0.485278 -0.031369 0.592294
v 0.485278 0.050627 0.625344
vn -0.499774 0.323751 -0.803375
f 1033/1/259 1034/2/259 1035/3/259 1036/4/259
v 0.485278 0.050627 0.625344
v 0.485278 -0.031369 0.592294
v 0.485278 -0.038541 0.607706
v 0.485278 0.044823 0.641323
vn -1.000000 -0.000000 0.000000
f 1037/1/260 1038/2/260 1039/3/260 1040/4/260
v 0.485278 0.044823 0.641323
v 0.485278 -0.038541 0.607706
v 0.500000 -0.042128 0.615413
v 0.500000 0.041922 0.649312
vn -0.499771 -0.323928 0.803305
f 1041/1/261 1042/2/261 1043/3/261 1044/4/261
v 0.500000 -0.042128 0.615413
v 0.517000 -0.097763 0.566667
v 0.508500 -0.089857 0.554247
v 0.514722 -0.038541 0.607706
vn 0.495635 -0.481746 0.722680
f 1045/1/262 1046/2/262 1047/3/262 1048/4/262
v 0.514722 -0.038541 0.607706
v 0.508500 -0.089857 0.554247
v 0.491500 -0.089857 0.554247
v 0.514722 -0.031369 0.592294
vn 0.995968 -0.081336 -0.037853
f 1049/1/263 1050/2/263 1051/3/263 1052/4/263
v 0.514722 -0.031369 0.592294
v 0.491500 -0.089857 0.554247
v 0.483000 -0.097763 0.566667
v 0.500000 -0.027782 0.584587
vn 0.499494 0.324254 -0.803346
f 1053/1/264 1054/2/264 1055/3/264 1056/4/264
v 0.500000 -0.027782 0.584587
v 0.483000 -0.097763 0.566667
v 0.491500 -0.105669 0.579086
v 0.485278 -0.031369 0.592294
vn -0.499554 0.326801 -0.802276
f 1057/1/265 1058/2/265 1059/3/265 1060/4/265
v 0.485278 -0.031369 0.592294
v 0.491500 -0.105669 0.579086
v 0.508500 -0.105669 0.579086
v 0.485278 -0.038541 0.607706
vn -0.996380 -0.077068 -0.035866
f 1061/1/266 1062/2/266 1063/3/266 1064/4/266
v 0.485278 -0.038541 0.607706
v 0.508500 -0.105669 0.579086
v 0.517000 -0.097763 0.566667
v 0.500000 -0.042128 0.615413
vn -0.495765 -0.480065 0.723709
f 1065/1/267 1066/2/267 1067/3/267 1068/4/267
v 0.517000 -0.097763 0.566667
v 0.517000 -0.141990 0.533333
v 0.508500 -0.131873 0.522637
v 0.508500 -0.089857 0.554247
vn 0.865348 0.301646 -0.400227
f 1069/1/268 1070/2/268 1071/3/268 1072/4/268
v 0.508500 -0.089857 0.554247
v 0.508500 -0.131873 0.522637
v 0.491500 -0.131873 0.522637
v 0.491500 -0.089857 0.554247
vn 0.000000 0.601186 -0.799109
f 1073/1/269 1074/2/269 1075/3/269 1076/4/269
v 0.491500 -0.089857 0.554247
v 0.491500 -0.131873 0.522637
v 0.483000 -0.141990 0.533333
v 0.483000 -0.097763 0.566667
vn -0.865363 0.301282 -0.400470
f 1077/1/270 1078/2/270 1079/3/270 1080/4/270
v 0.483000 -0.097763 0.566667
v 0.483000 -0.141990 0.533333
v 0.491500 -0.152106 0.544029
v 0.491500 -0.105669 0.579086
vn -0.865348 -0.301646 0.400227
f 1081/1/271 1082/2/271 1083/3/271 1084/4/271
v 0.491500 -0.105669 0.579086
v 0.491500 -0.152106 0.544029
v 0.508500 -0.152106 0.544029
v 0.508500 -0.105669 0.579086
vn 0.000000 -0.602512 0.798109
f 1085/1/272 1086/2/272 1087/3/272 1088/4/272
v 0.508500 -0.105669 0.579086
v 0.508500 -0.152106 0.544029
v 0.517000 -0.141990 0.533333
v 0.517000 -0.097763 0.566667
vn 0.865335 -0.301976 0.400008
f 1089/1/273 1090/2/273 1091/3/273 1092/4/273
v 0.517000 -0.141990 0.533333
v 0.517000 -0.170154 0.500000
v 0.508500 -0.157773 0.492033
v 0.508500 -0.131873 0.522637
vn 0.864667 0.383715 -0.324213
f 1093/1/274 1094/2/274 1095/3/274 1096/4/274
v 0.508500 -0.131873 0.522637
v 0.508500 -0.157773 0.492033
v 0.491500 -0.157773 0.492033
v 0.491500 -0.131873 0.522637
vn 0.000000 0.763331 -0.646008
f 1097/1/275 1098/2/275 1099/3/275 1100/4/275
v 0.491500 -0.131873 0.522637
v 0.491500 -0.157773 0.492033
v 0.483000 -0.170154 0.500000
v 0.483000 -0.141990 0.533333
vn -0.864686 0.383430 -0.324498
f 1101/1/276 1102/2/276 1103/3/276 1104/4/276
v 0.483000 -0.141990 0.533333
v 0.483000 -0.170154 0.500000
v 0.491500 -0.182535 0.507967
v 0.491500 -0.152106 0.544029
vn -0.864667 -0.383715 0.324213
f 1105/1/277 1106/2/277 1107/3/277 1108/4/277
v 0.491500 -0.152106 0.544029
v 0.491500 -0.182535 0.507967
v 0.508500 -0.182535 0.507967
v 0.508500 -0.152106 0.544029
vn 0.000000 -0.764285 0.644879
f 1109/1/278 1110/2/278 1111/3/278 1112/4/278
v 0.508500 -0.152106 0.544029
v 0.508500 -0.182535 0.507967
v 0.517000 -0.170154 0.500000
v 0.517000 -0.141990 0.533333
vn 0.864650 -0.383958 0.323971
f 1113/1/279 1114/2/279 1115/3/279 1116/4/279
v 0.517000 -0.170154 0.500000
v 0.517000 -0.185928 0.466667
v 0.508500 -0.171400 0.464284
v 0.508500 -0.157773 0.492033
vn 0.864187 0.454816 -0.215226
f 1117/1/280 1118/2/280 1119/3/280 1120/4/280
v 0.508500 -0.157773 0.492033
v 0.508500 -0.171400 0.464284
v 0.491500 -0.171400 0.464284
v 0.491500 -0.157773 0.492033
vn 0.000000 0.897618 -0.440773
f 1121/1/281 1122/2/281 1123/3/281 1124/4/281
v 0.491500 -0.157773 0.492033
v 0.491500 -0.171400 0.464284
v 0.483000 -0.185928 0.466667
v 0.483000 -0.170154 0.500000
vn -0.864577 0.451054 -0.221489
f 1125/1/282 1126/2/282 1127/3/282 1128/4/282
v 0.483000 -0.170154 0.500000
v 0.483000 -0.185928 0.466667
v 0.491500 -0.200456 0.469049
v 0.491500 -0.182535 0.507967
vn -0.864187 -0.454816 0.215226
f 1129/1/283 1130/2/283 1131/3/283 1132/4/283
v 0.491500 -0.182535 0.507967
v 0.491500 -0.200456 0.469049
v 0.508500 -0.200456 0.469049
v 0.508500 -0.182535 0.507967
vn 0.000000 -0.908317 0.418282
f 1133/1/284 1134/2/284 1135/3/284 1136/4/284
v 0.508500 -0.182535 0.507967
v 0.508500 -0.200456 0.469049
v 0.517000 -0.185928 0.466667
v 0.517000 -0.170154 0.500000
vn 0.863877 -0.457522 0.210690
f 1137/1/285 1138/2/285 1139/3/285 1140/4/285
v 0.517000 -0.185928 0.466667
v 0.517000 -0.182014 0.433333
v 0.508500 -0.167863 0.437393
v 0.508500 -0.171400 0.464284
vn 0.857248 0.511392 0.060044
f 1141/1/286 1142/2/286 1143/3/286 1144/4/286
v 0.508500 -0.171400 0.464284
v 0.508500 -0.167863 0.437393
v 0.491500 -0.167863 0.437393
v 0.491500 -0.171400 0.464284
vn 0.000000 0.991460 0.130409
f 1145/1/287 1146/2/287 1147/3/287 1148/4/287
v 0.491500 -0.171400 0.464284
v 0.491500 -0.167863 0.437393
v 0.483000 -0.182014 0.433333
v 0.483000 -0.185928 0.466667
vn -0.856315 0.512044 0.067350
f 1149/1/288 1150/2/288 1151/3/288 1152/4/288
v 0.483000 -0.185928 0.466667
v 0.483000 -0.182014 0.433333
v 0.491500 -0.196166 0.429273
v 0.491500 -0.200456 0.469049
vn -0.857248 -0.511392 -0.060044
f 1153/1/289 1154/2/289 1155/3/289 1156/4/289
v 0.491500 -0.200456 0.469049
v 0.491500 -0.196166 0.429273
v 0.508500 -0.196166 0.429273
v 0.508500 -0.200456 0.469049
vn 0.000000 -0.994233 -0.107245
f 1157/1/290 1158/2/290 1159/3/290 1160/4/290
v 0.508500 -0.200456 0.469049
v 0.508500 -0.196166 0.429273
v 0.517000 -0.182014 0.433333
v 0.517000 -0.185928 0.466667
vn 0.857850 -0.510936 -0.055113
f 1161/1/291 1162/2/291 1163/3/291 1164/4/291
v 0.517000 -0.182014 0.433333
v 0.517000 -0.166245 0.400000
v 0.508500 -0.152700 0.405769
v 0.508500 -0.167863 0.437393
vn 0.863130 0.456475 0.215955
f 1165/1/292 1166/2/292 1167/3/292 1168/4/292
v 0.508500 -0.167863 0.437393
v 0.508500 -0.152700 0.405769
v 0.491500 -0.152700 0.405769
v 0.491500 -0.167863 0.437393
vn 0.000000 0.901705 0.432352
f 1169/1/293 1170/2/293 1171/3/293 1172/4/293
v 0.491500 -0.167863 0.437393
v 0.491500 -0.152700 0.405769
v 0.483000 -0.166245 0.400000
v 0.483000 -0.182014 0.433333
vn -0.862939 0.455639 0.218471
f 1173/1/294 1174/2/294 1175/3/294 1176/4/294
v 0.483000 -0.182014 0.433333
v 0.483000 -0.166245 0.400000
v 0.491500 -0.179790 0.394231
v 0.491500 -0.196166 0.429273
vn -0.863130 -0.456475 -0.215955
f 1177/1/295 1178/2/295 1179/3/295 1180/4/295
v 0.491500 -0.196166 0.429273
v 0.491500 -0.179790 0.394231
v 0.508500 -0.179790 0.394231
v 0.508500 -0.196166 0.429273
vn 0.000000 -0.905954 -0.423377
f 1181/1/296 1182/2/296 1183/3/296 1184/4/296
v 0.508500 -0.196166 0.429273
v 0.508500 -0.179790 0.394231
v 0.517000 -0.166245 0.400000
v 0.517000 -0.182014 0.433333
vn 0.863298 -0.457230 -0.213676
f 1185/1/297 1186/2/297 1187/3/297 1188/4/297
v 0.517000 -0.166245 0.400000
v 0.517000 -0.153568 0.366667
v 0.508500 -0.141175 0.374615
v 0.508500 -0.152700 0.405769
vn 0.865859 0.467613 0.177839
f 1189/1/298 1190/2/298 1191/3/298 1192/4/298
v 0.508500 -0.152700 0.405769
v 0.508500 -0.141175 0.374615
v 0.491500 -0.141175 0.374615
v 0.491500 -0.152700 0.405769
vn 0.000000 0.937887 0.346940
f 1193/1/299 1194/2/299 1195/3/299 1196/4/299
v 0.491500 -0.152700 0.405769
v 0.491500 -0.141175 0.374615
v 0.483000 -0.153568 0.366667
v 0.483000 -0.166245 0.400000
vn -0.865772 0.469355 0.173622
f 1197/1/300 1198/2/300 1199/3/300 1200/4/300
v 0.483000 -0.166245 0.400000
v 0.483000 -0.153568 0.366667
v 0.491500 -0.165960 0.358718
v 0.491500 -0.179790 0.394231
vn -0.865859 -0.467613 -0.177839
f 1201/1/301 1202/2/301 1203/3/301 1204/4/301
v 0.491500 -0.179790 0.394231
v 0.491500 -0.165960 0.358718
v 0.508500 -0.165960 0.358718
v 0.508500 -0.179790 0.394231
vn 0.000000 -0.931834 -0.362885
f 1205/1/302 1206/2/302 1207/3/302 1208/4/302
v 0.508500 -0.179790 0.394231
v 0.508500 -0.165960 0.358718
v 0.517000 -0.153568 0.366667
v 0.517000 -0.166245 0.400000
vn 0.865919 -0.466088 -0.181509
f 1209/1/303 1210/2/303 1211/3/303 1212/4/303
v 0.517000 -0.153568 0.366667
v 0.517000 -0.120774 0.333333
v 0.508500 -0.111172 0.344494
v 0.508500 -0.141175 0.374615
vn 0.861294 0.362205 0.356342
f 1213/1/304 1214/2/304 1215/3/304 1216/4/304
v 0.508500 -0.141175 0.374615
v 0.508500 -0.111172 0.344494
v 0.491500 -0.111172 0.344494
v 0.491500 -0.141175 0.374615
vn 0.000000 0.708497 0.705714
f 1217/1/305 1218/2/305 1219/3/305 1220/4/305
v 0.491500 -0.141175 0.374615
v 0.491500 -0.111172 0.344494
v 0.483000 -0.120774 0.333333
v 0.483000 -0.153568 0.366667
vn -0.861001 0.360344 0.358929
f 1221/1/306 1222/2/306 1223/3/306 1224/4/306
v 0.483000 -0.153568 0.366667
v 0.483000 -0.120774 0.333333
v 0.491500 -0.130376 0.322173
v 0.491500 -0.165960 0.358718
vn -0.861294 -0.362205 -0.356342
f 1225/1/307 1226/2/307 1227/3/307 1228/4/307
v 0.491500 -0.165960 0.358718
v 0.491500 -0.130376 0.322173
v 0.508500 -0.130376 0.322173
v 0.508500 -0.165960 0.358718
vn 0.000000 -0.716463 -0.697625
f 1229/1/308 1230/2/308 1231/3/308 1232/4/308
v 0.508500 -0.165960 0.358718
v 0.508500 -0.130376 0.322173
v 0.517000 -0.120774 0.333333
v 0.517000 -0.153568 0.366667
vn 0.861532 -0.363751 -0.354186
f 1233/1/309 1234/2/309 1235/3/309 1236/4/309
v 0.517000 -0.120774 0.333333
v 0.517000 -0.074805 0.300000
v 0.508500 -0.066636 0.312248
v 0.508500 -0.111172 0.344494
vn 0.865276 0.294280 0.405829
f 1237/1/310 1238/2/310 1239/3/310 1240/4/310
v 0.508500 -0.111172 0.344494
v 0.508500 -0.066636 0.312248
v 0.491500 -0.066636 0.312248
v 0.491500 -0.111172 0.344494
vn 0.000000 0.586457 0.809980
f 1241/1/311 1242/2/311 1243/3/311 1244/4/311
v 0.491500 -0.111172 0.344494
v 0.491500 -0.066636 0.312248
v 0.483000 -0.074805 0.300000
v 0.483000 -0.120774 0.333333
vn -0.865263 0.294002 0.406058
f 1245/1/312 1246/2/312 1247/3/312 1248/4/312
v 0.483000 -0.120774 0.333333
v 0.483000 -0.074805 0.300000
v 0.491500 -0.082974 0.287752
v 0.491500 -0.130376 0.322173
vn -0.865276 -0.294280 -0.405829
f 1249/1/313 1250/2/313 1251/3/313 1252/4/313
v 0.491500 -0.130376 0.322173
v 0.491500 -0.082974 0.287752
v 0.508500 -0.082974 0.287752
v 0.508500 -0.130376 0.322173
vn 0.000000 -0.587584 -0.809163
f 1253/1/314 1254/2/314 1255/3/314 1256/4/314
v 0.508500 -0.130376 0.322173
v 0.508500 -0.082974 0.287752
v 0.517000 -0.074805 0.300000
v 0.517000 -0.120774 0.333333
vn 0.865288 -0.294541 -0.405613
f 1257/1/315 1258/2/315 1259/3/315 1260/4/315
v 0.517000 -0.074805 0.300000
v 0.517000 -0.020318 0.266667
v 0.508500 -0.013038 0.279463
v 0.508500 -0.066636 0.312248
vn 0.865859 0.261079 0.426762
f 1261/1/316 1262/2/316 1263/3/316 1264/4/316
v 0.508500 -0.066636 0.312248
v 0.508500 -0.013038 0.279463
v 0.491500 -0.013038 0.279463
v 0.491500 -0.066636 0.312248
vn 0.000000 0.521804 0.853065
f 1265/1/317 1266/2/317 1267/3/317 1268/4/317
v 0.491500 -0.066636 0.312248
v 0.491500 -0.013038 0.279463
v 0.483000 -0.020318 0.266667
v 0.483000 -0.074805 0.300000
vn -0.865859 0.261053 0.426779
f 1269/1/318 1270/2/318 1271/3/318 1272/4/318
v 0.483000 -0.074805 0.300000
v 0.483000 -0.020318 0.266667
v 0.491500 -0.027598 0.253870
v 0.491500 -0.082974 0.287752
vn -0.865859 -0.261079 -0.426762
f 1273/1/319 1274/2/319 1275/3/319 1276/4/319
v 0.491500 -0.082974 0.287752
v 0.491500 -0.027598 0.253870
v 0.508500 -0.027598 0.253870
v 0.508500 -0.082974 0.287752
vn 0.000000 -0.521908 -0.853002
f 1277/1/320 1278/2/320 1279/3/320 1280/4/320
v 0.508500 -0.082974 0.287752
v 0.508500 -0.027598 0.253870
v 0.517000 -0.020318 0.266667
v 0.517000 -0.074805 0.300000
vn 0.865860 -0.261104 -0.426746
f 1281/1/321 1282/2/321 1283/3/321 1284/4/321
v 0.517000 -0.020318 0.266667
v 0.517000 0.042863 0.233333
v 0.508500 0.049387 0.246532
v 0.508500 -0.013038 0.279463
vn 0.865916 0.233399 0.442396
f 1285/1/322 1286/2/322 1287/3/322 1288/4/322
v 0.508500 -0.013038 0.279463
v 0.508500 0.049387 0.246532
v 0.491500 0.049387 0.246532
v 0.491500 -0.013038 0.279463
vn 0.000000 0.466593 0.884472
f 1289/1/323 1290/2/323 1291/3/323 1292/4/323
v 0.491500 -0.013038 0.279463
v 0.491500 0.049387 0.246532
v 0.483000 0.042863 0.233333
v 0.483000 -0.020318 0.266667
vn -0.865916 0.233385 0.442404
f 1293/1/324 1294/2/324 1295/3/324 1296/4/324
v 0.483000 -0.020318 0.266667
v 0.483000 0.042863 0.233333
v 0.491500 0.036340 0.220135
v 0.491500 -0.027598 0.253870
vn -0.865916 -0.233399 -0.442396
f 1297/1/325 1298/2/325 1299/3/325 1300/4/325
v 0.491500 -0.027598 0.253870
v 0.491500 0.036340 0.220135
v 0.508500 0.036340 0.220135
v 0.508500 -0.027598 0.253870
vn 0.000000 -0.466650 -0.884442
f 1301/1/326 1302/2/326 1303/3/326 1304/4/326
v 0.508500 -0.027598 0.253870
v 0.508500 0.036340 0.220135
v 0.517000 0.042863 0.233333
v 0.517000 -0.020318 0.266667
vn 0.865916 -0.233413 -0.442388
f 1305/1/327 1306/2/327 1307/3/327 1308/4/327
v 0.517000 0.042863 0.233333
v 0.500000 0.108269 0.184409
v 0.514722 0.111657 0.192204
v 0.508500 0.049387 0.246532
vn 0.834824 0.452030 0.314225
f 1309/1/328 1310/2/328 1311/3/328 1312/4/328
v 0.508500 0.049387 0.246532
v 0.514722 0.111657 0.192204
v 0.514722 0.118433 0.207796
v 0.491500 0.049387 0.246532
vn 0.000000 0.657413 0.753531
f 1313/1/329 1314/2/329 1315/3/329 1316/4/329
v 0.491500 0.049387 0.246532
v 0.514722 0.118433 0.207796
v 0.500000 0.121821 0.215591
v 0.483000 0.042863 0.233333
vn -0.833842 0.455434 0.311910
f 1317/1/330 1318/2/330 1319/3/330 1320/4/330
v 0.483000 0.042863 0.233333
v 0.500000 0.121821 0.215591
v 0.485278 0.118433 0.207796
v 0.491500 0.036340 0.220135
vn -0.827539 0.052578 -0.558940
f 1321/1/331 1322/2/331 1323/3/331 1324/4/331
v 0.491500 0.036340 0.220135
v 0.485278 0.118433 0.207796
v 0.485278 0.111657 0.192204
v 0.508500 0.036340 0.220135
vn 0.000000 -0.148640 -0.988891
f 1325/1/332 1326/2/332 1327/3/332 1328/4/332
v 0.508500 0.036340 0.220135
v 0.485278 0.111657 0.192204
v 0.500000 0.108269 0.184409
v 0.517000 0.042863 0.233333
vn 0.828614 0.048668 -0.557700
f 1329/1/333 1330/2/333 1331/3/333 1332/4/333
v 0.500000 0.108269 0.184409
v 0.500000 0.189982 0.151075
v 0.514722 0.193370 0.158871
v 0.514722 0.111657 0.192204
vn 0.499904 -0.327130 -0.801924
f 1333/1/334 1334/2/334 1335/3/334 1336/4/334
v 0.514722 0.111657 0.192204
v 0.514722 0.193370 0.158871
v 0.514722 0.200146 0.174462
v 0.514722 0.118433 0.207796
vn 1.000000 -0.000000 0.000000
f 1337/1/335 1338/2/335 1339/3/335 1340/4/335
v 0.514722 0.118433 0.207796
v 0.514722 0.200146 0.174462
v 0.500000 0.203533 0.182258
v 0.500000 0.121821 0.215591
vn 0.499904 0.327130 0.801924
f 1341/1/336 1342/2/336 1343/3/336 1344/4/336
v 0.500000 0.121821 0.215591
v 0.500000 0.203533 0.182258
v 0.485278 0.200146 0.174462
v 0.485278 0.118433 0.207796
vn -0.499904 0.327130 0.801924
f 1345/1/337 1346/2/337 1347/3/337 1348/4/337
v 0.485278 0.118433 0.207796
v 0.485278 0.200146 0.174462
v 0.485278 0.193370 0.158871
v 0.485278 0.111657 0.192204
vn -1.000000 0.000000 -0.000000
f 1349/1/338 1350/2/338 1351/3/338 1352/4/338
v 0.485278 0.111657 0.192204
v 0.485278 0.193370 0.158871
v 0.500000 0.189982 0.151075
v 0.500000 0.108269 0.184409
vn -0.499904 -0.327130 -0.801924
f 1353/1/339 1354/2/339 1355/3/339 1356/4/339
v 0.500000 0.189982 0.151075
v 0.500000 0.262097 0.117776
v 0.514722 0.265524 0.125554
v 0.514722 0.193370 0.158871
vn 0.499904 -0.363080 -0.786301
f 1357/1/340 1358/2/340 1359/3/340 1360/4/340
v 0.514722 0.193370 0.158871
v 0.514722 0.265524 0.125554
v 0.514722 0.272376 0.141112
v 0.514722 0.200146 0.174462
vn 1.000000 -0.000000 0.000000
f 1361/1/341 1362/2/341 1363/3/341 1364/4/341
v 0.514722 0.200146 0.174462
v 0.514722 0.272376 0.141112
v 0.500000 0.275802 0.148891
v 0.500000 0.203533 0.182258
vn 0.499904 0.363055 0.786312
f 1365/1/342 1366/2/342 1367/3/342 1368/4/342
v 0.500000 0.203533 0.182258
v 0.500000 0.275802 0.148891
v 0.485278 0.272376 0.141112
v 0.485278 0.200146 0.174462
vn -0.499904 0.363047 0.786316
f 1369/1/343 1370/2/343 1371/3/343 1372/4/343
v 0.485278 0.200146 0.174462
v 0.485278 0.272376 0.141112
v 0.485278 0.265524 0.125554
v 0.485278 0.193370 0.158871
vn -1.000000 0.000000 -0.000000
f 1373/1/344 1374/2/344 1375/3/344 1376/4/344
v 0.485278 0.193370 0.158871
v 0.485278 0.265524 0.125554
v 0.500000 0.262097 0.117776
v 0.500000 0.189982 0.151075
vn -0.499904 -0.363072 -0.786305
f 1377/1/345 1378/2/345 1379/3/345 1380/4/345
v 0.500000 0.262097 0.117776
v 0.500000 0.342317 0.084129
v 0.514722 0.345363 0.092065
v 0.514722 0.265524 0.125554
vn 0.499941 -0.334979 -0.798654
f 1381/1/346 1382/2/346 1383/3/346 1384/4/346
v 0.514722 0.265524 0.125554
v 0.514722 0.345363 0.092065
v 0.514722 0.351455 0.107935
v 0.514722 0.272376 0.141112
vn 1.000000 -0.000000 0.000000
f 1385/1/347 1386/2/347 1387/3/347 1388/4/347
v 0.514722 0.272376 0.141112
v 0.514722 0.351455 0.107935
v 0.500000 0.354501 0.115871
v 0.500000 0.275802 0.148891
vn 0.499942 0.335053 0.798622
f 1389/1/348 1390/2/348 1391/3/348 1392/4/348
v 0.500000 0.275802 0.148891
v 0.500000 0.354501 0.115871
v 0.485278 0.351455 0.107935
v 0.485278 0.272376 0.141112
vn -0.499942 0.335078 0.798612
f 1393/1/349 1394/2/349 1395/3/349 1396/4/349
v 0.485278 0.272376 0.141112
v 0.485278 0.351455 0.107935
v 0.485278 0.345363 0.092065
v 0.485278 0.265524 0.125554
vn -1.000000 0.000000 -0.000000
f 1397/1/350 1398/2/350 1399/3/350 1400/4/350
v 0.485278 0.265524 0.125554
v 0.485278 0.345363 0.092065
v 0.500000 0.342317 0.084129
v 0.500000 0.262097 0.117776
vn -0.499941 -0.335004 -0.798643
f 1401/1/351 1402/2/351 1403/3/351 1404/4/351
v 0.500000 0.342317 0.084129
v 0.500000 0.438855 0.050434
v 0.514722 0.441380 0.058550
v 0.514722 0.345363 0.092065
vn 0.499823 -0.285421 -0.817748
f 1405/1/352 1406/2/352 1407/3/352 1408/4/352
v 0.514722 0.345363 0.092065
v 0.514722 0.441380 0.058550
v 0.514722 0.446431 0.074783
v 0.514722 0.351455 0.107935
vn 1.000000 -0.000000 0.000000
f 1409/1/353 1410/2/353 1411/3/353 1412/4/353
v 0.514722 0.351455 0.107935
v 0.514722 0.446431 0.074783
v 0.500000 0.448956 0.082899
v 0.500000 0.354501 0.115871
vn 0.499824 0.285444 0.817740
f 1413/1/354 1414/2/354 1415/3/354 1416/4/354
v 0.500000 0.354501 0.115871
v 0.500000 0.448956 0.082899
v 0.485278 0.446431 0.074783
v 0.485278 0.351455 0.107935
vn -0.499824 0.285452 0.817737
f 1417/1/355 1418/2/355 1419/3/355 1420/4/355
v 0.485278 0.351455 0.107935
v 0.485278 0.446431 0.074783
v 0.485278 0.441380 0.058550
v 0.485278 0.345363 0.092065
vn -1.000000 0.000000 -0.000000
f 1421/1/356 1422/2/356 1423/3/356 1424/4/356
v 0.485278 0.345363 0.092065
v 0.485278 0.441380 0.058550
v 0.500000 0.438855 0.050434
v 0.500000 0.342317 0.084129
vn -0.499823 -0.285429 -0.817745
f 1425/1/357 1426/2/357 1427/3/357 1428/4/357
v 0.500000 0.438855 0.050434
v 0.500000 0.562109 0.016682
v 0.514722 0.563822 0.025008
v 0.514722 0.441380 0.058550
vn 0.499778 -0.228766 -0.835397
f 1429/1/358 1430/2/358 1431/3/358 1432/4/358
v 0.514722 0.441380 0.058550
v 0.514722 0.563822 0.025008
v 0.514722 0.567248 0.041659
v 0.514722 0.446431 0.074783
vn 1.000000 -0.000000 0.000000
f 1433/1/359 1434/2/359 1435/3/359 1436/4/359
v 0.514722 0.446431 0.074783
v 0.514722 0.567248 0.041659
v 0.500000 0.568961 0.049985
v 0.500000 0.448956 0.082899
vn 0.499782 0.229017 0.835326
f 1437/1/360 1438/2/360 1439/3/360 1440/4/360
v 0.500000 0.448956 0.082899
v 0.500000 0.568961 0.049985
v 0.485278 0.567248 0.041659
v 0.485278 0.446431 0.074783
vn -0.499784 0.229103 0.835301
f 1441/1/361 1442/2/361 1443/3/361 1444/4/361
v 0.485278 0.446431 0.074783
v 0.485278 0.567248 0.041659
v 0.485278 0.563822 0.025008
v 0.485278 0.441380 0.058550
vn -1.000000 0.000000 -0.000000
f 1445/1/362 1446/2/362 1447/3/362 1448/4/362
v 0.485278 0.441380 0.058550
v 0.485278 0.563822 0.025008
v 0.500000 0.562109 0.016682
v 0.500000 0.438855 0.050434
vn -0.499780 -0.228849 -0.835373
f 1449/1/363 1450/2/363 1451/3/363 1452/4/363
v 0.500000 0.562109 0.016682
v 0.500000 0.802656 -0.016838
v 0.514722 0.803828 -0.008419
v 0.514722 0.563822 0.025008
vn 0.499221 -0.119586 -0.858183
f 1453/1/364 1454/2/364 1455/3/364 1456/4/364
v 0.514722 0.563822 0.025008
v 0.514722 0.803828 -0.008419
v 0.514722 0.806172 0.008419
v 0.514722 0.567248 0.041659
vn 1.000000 -0.000000 0.000000
f 1457/1/365 1458/2/365 1459/3/365 1460/4/365
v 0.514722 0.567248 0.041659
v 0.514722 0.806172 0.008419
v 0.500000 0.807344 0.016838
v 0.500000 0.568961 0.049985
vn 0.499216 0.119398 0.858212
f 1461/1/366 1462/2/366 1463/3/366 1464/4/366
v 0.500000 0.568961 0.049985
v 0.500000 0.807344 0.016838
v 0.485278 0.806172 0.008419
v 0.485278 0.567248 0.041659
vn -0.499214 0.119335 0.858222
f 1465/1/367 1466/2/367 1467/3/367 1468/4/367
v 0.485278 0.567248 0.041659
v 0.485278 0.806172 0.008419
v 0.485278 0.803828 -0.008419
v 0.485278 0.563822 0.025008
vn -1.000000 0.000000 -0.000000
f 1469/1/368 1470/2/368 1471/3/368 1472/4/368
v 0.485278 0.563822 0.025008
v 0.485278 0.803828 -0.008419
v 0.500000 0.802656 -0.016838
v 0.500000 0.562109 0.016682
vn -0.499219 -0.119524 -0.858192
f 1473/1/369 1474/2/369 1475/3/369 1476/4/369
v 0.500000 0.802656 -0.016838
v 0.500000 0.807344 0.016838
v 0.514722 0.806172 0.008419
v 0.514722 0.803828 -0.008419
vn -0.000000 0.990450 -0.137870
f 1477/1/370 1478/2/370 1479/3/370 1480/4/370
v 0.500000 0.802656 -0.016838
v 0.485278 0.803828 -0.008419
v 0.485278 0.806172 0.008419
v 0.500000 0.807344 0.016838
vn 0.000000 0.990450 -0.137870
f 1481/1/371 1482/2/371 1483/3/371 1484/4/371
