# Generated by scripts/gen_pole_light_mounts.py
mtllib pole_light_mount.mtl
o pole_light_mount_1_straight
vt 0 0
vt 1 0
vt 1 1
vt 0 1
usemtl clamp
v 0.312500 0.062500 1.000000
v 0.687500 0.062500 1.000000
v 0.687500 0.937500 1.000000
v 0.312500 0.937500 1.000000
vn 0.000000 0.000000 1.000000
f 1/1/1 2/2/1 3/3/1 4/4/1
v 0.687500 0.062500 0.900000
v 0.312500 0.062500 0.900000
v 0.312500 0.937500 0.900000
v 0.687500 0.937500 0.900000
vn 0.000000 0.000000 -1.000000
f 5/1/2 6/2/2 7/3/2 8/4/2
v 0.687500 0.062500 1.000000
v 0.687500 0.062500 0.900000
v 0.687500 0.937500 0.900000
v 0.687500 0.937500 1.000000
vn 1.000000 -0.000000 0.000000
f 9/1/3 10/2/3 11/3/3 12/4/3
v 0.312500 0.062500 0.900000
v 0.312500 0.062500 1.000000
v 0.312500 0.937500 1.000000
v 0.312500 0.937500 0.900000
vn -1.000000 0.000000 0.000000
f 13/1/4 14/2/4 15/3/4 16/4/4
v 0.312500 0.937500 1.000000
v 0.687500 0.937500 1.000000
v 0.687500 0.937500 0.900000
v 0.312500 0.937500 0.900000
vn -0.000000 1.000000 0.000000
f 17/1/5 18/2/5 19/3/5 20/4/5
v 0.312500 0.062500 0.900000
v 0.687500 0.062500 0.900000
v 0.687500 0.062500 1.000000
v 0.312500 0.062500 1.000000
vn 0.000000 -1.000000 0.000000
f 21/1/6 22/2/6 23/3/6 24/4/6
v 0.406250 0.312500 0.900000
v 0.593750 0.312500 0.900000
v 0.593750 0.531250 0.900000
v 0.406250 0.531250 0.900000
vn 0.000000 0.000000 1.000000
f 25/1/7 26/2/7 27/3/7 28/4/7
v 0.593750 0.312500 0.800000
v 0.406250 0.312500 0.800000
v 0.406250 0.531250 0.800000
v 0.593750 0.531250 0.800000
vn 0.000000 0.000000 -1.000000
f 29/1/8 30/2/8 31/3/8 32/4/8
v 0.593750 0.312500 0.900000
v 0.593750 0.312500 0.800000
v 0.593750 0.531250 0.800000
v 0.593750 0.531250 0.900000
vn 1.000000 -0.000000 0.000000
f 33/1/9 34/2/9 35/3/9 36/4/9
v 0.406250 0.312500 0.800000
v 0.406250 0.312500 0.900000
v 0.406250 0.531250 0.900000
v 0.406250 0.531250 0.800000
vn -1.000000 0.000000 0.000000
f 37/1/10 38/2/10 39/3/10 40/4/10
v 0.406250 0.531250 0.900000
v 0.593750 0.531250 0.900000
v 0.593750 0.531250 0.800000
v 0.406250 0.531250 0.800000
vn -0.000000 1.000000 0.000000
f 41/1/11 42/2/11 43/3/11 44/4/11
v 0.406250 0.312500 0.800000
v 0.593750 0.312500 0.800000
v 0.593750 0.312500 0.900000
v 0.406250 0.312500 0.900000
vn 0.000000 -1.000000 0.000000
f 45/1/12 46/2/12 47/3/12 48/4/12
v 0.468750 0.125000 0.900000
v 0.531250 0.125000 0.900000
v 0.531250 0.187500 0.900000
v 0.468750 0.187500 0.900000
vn 0.000000 0.000000 1.000000
f 49/1/13 50/2/13 51/3/13 52/4/13
v 0.531250 0.125000 0.880000
v 0.468750 0.125000 0.880000
v 0.468750 0.187500 0.880000
v 0.531250 0.187500 0.880000
vn 0.000000 0.000000 -1.000000
f 53/1/14 54/2/14 55/3/14 56/4/14
v 0.531250 0.125000 0.900000
v 0.531250 0.125000 0.880000
v 0.531250 0.187500 0.880000
v 0.531250 0.187500 0.900000
vn 1.000000 -0.000000 0.000000
f 57/1/15 58/2/15 59/3/15 60/4/15
v 0.468750 0.125000 0.880000
v 0.468750 0.125000 0.900000
v 0.468750 0.187500 0.900000
v 0.468750 0.187500 0.880000
vn -1.000000 0.000000 0.000000
f 61/1/16 62/2/16 63/3/16 64/4/16
v 0.468750 0.187500 0.900000
v 0.531250 0.187500 0.900000
v 0.531250 0.187500 0.880000
v 0.468750 0.187500 0.880000
vn -0.000000 1.000000 0.000000
f 65/1/17 66/2/17 67/3/17 68/4/17
v 0.468750 0.125000 0.880000
v 0.531250 0.125000 0.880000
v 0.531250 0.125000 0.900000
v 0.468750 0.125000 0.900000
vn 0.000000 -1.000000 0.000000
f 69/1/18 70/2/18 71/3/18 72/4/18
v 0.468750 0.812500 0.900000
v 0.531250 0.812500 0.900000
v 0.531250 0.875000 0.900000
v 0.468750 0.875000 0.900000
vn 0.000000 0.000000 1.000000
f 73/1/19 74/2/19 75/3/19 76/4/19
v 0.531250 0.812500 0.880000
v 0.468750 0.812500 0.880000
v 0.468750 0.875000 0.880000
v 0.531250 0.875000 0.880000
vn 0.000000 0.000000 -1.000000
f 77/1/20 78/2/20 79/3/20 80/4/20
v 0.531250 0.812500 0.900000
v 0.531250 0.812500 0.880000
v 0.531250 0.875000 0.880000
v 0.531250 0.875000 0.900000
vn 1.000000 -0.000000 0.000000
f 81/1/21 82/2/21 83/3/21 84/4/21
v 0.468750 0.812500 0.880000
v 0.468750 0.812500 0.900000
v 0.468750 0.875000 0.900000
v 0.468750 0.875000 0.880000
vn -1.000000 0.000000 0.000000
f 85/1/22 86/2/22 87/3/22 88/4/22
v 0.468750 0.875000 0.900000
v 0.531250 0.875000 0.900000
v 0.531250 0.875000 0.880000
v 0.468750 0.875000 0.880000
vn -0.000000 1.000000 0.000000
f 89/1/23 90/2/23 91/3/23 92/4/23
v 0.468750 0.812500 0.880000
v 0.531250 0.812500 0.880000
v 0.531250 0.812500 0.900000
v 0.468750 0.812500 0.900000
vn 0.000000 -1.000000 0.000000
f 93/1/24 94/2/24 95/3/24 96/4/24
usemtl metal
v 0.545000 0.410000 0.860000
v 0.545000 0.410000 0.800000
v 0.538971 0.432500 0.800000
v 0.538971 0.432500 0.860000
vn 0.965926 0.258819 0.000000
f 97/1/25 98/2/25 99/3/25 100/4/25
v 0.538971 0.432500 0.860000
v 0.538971 0.432500 0.800000
v 0.522500 0.448971 0.800000
v 0.522500 0.448971 0.860000
vn 0.707107 0.707107 0.000000
f 101/1/26 102/2/26 103/3/26 104/4/26
v 0.522500 0.448971 0.860000
v 0.522500 0.448971 0.800000
v 0.500000 0.455000 0.800000
v 0.500000 0.455000 0.860000
vn 0.258819 0.965926 0.000000
f 105/1/27 106/2/27 107/3/27 108/4/27
v 0.500000 0.455000 0.860000
v 0.500000 0.455000 0.800000
v 0.477500 0.448971 0.800000
v 0.477500 0.448971 0.860000
vn -0.258819 0.965926 0.000000
f 109/1/28 110/2/28 111/3/28 112/4/28
v 0.477500 0.448971 0.860000
v 0.477500 0.448971 0.800000
v 0.461029 0.432500 0.800000
v 0.461029 0.432500 0.860000
vn -0.707107 0.707107 0.000000
f 113/1/29 114/2/29 115/3/29 116/4/29
v 0.461029 0.432500 0.860000
v 0.461029 0.432500 0.800000
v 0.455000 0.410000 0.800000
v 0.455000 0.410000 0.860000
vn -0.965926 0.258819 0.000000
f 117/1/30 118/2/30 119/3/30 120/4/30
v 0.455000 0.410000 0.860000
v 0.455000 0.410000 0.800000
v 0.461029 0.387500 0.800000
v 0.461029 0.387500 0.860000
vn -0.965926 -0.258819 -0.000000
f 121/1/31 122/2/31 123/3/31 124/4/31
v 0.461029 0.387500 0.860000
v 0.461029 0.387500 0.800000
v 0.477500 0.371029 0.800000
v 0.477500 0.371029 0.860000
vn -0.707107 -0.707107 -0.000000
f 125/1/32 126/2/32 127/3/32 128/4/32
v 0.477500 0.371029 0.860000
v 0.477500 0.371029 0.800000
v 0.500000 0.365000 0.800000
v 0.500000 0.365000 0.860000
vn -0.258819 -0.965926 -0.000000
f 129/1/33 130/2/33 131/3/33 132/4/33
v 0.500000 0.365000 0.860000
v 0.500000 0.365000 0.800000
v 0.522500 0.371029 0.800000
v 0.522500 0.371029 0.860000
vn 0.258819 -0.965926 0.000000
f 133/1/34 134/2/34 135/3/34 136/4/34
v 0.522500 0.371029 0.860000
v 0.522500 0.371029 0.800000
v 0.538971 0.387500 0.800000
v 0.538971 0.387500 0.860000
vn 0.707107 -0.707107 0.000000
f 137/1/35 138/2/35 139/3/35 140/4/35
v 0.538971 0.387500 0.860000
v 0.538971 0.387500 0.800000
v 0.545000 0.410000 0.800000
v 0.545000 0.410000 0.860000
vn 0.965926 -0.258819 0.000000
f 141/1/36 142/2/36 143/3/36 144/4/36
v 0.545000 0.410000 0.800000
v 0.545000 0.410000 0.720000
v 0.538971 0.432394 0.722186
v 0.538971 0.432500 0.800000
vn 0.965926 0.258819 0.000000
f 145/1/37 146/2/37 147/3/37 148/4/37
v 0.538971 0.432500 0.800000
v 0.538971 0.432394 0.722186
v 0.522500 0.448787 0.723787
v 0.522500 0.448971 0.800000
vn 0.707106 0.707106 -0.000967
f 149/1/38 150/2/38 151/3/38 152/4/38
v 0.522500 0.448971 0.800000
v 0.522500 0.448787 0.723787
v 0.500000 0.454787 0.724372
v 0.500000 0.455000 0.800000
vn 0.258818 0.965923 -0.002337
f 153/1/39 154/2/39 155/3/39 156/4/39
v 0.500000 0.455000 0.800000
v 0.500000 0.454787 0.724372
v 0.477500 0.448787 0.723787
v 0.477500 0.448971 0.800000
vn -0.258818 0.965922 -0.002720
f 157/1/40 158/2/40 159/3/40 160/4/40
v 0.477500 0.448971 0.800000
v 0.477500 0.448787 0.723787
v 0.461029 0.432394 0.722186
v 0.461029 0.432500 0.800000
vn -0.707106 0.707106 -0.001711
f 161/1/41 162/2/41 163/3/41 164/4/41
v 0.461029 0.432500 0.800000
v 0.461029 0.432394 0.722186
v 0.455000 0.410000 0.720000
v 0.455000 0.410000 0.800000
vn -0.965926 0.258819 -0.000354
f 165/1/42 166/2/42 167/3/42 168/4/42
v 0.455000 0.410000 0.800000
v 0.455000 0.410000 0.720000
v 0.461029 0.387606 0.717814
v 0.461029 0.387500 0.800000
vn -0.965926 -0.258819 -0.000000
f 169/1/43 170/2/43 171/3/43 172/4/43
v 0.461029 0.387500 0.800000
v 0.461029 0.387606 0.717814
v 0.477500 0.371213 0.716213
v 0.477500 0.371029 0.800000
vn -0.707106 -0.707106 -0.000916
f 173/1/44 174/2/44 175/3/44 176/4/44
v 0.477500 0.371029 0.800000
v 0.477500 0.371213 0.716213
v 0.500000 0.365213 0.715628
v 0.500000 0.365000 0.800000
vn -0.258818 -0.965924 -0.002126
f 177/1/45 178/2/45 179/3/45 180/4/45
v 0.500000 0.365000 0.800000
v 0.500000 0.365213 0.715628
v 0.522500 0.371213 0.716213
v 0.522500 0.371029 0.800000
vn 0.258818 -0.965923 -0.002438
f 181/1/46 182/2/46 183/3/46 184/4/46
v 0.522500 0.371029 0.800000
v 0.522500 0.371213 0.716213
v 0.538971 0.387606 0.717814
v 0.538971 0.387500 0.800000
vn 0.707106 -0.707106 -0.001556
f 185/1/47 186/2/47 187/3/47 188/4/47
v 0.538971 0.387500 0.800000
v 0.538971 0.387606 0.717814
v 0.545000 0.410000 0.720000
v 0.545000 0.410000 0.800000
vn 0.965926 -0.258819 -0.000335
f 189/1/48 190/2/48 191/3/48 192/4/48
v 0.545000 0.410000 0.720000
v 0.545000 0.417097 0.684000
v 0.538971 0.438177 0.691866
v 0.538971 0.432394 0.722186
vn 0.965618 0.255058 0.050280
f 193/1/49 194/2/49 195/3/49 196/4/49
v 0.538971 0.432394 0.722186
v 0.538971 0.438177 0.691866
v 0.522500 0.453609 0.697624
v 0.522500 0.448787 0.723787
vn 0.705634 0.696027 0.132765
f 197/1/50 198/2/50 199/3/50 200/4/50
v 0.522500 0.448787 0.723787
v 0.522500 0.453609 0.697624
v 0.500000 0.459257 0.699732
v 0.500000 0.454787 0.724372
vn 0.257948 0.950155 0.175126
f 201/1/51 202/2/51 203/3/51 204/4/51
v 0.500000 0.454787 0.724372
v 0.500000 0.459257 0.699732
v 0.477500 0.453609 0.697624
v 0.477500 0.448787 0.723787
vn -0.258004 0.950627 0.172459
f 205/1/52 206/2/52 207/3/52 208/4/52
v 0.477500 0.448787 0.723787
v 0.477500 0.453609 0.697624
v 0.461029 0.438177 0.691866
v 0.461029 0.432394 0.722186
vn -0.705828 0.696649 0.128402
f 209/1/53 210/2/53 211/3/53 212/4/53
v 0.461029 0.432394 0.722186
v 0.461029 0.438177 0.691866
v 0.455000 0.417097 0.684000
v 0.455000 0.410000 0.720000
vn -0.965656 0.255224 0.048683
f 213/1/54 214/2/54 215/3/54 216/4/54
v 0.455000 0.410000 0.720000
v 0.455000 0.417097 0.684000
v 0.461029 0.396017 0.676134
v 0.461029 0.387606 0.717814
vn -0.965618 -0.255058 -0.050280
f 217/1/55 218/2/55 219/3/55 220/4/55
v 0.461029 0.387606 0.717814
v 0.461029 0.396017 0.676134
v 0.477500 0.380585 0.670376
v 0.477500 0.371213 0.716213
vn -0.705270 -0.694933 -0.140223
f 221/1/56 222/2/56 223/3/56 224/4/56
v 0.477500 0.371213 0.716213
v 0.477500 0.380585 0.670376
v 0.500000 0.374936 0.668268
v 0.500000 0.365213 0.715628
vn -0.257505 -0.946694 -0.193552
f 225/1/57 226/2/57 227/3/57 228/4/57
v 0.500000 0.365213 0.715628
v 0.500000 0.374936 0.668268
v 0.522500 0.380585 0.670376
v 0.522500 0.371213 0.716213
vn 0.257484 -0.946539 -0.194335
f 229/1/58 230/2/58 231/3/58 232/4/58
v 0.522500 0.371213 0.716213
v 0.522500 0.380585 0.670376
v 0.538971 0.396017 0.676134
v 0.538971 0.387606 0.717814
vn 0.705176 -0.694663 -0.142024
f 233/1/59 234/2/59 235/3/59 236/4/59
v 0.538971 0.387606 0.717814
v 0.538971 0.396017 0.676134
v 0.545000 0.417097 0.684000
v 0.545000 0.410000 0.720000
vn 0.965588 -0.254937 -0.051441
f 237/1/60 238/2/60 239/3/60 240/4/60
v 0.545000 0.417097 0.684000
v 0.545000 0.437693 0.648000
v 0.538971 0.455956 0.661142
v 0.538971 0.438177 0.691866
vn 0.965057 0.227447 0.130123
f 241/1/61 242/2/61 243/3/61 244/4/61
v 0.538971 0.438177 0.691866
v 0.538971 0.455956 0.661142
v 0.522500 0.469325 0.670763
v 0.522500 0.453609 0.697624
vn 0.702111 0.616321 0.356636
f 245/1/62 246/2/62 247/3/62 248/4/62
v 0.522500 0.453609 0.697624
v 0.522500 0.469325 0.670763
v 0.500000 0.474219 0.674284
v 0.500000 0.459257 0.699732
vn 0.255241 0.834534 0.488267
f 249/1/63 250/2/63 251/3/63 252/4/63
v 0.500000 0.459257 0.699732
v 0.500000 0.474219 0.674284
v 0.477500 0.469325 0.670763
v 0.477500 0.453609 0.697624
vn -0.255153 0.833521 0.490040
f 253/1/64 254/2/64 255/3/64 256/4/64
v 0.477500 0.453609 0.697624
v 0.477500 0.469325 0.670763
v 0.461029 0.455956 0.661142
v 0.461029 0.438177 0.691866
vn -0.701818 0.614852 0.359735
f 257/1/65 258/2/65 259/3/65 260/4/65
v 0.461029 0.438177 0.691866
v 0.461029 0.455956 0.661142
v 0.455000 0.437693 0.648000
v 0.455000 0.417097 0.684000
vn -0.965003 0.226977 0.131341
f 261/1/66 262/2/66 263/3/66 264/4/66
v 0.455000 0.417097 0.684000
v 0.455000 0.437693 0.648000
v 0.461029 0.419430 0.634858
v 0.461029 0.396017 0.676134
vn -0.965057 -0.227447 -0.130123
f 265/1/67 266/2/67 267/3/67 268/4/67
v 0.461029 0.396017 0.676134
v 0.461029 0.419430 0.634858
v 0.477500 0.406060 0.625237
v 0.477500 0.380585 0.670376
vn -0.702614 -0.618933 -0.351077
f 269/1/68 270/2/68 271/3/68 272/4/68
v 0.477500 0.380585 0.670376
v 0.477500 0.406060 0.625237
v 0.500000 0.401167 0.621716
v 0.500000 0.374936 0.668268
vn -0.255858 -0.841886 -0.475147
f 273/1/69 274/2/69 275/3/69 276/4/69
v 0.500000 0.374936 0.668268
v 0.500000 0.401167 0.621716
v 0.522500 0.406060 0.625237
v 0.522500 0.380585 0.670376
vn 0.255884 -0.842213 -0.474553
f 277/1/70 278/2/70 279/3/70 280/4/70
v 0.522500 0.380585 0.670376
v 0.522500 0.406060 0.625237
v 0.538971 0.419430 0.634858
v 0.538971 0.396017 0.676134
vn 0.702736 -0.619583 -0.349683
f 281/1/71 282/2/71 283/3/71 284/4/71
v 0.538971 0.396017 0.676134
v 0.538971 0.419430 0.634858
v 0.545000 0.437693 0.648000
v 0.545000 0.417097 0.684000
vn 0.965097 -0.227798 -0.129214
f 285/1/72 286/2/72 287/3/72 288/4/72
v 0.545000 0.437693 0.648000
v 0.545000 0.469771 0.612000
v 0.538971 0.485679 0.627912
v 0.538971 0.455956 0.661142
vn 0.965573 0.194215 0.173060
f 289/1/73 290/2/73 291/3/73 292/4/73
v 0.538971 0.455956 0.661142
v 0.538971 0.485679 0.627912
v 0.522500 0.497324 0.639560
v 0.522500 0.469325 0.670763
vn 0.705114 0.528515 0.472743
f 293/1/74 294/2/74 295/3/74 296/4/74
v 0.522500 0.469325 0.670763
v 0.522500 0.497324 0.639560
v 0.500000 0.501587 0.643824
v 0.500000 0.474219 0.674284
vn 0.257422 0.719192 0.645366
f 297/1/75 298/2/75 299/3/75 300/4/75
v 0.500000 0.474219 0.674284
v 0.500000 0.501587 0.643824
v 0.477500 0.497324 0.639560
v 0.477500 0.469325 0.670763
vn -0.257405 0.718785 0.645825
f 301/1/76 302/2/76 303/3/76 304/4/76
v 0.477500 0.469325 0.670763
v 0.477500 0.497324 0.639560
v 0.461029 0.485679 0.627912
v 0.461029 0.455956 0.661142
vn -0.705054 0.527805 0.473625
f 305/1/77 306/2/77 307/3/77 308/4/77
v 0.461029 0.455956 0.661142
v 0.461029 0.485679 0.627912
v 0.455000 0.469771 0.612000
v 0.455000 0.437693 0.648000
vn -0.965560 0.193923 0.173459
f 309/1/78 310/2/78 311/3/78 312/4/78
v 0.455000 0.437693 0.648000
v 0.455000 0.469771 0.612000
v 0.461029 0.453863 0.596088
v 0.461029 0.419430 0.634858
vn -0.965573 -0.194215 -0.173060
f 313/1/79 314/2/79 315/3/79 316/4/79
v 0.461029 0.419430 0.634858
v 0.461029 0.453863 0.596088
v 0.477500 0.442218 0.584440
v 0.477500 0.406060 0.625237
vn -0.705245 -0.530079 -0.470793
f 317/1/80 318/2/80 319/3/80 320/4/80
v 0.477500 0.406060 0.625237
v 0.477500 0.442218 0.584440
v 0.500000 0.437955 0.580176
v 0.500000 0.401167 0.621716
vn -0.257578 -0.723129 -0.640889
f 321/1/81 322/2/81 323/3/81 324/4/81
v 0.500000 0.401167 0.621716
v 0.500000 0.437955 0.580176
v 0.522500 0.442218 0.584440
v 0.522500 0.406060 0.625237
vn 0.257586 -0.723358 -0.640627
f 325/1/82 326/2/82 327/3/82 328/4/82
v 0.522500 0.406060 0.625237
v 0.522500 0.442218 0.584440
v 0.538971 0.453863 0.596088
v 0.538971 0.419430 0.634858
vn 0.705283 -0.530547 -0.470209
f 329/1/83 330/2/83 331/3/83 332/4/83
v 0.538971 0.419430 0.634858
v 0.538971 0.453863 0.596088
v 0.545000 0.469771 0.612000
v 0.545000 0.437693 0.648000
vn 0.965584 -0.194466 -0.172716
f 333/1/84 334/2/84 335/3/84 336/4/84
v 0.545000 0.469771 0.612000
v 0.545000 0.510193 0.576000
v 0.538971 0.524726 0.593177
v 0.538971 0.485679 0.627912
vn 0.965818 0.172404 0.193578
f 337/1/85 338/2/85 339/3/85 340/4/85
v 0.538971 0.485679 0.627912
v 0.538971 0.524726 0.593177
v 0.522500 0.535365 0.605751
v 0.522500 0.497324 0.639560
vn 0.706507 0.470380 0.528764
f 341/1/86 342/2/86 343/3/86 344/4/86
v 0.522500 0.497324 0.639560
v 0.522500 0.535365 0.605751
v 0.500000 0.539259 0.610353
v 0.500000 0.501587 0.643824
vn 0.258403 0.641756 0.722064
f 345/1/87 346/2/87 347/3/87 348/4/87
v 0.500000 0.501587 0.643824
v 0.500000 0.539259 0.610353
v 0.477500 0.535365 0.605751
v 0.477500 0.497324 0.639560
vn -0.258401 0.641633 0.722174
f 349/1/88 350/2/88 351/3/88 352/4/88
v 0.477500 0.497324 0.639560
v 0.477500 0.535365 0.605751
v 0.461029 0.524726 0.593177
v 0.461029 0.485679 0.627912
vn -0.706497 0.470148 0.528982
f 353/1/89 354/2/89 355/3/89 356/4/89
v 0.461029 0.485679 0.627912
v 0.461029 0.524726 0.593177
v 0.455000 0.510193 0.576000
v 0.455000 0.469771 0.612000
vn -0.965816 0.172298 0.193683
f 357/1/90 358/2/90 359/3/90 360/4/90
v 0.455000 0.469771 0.612000
v 0.455000 0.510193 0.576000
v 0.461029 0.495659 0.558823
v 0.461029 0.453863 0.596088
vn -0.965818 -0.172404 -0.193578
f 361/1/91 362/2/91 363/3/91 364/4/91
v 0.461029 0.453863 0.596088
v 0.461029 0.495659 0.558823
v 0.477500 0.485021 0.546249
v 0.477500 0.442218 0.584440
vn -0.706529 -0.470954 -0.528222
f 365/1/92 366/2/92 367/3/92 368/4/92
v 0.477500 0.442218 0.584440
v 0.477500 0.485021 0.546249
v 0.500000 0.481126 0.541647
v 0.500000 0.437955 0.580176
vn -0.258430 -0.643148 -0.720815
f 369/1/93 370/2/93 371/3/93 372/4/93
v 0.500000 0.437955 0.580176
v 0.500000 0.481126 0.541647
v 0.522500 0.485021 0.546249
v 0.522500 0.442218 0.584440
vn 0.258432 -0.643243 -0.720730
f 373/1/94 374/2/94 375/3/94 376/4/94
v 0.522500 0.442218 0.584440
v 0.522500 0.485021 0.546249
v 0.538971 0.495659 0.558823
v 0.538971 0.453863 0.596088
vn 0.706537 -0.471145 -0.528041
f 377/1/95 378/2/95 379/3/95 380/4/95
v 0.538971 0.453863 0.596088
v 0.538971 0.495659 0.558823
v 0.545000 0.510193 0.576000
v 0.545000 0.469771 0.612000
vn 0.965820 -0.172503 -0.193480
f 381/1/96 382/2/96 383/3/96 384/4/96
v 0.545000 0.510193 0.576000
v 0.545000 0.555000 0.540000
v 0.538971 0.569092 0.557540
v 0.538971 0.524726 0.593177
vn 0.965905 0.162154 0.201826
f 385/1/97 386/2/97 387/3/97 388/4/97
v 0.538971 0.524726 0.593177
v 0.538971 0.569092 0.557540
v 0.522500 0.579409 0.570380
v 0.522500 0.535365 0.605751
vn 0.706992 0.442882 0.551378
f 389/1/98 390/2/98 391/3/98 392/4/98
v 0.522500 0.535365 0.605751
v 0.522500 0.579409 0.570380
v 0.500000 0.583185 0.575080
v 0.500000 0.539259 0.610353
vn 0.258740 0.604832 0.753148
f 393/1/99 394/2/99 395/3/99 396/4/99
v 0.500000 0.539259 0.610353
v 0.500000 0.583185 0.575080
v 0.477500 0.579409 0.570380
v 0.477500 0.535365 0.605751
vn -0.258740 0.604806 0.753169
f 397/1/100 398/2/100 399/3/100 400/4/100
v 0.477500 0.535365 0.605751
v 0.477500 0.579409 0.570380
v 0.461029 0.569092 0.557540
v 0.461029 0.524726 0.593177
vn -0.706991 0.442831 0.551421
f 401/1/101 402/2/101 403/3/101 404/4/101
v 0.461029 0.524726 0.593177
v 0.461029 0.569092 0.557540
v 0.455000 0.555000 0.540000
v 0.455000 0.510193 0.576000
vn -0.965905 0.162129 0.201847
f 405/1/102 406/2/102 407/3/102 408/4/102
v 0.455000 0.510193 0.576000
v 0.455000 0.555000 0.540000
v 0.461029 0.540908 0.522460
v 0.461029 0.495659 0.558823
vn -0.965905 -0.162154 -0.201826
f 409/1/103 410/2/103 411/3/103 412/4/103
v 0.461029 0.495659 0.558823
v 0.461029 0.540908 0.522460
v 0.477500 0.530591 0.509620
v 0.477500 0.485021 0.546249
vn -0.706994 -0.443020 -0.551265
f 413/1/104 414/2/104 415/3/104 416/4/104
v 0.477500 0.485021 0.546249
v 0.477500 0.530591 0.509620
v 0.500000 0.526815 0.504920
v 0.500000 0.481126 0.541647
vn -0.258743 -0.605161 -0.752883
f 417/1/105 418/2/105 419/3/105 420/4/105
v 0.500000 0.481126 0.541647
v 0.500000 0.526815 0.504920
v 0.522500 0.530591 0.509620
v 0.522500 0.485021 0.546249
vn 0.258743 -0.605185 -0.752863
f 421/1/106 422/2/106 423/3/106 424/4/106
v 0.522500 0.485021 0.546249
v 0.522500 0.530591 0.509620
v 0.538971 0.540908 0.522460
v 0.538971 0.495659 0.558823
vn 0.706995 -0.443069 -0.551224
f 425/1/107 426/2/107 427/3/107 428/4/107
v 0.538971 0.495659 0.558823
v 0.538971 0.540908 0.522460
v 0.545000 0.555000 0.540000
v 0.545000 0.510193 0.576000
vn 0.965905 -0.162179 -0.201805
f 429/1/108 430/2/108 431/3/108 432/4/108
v 0.545000 0.555000 0.540000
v 0.545000 0.599807 0.504000
v 0.538971 0.614341 0.521177
v 0.538971 0.569092 0.557540
vn 0.965926 0.162106 0.201765
f 433/1/109 434/2/109 435/3/109 436/4/109
v 0.538971 0.569092 0.557540
v 0.538971 0.614341 0.521177
v 0.522500 0.624979 0.533751
v 0.522500 0.579409 0.570380
vn 0.707107 0.442949 0.551177
f 437/1/110 438/2/110 439/3/110 440/4/110
v 0.522500 0.579409 0.570380
v 0.522500 0.624979 0.533751
v 0.500000 0.628874 0.538353
v 0.500000 0.583185 0.575080
vn 0.258819 0.605148 0.752867
f 441/1/111 442/2/111 443/3/111 444/4/111
v 0.500000 0.583185 0.575080
v 0.500000 0.628874 0.538353
v 0.477500 0.624979 0.533751
v 0.477500 0.579409 0.570380
vn -0.258819 0.605172 0.752847
f 445/1/112 446/2/112 447/3/112 448/4/112
v 0.477500 0.579409 0.570380
v 0.477500 0.624979 0.533751
v 0.461029 0.614341 0.521177
v 0.461029 0.569092 0.557540
vn -0.707107 0.442999 0.551137
f 449/1/113 450/2/113 451/3/113 452/4/113
v 0.461029 0.569092 0.557540
v 0.461029 0.614341 0.521177
v 0.455000 0.599807 0.504000
v 0.455000 0.555000 0.540000
vn -0.965926 0.162131 0.201745
f 453/1/114 454/2/114 455/3/114 456/4/114
v 0.455000 0.555000 0.540000
v 0.455000 0.599807 0.504000
v 0.461029 0.585274 0.486823
v 0.461029 0.540908 0.522460
vn -0.965926 -0.162106 -0.201765
f 457/1/115 458/2/115 459/3/115 460/4/115
v 0.461029 0.540908 0.522460
v 0.461029 0.585274 0.486823
v 0.477500 0.574635 0.474249
v 0.477500 0.530591 0.509620
vn -0.707107 -0.442810 -0.551289
f 461/1/116 462/2/116 463/3/116 464/4/116
v 0.477500 0.530591 0.509620
v 0.477500 0.574635 0.474249
v 0.500000 0.570741 0.469647
v 0.500000 0.526815 0.504920
vn -0.258819 -0.604819 -0.753131
f 465/1/117 466/2/117 467/3/117 468/4/117
v 0.500000 0.526815 0.504920
v 0.500000 0.570741 0.469647
v 0.522500 0.574635 0.474249
v 0.522500 0.530591 0.509620
vn 0.258819 -0.604792 -0.753153
f 469/1/118 470/2/118 471/3/118 472/4/118
v 0.522500 0.530591 0.509620
v 0.522500 0.574635 0.474249
v 0.538971 0.585274 0.486823
v 0.538971 0.540908 0.522460
vn 0.707107 -0.442758 -0.551331
f 473/1/119 474/2/119 475/3/119 476/4/119
v 0.538971 0.540908 0.522460
v 0.538971 0.585274 0.486823
v 0.545000 0.599807 0.504000
v 0.545000 0.555000 0.540000
vn 0.965926 -0.162080 -0.201786
f 477/1/120 478/2/120 479/3/120 480/4/120
v 0.545000 0.599807 0.504000
v 0.545000 0.640229 0.468000
v 0.538971 0.656137 0.483912
v 0.538971 0.614341 0.521177
vn 0.965905 0.172188 0.193336
f 481/1/121 482/2/121 483/3/121 484/4/121
v 0.538971 0.614341 0.521177
v 0.538971 0.656137 0.483912
v 0.522500 0.667782 0.495560
v 0.522500 0.624979 0.533751
vn 0.706988 0.470649 0.527880
f 485/1/122 486/2/122 487/3/122 488/4/122
v 0.522500 0.624979 0.533751
v 0.522500 0.667782 0.495560
v 0.500000 0.672045 0.499824
v 0.500000 0.628874 0.538353
vn 0.258736 0.643094 0.720754
f 489/1/123 490/2/123 491/3/123 492/4/123
v 0.500000 0.628874 0.538353
v 0.500000 0.672045 0.499824
v 0.477500 0.667782 0.495560
v 0.477500 0.624979 0.533751
vn -0.258735 0.643189 0.720670
f 493/1/124 494/2/124 495/3/124 496/4/124
v 0.477500 0.624979 0.533751
v 0.477500 0.667782 0.495560
v 0.461029 0.656137 0.483912
v 0.461029 0.614341 0.521177
vn -0.706985 0.470848 0.527708
f 497/1/125 498/2/125 499/3/125 500/4/125
v 0.461029 0.614341 0.521177
v 0.461029 0.656137 0.483912
v 0.455000 0.640229 0.468000
v 0.455000 0.599807 0.504000
vn -0.965904 0.172295 0.193246
f 501/1/126 502/2/126 503/3/126 504/4/126
v 0.455000 0.599807 0.504000
v 0.455000 0.640229 0.468000
v 0.461029 0.624321 0.452088
v 0.461029 0.585274 0.486823
vn -0.965905 -0.172188 -0.193336
f 505/1/127 506/2/127 507/3/127 508/4/127
v 0.461029 0.585274 0.486823
v 0.461029 0.624321 0.452088
v 0.477500 0.612676 0.440440
v 0.477500 0.574635 0.474249
vn -0.706998 -0.470053 -0.528397
f 509/1/128 510/2/128 511/3/128 512/4/128
v 0.477500 0.574635 0.474249
v 0.477500 0.612676 0.440440
v 0.500000 0.608413 0.436176
v 0.500000 0.570741 0.469647
vn -0.258747 -0.641695 -0.721996
f 513/1/129 514/2/129 515/3/129 516/4/129
v 0.500000 0.570741 0.469647
v 0.500000 0.608413 0.436176
v 0.522500 0.612676 0.440440
v 0.522500 0.574635 0.474249
vn 0.258748 -0.641571 -0.722105
f 517/1/130 518/2/130 519/3/130 520/4/130
v 0.522500 0.574635 0.474249
v 0.522500 0.612676 0.440440
v 0.538971 0.624321 0.452088
v 0.538971 0.585274 0.486823
vn 0.707002 -0.469813 -0.528605
f 521/1/131 522/2/131 523/3/131 524/4/131
v 0.538971 0.585274 0.486823
v 0.538971 0.624321 0.452088
v 0.545000 0.640229 0.468000
v 0.545000 0.599807 0.504000
vn 0.965906 -0.172074 -0.193433
f 525/1/132 526/2/132 527/3/132 528/4/132
v 0.545000 0.640229 0.468000
v 0.545000 0.672307 0.432000
v 0.538971 0.690570 0.445142
v 0.538971 0.656137 0.483912
vn 0.965818 0.193534 0.172453
f 529/1/133 530/2/133 531/3/133 532/4/133
v 0.538971 0.656137 0.483912
v 0.538971 0.690570 0.445142
v 0.522500 0.703940 0.454763
v 0.522500 0.667782 0.495560
vn 0.706485 0.529155 0.469972
f 533/1/134 534/2/134 535/3/134 536/4/134
v 0.522500 0.667782 0.495560
v 0.522500 0.703940 0.454763
v 0.500000 0.708833 0.458284
v 0.500000 0.672045 0.499824
vn 0.258379 0.722969 0.640747
f 537/1/135 538/2/135 539/3/135 540/4/135
v 0.500000 0.672045 0.499824
v 0.500000 0.708833 0.458284
v 0.477500 0.703940 0.454763
v 0.477500 0.667782 0.495560
vn -0.258374 0.723201 0.640487
f 541/1/136 542/2/136 543/3/136 544/4/136
v 0.477500 0.667782 0.495560
v 0.477500 0.703940 0.454763
v 0.461029 0.690570 0.445142
v 0.461029 0.656137 0.483912
vn -0.706462 0.529667 0.469429
f 545/1/137 546/2/137 547/3/137 548/4/137
v 0.461029 0.656137 0.483912
v 0.461029 0.690570 0.445142
v 0.455000 0.672307 0.432000
v 0.455000 0.640229 0.468000
vn -0.965812 0.193832 0.172153
f 549/1/138 550/2/138 551/3/138 552/4/138
v 0.455000 0.640229 0.468000
v 0.455000 0.672307 0.432000
v 0.461029 0.654044 0.418858
v 0.461029 0.624321 0.452088
vn -0.965818 -0.193534 -0.172453
f 553/1/139 554/2/139 555/3/139 556/4/139
v 0.461029 0.624321 0.452088
v 0.461029 0.654044 0.418858
v 0.477500 0.640675 0.409237
v 0.477500 0.612676 0.440440
vn -0.706556 -0.527444 -0.471785
f 557/1/140 558/2/140 559/3/140 560/4/140
v 0.477500 0.612676 0.440440
v 0.477500 0.640675 0.409237
v 0.500000 0.635781 0.405716
v 0.500000 0.608413 0.436176
vn -0.258465 -0.718985 -0.645180
f 561/1/141 562/2/141 563/3/141 564/4/141
v 0.500000 0.608413 0.436176
v 0.500000 0.635781 0.405716
v 0.522500 0.640675 0.409237
v 0.522500 0.612676 0.440440
vn 0.258473 -0.718573 -0.645635
f 565/1/142 566/2/142 567/3/142 568/4/142
v 0.522500 0.612676 0.440440
v 0.522500 0.640675 0.409237
v 0.538971 0.654044 0.418858
v 0.538971 0.624321 0.452088
vn 0.706587 -0.526668 -0.472605
f 569/1/143 570/2/143 571/3/143 572/4/143
v 0.538971 0.624321 0.452088
v 0.538971 0.654044 0.418858
v 0.545000 0.672307 0.432000
v 0.545000 0.640229 0.468000
vn 0.965825 -0.193188 -0.172802
f 573/1/144 574/2/144 575/3/144 576/4/144
v 0.545000 0.672307 0.432000
v 0.545000 0.692903 0.396000
v 0.538971 0.713983 0.403866
v 0.538971 0.690570 0.445142
vn 0.965573 0.225793 0.129177
f 577/1/145 578/2/145 579/3/145 580/4/145
v 0.538971 0.690570 0.445142
v 0.538971 0.713983 0.403866
v 0.522500 0.729415 0.409624
v 0.522500 0.703940 0.454763
vn 0.705046 0.616837 0.349888
f 581/1/146 582/2/146 583/3/146 584/4/146
v 0.522500 0.703940 0.454763
v 0.522500 0.729415 0.409624
v 0.500000 0.735064 0.411732
v 0.500000 0.708833 0.458284
vn 0.257360 0.841539 0.474950
f 585/1/147 586/2/147 587/3/147 588/4/147
v 0.500000 0.708833 0.458284
v 0.500000 0.735064 0.411732
v 0.477500 0.729415 0.409624
v 0.477500 0.703940 0.454763
vn -0.257342 0.841876 0.474363
f 589/1/148 590/2/148 591/3/148 592/4/148
v 0.477500 0.703940 0.454763
v 0.477500 0.729415 0.409624
v 0.461029 0.713983 0.403866
v 0.461029 0.690570 0.445142
vn -0.704963 0.617662 0.348598
f 593/1/149 594/2/149 595/3/149 596/4/149
v 0.461029 0.690570 0.445142
v 0.461029 0.713983 0.403866
v 0.455000 0.692903 0.396000
v 0.455000 0.672307 0.432000
vn -0.965547 0.226349 0.128392
f 597/1/150 598/2/150 599/3/150 600/4/150
v 0.455000 0.672307 0.432000
v 0.455000 0.692903 0.396000
v 0.461029 0.671823 0.388134
v 0.461029 0.654044 0.418858
vn -0.965573 -0.225793 -0.129177
f 601/1/151 602/2/151 603/3/151 604/4/151
v 0.461029 0.654044 0.418858
v 0.461029 0.671823 0.388134
v 0.477500 0.656391 0.382376
v 0.477500 0.640675 0.409237
vn -0.705363 -0.613533 -0.355022
f 605/1/152 606/2/152 607/3/152 608/4/152
v 0.477500 0.640675 0.409237
v 0.477500 0.656391 0.382376
v 0.500000 0.650743 0.380268
v 0.500000 0.635781 0.405716
vn -0.257744 -0.833961 -0.487931
f 609/1/153 610/2/153 611/3/153 612/4/153
v 0.500000 0.635781 0.405716
v 0.500000 0.650743 0.380268
v 0.522500 0.656391 0.382376
v 0.522500 0.640675 0.409237
vn 0.257791 -0.832918 -0.489686
f 613/1/154 614/2/154 615/3/154 616/4/154
v 0.522500 0.640675 0.409237
v 0.522500 0.656391 0.382376
v 0.538971 0.671823 0.388134
v 0.538971 0.654044 0.418858
vn 0.705528 -0.611680 -0.357880
f 617/1/155 618/2/155 619/3/155 620/4/155
v 0.538971 0.654044 0.418858
v 0.538971 0.671823 0.388134
v 0.545000 0.692903 0.396000
v 0.545000 0.672307 0.432000
vn 0.965606 -0.225049 -0.130225
f 621/1/156 622/2/156 623/3/156 624/4/156
v 0.545000 0.692903 0.396000
v 0.545000 0.700000 0.360000
v 0.538971 0.720553 0.369155
v 0.538971 0.713983 0.403866
vn 0.965057 0.257091 0.050681
f 625/1/157 626/2/157 627/3/157 628/4/157
v 0.538971 0.713983 0.403866
v 0.538971 0.720553 0.369155
v 0.522500 0.735599 0.375858
v 0.522500 0.729415 0.409624
vn 0.701949 0.699803 0.132451
f 629/1/158 630/2/158 631/3/158 632/4/158
v 0.522500 0.729415 0.409624
v 0.522500 0.735599 0.375858
v 0.500000 0.741106 0.378311
v 0.500000 0.735064 0.411732
vn 0.255082 0.951103 0.174176
f 633/1/159 634/2/159 635/3/159 636/4/159
v 0.500000 0.735064 0.411732
v 0.500000 0.741106 0.378311
v 0.477500 0.735599 0.375858
v 0.477500 0.729415 0.409624
vn -0.254985 0.951519 0.172032
f 637/1/160 638/2/160 639/3/160 640/4/160
v 0.477500 0.729415 0.409624
v 0.477500 0.735599 0.375858
v 0.461029 0.720553 0.369155
v 0.461029 0.713983 0.403866
vn -0.701580 0.700934 0.128362
f 641/1/161 642/2/161 643/3/161 644/4/161
v 0.461029 0.713983 0.403866
v 0.461029 0.720553 0.369155
v 0.455000 0.700000 0.360000
v 0.455000 0.692903 0.396000
vn -0.964973 0.257773 0.048788
f 645/1/162 646/2/162 647/3/162 648/4/162
v 0.455000 0.692903 0.396000
v 0.455000 0.700000 0.360000
v 0.461029 0.679447 0.350845
v 0.461029 0.671823 0.388134
vn -0.965057 -0.257091 -0.050681
f 649/1/163 650/2/163 651/3/163 652/4/163
v 0.461029 0.671823 0.388134
v 0.461029 0.679447 0.350845
v 0.477500 0.664401 0.344142
v 0.477500 0.656391 0.382376
vn -0.702804 -0.696966 -0.142498
f 653/1/164 654/2/164 655/3/164 656/4/164
v 0.477500 0.656391 0.382376
v 0.477500 0.664401 0.344142
v 0.500000 0.658894 0.341689
v 0.500000 0.650743 0.380268
vn -0.256081 -0.946115 -0.198212
f 657/1/165 658/2/165 659/3/165 660/4/165
v 0.500000 0.650743 0.380268
v 0.500000 0.658894 0.341689
v 0.522500 0.664401 0.344142
v 0.522500 0.656391 0.382376
vn 0.256143 -0.945759 -0.199825
f 661/1/166 662/2/166 663/3/166 664/4/166
v 0.522500 0.656391 0.382376
v 0.522500 0.664401 0.344142
v 0.538971 0.679447 0.350845
v 0.538971 0.671823 0.388134
vn 0.703069 -0.696011 -0.145815
f 665/1/167 666/2/167 667/3/167 668/4/167
v 0.538971 0.671823 0.388134
v 0.538971 0.679447 0.350845
v 0.545000 0.700000 0.360000
v 0.545000 0.692903 0.396000
vn 0.965132 -0.256458 -0.052434
f 669/1/168 670/2/168 671/3/168 672/4/168
v 0.545000 0.700000 0.360000
v 0.545000 0.850000 0.160000
v 0.538971 0.868000 0.173500
v 0.538971 0.720553 0.369155
vn 0.964244 0.212012 0.159009
f 673/1/169 674/2/169 675/3/169 676/4/169
v 0.538971 0.720553 0.369155
v 0.538971 0.868000 0.173500
v 0.522500 0.881177 0.183383
v 0.522500 0.735599 0.375858
vn 0.697882 0.571979 0.431046
f 677/1/170 678/2/170 679/3/170 680/4/170
v 0.522500 0.735599 0.375858
v 0.522500 0.881177 0.183383
v 0.500000 0.886000 0.187000
v 0.500000 0.741106 0.378311
vn 0.252527 0.771714 0.583684
f 681/1/171 682/2/171 683/3/171 684/4/171
v 0.500000 0.741106 0.378311
v 0.500000 0.886000 0.187000
v 0.477500 0.881177 0.183383
v 0.477500 0.735599 0.375858
vn -0.252491 0.771341 0.584193
f 685/1/172 686/2/172 687/3/172 688/4/172
v 0.477500 0.735599 0.375858
v 0.477500 0.881177 0.183383
v 0.461029 0.868000 0.173500
v 0.461029 0.720553 0.369155
vn -0.697737 0.571338 0.432130
f 689/1/173 690/2/173 691/3/173 692/4/173
v 0.461029 0.720553 0.369155
v 0.461029 0.868000 0.173500
v 0.455000 0.850000 0.160000
v 0.455000 0.700000 0.360000
vn -0.964209 0.211749 0.159575
f 693/1/174 694/2/174 695/3/174 696/4/174
v 0.455000 0.700000 0.360000
v 0.455000 0.850000 0.160000
v 0.461029 0.832000 0.146500
v 0.461029 0.679447 0.350845
vn -0.964244 -0.212012 -0.159009
f 697/1/175 698/2/175 699/3/175 700/4/175
v 0.461029 0.679447 0.350845
v 0.461029 0.832000 0.146500
v 0.477500 0.818823 0.136617
v 0.477500 0.664401 0.344142
vn -0.698251 -0.573632 -0.428244
f 701/1/176 702/2/176 703/3/176 704/4/176
v 0.477500 0.664401 0.344142
v 0.477500 0.818823 0.136617
v 0.500000 0.814000 0.133000
v 0.500000 0.658894 0.341689
vn -0.252950 -0.776171 -0.577559
f 705/1/177 706/2/177 707/3/177 708/4/177
v 0.500000 0.658894 0.341689
v 0.500000 0.814000 0.133000
v 0.522500 0.818823 0.136617
v 0.522500 0.664401 0.344142
vn 0.252980 -0.776489 -0.577118
f 709/1/178 710/2/178 711/3/178 712/4/178
v 0.522500 0.664401 0.344142
v 0.522500 0.818823 0.136617
v 0.538971 0.832000 0.146500
v 0.538971 0.679447 0.350845
vn 0.698377 -0.574203 -0.427272
f 713/1/179 714/2/179 715/3/179 716/4/179
v 0.538971 0.679447 0.350845
v 0.538971 0.832000 0.146500
v 0.545000 0.850000 0.160000
v 0.545000 0.700000 0.360000
vn 0.964278 -0.212264 -0.158465
f 717/1/180 718/2/180 719/3/180 720/4/180
v 0.545000 0.850000 0.160000
v 0.500000 0.886000 0.187000
v 0.522500 0.881177 0.183383
v 0.538971 0.868000 0.173500
vn 0.000000 0.600000 -0.800000
f 721/1/181 722/2/181 723/3/181 724/4/181
v 0.545000 0.850000 0.160000
v 0.461029 0.868000 0.173500
v 0.477500 0.881177 0.183383
v 0.500000 0.886000 0.187000
vn -0.000000 0.600000 -0.800000
f 725/1/182 726/2/182 727/3/182 728/4/182
v 0.545000 0.850000 0.160000
v 0.461029 0.832000 0.146500
v 0.455000 0.850000 0.160000
v 0.461029 0.868000 0.173500
vn -0.000000 0.600000 -0.800000
f 729/1/183 730/2/183 731/3/183 732/4/183
v 0.545000 0.850000 0.160000
v 0.500000 0.814000 0.133000
v 0.477500 0.818823 0.136617
v 0.461029 0.832000 0.146500
vn -0.000000 0.600000 -0.800000
f 733/1/184 734/2/184 735/3/184 736/4/184
v 0.545000 0.850000 0.160000
v 0.538971 0.832000 0.146500
v 0.522500 0.818823 0.136617
v 0.500000 0.814000 0.133000
vn -0.000000 0.600000 -0.800000
f 737/1/185 738/2/185 739/3/185 740/4/185
v 0.534000 0.842500 0.170000
v 0.534000 0.850000 0.000000
v 0.529445 0.866983 0.000749
v 0.529445 0.859483 0.170749
vn 0.965926 0.258568 0.011407
f 741/1/186 742/2/186 743/3/186 744/4/186
v 0.529445 0.859483 0.170749
v 0.529445 0.866983 0.000749
v 0.517000 0.879416 0.001298
v 0.517000 0.871916 0.171298
vn 0.707107 0.706420 0.031166
f 745/1/187 746/2/187 747/3/187 748/4/187
v 0.517000 0.871916 0.171298
v 0.517000 0.879416 0.001298
v 0.500000 0.883967 0.001499
v 0.500000 0.876467 0.171499
vn 0.258819 0.964987 0.042573
f 749/1/188 750/2/188 751/3/188 752/4/188
v 0.500000 0.876467 0.171499
v 0.500000 0.883967 0.001499
v 0.483000 0.879416 0.001298
v 0.483000 0.871916 0.171298
vn -0.258819 0.964987 0.042573
f 753/1/189 754/2/189 755/3/189 756/4/189
v 0.483000 0.871916 0.171298
v 0.483000 0.879416 0.001298
v 0.470555 0.866983 0.000749
v 0.470555 0.859483 0.170749
vn -0.707107 0.706420 0.031166
f 757/1/190 758/2/190 759/3/190 760/4/190
v 0.470555 0.859483 0.170749
v 0.470555 0.866983 0.000749
v 0.466000 0.850000 0.000000
v 0.466000 0.842500 0.170000
vn -0.965926 0.258568 0.011407
f 761/1/191 762/2/191 763/3/191 764/4/191
v 0.466000 0.842500 0.170000
v 0.466000 0.850000 0.000000
v 0.470555 0.833017 -0.000749
v 0.470555 0.825517 0.169251
vn -0.965926 -0.258568 -0.011407
f 765/1/192 766/2/192 767/3/192 768/4/192
v 0.470555 0.825517 0.169251
v 0.470555 0.833017 -0.000749
v 0.483000 0.820584 -0.001298
v 0.483000 0.813084 0.168702
vn -0.707107 -0.706420 -0.031166
f 769/1/193 770/2/193 771/3/193 772/4/193
v 0.483000 0.813084 0.168702
v 0.483000 0.820584 -0.001298
v 0.500000 0.816033 -0.001499
v 0.500000 0.808533 0.168501
vn -0.258819 -0.964987 -0.042573
f 773/1/194 774/2/194 775/3/194 776/4/194
v 0.500000 0.808533 0.168501
v 0.500000 0.816033 -0.001499
v 0.517000 0.820584 -0.001298
v 0.517000 0.813084 0.168702
vn 0.258819 -0.964987 -0.042573
f 777/1/195 778/2/195 779/3/195 780/4/195
v 0.517000 0.813084 0.168702
v 0.517000 0.820584 -0.001298
v 0.529445 0.833017 -0.000749
v 0.529445 0.825517 0.169251
vn 0.707107 -0.706420 -0.031166
f 781/1/196 782/2/196 783/3/196 784/4/196
v 0.529445 0.825517 0.169251
v 0.529445 0.833017 -0.000749
v 0.534000 0.850000 0.000000
v 0.534000 0.842500 0.170000
vn 0.965926 -0.258568 -0.011407
f 785/1/197 786/2/197 787/3/197 788/4/197
v 0.534000 0.850000 0.000000
v 0.500000 0.883967 0.001499
v 0.517000 0.879416 0.001298
v 0.529445 0.866983 0.000749
vn -0.000000 0.044075 -0.999028
f 789/1/198 790/2/198 791/3/198 792/4/198
v 0.534000 0.850000 0.000000
v 0.470555 0.866983 0.000749
v 0.483000 0.879416 0.001298
v 0.500000 0.883967 0.001499
vn 0.000000 0.044075 -0.999028
f 793/1/199 794/2/199 795/3/199 796/4/199
v 0.534000 0.850000 0.000000
v 0.470555 0.833017 -0.000749
v 0.466000 0.850000 0.000000
v 0.470555 0.866983 0.000749
vn -0.000000 0.044075 -0.999028
f 797/1/200 798/2/200 799/3/200 800/4/200
v 0.534000 0.850000 0.000000
v 0.500000 0.816033 -0.001499
v 0.483000 0.820584 -0.001298
v 0.470555 0.833017 -0.000749
vn -0.000000 0.044075 -0.999028
f 801/1/201 802/2/201 803/3/201 804/4/201
v 0.534000 0.850000 0.000000
v 0.529445 0.833017 -0.000749
v 0.517000 0.820584 -0.001298
v 0.500000 0.816033 -0.001499
vn -0.000000 0.044075 -0.999028
f 805/1/202 806/2/202 807/3/202 808/4/202
v 0.522000 0.125000 0.890000
v 0.522000 0.673000 0.360000
v 0.515556 0.683815 0.371182
v 0.515556 0.135815 0.901182
vn 0.923880 0.266043 0.275078
f 809/1/203 810/2/203 811/3/203 812/4/203
v 0.515556 0.135815 0.901182
v 0.515556 0.683815 0.371182
v 0.500000 0.688294 0.375814
v 0.500000 0.140294 0.905814
vn 0.382683 0.642284 0.664097
f 813/1/204 814/2/204 815/3/204 816/4/204
v 0.500000 0.140294 0.905814
v 0.500000 0.688294 0.375814
v 0.484444 0.683815 0.371182
v 0.484444 0.135815 0.901182
vn -0.382683 0.642284 0.664097
f 817/1/205 818/2/205 819/3/205 820/4/205
v 0.484444 0.135815 0.901182
v 0.484444 0.683815 0.371182
v 0.478000 0.673000 0.360000
v 0.478000 0.125000 0.890000
vn -0.923880 0.266043 0.275078
f 821/1/206 822/2/206 823/3/206 824/4/206
v 0.478000 0.125000 0.890000
v 0.478000 0.673000 0.360000
v 0.484444 0.662185 0.348818
v 0.484444 0.114185 0.878818
vn -0.923880 -0.266043 -0.275078
f 825/1/207 826/2/207 827/3/207 828/4/207
v 0.484444 0.114185 0.878818
v 0.484444 0.662185 0.348818
v 0.500000 0.657706 0.344186
v 0.500000 0.109706 0.874186
vn -0.382683 -0.642284 -0.664097
f 829/1/208 830/2/208 831/3/208 832/4/208
v 0.500000 0.109706 0.874186
v 0.500000 0.657706 0.344186
v 0.515556 0.662185 0.348818
v 0.515556 0.114185 0.878818
vn 0.382683 -0.642284 -0.664097
f 833/1/209 834/2/209 835/3/209 836/4/209
v 0.515556 0.114185 0.878818
v 0.515556 0.662185 0.348818
v 0.522000 0.673000 0.360000
v 0.522000 0.125000 0.890000
vn 0.923880 -0.266043 -0.275078
f 837/1/210 838/2/210 839/3/210 840/4/210
v 0.522000 0.673000 0.360000
v 0.484444 0.683815 0.371182
v 0.500000 0.688294 0.375814
v 0.515556 0.683815 0.371182
vn 0.000000 0.718814 -0.695203
f 841/1/211 842/2/211 843/3/211 844/4/211
v 0.522000 0.673000 0.360000
v 0.484444 0.662185 0.348818
v 0.478000 0.673000 0.360000
v 0.484444 0.683815 0.371182
vn 0.000000 0.718814 -0.695203
f 845/1/212 846/2/212 847/3/212 848/4/212
v 0.522000 0.673000 0.360000
v 0.515556 0.662185 0.348818
v 0.500000 0.657706 0.344186
v 0.484444 0.662185 0.348818
vn 0.000000 0.718814 -0.695203
f 849/1/213 850/2/213 851/3/213 852/4/213
