# Generated by scripts/gen_pole_light_mounts.py
mtllib pole_light_mount.mtl
o pole_light_mount_2_left_wired
vt 0 0
vt 1 0
vt 1 1
vt 0 1
usemtl clamp
v 0.312500 0.062500 1.000000
v 0.687500 0.062500 1.000000
v 0.687500 0.937500 1.000000
v 0.312500 0.937500 1.000000
vn 0.000000 0.000000 1.000000
f 1/1/1 2/2/1 3/3/1 4/4/1
v 0.687500 0.062500 0.900000
v 0.312500 0.062500 0.900000
v 0.312500 0.937500 0.900000
v 0.687500 0.937500 0.900000
vn 0.000000 0.000000 -1.000000
f 5/1/2 6/2/2 7/3/2 8/4/2
v 0.687500 0.062500 1.000000
v 0.687500 0.062500 0.900000
v 0.687500 0.937500 0.900000
v 0.687500 0.937500 1.000000
vn 1.000000 -0.000000 0.000000
f 9/1/3 10/2/3 11/3/3 12/4/3
v 0.312500 0.062500 0.900000
v 0.312500 0.062500 1.000000
v 0.312500 0.937500 1.000000
v 0.312500 0.937500 0.900000
vn -1.000000 0.000000 0.000000
f 13/1/4 14/2/4 15/3/4 16/4/4
v 0.312500 0.937500 1.000000
v 0.687500 0.937500 1.000000
v 0.687500 0.937500 0.900000
v 0.312500 0.937500 0.900000
vn -0.000000 1.000000 0.000000
f 17/1/5 18/2/5 19/3/5 20/4/5
v 0.312500 0.062500 0.900000
v 0.687500 0.062500 0.900000
v 0.687500 0.062500 1.000000
v 0.312500 0.062500 1.000000
vn 0.000000 -1.000000 0.000000
f 21/1/6 22/2/6 23/3/6 24/4/6
v 0.406250 0.300625 0.900000
v 0.593750 0.300625 0.900000
v 0.593750 0.519375 0.900000
v 0.406250 0.519375 0.900000
vn 0.000000 0.000000 1.000000
f 25/1/7 26/2/7 27/3/7 28/4/7
v 0.593750 0.300625 0.800000
v 0.406250 0.300625 0.800000
v 0.406250 0.519375 0.800000
v 0.593750 0.519375 0.800000
vn 0.000000 0.000000 -1.000000
f 29/1/8 30/2/8 31/3/8 32/4/8
v 0.593750 0.300625 0.900000
v 0.593750 0.300625 0.800000
v 0.593750 0.519375 0.800000
v 0.593750 0.519375 0.900000
vn 1.000000 -0.000000 0.000000
f 33/1/9 34/2/9 35/3/9 36/4/9
v 0.406250 0.300625 0.800000
v 0.406250 0.300625 0.900000
v 0.406250 0.519375 0.900000
v 0.406250 0.519375 0.800000
vn -1.000000 0.000000 0.000000
f 37/1/10 38/2/10 39/3/10 40/4/10
v 0.406250 0.519375 0.900000
v 0.593750 0.519375 0.900000
v 0.593750 0.519375 0.800000
v 0.406250 0.519375 0.800000
vn -0.000000 1.000000 0.000000
f 41/1/11 42/2/11 43/3/11 44/4/11
v 0.406250 0.300625 0.800000
v 0.593750 0.300625 0.800000
v 0.593750 0.300625 0.900000
v 0.406250 0.300625 0.900000
vn 0.000000 -1.000000 0.000000
f 45/1/12 46/2/12 47/3/12 48/4/12
v 0.468750 0.125000 0.900000
v 0.531250 0.125000 0.900000
v 0.531250 0.187500 0.900000
v 0.468750 0.187500 0.900000
vn 0.000000 0.000000 1.000000
f 49/1/13 50/2/13 51/3/13 52/4/13
v 0.531250 0.125000 0.880000
v 0.468750 0.125000 0.880000
v 0.468750 0.187500 0.880000
v 0.531250 0.187500 0.880000
vn 0.000000 0.000000 -1.000000
f 53/1/14 54/2/14 55/3/14 56/4/14
v 0.531250 0.125000 0.900000
v 0.531250 0.125000 0.880000
v 0.531250 0.187500 0.880000
v 0.531250 0.187500 0.900000
vn 1.000000 -0.000000 0.000000
f 57/1/15 58/2/15 59/3/15 60/4/15
v 0.468750 0.125000 0.880000
v 0.468750 0.125000 0.900000
v 0.468750 0.187500 0.900000
v 0.468750 0.187500 0.880000
vn -1.000000 0.000000 0.000000
f 61/1/16 62/2/16 63/3/16 64/4/16
v 0.468750 0.187500 0.900000
v 0.531250 0.187500 0.900000
v 0.531250 0.187500 0.880000
v 0.468750 0.187500 0.880000
vn -0.000000 1.000000 0.000000
f 65/1/17 66/2/17 67/3/17 68/4/17
v 0.468750 0.125000 0.880000
v 0.531250 0.125000 0.880000
v 0.531250 0.125000 0.900000
v 0.468750 0.125000 0.900000
vn 0.000000 -1.000000 0.000000
f 69/1/18 70/2/18 71/3/18 72/4/18
v 0.468750 0.812500 0.900000
v 0.531250 0.812500 0.900000
v 0.531250 0.875000 0.900000
v 0.468750 0.875000 0.900000
vn 0.000000 0.000000 1.000000
f 73/1/19 74/2/19 75/3/19 76/4/19
v 0.531250 0.812500 0.880000
v 0.468750 0.812500 0.880000
v 0.468750 0.875000 0.880000
v 0.531250 0.875000 0.880000
vn 0.000000 0.000000 -1.000000
f 77/1/20 78/2/20 79/3/20 80/4/20
v 0.531250 0.812500 0.900000
v 0.531250 0.812500 0.880000
v 0.531250 0.875000 0.880000
v 0.531250 0.875000 0.900000
vn 1.000000 -0.000000 0.000000
f 81/1/21 82/2/21 83/3/21 84/4/21
v 0.468750 0.812500 0.880000
v 0.468750 0.812500 0.900000
v 0.468750 0.875000 0.900000
v 0.468750 0.875000 0.880000
vn -1.000000 0.000000 0.000000
f 85/1/22 86/2/22 87/3/22 88/4/22
v 0.468750 0.875000 0.900000
v 0.531250 0.875000 0.900000
v 0.531250 0.875000 0.880000
v 0.468750 0.875000 0.880000
vn -0.000000 1.000000 0.000000
f 89/1/23 90/2/23 91/3/23 92/4/23
v 0.468750 0.812500 0.880000
v 0.531250 0.812500 0.880000
v 0.531250 0.812500 0.900000
v 0.468750 0.812500 0.900000
vn 0.000000 -1.000000 0.000000
f 93/1/24 94/2/24 95/3/24 96/4/24
usemtl metal
v 0.545000 0.410000 0.860000
v 0.536222 0.410000 0.773299
v 0.531370 0.432500 0.776876
v 0.538971 0.432500 0.860000
vn 0.961340 0.257590 -0.097325
f 97/1/25 98/2/25 99/3/25 100/4/25
v 0.538971 0.432500 0.860000
v 0.531370 0.432500 0.776876
v 0.518111 0.448971 0.786650
v 0.522500 0.448971 0.860000
vn 0.705633 0.705633 -0.064529
f 101/1/26 102/2/26 103/3/26 104/4/26
v 0.522500 0.448971 0.860000
v 0.518111 0.448971 0.786650
v 0.500000 0.455000 0.800000
v 0.500000 0.455000 0.860000
vn 0.258788 0.965810 -0.015484
f 105/1/27 106/2/27 107/3/27 108/4/27
v 0.500000 0.455000 0.860000
v 0.500000 0.455000 0.800000
v 0.481889 0.448971 0.813350
v 0.477500 0.448971 0.860000
vn -0.258819 0.965926 0.000000
f 109/1/28 110/2/28 111/3/28 112/4/28
v 0.477500 0.448971 0.860000
v 0.481889 0.448971 0.813350
v 0.468630 0.432500 0.823124
v 0.461029 0.432500 0.860000
vn -0.705547 0.705547 -0.066377
f 113/1/29 114/2/29 115/3/29 116/4/29
v 0.461029 0.432500 0.860000
v 0.468630 0.432500 0.823124
v 0.463778 0.410000 0.826701
v 0.455000 0.410000 0.860000
vn -0.947330 0.253836 -0.195278
f 117/1/30 118/2/30 119/3/30 120/4/30
v 0.455000 0.410000 0.860000
v 0.463778 0.410000 0.826701
v 0.468630 0.387500 0.823124
v 0.461029 0.387500 0.860000
vn -0.936061 -0.250817 -0.246741
f 121/1/31 122/2/31 123/3/31 124/4/31
v 0.461029 0.387500 0.860000
v 0.468630 0.387500 0.823124
v 0.481889 0.371029 0.813350
v 0.477500 0.371029 0.860000
vn -0.699713 -0.699713 -0.144236
f 125/1/32 126/2/32 127/3/32 128/4/32
v 0.477500 0.371029 0.860000
v 0.481889 0.371029 0.813350
v 0.500000 0.365000 0.800000
v 0.500000 0.365000 0.860000
vn -0.258742 -0.965640 -0.024342
f 129/1/33 130/2/33 131/3/33 132/4/33
v 0.500000 0.365000 0.860000
v 0.500000 0.365000 0.800000
v 0.518111 0.371029 0.786650
v 0.522500 0.371029 0.860000
vn 0.258819 -0.965926 0.000000
f 133/1/34 134/2/34 135/3/34 136/4/34
v 0.522500 0.371029 0.860000
v 0.518111 0.371029 0.786650
v 0.531370 0.387500 0.776876
v 0.538971 0.387500 0.860000
vn 0.706475 -0.706475 -0.042270
f 137/1/35 138/2/35 139/3/35 140/4/35
v 0.538971 0.387500 0.860000
v 0.531370 0.387500 0.776876
v 0.536222 0.410000 0.773299
v 0.545000 0.410000 0.860000
vn 0.962179 -0.257815 -0.087990
f 141/1/36 142/2/36 143/3/36 144/4/36
v 0.536222 0.410000 0.773299
v 0.399380 0.410000 0.721731
v 0.398610 0.432470 0.727823
v 0.531370 0.432500 0.776876
vn 0.344047 0.219357 -0.912970
f 145/1/37 146/2/37 147/3/37 148/4/37
v 0.531370 0.432500 0.776876
v 0.398610 0.432470 0.727823
v 0.394295 0.448919 0.743741
v 0.518111 0.448971 0.786650
vn 0.265852 0.641148 -0.719897
f 149/1/38 150/2/38 151/3/38 152/4/38
v 0.518111 0.448971 0.786650
v 0.394295 0.448919 0.743741
v 0.387592 0.454940 0.765222
v 0.500000 0.455000 0.800000
vn 0.100955 0.950931 -0.292471
f 153/1/39 154/2/39 155/3/39 156/4/39
v 0.500000 0.455000 0.800000
v 0.387592 0.454940 0.765222
v 0.380296 0.448919 0.786508
v 0.481889 0.448971 0.813350
vn -0.093740 0.948898 0.301341
f 157/1/40 158/2/40 159/3/40 160/4/40
v 0.481889 0.448971 0.813350
v 0.380296 0.448919 0.786508
v 0.374363 0.432470 0.801897
v 0.468630 0.432500 0.823124
vn -0.201761 0.614800 0.762439
f 161/1/41 162/2/41 163/3/41 164/4/41
v 0.468630 0.432500 0.823124
v 0.374363 0.432470 0.801897
v 0.371382 0.410000 0.807265
v 0.463778 0.410000 0.826701
vn -0.215360 0.198467 0.956154
f 165/1/42 166/2/42 167/3/42 168/4/42
v 0.463778 0.410000 0.826701
v 0.371382 0.410000 0.807265
v 0.372152 0.387530 0.801174
v 0.468630 0.387500 0.823124
vn -0.201849 -0.196098 0.959584
f 169/1/43 170/2/43 171/3/43 172/4/43
v 0.468630 0.387500 0.823124
v 0.372152 0.387530 0.801174
v 0.376467 0.371081 0.785255
v 0.481889 0.371029 0.813350
vn -0.177032 -0.603711 0.777298
f 173/1/44 174/2/44 175/3/44 176/4/44
v 0.481889 0.371029 0.813350
v 0.376467 0.371081 0.785255
v 0.383170 0.365060 0.763775
v 0.500000 0.365000 0.800000
vn -0.083957 -0.945943 0.313278
f 177/1/45 178/2/45 179/3/45 180/4/45
v 0.500000 0.365000 0.800000
v 0.383170 0.365060 0.763775
v 0.390466 0.371081 0.742488
v 0.518111 0.371029 0.786650
vn 0.093166 -0.948731 -0.302044
f 181/1/46 182/2/46 183/3/46 184/4/46
v 0.518111 0.371029 0.786650
v 0.390466 0.371081 0.742488
v 0.396399 0.387530 0.727099
v 0.531370 0.387500 0.776876
vn 0.252130 -0.635805 -0.729508
f 185/1/47 186/2/47 187/3/47 188/4/47
v 0.531370 0.387500 0.776876
v 0.396399 0.387530 0.727099
v 0.399380 0.410000 0.721731
v 0.536222 0.410000 0.773299
vn 0.337626 -0.218389 -0.915595
f 189/1/48 190/2/48 191/3/48 192/4/48
v 0.399380 0.410000 0.721731
v 0.335991 0.417097 0.699847
v 0.338112 0.439157 0.707019
v 0.398610 0.432470 0.727823
vn 0.340957 0.256843 -0.904312
f 193/1/49 194/2/49 195/3/49 196/4/49
v 0.398610 0.432470 0.727823
v 0.338112 0.439157 0.707019
v 0.335580 0.455307 0.723613
v 0.394295 0.448919 0.743741
vn 0.299546 0.702905 -0.645133
f 197/1/50 198/2/50 199/3/50 200/4/50
v 0.394295 0.448919 0.743741
v 0.335580 0.455307 0.723613
v 0.329072 0.461218 0.745184
v 0.387592 0.454940 0.765222
vn 0.177777 0.960573 -0.213762
f 201/1/51 202/2/51 203/3/51 204/4/51
v 0.387592 0.454940 0.765222
v 0.329072 0.461218 0.745184
v 0.320333 0.455307 0.765952
v 0.380296 0.448919 0.786508
vn 0.008972 0.961402 0.275002
f 205/1/52 206/2/52 207/3/52 208/4/52
v 0.380296 0.448919 0.786508
v 0.320333 0.455307 0.765952
v 0.311704 0.439157 0.780351
v 0.374363 0.432470 0.801897
vn -0.161775 0.704672 0.690845
f 209/1/53 210/2/53 211/3/53 212/4/53
v 0.374363 0.432470 0.801897
v 0.311704 0.439157 0.780351
v 0.305497 0.417097 0.784523
v 0.371382 0.410000 0.807265
vn -0.289334 0.258558 0.921647
f 213/1/54 214/2/54 215/3/54 216/4/54
v 0.371382 0.410000 0.807265
v 0.305497 0.417097 0.784523
v 0.303375 0.395036 0.777351
v 0.372152 0.387530 0.801174
vn -0.339945 -0.256906 0.904675
f 217/1/55 218/2/55 219/3/55 220/4/55
v 0.372152 0.387530 0.801174
v 0.303375 0.395036 0.777351
v 0.305908 0.378887 0.760757
v 0.376467 0.371081 0.785255
vn -0.300096 -0.702855 0.644932
f 221/1/56 222/2/56 223/3/56 224/4/56
v 0.376467 0.371081 0.785255
v 0.305908 0.378887 0.760757
v 0.312415 0.372976 0.739186
v 0.383170 0.365060 0.763775
vn -0.180174 -0.960309 0.212940
f 225/1/57 226/2/57 227/3/57 228/4/57
v 0.383170 0.365060 0.763775
v 0.312415 0.372976 0.739186
v 0.321155 0.378887 0.718418
v 0.390466 0.371081 0.742488
vn -0.011666 -0.961130 -0.275848
f 229/1/58 230/2/58 231/3/58 232/4/58
v 0.390466 0.371081 0.742488
v 0.321155 0.378887 0.718418
v 0.329784 0.395036 0.704019
v 0.396399 0.387530 0.727099
vn 0.160671 -0.704592 -0.691184
f 233/1/59 234/2/59 235/3/59 236/4/59
v 0.396399 0.387530 0.727099
v 0.329784 0.395036 0.704019
v 0.335991 0.417097 0.699847
v 0.399380 0.410000 0.721731
vn 0.290089 -0.258598 -0.921399
f 237/1/60 238/2/60 239/3/60 240/4/60
v 0.335991 0.417097 0.699847
v 0.273173 0.437693 0.676242
v 0.278460 0.458705 0.684792
v 0.338112 0.439157 0.707019
vn 0.410580 0.245964 -0.878024
f 241/1/61 242/2/61 243/3/61 244/4/61
v 0.338112 0.439157 0.707019
v 0.278460 0.458705 0.684792
v 0.277925 0.474088 0.702277
v 0.335580 0.455307 0.723613
vn 0.441400 0.675801 -0.590304
f 245/1/62 246/2/62 247/3/62 248/4/62
v 0.335580 0.455307 0.723613
v 0.277925 0.474088 0.702277
v 0.271712 0.479718 0.724009
v 0.329072 0.461218 0.745184
vn 0.354845 0.923455 -0.145999
f 249/1/63 250/2/63 251/3/63 252/4/63
v 0.329072 0.461218 0.745184
v 0.271712 0.479718 0.724009
v 0.261487 0.474088 0.744167
v 0.320333 0.455307 0.765952
vn 0.174168 0.925369 0.336685
f 253/1/64 254/2/64 255/3/64 256/4/64
v 0.320333 0.455307 0.765952
v 0.261487 0.474088 0.744167
v 0.249988 0.458705 0.757348
v 0.311704 0.439157 0.780351
vn -0.053477 0.680317 0.730965
f 257/1/65 258/2/65 259/3/65 260/4/65
v 0.311704 0.439157 0.780351
v 0.249988 0.458705 0.757348
v 0.240297 0.437693 0.760022
v 0.305497 0.417097 0.784523
vn -0.267200 0.251148 0.930338
f 261/1/66 262/2/66 263/3/66 264/4/66
v 0.305497 0.417097 0.784523
v 0.240297 0.437693 0.760022
v 0.235010 0.416680 0.751471
v 0.303375 0.395036 0.777351
vn -0.408182 -0.246508 0.878989
f 265/1/67 266/2/67 267/3/67 268/4/67
v 0.303375 0.395036 0.777351
v 0.235010 0.416680 0.751471
v 0.235545 0.401298 0.733987
v 0.305908 0.378887 0.760757
vn -0.438211 -0.676692 0.591658
f 269/1/68 270/2/68 271/3/68 272/4/68
v 0.305908 0.378887 0.760757
v 0.235545 0.401298 0.733987
v 0.241757 0.395667 0.712254
v 0.312415 0.372976 0.739186
vn -0.350701 -0.924781 0.147613
f 273/1/69 274/2/69 275/3/69 276/4/69
v 0.312415 0.372976 0.739186
v 0.241757 0.395667 0.712254
v 0.251983 0.401298 0.692097
v 0.321155 0.378887 0.718418
vn -0.169825 -0.926701 -0.335237
f 277/1/70 278/2/70 279/3/70 280/4/70
v 0.321155 0.378887 0.718418
v 0.251983 0.401298 0.692097
v 0.263482 0.416680 0.678915
v 0.329784 0.395036 0.704019
vn 0.057026 -0.681222 -0.729853
f 281/1/71 282/2/71 283/3/71 284/4/71
v 0.329784 0.395036 0.704019
v 0.263482 0.416680 0.678915
v 0.273173 0.437693 0.676242
v 0.335991 0.417097 0.699847
vn 0.269759 -0.251700 -0.929450
f 285/1/72 286/2/72 287/3/72 288/4/72
v 0.273173 0.437693 0.676242
v 0.211190 0.469771 0.650815
v 0.218482 0.489662 0.660498
v 0.278460 0.458705 0.684792
vn 0.468619 0.229275 -0.853129
f 289/1/73 290/2/73 291/3/73 292/4/73
v 0.278460 0.458705 0.684792
v 0.218482 0.489662 0.660498
v 0.219073 0.504224 0.678669
v 0.277925 0.474088 0.702277
vn 0.548255 0.636139 -0.542903
f 293/1/74 294/2/74 295/3/74 296/4/74
v 0.277925 0.474088 0.702277
v 0.219073 0.504224 0.678669
v 0.212804 0.509554 0.700461
v 0.271712 0.479718 0.724009
vn 0.481801 0.871836 -0.088142
f 297/1/75 298/2/75 299/3/75 300/4/75
v 0.271712 0.479718 0.724009
v 0.212804 0.509554 0.700461
v 0.201355 0.504224 0.720034
v 0.261487 0.474088 0.744167
vn 0.287187 0.874864 0.390048
f 301/1/76 302/2/76 303/3/76 304/4/76
v 0.261487 0.474088 0.744167
v 0.201355 0.504224 0.720034
v 0.187793 0.489662 0.732144
v 0.249988 0.458705 0.757348
vn 0.015663 0.643841 0.764999
f 305/1/77 306/2/77 307/3/77 308/4/77
v 0.249988 0.458705 0.757348
v 0.187793 0.489662 0.732144
v 0.175753 0.469771 0.733545
v 0.240297 0.437693 0.760022
vn -0.260151 0.239012 0.935518
f 309/1/78 310/2/78 311/3/78 312/4/78
v 0.240297 0.437693 0.760022
v 0.175753 0.469771 0.733545
v 0.168460 0.449880 0.723863
v 0.235010 0.416680 0.751471
vn -0.465234 -0.230722 0.854591
f 313/1/79 314/2/79 315/3/79 316/4/79
v 0.235010 0.416680 0.751471
v 0.168460 0.449880 0.723863
v 0.167869 0.435318 0.705691
v 0.235545 0.401298 0.733987
vn -0.544263 -0.638034 0.544693
f 317/1/80 318/2/80 319/3/80 320/4/80
v 0.235545 0.401298 0.733987
v 0.167869 0.435318 0.705691
v 0.174138 0.429988 0.683899
v 0.241757 0.395667 0.712254
vn -0.477133 -0.874201 0.090089
f 321/1/81 322/2/81 323/3/81 324/4/81
v 0.241757 0.395667 0.712254
v 0.174138 0.429988 0.683899
v 0.185588 0.435318 0.664326
v 0.251983 0.401298 0.692097
vn -0.282418 -0.877198 -0.388282
f 325/1/82 326/2/82 327/3/82 328/4/82
v 0.251983 0.401298 0.692097
v 0.185588 0.435318 0.664326
v 0.199149 0.449880 0.652217
v 0.263482 0.416680 0.678915
vn -0.011499 -0.645685 -0.763518
f 329/1/83 330/2/83 331/3/83 332/4/83
v 0.263482 0.416680 0.678915
v 0.199149 0.449880 0.652217
v 0.211190 0.469771 0.650815
v 0.273173 0.437693 0.676242
vn 0.263610 -0.240437 -0.934184
f 333/1/84 334/2/84 335/3/84 336/4/84
v 0.211190 0.469771 0.650815
v 0.150166 0.510193 0.623498
v 0.158377 0.529291 0.634007
v 0.218482 0.489662 0.660498
vn 0.514320 0.215491 -0.830083
f 337/1/85 338/2/85 339/3/85 340/4/85
v 0.218482 0.489662 0.660498
v 0.158377 0.529291 0.634007
v 0.159269 0.543272 0.652617
v 0.219073 0.504224 0.678669
vn 0.619213 0.602809 -0.503186
f 341/1/86 342/2/86 343/3/86 344/4/86
v 0.219073 0.504224 0.678669
v 0.159269 0.543272 0.652617
v 0.152603 0.548389 0.674342
v 0.212804 0.509554 0.700461
vn 0.558925 0.828166 -0.041765
f 345/1/87 346/2/87 347/3/87 348/4/87
v 0.212804 0.509554 0.700461
v 0.152603 0.548389 0.674342
v 0.140165 0.543272 0.693361
v 0.201355 0.504224 0.720034
vn 0.349615 0.831856 0.431027
f 349/1/88 350/2/88 351/3/88 352/4/88
v 0.201355 0.504224 0.720034
v 0.140165 0.543272 0.693361
v 0.125288 0.529291 0.704577
v 0.187793 0.489662 0.732144
vn 0.046906 0.612516 0.789065
f 353/1/89 354/2/89 355/3/89 356/4/89
v 0.187793 0.489662 0.732144
v 0.125288 0.529291 0.704577
v 0.111958 0.510193 0.704986
v 0.175753 0.469771 0.733545
vn -0.268101 0.228221 0.935969
f 357/1/90 358/2/90 359/3/90 360/4/90
v 0.175753 0.469771 0.733545
v 0.111958 0.510193 0.704986
v 0.103747 0.491094 0.694477
v 0.168460 0.449880 0.723863
vn -0.510419 -0.217799 0.831887
f 361/1/91 362/2/91 363/3/91 364/4/91
v 0.168460 0.449880 0.723863
v 0.103747 0.491094 0.694477
v 0.102855 0.477113 0.675867
v 0.167869 0.435318 0.705691
vn -0.614998 -0.605457 0.505172
f 365/1/92 366/2/92 367/3/92 368/4/92
v 0.167869 0.435318 0.705691
v 0.102855 0.477113 0.675867
v 0.109521 0.471996 0.654142
v 0.174138 0.429988 0.683899
vn -0.554378 -0.831112 0.043793
f 369/1/93 370/2/93 371/3/93 372/4/93
v 0.174138 0.429988 0.683899
v 0.109521 0.471996 0.654142
v 0.121959 0.477113 0.635123
v 0.185588 0.435318 0.664326
vn -0.345039 -0.834740 -0.429135
f 373/1/94 374/2/94 375/3/94 376/4/94
v 0.185588 0.435318 0.664326
v 0.121959 0.477113 0.635123
v 0.136836 0.491094 0.623907
v 0.199149 0.449880 0.652217
vn -0.042644 -0.615047 -0.787336
f 377/1/95 378/2/95 379/3/95 380/4/95
v 0.199149 0.449880 0.652217
v 0.136836 0.491094 0.623907
v 0.150166 0.510193 0.623498
v 0.211190 0.469771 0.650815
vn 0.272019 -0.230474 -0.934284
f 381/1/96 382/2/96 383/3/96 384/4/96
v 0.150166 0.510193 0.623498
v 0.090326 0.555000 0.594114
v 0.098521 0.573818 0.605129
v 0.158377 0.529291 0.634007
vn 0.551837 0.207227 -0.807795
f 385/1/97 386/2/97 387/3/97 388/4/97
v 0.158377 0.529291 0.634007
v 0.098521 0.573818 0.605129
v 0.098989 0.587594 0.623907
v 0.159269 0.543272 0.652617
vn 0.661465 0.584051 -0.470477
f 389/1/98 390/2/98 391/3/98 392/4/98
v 0.159269 0.543272 0.652617
v 0.098989 0.587594 0.623907
v 0.091605 0.592636 0.645416
v 0.152603 0.548389 0.674342
vn 0.594519 0.804051 -0.006977
f 393/1/99 394/2/99 395/3/99 396/4/99
v 0.152603 0.548389 0.674342
v 0.091605 0.592636 0.645416
v 0.078348 0.587594 0.663894
v 0.140165 0.543272 0.693361
vn 0.368858 0.808394 0.458741
f 397/1/100 398/2/100 399/3/100 400/4/100
v 0.140165 0.543272 0.693361
v 0.078348 0.587594 0.663894
v 0.062770 0.573818 0.674388
v 0.125288 0.529291 0.704577
vn 0.044820 0.595690 0.801963
f 401/1/101 402/2/101 403/3/101 404/4/101
v 0.125288 0.529291 0.704577
v 0.062770 0.573818 0.674388
v 0.049044 0.555000 0.674088
v 0.111958 0.510193 0.704986
vn -0.290664 0.222780 0.930529
f 405/1/102 406/2/102 407/3/102 408/4/102
v 0.111958 0.510193 0.704986
v 0.049044 0.555000 0.674088
v 0.040850 0.536182 0.663073
v 0.103747 0.491094 0.694477
vn -0.547522 -0.210264 0.809944
f 409/1/103 410/2/103 411/3/103 412/4/103
v 0.103747 0.491094 0.694477
v 0.040850 0.536182 0.663073
v 0.040381 0.522406 0.644296
v 0.102855 0.477113 0.675867
vn -0.657002 -0.587288 0.472696
f 413/1/104 414/2/104 415/3/104 416/4/104
v 0.102855 0.477113 0.675867
v 0.040381 0.522406 0.644296
v 0.047765 0.517364 0.622786
v 0.109521 0.471996 0.654142
vn -0.589966 -0.807376 0.009158
f 417/1/105 418/2/105 419/3/105 420/4/105
v 0.109521 0.471996 0.654142
v 0.047765 0.517364 0.622786
v 0.061022 0.522406 0.604309
v 0.121959 0.477113 0.635123
vn -0.364362 -0.811602 -0.456664
f 421/1/106 422/2/106 423/3/106 424/4/106
v 0.121959 0.477113 0.635123
v 0.061022 0.522406 0.604309
v 0.076601 0.536182 0.593814
v 0.136836 0.491094 0.623907
vn -0.040476 -0.598699 -0.799951
f 425/1/107 426/2/107 427/3/107 428/4/107
v 0.136836 0.491094 0.623907
v 0.076601 0.536182 0.593814
v 0.090326 0.555000 0.594114
v 0.150166 0.510193 0.623498
vn 0.294917 -0.225705 -0.928483
f 429/1/108 430/2/108 431/3/108 432/4/108
v 0.090326 0.555000 0.594114
v 0.031835 0.599807 0.562423
v 0.039189 0.618905 0.573549
v 0.098521 0.573818 0.605129
vn 0.583377 0.205840 -0.785685
f 433/1/109 434/2/109 435/3/109 436/4/109
v 0.098521 0.573818 0.605129
v 0.039189 0.618905 0.573549
v 0.038607 0.632886 0.592171
v 0.098989 0.587594 0.623907
vn 0.679841 0.583116 -0.444738
f 437/1/110 438/2/110 439/3/110 440/4/110
v 0.098989 0.587594 0.623907
v 0.038607 0.632886 0.592171
v 0.030243 0.638003 0.613301
v 0.091605 0.592636 0.645416
vn 0.594675 0.803813 0.015707
f 441/1/111 442/2/111 443/3/111 444/4/111
v 0.091605 0.592636 0.645416
v 0.030243 0.638003 0.613301
v 0.016339 0.632886 0.631276
v 0.078348 0.587594 0.663894
vn 0.350694 0.808674 0.472292
f 445/1/112 446/2/112 447/3/112 448/4/112
v 0.078348 0.587594 0.663894
v 0.016339 0.632886 0.631276
v 0.000621 0.618905 0.641280
v 0.062770 0.573818 0.674388
vn 0.013373 0.596332 0.802626
f 449/1/113 450/2/113 451/3/113 452/4/113
v 0.062770 0.573818 0.674388
v 0.000621 0.618905 0.641280
v -0.012700 0.599807 0.640632
v 0.049044 0.555000 0.674088
vn -0.326843 0.223740 0.918212
f 453/1/114 454/2/114 455/3/114 456/4/114
v 0.049044 0.555000 0.674088
v -0.012700 0.599807 0.640632
v -0.020055 0.580710 0.629506
v 0.040850 0.536182 0.663073
vn -0.578873 -0.209225 0.788118
f 457/1/115 458/2/115 459/3/115 460/4/115
v 0.040850 0.536182 0.663073
v -0.020055 0.580710 0.629506
v -0.019472 0.566729 0.610884
v 0.040381 0.522406 0.644296
vn -0.675283 -0.586558 0.447149
f 461/1/116 462/2/116 463/3/116 464/4/116
v 0.040381 0.522406 0.644296
v -0.019472 0.566729 0.610884
v -0.011108 0.561612 0.589754
v 0.047765 0.517364 0.622786
vn -0.590221 -0.807130 -0.013401
f 465/1/117 466/2/117 467/3/117 468/4/117
v 0.047765 0.517364 0.622786
v -0.011108 0.561612 0.589754
v 0.002795 0.566729 0.571779
v 0.061022 0.522406 0.604309
vn -0.346402 -0.811813 -0.470069
f 469/1/118 470/2/118 471/3/118 472/4/118
v 0.061022 0.522406 0.604309
v 0.002795 0.566729 0.571779
v 0.018514 0.580710 0.561775
v 0.076601 0.536182 0.593814
vn -0.009136 -0.599417 -0.800385
f 473/1/119 474/2/119 475/3/119 476/4/119
v 0.076601 0.536182 0.593814
v 0.018514 0.580710 0.561775
v 0.031835 0.599807 0.562423
v 0.090326 0.555000 0.594114
vn 0.331187 -0.226946 -0.915866
f 477/1/120 478/2/120 479/3/120 480/4/120
v 0.031835 0.599807 0.562423
v -0.025123 0.640229 0.528430
v -0.019447 0.660119 0.539143
v 0.039189 0.618905 0.573549
vn 0.607399 0.212081 -0.765564
f 481/1/121 482/2/121 483/3/121 484/4/121
v 0.039189 0.618905 0.573549
v -0.019447 0.660119 0.539143
v -0.021728 0.674680 0.557181
v 0.038607 0.632886 0.592171
vn 0.674277 0.600550 -0.429756
f 485/1/122 486/2/122 487/3/122 488/4/122
v 0.038607 0.632886 0.592171
v -0.021728 0.674680 0.557181
v -0.031355 0.680010 0.577712
v 0.030243 0.638003 0.613301
vn 0.560823 0.827655 0.021545
f 489/1/123 490/2/123 491/3/123 492/4/123
v 0.030243 0.638003 0.613301
v -0.031355 0.680010 0.577712
v -0.045749 0.674680 0.595234
v 0.016339 0.632886 0.631276
vn 0.297720 0.832472 0.467282
f 493/1/124 494/2/124 495/3/124 496/4/124
v 0.016339 0.632886 0.631276
v -0.045749 0.674680 0.595234
v -0.061052 0.660119 0.605052
v 0.000621 0.618905 0.641280
vn -0.044338 0.613840 0.788185
f 497/1/125 498/2/125 499/3/125 500/4/125
v 0.000621 0.618905 0.641280
v -0.061052 0.660119 0.605052
v -0.073164 0.640229 0.604536
v -0.012700 0.599807 0.640632
vn -0.373854 0.230301 0.898440
f 501/1/126 502/2/126 503/3/126 504/4/126
v -0.012700 0.599807 0.640632
v -0.073164 0.640229 0.604536
v -0.078840 0.620338 0.593824
v -0.020055 0.580710 0.629506
vn -0.602720 -0.215481 0.768307
f 505/1/127 506/2/127 507/3/127 508/4/127
v -0.020055 0.580710 0.629506
v -0.078840 0.620338 0.593824
v -0.076558 0.605778 0.575786
v -0.019472 0.566729 0.610884
vn -0.669576 -0.603893 0.432413
f 509/1/128 510/2/128 511/3/128 512/4/128
v -0.019472 0.566729 0.610884
v -0.076558 0.605778 0.575786
v -0.066931 0.600448 0.555255
v -0.011108 0.561612 0.589754
vn -0.556455 -0.830658 -0.019089
f 513/1/129 514/2/129 515/3/129 516/4/129
v -0.011108 0.561612 0.589754
v -0.066931 0.600448 0.555255
v -0.052538 0.605778 0.537733
v 0.002795 0.566729 0.571779
vn -0.293704 -0.835199 -0.464952
f 517/1/130 518/2/130 519/3/130 520/4/130
v 0.002795 0.566729 0.571779
v -0.052538 0.605778 0.537733
v -0.037235 0.620338 0.527914
v 0.018514 0.580710 0.561775
vn 0.048341 -0.616618 -0.785777
f 521/1/131 522/2/131 523/3/131 524/4/131
v 0.018514 0.580710 0.561775
v -0.037235 0.620338 0.527914
v -0.025123 0.640229 0.528430
v 0.031835 0.599807 0.562423
vn 0.378187 -0.233412 -0.895820
f 525/1/132 526/2/132 527/3/132 528/4/132
v -0.025123 0.640229 0.528430
v -0.080131 0.672307 0.491862
v -0.077033 0.693319 0.501428
v -0.019447 0.660119 0.539143
vn 0.626606 0.223317 -0.746655
f 529/1/133 530/2/133 531/3/133 532/4/133
v -0.019447 0.660119 0.539143
v -0.077033 0.693319 0.501428
v -0.081720 0.708701 0.518281
v -0.021728 0.674680 0.557181
vn 0.645315 0.632249 -0.428754
f 533/1/134 534/2/134 535/3/134 536/4/134
v -0.021728 0.674680 0.557181
v -0.081720 0.708701 0.518281
v -0.092934 0.714331 0.537906
v -0.031355 0.680010 0.577712
vn 0.491218 0.871026 0.004225
f 537/1/135 538/2/135 539/3/135 540/4/135
v -0.031355 0.680010 0.577712
v -0.092934 0.714331 0.537906
v -0.107671 0.708701 0.555044
v -0.045749 0.674680 0.595234
vn 0.206401 0.875967 0.435983
f 541/1/136 542/2/136 543/3/136 544/4/136
v -0.045749 0.674680 0.595234
v -0.107671 0.708701 0.555044
v -0.121982 0.693319 0.565103
v -0.061052 0.660119 0.605052
vn -0.132712 0.646229 0.751515
f 545/1/137 546/2/137 547/3/137 548/4/137
v -0.061052 0.660119 0.605052
v -0.121982 0.693319 0.565103
v -0.132033 0.672307 0.565388
v -0.073164 0.640229 0.604536
vn -0.435839 0.242916 0.866623
f 549/1/138 550/2/138 551/3/138 552/4/138
v -0.073164 0.640229 0.604536
v -0.132033 0.672307 0.565388
v -0.135131 0.651296 0.555822
v -0.078840 0.620338 0.593824
vn -0.621874 -0.226310 0.749704
f 553/1/139 554/2/139 555/3/139 556/4/139
v -0.078840 0.620338 0.593824
v -0.135131 0.651296 0.555822
v -0.130444 0.635914 0.538968
v -0.076558 0.605778 0.575786
vn -0.640633 -0.635058 0.431614
f 557/1/140 558/2/140 559/3/140 560/4/140
v -0.076558 0.605778 0.575786
v -0.130444 0.635914 0.538968
v -0.119230 0.630284 0.519343
v -0.066931 0.600448 0.555255
vn -0.487199 -0.873289 -0.001753
f 561/1/141 562/2/141 563/3/141 564/4/141
v -0.066931 0.600448 0.555255
v -0.119230 0.630284 0.519343
v -0.104493 0.635914 0.502205
v -0.052538 0.605778 0.537733
vn -0.202976 -0.877874 -0.433750
f 565/1/142 566/2/142 567/3/142 568/4/142
v -0.052538 0.605778 0.537733
v -0.104493 0.635914 0.502205
v -0.090181 0.651296 0.492146
v -0.037235 0.620338 0.527914
vn 0.136216 -0.648289 -0.749110
f 569/1/143 570/2/143 571/3/143 572/4/143
v -0.037235 0.620338 0.527914
v -0.090181 0.651296 0.492146
v -0.080131 0.672307 0.491862
v -0.025123 0.640229 0.528430
vn 0.439987 -0.245515 -0.863790
f 573/1/144 574/2/144 575/3/144 576/4/144
v -0.080131 0.672307 0.491862
v -0.132913 0.692903 0.452480
v -0.133191 0.714963 0.459956
v -0.077033 0.693319 0.501428
vn 0.638834 0.238793 -0.731347
f 577/1/145 578/2/145 579/3/145 580/4/145
v -0.077033 0.693319 0.501428
v -0.133191 0.714963 0.459956
v -0.140888 0.731112 0.474874
v -0.081720 0.708701 0.518281
vn 0.590017 0.671291 -0.448607
f 581/1/146 582/2/146 583/3/146 584/4/146
v -0.081720 0.708701 0.518281
v -0.140888 0.731112 0.474874
v -0.153942 0.737023 0.493239
v -0.092934 0.714331 0.537906
vn 0.383047 0.922593 -0.045794
f 585/1/147 586/2/147 587/3/147 588/4/147
v -0.092934 0.714331 0.537906
v -0.153942 0.737023 0.493239
v -0.168854 0.731112 0.510129
v -0.107671 0.708701 0.555044
vn 0.074729 0.926560 0.368648
f 589/1/148 590/2/148 591/3/148 592/4/148
v -0.107671 0.708701 0.555044
v -0.168854 0.731112 0.510129
v -0.181630 0.714963 0.521018
v -0.121982 0.693319 0.565103
vn -0.252717 0.683178 0.685129
f 593/1/149 594/2/149 595/3/149 596/4/149
v -0.121982 0.693319 0.565103
v -0.181630 0.714963 0.521018
v -0.188846 0.692903 0.522989
v -0.132033 0.672307 0.565388
vn -0.512639 0.256319 0.819452
f 597/1/150 598/2/150 599/3/150 600/4/150
v -0.132033 0.672307 0.565388
v -0.188846 0.692903 0.522989
v -0.188568 0.670843 0.515514
v -0.135131 0.651296 0.555822
vn -0.635036 -0.240588 0.734062
f 601/1/151 602/2/151 603/3/151 604/4/151
v -0.135131 0.651296 0.555822
v -0.188568 0.670843 0.515514
v -0.180871 0.654694 0.500596
v -0.130444 0.635914 0.538968
vn -0.586356 -0.672857 0.451055
f 605/1/152 606/2/152 607/3/152 608/4/152
v -0.130444 0.635914 0.538968
v -0.180871 0.654694 0.500596
v -0.167818 0.648783 0.482231
v -0.119230 0.630284 0.519343
vn -0.380271 -0.923645 0.047683
f 609/1/153 610/2/153 611/3/153 612/4/153
v -0.119230 0.630284 0.519343
v -0.167818 0.648783 0.482231
v -0.152905 0.654694 0.465341
v -0.104493 0.635914 0.502205
vn -0.072660 -0.927331 -0.367122
f 613/1/154 614/2/154 615/3/154 616/4/154
v -0.104493 0.635914 0.502205
v -0.152905 0.654694 0.465341
v -0.140129 0.670843 0.454452
v -0.090181 0.651296 0.492146
vn 0.254967 -0.684114 -0.683359
f 617/1/155 618/2/155 619/3/155 620/4/155
v -0.090181 0.651296 0.492146
v -0.140129 0.670843 0.454452
v -0.132913 0.692903 0.452480
v -0.080131 0.672307 0.491862
vn 0.515733 -0.257766 -0.817053
f 621/1/156 622/2/156 623/3/156 624/4/156
v -0.132913 0.692903 0.452480
v -0.183018 0.700000 0.410371
v -0.180491 0.720681 0.420788
v -0.133191 0.714963 0.459956
vn 0.643202 0.252986 -0.722695
f 625/1/157 626/2/157 627/3/157 628/4/157
v -0.133191 0.714963 0.459956
v -0.180491 0.720681 0.420788
v -0.186731 0.735820 0.437355
v -0.140888 0.731112 0.474874
vn 0.501626 0.703793 -0.503038
f 629/1/158 630/2/158 631/3/158 632/4/158
v -0.140888 0.731112 0.474874
v -0.186731 0.735820 0.437355
v -0.200066 0.741362 0.455632
v -0.153942 0.737023 0.493239
vn 0.222906 0.962994 -0.151513
f 633/1/159 634/2/159 635/3/159 636/4/159
v -0.153942 0.737023 0.493239
v -0.200066 0.741362 0.455632
v -0.216923 0.735820 0.470723
v -0.168854 0.731112 0.510129
vn -0.107226 0.964145 0.242748
f 637/1/160 638/2/160 639/3/160 640/4/160
v -0.168854 0.731112 0.510129
v -0.216923 0.735820 0.470723
v -0.232784 0.720681 0.478584
v -0.181630 0.714963 0.521018
vn -0.404096 0.709225 0.577673
f 641/1/161 642/2/161 643/3/161 644/4/161
v -0.181630 0.714963 0.521018
v -0.232784 0.720681 0.478584
v -0.243401 0.700000 0.477109
v -0.188846 0.692903 0.522989
vn -0.598315 0.263334 0.756752
f 645/1/162 646/2/162 647/3/162 648/4/162
v -0.188846 0.692903 0.522989
v -0.243401 0.700000 0.477109
v -0.245928 0.679319 0.466692
v -0.188568 0.670843 0.515514
vn -0.641732 -0.253365 0.723869
f 649/1/163 650/2/163 651/3/163 652/4/163
v -0.188568 0.670843 0.515514
v -0.245928 0.679319 0.466692
v -0.239688 0.664180 0.450125
v -0.180871 0.654694 0.500596
vn -0.520033 -0.700008 0.489444
f 653/1/164 654/2/164 655/3/164 656/4/164
v -0.180871 0.654694 0.500596
v -0.239688 0.664180 0.450125
v -0.226354 0.658638 0.431847
v -0.167818 0.648783 0.482231
vn -0.260217 -0.957649 0.123271
f 657/1/165 658/2/165 659/3/165 660/4/165
v -0.167818 0.648783 0.482231
v -0.226354 0.658638 0.431847
v -0.209497 0.664180 0.416756
v -0.152905 0.654694 0.465341
vn 0.072449 -0.959604 -0.271865
f 661/1/166 662/2/166 663/3/166 664/4/166
v -0.152905 0.654694 0.465341
v -0.209497 0.664180 0.416756
v -0.193635 0.679319 0.408895
v -0.140129 0.670843 0.454452
vn 0.389116 -0.706475 -0.591170
f 665/1/167 666/2/167 667/3/167 668/4/167
v -0.140129 0.670843 0.454452
v -0.193635 0.679319 0.408895
v -0.183018 0.700000 0.410371
v -0.132913 0.692903 0.452480
vn 0.600713 -0.263929 -0.754643
f 669/1/168 670/2/168 671/3/168 672/4/168
v -0.183018 0.700000 0.410371
v -0.255593 0.791250 0.338179
v -0.250342 0.808364 0.353083
v -0.180491 0.720681 0.420788
vn 0.801352 0.188100 -0.567849
f 673/1/169 674/2/169 675/3/169 676/4/169
v -0.180491 0.720681 0.420788
v -0.250342 0.808364 0.353083
v -0.255482 0.820892 0.372037
v -0.186731 0.735820 0.437355
vn 0.830761 0.529670 -0.171133
f 677/1/170 678/2/170 679/3/170 680/4/170
v -0.186731 0.735820 0.437355
v -0.255482 0.820892 0.372037
v -0.269635 0.825478 0.389960
v -0.200066 0.741362 0.455632
vn 0.647327 0.718492 0.254436
f 681/1/171 682/2/171 683/3/171 684/4/171
v -0.200066 0.741362 0.455632
v -0.269635 0.825478 0.389960
v -0.289009 0.820892 0.402052
v -0.216923 0.735820 0.470723
vn 0.306559 0.730228 0.610565
f 685/1/172 686/2/172 687/3/172 688/4/172
v -0.216923 0.735820 0.470723
v -0.289009 0.820892 0.402052
v -0.308413 0.808364 0.405072
v -0.232784 0.720681 0.478584
vn -0.124773 0.557043 0.821057
f 689/1/173 690/2/173 691/3/173 692/4/173
v -0.232784 0.720681 0.478584
v -0.308413 0.808364 0.405072
v -0.322648 0.791250 0.398210
v -0.243401 0.700000 0.477109
vn -0.538248 0.218233 0.814041
f 693/1/174 694/2/174 695/3/174 696/4/174
v -0.243401 0.700000 0.477109
v -0.322648 0.791250 0.398210
v -0.327899 0.774136 0.383306
v -0.245928 0.679319 0.466692
vn -0.794817 -0.192719 0.575434
f 697/1/175 698/2/175 699/3/175 700/4/175
v -0.245928 0.679319 0.466692
v -0.327899 0.774136 0.383306
v -0.322759 0.761608 0.364353
v -0.239688 0.664180 0.450125
vn -0.818672 -0.542743 0.187632
f 701/1/176 702/2/176 703/3/176 704/4/176
v -0.239688 0.664180 0.450125
v -0.322759 0.761608 0.364353
v -0.308606 0.757022 0.346429
v -0.226354 0.658638 0.431847
vn -0.628620 -0.741758 -0.233735
f 705/1/177 706/2/177 707/3/177 708/4/177
v -0.226354 0.658638 0.431847
v -0.308606 0.757022 0.346429
v -0.289232 0.761608 0.334337
v -0.209497 0.664180 0.416756
vn -0.284007 -0.752901 -0.593700
f 709/1/178 710/2/178 711/3/178 712/4/178
v -0.209497 0.664180 0.416756
v -0.289232 0.761608 0.334337
v -0.269828 0.774136 0.331318
v -0.193635 0.679319 0.408895
vn 0.141804 -0.569114 -0.809939
f 713/1/179 714/2/179 715/3/179 716/4/179
v -0.193635 0.679319 0.408895
v -0.269828 0.774136 0.331318
v -0.255593 0.791250 0.338179
v -0.183018 0.700000 0.410371
vn 0.545702 -0.222498 -0.807901
f 717/1/180 718/2/180 719/3/180 720/4/180
v -0.255593 0.791250 0.338179
v -0.318906 0.882500 0.258712
v -0.315502 0.899610 0.274148
v -0.250342 0.808364 0.353083
vn 0.855134 0.165471 -0.491290
f 721/1/181 722/2/181 723/3/181 724/4/181
v -0.250342 0.808364 0.353083
v -0.315502 0.899610 0.274148
v -0.322906 0.912136 0.292338
v -0.255482 0.820892 0.372037
vn 0.851066 0.513671 -0.108760
f 725/1/182 726/2/182 727/3/182 728/4/182
v -0.255482 0.820892 0.372037
v -0.322906 0.912136 0.292338
v -0.339131 0.916721 0.308410
v -0.269635 0.825478 0.389960
vn 0.619639 0.723555 0.304165
f 729/1/183 730/2/183 731/3/183 732/4/183
v -0.269635 0.825478 0.389960
v -0.339131 0.916721 0.308410
v -0.359832 0.912136 0.318056
v -0.289009 0.820892 0.402052
vn 0.222510 0.738425 0.636568
f 733/1/184 734/2/184 735/3/184 736/4/184
v -0.289009 0.820892 0.402052
v -0.359832 0.912136 0.318056
v -0.379461 0.899610 0.318693
v -0.308413 0.808364 0.405072
vn -0.233509 0.554225 0.798942
f 737/1/185 738/2/185 739/3/185 740/4/185
v -0.308413 0.808364 0.405072
v -0.379461 0.899610 0.318693
v -0.392759 0.882500 0.310149
v -0.322648 0.791250 0.398210
vn -0.625926 0.220722 0.747997
f 741/1/186 742/2/186 743/3/186 744/4/186
v -0.322648 0.791250 0.398210
v -0.392759 0.882500 0.310149
v -0.396162 0.865390 0.294713
v -0.327899 0.774136 0.383306
vn -0.849952 -0.172691 0.497755
f 745/1/187 746/2/187 747/3/187 748/4/187
v -0.327899 0.774136 0.383306
v -0.396162 0.865390 0.294713
v -0.388759 0.852864 0.276523
v -0.322759 0.761608 0.364353
vn -0.845769 -0.521000 0.115041
f 749/1/188 750/2/188 751/3/188 752/4/188
v -0.322759 0.761608 0.364353
v -0.388759 0.852864 0.276523
v -0.372533 0.848279 0.260451
v -0.308606 0.757022 0.346429
vn -0.614085 -0.730854 -0.297912
f 753/1/189 754/2/189 755/3/189 756/4/189
v -0.308606 0.757022 0.346429
v -0.372533 0.848279 0.260451
v -0.351832 0.852864 0.250805
v -0.289232 0.761608 0.334337
vn -0.216815 -0.745583 -0.630157
f 757/1/190 758/2/190 759/3/190 760/4/190
v -0.289232 0.761608 0.334337
v -0.351832 0.852864 0.250805
v -0.332203 0.865390 0.250168
v -0.269828 0.774136 0.331318
vn 0.239087 -0.561274 -0.792344
f 761/1/191 762/2/191 763/3/191 764/4/191
v -0.269828 0.774136 0.331318
v -0.332203 0.865390 0.250168
v -0.318906 0.882500 0.258712
v -0.255593 0.791250 0.338179
vn 0.631246 -0.227803 -0.741373
f 765/1/192 766/2/192 767/3/192 768/4/192
v -0.318906 0.882500 0.258712
v -0.371251 0.973750 0.172229
v -0.369924 0.990858 0.187982
v -0.315502 0.899610 0.274148
vn 0.910584 0.161938 -0.380280
f 769/1/193 770/2/193 771/3/193 772/4/193
v -0.315502 0.899610 0.274148
v -0.369924 0.990858 0.187982
v -0.379674 1.003381 0.205032
v -0.322906 0.912136 0.292338
vn 0.859646 0.510887 -0.001932
f 773/1/194 774/2/194 775/3/194 776/4/194
v -0.322906 0.912136 0.292338
v -0.379674 1.003381 0.205032
v -0.397889 1.007965 0.218809
v -0.339131 0.916721 0.308410
vn 0.578909 0.722260 0.378423
f 777/1/195 778/2/195 779/3/195 780/4/195
v -0.339131 0.916721 0.308410
v -0.397889 1.007965 0.218809
v -0.419687 1.003381 0.225623
v -0.359832 0.912136 0.318056
vn 0.143213 0.738843 0.658483
f 781/1/196 782/2/196 783/3/196 784/4/196
v -0.359832 0.912136 0.318056
v -0.419687 1.003381 0.225623
v -0.439228 0.990858 0.223648
v -0.379461 0.899610 0.318693
vn -0.330133 0.556105 0.762732
f 785/1/197 786/2/197 787/3/197 788/4/197
v -0.379461 0.899610 0.318693
v -0.439228 0.990858 0.223648
v -0.451276 0.973750 0.213412
v -0.392759 0.882500 0.310149
vn -0.713963 0.223525 0.663547
f 789/1/198 790/2/198 791/3/198 792/4/198
v -0.392759 0.882500 0.310149
v -0.451276 0.973750 0.213412
v -0.452602 0.956642 0.197658
v -0.396162 0.865390 0.294713
vn -0.905938 -0.169735 0.387899
f 793/1/199 794/2/199 795/3/199 796/4/199
v -0.396162 0.865390 0.294713
v -0.452602 0.956642 0.197658
v -0.442852 0.944119 0.180609
v -0.388759 0.852864 0.276523
vn -0.854845 -0.518799 0.009333
f 797/1/200 798/2/200 799/3/200 800/4/200
v -0.388759 0.852864 0.276523
v -0.442852 0.944119 0.180609
v -0.424638 0.939535 0.166831
v -0.372533 0.848279 0.260451
vn -0.573812 -0.730119 -0.371035
f 801/1/201 802/2/201 803/3/201 804/4/201
v -0.372533 0.848279 0.260451
v -0.424638 0.939535 0.166831
v -0.402840 0.944119 0.160017
v -0.351832 0.852864 0.250805
vn -0.137971 -0.746531 -0.650888
f 805/1/202 806/2/202 807/3/202 808/4/202
v -0.351832 0.852864 0.250805
v -0.402840 0.944119 0.160017
v -0.383299 0.956642 0.161993
v -0.332203 0.865390 0.250168
vn 0.335218 -0.563676 -0.754916
f 809/1/203 810/2/203 811/3/203 812/4/203
v -0.332203 0.865390 0.250168
v -0.383299 0.956642 0.161993
v -0.371251 0.973750 0.172229
v -0.318906 0.882500 0.258712
vn 0.718749 -0.231153 -0.655719
f 813/1/204 814/2/204 815/3/204 816/4/204
v -0.371251 0.973750 0.172229
v -0.411141 1.065000 0.079536
v -0.411976 1.082108 0.095323
v -0.369924 0.990858 0.187982
vn 0.954078 0.159502 -0.253564
f 817/1/205 818/2/205 819/3/205 820/4/205
v -0.369924 0.990858 0.187982
v -0.411976 1.082108 0.095323
v -0.423962 1.094631 0.110883
v -0.379674 1.003381 0.205032
vn 0.853188 0.508985 0.114038
f 821/1/206 822/2/206 823/3/206 824/4/206
v -0.379674 1.003381 0.205032
v -0.423962 1.094631 0.110883
v -0.443886 1.099215 0.122046
v -0.397889 1.007965 0.218809
vn 0.524007 0.721428 0.452723
f 825/1/207 826/2/207 827/3/207 828/4/207
v -0.397889 1.007965 0.218809
v -0.443886 1.099215 0.122046
v -0.466410 1.094631 0.125822
v -0.419687 1.003381 0.225623
vn 0.054374 0.739226 0.671259
f 829/1/208 830/2/208 831/3/208 832/4/208
v -0.419687 1.003381 0.225623
v -0.466410 1.094631 0.125822
v -0.485498 1.082108 0.121198
v -0.439228 0.990858 0.223648
vn -0.429150 0.557506 0.710645
f 833/1/209 834/2/209 835/3/209 836/4/209
v -0.439228 0.990858 0.223648
v -0.485498 1.082108 0.121198
v -0.496037 1.065000 0.109414
v -0.451276 0.973750 0.213412
vn -0.796684 0.225569 0.560725
f 837/1/210 838/2/210 839/3/210 840/4/210
v -0.451276 0.973750 0.213412
v -0.496037 1.065000 0.109414
v -0.495201 1.047892 0.093627
v -0.452602 0.956642 0.197658
vn -0.950402 -0.167575 0.262021
f 841/1/211 842/2/211 843/3/211 844/4/211
v -0.452602 0.956642 0.197658
v -0.495201 1.047892 0.093627
v -0.483216 1.035369 0.078067
v -0.442852 0.944119 0.180609
vn -0.849326 -0.517152 -0.105831
f 845/1/212 846/2/212 847/3/212 848/4/212
v -0.442852 0.944119 0.180609
v -0.483216 1.035369 0.078067
v -0.463292 1.030785 0.066904
v -0.424638 0.939535 0.166831
vn -0.519841 -0.729489 -0.444534
f 849/1/213 850/2/213 851/3/213 852/4/213
v -0.424638 0.939535 0.166831
v -0.463292 1.030785 0.066904
v -0.440768 1.035369 0.063128
v -0.402840 0.944119 0.160017
vn -0.050088 -0.747086 -0.662837
f 853/1/214 854/2/214 855/3/214 856/4/214
v -0.402840 0.944119 0.160017
v -0.440768 1.035369 0.063128
v -0.421679 1.047892 0.067752
v -0.383299 0.956642 0.161993
vn 0.433250 -0.565271 -0.701971
f 857/1/215 858/2/215 859/3/215 860/4/215
v -0.383299 0.956642 0.161993
v -0.421679 1.047892 0.067752
v -0.411141 1.065000 0.079536
v -0.371251 0.973750 0.172229
vn 0.800478 -0.233441 -0.552033
f 861/1/216 862/2/216 863/3/216 864/4/216
v -0.411141 1.065000 0.079536
v -0.438820 1.156250 -0.020720
v -0.440732 1.173374 -0.005045
v -0.411976 1.082108 0.095323
vn 0.979132 0.161567 -0.123272
f 865/1/217 866/2/217 867/3/217 868/4/217
v -0.411976 1.082108 0.095323
v -0.440732 1.173374 -0.005045
v -0.453751 1.185910 0.009650
v -0.423962 1.094631 0.110883
vn 0.828974 0.511055 0.227211
f 869/1/218 870/2/218 871/3/218 872/4/218
v -0.423962 1.094631 0.110883
v -0.453751 1.185910 0.009650
v -0.474389 1.190499 0.019429
v -0.443886 1.099215 0.122046
vn 0.456606 0.723389 0.517899
f 873/1/219 874/2/219 875/3/219 876/4/219
v -0.443886 1.099215 0.122046
v -0.474389 1.190499 0.019429
v -0.497116 1.185910 0.021670
v -0.466410 1.094631 0.125822
vn -0.038396 0.740918 0.670497
f 877/1/220 878/2/220 879/3/220 880/4/220
v -0.466410 1.094631 0.125822
v -0.497116 1.185910 0.021670
v -0.515842 1.173374 0.015773
v -0.485498 1.082108 0.121198
vn -0.522612 0.558856 0.643861
f 881/1/221 882/2/221 883/3/221 884/4/221
v -0.485498 1.082108 0.121198
v -0.515842 1.173374 0.015773
v -0.525550 1.156250 0.003319
v -0.496037 1.065000 0.109414
vn -0.866110 0.226659 0.445510
f 885/1/222 886/2/222 887/3/222 888/4/222
v -0.496037 1.065000 0.109414
v -0.525550 1.156250 0.003319
v -0.523639 1.139126 -0.012356
v -0.495201 1.047892 0.093627
vn -0.977599 -0.166525 0.128726
f 889/1/223 890/2/223 891/3/223 892/4/223
v -0.495201 1.047892 0.093627
v -0.523639 1.139126 -0.012356
v -0.510620 1.126590 -0.027051
v -0.483216 1.035369 0.078067
vn -0.827370 -0.515884 -0.222088
f 893/1/224 894/2/224 895/3/224 896/4/224
v -0.483216 1.035369 0.078067
v -0.510620 1.126590 -0.027051
v -0.489982 1.122001 -0.036830
v -0.463292 1.030785 0.066904
vn -0.454927 -0.727884 -0.513056
f 897/1/225 898/2/225 899/3/225 900/4/225
v -0.463292 1.030785 0.066904
v -0.489982 1.122001 -0.036830
v -0.467254 1.126590 -0.039071
v -0.440768 1.035369 0.063128
vn 0.040090 -0.745219 -0.665613
f 901/1/226 902/2/226 903/3/226 904/4/226
v -0.440768 1.035369 0.063128
v -0.467254 1.126590 -0.039071
v -0.448528 1.139126 -0.033174
v -0.421679 1.047892 0.067752
vn 0.524254 -0.563284 -0.638647
f 905/1/227 906/2/227 907/3/227 908/4/227
v -0.421679 1.047892 0.067752
v -0.448528 1.139126 -0.033174
v -0.438820 1.156250 -0.020720
v -0.411141 1.065000 0.079536
vn 0.867666 -0.231409 -0.440006
f 909/1/228 910/2/228 911/3/228 912/4/228
v -0.438820 1.156250 -0.020720
v -0.474389 1.190499 0.019429
v -0.453751 1.185910 0.009650
v -0.440732 1.173374 -0.005045
vn -0.203280 0.648658 -0.733431
f 913/1/229 914/2/229 915/3/229 916/4/229
v -0.438820 1.156250 -0.020720
v -0.515842 1.173374 0.015773
v -0.497116 1.185910 0.021670
v -0.474389 1.190499 0.019429
vn -0.203280 0.648658 -0.733431
f 917/1/230 918/2/230 919/3/230 920/4/230
v -0.438820 1.156250 -0.020720
v -0.523639 1.139126 -0.012356
v -0.525550 1.156250 0.003319
v -0.515842 1.173374 0.015773
vn -0.203280 0.648658 -0.733431
f 921/1/231 922/2/231 923/3/231 924/4/231
v -0.438820 1.156250 -0.020720
v -0.489982 1.122001 -0.036830
v -0.510620 1.126590 -0.027051
v -0.523639 1.139126 -0.012356
vn -0.203280 0.648658 -0.733431
f 925/1/232 926/2/232 927/3/232 928/4/232
v -0.438820 1.156250 -0.020720
v -0.448528 1.139126 -0.033174
v -0.467254 1.126590 -0.039071
v -0.489982 1.122001 -0.036830
vn -0.203280 0.648658 -0.733431
f 929/1/233 930/2/233 931/3/233 932/4/233
v -0.446628 1.147735 -0.004921
v -0.457601 1.156250 -0.065993
v -0.461953 1.173212 -0.064231
v -0.450712 1.164583 -0.001887
vn 0.956914 0.256465 -0.136166
f 933/1/234 934/2/234 935/3/234 936/4/234
v -0.450712 1.164583 -0.001887
v -0.461953 1.173212 -0.064231
v -0.474159 1.185629 -0.061667
v -0.462669 1.176917 0.001942
vn 0.712731 0.700730 -0.031513
f 937/1/235 938/2/235 939/3/235 940/4/235
v -0.462669 1.176917 0.001942
v -0.474159 1.185629 -0.061667
v -0.490949 1.190174 -0.058988
v -0.479295 1.181431 0.005540
vn 0.277467 0.957314 0.081001
f 941/1/236 942/2/236 943/3/236 944/4/236
v -0.479295 1.181431 0.005540
v -0.490949 1.190174 -0.058988
v -0.507825 1.185629 -0.056912
v -0.496136 1.176917 0.007942
vn -0.232172 0.957409 0.171649
f 945/1/237 946/2/237 947/3/237 948/4/237
v -0.496136 1.176917 0.007942
v -0.507825 1.185629 -0.056912
v -0.520264 1.173212 -0.055996
v -0.508678 1.164583 0.008505
vn -0.679541 0.700922 0.216639
f 949/1/238 950/2/238 951/3/238 952/4/238
v -0.508678 1.164583 0.008505
v -0.520264 1.173212 -0.055996
v -0.524933 1.156250 -0.056484
v -0.513561 1.147735 0.007078
vn -0.944749 0.256562 0.204022
f 953/1/239 954/2/239 955/3/239 956/4/239
v -0.513561 1.147735 0.007078
v -0.524933 1.156250 -0.056484
v -0.520581 1.139288 -0.058246
v -0.509478 1.130886 0.004044
vn -0.956800 -0.256552 0.136805
f 957/1/240 958/2/240 959/3/240 960/4/240
v -0.509478 1.130886 0.004044
v -0.520581 1.139288 -0.058246
v -0.508375 1.126871 -0.060810
v -0.497521 1.118553 0.000215
vn -0.712556 -0.700863 0.032488
f 961/1/241 962/2/241 963/3/241 964/4/241
v -0.497521 1.118553 0.000215
v -0.508375 1.126871 -0.060810
v -0.491585 1.122326 -0.063489
v -0.480895 1.114038 -0.003383
vn -0.277491 -0.957296 -0.081134
f 965/1/242 966/2/242 967/3/242 968/4/242
v -0.480895 1.114038 -0.003383
v -0.491585 1.122326 -0.063489
v -0.474709 1.126871 -0.065565
v -0.464054 1.118553 -0.005785
vn 0.231889 -0.957193 -0.173229
f 969/1/243 970/2/243 971/3/243 972/4/243
v -0.464054 1.118553 -0.005785
v -0.474709 1.126871 -0.065565
v -0.462270 1.139288 -0.066482
v -0.451512 1.130886 -0.006348
vn 0.679198 -0.700660 -0.218555
f 973/1/244 974/2/244 975/3/244 976/4/244
v -0.451512 1.130886 -0.006348
v -0.462270 1.139288 -0.066482
v -0.457601 1.156250 -0.065993
v -0.446628 1.147735 -0.004921
vn 0.944605 -0.256452 -0.204828
f 977/1/245 978/2/245 979/3/245 980/4/245
v -0.457601 1.156250 -0.065993
v -0.463892 1.156250 -0.126561
v -0.468437 1.173250 -0.126247
v -0.461953 1.173212 -0.064231
vn 0.961247 0.256973 -0.099846
f 981/1/246 982/2/246 983/3/246 984/4/246
v -0.461953 1.173212 -0.064231
v -0.468437 1.173250 -0.126247
v -0.480852 1.185695 -0.125388
v -0.474159 1.185629 -0.061667
vn 0.703633 0.706790 -0.073135
f 985/1/247 986/2/247 987/3/247 988/4/247
v -0.474159 1.185629 -0.061667
v -0.480852 1.185695 -0.125388
v -0.497811 1.190250 -0.124215
v -0.490949 1.190174 -0.058988
vn 0.257324 0.965974 -0.026030
f 989/1/248 990/2/248 991/3/248 992/4/248
v -0.490949 1.190174 -0.058988
v -0.497811 1.190250 -0.124215
v -0.514771 1.185695 -0.123042
v -0.507825 1.185629 -0.056912
vn -0.256724 0.966075 0.028135
f 993/1/249 994/2/249 995/3/249 996/4/249
v -0.507825 1.185629 -0.056912
v -0.514771 1.185695 -0.123042
v -0.527186 1.173250 -0.122183
v -0.520264 1.173212 -0.055996
vn -0.701773 0.708503 0.074418
f 997/1/250 998/2/250 999/3/250 1000/4/250
v -0.520264 1.173212 -0.055996
v -0.527186 1.173250 -0.122183
v -0.531730 1.156250 -0.121869
v -0.524933 1.156250 -0.056484
vn -0.959987 0.261371 0.100553
f 1001/1/251 1002/2/251 1003/3/251 1004/4/251
v -0.524933 1.156250 -0.056484
v -0.531730 1.156250 -0.121869
v -0.527186 1.139250 -0.122183
v -0.520581 1.139288 -0.058246
vn -0.961237 -0.256979 0.099930
f 1005/1/252 1006/2/252 1007/3/252 1008/4/252
v -0.520581 1.139288 -0.058246
v -0.527186 1.139250 -0.122183
v -0.514771 1.126805 -0.123042
v -0.508375 1.126871 -0.060810
vn -0.703638 -0.706788 0.073105
f 1009/1/253 1010/2/253 1011/3/253 1012/4/253
v -0.508375 1.126871 -0.060810
v -0.514771 1.126805 -0.123042
v -0.497811 1.122250 -0.124215
v -0.491585 1.122326 -0.063489
vn -0.257104 -0.965994 0.027445
f 1013/1/254 1014/2/254 1015/3/254 1016/4/254
v -0.491585 1.122326 -0.063489
v -0.497811 1.122250 -0.124215
v -0.480852 1.126805 -0.125388
v -0.474709 1.126871 -0.065565
vn 0.257087 -0.966061 -0.025151
f 1017/1/255 1018/2/255 1019/3/255 1020/4/255
v -0.474709 1.126871 -0.065565
v -0.480852 1.126805 -0.125388
v -0.468437 1.139250 -0.126247
v -0.462270 1.139288 -0.066482
vn 0.702049 -0.708550 -0.071305
f 1021/1/256 1022/2/256 1023/3/256 1024/4/256
v -0.462270 1.139288 -0.066482
v -0.468437 1.139250 -0.126247
v -0.463892 1.156250 -0.126561
v -0.457601 1.156250 -0.065993
vn 0.960135 -0.261459 -0.098895
f 1025/1/257 1026/2/257 1027/3/257 1028/4/257
v -0.463892 1.156250 -0.126561
v -0.466020 1.156250 -0.188675
v -0.470573 1.173250 -0.188518
v -0.468437 1.173250 -0.126247
vn 0.965399 0.258673 -0.033073
f 1029/1/258 1030/2/258 1031/3/258 1032/4/258
v -0.468437 1.173250 -0.126247
v -0.470573 1.173250 -0.188518
v -0.483010 1.185695 -0.188088
v -0.480852 1.185695 -0.125388
vn 0.706905 0.706893 -0.024249
f 1033/1/259 1034/2/259 1035/3/259 1036/4/259
v -0.480852 1.185695 -0.125388
v -0.483010 1.185695 -0.188088
v -0.500000 1.190250 -0.187500
v -0.497811 1.190250 -0.124215
vn 0.258811 0.965887 -0.008909
f 1037/1/260 1038/2/260 1039/3/260 1040/4/260
v -0.497811 1.190250 -0.124215
v -0.500000 1.190250 -0.187500
v -0.516990 1.185695 -0.186912
v -0.514771 1.185695 -0.123042
vn -0.258808 0.965887 0.008951
f 1041/1/261 1042/2/261 1043/3/261 1044/4/261
v -0.514771 1.185695 -0.123042
v -0.516990 1.185695 -0.186912
v -0.529427 1.173250 -0.186482
v -0.527186 1.173250 -0.122183
vn -0.706889 0.706898 0.024559
f 1045/1/262 1046/2/262 1047/3/262 1048/4/262
v -0.527186 1.173250 -0.122183
v -0.529427 1.173250 -0.186482
v -0.533980 1.156250 -0.186325
v -0.531730 1.156250 -0.121869
vn -0.965377 0.258678 0.033649
f 1049/1/263 1050/2/263 1051/3/263 1052/4/263
v -0.531730 1.156250 -0.121869
v -0.533980 1.156250 -0.186325
v -0.529427 1.139250 -0.186482
v -0.527186 1.139250 -0.122183
vn -0.965376 -0.258678 0.033689
f 1053/1/264 1054/2/264 1055/3/264 1056/4/264
v -0.527186 1.139250 -0.122183
v -0.529427 1.139250 -0.186482
v -0.516990 1.126805 -0.186912
v -0.514771 1.126805 -0.123042
vn -0.706884 -0.706900 0.024639
f 1057/1/265 1058/2/265 1059/3/265 1060/4/265
v -0.514771 1.126805 -0.123042
v -0.516990 1.126805 -0.186912
v -0.500000 1.122250 -0.187500
v -0.497811 1.122250 -0.124215
vn -0.258805 -0.965888 0.008991
f 1061/1/266 1062/2/266 1063/3/266 1064/4/266
v -0.497811 1.122250 -0.124215
v -0.500000 1.122250 -0.187500
v -0.483010 1.126805 -0.188088
v -0.480852 1.126805 -0.125388
vn 0.258808 -0.965887 -0.008951
f 1065/1/267 1066/2/267 1067/3/267 1068/4/267
v -0.480852 1.126805 -0.125388
v -0.483010 1.126805 -0.188088
v -0.470573 1.139250 -0.188518
v -0.468437 1.139250 -0.126247
vn 0.706900 -0.706894 -0.024333
f 1069/1/268 1070/2/268 1071/3/268 1072/4/268
v -0.468437 1.139250 -0.126247
v -0.470573 1.139250 -0.188518
v -0.466020 1.156250 -0.188675
v -0.463892 1.156250 -0.126561
vn 0.965397 -0.258673 -0.033115
f 1073/1/269 1074/2/269 1075/3/269 1076/4/269
v -0.466020 1.156250 -0.188675
v -0.500000 1.190250 -0.187500
v -0.483010 1.185695 -0.188088
v -0.470573 1.173250 -0.188518
vn -0.034563 -0.000000 -0.999403
f 1077/1/270 1078/2/270 1079/3/270 1080/4/270
v -0.466020 1.156250 -0.188675
v -0.529427 1.173250 -0.186482
v -0.516990 1.185695 -0.186912
v -0.500000 1.190250 -0.187500
vn -0.034563 -0.000000 -0.999403
f 1081/1/271 1082/2/271 1083/3/271 1084/4/271
v -0.466020 1.156250 -0.188675
v -0.529427 1.139250 -0.186482
v -0.533980 1.156250 -0.186325
v -0.529427 1.173250 -0.186482
vn -0.034563 0.000000 -0.999403
f 1085/1/272 1086/2/272 1087/3/272 1088/4/272
v -0.466020 1.156250 -0.188675
v -0.500000 1.122250 -0.187500
v -0.516990 1.126805 -0.186912
v -0.529427 1.139250 -0.186482
vn -0.034563 0.000000 -0.999403
f 1089/1/273 1090/2/273 1091/3/273 1092/4/273
v -0.466020 1.156250 -0.188675
v -0.470573 1.139250 -0.188518
v -0.483010 1.126805 -0.188088
v -0.500000 1.122250 -0.187500
vn -0.034563 0.000000 -0.999403
f 1093/1/274 1094/2/274 1095/3/274 1096/4/274
v 0.511796 0.125000 0.871430
v -0.224896 0.700217 0.403492
v -0.221124 0.713206 0.413521
v 0.515567 0.137989 0.881459
vn 0.673122 0.319525 -0.666942
f 1097/1/275 1098/2/275 1099/3/275 1100/4/275
v 0.515567 0.137989 0.881459
v -0.221124 0.713206 0.413521
v -0.226472 0.718586 0.428554
v 0.510220 0.143369 0.896491
vn 0.634349 0.771401 -0.050426
f 1101/1/276 1102/2/276 1103/3/276 1104/4/276
v 0.510220 0.143369 0.896491
v -0.226472 0.718586 0.428554
v -0.237806 0.713206 0.439784
v 0.498885 0.137989 0.907721
vn 0.223983 0.771401 0.595628
f 1105/1/277 1106/2/277 1107/3/277 1108/4/277
v 0.498885 0.137989 0.907721
v -0.237806 0.713206 0.439784
v -0.248487 0.700217 0.440633
v 0.488204 0.125000 0.908570
vn -0.317589 0.319525 0.892772
f 1109/1/278 1110/2/278 1111/3/278 1112/4/278
v 0.488204 0.125000 0.908570
v -0.248487 0.700217 0.440633
v -0.252259 0.687228 0.430604
v 0.484433 0.112011 0.898541
vn -0.673122 -0.319525 0.666942
f 1113/1/279 1114/2/279 1115/3/279 1116/4/279
v 0.484433 0.112011 0.898541
v -0.252259 0.687228 0.430604
v -0.246911 0.681848 0.415571
v 0.489780 0.106631 0.883509
vn -0.634349 -0.771401 0.050426
f 1117/1/280 1118/2/280 1119/3/280 1120/4/280
v 0.489780 0.106631 0.883509
v -0.246911 0.681848 0.415571
v -0.235577 0.687228 0.404341
v 0.501115 0.112011 0.872279
vn -0.223983 -0.771401 -0.595628
f 1121/1/281 1122/2/281 1123/3/281 1124/4/281
v 0.501115 0.112011 0.872279
v -0.235577 0.687228 0.404341
v -0.224896 0.700217 0.403492
v 0.511796 0.125000 0.871430
vn 0.317589 -0.319525 -0.892772
f 1125/1/282 1126/2/282 1127/3/282 1128/4/282
v -0.224896 0.700217 0.403492
v -0.237806 0.713206 0.439784
v -0.226472 0.718586 0.428554
v -0.221124 0.713206 0.413521
vn -0.704797 0.550314 -0.447678
f 1129/1/283 1130/2/283 1131/3/283 1132/4/283
v -0.224896 0.700217 0.403492
v -0.252259 0.687228 0.430604
v -0.248487 0.700217 0.440633
v -0.237806 0.713206 0.439784
vn -0.704797 0.550314 -0.447678
f 1133/1/284 1134/2/284 1135/3/284 1136/4/284
v -0.224896 0.700217 0.403492
v -0.235577 0.687228 0.404341
v -0.246911 0.681848 0.415571
v -0.252259 0.687228 0.430604
vn -0.704797 0.550314 -0.447678
f 1137/1/285 1138/2/285 1139/3/285 1140/4/285
usemtl clamp
v -0.462192 1.092877 0.037470
v -0.462192 1.217877 0.037470
v -0.430942 1.217877 0.068720
v -0.430942 1.092877 0.068720
vn 0.707107 0.000000 -0.707107
f 1141/1/286 1142/2/286 1143/3/286 1144/4/286
v -0.430942 1.092877 0.068720
v -0.430942 1.217877 0.068720
v -0.462192 1.217877 0.099970
v -0.462192 1.092877 0.099970
vn 0.707107 -0.000000 0.707107
f 1145/1/287 1146/2/287 1147/3/287 1148/4/287
v -0.462192 1.092877 0.099970
v -0.462192 1.217877 0.099970
v -0.493442 1.217877 0.068720
v -0.493442 1.092877 0.068720
vn -0.707107 0.000000 0.707107
f 1149/1/288 1150/2/288 1151/3/288 1152/4/288
v -0.493442 1.092877 0.068720
v -0.493442 1.217877 0.068720
v -0.462192 1.217877 0.037470
v -0.462192 1.092877 0.037470
vn -0.707107 0.000000 -0.707107
f 1153/1/289 1154/2/289 1155/3/289 1156/4/289
v -0.462192 1.217877 0.037470
v -0.493442 1.217877 0.068720
v -0.462192 1.217877 0.099970
v -0.430942 1.217877 0.068720
vn 0.000000 1.000000 -0.000000
f 1157/1/290 1158/2/290 1159/3/290 1160/4/290
usemtl porcelain
v -0.555942 1.217877 0.162470
v -0.368442 1.217877 0.162470
v -0.368442 1.405377 0.162470
v -0.555942 1.405377 0.162470
vn 0.000000 0.000000 1.000000
f 1161/1/291 1162/2/291 1163/3/291 1164/4/291
v -0.368442 1.217877 -0.025030
v -0.555942 1.217877 -0.025030
v -0.555942 1.405377 -0.025030
v -0.368442 1.405377 -0.025030
vn 0.000000 0.000000 -1.000000
f 1165/1/292 1166/2/292 1167/3/292 1168/4/292
v -0.368442 1.217877 0.162470
v -0.368442 1.217877 -0.025030
v -0.368442 1.405377 -0.025030
v -0.368442 1.405377 0.162470
vn 1.000000 -0.000000 0.000000
f 1169/1/293 1170/2/293 1171/3/293 1172/4/293
v -0.555942 1.217877 -0.025030
v -0.555942 1.217877 0.162470
v -0.555942 1.405377 0.162470
v -0.555942 1.405377 -0.025030
vn -1.000000 0.000000 0.000000
f 1173/1/294 1174/2/294 1175/3/294 1176/4/294
v -0.555942 1.405377 0.162470
v -0.368442 1.405377 0.162470
v -0.368442 1.405377 -0.025030
v -0.555942 1.405377 -0.025030
vn -0.000000 1.000000 0.000000
f 1177/1/295 1178/2/295 1179/3/295 1180/4/295
v -0.555942 1.217877 -0.025030
v -0.368442 1.217877 -0.025030
v -0.368442 1.217877 0.162470
v -0.555942 1.217877 0.162470
vn 0.000000 -1.000000 0.000000
f 1181/1/296 1182/2/296 1183/3/296 1184/4/296
usemtl cable
v -0.372560 1.215828 0.058118
v -0.378326 1.057962 0.038949
v -0.363613 1.058534 0.030452
v -0.357847 1.216322 0.049615
vn 0.499671 -0.122379 0.857527
f 1185/1/297 1186/2/297 1187/3/297 1188/4/297
v -0.357847 1.216322 0.049615
v -0.363613 1.058534 0.030452
v -0.363613 1.060730 0.013594
v -0.357847 1.218371 0.032739
vn 0.999343 -0.035992 -0.004370
f 1189/1/298 1190/2/298 1191/3/298 1192/4/298
v -0.357847 1.218371 0.032739
v -0.363613 1.060730 0.013594
v -0.378326 1.062353 0.005234
v -0.372560 1.219926 0.024366
vn 0.499671 0.086398 -0.861895
f 1193/1/299 1194/2/299 1195/3/299 1196/4/299
v -0.372560 1.219926 0.024366
v -0.378326 1.062353 0.005234
v -0.393039 1.061781 0.013731
v -0.387272 1.219431 0.032868
vn -0.499670 0.122405 -0.857523
f 1197/1/300 1198/2/300 1199/3/300 1200/4/300
v -0.387272 1.219431 0.032868
v -0.393039 1.061781 0.013731
v -0.393039 1.059585 0.030588
v -0.387272 1.217382 0.049744
vn -0.999341 0.036025 0.004374
f 1201/1/301 1202/2/301 1203/3/301 1204/4/301
v -0.387272 1.217382 0.049744
v -0.393039 1.059585 0.030588
v -0.378326 1.057962 0.038949
v -0.372560 1.215828 0.058118
vn -0.499670 -0.086369 0.861899
f 1205/1/302 1206/2/302 1207/3/302 1208/4/302
v -0.378326 1.057962 0.038949
v -0.371702 0.781719 -0.019953
v -0.380788 0.795935 -0.022043
v -0.363613 1.058534 0.030452
vn 0.497824 -0.169424 0.850568
f 1209/1/303 1210/2/303 1211/3/303 1212/4/303
v -0.363613 1.058534 0.030452
v -0.380788 0.795935 -0.022043
v -0.397458 0.795935 -0.018710
v -0.363613 1.060730 0.013594
vn 0.997940 -0.063611 -0.008283
f 1213/1/304 1214/2/304 1215/3/304 1216/4/304
v -0.363613 1.060730 0.013594
v -0.397458 0.795935 -0.018710
v -0.405042 0.781719 -0.013288
v -0.378326 1.062353 0.005234
vn 0.497120 0.042191 -0.866655
f 1217/1/305 1218/2/305 1219/3/305 1220/4/305
v -0.378326 1.062353 0.005234
v -0.405042 0.781719 -0.013288
v -0.395956 0.767504 -0.011198
v -0.393039 1.061781 0.013731
vn -0.500431 0.104364 -0.859463
f 1221/1/306 1222/2/306 1223/3/306 1224/4/306
v -0.393039 1.061781 0.013731
v -0.395956 0.767504 -0.011198
v -0.379286 0.767504 -0.014531
v -0.393039 1.059585 0.030588
vn -0.999951 0.009804 0.001277
f 1225/1/307 1226/2/307 1227/3/307 1228/4/307
v -0.393039 1.059585 0.030588
v -0.379286 0.767504 -0.014531
v -0.371702 0.781719 -0.019953
v -0.378326 1.057962 0.038949
vn -0.500946 -0.155118 0.851465
f 1229/1/308 1230/2/308 1231/3/308 1232/4/308
v -0.371702 0.781719 -0.019953
v -0.384381 0.870250 -0.087895
v -0.390963 0.878015 -0.074280
v -0.380788 0.795935 -0.022043
vn 0.672441 0.508818 0.537520
f 1233/1/309 1234/2/309 1235/3/309 1236/4/309
v -0.380788 0.795935 -0.022043
v -0.390963 0.878015 -0.074280
v -0.407781 0.878015 -0.071797
v -0.397458 0.795935 -0.018710
vn 0.164485 0.544021 0.822791
f 1237/1/310 1238/2/310 1239/3/310 1240/4/310
v -0.397458 0.795935 -0.018710
v -0.407781 0.878015 -0.071797
v -0.418017 0.870250 -0.082930
v -0.405042 0.781719 -0.013288
vn -0.326706 0.483962 0.811815
f 1241/1/311 1242/2/311 1243/3/311 1244/4/311
v -0.405042 0.781719 -0.013288
v -0.418017 0.870250 -0.082930
v -0.411434 0.862485 -0.096545
v -0.395956 0.767504 -0.011198
vn -0.680540 -0.512024 -0.524116
f 1245/1/312 1246/2/312 1247/3/312 1248/4/312
v -0.395956 0.767504 -0.011198
v -0.411434 0.862485 -0.096545
v -0.394617 0.862485 -0.099028
v -0.379286 0.767504 -0.014531
vn -0.144765 -0.674283 -0.724145
f 1249/1/313 1250/2/313 1251/3/313 1252/4/313
v -0.379286 0.767504 -0.014531
v -0.394617 0.862485 -0.099028
v -0.384381 0.870250 -0.087895
v -0.371702 0.781719 -0.019953
vn 0.501046 -0.528669 -0.685173
f 1253/1/314 1254/2/314 1255/3/314 1256/4/314
v -0.384381 0.870250 -0.087895
v -0.399954 1.059750 -0.189089
v -0.394275 1.067402 -0.175011
v -0.390963 0.878015 -0.074280
vn 0.920552 0.240160 0.308070
f 1257/1/315 1258/2/315 1259/3/315 1260/4/315
v -0.390963 0.878015 -0.074280
v -0.394275 1.067402 -0.175011
v -0.403776 1.067402 -0.160914
v -0.407781 0.878015 -0.071797
vn 0.129098 0.467418 0.874559
f 1261/1/316 1262/2/316 1263/3/316 1264/4/316
v -0.407781 0.878015 -0.071797
v -0.403776 1.067402 -0.160914
v -0.418956 1.059750 -0.160895
v -0.418017 0.870250 -0.082930
vn -0.795400 0.271745 0.541750
f 1265/1/317 1266/2/317 1267/3/317 1268/4/317
v -0.418017 0.870250 -0.082930
v -0.418956 1.059750 -0.160895
v -0.424636 1.052098 -0.174973
v -0.411434 0.862485 -0.096545
vn -0.921043 -0.152080 -0.358542
f 1269/1/318 1270/2/318 1271/3/318 1272/4/318
v -0.411434 0.862485 -0.096545
v -0.424636 1.052098 -0.174973
v -0.415134 1.052098 -0.189070
v -0.394617 0.862485 -0.099028
vn -0.134671 -0.386726 -0.912309
f 1273/1/319 1274/2/319 1275/3/319 1276/4/319
v -0.394617 0.862485 -0.099028
v -0.415134 1.052098 -0.189070
v -0.399954 1.059750 -0.189089
v -0.384381 0.870250 -0.087895
vn 0.785827 -0.193851 -0.587280
f 1277/1/320 1278/2/320 1279/3/320 1280/4/320
v -0.399954 1.059750 -0.189089
v -0.497674 1.139250 -0.204340
v -0.489266 1.150359 -0.194598
v -0.394275 1.067402 -0.175011
vn 0.574538 0.599263 -0.557486
f 1281/1/321 1282/2/321 1283/3/321 1284/4/321
v -0.394275 1.067402 -0.175011
v -0.489266 1.150359 -0.194598
v -0.491592 1.150359 -0.177758
v -0.403776 1.067402 -0.160914
vn 0.562969 0.734230 0.379437
f 1285/1/322 1286/2/322 1287/3/322 1288/4/322
v -0.403776 1.067402 -0.160914
v -0.491592 1.150359 -0.177758
v -0.502326 1.139250 -0.170660
v -0.418956 1.059750 -0.160895
vn -0.065212 0.131808 0.989128
f 1289/1/323 1290/2/323 1291/3/323 1292/4/323
v -0.418956 1.059750 -0.160895
v -0.502326 1.139250 -0.170660
v -0.510734 1.128141 -0.180402
v -0.424636 1.052098 -0.174973
vn -0.607477 -0.568962 0.554305
f 1293/1/324 1294/2/324 1295/3/324 1296/4/324
v -0.424636 1.052098 -0.174973
v -0.510734 1.128141 -0.180402
v -0.508408 1.128141 -0.197242
v -0.415134 1.052098 -0.189070
vn -0.592610 -0.699487 -0.399414
f 1297/1/325 1298/2/325 1299/3/325 1300/4/325
v -0.415134 1.052098 -0.189070
v -0.508408 1.128141 -0.197242
v -0.497674 1.139250 -0.204340
v -0.399954 1.059750 -0.189089
vn 0.032617 -0.067161 -0.997209
f 1301/1/326 1302/2/326 1303/3/326 1304/4/326
v -0.497674 1.139250 -0.204340
v -0.502326 1.139250 -0.170660
v -0.491592 1.150359 -0.177758
v -0.489266 1.150359 -0.194598
vn -0.747435 0.656261 -0.103254
f 1305/1/327 1306/2/327 1307/3/327 1308/4/327
v -0.497674 1.139250 -0.204340
v -0.508408 1.128141 -0.197242
v -0.510734 1.128141 -0.180402
v -0.502326 1.139250 -0.170660
vn -0.747435 0.656261 -0.103254
f 1309/1/328 1310/2/328 1311/3/328 1312/4/328
