# Generated by scripts/gen_pole_light_mounts.py
mtllib pole_light_mount.mtl
o pole_light_mount_8_left
vt 0 0
vt 1 0
vt 1 1
vt 0 1
usemtl clamp
v 0.312500 0.062500 1.000000
v 0.687500 0.062500 1.000000
v 0.687500 0.937500 1.000000
v 0.312500 0.937500 1.000000
vn 0.000000 0.000000 1.000000
f 1/1/1 2/2/1 3/3/1 4/4/1
v 0.687500 0.062500 0.900000
v 0.312500 0.062500 0.900000
v 0.312500 0.937500 0.900000
v 0.687500 0.937500 0.900000
vn 0.000000 0.000000 -1.000000
f 5/1/2 6/2/2 7/3/2 8/4/2
v 0.687500 0.062500 1.000000
v 0.687500 0.062500 0.900000
v 0.687500 0.937500 0.900000
v 0.687500 0.937500 1.000000
vn 1.000000 -0.000000 0.000000
f 9/1/3 10/2/3 11/3/3 12/4/3
v 0.312500 0.062500 0.900000
v 0.312500 0.062500 1.000000
v 0.312500 0.937500 1.000000
v 0.312500 0.937500 0.900000
vn -1.000000 0.000000 0.000000
f 13/1/4 14/2/4 15/3/4 16/4/4
v 0.312500 0.937500 1.000000
v 0.687500 0.937500 1.000000
v 0.687500 0.937500 0.900000
v 0.312500 0.937500 0.900000
vn -0.000000 1.000000 0.000000
f 17/1/5 18/2/5 19/3/5 20/4/5
v 0.312500 0.062500 0.900000
v 0.687500 0.062500 0.900000
v 0.687500 0.062500 1.000000
v 0.312500 0.062500 1.000000
vn 0.000000 -1.000000 0.000000
f 21/1/6 22/2/6 23/3/6 24/4/6
v 0.406250 0.312500 0.900000
v 0.593750 0.312500 0.900000
v 0.593750 0.531250 0.900000
v 0.406250 0.531250 0.900000
vn 0.000000 0.000000 1.000000
f 25/1/7 26/2/7 27/3/7 28/4/7
v 0.593750 0.312500 0.800000
v 0.406250 0.312500 0.800000
v 0.406250 0.531250 0.800000
v 0.593750 0.531250 0.800000
vn 0.000000 0.000000 -1.000000
f 29/1/8 30/2/8 31/3/8 32/4/8
v 0.593750 0.312500 0.900000
v 0.593750 0.312500 0.800000
v 0.593750 0.531250 0.800000
v 0.593750 0.531250 0.900000
vn 1.000000 -0.000000 0.000000
f 33/1/9 34/2/9 35/3/9 36/4/9
v 0.406250 0.312500 0.800000
v 0.406250 0.312500 0.900000
v 0.406250 0.531250 0.900000
v 0.406250 0.531250 0.800000
vn -1.000000 0.000000 0.000000
f 37/1/10 38/2/10 39/3/10 40/4/10
v 0.406250 0.531250 0.900000
v 0.593750 0.531250 0.900000
v 0.593750 0.531250 0.800000
v 0.406250 0.531250 0.800000
vn -0.000000 1.000000 0.000000
f 41/1/11 42/2/11 43/3/11 44/4/11
v 0.406250 0.312500 0.800000
v 0.593750 0.312500 0.800000
v 0.593750 0.312500 0.900000
v 0.406250 0.312500 0.900000
vn 0.000000 -1.000000 0.000000
f 45/1/12 46/2/12 47/3/12 48/4/12
v 0.468750 0.125000 0.900000
v 0.531250 0.125000 0.900000
v 0.531250 0.187500 0.900000
v 0.468750 0.187500 0.900000
vn 0.000000 0.000000 1.000000
f 49/1/13 50/2/13 51/3/13 52/4/13
v 0.531250 0.125000 0.880000
v 0.468750 0.125000 0.880000
v 0.468750 0.187500 0.880000
v 0.531250 0.187500 0.880000
vn 0.000000 0.000000 -1.000000
f 53/1/14 54/2/14 55/3/14 56/4/14
v 0.531250 0.125000 0.900000
v 0.531250 0.125000 0.880000
v 0.531250 0.187500 0.880000
v 0.531250 0.187500 0.900000
vn 1.000000 -0.000000 0.000000
f 57/1/15 58/2/15 59/3/15 60/4/15
v 0.468750 0.125000 0.880000
v 0.468750 0.125000 0.900000
v 0.468750 0.187500 0.900000
v 0.468750 0.187500 0.880000
vn -1.000000 0.000000 0.000000
f 61/1/16 62/2/16 63/3/16 64/4/16
v 0.468750 0.187500 0.900000
v 0.531250 0.187500 0.900000
v 0.531250 0.187500 0.880000
v 0.468750 0.187500 0.880000
vn -0.000000 1.000000 0.000000
f 65/1/17 66/2/17 67/3/17 68/4/17
v 0.468750 0.125000 0.880000
v 0.531250 0.125000 0.880000
v 0.531250 0.125000 0.900000
v 0.468750 0.125000 0.900000
vn 0.000000 -1.000000 0.000000
f 69/1/18 70/2/18 71/3/18 72/4/18
v 0.468750 0.812500 0.900000
v 0.531250 0.812500 0.900000
v 0.531250 0.875000 0.900000
v 0.468750 0.875000 0.900000
vn 0.000000 0.000000 1.000000
f 73/1/19 74/2/19 75/3/19 76/4/19
v 0.531250 0.812500 0.880000
v 0.468750 0.812500 0.880000
v 0.468750 0.875000 0.880000
v 0.531250 0.875000 0.880000
vn 0.000000 0.000000 -1.000000
f 77/1/20 78/2/20 79/3/20 80/4/20
v 0.531250 0.812500 0.900000
v 0.531250 0.812500 0.880000
v 0.531250 0.875000 0.880000
v 0.531250 0.875000 0.900000
vn 1.000000 -0.000000 0.000000
f 81/1/21 82/2/21 83/3/21 84/4/21
v 0.468750 0.812500 0.880000
v 0.468750 0.812500 0.900000
v 0.468750 0.875000 0.900000
v 0.468750 0.875000 0.880000
vn -1.000000 0.000000 0.000000
f 85/1/22 86/2/22 87/3/22 88/4/22
v 0.468750 0.875000 0.900000
v 0.531250 0.875000 0.900000
v 0.531250 0.875000 0.880000
v 0.468750 0.875000 0.880000
vn -0.000000 1.000000 0.000000
f 89/1/23 90/2/23 91/3/23 92/4/23
v 0.468750 0.812500 0.880000
v 0.531250 0.812500 0.880000
v 0.531250 0.812500 0.900000
v 0.468750 0.812500 0.900000
vn 0.000000 -1.000000 0.000000
f 93/1/24 94/2/24 95/3/24 96/4/24
usemtl metal
v 0.545000 0.410000 0.860000
v 0.541781 0.410000 0.783287
v 0.536184 0.432500 0.785526
v 0.538971 0.432500 0.860000
vn 0.965134 0.258607 -0.040493
f 97/1/25 98/2/25 99/3/25 100/4/25
v 0.538971 0.432500 0.860000
v 0.536184 0.432500 0.785526
v 0.520891 0.448971 0.791644
v 0.522500 0.448971 0.860000
vn 0.706859 0.706859 -0.026456
f 101/1/26 102/2/26 103/3/26 104/4/26
v 0.522500 0.448971 0.860000
v 0.520891 0.448971 0.791644
v 0.500000 0.455000 0.800000
v 0.500000 0.455000 0.860000
vn 0.258814 0.965908 -0.006093
f 105/1/27 106/2/27 107/3/27 108/4/27
v 0.500000 0.455000 0.860000
v 0.500000 0.455000 0.800000
v 0.479109 0.448971 0.808356
v 0.477500 0.448971 0.860000
vn -0.258819 0.965926 0.000000
f 109/1/28 110/2/28 111/3/28 112/4/28
v 0.477500 0.448971 0.860000
v 0.479109 0.448971 0.808356
v 0.463816 0.432500 0.814474
v 0.461029 0.432500 0.860000
vn -0.706935 0.706935 -0.022029
f 113/1/29 114/2/29 115/3/29 116/4/29
v 0.461029 0.432500 0.860000
v 0.463816 0.432500 0.814474
v 0.458219 0.410000 0.816713
v 0.455000 0.410000 0.860000
vn -0.964241 0.258368 -0.059035
f 117/1/30 118/2/30 119/3/30 120/4/30
v 0.455000 0.410000 0.860000
v 0.458219 0.410000 0.816713
v 0.463816 0.387500 0.814474
v 0.461029 0.387500 0.860000
vn -0.963444 -0.258154 -0.071635
f 121/1/31 122/2/31 123/3/31 124/4/31
v 0.461029 0.387500 0.860000
v 0.463816 0.387500 0.814474
v 0.479109 0.371029 0.808356
v 0.477500 0.371029 0.860000
vn -0.706445 -0.706445 -0.043252
f 125/1/32 126/2/32 127/3/32 128/4/32
v 0.477500 0.371029 0.860000
v 0.479109 0.371029 0.808356
v 0.500000 0.365000 0.800000
v 0.500000 0.365000 0.860000
vn -0.258811 -0.965894 -0.008065
f 129/1/33 130/2/33 131/3/33 132/4/33
v 0.500000 0.365000 0.860000
v 0.500000 0.365000 0.800000
v 0.520891 0.371029 0.791644
v 0.522500 0.371029 0.860000
vn 0.258819 -0.965926 0.000000
f 133/1/34 134/2/34 135/3/34 136/4/34
v 0.522500 0.371029 0.860000
v 0.520891 0.371029 0.791644
v 0.536184 0.387500 0.785526
v 0.538971 0.387500 0.860000
vn 0.707009 -0.707009 -0.016645
f 137/1/35 138/2/35 139/3/35 140/4/35
v 0.538971 0.387500 0.860000
v 0.536184 0.387500 0.785526
v 0.541781 0.410000 0.783287
v 0.545000 0.410000 0.860000
vn 0.965295 -0.258650 -0.036128
f 141/1/36 142/2/36 143/3/36 144/4/36
v 0.541781 0.410000 0.783287
v 0.449828 0.410000 0.682069
v 0.446245 0.432471 0.687050
v 0.536184 0.432500 0.785526
vn 0.717890 0.243501 -0.652181
f 145/1/37 146/2/37 147/3/37 148/4/37
v 0.536184 0.432500 0.785526
v 0.446245 0.432471 0.687050
v 0.434892 0.448921 0.699011
v 0.520891 0.448971 0.791644
vn 0.538999 0.683344 -0.492464
f 149/1/38 150/2/38 151/3/38 152/4/38
v 0.520891 0.448971 0.791644
v 0.434892 0.448921 0.699011
v 0.418809 0.454943 0.714749
v 0.500000 0.455000 0.800000
vn 0.202109 0.961120 -0.188152
f 153/1/39 154/2/39 155/3/39 156/4/39
v 0.500000 0.455000 0.800000
v 0.418809 0.454943 0.714749
v 0.402305 0.448921 0.730046
v 0.479109 0.448971 0.808356
vn -0.200983 0.960840 0.190765
f 157/1/40 158/2/40 159/3/40 160/4/40
v 0.479109 0.448971 0.808356
v 0.402305 0.448921 0.730046
v 0.389804 0.432471 0.740803
v 0.463816 0.432500 0.814474
vn -0.524819 0.678285 0.514290
f 161/1/41 162/2/41 163/3/41 164/4/41
v 0.463816 0.432500 0.814474
v 0.389804 0.432471 0.740803
v 0.384655 0.410000 0.744138
v 0.458219 0.410000 0.816713
vn -0.685087 0.238921 0.688166
f 165/1/42 166/2/42 167/3/42 168/4/42
v 0.458219 0.410000 0.816713
v 0.384655 0.410000 0.744138
v 0.388237 0.387529 0.739157
v 0.463816 0.387500 0.814474
vn -0.682043 -0.238479 0.691335
f 169/1/43 170/2/43 171/3/43 172/4/43
v 0.463816 0.387500 0.814474
v 0.388237 0.387529 0.739157
v 0.399591 0.371079 0.727196
v 0.479109 0.371029 0.808356
vn -0.519978 -0.676480 0.521534
f 173/1/44 174/2/44 175/3/44 176/4/44
v 0.479109 0.371029 0.808356
v 0.399591 0.371079 0.727196
v 0.415674 0.365057 0.711458
v 0.500000 0.365000 0.800000
vn -0.199295 -0.960408 0.194673
f 177/1/45 178/2/45 179/3/45 180/4/45
v 0.500000 0.365000 0.800000
v 0.415674 0.365057 0.711458
v 0.432177 0.371079 0.696161
v 0.520891 0.371029 0.791644
vn 0.200595 -0.960743 -0.191665
f 181/1/46 182/2/46 183/3/46 184/4/46
v 0.520891 0.371029 0.791644
v 0.432177 0.371079 0.696161
v 0.444678 0.387529 0.685404
v 0.536184 0.387500 0.785526
vn 0.535518 -0.682135 -0.497908
f 185/1/47 186/2/47 187/3/47 188/4/47
v 0.536184 0.387500 0.785526
v 0.444678 0.387529 0.685404
v 0.449828 0.410000 0.682069
v 0.541781 0.410000 0.783287
vn 0.715953 -0.243240 -0.654405
f 189/1/48 190/2/48 191/3/48 192/4/48
v 0.449828 0.410000 0.682069
v 0.401552 0.417097 0.631379
v 0.400171 0.439176 0.638672
v 0.446245 0.432471 0.687050
vn 0.717429 0.257806 -0.647172
f 193/1/49 194/2/49 195/3/49 196/4/49
v 0.446245 0.432471 0.687050
v 0.400171 0.439176 0.638672
v 0.390429 0.455340 0.652326
v 0.434892 0.448921 0.699011
vn 0.560458 0.704003 -0.436195
f 197/1/50 198/2/50 199/3/50 200/4/50
v 0.434892 0.448921 0.699011
v 0.390429 0.455340 0.652326
v 0.374936 0.461256 0.668683
v 0.418809 0.454943 0.714749
vn 0.253213 0.961250 -0.108999
f 201/1/51 202/2/51 203/3/51 204/4/51
v 0.418809 0.454943 0.714749
v 0.374936 0.461256 0.668683
v 0.357843 0.455340 0.683360
v 0.402305 0.448921 0.730046
vn -0.121420 0.961279 0.247386
f 205/1/52 206/2/52 207/3/52 208/4/52
v 0.402305 0.448921 0.730046
v 0.357843 0.455340 0.683360
v 0.343730 0.439176 0.692425
v 0.389804 0.432471 0.740803
vn -0.463399 0.704046 0.538127
f 209/1/53 210/2/53 211/3/53 212/4/53
v 0.389804 0.432471 0.740803
v 0.343730 0.439176 0.692425
v 0.336379 0.417097 0.693448
v 0.384655 0.410000 0.744138
vn -0.681560 0.257820 0.684839
f 213/1/54 214/2/54 215/3/54 216/4/54
v 0.384655 0.410000 0.744138
v 0.336379 0.417097 0.693448
v 0.337760 0.395017 0.686156
v 0.388237 0.387529 0.739157
vn -0.717429 -0.257806 0.647172
f 217/1/55 218/2/55 219/3/55 220/4/55
v 0.388237 0.387529 0.739157
v 0.337760 0.395017 0.686156
v 0.347502 0.378854 0.672502
v 0.399591 0.371079 0.727196
vn -0.561371 -0.703900 0.435187
f 221/1/56 222/2/56 223/3/56 224/4/56
v 0.399591 0.371079 0.727196
v 0.347502 0.378854 0.672502
v 0.362995 0.372937 0.656145
v 0.415674 0.365057 0.711458
vn -0.255404 -0.960935 0.106639
f 225/1/57 226/2/57 227/3/57 228/4/57
v 0.415674 0.365057 0.711458
v 0.362995 0.372937 0.656145
v 0.380088 0.378854 0.641467
v 0.432177 0.371079 0.696161
vn 0.118816 -0.960914 -0.250052
f 229/1/58 230/2/58 231/3/58 232/4/58
v 0.432177 0.371079 0.696161
v 0.380088 0.378854 0.641467
v 0.394201 0.395017 0.632403
v 0.444678 0.387529 0.685404
vn 0.461725 -0.703866 -0.539798
f 233/1/59 234/2/59 235/3/59 236/4/59
v 0.444678 0.387529 0.685404
v 0.394201 0.395017 0.632403
v 0.401552 0.417097 0.631379
v 0.449828 0.410000 0.682069
vn 0.681212 -0.257793 -0.685196
f 237/1/60 238/2/60 239/3/60 240/4/60
v 0.401552 0.417097 0.631379
v 0.353276 0.437693 0.580690
v 0.354346 0.458767 0.590556
v 0.400171 0.439176 0.638672
vn 0.749846 0.249290 -0.612850
f 241/1/61 242/2/61 243/3/61 244/4/61
v 0.400171 0.439176 0.638672
v 0.354346 0.458767 0.590556
v 0.346399 0.474194 0.606094
v 0.390429 0.455340 0.652326
vn 0.649136 0.679714 -0.341485
f 245/1/62 246/2/62 247/3/62 248/4/62
v 0.390429 0.455340 0.652326
v 0.346399 0.474194 0.606094
v 0.331562 0.479841 0.623140
v 0.374936 0.461256 0.668683
vn 0.375378 0.926647 0.020392
f 249/1/63 250/2/63 251/3/63 252/4/63
v 0.374936 0.461256 0.668683
v 0.331562 0.479841 0.623140
v 0.313812 0.474194 0.637128
v 0.357843 0.455340 0.683360
vn 0.002180 0.926601 0.376039
f 253/1/64 254/2/64 255/3/64 256/4/64
v 0.357843 0.455340 0.683360
v 0.313812 0.474194 0.637128
v 0.297905 0.458767 0.644309
v 0.343730 0.439176 0.692425
vn -0.372503 0.679639 0.631927
f 257/1/65 258/2/65 259/3/65 260/4/65
v 0.343730 0.439176 0.692425
v 0.297905 0.458767 0.644309
v 0.288103 0.437693 0.642759
v 0.336379 0.417097 0.693448
vn -0.648577 0.249262 0.719177
f 261/1/66 262/2/66 263/3/66 264/4/66
v 0.336379 0.417097 0.693448
v 0.288103 0.437693 0.642759
v 0.287033 0.416618 0.632893
v 0.337760 0.395017 0.686156
vn -0.749846 -0.249290 0.612850
f 265/1/67 266/2/67 267/3/67 268/4/67
v 0.337760 0.395017 0.686156
v 0.287033 0.416618 0.632893
v 0.294981 0.401191 0.617355
v 0.347502 0.378854 0.672502
vn -0.648660 -0.679892 0.342035
f 269/1/68 270/2/68 271/3/68 272/4/68
v 0.347502 0.378854 0.672502
v 0.294981 0.401191 0.617355
v 0.309817 0.395544 0.600308
v 0.362995 0.372937 0.656145
vn -0.374233 -0.927138 -0.019129
f 273/1/69 274/2/69 275/3/69 276/4/69
v 0.362995 0.372937 0.656145
v 0.309817 0.395544 0.600308
v 0.327567 0.401191 0.586320
v 0.380088 0.378854 0.641467
vn -0.000785 -0.927169 -0.374643
f 277/1/70 278/2/70 279/3/70 280/4/70
v 0.380088 0.378854 0.641467
v 0.327567 0.401191 0.586320
v 0.343474 0.416618 0.579139
v 0.394201 0.395017 0.632403
vn 0.373419 -0.679949 -0.631053
f 281/1/71 282/2/71 283/3/71 284/4/71
v 0.394201 0.395017 0.632403
v 0.343474 0.416618 0.579139
v 0.353276 0.437693 0.580690
v 0.401552 0.417097 0.631379
vn 0.648768 -0.249316 -0.718987
f 285/1/72 286/2/72 287/3/72 288/4/72
v 0.353276 0.437693 0.580690
v 0.305000 0.469771 0.530000
v 0.307754 0.489763 0.541634
v 0.354346 0.458767 0.590556
vn 0.773884 0.235856 -0.587772
f 289/1/73 290/2/73 291/3/73 292/4/73
v 0.354346 0.458767 0.590556
v 0.307754 0.489763 0.541634
v 0.301039 0.504398 0.558466
v 0.346399 0.474194 0.606094
vn 0.714998 0.643529 -0.273218
f 293/1/74 294/2/74 295/3/74 296/4/74
v 0.346399 0.474194 0.606094
v 0.301039 0.504398 0.558466
v 0.286654 0.509754 0.575986
v 0.331562 0.479841 0.623140
vn 0.465012 0.877947 0.113897
f 297/1/75 298/2/75 299/3/75 300/4/75
v 0.331562 0.479841 0.623140
v 0.286654 0.509754 0.575986
v 0.268453 0.504398 0.589500
v 0.313812 0.474194 0.637128
vn 0.091173 0.877895 0.470094
f 301/1/76 302/2/76 303/3/76 304/4/76
v 0.313812 0.474194 0.637128
v 0.268453 0.504398 0.589500
v 0.251313 0.489763 0.595387
v 0.297905 0.458767 0.644309
vn -0.307587 0.643435 0.700986
f 305/1/77 306/2/77 307/3/77 308/4/77
v 0.297905 0.458767 0.644309
v 0.251313 0.489763 0.595387
v 0.239828 0.469771 0.592069
v 0.288103 0.437693 0.642759
vn -0.624725 0.235815 0.744386
f 309/1/78 310/2/78 311/3/78 312/4/78
v 0.288103 0.437693 0.642759
v 0.239828 0.469771 0.592069
v 0.237073 0.449779 0.580435
v 0.287033 0.416618 0.632893
vn -0.773884 -0.235856 0.587772
f 313/1/79 314/2/79 315/3/79 316/4/79
v 0.287033 0.416618 0.632893
v 0.237073 0.449779 0.580435
v 0.243789 0.435145 0.563603
v 0.294981 0.401191 0.617355
vn -0.714625 -0.643763 0.273641
f 317/1/80 318/2/80 319/3/80 320/4/80
v 0.294981 0.401191 0.617355
v 0.243789 0.435145 0.563603
v 0.258174 0.429788 0.546083
v 0.309817 0.395544 0.600308
vn -0.464123 -0.878543 -0.112926
f 321/1/81 322/2/81 323/3/81 324/4/81
v 0.309817 0.395544 0.600308
v 0.258174 0.429788 0.546083
v 0.276375 0.435145 0.532569
v 0.327567 0.401191 0.586320
vn -0.090102 -0.878583 -0.469013
f 325/1/82 326/2/82 327/3/82 328/4/82
v 0.327567 0.401191 0.586320
v 0.276375 0.435145 0.532569
v 0.293514 0.449779 0.526682
v 0.343474 0.416618 0.579139
vn 0.308289 -0.643841 -0.700304
f 329/1/83 330/2/83 331/3/83 332/4/83
v 0.343474 0.416618 0.579139
v 0.293514 0.449779 0.526682
v 0.305000 0.469771 0.530000
v 0.353276 0.437693 0.580690
vn 0.624872 -0.235894 -0.744237
f 333/1/84 334/2/84 335/3/84 336/4/84
v 0.305000 0.469771 0.530000
v 0.256724 0.510193 0.479310
v 0.260423 0.529415 0.491936
v 0.307754 0.489763 0.541634
vn 0.788763 0.224365 -0.572288
f 337/1/85 338/2/85 339/3/85 340/4/85
v 0.307754 0.489763 0.541634
v 0.260423 0.529415 0.491936
v 0.254400 0.543487 0.509495
v 0.301039 0.504398 0.558466
vn 0.755855 0.612603 -0.231085
f 341/1/86 342/2/86 343/3/86 344/4/86
v 0.301039 0.504398 0.558466
v 0.254400 0.543487 0.509495
v 0.240267 0.548638 0.527281
v 0.286654 0.509754 0.575986
vn 0.520612 0.836341 0.171748
f 345/1/87 346/2/87 347/3/87 348/4/87
v 0.286654 0.509754 0.575986
v 0.240267 0.548638 0.527281
v 0.221813 0.543487 0.540529
v 0.268453 0.504398 0.589500
vn 0.146203 0.836308 0.528407
f 349/1/88 350/2/88 351/3/88 352/4/88
v 0.268453 0.504398 0.589500
v 0.221813 0.543487 0.540529
v 0.203982 0.529415 0.545689
v 0.251313 0.489763 0.595387
vn -0.267579 0.612542 0.743770
f 353/1/89 354/2/89 355/3/89 356/4/89
v 0.251313 0.489763 0.595387
v 0.203982 0.529415 0.545689
v 0.191552 0.510193 0.541379
v 0.239828 0.469771 0.592069
vn -0.610022 0.224337 0.759965
f 357/1/90 358/2/90 359/3/90 360/4/90
v 0.239828 0.469771 0.592069
v 0.191552 0.510193 0.541379
v 0.187853 0.490970 0.528754
v 0.237073 0.449779 0.580435
vn -0.788763 -0.224365 0.572288
f 361/1/91 362/2/91 363/3/91 364/4/91
v 0.237073 0.449779 0.580435
v 0.187853 0.490970 0.528754
v 0.193876 0.476898 0.511195
v 0.243789 0.435145 0.563603
vn -0.755660 -0.612762 0.231301
f 365/1/92 366/2/92 367/3/92 368/4/92
v 0.243789 0.435145 0.563603
v 0.193876 0.476898 0.511195
v 0.208008 0.471748 0.493409
v 0.258174 0.429788 0.546083
vn -0.520149 -0.836731 -0.171249
f 369/1/93 370/2/93 371/3/93 372/4/93
v 0.258174 0.429788 0.546083
v 0.208008 0.471748 0.493409
v 0.226463 0.476898 0.480161
v 0.276375 0.435145 0.532569
vn -0.145653 -0.836759 -0.527844
f 373/1/94 374/2/94 375/3/94 376/4/94
v 0.276375 0.435145 0.532569
v 0.226463 0.476898 0.480161
v 0.244294 0.490970 0.475000
v 0.293514 0.449779 0.526682
vn 0.267937 -0.612818 -0.743414
f 377/1/95 378/2/95 379/3/95 380/4/95
v 0.293514 0.449779 0.526682
v 0.244294 0.490970 0.475000
v 0.256724 0.510193 0.479310
v 0.305000 0.469771 0.530000
vn 0.610097 -0.224393 -0.759887
f 381/1/96 382/2/96 383/3/96 384/4/96
v 0.256724 0.510193 0.479310
v 0.208448 0.555000 0.428621
v 0.212448 0.573950 0.441562
v 0.260423 0.529415 0.491936
vn 0.795705 0.218038 -0.565078
f 385/1/97 386/2/97 387/3/97 388/4/97
v 0.260423 0.529415 0.491936
v 0.212448 0.573950 0.441562
v 0.206645 0.587823 0.459352
v 0.254400 0.543487 0.509495
vn 0.774945 0.595598 -0.211478
f 389/1/98 390/2/98 391/3/98 392/4/98
v 0.254400 0.543487 0.509495
v 0.206645 0.587823 0.459352
v 0.192593 0.592900 0.477223
v 0.240267 0.548638 0.527281
vn 0.546586 0.813482 0.198721
f 393/1/99 394/2/99 395/3/99 396/4/99
v 0.240267 0.548638 0.527281
v 0.192593 0.592900 0.477223
v 0.174059 0.587823 0.490387
v 0.221813 0.543487 0.540529
vn 0.171848 0.813472 0.555636
f 397/1/100 398/2/100 399/3/100 400/4/100
v 0.221813 0.543487 0.540529
v 0.174059 0.587823 0.490387
v 0.156007 0.573950 0.495316
v 0.203982 0.529415 0.545689
vn -0.248984 0.595578 0.763737
f 401/1/101 402/2/101 403/3/101 404/4/101
v 0.203982 0.529415 0.545689
v 0.156007 0.573950 0.495316
v 0.143276 0.555000 0.490690
v 0.191552 0.510193 0.541379
vn -0.603187 0.218029 0.767222
f 405/1/102 406/2/102 407/3/102 408/4/102
v 0.191552 0.510193 0.541379
v 0.143276 0.555000 0.490690
v 0.139276 0.536050 0.477748
v 0.187853 0.490970 0.528754
vn -0.795705 -0.218038 0.565078
f 409/1/103 410/2/103 411/3/103 412/4/103
v 0.187853 0.490970 0.528754
v 0.139276 0.536050 0.477748
v 0.145079 0.522177 0.459958
v 0.193876 0.476898 0.511195
vn -0.774888 -0.595651 0.211540
f 413/1/104 414/2/104 415/3/104 416/4/104
v 0.193876 0.476898 0.511195
v 0.145079 0.522177 0.459958
v 0.159131 0.517100 0.442087
v 0.208008 0.471748 0.493409
vn -0.546450 -0.813610 -0.198575
f 417/1/105 418/2/105 419/3/105 420/4/105
v 0.208008 0.471748 0.493409
v 0.159131 0.517100 0.442087
v 0.177666 0.522177 0.428924
v 0.226463 0.476898 0.480161
vn -0.171688 -0.813619 -0.555470
f 421/1/106 422/2/106 423/3/106 424/4/106
v 0.226463 0.476898 0.480161
v 0.177666 0.522177 0.428924
v 0.195717 0.536050 0.423995
v 0.244294 0.490970 0.475000
vn 0.249087 -0.595670 -0.763631
f 425/1/107 426/2/107 427/3/107 428/4/107
v 0.244294 0.490970 0.475000
v 0.195717 0.536050 0.423995
v 0.208448 0.555000 0.428621
v 0.256724 0.510193 0.479310
vn 0.603208 -0.218048 -0.767199
f 429/1/108 430/2/108 431/3/108 432/4/108
v 0.208448 0.555000 0.428621
v 0.160172 0.599807 0.377931
v 0.163871 0.619030 0.390557
v 0.212448 0.573950 0.441562
vn 0.795694 0.217985 -0.565114
f 433/1/109 434/2/109 435/3/109 436/4/109
v 0.212448 0.573950 0.441562
v 0.163871 0.619030 0.390557
v 0.157848 0.633102 0.408115
v 0.206645 0.587823 0.459352
vn 0.774920 0.595574 -0.211639
f 437/1/110 438/2/110 439/3/110 440/4/110
v 0.206645 0.587823 0.459352
v 0.157848 0.633102 0.408115
v 0.143716 0.638252 0.425901
v 0.192593 0.592900 0.477223
vn 0.546489 0.813595 0.198526
f 441/1/111 442/2/111 443/3/111 444/4/111
v 0.192593 0.592900 0.477223
v 0.143716 0.638252 0.425901
v 0.125262 0.633102 0.439150
v 0.174059 0.587823 0.490387
vn 0.171637 0.813605 0.555507
f 445/1/112 446/2/112 447/3/112 448/4/112
v 0.174059 0.587823 0.490387
v 0.125262 0.633102 0.439150
v 0.107430 0.619030 0.444310
v 0.156007 0.573950 0.495316
vn -0.249187 0.595593 0.763659
f 449/1/113 450/2/113 451/3/113 452/4/113
v 0.156007 0.573950 0.495316
v 0.107430 0.619030 0.444310
v 0.095000 0.599807 0.440000
v 0.143276 0.555000 0.490690
vn -0.603244 0.217995 0.767186
f 453/1/114 454/2/114 455/3/114 456/4/114
v 0.143276 0.555000 0.490690
v 0.095000 0.599807 0.440000
v 0.091301 0.580585 0.427374
v 0.139276 0.536050 0.477748
vn -0.795694 -0.217985 0.565114
f 457/1/115 458/2/115 459/3/115 460/4/115
v 0.139276 0.536050 0.477748
v 0.091301 0.580585 0.427374
v 0.097325 0.566513 0.409816
v 0.145079 0.522177 0.459958
vn -0.774978 -0.595520 0.211578
f 461/1/116 462/2/116 463/3/116 464/4/116
v 0.145079 0.522177 0.459958
v 0.097325 0.566513 0.409816
v 0.111457 0.561362 0.392030
v 0.159131 0.517100 0.442087
vn -0.546626 -0.813468 -0.198670
f 465/1/117 466/2/117 467/3/117 468/4/117
v 0.159131 0.517100 0.442087
v 0.111457 0.561362 0.392030
v 0.129911 0.566513 0.378781
v 0.177666 0.522177 0.428924
vn -0.171796 -0.813458 -0.555673
f 469/1/118 470/2/118 471/3/118 472/4/118
v 0.177666 0.522177 0.428924
v 0.129911 0.566513 0.378781
v 0.147742 0.580585 0.373621
v 0.195717 0.536050 0.423995
vn 0.249086 -0.595500 -0.763764
f 473/1/119 474/2/119 475/3/119 476/4/119
v 0.195717 0.536050 0.423995
v 0.147742 0.580585 0.373621
v 0.160172 0.599807 0.377931
v 0.208448 0.555000 0.428621
vn 0.603223 -0.217975 -0.767209
f 477/1/120 478/2/120 479/3/120 480/4/120
v 0.160172 0.599807 0.377931
v 0.111897 0.640229 0.327241
v 0.114651 0.660221 0.338875
v 0.163871 0.619030 0.390557
vn 0.788732 0.224189 -0.572399
f 481/1/121 482/2/121 483/3/121 484/4/121
v 0.163871 0.619030 0.390557
v 0.114651 0.660221 0.338875
v 0.107936 0.674855 0.355707
v 0.157848 0.633102 0.408115
vn 0.755771 0.612509 -0.231609
f 485/1/122 486/2/122 487/3/122 488/4/122
v 0.157848 0.633102 0.408115
v 0.107936 0.674855 0.355707
v 0.093550 0.680212 0.373228
v 0.143716 0.638252 0.425901
vn 0.520273 0.836686 0.171094
f 489/1/123 490/2/123 491/3/123 492/4/123
v 0.143716 0.638252 0.425901
v 0.093550 0.680212 0.373228
v 0.075349 0.674855 0.386742
v 0.125262 0.633102 0.439150
vn 0.145493 0.836714 0.527960
f 493/1/124 494/2/124 495/3/124 496/4/124
v 0.125262 0.633102 0.439150
v 0.075349 0.674855 0.386742
v 0.058210 0.660221 0.392628
v 0.107430 0.619030 0.444310
vn -0.268246 0.612568 0.743508
f 497/1/125 498/2/125 499/3/125 500/4/125
v 0.107430 0.619030 0.444310
v 0.058210 0.660221 0.392628
v 0.046724 0.640229 0.389310
v 0.095000 0.599807 0.440000
vn -0.610205 0.224220 0.759852
f 501/1/126 502/2/126 503/3/126 504/4/126
v 0.095000 0.599807 0.440000
v 0.046724 0.640229 0.389310
v 0.043970 0.620237 0.377677
v 0.091301 0.580585 0.427374
vn -0.788732 -0.224189 0.572399
f 505/1/127 506/2/127 507/3/127 508/4/127
v 0.091301 0.580585 0.427374
v 0.043970 0.620237 0.377677
v 0.050685 0.605602 0.360844
v 0.097325 0.566513 0.409816
vn -0.755971 -0.612340 0.231405
f 509/1/128 510/2/128 511/3/128 512/4/128
v 0.097325 0.566513 0.409816
v 0.050685 0.605602 0.360844
v 0.065070 0.600246 0.343324
v 0.111457 0.561362 0.392030
vn -0.520745 -0.836292 -0.171583
f 513/1/129 514/2/129 515/3/129 516/4/129
v 0.111457 0.561362 0.392030
v 0.065070 0.600246 0.343324
v 0.083271 0.605602 0.329810
v 0.129911 0.566513 0.378781
vn -0.146030 -0.836259 -0.528532
f 517/1/130 518/2/130 519/3/130 520/4/130
v 0.129911 0.566513 0.378781
v 0.083271 0.605602 0.329810
v 0.100411 0.620237 0.323923
v 0.147742 0.580585 0.373621
vn 0.267909 -0.612275 -0.743871
f 521/1/131 522/2/131 523/3/131 524/4/131
v 0.147742 0.580585 0.373621
v 0.100411 0.620237 0.323923
v 0.111897 0.640229 0.327241
v 0.160172 0.599807 0.377931
vn 0.610134 -0.224157 -0.759928
f 525/1/132 526/2/132 527/3/132 528/4/132
v 0.111897 0.640229 0.327241
v 0.063621 0.672307 0.276552
v 0.064691 0.693382 0.286418
v 0.114651 0.660221 0.338875
vn 0.773850 0.235532 -0.587946
f 529/1/133 530/2/133 531/3/133 532/4/133
v 0.114651 0.660221 0.338875
v 0.064691 0.693382 0.286418
v 0.056743 0.708809 0.301956
v 0.107936 0.674855 0.355707
vn 0.714846 0.643306 -0.274140
f 533/1/134 534/2/134 535/3/134 536/4/134
v 0.107936 0.674855 0.355707
v 0.056743 0.708809 0.301956
v 0.041907 0.714456 0.319002
v 0.093550 0.680212 0.373228
vn 0.464341 0.878461 0.112668
f 537/1/135 538/2/135 539/3/135 540/4/135
v 0.093550 0.680212 0.373228
v 0.041907 0.714456 0.319002
v 0.024157 0.708809 0.332990
v 0.075349 0.674855 0.386742
vn 0.089836 0.878502 0.469216
f 541/1/136 542/2/136 543/3/136 544/4/136
v 0.075349 0.674855 0.386742
v 0.024157 0.708809 0.332990
v 0.008250 0.693382 0.340171
v 0.058210 0.660221 0.392628
vn -0.308787 0.643395 0.700496
f 545/1/137 546/2/137 547/3/137 548/4/137
v 0.058210 0.660221 0.392628
v 0.008250 0.693382 0.340171
v -0.001552 0.672307 0.338621
v 0.046724 0.640229 0.389310
vn -0.625038 0.235581 0.744197
f 549/1/138 550/2/138 551/3/138 552/4/138
v 0.046724 0.640229 0.389310
v -0.001552 0.672307 0.338621
v -0.002622 0.651233 0.328755
v 0.043970 0.620237 0.377677
vn -0.773850 -0.235532 0.587946
f 553/1/139 554/2/139 555/3/139 556/4/139
v 0.043970 0.620237 0.377677
v -0.002622 0.651233 0.328755
v 0.005326 0.635806 0.313217
v 0.050685 0.605602 0.360844
vn -0.715234 -0.643039 0.273754
f 557/1/140 558/2/140 559/3/140 560/4/140
v 0.050685 0.605602 0.360844
v 0.005326 0.635806 0.313217
v 0.020162 0.630159 0.296170
v 0.065070 0.600246 0.343324
vn -0.465257 -0.877855 -0.113606
f 561/1/141 562/2/141 563/3/141 564/4/141
v 0.065070 0.600246 0.343324
v 0.020162 0.630159 0.296170
v 0.037912 0.635806 0.282182
v 0.083271 0.605602 0.329810
vn -0.090867 -0.877802 -0.470327
f 565/1/142 566/2/142 567/3/142 568/4/142
v 0.083271 0.605602 0.329810
v 0.037912 0.635806 0.282182
v 0.053819 0.651233 0.275002
v 0.100411 0.620237 0.323923
vn 0.308149 -0.642932 -0.701201
f 569/1/143 570/2/143 571/3/143 572/4/143
v 0.100411 0.620237 0.323923
v 0.053819 0.651233 0.275002
v 0.063621 0.672307 0.276552
v 0.111897 0.640229 0.327241
vn 0.624903 -0.235479 -0.744342
f 573/1/144 574/2/144 575/3/144 576/4/144
v 0.063621 0.672307 0.276552
v 0.015345 0.692903 0.225862
v 0.013964 0.714983 0.233154
v 0.064691 0.693382 0.286418
vn 0.749846 0.248893 -0.613012
f 577/1/145 578/2/145 579/3/145 580/4/145
v 0.064691 0.693382 0.286418
v 0.013964 0.714983 0.233154
v 0.004222 0.731146 0.246809
v 0.056743 0.708809 0.301956
vn 0.648966 0.679340 -0.342550
f 581/1/146 582/2/146 583/3/146 584/4/146
v 0.056743 0.708809 0.301956
v 0.004222 0.731146 0.246809
v -0.011271 0.737063 0.263166
v 0.041907 0.714456 0.319002
vn 0.374487 0.927040 0.018847
f 585/1/147 586/2/147 587/3/147 588/4/147
v 0.041907 0.714456 0.319002
v -0.011271 0.737063 0.263166
v -0.028364 0.731146 0.277843
v 0.024157 0.708809 0.332990
vn 0.000494 0.927073 0.374881
f 589/1/148 590/2/148 591/3/148 592/4/148
v 0.024157 0.708809 0.332990
v -0.028364 0.731146 0.277843
v -0.042477 0.714983 0.286908
v 0.008250 0.693382 0.340171
vn -0.373930 0.679416 0.631324
f 593/1/149 594/2/149 595/3/149 596/4/149
v 0.008250 0.693382 0.340171
v -0.042477 0.714983 0.286908
v -0.049828 0.692903 0.287931
v -0.001552 0.672307 0.338621
vn -0.648921 0.248938 0.718979
f 597/1/150 598/2/150 599/3/150 600/4/150
v -0.001552 0.672307 0.338621
v -0.049828 0.692903 0.287931
v -0.048447 0.670824 0.280639
v -0.002622 0.651233 0.328755
vn -0.749846 -0.248893 0.613012
f 601/1/151 602/2/151 603/3/151 604/4/151
v -0.002622 0.651233 0.328755
v -0.048447 0.670824 0.280639
v -0.038705 0.654660 0.266985
v 0.005326 0.635806 0.313217
vn -0.649474 -0.679104 0.342055
f 605/1/152 606/2/152 607/3/152 608/4/152
v 0.005326 0.635806 0.313217
v -0.038705 0.654660 0.266985
v -0.023212 0.648744 0.250627
v 0.020162 0.630159 0.296170
vn -0.375682 -0.926532 -0.020055
f 609/1/153 610/2/153 611/3/153 612/4/153
v 0.020162 0.630159 0.296170
v -0.023212 0.648744 0.250627
v -0.006119 0.654660 0.235950
v 0.037912 0.635806 0.282182
vn -0.001824 -0.926484 -0.376330
f 613/1/154 614/2/154 615/3/154 616/4/154
v 0.037912 0.635806 0.282182
v -0.006119 0.654660 0.235950
v 0.007994 0.670824 0.226885
v 0.053819 0.651233 0.275002
vn 0.373113 -0.679004 -0.632250
f 617/1/155 618/2/155 619/3/155 620/4/155
v 0.053819 0.651233 0.275002
v 0.007994 0.670824 0.226885
v 0.015345 0.692903 0.225862
v 0.063621 0.672307 0.276552
vn 0.648747 -0.248843 -0.719169
f 621/1/156 622/2/156 623/3/156 624/4/156
v 0.015345 0.692903 0.225862
v -0.032931 0.700000 0.175172
v -0.036352 0.722458 0.180322
v 0.013964 0.714983 0.233154
vn 0.717338 0.258531 -0.646983
f 625/1/157 626/2/157 627/3/157 628/4/157
v 0.013964 0.714983 0.233154
v -0.036352 0.722458 0.180322
v -0.047587 0.738899 0.192408
v 0.004222 0.731146 0.246809
vn 0.560778 0.704897 -0.434337
f 629/1/158 630/2/158 631/3/158 632/4/158
v 0.004222 0.731146 0.246809
v -0.047587 0.738899 0.192408
v -0.063627 0.744916 0.208191
v -0.011271 0.737063 0.263166
vn 0.255101 0.961088 -0.105990
f 633/1/159 634/2/159 635/3/159 636/4/159
v -0.011271 0.737063 0.263166
v -0.063627 0.744916 0.208191
v -0.080174 0.738899 0.223443
v -0.028364 0.731146 0.277843
vn -0.118135 0.961061 0.249812
f 637/1/160 638/2/160 639/3/160 640/4/160
v -0.028364 0.731146 0.277843
v -0.080174 0.738899 0.223443
v -0.092793 0.722458 0.234076
v -0.042477 0.714983 0.286908
vn -0.460824 0.704821 0.539323
f 641/1/161 642/2/161 643/3/161 644/4/161
v -0.042477 0.714983 0.286908
v -0.092793 0.722458 0.234076
v -0.098103 0.700000 0.237241
v -0.049828 0.692903 0.287931
vn -0.681002 0.258480 0.685146
f 645/1/162 646/2/162 647/3/162 648/4/162
v -0.049828 0.692903 0.287931
v -0.098103 0.700000 0.237241
v -0.094683 0.677542 0.232091
v -0.048447 0.670824 0.280639
vn -0.717338 -0.258531 0.646983
f 649/1/163 650/2/163 651/3/163 652/4/163
v -0.048447 0.670824 0.280639
v -0.094683 0.677542 0.232091
v -0.083447 0.661101 0.220006
v -0.038705 0.654660 0.266985
vn -0.559647 -0.705128 0.435418
f 653/1/164 654/2/164 655/3/164 656/4/164
v -0.038705 0.654660 0.266985
v -0.083447 0.661101 0.220006
v -0.067407 0.655084 0.204223
v -0.023212 0.648744 0.250627
vn -0.252473 -0.961488 0.108624
f 657/1/165 658/2/165 659/3/165 660/4/165
v -0.023212 0.648744 0.250627
v -0.067407 0.655084 0.204223
v -0.050861 0.661101 0.188971
v -0.006119 0.654660 0.235950
vn 0.121030 -0.961523 -0.246627
f 661/1/166 662/2/166 663/3/166 664/4/166
v -0.006119 0.654660 0.235950
v -0.050861 0.661101 0.188971
v -0.038242 0.677542 0.178338
v 0.007994 0.670824 0.226885
vn 0.462606 -0.705223 -0.537267
f 665/1/167 666/2/167 667/3/167 668/4/167
v 0.007994 0.670824 0.226885
v -0.038242 0.677542 0.178338
v -0.032931 0.700000 0.175172
v 0.015345 0.692903 0.225862
vn 0.681386 -0.258588 -0.684723
f 669/1/168 670/2/168 671/3/168 672/4/168
v -0.032931 0.700000 0.175172
v -4.998448 0.850000 -5.038621
v -5.002491 0.872495 -5.034123
v -0.036352 0.722458 0.180322
vn 0.703146 0.258957 -0.662213
f 673/1/169 674/2/169 675/3/169 676/4/169
v -0.036352 0.722458 0.180322
v -5.002491 0.872495 -5.034123
v -5.014182 0.888963 -5.022516
v -0.047587 0.738899 0.192408
vn 0.522000 0.707238 -0.476793
f 677/1/170 678/2/170 679/3/170 680/4/170
v -0.047587 0.738899 0.192408
v -5.014182 0.888963 -5.022516
v -5.030388 0.894990 -5.006907
v -0.063627 0.744916 0.208191
vn 0.201159 0.965768 -0.163789
f 681/1/171 682/2/171 683/3/171 684/4/171
v -0.063627 0.744916 0.208191
v -5.030388 0.894990 -5.006907
v -5.046768 0.888963 -4.991481
v -0.080174 0.738899 0.223443
vn -0.173401 0.965768 0.192935
f 685/1/172 686/2/172 687/3/172 688/4/172
v -0.080174 0.738899 0.223443
v -5.046768 0.888963 -4.991481
v -5.058932 0.872495 -4.980370
v -0.092793 0.722458 0.234076
vn -0.501673 0.707238 0.498135
f 689/1/173 690/2/173 691/3/173 692/4/173
v -0.092793 0.722458 0.234076
v -5.058932 0.872495 -4.980370
v -5.063621 0.850000 -4.976552
v -0.098103 0.700000 0.237241
vn -0.695705 0.258957 0.670027
f 693/1/174 694/2/174 695/3/174 696/4/174
v -0.098103 0.700000 0.237241
v -5.063621 0.850000 -4.976552
v -5.059578 0.827505 -4.981049
v -0.094683 0.677542 0.232091
vn -0.703146 -0.258957 0.662213
f 697/1/175 698/2/175 699/3/175 700/4/175
v -0.094683 0.677542 0.232091
v -5.059578 0.827505 -4.981049
v -5.047887 0.811037 -4.992657
v -0.083447 0.661101 0.220006
vn -0.521997 -0.707238 0.476795
f 701/1/176 702/2/176 703/3/176 704/4/176
v -0.083447 0.661101 0.220006
v -5.047887 0.811037 -4.992657
v -5.031681 0.805010 -5.008265
v -0.067407 0.655084 0.204223
vn -0.201153 -0.965768 0.163795
f 705/1/177 706/2/177 707/3/177 708/4/177
v -0.067407 0.655084 0.204223
v -5.031681 0.805010 -5.008265
v -5.015301 0.811037 -5.023691
v -0.050861 0.661101 0.188971
vn 0.173407 -0.965768 -0.192928
f 709/1/178 710/2/178 711/3/178 712/4/178
v -0.050861 0.661101 0.188971
v -5.015301 0.811037 -5.023691
v -5.003137 0.827505 -5.034802
v -0.038242 0.677542 0.178338
vn 0.501677 -0.707238 -0.498131
f 713/1/179 714/2/179 715/3/179 716/4/179
v -0.038242 0.677542 0.178338
v -5.003137 0.827505 -5.034802
v -4.998448 0.850000 -5.038621
v -0.032931 0.700000 0.175172
vn 0.695706 -0.258957 -0.670026
f 717/1/180 718/2/180 719/3/180 720/4/180
v -4.998448 0.850000 -5.038621
v -5.030388 0.894990 -5.006907
v -5.014182 0.888963 -5.022516
v -5.002491 0.872495 -5.034123
vn -0.689506 0.020829 -0.723981
f 721/1/181 722/2/181 723/3/181 724/4/181
v -4.998448 0.850000 -5.038621
v -5.058932 0.872495 -4.980370
v -5.046768 0.888963 -4.991481
v -5.030388 0.894990 -5.006907
vn -0.689506 0.020829 -0.723981
f 725/1/182 726/2/182 727/3/182 728/4/182
v -4.998448 0.850000 -5.038621
v -5.059578 0.827505 -4.981049
v -5.063621 0.850000 -4.976552
v -5.058932 0.872495 -4.980370
vn -0.689506 0.020829 -0.723981
f 729/1/183 730/2/183 731/3/183 732/4/183
v -4.998448 0.850000 -5.038621
v -5.031681 0.805010 -5.008265
v -5.047887 0.811037 -4.992657
v -5.059578 0.827505 -4.981049
vn -0.689506 0.020829 -0.723981
f 733/1/184 734/2/184 735/3/184 736/4/184
v -4.998448 0.850000 -5.038621
v -5.003137 0.827505 -5.034802
v -5.015301 0.811037 -5.023691
v -5.031681 0.805010 -5.008265
vn -0.689506 0.020829 -0.723981
f 737/1/185 738/2/185 739/3/185 740/4/185
v -4.999517 0.849792 -5.023793
v -5.130552 0.850000 -5.161379
v -5.133837 0.867000 -5.158224
v -5.002803 0.866792 -5.020638
vn 0.699659 0.258819 -0.665950
f 741/1/186 742/2/186 743/3/186 744/4/186
v -5.002803 0.866792 -5.020638
v -5.133837 0.867000 -5.158224
v -5.142840 0.879445 -5.149632
v -5.011805 0.879237 -5.012046
vn 0.512578 0.707106 -0.487098
f 745/1/187 746/2/187 747/3/187 748/4/187
v -5.011805 0.879237 -5.012046
v -5.142840 0.879445 -5.149632
v -5.155147 0.884000 -5.137904
v -5.024112 0.883792 -5.000318
vn 0.188151 0.965925 -0.177729
f 749/1/188 750/2/188 751/3/188 752/4/188
v -5.024112 0.883792 -5.000318
v -5.155147 0.884000 -5.137904
v -5.167460 0.879445 -5.126184
v -5.036426 0.879237 -4.988597
vn -0.186690 0.965925 0.179263
f 753/1/189 754/2/189 755/3/189 756/4/189
v -5.036426 0.879237 -4.988597
v -5.167460 0.879445 -5.126184
v -5.176482 0.867000 -5.117611
v -5.045447 0.866792 -4.980025
vn -0.511508 0.707106 0.488221
f 757/1/190 758/2/190 759/3/190 760/4/190
v -5.045447 0.866792 -4.980025
v -5.176482 0.867000 -5.117611
v -5.179793 0.850000 -5.114483
v -5.048759 0.849792 -4.976897
vn -0.699268 0.258819 0.666361
f 761/1/191 762/2/191 763/3/191 764/4/191
v -5.048759 0.849792 -4.976897
v -5.179793 0.850000 -5.114483
v -5.176507 0.833000 -5.117638
v -5.045473 0.832792 -4.980052
vn -0.699659 -0.258819 0.665950
f 765/1/192 766/2/192 767/3/192 768/4/192
v -5.045473 0.832792 -4.980052
v -5.176507 0.833000 -5.117638
v -5.167505 0.820555 -5.126230
v -5.036471 0.820347 -4.988644
vn -0.512578 -0.707106 0.487098
f 769/1/193 770/2/193 771/3/193 772/4/193
v -5.036471 0.820347 -4.988644
v -5.167505 0.820555 -5.126230
v -5.155198 0.816000 -5.137958
v -5.024164 0.815792 -5.000372
vn -0.188151 -0.965925 0.177729
f 773/1/194 774/2/194 775/3/194 776/4/194
v -5.024164 0.815792 -5.000372
v -5.155198 0.816000 -5.137958
v -5.142884 0.820555 -5.149679
v -5.011850 0.820347 -5.012092
vn 0.186690 -0.965925 -0.179263
f 777/1/195 778/2/195 779/3/195 780/4/195
v -5.011850 0.820347 -5.012092
v -5.142884 0.820555 -5.149679
v -5.133863 0.833000 -5.158251
v -5.002829 0.832792 -5.020665
vn 0.511508 -0.707106 -0.488221
f 781/1/196 782/2/196 783/3/196 784/4/196
v -5.002829 0.832792 -5.020665
v -5.133863 0.833000 -5.158251
v -5.130552 0.850000 -5.161379
v -4.999517 0.849792 -5.023793
vn 0.699268 -0.258819 -0.666361
f 785/1/197 786/2/197 787/3/197 788/4/197
v -5.130552 0.850000 -5.161379
v -5.155147 0.884000 -5.137904
v -5.142840 0.879445 -5.149632
v -5.133837 0.867000 -5.158224
vn -0.689655 0.001096 -0.724137
f 789/1/198 790/2/198 791/3/198 792/4/198
v -5.130552 0.850000 -5.161379
v -5.176482 0.867000 -5.117611
v -5.167460 0.879445 -5.126184
v -5.155147 0.884000 -5.137904
vn -0.689655 0.001096 -0.724137
f 793/1/199 794/2/199 795/3/199 796/4/199
v -5.130552 0.850000 -5.161379
v -5.176507 0.833000 -5.117638
v -5.179793 0.850000 -5.114483
v -5.176482 0.867000 -5.117611
vn -0.689655 0.001096 -0.724137
f 797/1/200 798/2/200 799/3/200 800/4/200
v -5.130552 0.850000 -5.161379
v -5.155198 0.816000 -5.137958
v -5.167505 0.820555 -5.126230
v -5.176507 0.833000 -5.117638
vn -0.689655 0.001096 -0.724137
f 801/1/201 802/2/201 803/3/201 804/4/201
v -5.130552 0.850000 -5.161379
v -5.133863 0.833000 -5.158251
v -5.142884 0.820555 -5.149679
v -5.155198 0.816000 -5.137958
vn -0.689655 0.001096 -0.724137
f 805/1/202 806/2/202 807/3/202 808/4/202
v 0.516872 0.125000 0.875881
v -0.103818 0.674667 0.134157
v -0.103827 0.688191 0.144187
v 0.516863 0.138525 0.885911
vn 0.829875 0.332706 -0.447899
f 809/1/203 810/2/203 811/3/203 812/4/203
v 0.516863 0.138525 0.885911
v -0.103827 0.688191 0.144187
v -0.113714 0.693794 0.156612
v 0.506976 0.144127 0.898336
vn 0.586441 0.803223 0.104495
f 813/1/204 814/2/204 815/3/204 816/4/204
v 0.506976 0.144127 0.898336
v -0.113714 0.693794 0.156612
v -0.127687 0.688191 0.164154
v 0.493003 0.138525 0.905878
vn -0.000522 0.803223 0.595678
f 817/1/205 818/2/205 819/3/205 820/4/205
v 0.493003 0.138525 0.905878
v -0.127687 0.688191 0.164154
v -0.137562 0.674667 0.162395
v 0.483128 0.125000 0.904119
vn -0.587180 0.332706 0.737921
f 821/1/206 822/2/206 823/3/206 824/4/206
v 0.483128 0.125000 0.904119
v -0.137562 0.674667 0.162395
v -0.137553 0.661142 0.152365
v 0.483137 0.111475 0.894089
vn -0.829875 -0.332706 0.447899
f 825/1/207 826/2/207 827/3/207 828/4/207
v 0.483137 0.111475 0.894089
v -0.137553 0.661142 0.152365
v -0.127666 0.655540 0.139939
v 0.493024 0.105873 0.881664
vn -0.586441 -0.803223 -0.104495
f 829/1/208 830/2/208 831/3/208 832/4/208
v 0.493024 0.105873 0.881664
v -0.127666 0.655540 0.139939
v -0.113692 0.661142 0.132398
v 0.506997 0.111475 0.874122
vn 0.000522 -0.803223 -0.595678
f 833/1/209 834/2/209 835/3/209 836/4/209
v 0.506997 0.111475 0.874122
v -0.113692 0.661142 0.132398
v -0.103818 0.674667 0.134157
v 0.516872 0.125000 0.875881
vn 0.587180 -0.332706 -0.737921
f 837/1/210 838/2/210 839/3/210 840/4/210
v -0.103818 0.674667 0.134157
v -0.127687 0.688191 0.164154
v -0.113714 0.693794 0.156612
v -0.103827 0.688191 0.144187
vn -0.557949 0.494105 -0.666749
f 841/1/211 842/2/211 843/3/211 844/4/211
v -0.103818 0.674667 0.134157
v -0.137553 0.661142 0.152365
v -0.137562 0.674667 0.162395
v -0.127687 0.688191 0.164154
vn -0.557949 0.494105 -0.666749
f 845/1/212 846/2/212 847/3/212 848/4/212
v -0.103818 0.674667 0.134157
v -0.113692 0.661142 0.132398
v -0.127666 0.655540 0.139939
v -0.137553 0.661142 0.152365
vn -0.557949 0.494105 -0.666749
f 849/1/213 850/2/213 851/3/213 852/4/213
