# Generated by scripts/gen_pole_light_mounts.py
mtllib pole_light_mount.mtl
o pole_light_mount_8_right
vt 0 0
vt 1 0
vt 1 1
vt 0 1
usemtl clamp
v 0.312500 0.062500 1.000000
v 0.687500 0.062500 1.000000
v 0.687500 0.937500 1.000000
v 0.312500 0.937500 1.000000
vn 0.000000 0.000000 1.000000
f 1/1/1 2/2/1 3/3/1 4/4/1
v 0.687500 0.062500 0.900000
v 0.312500 0.062500 0.900000
v 0.312500 0.937500 0.900000
v 0.687500 0.937500 0.900000
vn 0.000000 0.000000 -1.000000
f 5/1/2 6/2/2 7/3/2 8/4/2
v 0.687500 0.062500 1.000000
v 0.687500 0.062500 0.900000
v 0.687500 0.937500 0.900000
v 0.687500 0.937500 1.000000
vn 1.000000 -0.000000 0.000000
f 9/1/3 10/2/3 11/3/3 12/4/3
v 0.312500 0.062500 0.900000
v 0.312500 0.062500 1.000000
v 0.312500 0.937500 1.000000
v 0.312500 0.937500 0.900000
vn -1.000000 0.000000 0.000000
f 13/1/4 14/2/4 15/3/4 16/4/4
v 0.312500 0.937500 1.000000
v 0.687500 0.937500 1.000000
v 0.687500 0.937500 0.900000
v 0.312500 0.937500 0.900000
vn -0.000000 1.000000 0.000000
f 17/1/5 18/2/5 19/3/5 20/4/5
v 0.312500 0.062500 0.900000
v 0.687500 0.062500 0.900000
v 0.687500 0.062500 1.000000
v 0.312500 0.062500 1.000000
vn 0.000000 -1.000000 0.000000
f 21/1/6 22/2/6 23/3/6 24/4/6
v 0.406250 0.312500 0.900000
v 0.593750 0.312500 0.900000
v 0.593750 0.531250 0.900000
v 0.406250 0.531250 0.900000
vn 0.000000 0.000000 1.000000
f 25/1/7 26/2/7 27/3/7 28/4/7
v 0.593750 0.312500 0.800000
v 0.406250 0.312500 0.800000
v 0.406250 0.531250 0.800000
v 0.593750 0.531250 0.800000
vn 0.000000 0.000000 -1.000000
f 29/1/8 30/2/8 31/3/8 32/4/8
v 0.593750 0.312500 0.900000
v 0.593750 0.312500 0.800000
v 0.593750 0.531250 0.800000
v 0.593750 0.531250 0.900000
vn 1.000000 -0.000000 0.000000
f 33/1/9 34/2/9 35/3/9 36/4/9
v 0.406250 0.312500 0.800000
v 0.406250 0.312500 0.900000
v 0.406250 0.531250 0.900000
v 0.406250 0.531250 0.800000
vn -1.000000 0.000000 0.000000
f 37/1/10 38/2/10 39/3/10 40/4/10
v 0.406250 0.531250 0.900000
v 0.593750 0.531250 0.900000
v 0.593750 0.531250 0.800000
v 0.406250 0.531250 0.800000
vn -0.000000 1.000000 0.000000
f 41/1/11 42/2/11 43/3/11 44/4/11
v 0.406250 0.312500 0.800000
v 0.593750 0.312500 0.800000
v 0.593750 0.312500 0.900000
v 0.406250 0.312500 0.900000
vn 0.000000 -1.000000 0.000000
f 45/1/12 46/2/12 47/3/12 48/4/12
v 0.468750 0.125000 0.900000
v 0.531250 0.125000 0.900000
v 0.531250 0.187500 0.900000
v 0.468750 0.187500 0.900000
vn 0.000000 0.000000 1.000000
f 49/1/13 50/2/13 51/3/13 52/4/13
v 0.531250 0.125000 0.880000
v 0.468750 0.125000 0.880000
v 0.468750 0.187500 0.880000
v 0.531250 0.187500 0.880000
vn 0.000000 0.000000 -1.000000
f 53/1/14 54/2/14 55/3/14 56/4/14
v 0.531250 0.125000 0.900000
v 0.531250 0.125000 0.880000
v 0.531250 0.187500 0.880000
v 0.531250 0.187500 0.900000
vn 1.000000 -0.000000 0.000000
f 57/1/15 58/2/15 59/3/15 60/4/15
v 0.468750 0.125000 0.880000
v 0.468750 0.125000 0.900000
v 0.468750 0.187500 0.900000
v 0.468750 0.187500 0.880000
vn -1.000000 0.000000 0.000000
f 61/1/16 62/2/16 63/3/16 64/4/16
v 0.468750 0.187500 0.900000
v 0.531250 0.187500 0.900000
v 0.531250 0.187500 0.880000
v 0.468750 0.187500 0.880000
vn -0.000000 1.000000 0.000000
f 65/1/17 66/2/17 67/3/17 68/4/17
v 0.468750 0.125000 0.880000
v 0.531250 0.125000 0.880000
v 0.531250 0.125000 0.900000
v 0.468750 0.125000 0.900000
vn 0.000000 -1.000000 0.000000
f 69/1/18 70/2/18 71/3/18 72/4/18
v 0.468750 0.812500 0.900000
v 0.531250 0.812500 0.900000
v 0.531250 0.875000 0.900000
v 0.468750 0.875000 0.900000
vn 0.000000 0.000000 1.000000
f 73/1/19 74/2/19 75/3/19 76/4/19
v 0.531250 0.812500 0.880000
v 0.468750 0.812500 0.880000
v 0.468750 0.875000 0.880000
v 0.531250 0.875000 0.880000
vn 0.000000 0.000000 -1.000000
f 77/1/20 78/2/20 79/3/20 80/4/20
v 0.531250 0.812500 0.900000
v 0.531250 0.812500 0.880000
v 0.531250 0.875000 0.880000
v 0.531250 0.875000 0.900000
vn 1.000000 -0.000000 0.000000
f 81/1/21 82/2/21 83/3/21 84/4/21
v 0.468750 0.812500 0.880000
v 0.468750 0.812500 0.900000
v 0.468750 0.875000 0.900000
v 0.468750 0.875000 0.880000
vn -1.000000 0.000000 0.000000
f 85/1/22 86/2/22 87/3/22 88/4/22
v 0.468750 0.875000 0.900000
v 0.531250 0.875000 0.900000
v 0.531250 0.875000 0.880000
v 0.468750 0.875000 0.880000
vn -0.000000 1.000000 0.000000
f 89/1/23 90/2/23 91/3/23 92/4/23
v 0.468750 0.812500 0.880000
v 0.531250 0.812500 0.880000
v 0.531250 0.812500 0.900000
v 0.468750 0.812500 0.900000
vn 0.000000 -1.000000 0.000000
f 93/1/24 94/2/24 95/3/24 96/4/24
usemtl metal
v 0.545000 0.410000 0.860000
v 0.541781 0.410000 0.816713
v 0.536184 0.432500 0.814474
v 0.538971 0.432500 0.860000
vn 0.963444 0.258154 -0.071635
f 97/1/25 98/2/25 99/3/25 100/4/25
v 0.538971 0.432500 0.860000
v 0.536184 0.432500 0.814474
v 0.520891 0.448971 0.808356
v 0.522500 0.448971 0.860000
vn 0.706445 0.706445 -0.043252
f 101/1/26 102/2/26 103/3/26 104/4/26
v 0.522500 0.448971 0.860000
v 0.520891 0.448971 0.808356
v 0.500000 0.455000 0.800000
v 0.500000 0.455000 0.860000
vn 0.258811 0.965894 -0.008065
f 105/1/27 106/2/27 107/3/27 108/4/27
v 0.500000 0.455000 0.860000
v 0.500000 0.455000 0.800000
v 0.479109 0.448971 0.791644
v 0.477500 0.448971 0.860000
vn -0.258819 0.965926 0.000000
f 109/1/28 110/2/28 111/3/28 112/4/28
v 0.477500 0.448971 0.860000
v 0.479109 0.448971 0.791644
v 0.463816 0.432500 0.785526
v 0.461029 0.432500 0.860000
vn -0.707009 0.707009 -0.016645
f 113/1/29 114/2/29 115/3/29 116/4/29
v 0.461029 0.432500 0.860000
v 0.463816 0.432500 0.785526
v 0.458219 0.410000 0.783287
v 0.455000 0.410000 0.860000
vn -0.965295 0.258650 -0.036128
f 117/1/30 118/2/30 119/3/30 120/4/30
v 0.455000 0.410000 0.860000
v 0.458219 0.410000 0.783287
v 0.463816 0.387500 0.785526
v 0.461029 0.387500 0.860000
vn -0.965134 -0.258607 -0.040493
f 121/1/31 122/2/31 123/3/31 124/4/31
v 0.461029 0.387500 0.860000
v 0.463816 0.387500 0.785526
v 0.479109 0.371029 0.791644
v 0.477500 0.371029 0.860000
vn -0.706859 -0.706859 -0.026456
f 125/1/32 126/2/32 127/3/32 128/4/32
v 0.477500 0.371029 0.860000
v 0.479109 0.371029 0.791644
v 0.500000 0.365000 0.800000
v 0.500000 0.365000 0.860000
vn -0.258814 -0.965908 -0.006093
f 129/1/33 130/2/33 131/3/33 132/4/33
v 0.500000 0.365000 0.860000
v 0.500000 0.365000 0.800000
v 0.520891 0.371029 0.808356
v 0.522500 0.371029 0.860000
vn 0.258819 -0.965926 0.000000
f 133/1/34 134/2/34 135/3/34 136/4/34
v 0.522500 0.371029 0.860000
v 0.520891 0.371029 0.808356
v 0.536184 0.387500 0.814474
v 0.538971 0.387500 0.860000
vn 0.706935 -0.706935 -0.022029
f 137/1/35 138/2/35 139/3/35 140/4/35
v 0.538971 0.387500 0.860000
v 0.536184 0.387500 0.814474
v 0.541781 0.410000 0.816713
v 0.545000 0.410000 0.860000
vn 0.964241 -0.258368 -0.059035
f 141/1/36 142/2/36 143/3/36 144/4/36
v 0.541781 0.410000 0.816713
v 0.615345 0.410000 0.744138
v 0.610196 0.432471 0.740803
v 0.536184 0.432500 0.814474
vn 0.682043 0.238479 0.691335
f 145/1/37 146/2/37 147/3/37 148/4/37
v 0.536184 0.432500 0.814474
v 0.610196 0.432471 0.740803
v 0.597695 0.448921 0.730046
v 0.520891 0.448971 0.808356
vn 0.519742 0.676391 0.521884
f 149/1/38 150/2/38 151/3/38 152/4/38
v 0.520891 0.448971 0.808356
v 0.597695 0.448921 0.730046
v 0.581191 0.454943 0.714749
v 0.500000 0.455000 0.800000
vn 0.199241 0.960394 0.194798
f 153/1/39 154/2/39 155/3/39 156/4/39
v 0.500000 0.455000 0.800000
v 0.581191 0.454943 0.714749
v 0.565108 0.448921 0.699011
v 0.479109 0.448971 0.791644
vn -0.200587 0.960741 -0.191682
f 157/1/40 158/2/40 159/3/40 160/4/40
v 0.479109 0.448971 0.791644
v 0.565108 0.448921 0.699011
v 0.553755 0.432471 0.687050
v 0.463816 0.432500 0.785526
vn -0.535668 0.682187 -0.497675
f 161/1/41 162/2/41 163/3/41 164/4/41
v 0.463816 0.432500 0.785526
v 0.553755 0.432471 0.687050
v 0.550172 0.410000 0.682069
v 0.458219 0.410000 0.783287
vn -0.716176 0.243270 -0.654150
f 165/1/42 166/2/42 167/3/42 168/4/42
v 0.458219 0.410000 0.783287
v 0.550172 0.410000 0.682069
v 0.555322 0.387529 0.685404
v 0.463816 0.387500 0.785526
vn -0.717890 -0.243501 -0.652181
f 169/1/43 170/2/43 171/3/43 172/4/43
v 0.463816 0.387500 0.785526
v 0.555322 0.387529 0.685404
v 0.567823 0.371079 0.696161
v 0.479109 0.371029 0.791644
vn -0.538861 -0.683297 -0.492681
f 173/1/44 174/2/44 175/3/44 176/4/44
v 0.479109 0.371029 0.791644
v 0.567823 0.371079 0.696161
v 0.584326 0.365057 0.711458
v 0.500000 0.365000 0.800000
vn -0.202069 -0.961110 -0.188244
f 177/1/45 178/2/45 179/3/45 180/4/45
v 0.500000 0.365000 0.800000
v 0.584326 0.365057 0.711458
v 0.600409 0.371079 0.727196
v 0.520891 0.371029 0.808356
vn 0.200976 -0.960839 0.190782
f 181/1/46 182/2/46 183/3/46 184/4/46
v 0.520891 0.371029 0.808356
v 0.600409 0.371079 0.727196
v 0.611763 0.387529 0.739157
v 0.536184 0.387500 0.814474
vn 0.525023 -0.678360 0.513983
f 185/1/47 186/2/47 187/3/47 188/4/47
v 0.536184 0.387500 0.814474
v 0.611763 0.387529 0.739157
v 0.615345 0.410000 0.744138
v 0.541781 0.410000 0.816713
vn 0.685468 -0.238976 0.687768
f 189/1/48 190/2/48 191/3/48 192/4/48
v 0.615345 0.410000 0.744138
v 0.663621 0.417097 0.693448
v 0.656270 0.439176 0.692425
v 0.610196 0.432471 0.740803
vn 0.681378 0.257806 0.685026
f 193/1/49 194/2/49 195/3/49 196/4/49
v 0.610196 0.432471 0.740803
v 0.656270 0.439176 0.692425
v 0.642157 0.455340 0.683360
v 0.597695 0.448921 0.730046
vn 0.462999 0.704003 0.538527
f 197/1/50 198/2/50 199/3/50 200/4/50
v 0.597695 0.448921 0.730046
v 0.642157 0.455340 0.683360
v 0.625064 0.461256 0.668683
v 0.581191 0.454943 0.714749
vn 0.121213 0.961250 0.247598
f 201/1/51 202/2/51 203/3/51 204/4/51
v 0.581191 0.454943 0.714749
v 0.625064 0.461256 0.668683
v 0.609571 0.455340 0.652326
v 0.565108 0.448921 0.699011
vn -0.253012 0.961279 -0.109215
f 205/1/52 206/2/52 207/3/52 208/4/52
v 0.565108 0.448921 0.699011
v 0.609571 0.455340 0.652326
v 0.599829 0.439176 0.638672
v 0.553755 0.432471 0.687050
vn -0.560079 0.704046 -0.436613
f 209/1/53 210/2/53 211/3/53 212/4/53
v 0.553755 0.432471 0.687050
v 0.599829 0.439176 0.638672
v 0.598448 0.417097 0.631379
v 0.550172 0.410000 0.682069
vn -0.717252 0.257820 -0.647363
f 213/1/54 214/2/54 215/3/54 216/4/54
v 0.550172 0.410000 0.682069
v 0.598448 0.417097 0.631379
v 0.605799 0.395017 0.632403
v 0.555322 0.387529 0.685404
vn -0.681378 -0.257806 -0.685026
f 217/1/55 218/2/55 219/3/55 220/4/55
v 0.555322 0.387529 0.685404
v 0.605799 0.395017 0.632403
v 0.619912 0.378854 0.641467
v 0.567823 0.371079 0.696161
vn -0.462037 -0.703900 -0.539487
f 221/1/56 222/2/56 223/3/56 224/4/56
v 0.567823 0.371079 0.696161
v 0.619912 0.378854 0.641467
v 0.637005 0.372937 0.656145
v 0.584326 0.365057 0.711458
vn -0.118963 -0.960935 -0.249902
f 225/1/57 226/2/57 227/3/57 228/4/57
v 0.584326 0.365057 0.711458
v 0.637005 0.372937 0.656145
v 0.652498 0.378854 0.672502
v 0.600409 0.371079 0.727196
vn 0.255547 -0.960914 0.106485
f 229/1/58 230/2/58 231/3/58 232/4/58
v 0.600409 0.371079 0.727196
v 0.652498 0.378854 0.672502
v 0.662240 0.395017 0.686156
v 0.611763 0.387529 0.739157
vn 0.561666 -0.703866 0.434860
f 233/1/59 234/2/59 235/3/59 236/4/59
v 0.611763 0.387529 0.739157
v 0.662240 0.395017 0.686156
v 0.663621 0.417097 0.693448
v 0.615345 0.410000 0.744138
vn 0.717591 -0.257793 0.646997
f 237/1/60 238/2/60 239/3/60 240/4/60
v 0.663621 0.417097 0.693448
v 0.711897 0.437693 0.642759
v 0.702095 0.458767 0.644309
v 0.656270 0.439176 0.692425
vn 0.648677 0.249290 0.719077
f 241/1/61 242/2/61 243/3/61 244/4/61
v 0.656270 0.439176 0.692425
v 0.702095 0.458767 0.644309
v 0.686188 0.474194 0.637128
v 0.642157 0.455340 0.683360
vn 0.372725 0.679714 0.631716
f 245/1/62 246/2/62 247/3/62 248/4/62
v 0.642157 0.455340 0.683360
v 0.686188 0.474194 0.637128
v 0.668438 0.479841 0.623140
v 0.625064 0.461256 0.668683
vn -0.002067 0.926647 0.375926
f 249/1/63 250/2/63 251/3/63 252/4/63
v 0.625064 0.461256 0.668683
v 0.668438 0.479841 0.623140
v 0.653601 0.474194 0.606094
v 0.609571 0.455340 0.652326
vn -0.375486 0.926601 0.020510
f 253/1/64 254/2/64 255/3/64 256/4/64
v 0.609571 0.455340 0.652326
v 0.653601 0.474194 0.606094
v 0.645654 0.458767 0.590556
v 0.599829 0.439176 0.638672
vn -0.649336 0.679639 -0.341253
f 257/1/65 258/2/65 259/3/65 260/4/65
v 0.599829 0.439176 0.638672
v 0.645654 0.458767 0.590556
v 0.646724 0.437693 0.580690
v 0.598448 0.417097 0.631379
vn -0.749941 0.249262 -0.612745
f 261/1/66 262/2/66 263/3/66 264/4/66
v 0.598448 0.417097 0.631379
v 0.646724 0.437693 0.580690
v 0.656526 0.416618 0.579139
v 0.605799 0.395017 0.632403
vn -0.648677 -0.249290 -0.719077
f 265/1/67 266/2/67 267/3/67 268/4/67
v 0.605799 0.395017 0.632403
v 0.656526 0.416618 0.579139
v 0.672433 0.401191 0.586320
v 0.619912 0.378854 0.641467
vn -0.373251 -0.679892 -0.631214
f 269/1/68 270/2/68 271/3/68 272/4/68
v 0.619912 0.378854 0.641467
v 0.672433 0.401191 0.586320
v 0.690183 0.395544 0.600308
v 0.637005 0.372937 0.656145
vn 0.000862 -0.927138 -0.374720
f 273/1/69 274/2/69 275/3/69 276/4/69
v 0.637005 0.372937 0.656145
v 0.690183 0.395544 0.600308
v 0.705019 0.401191 0.617355
v 0.652498 0.378854 0.672502
vn 0.374159 -0.927169 -0.019048
f 277/1/70 278/2/70 279/3/70 280/4/70
v 0.652498 0.378854 0.672502
v 0.705019 0.401191 0.617355
v 0.712967 0.416618 0.632893
v 0.662240 0.395017 0.686156
vn 0.648508 -0.679949 0.342210
f 281/1/71 282/2/71 283/3/71 284/4/71
v 0.662240 0.395017 0.686156
v 0.712967 0.416618 0.632893
v 0.711897 0.437693 0.642759
v 0.663621 0.417097 0.693448
vn 0.749760 -0.249316 0.612945
f 285/1/72 286/2/72 287/3/72 288/4/72
v 0.711897 0.437693 0.642759
v 0.760172 0.469771 0.592069
v 0.748687 0.489763 0.595387
v 0.702095 0.458767 0.644309
vn 0.624801 0.235856 0.744309
f 289/1/73 290/2/73 291/3/73 292/4/73
v 0.702095 0.458767 0.644309
v 0.748687 0.489763 0.595387
v 0.731547 0.504398 0.589500
v 0.686188 0.474194 0.637128
vn 0.307750 0.643529 0.700828
f 293/1/74 294/2/74 295/3/74 296/4/74
v 0.686188 0.474194 0.637128
v 0.731547 0.504398 0.589500
v 0.713346 0.509754 0.575986
v 0.668438 0.479841 0.623140
vn -0.091092 0.877947 0.470012
f 297/1/75 298/2/75 299/3/75 300/4/75
v 0.668438 0.479841 0.623140
v 0.713346 0.509754 0.575986
v 0.698961 0.504398 0.558466
v 0.653601 0.474194 0.606094
vn -0.465090 0.877895 0.113982
f 301/1/76 302/2/76 303/3/76 304/4/76
v 0.653601 0.474194 0.606094
v 0.698961 0.504398 0.558466
v 0.692246 0.489763 0.541634
v 0.645654 0.458767 0.590556
vn -0.715148 0.643435 -0.273048
f 305/1/77 306/2/77 307/3/77 308/4/77
v 0.645654 0.458767 0.590556
v 0.692246 0.489763 0.541634
v 0.695000 0.469771 0.530000
v 0.646724 0.437693 0.580690
vn -0.773957 0.235815 -0.587692
f 309/1/78 310/2/78 311/3/78 312/4/78
v 0.646724 0.437693 0.580690
v 0.695000 0.469771 0.530000
v 0.706486 0.449779 0.526682
v 0.656526 0.416618 0.579139
vn -0.624801 -0.235856 -0.744309
f 313/1/79 314/2/79 315/3/79 316/4/79
v 0.656526 0.416618 0.579139
v 0.706486 0.449779 0.526682
v 0.723625 0.435145 0.532569
v 0.672433 0.401191 0.586320
vn -0.308155 -0.643763 -0.700435
f 317/1/80 318/2/80 319/3/80 320/4/80
v 0.672433 0.401191 0.586320
v 0.723625 0.435145 0.532569
v 0.741826 0.429788 0.546083
v 0.690183 0.395544 0.600308
vn 0.090165 -0.878543 -0.469077
f 321/1/81 322/2/81 323/3/81 324/4/81
v 0.690183 0.395544 0.600308
v 0.741826 0.429788 0.546083
v 0.756211 0.435145 0.563603
v 0.705019 0.401191 0.617355
vn 0.464063 -0.878583 -0.112860
f 325/1/82 326/2/82 327/3/82 328/4/82
v 0.705019 0.401191 0.617355
v 0.756211 0.435145 0.563603
v 0.762927 0.449779 0.580435
v 0.712967 0.416618 0.632893
vn 0.714501 -0.643841 0.273782
f 329/1/83 330/2/83 331/3/83 332/4/83
v 0.712967 0.416618 0.632893
v 0.762927 0.449779 0.580435
v 0.760172 0.469771 0.592069
v 0.711897 0.437693 0.642759
vn 0.773815 -0.235894 0.587847
f 333/1/84 334/2/84 335/3/84 336/4/84
v 0.760172 0.469771 0.592069
v 0.808448 0.510193 0.541379
v 0.796018 0.529415 0.545689
v 0.748687 0.489763 0.595387
vn 0.610060 0.224365 0.759925
f 337/1/85 338/2/85 339/3/85 340/4/85
v 0.748687 0.489763 0.595387
v 0.796018 0.529415 0.545689
v 0.778187 0.543487 0.540529
v 0.731547 0.504398 0.589500
vn 0.267659 0.612603 0.743691
f 341/1/86 342/2/86 343/3/86 344/4/86
v 0.731547 0.504398 0.589500
v 0.778187 0.543487 0.540529
v 0.759733 0.548638 0.527281
v 0.713346 0.509754 0.575986
vn -0.146164 0.836341 0.528366
f 345/1/87 346/2/87 347/3/87 348/4/87
v 0.713346 0.509754 0.575986
v 0.759733 0.548638 0.527281
v 0.745600 0.543487 0.509495
v 0.698961 0.504398 0.558466
vn -0.520651 0.836308 0.171790
f 349/1/88 350/2/88 351/3/88 352/4/88
v 0.698961 0.504398 0.558466
v 0.745600 0.543487 0.509495
v 0.739577 0.529415 0.491936
v 0.692246 0.489763 0.541634
vn -0.755931 0.612542 -0.231001
f 353/1/89 354/2/89 355/3/89 356/4/89
v 0.692246 0.489763 0.541634
v 0.739577 0.529415 0.491936
v 0.743276 0.510193 0.479310
v 0.695000 0.469771 0.530000
vn -0.788800 0.224337 -0.572247
f 357/1/90 358/2/90 359/3/90 360/4/90
v 0.695000 0.469771 0.530000
v 0.743276 0.510193 0.479310
v 0.755706 0.490970 0.475000
v 0.706486 0.449779 0.526682
vn -0.610060 -0.224365 -0.759925
f 361/1/91 362/2/91 363/3/91 364/4/91
v 0.706486 0.449779 0.526682
v 0.755706 0.490970 0.475000
v 0.773537 0.476898 0.480161
v 0.723625 0.435145 0.532569
vn -0.267866 -0.612762 -0.743485
f 365/1/92 366/2/92 367/3/92 368/4/92
v 0.723625 0.435145 0.532569
v 0.773537 0.476898 0.480161
v 0.791992 0.471748 0.493409
v 0.741826 0.429788 0.546083
vn 0.145687 -0.836731 -0.527879
f 369/1/93 370/2/93 371/3/93 372/4/93
v 0.741826 0.429788 0.546083
v 0.791992 0.471748 0.493409
v 0.806124 0.476898 0.511195
v 0.756211 0.435145 0.563603
vn 0.520115 -0.836759 -0.171213
f 373/1/94 374/2/94 375/3/94 376/4/94
v 0.756211 0.435145 0.563603
v 0.806124 0.476898 0.511195
v 0.812147 0.490970 0.528754
v 0.762927 0.449779 0.580435
vn 0.755592 -0.612818 0.231376
f 377/1/95 378/2/95 379/3/95 380/4/95
v 0.762927 0.449779 0.580435
v 0.812147 0.490970 0.528754
v 0.808448 0.510193 0.541379
v 0.760172 0.469771 0.592069
vn 0.788727 -0.224393 0.572326
f 381/1/96 382/2/96 383/3/96 384/4/96
v 0.808448 0.510193 0.541379
v 0.856724 0.555000 0.490690
v 0.843993 0.573950 0.495316
v 0.796018 0.529415 0.545689
vn 0.603198 0.218038 0.767210
f 385/1/97 386/2/97 387/3/97 388/4/97
v 0.796018 0.529415 0.545689
v 0.843993 0.573950 0.495316
v 0.825941 0.587823 0.490387
v 0.778187 0.543487 0.540529
vn 0.249006 0.595598 0.763714
f 389/1/98 390/2/98 391/3/98 392/4/98
v 0.778187 0.543487 0.540529
v 0.825941 0.587823 0.490387
v 0.807407 0.592900 0.477223
v 0.759733 0.548638 0.527281
vn -0.171837 0.813482 0.555624
f 393/1/99 394/2/99 395/3/99 396/4/99
v 0.759733 0.548638 0.527281
v 0.807407 0.592900 0.477223
v 0.793355 0.587823 0.459352
v 0.745600 0.543487 0.509495
vn -0.546597 0.813472 0.198732
f 397/1/100 398/2/100 399/3/100 400/4/100
v 0.745600 0.543487 0.509495
v 0.793355 0.587823 0.459352
v 0.787552 0.573950 0.441562
v 0.739577 0.529415 0.491936
vn -0.774967 0.595578 -0.211454
f 401/1/101 402/2/101 403/3/101 404/4/101
v 0.739577 0.529415 0.491936
v 0.787552 0.573950 0.441562
v 0.791552 0.555000 0.428621
v 0.743276 0.510193 0.479310
vn -0.795716 0.218029 -0.565066
f 405/1/102 406/2/102 407/3/102 408/4/102
v 0.743276 0.510193 0.479310
v 0.791552 0.555000 0.428621
v 0.804283 0.536050 0.423995
v 0.755706 0.490970 0.475000
vn -0.603198 -0.218038 -0.767210
f 409/1/103 410/2/103 411/3/103 412/4/103
v 0.755706 0.490970 0.475000
v 0.804283 0.536050 0.423995
v 0.822334 0.522177 0.428924
v 0.773537 0.476898 0.480161
vn -0.249065 -0.595651 -0.763653
f 413/1/104 414/2/104 415/3/104 416/4/104
v 0.773537 0.476898 0.480161
v 0.822334 0.522177 0.428924
v 0.840869 0.517100 0.442087
v 0.791992 0.471748 0.493409
vn 0.171699 -0.813610 -0.555481
f 417/1/105 418/2/105 419/3/105 420/4/105
v 0.791992 0.471748 0.493409
v 0.840869 0.517100 0.442087
v 0.854921 0.522177 0.459958
v 0.806124 0.476898 0.511195
vn 0.546440 -0.813619 -0.198564
f 421/1/106 422/2/106 423/3/106 424/4/106
v 0.806124 0.476898 0.511195
v 0.854921 0.522177 0.459958
v 0.860724 0.536050 0.477748
v 0.812147 0.490970 0.528754
vn 0.774867 -0.595670 0.211562
f 425/1/107 426/2/107 427/3/107 428/4/107
v 0.812147 0.490970 0.528754
v 0.860724 0.536050 0.477748
v 0.856724 0.555000 0.490690
v 0.808448 0.510193 0.541379
vn 0.795694 -0.218048 0.565089
f 429/1/108 430/2/108 431/3/108 432/4/108
v 0.856724 0.555000 0.490690
v 0.905000 0.599807 0.440000
v 0.892570 0.619030 0.444310
v 0.843993 0.573950 0.495316
vn 0.603233 0.217985 0.767197
f 433/1/109 434/2/109 435/3/109 436/4/109
v 0.843993 0.573950 0.495316
v 0.892570 0.619030 0.444310
v 0.874738 0.633102 0.439150
v 0.825941 0.587823 0.490387
vn 0.249166 0.595574 0.763681
f 437/1/110 438/2/110 439/3/110 440/4/110
v 0.825941 0.587823 0.490387
v 0.874738 0.633102 0.439150
v 0.856284 0.638252 0.425901
v 0.807407 0.592900 0.477223
vn -0.171647 0.813595 0.555517
f 441/1/111 442/2/111 443/3/111 444/4/111
v 0.807407 0.592900 0.477223
v 0.856284 0.638252 0.425901
v 0.842152 0.633102 0.408115
v 0.793355 0.587823 0.459352
vn -0.546478 0.813605 0.198515
f 445/1/112 446/2/112 447/3/112 448/4/112
v 0.793355 0.587823 0.459352
v 0.842152 0.633102 0.408115
v 0.836129 0.619030 0.390557
v 0.787552 0.573950 0.441562
vn -0.774899 0.595593 -0.211661
f 449/1/113 450/2/113 451/3/113 452/4/113
v 0.787552 0.573950 0.441562
v 0.836129 0.619030 0.390557
v 0.839828 0.599807 0.377931
v 0.791552 0.555000 0.428621
vn -0.795683 0.217995 -0.565125
f 453/1/114 454/2/114 455/3/114 456/4/114
v 0.791552 0.555000 0.428621
v 0.839828 0.599807 0.377931
v 0.852258 0.580585 0.373621
v 0.804283 0.536050 0.423995
vn -0.603233 -0.217985 -0.767197
f 457/1/115 458/2/115 459/3/115 460/4/115
v 0.804283 0.536050 0.423995
v 0.852258 0.580585 0.373621
v 0.870089 0.566513 0.378781
v 0.822334 0.522177 0.428924
vn -0.249108 -0.595520 -0.763742
f 461/1/116 462/2/116 463/3/116 464/4/116
v 0.822334 0.522177 0.428924
v 0.870089 0.566513 0.378781
v 0.888543 0.561362 0.392030
v 0.840869 0.517100 0.442087
vn 0.171785 -0.813468 -0.555662
f 465/1/117 466/2/117 467/3/117 468/4/117
v 0.840869 0.517100 0.442087
v 0.888543 0.561362 0.392030
v 0.902675 0.566513 0.409816
v 0.854921 0.522177 0.459958
vn 0.546637 -0.813458 -0.198681
f 469/1/118 470/2/118 471/3/118 472/4/118
v 0.854921 0.522177 0.459958
v 0.902675 0.566513 0.409816
v 0.908699 0.580585 0.427374
v 0.860724 0.536050 0.477748
vn 0.775000 -0.595500 0.211555
f 473/1/119 474/2/119 475/3/119 476/4/119
v 0.860724 0.536050 0.477748
v 0.908699 0.580585 0.427374
v 0.905000 0.599807 0.440000
v 0.856724 0.555000 0.490690
vn 0.795704 -0.217975 0.565103
f 477/1/120 478/2/120 479/3/120 480/4/120
v 0.905000 0.599807 0.440000
v 0.953276 0.640229 0.389310
v 0.941790 0.660221 0.392628
v 0.892570 0.619030 0.444310
vn 0.610170 0.224189 0.759889
f 481/1/121 482/2/121 483/3/121 484/4/121
v 0.892570 0.619030 0.444310
v 0.941790 0.660221 0.392628
v 0.924651 0.674855 0.386742
v 0.874738 0.633102 0.439150
vn 0.268178 0.612509 0.743581
f 485/1/122 486/2/122 487/3/122 488/4/122
v 0.874738 0.633102 0.439150
v 0.924651 0.674855 0.386742
v 0.906450 0.680212 0.373228
v 0.856284 0.638252 0.425901
vn -0.145526 0.836686 0.527996
f 489/1/123 490/2/123 491/3/123 492/4/123
v 0.856284 0.638252 0.425901
v 0.906450 0.680212 0.373228
v 0.892064 0.674855 0.355707
v 0.842152 0.633102 0.408115
vn -0.520239 0.836714 0.171059
f 493/1/124 494/2/124 495/3/124 496/4/124
v 0.842152 0.633102 0.408115
v 0.892064 0.674855 0.355707
v 0.885349 0.660221 0.338875
v 0.836129 0.619030 0.390557
vn -0.755702 0.612568 -0.231679
f 497/1/125 498/2/125 499/3/125 500/4/125
v 0.836129 0.619030 0.390557
v 0.885349 0.660221 0.338875
v 0.888103 0.640229 0.327241
v 0.839828 0.599807 0.377931
vn -0.788697 0.224220 -0.572436
f 501/1/126 502/2/126 503/3/126 504/4/126
v 0.839828 0.599807 0.377931
v 0.888103 0.640229 0.327241
v 0.899589 0.620237 0.323923
v 0.852258 0.580585 0.373621
vn -0.610170 -0.224189 -0.759889
f 505/1/127 506/2/127 507/3/127 508/4/127
v 0.852258 0.580585 0.373621
v 0.899589 0.620237 0.323923
v 0.916729 0.605602 0.329810
v 0.870089 0.566513 0.378781
vn -0.267984 -0.612340 -0.743790
f 509/1/128 510/2/128 511/3/128 512/4/128
v 0.870089 0.566513 0.378781
v 0.916729 0.605602 0.329810
v 0.934930 0.600246 0.343324
v 0.888543 0.561362 0.392030
vn 0.145992 -0.836292 -0.528491
f 513/1/129 514/2/129 515/3/129 516/4/129
v 0.888543 0.561362 0.392030
v 0.934930 0.600246 0.343324
v 0.949315 0.605602 0.360844
v 0.902675 0.566513 0.409816
vn 0.520784 -0.836259 -0.171624
f 517/1/130 518/2/130 519/3/130 520/4/130
v 0.902675 0.566513 0.409816
v 0.949315 0.605602 0.360844
v 0.956030 0.620237 0.377677
v 0.908699 0.580585 0.427374
vn 0.756048 -0.612275 0.231326
f 521/1/131 522/2/131 523/3/131 524/4/131
v 0.908699 0.580585 0.427374
v 0.956030 0.620237 0.377677
v 0.953276 0.640229 0.389310
v 0.905000 0.599807 0.440000
vn 0.788769 -0.224157 0.572361
f 525/1/132 526/2/132 527/3/132 528/4/132
v 0.953276 0.640229 0.389310
v 1.001552 0.672307 0.338621
v 0.991750 0.693382 0.340171
v 0.941790 0.660221 0.392628
vn 0.624973 0.235532 0.744267
f 529/1/133 530/2/133 531/3/133 532/4/133
v 0.941790 0.660221 0.392628
v 0.991750 0.693382 0.340171
v 0.975843 0.708809 0.332990
v 0.924651 0.674855 0.386742
vn 0.308664 0.643306 0.700631
f 533/1/134 534/2/134 535/3/134 536/4/134
v 0.924651 0.674855 0.386742
v 0.975843 0.708809 0.332990
v 0.958093 0.714456 0.319002
v 0.906450 0.680212 0.373228
vn -0.089897 0.878461 0.469281
f 537/1/135 538/2/135 539/3/135 540/4/135
v 0.906450 0.680212 0.373228
v 0.958093 0.714456 0.319002
v 0.943257 0.708809 0.301956
v 0.892064 0.674855 0.355707
vn -0.464278 0.878502 0.112604
f 541/1/136 542/2/136 543/3/136 544/4/136
v 0.892064 0.674855 0.355707
v 0.943257 0.708809 0.301956
v 0.935309 0.693382 0.286418
v 0.885349 0.660221 0.338875
vn -0.714716 0.643395 -0.274269
f 545/1/137 546/2/137 547/3/137 548/4/137
v 0.885349 0.660221 0.338875
v 0.935309 0.693382 0.286418
v 0.936379 0.672307 0.276552
v 0.888103 0.640229 0.327241
vn -0.773783 0.235581 -0.588014
f 549/1/138 550/2/138 551/3/138 552/4/138
v 0.888103 0.640229 0.327241
v 0.936379 0.672307 0.276552
v 0.946181 0.651233 0.275002
v 0.899589 0.620237 0.323923
vn -0.624973 -0.235532 -0.744267
f 553/1/139 554/2/139 555/3/139 556/4/139
v 0.899589 0.620237 0.323923
v 0.946181 0.651233 0.275002
v 0.962088 0.635806 0.282182
v 0.916729 0.605602 0.329810
vn -0.308297 -0.643039 -0.701038
f 557/1/140 558/2/140 559/3/140 560/4/140
v 0.916729 0.605602 0.329810
v 0.962088 0.635806 0.282182
v 0.979838 0.630159 0.296170
v 0.934930 0.600246 0.343324
vn 0.090789 -0.877855 -0.470242
f 561/1/141 562/2/141 563/3/141 564/4/141
v 0.934930 0.600246 0.343324
v 0.979838 0.630159 0.296170
v 0.994674 0.635806 0.313217
v 0.949315 0.605602 0.360844
vn 0.465338 -0.877802 -0.113688
f 565/1/142 566/2/142 567/3/142 568/4/142
v 0.949315 0.605602 0.360844
v 0.994674 0.635806 0.313217
v 1.002622 0.651233 0.328755
v 0.956030 0.620237 0.377677
vn 0.715390 -0.642932 0.273598
f 569/1/143 570/2/143 571/3/143 572/4/143
v 0.956030 0.620237 0.377677
v 1.002622 0.651233 0.328755
v 1.001552 0.672307 0.338621
v 0.953276 0.640229 0.389310
vn 0.773922 -0.235479 0.587872
f 573/1/144 574/2/144 575/3/144 576/4/144
v 1.001552 0.672307 0.338621
v 1.049828 0.692903 0.287931
v 1.042477 0.714983 0.286908
v 0.991750 0.693382 0.340171
vn 0.648839 0.248893 0.719069
f 577/1/145 578/2/145 579/3/145 580/4/145
v 0.991750 0.693382 0.340171
v 1.042477 0.714983 0.286908
v 1.028364 0.731146 0.277843
v 0.975843 0.708809 0.332990
vn 0.373780 0.679340 0.631494
f 581/1/146 582/2/146 583/3/146 584/4/146
v 0.975843 0.708809 0.332990
v 1.028364 0.731146 0.277843
v 1.011271 0.737063 0.263166
v 0.958093 0.714456 0.319002
vn -0.000568 0.927040 0.374961
f 585/1/147 586/2/147 587/3/147 588/4/147
v 0.958093 0.714456 0.319002
v 1.011271 0.737063 0.263166
v 0.995778 0.731146 0.246809
v 0.943257 0.708809 0.301956
vn -0.374411 0.927073 0.018770
f 589/1/148 590/2/148 591/3/148 592/4/148
v 0.943257 0.708809 0.301956
v 0.995778 0.731146 0.246809
v 0.986036 0.714983 0.233154
v 0.935309 0.693382 0.286418
vn -0.648803 0.679416 -0.342708
f 593/1/149 594/2/149 595/3/149 596/4/149
v 0.935309 0.693382 0.286418
v 0.986036 0.714983 0.233154
v 0.984655 0.692903 0.225862
v 0.936379 0.672307 0.276552
vn -0.749760 0.248938 -0.613098
f 597/1/150 598/2/150 599/3/150 600/4/150
v 0.936379 0.672307 0.276552
v 0.984655 0.692903 0.225862
v 0.992006 0.670824 0.226885
v 0.946181 0.651233 0.275002
vn -0.648839 -0.248893 -0.719069
f 601/1/151 602/2/151 603/3/151 604/4/151
v 0.946181 0.651233 0.275002
v 0.992006 0.670824 0.226885
v 1.006119 0.654660 0.235950
v 0.962088 0.635806 0.282182
vn -0.373311 -0.679104 -0.632026
f 605/1/152 606/2/152 607/3/152 608/4/152
v 0.962088 0.635806 0.282182
v 1.006119 0.654660 0.235950
v 1.023212 0.648744 0.250627
v 0.979838 0.630159 0.296170
vn 0.001716 -0.926532 -0.376213
f 609/1/153 610/2/153 611/3/153 612/4/153
v 0.979838 0.630159 0.296170
v 1.023212 0.648744 0.250627
v 1.038705 0.654660 0.266985
v 0.994674 0.635806 0.313217
vn 0.375794 -0.926484 -0.020168
f 613/1/154 614/2/154 615/3/154 616/4/154
v 0.994674 0.635806 0.313217
v 1.038705 0.654660 0.266985
v 1.048447 0.670824 0.280639
v 1.002622 0.651233 0.328755
vn 0.649688 -0.679004 0.341847
f 617/1/155 618/2/155 619/3/155 620/4/155
v 1.002622 0.651233 0.328755
v 1.048447 0.670824 0.280639
v 1.049828 0.692903 0.287931
v 1.001552 0.672307 0.338621
vn 0.749941 -0.248843 0.612915
f 621/1/156 622/2/156 623/3/156 624/4/156
v 1.049828 0.692903 0.287931
v 1.098103 0.700000 0.237241
v 1.092793 0.722458 0.234076
v 1.042477 0.714983 0.286908
vn 0.681185 0.258531 0.684944
f 625/1/157 626/2/157 627/3/157 628/4/157
v 1.042477 0.714983 0.286908
v 1.092793 0.722458 0.234076
v 1.080174 0.738899 0.223443
v 1.028364 0.731146 0.277843
vn 0.461159 0.704897 0.538937
f 629/1/158 630/2/158 631/3/158 632/4/158
v 1.028364 0.731146 0.277843
v 1.080174 0.738899 0.223443
v 1.063627 0.744916 0.208191
v 1.011271 0.737063 0.263166
vn 0.118301 0.961088 0.249630
f 633/1/159 634/2/159 635/3/159 636/4/159
v 1.011271 0.737063 0.263166
v 1.063627 0.744916 0.208191
v 1.047587 0.738899 0.192408
v 0.995778 0.731146 0.246809
vn -0.255274 0.961061 -0.105816
f 637/1/160 638/2/160 639/3/160 640/4/160
v 0.995778 0.731146 0.246809
v 1.047587 0.738899 0.192408
v 1.036352 0.722458 0.180322
v 0.986036 0.714983 0.233154
vn -0.561147 0.704821 -0.433983
f 641/1/161 642/2/161 643/3/161 644/4/161
v 0.986036 0.714983 0.233154
v 1.036352 0.722458 0.180322
v 1.032931 0.700000 0.175172
v 0.984655 0.692903 0.225862
vn -0.717531 0.258480 -0.646790
f 645/1/162 646/2/162 647/3/162 648/4/162
v 0.984655 0.692903 0.225862
v 1.032931 0.700000 0.175172
v 1.038242 0.677542 0.178338
v 0.992006 0.670824 0.226885
vn -0.681185 -0.258531 -0.684944
f 649/1/163 650/2/163 651/3/163 652/4/163
v 0.992006 0.670824 0.226885
v 1.038242 0.677542 0.178338
v 1.050861 0.661101 0.188971
v 1.006119 0.654660 0.235950
vn -0.462184 -0.705128 -0.537755
f 653/1/164 654/2/164 655/3/164 656/4/164
v 1.006119 0.654660 0.235950
v 1.050861 0.661101 0.188971
v 1.067407 0.655084 0.204223
v 1.023212 0.648744 0.250627
vn -0.120803 -0.961488 -0.246877
f 657/1/165 658/2/165 659/3/165 660/4/165
v 1.023212 0.648744 0.250627
v 1.067407 0.655084 0.204223
v 1.083447 0.661101 0.220006
v 1.038705 0.654660 0.266985
vn 0.252234 -0.961523 0.108863
f 661/1/166 662/2/166 663/3/166 664/4/166
v 1.038705 0.654660 0.266985
v 1.083447 0.661101 0.220006
v 1.094683 0.677542 0.232091
v 1.048447 0.670824 0.280639
vn 0.559181 -0.705223 0.435863
f 665/1/167 666/2/167 667/3/167 668/4/167
v 1.048447 0.670824 0.280639
v 1.094683 0.677542 0.232091
v 1.098103 0.700000 0.237241
v 1.049828 0.692903 0.287931
vn 0.717128 -0.258588 0.647194
f 669/1/168 670/2/168 671/3/168 672/4/168
v 1.098103 0.700000 0.237241
v 6.063621 0.850000 -4.976552
v 6.058932 0.872495 -4.980370
v 1.092793 0.722458 0.234076
vn 0.695705 0.258957 0.670027
f 673/1/169 674/2/169 675/3/169 676/4/169
v 1.092793 0.722458 0.234076
v 6.058932 0.872495 -4.980370
v 6.046768 0.888963 -4.991481
v 1.080174 0.738899 0.223443
vn 0.501674 0.707238 0.498135
f 677/1/170 678/2/170 679/3/170 680/4/170
v 1.080174 0.738899 0.223443
v 6.046768 0.888963 -4.991481
v 6.030388 0.894990 -5.006907
v 1.063627 0.744916 0.208191
vn 0.173401 0.965768 0.192935
f 681/1/171 682/2/171 683/3/171 684/4/171
v 1.063627 0.744916 0.208191
v 6.030388 0.894990 -5.006907
v 6.014182 0.888963 -5.022516
v 1.047587 0.738899 0.192408
vn -0.201159 0.965768 -0.163789
f 685/1/172 686/2/172 687/3/172 688/4/172
v 1.047587 0.738899 0.192408
v 6.014182 0.888963 -5.022516
v 6.002491 0.872495 -5.034123
v 1.036352 0.722458 0.180322
vn -0.522000 0.707238 -0.476792
f 689/1/173 690/2/173 691/3/173 692/4/173
v 1.036352 0.722458 0.180322
v 6.002491 0.872495 -5.034123
v 5.998448 0.850000 -5.038621
v 1.032931 0.700000 0.175172
vn -0.703147 0.258957 -0.662213
f 693/1/174 694/2/174 695/3/174 696/4/174
v 1.032931 0.700000 0.175172
v 5.998448 0.850000 -5.038621
v 6.003137 0.827505 -5.034802
v 1.038242 0.677542 0.178338
vn -0.695705 -0.258957 -0.670027
f 697/1/175 698/2/175 699/3/175 700/4/175
v 1.038242 0.677542 0.178338
v 6.003137 0.827505 -5.034802
v 6.015301 0.811037 -5.023691
v 1.050861 0.661101 0.188971
vn -0.501677 -0.707238 -0.498132
f 701/1/176 702/2/176 703/3/176 704/4/176
v 1.050861 0.661101 0.188971
v 6.015301 0.811037 -5.023691
v 6.031681 0.805010 -5.008265
v 1.067407 0.655084 0.204223
vn -0.173407 -0.965768 -0.192929
f 705/1/177 706/2/177 707/3/177 708/4/177
v 1.067407 0.655084 0.204223
v 6.031681 0.805010 -5.008265
v 6.047887 0.811037 -4.992657
v 1.083447 0.661101 0.220006
vn 0.201153 -0.965768 0.163796
f 709/1/178 710/2/178 711/3/178 712/4/178
v 1.083447 0.661101 0.220006
v 6.047887 0.811037 -4.992657
v 6.059578 0.827505 -4.981049
v 1.094683 0.677542 0.232091
vn 0.521996 -0.707238 0.476796
f 713/1/179 714/2/179 715/3/179 716/4/179
v 1.094683 0.677542 0.232091
v 6.059578 0.827505 -4.981049
v 6.063621 0.850000 -4.976552
v 1.098103 0.700000 0.237241
vn 0.703146 -0.258957 0.662214
f 717/1/180 718/2/180 719/3/180 720/4/180
v 6.063621 0.850000 -4.976552
v 6.030388 0.894990 -5.006907
v 6.046768 0.888963 -4.991481
v 6.058932 0.872495 -4.980370
vn 0.689506 0.020829 -0.723981
f 721/1/181 722/2/181 723/3/181 724/4/181
v 6.063621 0.850000 -4.976552
v 6.002491 0.872495 -5.034123
v 6.014182 0.888963 -5.022516
v 6.030388 0.894990 -5.006907
vn 0.689506 0.020829 -0.723981
f 725/1/182 726/2/182 727/3/182 728/4/182
v 6.063621 0.850000 -4.976552
v 6.003137 0.827505 -5.034802
v 5.998448 0.850000 -5.038621
v 6.002491 0.872495 -5.034123
vn 0.689506 0.020829 -0.723981
f 729/1/183 730/2/183 731/3/183 732/4/183
v 6.063621 0.850000 -4.976552
v 6.031681 0.805010 -5.008265
v 6.015301 0.811037 -5.023691
v 6.003137 0.827505 -5.034802
vn 0.689506 0.020829 -0.723981
f 733/1/184 734/2/184 735/3/184 736/4/184
v 6.063621 0.850000 -4.976552
v 6.059578 0.827505 -4.981049
v 6.047887 0.811037 -4.992657
v 6.031681 0.805010 -5.008265
vn 0.689506 0.020829 -0.723981
f 737/1/185 738/2/185 739/3/185 740/4/185
v 6.048759 0.849792 -4.976897
v 6.179793 0.850000 -5.114483
v 6.176482 0.867000 -5.117611
v 6.045447 0.866792 -4.980025
vn 0.699268 0.258819 0.666361
f 741/1/186 742/2/186 743/3/186 744/4/186
v 6.045447 0.866792 -4.980025
v 6.176482 0.867000 -5.117611
v 6.167460 0.879445 -5.126184
v 6.036426 0.879237 -4.988597
vn 0.511508 0.707106 0.488221
f 745/1/187 746/2/187 747/3/187 748/4/187
v 6.036426 0.879237 -4.988597
v 6.167460 0.879445 -5.126184
v 6.155147 0.884000 -5.137904
v 6.024112 0.883792 -5.000318
vn 0.186690 0.965925 0.179263
f 749/1/188 750/2/188 751/3/188 752/4/188
v 6.024112 0.883792 -5.000318
v 6.155147 0.884000 -5.137904
v 6.142840 0.879445 -5.149632
v 6.011805 0.879237 -5.012046
vn -0.188151 0.965925 -0.177729
f 753/1/189 754/2/189 755/3/189 756/4/189
v 6.011805 0.879237 -5.012046
v 6.142840 0.879445 -5.149632
v 6.133837 0.867000 -5.158224
v 6.002803 0.866792 -5.020638
vn -0.512578 0.707106 -0.487098
f 757/1/190 758/2/190 759/3/190 760/4/190
v 6.002803 0.866792 -5.020638
v 6.133837 0.867000 -5.158224
v 6.130552 0.850000 -5.161379
v 5.999517 0.849792 -5.023793
vn -0.699659 0.258819 -0.665950
f 761/1/191 762/2/191 763/3/191 764/4/191
v 5.999517 0.849792 -5.023793
v 6.130552 0.850000 -5.161379
v 6.133863 0.833000 -5.158251
v 6.002829 0.832792 -5.020665
vn -0.699268 -0.258819 -0.666361
f 765/1/192 766/2/192 767/3/192 768/4/192
v 6.002829 0.832792 -5.020665
v 6.133863 0.833000 -5.158251
v 6.142884 0.820555 -5.149679
v 6.011850 0.820347 -5.012092
vn -0.511508 -0.707106 -0.488221
f 769/1/193 770/2/193 771/3/193 772/4/193
v 6.011850 0.820347 -5.012092
v 6.142884 0.820555 -5.149679
v 6.155198 0.816000 -5.137958
v 6.024164 0.815792 -5.000372
vn -0.186690 -0.965925 -0.179263
f 773/1/194 774/2/194 775/3/194 776/4/194
v 6.024164 0.815792 -5.000372
v 6.155198 0.816000 -5.137958
v 6.167505 0.820555 -5.126230
v 6.036471 0.820347 -4.988644
vn 0.188151 -0.965925 0.177729
f 777/1/195 778/2/195 779/3/195 780/4/195
v 6.036471 0.820347 -4.988644
v 6.167505 0.820555 -5.126230
v 6.176507 0.833000 -5.117638
v 6.045473 0.832792 -4.980052
vn 0.512578 -0.707106 0.487098
f 781/1/196 782/2/196 783/3/196 784/4/196
v 6.045473 0.832792 -4.980052
v 6.176507 0.833000 -5.117638
v 6.179793 0.850000 -5.114483
v 6.048759 0.849792 -4.976897
vn 0.699659 -0.258819 0.665950
f 785/1/197 786/2/197 787/3/197 788/4/197
v 6.179793 0.850000 -5.114483
v 6.155147 0.884000 -5.137904
v 6.167460 0.879445 -5.126184
v 6.176482 0.867000 -5.117611
vn 0.689655 0.001096 -0.724137
f 789/1/198 790/2/198 791/3/198 792/4/198
v 6.179793 0.850000 -5.114483
v 6.133837 0.867000 -5.158224
v 6.142840 0.879445 -5.149632
v 6.155147 0.884000 -5.137904
vn 0.689655 0.001096 -0.724137
f 793/1/199 794/2/199 795/3/199 796/4/199
v 6.179793 0.850000 -5.114483
v 6.133863 0.833000 -5.158251
v 6.130552 0.850000 -5.161379
v 6.133837 0.867000 -5.158224
vn 0.689655 0.001096 -0.724137
f 797/1/200 798/2/200 799/3/200 800/4/200
v 6.179793 0.850000 -5.114483
v 6.155198 0.816000 -5.137958
v 6.142884 0.820555 -5.149679
v 6.133863 0.833000 -5.158251
vn 0.689655 0.001096 -0.724137
f 801/1/201 802/2/201 803/3/201 804/4/201
v 6.179793 0.850000 -5.114483
v 6.176507 0.833000 -5.117638
v 6.167505 0.820555 -5.126230
v 6.155198 0.816000 -5.137958
vn 0.689655 0.001096 -0.724137
f 805/1/202 806/2/202 807/3/202 808/4/202
v 0.516872 0.125000 0.904119
v 1.137562 0.674667 0.162395
v 1.127687 0.688191 0.164154
v 0.506997 0.138525 0.905878
vn 0.587180 0.332706 0.737921
f 809/1/203 810/2/203 811/3/203 812/4/203
v 0.506997 0.138525 0.905878
v 1.127687 0.688191 0.164154
v 1.113714 0.693794 0.156612
v 0.493024 0.144127 0.898336
vn 0.000522 0.803223 0.595678
f 813/1/204 814/2/204 815/3/204 816/4/204
v 0.493024 0.144127 0.898336
v 1.113714 0.693794 0.156612
v 1.103827 0.688191 0.144187
v 0.483137 0.138525 0.885911
vn -0.586441 0.803223 0.104495
f 817/1/205 818/2/205 819/3/205 820/4/205
v 0.483137 0.138525 0.885911
v 1.103827 0.688191 0.144187
v 1.103818 0.674667 0.134157
v 0.483128 0.125000 0.875881
vn -0.829875 0.332706 -0.447899
f 821/1/206 822/2/206 823/3/206 824/4/206
v 0.483128 0.125000 0.875881
v 1.103818 0.674667 0.134157
v 1.113692 0.661142 0.132398
v 0.493003 0.111475 0.874122
vn -0.587180 -0.332706 -0.737921
f 825/1/207 826/2/207 827/3/207 828/4/207
v 0.493003 0.111475 0.874122
v 1.113692 0.661142 0.132398
v 1.127666 0.655540 0.139939
v 0.506976 0.105873 0.881664
vn -0.000522 -0.803223 -0.595678
f 829/1/208 830/2/208 831/3/208 832/4/208
v 0.506976 0.105873 0.881664
v 1.127666 0.655540 0.139939
v 1.137553 0.661142 0.152365
v 0.516863 0.111475 0.894089
vn 0.586441 -0.803223 -0.104495
f 833/1/209 834/2/209 835/3/209 836/4/209
v 0.516863 0.111475 0.894089
v 1.137553 0.661142 0.152365
v 1.137562 0.674667 0.162395
v 0.516872 0.125000 0.904119
vn 0.829875 -0.332706 0.447899
f 837/1/210 838/2/210 839/3/210 840/4/210
v 1.137562 0.674667 0.162395
v 1.103827 0.688191 0.144187
v 1.113714 0.693794 0.156612
v 1.127687 0.688191 0.164154
vn 0.557949 0.494105 -0.666749
f 841/1/211 842/2/211 843/3/211 844/4/211
v 1.137562 0.674667 0.162395
v 1.113692 0.661142 0.132398
v 1.103818 0.674667 0.134157
v 1.103827 0.688191 0.144187
vn 0.557949 0.494105 -0.666749
f 845/1/212 846/2/212 847/3/212 848/4/212
v 1.137562 0.674667 0.162395
v 1.137553 0.661142 0.152365
v 1.127666 0.655540 0.139939
v 1.113692 0.661142 0.132398
vn 0.557949 0.494105 -0.666749
f 849/1/213 850/2/213 851/3/213 852/4/213
