# Generated by scripts/gen_pole_light_mounts.py
mtllib pole_light_mount.mtl
o pole_light_mount_4_left_wired
vt 0 0
vt 1 0
vt 1 1
vt 0 1
usemtl clamp
v 0.312500 0.062500 1.000000
v 0.687500 0.062500 1.000000
v 0.687500 0.937500 1.000000
v 0.312500 0.937500 1.000000
vn 0.000000 0.000000 1.000000
f 1/1/1 2/2/1 3/3/1 4/4/1
v 0.687500 0.062500 0.900000
v 0.312500 0.062500 0.900000
v 0.312500 0.937500 0.900000
v 0.687500 0.937500 0.900000
vn 0.000000 0.000000 -1.000000
f 5/1/2 6/2/2 7/3/2 8/4/2
v 0.687500 0.062500 1.000000
v 0.687500 0.062500 0.900000
v 0.687500 0.937500 0.900000
v 0.687500 0.937500 1.000000
vn 1.000000 -0.000000 0.000000
f 9/1/3 10/2/3 11/3/3 12/4/3
v 0.312500 0.062500 0.900000
v 0.312500 0.062500 1.000000
v 0.312500 0.937500 1.000000
v 0.312500 0.937500 0.900000
vn -1.000000 0.000000 0.000000
f 13/1/4 14/2/4 15/3/4 16/4/4
v 0.312500 0.937500 1.000000
v 0.687500 0.937500 1.000000
v 0.687500 0.937500 0.900000
v 0.312500 0.937500 0.900000
vn -0.000000 1.000000 0.000000
f 17/1/5 18/2/5 19/3/5 20/4/5
v 0.312500 0.062500 0.900000
v 0.687500 0.062500 0.900000
v 0.687500 0.062500 1.000000
v 0.312500 0.062500 1.000000
vn 0.000000 -1.000000 0.000000
f 21/1/6 22/2/6 23/3/6 24/4/6
v 0.406250 0.070625 0.900000
v 0.593750 0.070625 0.900000
v 0.593750 0.289375 0.900000
v 0.406250 0.289375 0.900000
vn 0.000000 0.000000 1.000000
f 25/1/7 26/2/7 27/3/7 28/4/7
v 0.593750 0.070625 0.800000
v 0.406250 0.070625 0.800000
v 0.406250 0.289375 0.800000
v 0.593750 0.289375 0.800000
vn 0.000000 0.000000 -1.000000
f 29/1/8 30/2/8 31/3/8 32/4/8
v 0.593750 0.070625 0.900000
v 0.593750 0.070625 0.800000
v 0.593750 0.289375 0.800000
v 0.593750 0.289375 0.900000
vn 1.000000 -0.000000 0.000000
f 33/1/9 34/2/9 35/3/9 36/4/9
v 0.406250 0.070625 0.800000
v 0.406250 0.070625 0.900000
v 0.406250 0.289375 0.900000
v 0.406250 0.289375 0.800000
vn -1.000000 0.000000 0.000000
f 37/1/10 38/2/10 39/3/10 40/4/10
v 0.406250 0.289375 0.900000
v 0.593750 0.289375 0.900000
v 0.593750 0.289375 0.800000
v 0.406250 0.289375 0.800000
vn -0.000000 1.000000 0.000000
f 41/1/11 42/2/11 43/3/11 44/4/11
v 0.406250 0.070625 0.800000
v 0.593750 0.070625 0.800000
v 0.593750 0.070625 0.900000
v 0.406250 0.070625 0.900000
vn 0.000000 -1.000000 0.000000
f 45/1/12 46/2/12 47/3/12 48/4/12
v 0.468750 0.125000 0.900000
v 0.531250 0.125000 0.900000
v 0.531250 0.187500 0.900000
v 0.468750 0.187500 0.900000
vn 0.000000 0.000000 1.000000
f 49/1/13 50/2/13 51/3/13 52/4/13
v 0.531250 0.125000 0.880000
v 0.468750 0.125000 0.880000
v 0.468750 0.187500 0.880000
v 0.531250 0.187500 0.880000
vn 0.000000 0.000000 -1.000000
f 53/1/14 54/2/14 55/3/14 56/4/14
v 0.531250 0.125000 0.900000
v 0.531250 0.125000 0.880000
v 0.531250 0.187500 0.880000
v 0.531250 0.187500 0.900000
vn 1.000000 -0.000000 0.000000
f 57/1/15 58/2/15 59/3/15 60/4/15
v 0.468750 0.125000 0.880000
v 0.468750 0.125000 0.900000
v 0.468750 0.187500 0.900000
v 0.468750 0.187500 0.880000
vn -1.000000 0.000000 0.000000
f 61/1/16 62/2/16 63/3/16 64/4/16
v 0.468750 0.187500 0.900000
v 0.531250 0.187500 0.900000
v 0.531250 0.187500 0.880000
v 0.468750 0.187500 0.880000
vn -0.000000 1.000000 0.000000
f 65/1/17 66/2/17 67/3/17 68/4/17
v 0.468750 0.125000 0.880000
v 0.531250 0.125000 0.880000
v 0.531250 0.125000 0.900000
v 0.468750 0.125000 0.900000
vn 0.000000 -1.000000 0.000000
f 69/1/18 70/2/18 71/3/18 72/4/18
v 0.468750 0.812500 0.900000
v 0.531250 0.812500 0.900000
v 0.531250 0.875000 0.900000
v 0.468750 0.875000 0.900000
vn 0.000000 0.000000 1.000000
f 73/1/19 74/2/19 75/3/19 76/4/19
v 0.531250 0.812500 0.880000
v 0.468750 0.812500 0.880000
v 0.468750 0.875000 0.880000
v 0.531250 0.875000 0.880000
vn 0.000000 0.000000 -1.000000
f 77/1/20 78/2/20 79/3/20 80/4/20
v 0.531250 0.812500 0.900000
v 0.531250 0.812500 0.880000
v 0.531250 0.875000 0.880000
v 0.531250 0.875000 0.900000
vn 1.000000 -0.000000 0.000000
f 81/1/21 82/2/21 83/3/21 84/4/21
v 0.468750 0.812500 0.880000
v 0.468750 0.812500 0.900000
v 0.468750 0.875000 0.900000
v 0.468750 0.875000 0.880000
vn -1.000000 0.000000 0.000000
f 85/1/22 86/2/22 87/3/22 88/4/22
v 0.468750 0.875000 0.900000
v 0.531250 0.875000 0.900000
v 0.531250 0.875000 0.880000
v 0.468750 0.875000 0.880000
vn -0.000000 1.000000 0.000000
f 89/1/23 90/2/23 91/3/23 92/4/23
v 0.468750 0.812500 0.880000
v 0.531250 0.812500 0.880000
v 0.531250 0.812500 0.900000
v 0.468750 0.812500 0.900000
vn 0.000000 -1.000000 0.000000
f 93/1/24 94/2/24 95/3/24 96/4/24
usemtl metal
v 0.545000 0.180000 0.860000
v 0.543743 0.180000 0.789436
v 0.541011 0.198128 0.803806
v 0.538971 0.202500 0.860000
vn 0.965783 0.258781 -0.017211
f 97/1/25 98/2/25 99/3/25 100/4/25
v 0.538971 0.202500 0.860000
v 0.541011 0.198128 0.803806
v 0.527290 0.211399 0.817156
v 0.522500 0.218971 0.860000
vn 0.706803 0.706803 -0.029333
f 101/1/26 102/2/26 103/3/26 104/4/26
v 0.522500 0.218971 0.860000
v 0.527290 0.211399 0.817156
v 0.506257 0.216257 0.825909
v 0.500000 0.225000 0.860000
vn 0.256256 0.956362 -0.140370
f 105/1/27 106/2/27 107/3/27 108/4/27
v 0.500000 0.225000 0.860000
v 0.506257 0.216257 0.825909
v 0.483548 0.211399 0.827720
v 0.477500 0.218971 0.860000
vn -0.248227 0.926395 -0.283154
f 109/1/28 110/2/28 111/3/28 112/4/28
v 0.477500 0.218971 0.860000
v 0.483548 0.211399 0.827720
v 0.465246 0.198128 0.822103
v 0.461029 0.202500 0.860000
vn -0.677594 0.677594 -0.285887
f 113/1/29 114/2/29 115/3/29 116/4/29
v 0.461029 0.202500 0.860000
v 0.465246 0.198128 0.822103
v 0.456257 0.180000 0.810564
v 0.455000 0.180000 0.860000
vn -0.956941 0.256412 -0.136077
f 117/1/30 118/2/30 119/3/30 120/4/30
v 0.455000 0.180000 0.860000
v 0.456257 0.180000 0.810564
v 0.458989 0.161872 0.796194
v 0.461029 0.157500 0.860000
vn -0.965634 -0.258741 -0.024562
f 121/1/31 122/2/31 123/3/31 124/4/31
v 0.461029 0.157500 0.860000
v 0.458989 0.161872 0.796194
v 0.472710 0.148601 0.782844
v 0.477500 0.141029 0.860000
vn -0.706871 -0.706871 -0.025836
f 125/1/32 126/2/32 127/3/32 128/4/32
v 0.477500 0.141029 0.860000
v 0.472710 0.148601 0.782844
v 0.493743 0.143743 0.774091
v 0.500000 0.135000 0.860000
vn -0.258021 -0.962946 -0.078482
f 129/1/33 130/2/33 131/3/33 132/4/33
v 0.500000 0.135000 0.860000
v 0.493743 0.143743 0.774091
v 0.516452 0.148601 0.772280
v 0.522500 0.141029 0.860000
vn 0.257061 -0.959364 -0.116360
f 133/1/34 134/2/34 135/3/34 136/4/34
v 0.522500 0.141029 0.860000
v 0.516452 0.148601 0.772280
v 0.534754 0.161872 0.777897
v 0.538971 0.157500 0.860000
vn 0.702884 -0.702884 -0.109130
f 137/1/35 138/2/35 139/3/35 140/4/35
v 0.538971 0.157500 0.860000
v 0.534754 0.161872 0.777897
v 0.543743 0.180000 0.789436
v 0.545000 0.180000 0.860000
vn 0.963990 -0.258300 -0.063272
f 141/1/36 142/2/36 143/3/36 144/4/36
v 0.543743 0.180000 0.789436
v 0.460296 0.293041 0.726050
v 0.481676 0.301342 0.730125
v 0.541011 0.198128 0.803806
vn 0.835296 0.413292 -0.362589
f 145/1/37 146/2/37 147/3/37 148/4/37
v 0.541011 0.198128 0.803806
v 0.481676 0.301342 0.730125
v 0.497327 0.310445 0.744780
v 0.527290 0.211399 0.817156
vn 0.776836 0.594592 0.207333
f 149/1/38 150/2/38 151/3/38 152/4/38
v 0.527290 0.211399 0.817156
v 0.497327 0.310445 0.744780
v 0.503056 0.317912 0.766088
v 0.506257 0.216257 0.825909
vn 0.419829 0.614850 0.667610
f 153/1/39 154/2/39 155/3/39 156/4/39
v 0.506257 0.216257 0.825909
v 0.503056 0.317912 0.766088
v 0.497327 0.321742 0.788339
v 0.483548 0.211399 0.827720
vn -0.039494 0.505850 0.861717
f 157/1/40 158/2/40 159/3/40 160/4/40
v 0.483548 0.211399 0.827720
v 0.497327 0.321742 0.788339
v 0.481676 0.320908 0.805572
v 0.465246 0.198128 0.822103
vn -0.495532 0.346190 0.796618
f 161/1/41 162/2/41 163/3/41 164/4/41
v 0.465246 0.198128 0.822103
v 0.481676 0.320908 0.805572
v 0.460296 0.315635 0.813168
v 0.456257 0.180000 0.810564
vn -0.891152 0.175577 0.418354
f 165/1/42 166/2/42 167/3/42 168/4/42
v 0.456257 0.180000 0.810564
v 0.460296 0.315635 0.813168
v 0.438917 0.307334 0.809092
v 0.458989 0.161872 0.796194
vn -0.973301 0.033343 -0.227097
f 169/1/43 170/2/43 171/3/43 172/4/43
v 0.458989 0.161872 0.796194
v 0.438917 0.307334 0.809092
v 0.423266 0.298230 0.794437
v 0.472710 0.148601 0.782844
vn -0.714919 -0.036738 -0.698242
f 173/1/44 174/2/44 175/3/44 176/4/44
v 0.472710 0.148601 0.782844
v 0.423266 0.298230 0.794437
v 0.417537 0.290763 0.773129
v 0.493743 0.143743 0.774091
vn -0.395231 -0.059579 -0.916648
f 177/1/45 178/2/45 179/3/45 180/4/45
v 0.493743 0.143743 0.774091
v 0.417537 0.290763 0.773129
v 0.423266 0.286934 0.750878
v 0.516452 0.148601 0.772280
vn -0.070275 -0.042943 -0.996603
f 181/1/46 182/2/46 183/3/46 184/4/46
v 0.516452 0.148601 0.772280
v 0.423266 0.286934 0.750878
v 0.438917 0.287767 0.733646
v 0.534754 0.161872 0.777897
vn 0.270873 0.033633 -0.962027
f 185/1/47 186/2/47 187/3/47 188/4/47
v 0.534754 0.161872 0.777897
v 0.438917 0.287767 0.733646
v 0.460296 0.293041 0.726050
v 0.543743 0.180000 0.789436
vn 0.606628 0.190501 -0.771824
f 189/1/48 190/2/48 191/3/48 192/4/48
v 0.460296 0.293041 0.726050
v 0.447945 0.415038 0.703484
v 0.459894 0.425975 0.720223
v 0.481676 0.301342 0.730125
vn 0.241959 -0.152737 -0.958190
f 193/1/49 194/2/49 195/3/49 196/4/49
v 0.481676 0.301342 0.730125
v 0.459894 0.425975 0.720223
v 0.461313 0.433982 0.742052
v 0.497327 0.310445 0.744780
vn 0.664546 0.056944 -0.745075
f 197/1/50 198/2/50 199/3/50 200/4/50
v 0.497327 0.310445 0.744780
v 0.461313 0.433982 0.742052
v 0.451820 0.436912 0.763121
v 0.503056 0.317912 0.766088
vn 0.906899 0.257009 -0.333886
f 201/1/51 202/2/51 203/3/51 204/4/51
v 0.503056 0.317912 0.766088
v 0.451820 0.436912 0.763121
v 0.433961 0.433982 0.777785
v 0.497327 0.321742 0.788339
vn 0.904379 0.393494 0.165109
f 205/1/52 206/2/52 207/3/52 208/4/52
v 0.497327 0.321742 0.788339
v 0.433961 0.433982 0.777785
v 0.412519 0.425975 0.782115
v 0.481676 0.320908 0.805572
vn 0.658010 0.429639 0.618412
f 209/1/53 210/2/53 211/3/53 212/4/53
v 0.481676 0.320908 0.805572
v 0.412519 0.425975 0.782115
v 0.393241 0.415038 0.774951
v 0.460296 0.315635 0.813168
vn 0.233711 0.355844 0.904850
f 213/1/54 214/2/54 215/3/54 216/4/54
v 0.460296 0.315635 0.813168
v 0.393241 0.415038 0.774951
v 0.381291 0.404101 0.758212
v 0.438917 0.307334 0.809092
vn -0.255237 0.192137 0.947596
f 217/1/55 218/2/55 219/3/55 220/4/55
v 0.438917 0.307334 0.809092
v 0.381291 0.404101 0.758212
v 0.379873 0.396095 0.736383
v 0.423266 0.298230 0.794437
vn -0.678000 -0.017364 0.734857
f 221/1/56 222/2/56 223/3/56 224/4/56
v 0.423266 0.298230 0.794437
v 0.379873 0.396095 0.736383
v 0.389365 0.393164 0.715314
v 0.417537 0.290763 0.773129
vn -0.921119 -0.216511 0.323517
f 225/1/57 226/2/57 227/3/57 228/4/57
v 0.417537 0.290763 0.773129
v 0.389365 0.393164 0.715314
v 0.407225 0.396095 0.700650
v 0.423266 0.286934 0.750878
vn -0.919199 -0.352265 -0.176020
f 229/1/58 230/2/58 231/3/58 232/4/58
v 0.423266 0.286934 0.750878
v 0.407225 0.396095 0.700650
v 0.428667 0.404101 0.696320
v 0.438917 0.287767 0.733646
vn -0.672645 -0.388593 -0.629718
f 233/1/59 234/2/59 235/3/59 236/4/59
v 0.438917 0.287767 0.733646
v 0.428667 0.404101 0.696320
v 0.447945 0.415038 0.703484
v 0.460296 0.293041 0.726050
vn -0.247569 -0.315709 -0.915990
f 237/1/60 238/2/60 239/3/60 240/4/60
v 0.447945 0.415038 0.703484
v 0.408262 0.489557 0.673109
v 0.418558 0.503584 0.688595
v 0.459894 0.425975 0.720223
vn 0.758220 0.144621 -0.635757
f 241/1/61 242/2/61 243/3/61 244/4/61
v 0.459894 0.425975 0.720223
v 0.418558 0.503584 0.688595
v 0.418761 0.513852 0.709503
v 0.461313 0.433982 0.742052
vn 0.896157 0.394595 -0.202970
f 245/1/62 246/2/62 247/3/62 248/4/62
v 0.461313 0.433982 0.742052
v 0.418761 0.513852 0.709503
v 0.408817 0.517611 0.730229
v 0.451820 0.436912 0.763121
vn 0.793926 0.538228 0.282828
f 249/1/63 250/2/63 251/3/63 252/4/63
v 0.451820 0.436912 0.763121
v 0.408817 0.517611 0.730229
v 0.391389 0.513852 0.745220
v 0.433961 0.433982 0.777785
vn 0.480310 0.538229 0.692540
f 253/1/64 254/2/64 255/3/64 256/4/64
v 0.433961 0.433982 0.777785
v 0.391389 0.513852 0.745220
v 0.371148 0.503584 0.750460
v 0.412519 0.425975 0.782115
vn 0.038055 0.394598 0.918066
f 257/1/65 258/2/65 259/3/65 260/4/65
v 0.412519 0.425975 0.782115
v 0.371148 0.503584 0.750460
v 0.353517 0.489557 0.744544
v 0.393241 0.415038 0.774951
vn -0.415735 0.144624 0.897913
f 261/1/66 262/2/66 263/3/66 264/4/66
v 0.393241 0.415038 0.774951
v 0.353517 0.489557 0.744544
v 0.343220 0.475530 0.729057
v 0.381291 0.404101 0.758212
vn -0.758170 -0.144730 0.635792
f 265/1/67 266/2/67 267/3/67 268/4/67
v 0.381291 0.404101 0.758212
v 0.343220 0.475530 0.729057
v 0.343017 0.465262 0.708150
v 0.379873 0.396095 0.736383
vn -0.896082 -0.394741 0.203018
f 269/1/68 270/2/68 271/3/68 272/4/68
v 0.379873 0.396095 0.736383
v 0.343017 0.465262 0.708150
v 0.352962 0.461503 0.687424
v 0.389365 0.393164 0.715314
vn -0.793828 -0.538409 -0.282759
f 273/1/69 274/2/69 275/3/69 276/4/69
v 0.389365 0.393164 0.715314
v 0.352962 0.461503 0.687424
v 0.370390 0.465262 0.672433
v 0.407225 0.396095 0.700650
vn -0.480217 -0.538410 -0.692464
f 277/1/70 278/2/70 279/3/70 280/4/70
v 0.407225 0.396095 0.700650
v 0.370390 0.465262 0.672433
v 0.390631 0.475530 0.667193
v 0.428667 0.404101 0.696320
vn -0.037989 -0.394743 -0.918006
f 281/1/71 282/2/71 283/3/71 284/4/71
v 0.428667 0.404101 0.696320
v 0.390631 0.475530 0.667193
v 0.408262 0.489557 0.673109
v 0.447945 0.415038 0.703484
vn 0.415782 -0.144732 -0.897874
f 285/1/72 286/2/72 287/3/72 288/4/72
v 0.408262 0.489557 0.673109
v 0.368660 0.542669 0.642730
v 0.377044 0.559242 0.656789
v 0.418558 0.503584 0.688595
vn 0.737744 0.177549 -0.651315
f 289/1/73 290/2/73 291/3/73 292/4/73
v 0.418558 0.503584 0.688595
v 0.377044 0.559242 0.656789
v 0.375828 0.571374 0.676636
v 0.418761 0.513852 0.709503
vn 0.839063 0.485049 -0.246373
f 293/1/74 294/2/74 295/3/74 296/4/74
v 0.418761 0.513852 0.709503
v 0.375828 0.571374 0.676636
v 0.365338 0.575815 0.696955
v 0.408817 0.517611 0.730229
vn 0.715651 0.661776 0.223375
f 297/1/75 298/2/75 299/3/75 300/4/75
v 0.408817 0.517611 0.730229
v 0.365338 0.575815 0.696955
v 0.348385 0.571374 0.712300
v 0.391389 0.513852 0.745220
vn 0.401685 0.661875 0.632907
f 301/1/76 302/2/76 303/3/76 304/4/76
v 0.391389 0.513852 0.745220
v 0.348385 0.571374 0.712300
v 0.329511 0.559242 0.718560
v 0.371148 0.503584 0.750460
vn -0.019943 0.485343 0.874096
f 305/1/77 306/2/77 307/3/77 308/4/77
v 0.371148 0.503584 0.750460
v 0.329511 0.559242 0.718560
v 0.313775 0.542669 0.714057
v 0.353517 0.489557 0.744544
vn -0.437396 0.178009 0.881475
f 309/1/78 310/2/78 311/3/78 312/4/78
v 0.353517 0.489557 0.744544
v 0.313775 0.542669 0.714057
v 0.305391 0.526095 0.699999
v 0.343220 0.475530 0.729057
vn -0.737509 -0.177906 0.651483
f 313/1/79 314/2/79 315/3/79 316/4/79
v 0.343220 0.475530 0.729057
v 0.305391 0.526095 0.699999
v 0.306607 0.513963 0.680152
v 0.343017 0.465262 0.708150
vn -0.838627 -0.485654 0.246666
f 317/1/80 318/2/80 319/3/80 320/4/80
v 0.343017 0.465262 0.708150
v 0.306607 0.513963 0.680152
v 0.317097 0.509522 0.659833
v 0.352962 0.461503 0.687424
vn -0.714971 -0.662675 -0.222886
f 321/1/81 322/2/81 323/3/81 324/4/81
v 0.352962 0.461503 0.687424
v 0.317097 0.509522 0.659833
v 0.334050 0.513963 0.644488
v 0.370390 0.465262 0.672433
vn -0.400992 -0.662835 -0.632341
f 325/1/82 326/2/82 327/3/82 328/4/82
v 0.370390 0.465262 0.672433
v 0.334050 0.513963 0.644488
v 0.352923 0.526095 0.638228
v 0.390631 0.475530 0.667193
vn 0.020422 -0.486075 -0.873679
f 329/1/83 330/2/83 331/3/83 332/4/83
v 0.390631 0.475530 0.667193
v 0.352923 0.526095 0.638228
v 0.368660 0.542669 0.642730
v 0.408262 0.489557 0.673109
vn 0.437659 -0.178431 -0.881259
f 333/1/84 334/2/84 335/3/84 336/4/84
v 0.368660 0.542669 0.642730
v 0.329121 0.582281 0.612222
v 0.335431 0.600908 0.624706
v 0.377044 0.559242 0.656789
vn 0.717334 0.202598 -0.666622
f 337/1/85 338/2/85 339/3/85 340/4/85
v 0.377044 0.559242 0.656789
v 0.335431 0.600908 0.624706
v 0.332684 0.614543 0.643391
v 0.375828 0.571374 0.676636
vn 0.779626 0.554446 -0.291159
f 341/1/86 342/2/86 343/3/86 344/4/86
v 0.375828 0.571374 0.676636
v 0.332684 0.614543 0.643391
v 0.321617 0.619534 0.663270
v 0.365338 0.575815 0.696955
vn 0.633112 0.757046 0.161400
f 345/1/87 346/2/87 347/3/87 348/4/87
v 0.365338 0.575815 0.696955
v 0.321617 0.619534 0.663270
v 0.305194 0.614543 0.679018
v 0.348385 0.571374 0.712300
vn 0.317891 0.757372 0.570380
f 349/1/88 350/2/88 351/3/88 352/4/88
v 0.348385 0.571374 0.712300
v 0.305194 0.614543 0.679018
v 0.287817 0.600908 0.686414
v 0.329511 0.559242 0.718560
vn -0.082548 0.555379 0.827490
f 353/1/89 354/2/89 355/3/89 356/4/89
v 0.329511 0.559242 0.718560
v 0.287817 0.600908 0.686414
v 0.274142 0.582281 0.683477
v 0.313775 0.542669 0.714057
vn -0.461751 0.203938 0.863247
f 357/1/90 358/2/90 359/3/90 360/4/90
v 0.313775 0.542669 0.714057
v 0.274142 0.582281 0.683477
v 0.267832 0.563655 0.670994
v 0.305391 0.526095 0.699999
vn -0.717155 -0.202800 0.666754
f 361/1/91 362/2/91 363/3/91 364/4/91
v 0.305391 0.526095 0.699999
v 0.267832 0.563655 0.670994
v 0.270579 0.550019 0.652309
v 0.306607 0.513963 0.680152
vn -0.779499 -0.554578 0.291247
f 365/1/92 366/2/92 367/3/92 368/4/92
v 0.306607 0.513963 0.680152
v 0.270579 0.550019 0.652309
v 0.281646 0.545028 0.632429
v 0.317097 0.509522 0.659833
vn -0.633029 -0.757129 -0.161339
f 369/1/93 370/2/93 371/3/93 372/4/93
v 0.317097 0.509522 0.659833
v 0.281646 0.545028 0.632429
v 0.298068 0.550019 0.616681
v 0.334050 0.513963 0.644488
vn -0.317795 -0.757471 -0.570302
f 373/1/94 374/2/94 375/3/94 376/4/94
v 0.334050 0.513963 0.644488
v 0.298068 0.550019 0.616681
v 0.315445 0.563655 0.609285
v 0.352923 0.526095 0.638228
vn 0.082696 -0.555545 -0.827364
f 377/1/95 378/2/95 379/3/95 380/4/95
v 0.352923 0.526095 0.638228
v 0.315445 0.563655 0.609285
v 0.329121 0.582281 0.612222
v 0.368660 0.542669 0.642730
vn 0.461938 -0.204158 -0.863095
f 381/1/96 382/2/96 383/3/96 384/4/96
v 0.329121 0.582281 0.612222
v 0.289535 0.610982 0.581678
v 0.293414 0.631354 0.592286
v 0.335431 0.600908 0.624706
vn 0.692234 0.225049 -0.685686
f 385/1/97 386/2/97 387/3/97 388/4/97
v 0.335431 0.600908 0.624706
v 0.293414 0.631354 0.592286
v 0.288888 0.646267 0.609598
v 0.332684 0.614543 0.643391
vn 0.710329 0.614196 -0.343796
f 389/1/98 390/2/98 391/3/98 392/4/98
v 0.332684 0.614543 0.643391
v 0.288888 0.646267 0.609598
v 0.277170 0.651726 0.628975
v 0.321617 0.619534 0.663270
vn 0.538214 0.838071 0.089228
f 393/1/99 394/2/99 395/3/99 396/4/99
v 0.321617 0.619534 0.663270
v 0.277170 0.651726 0.628975
v 0.261399 0.646267 0.645226
v 0.305194 0.614543 0.679018
vn 0.222789 0.838098 0.497953
f 397/1/100 398/2/100 399/3/100 400/4/100
v 0.305194 0.614543 0.679018
v 0.261399 0.646267 0.645226
v 0.245801 0.631354 0.653995
v 0.287817 0.600908 0.686414
vn -0.152457 0.614255 0.774240
f 401/1/101 402/2/101 403/3/101 404/4/101
v 0.287817 0.600908 0.686414
v 0.245801 0.631354 0.653995
v 0.234556 0.610982 0.652933
v 0.274142 0.582281 0.683477
vn -0.487724 0.225084 0.843483
f 405/1/102 406/2/102 407/3/102 408/4/102
v 0.274142 0.582281 0.683477
v 0.234556 0.610982 0.652933
v 0.230676 0.590610 0.642325
v 0.267832 0.563655 0.670994
vn -0.692234 -0.225049 0.685686
f 409/1/103 410/2/103 411/3/103 412/4/103
v 0.267832 0.563655 0.670994
v 0.230676 0.590610 0.642325
v 0.235202 0.575696 0.625013
v 0.270579 0.550019 0.652309
vn -0.710577 -0.614007 0.343622
f 413/1/104 414/2/104 415/3/104 416/4/104
v 0.270579 0.550019 0.652309
v 0.235202 0.575696 0.625013
v 0.246921 0.570238 0.605636
v 0.281646 0.545028 0.632429
vn -0.538807 -0.837644 -0.089666
f 417/1/105 418/2/105 419/3/105 420/4/105
v 0.281646 0.545028 0.632429
v 0.246921 0.570238 0.605636
v 0.262692 0.575696 0.589385
v 0.298068 0.550019 0.616681
vn -0.223453 -0.837602 -0.498489
f 421/1/106 422/2/106 423/3/106 424/4/106
v 0.298068 0.550019 0.616681
v 0.262692 0.575696 0.589385
v 0.278290 0.590610 0.580616
v 0.315445 0.563655 0.609285
vn 0.152052 -0.613924 -0.774582
f 425/1/107 426/2/107 427/3/107 428/4/107
v 0.315445 0.563655 0.609285
v 0.278290 0.590610 0.580616
v 0.289535 0.610982 0.581678
v 0.329121 0.582281 0.612222
vn 0.487639 -0.225011 -0.843551
f 429/1/108 430/2/108 431/3/108 432/4/108
v 0.289535 0.610982 0.581678
v 0.249995 0.629560 0.551169
v 0.251515 0.651074 0.559968
v 0.293414 0.631354 0.592286
vn 0.661604 0.243347 -0.709269
f 433/1/109 434/2/109 435/3/109 436/4/109
v 0.293414 0.631354 0.592286
v 0.251515 0.651074 0.559968
v 0.245250 0.666824 0.575946
v 0.288888 0.646267 0.609598
vn 0.626990 0.663734 -0.407849
f 437/1/110 438/2/110 439/3/110 440/4/110
v 0.288888 0.646267 0.609598
v 0.245250 0.666824 0.575946
v 0.232879 0.672589 0.594822
v 0.277170 0.651726 0.628975
vn 0.424919 0.905229 0.001968
f 441/1/111 442/2/111 443/3/111 444/4/111
v 0.277170 0.651726 0.628975
v 0.232879 0.672589 0.594822
v 0.217715 0.666824 0.611538
v 0.261399 0.646267 0.645226
vn 0.109769 0.905186 0.410596
f 445/1/112 446/2/112 447/3/112 448/4/112
v 0.261399 0.646267 0.645226
v 0.217715 0.666824 0.611538
v 0.203823 0.651074 0.621615
v 0.245801 0.631354 0.653995
vn -0.235299 0.663634 0.710088
f 449/1/113 450/2/113 451/3/113 452/4/113
v 0.245801 0.631354 0.653995
v 0.203823 0.651074 0.621615
v 0.194924 0.629560 0.622353
v 0.234556 0.610982 0.652933
vn -0.518165 0.243287 0.819949
f 453/1/114 454/2/114 455/3/114 456/4/114
v 0.234556 0.610982 0.652933
v 0.194924 0.629560 0.622353
v 0.193403 0.608046 0.613555
v 0.230676 0.590610 0.642325
vn -0.661461 -0.243429 0.709374
f 457/1/115 458/2/115 459/3/115 460/4/115
v 0.230676 0.590610 0.642325
v 0.193403 0.608046 0.613555
v 0.199668 0.592296 0.597577
v 0.235202 0.575696 0.625013
vn -0.626042 -0.664219 0.408515
f 461/1/116 462/2/116 463/3/116 464/4/116
v 0.235202 0.575696 0.625013
v 0.199668 0.592296 0.597577
v 0.212040 0.586531 0.578701
v 0.246921 0.570238 0.605636
vn -0.422929 -0.906163 -0.000501
f 465/1/117 466/2/117 467/3/117 468/4/117
v 0.246921 0.570238 0.605636
v 0.212040 0.586531 0.578701
v 0.227204 0.592296 0.561984
v 0.262692 0.575696 0.589385
vn -0.107609 -0.906234 -0.408852
f 469/1/118 470/2/118 471/3/118 472/4/118
v 0.262692 0.575696 0.589385
v 0.227204 0.592296 0.561984
v 0.241096 0.608046 0.551907
v 0.278290 0.590610 0.580616
vn 0.236635 -0.664366 -0.708958
f 473/1/119 474/2/119 475/3/119 476/4/119
v 0.278290 0.590610 0.580616
v 0.241096 0.608046 0.551907
v 0.249995 0.629560 0.551169
v 0.289535 0.610982 0.581678
vn 0.518524 -0.243501 -0.819658
f 477/1/120 478/2/120 479/3/120 480/4/120
v 0.249995 0.629560 0.551169
v 0.210557 0.641712 0.520581
v 0.210603 0.663707 0.528251
v 0.251515 0.651074 0.559968
vn 0.640372 0.251536 -0.725709
f 481/1/121 482/2/121 483/3/121 484/4/121
v 0.251515 0.651074 0.559968
v 0.210603 0.663707 0.528251
v 0.203239 0.679808 0.543388
v 0.245250 0.666824 0.575946
vn 0.565552 0.687338 -0.455759
f 485/1/122 486/2/122 487/3/122 488/4/122
v 0.245250 0.666824 0.575946
v 0.203239 0.679808 0.543388
v 0.190439 0.685702 0.561936
v 0.232879 0.672589 0.594822
vn 0.339615 0.938385 -0.063992
f 489/1/123 490/2/123 491/3/123 492/4/123
v 0.232879 0.672589 0.594822
v 0.190439 0.685702 0.561936
v 0.175633 0.679808 0.578925
v 0.217715 0.666824 0.611538
vn 0.023006 0.938497 0.344519
f 493/1/124 494/2/124 495/3/124 496/4/124
v 0.217715 0.666824 0.611538
v 0.175633 0.679808 0.578925
v 0.162787 0.663707 0.589803
v 0.203823 0.651074 0.621615
vn -0.300126 0.687703 0.661051
f 497/1/125 498/2/125 499/3/125 500/4/125
v 0.203823 0.651074 0.621615
v 0.162787 0.663707 0.589803
v 0.155344 0.641712 0.591655
v 0.194924 0.629560 0.622353
vn -0.543217 0.252158 0.800832
f 501/1/126 502/2/126 503/3/126 504/4/126
v 0.194924 0.629560 0.622353
v 0.155344 0.641712 0.591655
v 0.155298 0.619717 0.583985
v 0.193403 0.608046 0.613555
vn -0.640207 -0.251598 0.725833
f 505/1/127 506/2/127 507/3/127 508/4/127
v 0.193403 0.608046 0.613555
v 0.155298 0.619717 0.583985
v 0.162661 0.603616 0.568848
v 0.199668 0.592296 0.597577
vn -0.564741 -0.687614 0.456349
f 509/1/128 510/2/128 511/3/128 512/4/128
v 0.199668 0.592296 0.597577
v 0.162661 0.603616 0.568848
v 0.175461 0.597723 0.550300
v 0.212040 0.586531 0.578701
vn -0.337888 -0.938919 0.065287
f 513/1/129 514/2/129 515/3/129 516/4/129
v 0.212040 0.586531 0.578701
v 0.175461 0.597723 0.550300
v 0.190268 0.603616 0.533311
v 0.227204 0.592296 0.561984
vn -0.021046 -0.939116 -0.342955
f 517/1/130 518/2/130 519/3/130 520/4/130
v 0.227204 0.592296 0.561984
v 0.190268 0.603616 0.533311
v 0.203114 0.619717 0.522433
v 0.241096 0.608046 0.551907
vn 0.301434 -0.688166 -0.659974
f 521/1/131 522/2/131 523/3/131 524/4/131
v 0.241096 0.608046 0.551907
v 0.203114 0.619717 0.522433
v 0.210557 0.641712 0.520581
v 0.249995 0.629560 0.551169
vn 0.543644 -0.252323 -0.800490
f 525/1/132 526/2/132 527/3/132 528/4/132
v 0.210557 0.641712 0.520581
v 0.171122 0.651134 0.489898
v 0.170863 0.673207 0.497336
v 0.210603 0.663707 0.528251
vn 0.631005 0.254266 -0.732927
f 529/1/133 530/2/133 531/3/133 532/4/133
v 0.210603 0.663707 0.528251
v 0.170863 0.673207 0.497336
v 0.163270 0.689365 0.512297
v 0.203239 0.679808 0.543388
vn 0.537646 0.694868 -0.477593
f 533/1/134 534/2/134 535/3/134 536/4/134
v 0.203239 0.679808 0.543388
v 0.163270 0.689365 0.512297
v 0.150376 0.695279 0.530773
v 0.190439 0.685702 0.561936
vn 0.300326 0.949160 -0.094334
f 537/1/135 538/2/135 539/3/135 540/4/135
v 0.190439 0.685702 0.561936
v 0.150376 0.695279 0.530773
v 0.135636 0.689365 0.547813
v 0.175633 0.679808 0.578925
vn -0.017402 0.949225 0.314117
f 541/1/136 542/2/136 543/3/136 544/4/136
v 0.175633 0.679808 0.578925
v 0.135636 0.689365 0.547813
v 0.123001 0.673207 0.558851
v 0.162787 0.663707 0.589803
vn -0.330550 0.695061 0.638457
f 545/1/137 546/2/137 547/3/137 548/4/137
v 0.162787 0.663707 0.589803
v 0.123001 0.673207 0.558851
v 0.115855 0.651134 0.560930
v 0.155344 0.641712 0.591655
vn -0.555197 0.254559 0.791805
f 549/1/138 550/2/138 551/3/138 552/4/138
v 0.155344 0.641712 0.591655
v 0.115855 0.651134 0.560930
v 0.116113 0.629061 0.553492
v 0.155298 0.619717 0.583985
vn -0.630955 -0.254280 0.732965
f 553/1/139 554/2/139 555/3/139 556/4/139
v 0.155298 0.619717 0.583985
v 0.116113 0.629061 0.553492
v 0.123706 0.612902 0.538531
v 0.162661 0.603616 0.568848
vn -0.537458 -0.694916 0.477735
f 557/1/140 558/2/140 559/3/140 560/4/140
v 0.162661 0.603616 0.568848
v 0.123706 0.612902 0.538531
v 0.136600 0.606988 0.520055
v 0.175461 0.597723 0.550300
vn -0.299935 -0.949254 0.094633
f 561/1/141 562/2/141 563/3/141 564/4/141
v 0.175461 0.597723 0.550300
v 0.136600 0.606988 0.520055
v 0.151340 0.612902 0.503015
v 0.190268 0.603616 0.533311
vn 0.017855 -0.949334 -0.313760
f 565/1/142 566/2/142 567/3/142 568/4/142
v 0.190268 0.603616 0.533311
v 0.151340 0.612902 0.503015
v 0.163975 0.629061 0.491977
v 0.203114 0.619717 0.522433
vn 0.330865 -0.695142 -0.638206
f 569/1/143 570/2/143 571/3/143 572/4/143
v 0.203114 0.619717 0.522433
v 0.163975 0.629061 0.491977
v 0.171122 0.651134 0.489898
v 0.210557 0.641712 0.520581
vn 0.555313 -0.254590 -0.791714
f 573/1/144 574/2/144 575/3/144 576/4/144
v 0.171122 0.651134 0.489898
v 0.131664 0.661482 0.459197
v 0.131729 0.683470 0.466888
v 0.170863 0.673207 0.497336
vn 0.634559 0.253456 -0.730134
f 577/1/145 578/2/145 579/3/145 580/4/145
v 0.170863 0.673207 0.497336
v 0.131729 0.683470 0.466888
v 0.124372 0.699566 0.482033
v 0.163270 0.689365 0.512297
vn 0.547325 0.692444 -0.470060
f 581/1/146 582/2/146 583/3/146 584/4/146
v 0.163270 0.689365 0.512297
v 0.124372 0.699566 0.482033
v 0.111562 0.705457 0.500575
v 0.150376 0.695279 0.530773
vn 0.313441 0.945881 -0.084045
f 585/1/147 586/2/147 587/3/147 588/4/147
v 0.150376 0.695279 0.530773
v 0.111562 0.705457 0.500575
v 0.096734 0.699566 0.517546
v 0.135636 0.689365 0.547813
vn -0.004417 0.945881 0.324483
f 589/1/148 590/2/148 591/3/148 592/4/148
v 0.135636 0.689365 0.547813
v 0.096734 0.699566 0.517546
v 0.083859 0.683470 0.528398
v 0.123001 0.673207 0.558851
vn -0.321095 0.692444 0.646079
f 593/1/149 594/2/149 595/3/149 596/4/149
v 0.123001 0.673207 0.558851
v 0.083859 0.683470 0.528398
v 0.076388 0.661482 0.530223
v 0.115855 0.651134 0.560930
vn -0.551744 0.253456 0.794568
f 597/1/150 598/2/150 599/3/150 600/4/150
v 0.115855 0.651134 0.560930
v 0.076388 0.661482 0.530223
v 0.076322 0.639495 0.522532
v 0.116113 0.629061 0.553492
vn -0.634550 -0.253458 0.730141
f 601/1/151 602/2/151 603/3/151 604/4/151
v 0.116113 0.629061 0.553492
v 0.076322 0.639495 0.522532
v 0.083680 0.623399 0.507387
v 0.123706 0.612902 0.538531
vn -0.547320 -0.692445 0.470064
f 605/1/152 606/2/152 607/3/152 608/4/152
v 0.123706 0.612902 0.538531
v 0.083680 0.623399 0.507387
v 0.096489 0.617507 0.488845
v 0.136600 0.606988 0.520055
vn -0.313442 -0.945881 0.084045
f 609/1/153 610/2/153 611/3/153 612/4/153
v 0.136600 0.606988 0.520055
v 0.096489 0.617507 0.488845
v 0.111318 0.623399 0.471874
v 0.151340 0.612902 0.503015
vn 0.004416 -0.945881 -0.324484
f 613/1/154 614/2/154 615/3/154 616/4/154
v 0.151340 0.612902 0.503015
v 0.111318 0.623399 0.471874
v 0.124192 0.639495 0.461022
v 0.163975 0.629061 0.491977
vn 0.321098 -0.692445 -0.646077
f 617/1/155 618/2/155 619/3/155 620/4/155
v 0.163975 0.629061 0.491977
v 0.124192 0.639495 0.461022
v 0.131664 0.661482 0.459197
v 0.171122 0.651134 0.489898
vn 0.551753 -0.253458 -0.794562
f 621/1/156 622/2/156 623/3/156 624/4/156
v 0.131664 0.661482 0.459197
v 0.092284 0.672853 0.428542
v 0.092461 0.694805 0.436333
v 0.131729 0.683470 0.466888
vn 0.638712 0.252339 -0.726892
f 625/1/157 626/2/157 627/3/157 628/4/157
v 0.131729 0.683470 0.466888
v 0.092461 0.694805 0.436333
v 0.085164 0.710875 0.451535
v 0.124372 0.699566 0.482033
vn 0.558184 0.689473 -0.461582
f 629/1/158 630/2/158 631/3/158 632/4/158
v 0.124372 0.699566 0.482033
v 0.085164 0.710875 0.451535
v 0.072350 0.716757 0.470077
v 0.111562 0.705457 0.500575
vn 0.328125 0.941842 -0.072584
f 633/1/159 634/2/159 635/3/159 636/4/159
v 0.111562 0.705457 0.500575
v 0.072350 0.716757 0.470077
v 0.057451 0.710875 0.486989
v 0.096734 0.699566 0.517546
vn 0.010173 0.941855 0.335866
f 637/1/160 638/2/160 639/3/160 640/4/160
v 0.096734 0.699566 0.517546
v 0.057451 0.710875 0.486989
v 0.044460 0.694805 0.497741
v 0.083859 0.683470 0.528398
vn -0.310497 0.689509 0.654346
f 641/1/161 642/2/161 643/3/161 644/4/161
v 0.083859 0.683470 0.528398
v 0.044460 0.694805 0.497741
v 0.036858 0.672853 0.499450
v 0.076388 0.661482 0.530223
vn -0.547957 0.252388 0.797523
f 645/1/162 646/2/162 647/3/162 648/4/162
v 0.076388 0.661482 0.530223
v 0.036858 0.672853 0.499450
v 0.036681 0.650901 0.491660
v 0.076322 0.639495 0.522532
vn -0.638551 -0.252384 0.727018
f 649/1/163 650/2/163 651/3/163 652/4/163
v 0.076322 0.639495 0.522532
v 0.036681 0.650901 0.491660
v 0.043978 0.634832 0.476458
v 0.083680 0.623399 0.507387
vn -0.557998 -0.689526 0.461728
f 653/1/164 654/2/164 655/3/164 656/4/164
v 0.083680 0.623399 0.507387
v 0.043978 0.634832 0.476458
v 0.056792 0.628950 0.457916
v 0.096489 0.617507 0.488845
vn -0.327909 -0.941904 0.072753
f 657/1/165 658/2/165 659/3/165 660/4/165
v 0.096489 0.617507 0.488845
v 0.056792 0.628950 0.457916
v 0.071691 0.634832 0.441003
v 0.111318 0.623399 0.471874
vn -0.009952 -0.941918 -0.335695
f 661/1/166 662/2/166 663/3/166 664/4/166
v 0.111318 0.623399 0.471874
v 0.071691 0.634832 0.441003
v 0.084682 0.650901 0.430252
v 0.124192 0.639495 0.461022
vn 0.310693 -0.689564 -0.654195
f 665/1/167 666/2/167 667/3/167 668/4/167
v 0.124192 0.639495 0.461022
v 0.084682 0.650901 0.430252
v 0.092284 0.672853 0.428542
v 0.131664 0.661482 0.459197
vn 0.548123 -0.252434 -0.797394
f 669/1/168 670/2/168 671/3/168 672/4/168
v 0.092284 0.672853 0.428542
v 0.053055 0.683972 0.397753
v 0.053066 0.705964 0.405430
v 0.092461 0.694805 0.436333
vn 0.640678 0.252205 -0.725206
f 673/1/169 674/2/169 675/3/169 676/4/169
v 0.092461 0.694805 0.436333
v 0.053066 0.705964 0.405430
v 0.045620 0.722063 0.420529
v 0.085164 0.710875 0.451535
vn 0.557562 0.689917 -0.461670
f 677/1/170 678/2/170 679/3/170 680/4/170
v 0.085164 0.710875 0.451535
v 0.045620 0.722063 0.420529
v 0.032713 0.727956 0.439003
v 0.072350 0.716757 0.470077
vn 0.325073 0.942757 -0.074408
f 681/1/171 682/2/171 683/3/171 684/4/171
v 0.072350 0.716757 0.470077
v 0.032713 0.727956 0.439003
v 0.017804 0.722063 0.455902
v 0.057451 0.710875 0.486989
vn 0.005514 0.942976 0.332814
f 685/1/172 686/2/172 687/3/172 688/4/172
v 0.057451 0.710875 0.486989
v 0.017804 0.722063 0.455902
v 0.004887 0.705964 0.466698
v 0.044460 0.694805 0.497741
vn -0.315490 0.690518 0.650884
f 689/1/173 690/2/173 691/3/173 692/4/173
v 0.044460 0.694805 0.497741
v 0.004887 0.705964 0.466698
v -0.002577 0.683972 0.468499
v 0.036858 0.672853 0.499450
vn -0.551930 0.253029 0.794575
f 693/1/174 694/2/174 695/3/174 696/4/174
v 0.036858 0.672853 0.499450
v -0.002577 0.683972 0.468499
v -0.002587 0.661979 0.460821
v 0.036681 0.650901 0.491660
vn -0.640456 -0.252268 0.725381
f 697/1/175 698/2/175 699/3/175 700/4/175
v 0.036681 0.650901 0.491660
v -0.002587 0.661979 0.460821
v 0.004859 0.645880 0.445723
v 0.043978 0.634832 0.476458
vn -0.557347 -0.689978 0.461839
f 701/1/176 702/2/176 703/3/176 704/4/176
v 0.043978 0.634832 0.476458
v 0.004859 0.645880 0.445723
v 0.017765 0.639987 0.427249
v 0.056792 0.628950 0.457916
vn -0.324868 -0.942815 0.074568
f 705/1/177 706/2/177 707/3/177 708/4/177
v 0.056792 0.628950 0.457916
v 0.017765 0.639987 0.427249
v 0.032675 0.645880 0.410349
v 0.071691 0.634832 0.441003
vn -0.005312 -0.943033 -0.332657
f 709/1/178 710/2/178 711/3/178 712/4/178
v 0.071691 0.634832 0.441003
v 0.032675 0.645880 0.410349
v 0.045592 0.661979 0.399553
v 0.084682 0.650901 0.430252
vn 0.315699 -0.690577 -0.650721
f 713/1/179 714/2/179 715/3/179 716/4/179
v 0.084682 0.650901 0.430252
v 0.045592 0.661979 0.399553
v 0.053055 0.683972 0.397753
v 0.092284 0.672853 0.428542
vn 0.552149 -0.253091 -0.794403
f 717/1/180 718/2/180 719/3/180 720/4/180
v 0.053055 0.683972 0.397753
v -0.109140 0.727363 0.269967
v -0.109414 0.749423 0.277441
v 0.053066 0.705964 0.405430
vn 0.639581 0.253108 -0.725860
f 721/1/181 722/2/181 723/3/181 724/4/181
v 0.053066 0.705964 0.405430
v -0.109414 0.749423 0.277441
v -0.117102 0.765572 0.292364
v 0.045620 0.722063 0.420529
vn 0.551828 0.691881 -0.465603
f 725/1/182 726/2/182 727/3/182 728/4/182
v 0.045620 0.722063 0.420529
v -0.117102 0.765572 0.292364
v -0.130144 0.771483 0.310737
v 0.032713 0.727956 0.439003
vn 0.316221 0.945257 -0.080588
f 729/1/183 730/2/183 731/3/183 732/4/183
v 0.032713 0.727956 0.439003
v -0.130144 0.771483 0.310737
v -0.145045 0.765572 0.327637
v 0.017804 0.722063 0.455902
vn -0.004105 0.945353 0.326023
f 733/1/184 734/2/184 735/3/184 736/4/184
v 0.017804 0.722063 0.455902
v -0.145045 0.765572 0.327637
v -0.157814 0.749423 0.338535
v 0.004887 0.705964 0.466698
vn -0.323323 0.692147 0.645287
f 737/1/185 738/2/185 739/3/185 740/4/185
v 0.004887 0.705964 0.466698
v -0.157814 0.749423 0.338535
v -0.165027 0.727363 0.340512
v -0.002577 0.683972 0.468499
vn -0.555903 0.253475 0.791658
f 741/1/186 742/2/186 743/3/186 744/4/186
v -0.002577 0.683972 0.468499
v -0.165027 0.727363 0.340512
v -0.164753 0.705303 0.333038
v -0.002587 0.661979 0.460821
vn -0.639519 -0.253125 0.725908
f 745/1/187 746/2/187 747/3/187 748/4/187
v -0.002587 0.661979 0.460821
v -0.164753 0.705303 0.333038
v -0.157065 0.689153 0.318115
v 0.004859 0.645880 0.445723
vn -0.551766 -0.691898 0.465652
f 749/1/188 750/2/188 751/3/188 752/4/188
v 0.004859 0.645880 0.445723
v -0.157065 0.689153 0.318115
v -0.144023 0.683242 0.299742
v 0.017765 0.639987 0.427249
vn -0.316163 -0.945272 0.080633
f 753/1/189 754/2/189 755/3/189 756/4/189
v 0.017765 0.639987 0.427249
v -0.144023 0.683242 0.299742
v -0.129122 0.689153 0.282842
v 0.032675 0.645880 0.410349
vn 0.004159 -0.945367 -0.325980
f 757/1/190 758/2/190 759/3/190 760/4/190
v 0.032675 0.645880 0.410349
v -0.129122 0.689153 0.282842
v -0.116354 0.705303 0.271944
v 0.045592 0.661979 0.399553
vn 0.323377 -0.692162 -0.645244
f 761/1/191 762/2/191 763/3/191 764/4/191
v 0.045592 0.661979 0.399553
v -0.116354 0.705303 0.271944
v -0.109140 0.727363 0.269967
v 0.053055 0.683972 0.397753
vn 0.555961 -0.253491 -0.791613
f 765/1/192 766/2/192 767/3/192 768/4/192
v -0.109140 0.727363 0.269967
v -0.270577 0.766913 0.141369
v -0.271187 0.789045 0.148606
v -0.109414 0.749423 0.277441
vn 0.639943 0.253704 -0.725333
f 769/1/193 770/2/193 771/3/193 772/4/193
v -0.109414 0.749423 0.277441
v -0.271187 0.789045 0.148606
v -0.279173 0.805247 0.163313
v -0.117102 0.765572 0.292364
vn 0.544751 0.694145 -0.470541
f 773/1/194 774/2/194 775/3/194 776/4/194
v -0.117102 0.765572 0.292364
v -0.279173 0.805247 0.163313
v -0.292397 0.811177 0.181550
v -0.130144 0.771483 0.310737
vn 0.303605 0.948570 -0.089664
f 777/1/195 778/2/195 779/3/195 780/4/195
v -0.130144 0.771483 0.310737
v -0.292397 0.811177 0.181550
v -0.307314 0.805247 0.198429
v -0.145045 0.765572 0.327637
vn -0.018868 0.948826 0.315234
f 781/1/196 782/2/196 783/3/196 784/4/196
v -0.145045 0.765572 0.327637
v -0.307314 0.805247 0.198429
v -0.319928 0.789045 0.209428
v -0.157814 0.749423 0.338535
vn -0.336273 0.694861 0.635680
f 785/1/197 786/2/197 787/3/197 788/4/197
v -0.157814 0.749423 0.338535
v -0.319928 0.789045 0.209428
v -0.326858 0.766913 0.211600
v -0.165027 0.727363 0.340512
vn -0.563574 0.254701 0.785819
f 789/1/198 790/2/198 791/3/198 792/4/198
v -0.165027 0.727363 0.340512
v -0.326858 0.766913 0.211600
v -0.326249 0.744780 0.204363
v -0.164753 0.705303 0.333038
vn -0.639853 -0.253727 0.725404
f 793/1/199 794/2/199 795/3/199 796/4/199
v -0.164753 0.705303 0.333038
v -0.326249 0.744780 0.204363
v -0.318262 0.728578 0.189655
v -0.157065 0.689153 0.318115
vn -0.544660 -0.694168 0.470613
f 797/1/200 798/2/200 799/3/200 800/4/200
v -0.157065 0.689153 0.318115
v -0.318262 0.728578 0.189655
v -0.305039 0.722648 0.171419
v -0.144023 0.683242 0.299742
vn -0.303513 -0.948592 0.089736
f 801/1/201 802/2/201 803/3/201 804/4/201
v -0.144023 0.683242 0.299742
v -0.305039 0.722648 0.171419
v -0.290122 0.728578 0.154540
v -0.129122 0.689153 0.282842
vn 0.018959 -0.948849 -0.315161
f 805/1/202 806/2/202 807/3/202 808/4/202
v -0.129122 0.689153 0.282842
v -0.290122 0.728578 0.154540
v -0.277508 0.744780 0.143541
v -0.116354 0.705303 0.271944
vn 0.336363 -0.694883 -0.635608
f 809/1/203 810/2/203 811/3/203 812/4/203
v -0.116354 0.705303 0.271944
v -0.277508 0.744780 0.143541
v -0.270577 0.766913 0.141369
v -0.109140 0.727363 0.269967
vn 0.563663 -0.254724 -0.785748
f 813/1/204 814/2/204 815/3/204 816/4/204
v -0.270577 0.766913 0.141369
v -0.431225 0.802999 0.011862
v -0.432147 0.825191 0.018880
v -0.271187 0.789045 0.148606
vn 0.640955 0.254459 -0.724173
f 817/1/205 818/2/205 819/3/205 820/4/205
v -0.271187 0.789045 0.148606
v -0.432147 0.825191 0.018880
v -0.440425 0.841437 0.033377
v -0.279173 0.805247 0.163313
vn 0.538712 0.696208 -0.474431
f 821/1/206 822/2/206 823/3/206 824/4/206
v -0.279173 0.805247 0.163313
v -0.440425 0.841437 0.033377
v -0.453840 0.847383 0.051467
v -0.292397 0.811177 0.181550
vn 0.292132 0.951389 -0.097558
f 825/1/207 826/2/207 827/3/207 828/4/207
v -0.292397 0.811177 0.181550
v -0.453840 0.847383 0.051467
v -0.468799 0.841437 0.068304
v -0.307314 0.805247 0.198429
vn -0.032701 0.951645 0.305454
f 829/1/208 830/2/208 831/3/208 832/4/208
v -0.307314 0.805247 0.198429
v -0.468799 0.841437 0.068304
v -0.481292 0.825191 0.079376
v -0.319928 0.789045 0.209428
vn -0.348758 0.696921 0.626632
f 833/1/209 834/2/209 835/3/209 836/4/209
v -0.319928 0.789045 0.209428
v -0.481292 0.825191 0.079376
v -0.487973 0.802999 0.081716
v -0.326858 0.766913 0.211600
vn -0.571363 0.255453 0.779928
f 837/1/210 838/2/210 839/3/210 840/4/210
v -0.326858 0.766913 0.211600
v -0.487973 0.802999 0.081716
v -0.487050 0.780807 0.074698
v -0.326249 0.744780 0.204363
vn -0.640859 -0.254482 0.724251
f 841/1/211 842/2/211 843/3/211 844/4/211
v -0.326249 0.744780 0.204363
v -0.487050 0.780807 0.074698
v -0.478773 0.764561 0.060202
v -0.318262 0.728578 0.189655
vn -0.538613 -0.696230 0.474509
f 845/1/212 846/2/212 847/3/212 848/4/212
v -0.318262 0.728578 0.189655
v -0.478773 0.764561 0.060202
v -0.465357 0.758615 0.042111
v -0.305039 0.722648 0.171419
vn -0.292033 -0.951411 0.097637
f 849/1/213 850/2/213 851/3/213 852/4/213
v -0.305039 0.722648 0.171419
v -0.465357 0.758615 0.042111
v -0.450399 0.764561 0.025274
v -0.290122 0.728578 0.154540
vn 0.032800 -0.951667 -0.305374
f 853/1/214 854/2/214 855/3/214 856/4/214
v -0.290122 0.728578 0.154540
v -0.450399 0.764561 0.025274
v -0.437906 0.780807 0.014202
v -0.277508 0.744780 0.143541
vn 0.348856 -0.696944 -0.626554
f 857/1/215 858/2/215 859/3/215 860/4/215
v -0.277508 0.744780 0.143541
v -0.437906 0.780807 0.014202
v -0.431225 0.802999 0.011862
v -0.270577 0.766913 0.141369
vn 0.571459 -0.255476 -0.779850
f 861/1/216 862/2/216 863/3/216 864/4/216
v -0.431225 0.802999 0.011862
v -0.590877 0.836000 -0.118829
v -0.592084 0.858241 -0.112011
v -0.432147 0.825191 0.018880
vn 0.643507 0.254988 -0.721720
f 865/1/217 866/2/217 867/3/217 868/4/217
v -0.432147 0.825191 0.018880
v -0.592084 0.858241 -0.112011
v -0.600638 0.874522 -0.097716
v -0.440425 0.841437 0.033377
vn 0.534453 0.697834 -0.476852
f 869/1/218 870/2/218 871/3/218 872/4/218
v -0.440425 0.841437 0.033377
v -0.600638 0.874522 -0.097716
v -0.614247 0.880481 -0.079775
v -0.453840 0.847383 0.051467
vn 0.282203 0.953679 -0.104201
f 873/1/219 874/2/219 875/3/219 876/4/219
v -0.453840 0.847383 0.051467
v -0.614247 0.880481 -0.079775
v -0.629265 0.874522 -0.062995
v -0.468799 0.841437 0.068304
vn -0.045641 0.953982 0.296371
f 877/1/220 878/2/220 879/3/220 880/4/220
v -0.468799 0.841437 0.068304
v -0.629265 0.874522 -0.062995
v -0.641666 0.858241 -0.051873
v -0.481292 0.825191 0.079376
vn -0.361240 0.698677 0.617540
f 881/1/221 882/2/221 883/3/221 884/4/221
v -0.481292 0.825191 0.079376
v -0.641666 0.858241 -0.051873
v -0.648129 0.836000 -0.049388
v -0.487973 0.802999 0.081716
vn -0.580041 0.256162 0.773262
f 885/1/222 886/2/222 887/3/222 888/4/222
v -0.487973 0.802999 0.081716
v -0.648129 0.836000 -0.049388
v -0.646922 0.813759 -0.056206
v -0.487050 0.780807 0.074698
vn -0.643410 -0.255009 0.721800
f 889/1/223 890/2/223 891/3/223 892/4/223
v -0.487050 0.780807 0.074698
v -0.646922 0.813759 -0.056206
v -0.638368 0.797478 -0.070501
v -0.478773 0.764561 0.060202
vn -0.534355 -0.697855 0.476931
f 893/1/224 894/2/224 895/3/224 896/4/224
v -0.478773 0.764561 0.060202
v -0.638368 0.797478 -0.070501
v -0.624759 0.791519 -0.088442
v -0.465357 0.758615 0.042111
vn -0.282104 -0.953700 0.104281
f 897/1/225 898/2/225 899/3/225 900/4/225
v -0.465357 0.758615 0.042111
v -0.624759 0.791519 -0.088442
v -0.609742 0.797478 -0.105222
v -0.450399 0.764561 0.025274
vn 0.045741 -0.954002 -0.296290
f 901/1/226 902/2/226 903/3/226 904/4/226
v -0.450399 0.764561 0.025274
v -0.609742 0.797478 -0.105222
v -0.597340 0.813759 -0.116344
v -0.437906 0.780807 0.014202
vn 0.361339 -0.698698 -0.617459
f 905/1/227 906/2/227 907/3/227 908/4/227
v -0.437906 0.780807 0.014202
v -0.597340 0.813759 -0.116344
v -0.590877 0.836000 -0.118829
v -0.431225 0.802999 0.011862
vn 0.580139 -0.256183 -0.773182
f 909/1/228 910/2/228 911/3/228 912/4/228
v -0.590877 0.836000 -0.118829
v -0.749597 0.866294 -0.250626
v -0.751059 0.888573 -0.243987
v -0.592084 0.858241 -0.112011
vn 0.646029 0.255571 -0.719256
f 913/1/229 914/2/229 915/3/229 916/4/229
v -0.592084 0.858241 -0.112011
v -0.751059 0.888573 -0.243987
v -0.759871 0.904883 -0.229883
v -0.600638 0.874522 -0.097716
vn 0.530871 0.699262 -0.478758
f 917/1/230 918/2/230 919/3/230 920/4/230
v -0.600638 0.874522 -0.097716
v -0.759871 0.904883 -0.229883
v -0.773670 0.910853 -0.212091
v -0.614247 0.880481 -0.079775
vn 0.273476 0.955572 -0.109965
f 921/1/231 922/2/231 923/3/231 924/4/231
v -0.614247 0.880481 -0.079775
v -0.773670 0.910853 -0.212091
v -0.788760 0.904883 -0.195380
v -0.629265 0.874522 -0.062995
vn -0.057178 0.955833 0.288294
f 925/1/232 926/2/232 927/3/232 928/4/232
v -0.629265 0.874522 -0.062995
v -0.788760 0.904883 -0.195380
v -0.801096 0.888573 -0.184227
v -0.641666 0.858241 -0.051873
vn -0.372496 0.699988 0.609314
f 929/1/233 930/2/233 931/3/233 932/4/233
v -0.641666 0.858241 -0.051873
v -0.801096 0.888573 -0.184227
v -0.807375 0.866294 -0.181621
v -0.648129 0.836000 -0.049388
vn -0.587999 0.256581 0.767088
f 933/1/234 934/2/234 935/3/234 936/4/234
v -0.648129 0.836000 -0.049388
v -0.807375 0.866294 -0.181621
v -0.805912 0.844014 -0.188259
v -0.646922 0.813759 -0.056206
vn -0.645937 -0.255590 0.719333
f 937/1/235 938/2/235 939/3/235 940/4/235
v -0.646922 0.813759 -0.056206
v -0.805912 0.844014 -0.188259
v -0.797101 0.827704 -0.202364
v -0.638368 0.797478 -0.070501
vn -0.530777 -0.699280 0.478835
f 941/1/236 942/2/236 943/3/236 944/4/236
v -0.638368 0.797478 -0.070501
v -0.797101 0.827704 -0.202364
v -0.783301 0.821734 -0.220155
v -0.624759 0.791519 -0.088442
vn -0.273381 -0.955591 0.110043
f 945/1/237 946/2/237 947/3/237 948/4/237
v -0.624759 0.791519 -0.088442
v -0.783301 0.821734 -0.220155
v -0.768212 0.827704 -0.236867
v -0.609742 0.797478 -0.105222
vn 0.057273 -0.955851 -0.288215
f 949/1/238 950/2/238 951/3/238 952/4/238
v -0.609742 0.797478 -0.105222
v -0.768212 0.827704 -0.236867
v -0.755875 0.844014 -0.248020
v -0.597340 0.813759 -0.116344
vn 0.372590 -0.700006 -0.609236
f 953/1/239 954/2/239 955/3/239 956/4/239
v -0.597340 0.813759 -0.116344
v -0.755875 0.844014 -0.248020
v -0.749597 0.866294 -0.250626
v -0.590877 0.836000 -0.118829
vn 0.588091 -0.256600 -0.767011
f 957/1/240 958/2/240 959/3/240 960/4/240
v -0.749597 0.866294 -0.250626
v -0.907186 0.894258 -0.383670
v -0.908881 0.916569 -0.377192
v -0.751059 0.888573 -0.243987
vn 0.649722 0.255931 -0.715794
f 961/1/241 962/2/241 963/3/241 964/4/241
v -0.751059 0.888573 -0.243987
v -0.908881 0.916569 -0.377192
v -0.917946 0.932901 -0.363275
v -0.759871 0.904883 -0.229883
vn 0.528869 0.700322 -0.479423
f 965/1/242 966/2/242 967/3/242 968/4/242
v -0.759871 0.904883 -0.229883
v -0.917946 0.932901 -0.363275
v -0.931952 0.938879 -0.345649
v -0.773670 0.910853 -0.212091
vn 0.266316 0.957052 -0.114576
f 969/1/243 970/2/243 971/3/243 972/4/243
v -0.773670 0.910853 -0.212091
v -0.931952 0.938879 -0.345649
v -0.947146 0.932901 -0.329036
v -0.788760 0.904883 -0.195380
vn -0.067577 0.957333 0.280975
f 973/1/244 974/2/244 975/3/244 976/4/244
v -0.788760 0.904883 -0.195380
v -0.947146 0.932901 -0.329036
v -0.959457 0.916569 -0.317887
v -0.801096 0.888573 -0.184227
vn -0.383346 0.701104 0.601248
f 977/1/245 978/2/245 979/3/245 980/4/245
v -0.801096 0.888573 -0.184227
v -0.959457 0.916569 -0.317887
v -0.965586 0.894258 -0.315191
v -0.807375 0.866294 -0.181621
vn -0.596390 0.257017 0.760435
f 981/1/246 982/2/246 983/3/246 984/4/246
v -0.807375 0.866294 -0.181621
v -0.965586 0.894258 -0.315191
v -0.963891 0.871948 -0.321669
v -0.805912 0.844014 -0.188259
vn -0.649621 -0.255949 0.715879
f 985/1/247 986/2/247 987/3/247 988/4/247
v -0.805912 0.844014 -0.188259
v -0.963891 0.871948 -0.321669
v -0.954826 0.855615 -0.335585
v -0.797101 0.827704 -0.202364
vn -0.528767 -0.700341 0.479508
f 989/1/248 990/2/248 991/3/248 992/4/248
v -0.797101 0.827704 -0.202364
v -0.954826 0.855615 -0.335585
v -0.940820 0.849637 -0.353212
v -0.783301 0.821734 -0.220155
vn -0.266212 -0.957070 0.114663
f 993/1/249 994/2/249 995/3/249 996/4/249
v -0.783301 0.821734 -0.220155
v -0.940820 0.849637 -0.353212
v -0.925626 0.855615 -0.369825
v -0.768212 0.827704 -0.236867
vn 0.067681 -0.957351 -0.280888
f 997/1/250 998/2/250 999/3/250 1000/4/250
v -0.768212 0.827704 -0.236867
v -0.925626 0.855615 -0.369825
v -0.913315 0.871948 -0.380974
v -0.755875 0.844014 -0.248020
vn 0.383449 -0.701122 -0.601161
f 1001/1/251 1002/2/251 1003/3/251 1004/4/251
v -0.755875 0.844014 -0.248020
v -0.913315 0.871948 -0.380974
v -0.907186 0.894258 -0.383670
v -0.749597 0.866294 -0.250626
vn 0.596491 -0.257035 -0.760349
f 1005/1/252 1006/2/252 1007/3/252 1008/4/252
v -0.907186 0.894258 -0.383670
v -1.063407 0.920271 -0.518245
v -1.065309 0.942605 -0.511908
v -0.908881 0.916569 -0.377192
vn 0.655021 0.256167 -0.710863
f 1009/1/253 1010/2/253 1011/3/253 1012/4/253
v -0.908881 0.916569 -0.377192
v -1.065309 0.942605 -0.511908
v -1.074617 0.958955 -0.498173
v -0.917946 0.932901 -0.363275
vn 0.528719 0.701116 -0.478427
f 1013/1/254 1014/2/254 1015/3/254 1016/4/254
v -0.917946 0.932901 -0.363275
v -1.074617 0.958955 -0.498173
v -1.088839 0.964940 -0.480722
v -0.931952 0.938879 -0.345649
vn 0.260756 0.958193 -0.117779
f 1017/1/255 1018/2/255 1019/3/255 1020/4/255
v -0.931952 0.938879 -0.345649
v -1.088839 0.964940 -0.480722
v -1.104162 0.958955 -0.464230
v -0.947146 0.932901 -0.329036
vn -0.077059 0.958513 0.274434
f 1021/1/256 1022/2/256 1023/3/256 1024/4/256
v -0.947146 0.932901 -0.329036
v -1.104162 0.958955 -0.464230
v -1.116481 0.942605 -0.453117
v -0.959457 0.916569 -0.317887
vn -0.394206 0.702004 0.593120
f 1025/1/257 1026/2/257 1027/3/257 1028/4/257
v -0.959457 0.916569 -0.317887
v -1.116481 0.942605 -0.453117
v -1.122496 0.920271 -0.450359
v -0.965586 0.894258 -0.315191
vn -0.605716 0.257399 0.752897
f 1029/1/258 1030/2/258 1031/3/258 1032/4/258
v -0.965586 0.894258 -0.315191
v -1.122496 0.920271 -0.450359
v -1.120594 0.897937 -0.456697
v -0.963891 0.871948 -0.321669
vn -0.654915 -0.256185 0.710953
f 1033/1/259 1034/2/259 1035/3/259 1036/4/259
v -0.963891 0.871948 -0.321669
v -1.120594 0.897937 -0.456697
v -1.111286 0.881587 -0.470431
v -0.954826 0.855615 -0.335585
vn -0.528613 -0.701135 0.478517
f 1037/1/260 1038/2/260 1039/3/260 1040/4/260
v -0.954826 0.855615 -0.335585
v -1.111286 0.881587 -0.470431
v -1.097065 0.875603 -0.487882
v -0.940820 0.849637 -0.353212
vn -0.260649 -0.958211 0.117870
f 1041/1/261 1042/2/261 1043/3/261 1044/4/261
v -0.940820 0.849637 -0.353212
v -1.097065 0.875603 -0.487882
v -1.081742 0.881587 -0.504374
v -0.925626 0.855615 -0.369825
vn 0.077166 -0.958531 -0.274342
f 1045/1/262 1046/2/262 1047/3/262 1048/4/262
v -0.925626 0.855615 -0.369825
v -1.081742 0.881587 -0.504374
v -1.069422 0.897937 -0.515488
v -0.913315 0.871948 -0.380974
vn 0.394313 -0.702022 -0.593028
f 1049/1/263 1050/2/263 1051/3/263 1052/4/263
v -0.913315 0.871948 -0.380974
v -1.069422 0.897937 -0.515488
v -1.063407 0.920271 -0.518245
v -0.907186 0.894258 -0.383670
vn 0.605822 -0.257417 -0.752806
f 1053/1/264 1054/2/264 1055/3/264 1056/4/264
v -1.063407 0.920271 -0.518245
v -1.218194 0.944711 -0.654371
v -1.220279 0.967063 -0.648154
v -1.065309 0.942605 -0.511908
vn 0.660825 0.256423 -0.705377
f 1057/1/265 1058/2/265 1059/3/265 1060/4/265
v -1.065309 0.942605 -0.511908
v -1.220279 0.967063 -0.648154
v -1.229825 0.983425 -0.634600
v -1.074617 0.958955 -0.498173
vn 0.529636 0.701773 -0.476446
f 1061/1/266 1062/2/266 1063/3/266 1064/4/266
v -1.074617 0.958955 -0.498173
v -1.229825 0.983425 -0.634600
v -1.244276 0.989415 -0.617340
v -1.088839 0.964940 -0.480722
vn 0.256541 0.959076 -0.119833
f 1065/1/267 1066/2/267 1067/3/267 1068/4/267
v -1.088839 0.964940 -0.480722
v -1.244276 0.989415 -0.617340
v -1.259758 0.983425 -0.600999
v -1.104162 0.958955 -0.464230
vn -0.085277 0.959386 0.268899
f 1069/1/268 1070/2/268 1071/3/268 1072/4/268
v -1.104162 0.958955 -0.464230
v -1.259758 0.983425 -0.600999
v -1.272124 0.967063 -0.589956
v -1.116481 0.942605 -0.453117
vn -0.404226 0.702631 0.585587
f 1073/1/269 1074/2/269 1075/3/269 1076/4/269
v -1.116481 0.942605 -0.453117
v -1.272124 0.967063 -0.589956
v -1.278060 0.944711 -0.587169
v -1.122496 0.920271 -0.450359
vn -0.614850 0.257611 0.745383
f 1077/1/270 1078/2/270 1079/3/270 1080/4/270
v -1.122496 0.920271 -0.450359
v -1.278060 0.944711 -0.587169
v -1.275975 0.922359 -0.593386
v -1.120594 0.897937 -0.456697
vn -0.660715 -0.256441 0.705474
f 1081/1/271 1082/2/271 1083/3/271 1084/4/271
v -1.120594 0.897937 -0.456697
v -1.275975 0.922359 -0.593386
v -1.266429 0.905997 -0.606941
v -1.111286 0.881587 -0.470431
vn -0.529524 -0.701791 0.476544
f 1085/1/272 1086/2/272 1087/3/272 1088/4/272
v -1.111286 0.881587 -0.470431
v -1.266429 0.905997 -0.606941
v -1.251978 0.900008 -0.624201
v -1.097065 0.875603 -0.487882
vn -0.256427 -0.959094 0.119932
f 1089/1/273 1090/2/273 1091/3/273 1092/4/273
v -1.097065 0.875603 -0.487882
v -1.251978 0.900008 -0.624201
v -1.236496 0.905997 -0.640542
v -1.081742 0.881587 -0.504374
vn 0.085391 -0.959404 -0.268799
f 1093/1/274 1094/2/274 1095/3/274 1096/4/274
v -1.081742 0.881587 -0.504374
v -1.236496 0.905997 -0.640542
v -1.224130 0.922359 -0.651585
v -1.069422 0.897937 -0.515488
vn 0.404338 -0.702648 -0.585488
f 1097/1/275 1098/2/275 1099/3/275 1100/4/275
v -1.069422 0.897937 -0.515488
v -1.224130 0.922359 -0.651585
v -1.218194 0.944711 -0.654371
v -1.063407 0.920271 -0.518245
vn 0.614960 -0.257629 -0.745286
f 1101/1/276 1102/2/276 1103/3/276 1104/4/276
v -1.218194 0.944711 -0.654371
v -1.371156 0.967956 -0.792393
v -1.373405 0.990320 -0.786277
v -1.220279 0.967063 -0.648154
vn 0.668703 0.256483 -0.697892
f 1105/1/277 1106/2/277 1107/3/277 1108/4/277
v -1.220279 0.967063 -0.648154
v -1.373405 0.990320 -0.786277
v -1.383196 1.006691 -0.772909
v -1.229825 0.983425 -0.634600
vn 0.532753 0.702152 -0.472394
f 1109/1/278 1110/2/278 1111/3/278 1112/4/278
v -1.229825 0.983425 -0.634600
v -1.383196 1.006691 -0.772909
v -1.397904 1.012684 -0.755869
v -1.244276 0.989415 -0.617340
vn 0.254063 0.959678 -0.120296
f 1113/1/279 1114/2/279 1115/3/279 1116/4/279
v -1.244276 0.989415 -0.617340
v -1.397904 1.012684 -0.755869
v -1.413589 1.006691 -0.739724
v -1.259758 0.983425 -0.600999
vn -0.092687 0.960045 0.264050
f 1117/1/280 1118/2/280 1119/3/280 1120/4/280
v -1.259758 0.983425 -0.600999
v -1.413589 1.006691 -0.739724
v -1.426048 0.990320 -0.728799
v -1.272124 0.967063 -0.589956
vn -0.414579 0.703167 0.577651
f 1121/1/281 1122/2/281 1123/3/281 1124/4/281
v -1.272124 0.967063 -0.589956
v -1.426048 0.990320 -0.728799
v -1.431942 0.967956 -0.726022
v -1.278060 0.944711 -0.587169
vn -0.625367 0.257884 0.736487
f 1125/1/282 1126/2/282 1127/3/282 1128/4/282
v -1.278060 0.944711 -0.587169
v -1.431942 0.967956 -0.726022
v -1.429693 0.945592 -0.732137
v -1.275975 0.922359 -0.593386
vn -0.668578 -0.256502 0.698004
f 1129/1/283 1130/2/283 1131/3/283 1132/4/283
v -1.275975 0.922359 -0.593386
v -1.429693 0.945592 -0.732137
v -1.419902 0.929221 -0.745506
v -1.266429 0.905997 -0.606941
vn -0.532627 -0.702172 0.472507
f 1133/1/284 1134/2/284 1135/3/284 1136/4/284
v -1.266429 0.905997 -0.606941
v -1.419902 0.929221 -0.745506
v -1.405194 0.923228 -0.762546
v -1.251978 0.900008 -0.624201
vn -0.253935 -0.959697 0.120410
f 1137/1/285 1138/2/285 1139/3/285 1140/4/285
v -1.251978 0.900008 -0.624201
v -1.405194 0.923228 -0.762546
v -1.389509 0.929221 -0.778691
v -1.236496 0.905997 -0.640542
vn 0.092816 -0.960064 -0.263935
f 1141/1/286 1142/2/286 1143/3/286 1144/4/286
v -1.236496 0.905997 -0.640542
v -1.389509 0.929221 -0.778691
v -1.377050 0.945592 -0.789616
v -1.224130 0.922359 -0.651585
vn 0.414706 -0.703186 -0.577536
f 1145/1/287 1146/2/287 1147/3/287 1148/4/287
v -1.224130 0.922359 -0.651585
v -1.377050 0.945592 -0.789616
v -1.371156 0.967956 -0.792393
v -1.218194 0.944711 -0.654371
vn 0.625492 -0.257903 -0.736373
f 1149/1/288 1150/2/288 1151/3/288 1152/4/288
v -1.371156 0.967956 -0.792393
v -1.521981 0.990383 -0.932595
v -1.524376 1.012755 -0.926563
v -1.373405 0.990320 -0.786277
vn 0.678251 0.256511 -0.688605
f 1153/1/289 1154/2/289 1155/3/289 1156/4/289
v -1.373405 0.990320 -0.786277
v -1.524376 1.012755 -0.926563
v -1.534416 1.029131 -0.913387
v -1.383196 1.006691 -0.772909
vn 0.537729 0.702392 -0.466361
f 1157/1/290 1158/2/290 1159/3/290 1160/4/290
v -1.383196 1.006691 -0.772909
v -1.534416 1.029131 -0.913387
v -1.549408 1.035126 -0.896597
v -1.397904 1.012684 -0.755869
vn 0.253135 0.960068 -0.119128
f 1161/1/291 1162/2/291 1163/3/291 1164/4/291
v -1.397904 1.012684 -0.755869
v -1.549408 1.035126 -0.896597
v -1.565336 1.029131 -0.880693
v -1.413589 1.006691 -0.739724
vn -0.099272 0.960480 0.260043
f 1165/1/292 1166/2/292 1167/3/292 1168/4/292
v -1.413589 1.006691 -0.739724
v -1.565336 1.029131 -0.880693
v -1.577933 1.012755 -0.869935
v -1.426048 0.990320 -0.728799
vn -0.425053 0.703526 0.569544
f 1169/1/293 1170/2/293 1171/3/293 1172/4/293
v -1.426048 0.990320 -0.728799
v -1.577933 1.012755 -0.869935
v -1.583822 0.990383 -0.867207
v -1.431942 0.967956 -0.726022
vn -0.636920 0.258072 0.726452
f 1173/1/294 1174/2/294 1175/3/294 1176/4/294
v -1.431942 0.967956 -0.726022
v -1.583822 0.990383 -0.867207
v -1.581427 0.968012 -0.873239
v -1.429693 0.945592 -0.732137
vn -0.678113 -0.256532 0.688733
f 1177/1/295 1178/2/295 1179/3/295 1180/4/295
v -1.429693 0.945592 -0.732137
v -1.581427 0.968012 -0.873239
v -1.571388 0.951635 -0.886416
v -1.419902 0.929221 -0.745506
vn -0.537591 -0.702413 0.466489
f 1181/1/296 1182/2/296 1183/3/296 1184/4/296
v -1.419902 0.929221 -0.745506
v -1.571388 0.951635 -0.886416
v -1.556395 0.945641 -0.903205
v -1.405194 0.923228 -0.762546
vn -0.252994 -0.960089 0.119258
f 1185/1/297 1186/2/297 1187/3/297 1188/4/297
v -1.405194 0.923228 -0.762546
v -1.556395 0.945641 -0.903205
v -1.540467 0.951635 -0.919110
v -1.389509 0.929221 -0.778691
vn 0.099414 -0.960501 -0.259913
f 1189/1/298 1190/2/298 1191/3/298 1192/4/298
v -1.389509 0.929221 -0.778691
v -1.540467 0.951635 -0.919110
v -1.527870 0.968012 -0.929867
v -1.377050 0.945592 -0.789616
vn 0.425194 -0.703547 -0.569414
f 1193/1/299 1194/2/299 1195/3/299 1196/4/299
v -1.377050 0.945592 -0.789616
v -1.527870 0.968012 -0.929867
v -1.521981 0.990383 -0.932595
v -1.371156 0.967956 -0.792393
vn 0.637059 -0.258093 -0.726322
f 1197/1/300 1198/2/300 1199/3/300 1200/4/300
v -1.521981 0.990383 -0.932595
v -1.670259 1.012372 -1.075270
v -1.672790 1.034746 -1.069304
v -1.524376 1.012755 -0.926563
vn 0.689650 0.256462 -0.677208
f 1201/1/301 1202/2/301 1203/3/301 1204/4/301
v -1.524376 1.012755 -0.926563
v -1.672790 1.034746 -1.069304
v -1.683096 1.051125 -1.056338
v -1.534416 1.029131 -0.913387
vn 0.544684 0.702468 -0.458103
f 1205/1/302 1206/2/302 1207/3/302 1208/4/302
v -1.534416 1.029131 -0.913387
v -1.683096 1.051125 -1.056338
v -1.698415 1.057120 -1.039847
v -1.549408 1.035126 -0.896597
vn 0.253784 0.960254 -0.116217
f 1209/1/303 1210/2/303 1211/3/303 1212/4/303
v -1.549408 1.035126 -0.896597
v -1.698415 1.057120 -1.039847
v -1.714643 1.051125 -1.024249
v -1.565336 1.029131 -0.880693
vn -0.105103 0.960724 0.256834
f 1213/1/304 1214/2/304 1215/3/304 1216/4/304
v -1.565336 1.029131 -0.880693
v -1.714643 1.051125 -1.024249
v -1.727432 1.034746 -1.013723
v -1.577933 1.012755 -0.869935
vn -0.435799 0.703757 0.561075
f 1217/1/305 1218/2/305 1219/3/305 1220/4/305
v -1.577933 1.012755 -0.869935
v -1.727432 1.034746 -1.013723
v -1.733354 1.012372 -1.011091
v -1.583822 0.990383 -0.867207
vn -0.649695 0.258229 0.714992
f 1221/1/306 1222/2/306 1223/3/306 1224/4/306
v -1.583822 0.990383 -0.867207
v -1.733354 1.012372 -1.011091
v -1.730823 0.989998 -1.017057
v -1.581427 0.968012 -0.873239
vn -0.689492 -0.256486 0.677359
f 1225/1/307 1226/2/307 1227/3/307 1228/4/307
v -1.581427 0.968012 -0.873239
v -1.730823 0.989998 -1.017057
v -1.720517 0.973619 -1.030023
v -1.571388 0.951635 -0.886416
vn -0.544524 -0.702492 0.458255
f 1229/1/308 1230/2/308 1231/3/308 1232/4/308
v -1.571388 0.951635 -0.886416
v -1.720517 0.973619 -1.030023
v -1.705197 0.967624 -1.046514
v -1.556395 0.945641 -0.903205
vn -0.253620 -0.960278 0.116372
f 1233/1/309 1234/2/309 1235/3/309 1236/4/309
v -1.556395 0.945641 -0.903205
v -1.705197 0.967624 -1.046514
v -1.688969 0.973619 -1.062113
v -1.540467 0.951635 -0.919110
vn 0.105269 -0.960747 -0.256676
f 1237/1/310 1238/2/310 1239/3/310 1240/4/310
v -1.540467 0.951635 -0.919110
v -1.688969 0.973619 -1.062113
v -1.676181 0.989998 -1.072638
v -1.527870 0.968012 -0.929867
vn 0.435963 -0.703780 -0.560919
f 1241/1/311 1242/2/311 1243/3/311 1244/4/311
v -1.527870 0.968012 -0.929867
v -1.676181 0.989998 -1.072638
v -1.670259 1.012372 -1.075270
v -1.521981 0.990383 -0.932595
vn 0.649855 -0.258253 -0.714839
f 1245/1/312 1246/2/312 1247/3/312 1248/4/312
v -1.670259 1.012372 -1.075270
v -1.815283 1.034299 -1.220934
v -1.817949 1.056672 -1.215022
v -1.672790 1.034746 -1.069304
vn 0.704011 0.256257 -0.662345
f 1249/1/313 1250/2/313 1251/3/313 1252/4/313
v -1.672790 1.034746 -1.069304
v -1.817949 1.056672 -1.215022
v -1.828560 1.073049 -1.202303
v -1.683096 1.051125 -1.056338
vn 0.554364 0.702327 -0.446562
f 1253/1/314 1254/2/314 1255/3/314 1256/4/314
v -1.683096 1.051125 -1.056338
v -1.828560 1.073049 -1.202303
v -1.844273 1.079044 -1.186186
v -1.698415 1.057120 -1.039847
vn 0.256192 0.960222 -0.111082
f 1257/1/315 1258/2/315 1259/3/315 1260/4/315
v -1.698415 1.057120 -1.039847
v -1.844273 1.079044 -1.186186
v -1.860878 1.073049 -1.170989
v -1.714643 1.051125 -1.024249
vn -0.110615 0.960806 0.254199
f 1261/1/316 1262/2/316 1263/3/316 1264/4/316
v -1.714643 1.051125 -1.024249
v -1.860878 1.073049 -1.170989
v -1.873925 1.056672 -1.160784
v -1.727432 1.034746 -1.013723
vn -0.447747 0.703921 0.551378
f 1265/1/317 1266/2/317 1267/3/317 1268/4/317
v -1.727432 1.034746 -1.013723
v -1.873925 1.056672 -1.160784
v -1.879919 1.034299 -1.158307
v -1.733354 1.012372 -1.011091
vn -0.664867 0.258435 0.700830
f 1269/1/318 1270/2/318 1271/3/318 1272/4/318
v -1.733354 1.012372 -1.011091
v -1.879919 1.034299 -1.158307
v -1.877253 1.011927 -1.164219
v -1.730823 0.989998 -1.017057
vn -0.703820 -0.256286 0.662536
f 1273/1/319 1274/2/319 1275/3/319 1276/4/319
v -1.730823 0.989998 -1.017057
v -1.877253 1.011927 -1.164219
v -1.866642 0.995549 -1.176938
v -1.720517 0.973619 -1.030023
vn -0.554170 -0.702357 0.446755
f 1277/1/320 1278/2/320 1279/3/320 1280/4/320
v -1.720517 0.973619 -1.030023
v -1.866642 0.995549 -1.176938
v -1.850929 0.989554 -1.193055
v -1.705197 0.967624 -1.046514
vn -0.255991 -0.960253 0.111279
f 1281/1/321 1282/2/321 1283/3/321 1284/4/321
v -1.705197 0.967624 -1.046514
v -1.850929 0.989554 -1.193055
v -1.834324 0.995549 -1.208252
v -1.688969 0.973619 -1.062113
vn 0.110819 -0.960835 -0.253998
f 1285/1/322 1286/2/322 1287/3/322 1288/4/322
v -1.688969 0.973619 -1.062113
v -1.834324 0.995549 -1.208252
v -1.821277 1.011927 -1.218457
v -1.676181 0.989998 -1.072638
vn 0.447948 -0.703950 -0.551179
f 1289/1/323 1290/2/323 1291/3/323 1292/4/323
v -1.676181 0.989998 -1.072638
v -1.821277 1.011927 -1.218457
v -1.815283 1.034299 -1.220934
v -1.670259 1.012372 -1.075270
vn 0.665061 -0.258463 -0.700636
f 1293/1/324 1294/2/324 1295/3/324 1296/4/324
v -1.815283 1.034299 -1.220934
v -1.956091 1.056543 -1.370256
v -1.958902 1.078910 -1.364389
v -1.817949 1.056672 -1.215022
vn 0.722056 0.255905 -0.642765
f 1297/1/325 1298/2/325 1299/3/325 1300/4/325
v -1.817949 1.056672 -1.215022
v -1.958902 1.078910 -1.364389
v -1.969876 1.095284 -1.351976
v -1.828560 1.073049 -1.202303
vn 0.567190 0.701975 -0.430729
f 1301/1/326 1302/2/326 1303/3/326 1304/4/326
v -1.828560 1.073049 -1.202303
v -1.969876 1.095284 -1.351976
v -1.986072 1.101277 -1.336343
v -1.844273 1.079044 -1.186186
vn 0.260365 0.959977 -0.103223
f 1305/1/327 1306/2/327 1307/3/327 1308/4/327
v -1.844273 1.079044 -1.186186
v -1.986072 1.101277 -1.336343
v -2.003150 1.095284 -1.321680
v -1.860878 1.073049 -1.170989
vn -0.116218 0.960725 0.251994
f 1309/1/328 1310/2/328 1311/3/328 1312/4/328
v -1.860878 1.073049 -1.170989
v -2.003150 1.095284 -1.321680
v -2.016535 1.078910 -1.311915
v -1.873925 1.056672 -1.160784
vn -0.461616 0.704012 0.539702
f 1313/1/329 1314/2/329 1315/3/329 1316/4/329
v -1.873925 1.056672 -1.160784
v -2.016535 1.078910 -1.311915
v -2.022639 1.056543 -1.309665
v -1.879919 1.034299 -1.158307
vn -0.683269 0.258678 0.682810
f 1317/1/330 1318/2/330 1319/3/330 1320/4/330
v -1.879919 1.034299 -1.158307
v -2.022639 1.056543 -1.309665
v -2.019828 1.034177 -1.315532
v -1.877253 1.011927 -1.164219
vn -0.721821 -0.255943 0.643015
f 1321/1/331 1322/2/331 1323/3/331 1324/4/331
v -1.877253 1.011927 -1.164219
v -2.019828 1.034177 -1.315532
v -2.008854 1.017803 -1.327945
v -1.866642 0.995549 -1.176938
vn -0.566949 -0.702014 0.430981
f 1325/1/332 1326/2/332 1327/3/332 1328/4/332
v -1.866642 0.995549 -1.176938
v -2.008854 1.017803 -1.327945
v -1.992658 1.011810 -1.343577
v -1.850929 0.989554 -1.193055
vn -0.260113 -0.960017 0.103483
f 1329/1/333 1330/2/333 1331/3/333 1332/4/333
v -1.850929 0.989554 -1.193055
v -1.992658 1.011810 -1.343577
v -1.975580 1.017803 -1.358240
v -1.834324 0.995549 -1.208252
vn 0.116475 -0.960763 -0.251728
f 1333/1/334 1334/2/334 1335/3/334 1336/4/334
v -1.834324 0.995549 -1.208252
v -1.975580 1.017803 -1.358240
v -1.962195 1.034177 -1.368006
v -1.821277 1.011927 -1.218457
vn 0.461867 -0.704048 -0.539439
f 1337/1/335 1338/2/335 1339/3/335 1340/4/335
v -1.821277 1.011927 -1.218457
v -1.962195 1.034177 -1.368006
v -1.956091 1.056543 -1.370256
v -1.815283 1.034299 -1.220934
vn 0.683509 -0.258715 -0.682555
f 1341/1/336 1342/2/336 1343/3/336 1344/4/336
v -1.956091 1.056543 -1.370256
v -2.091247 1.079482 -1.524003
v -2.094246 1.101839 -1.518188
v -1.958902 1.078910 -1.364389
vn 0.744730 0.255351 -0.616582
f 1345/1/337 1346/2/337 1347/3/337 1348/4/337
v -1.958902 1.078910 -1.364389
v -2.094246 1.101839 -1.518188
v -2.105696 1.118204 -1.506202
v -1.969876 1.095284 -1.351976
vn 0.583713 0.701362 -0.409109
f 1349/1/338 1350/2/338 1351/3/338 1352/4/338
v -1.969876 1.095284 -1.351976
v -2.105696 1.118204 -1.506202
v -2.122529 1.124195 -1.491257
v -1.986072 1.101277 -1.336343
vn 0.266316 0.959492 -0.091934
f 1353/1/339 1354/2/339 1355/3/339 1356/4/339
v -1.986072 1.101277 -1.336343
v -2.122529 1.124195 -1.491257
v -2.140235 1.118204 -1.477356
v -2.003150 1.095284 -1.321680
vn -0.122447 0.960484 0.249953
f 1357/1/340 1358/2/340 1359/3/340 1360/4/340
v -2.003150 1.095284 -1.321680
v -2.140235 1.118204 -1.477356
v -2.154069 1.101839 -1.468226
v -2.016535 1.078910 -1.311915
vn -0.478342 0.704055 0.524876
f 1361/1/341 1362/2/341 1363/3/341 1364/4/341
v -2.016535 1.078910 -1.311915
v -2.154069 1.101839 -1.468226
v -2.160325 1.079482 -1.466311
v -2.022639 1.056543 -1.309665
vn -0.705983 0.259003 0.659170
f 1365/1/342 1366/2/342 1367/3/342 1368/4/342
v -2.022639 1.056543 -1.309665
v -2.160325 1.079482 -1.466311
v -2.157326 1.057126 -1.472126
v -2.019828 1.034177 -1.315532
vn -0.744431 -0.255402 0.616921
f 1369/1/343 1370/2/343 1371/3/343 1372/4/343
v -2.019828 1.034177 -1.315532
v -2.157326 1.057126 -1.472126
v -2.145877 1.040761 -1.484112
v -2.008854 1.017803 -1.327945
vn -0.583400 -0.701418 0.409460
f 1373/1/344 1374/2/344 1375/3/344 1376/4/344
v -2.008854 1.017803 -1.327945
v -2.145877 1.040761 -1.484112
v -2.129044 1.034770 -1.499057
v -1.992658 1.011810 -1.343577
vn -0.265975 -0.959550 0.092309
f 1377/1/345 1378/2/345 1379/3/345 1380/4/345
v -1.992658 1.011810 -1.343577
v -2.129044 1.034770 -1.499057
v -2.111338 1.040761 -1.512958
v -1.975580 1.017803 -1.358240
vn 0.122800 -0.960540 -0.249565
f 1381/1/346 1382/2/346 1383/3/346 1384/4/346
v -1.975580 1.017803 -1.358240
v -2.111338 1.040761 -1.512958
v -2.097504 1.057126 -1.522088
v -1.962195 1.034177 -1.368006
vn 0.478680 -0.704107 -0.524499
f 1385/1/347 1386/2/347 1387/3/347 1388/4/347
v -1.962195 1.034177 -1.368006
v -2.097504 1.057126 -1.522088
v -2.091247 1.079482 -1.524003
v -1.956091 1.056543 -1.370256
vn 0.706294 -0.259053 -0.658818
f 1389/1/348 1390/2/348 1391/3/348 1392/4/348
v -2.091247 1.079482 -1.524003
v -2.217903 1.103495 -1.683671
v -2.221178 1.125835 -1.677945
v -2.094246 1.101839 -1.518188
vn 0.775956 0.254229 -0.577287
f 1393/1/349 1394/2/349 1395/3/349 1396/4/349
v -2.094246 1.101839 -1.518188
v -2.221178 1.125835 -1.677945
v -2.233295 1.142189 -1.666617
v -2.105696 1.118204 -1.506202
vn 0.606487 0.700193 -0.376700
f 1397/1/350 1398/2/350 1399/3/350 1400/4/350
v -2.105696 1.118204 -1.506202
v -2.233295 1.142189 -1.666617
v -2.251006 1.148175 -1.652722
v -2.122529 1.124195 -1.491257
vn 0.274529 0.958647 -0.075035
f 1401/1/351 1402/2/351 1403/3/351 1404/4/351
v -2.122529 1.124195 -1.491257
v -2.251006 1.148175 -1.652722
v -2.269567 1.142189 -1.639984
v -2.140235 1.118204 -1.477356
vn -0.131036 0.960150 0.246864
f 1405/1/352 1406/2/352 1407/3/352 1408/4/352
v -2.140235 1.118204 -1.477356
v -2.269567 1.142189 -1.639984
v -2.284003 1.125835 -1.631815
v -2.154069 1.101839 -1.468226
vn -0.501400 0.704257 0.502612
f 1409/1/353 1410/2/353 1411/3/353 1412/4/353
v -2.154069 1.101839 -1.468226
v -2.284003 1.125835 -1.631815
v -2.290447 1.103495 -1.630405
v -2.160325 1.079482 -1.466311
vn -0.737265 0.259722 0.623686
f 1413/1/354 1414/2/354 1415/3/354 1416/4/354
v -2.160325 1.079482 -1.466311
v -2.290447 1.103495 -1.630405
v -2.287172 1.081154 -1.636131
v -2.157326 1.057126 -1.472126
vn -0.775559 -0.254306 0.577787
f 1417/1/355 1418/2/355 1419/3/355 1420/4/355
v -2.157326 1.057126 -1.472126
v -2.287172 1.081154 -1.636131
v -2.275055 1.064800 -1.647459
v -2.145877 1.040761 -1.484112
vn -0.606057 -0.700280 0.377230
f 1421/1/356 1422/2/356 1423/3/356 1424/4/356
v -2.145877 1.040761 -1.484112
v -2.275055 1.064800 -1.647459
v -2.257344 1.058814 -1.661353
v -2.129044 1.034770 -1.499057
vn -0.274042 -0.958740 0.075622
f 1425/1/357 1426/2/357 1427/3/357 1428/4/357
v -2.129044 1.034770 -1.499057
v -2.257344 1.058814 -1.661353
v -2.238783 1.064800 -1.674092
v -2.111338 1.040761 -1.512958
vn 0.131547 -0.960238 -0.246250
f 1429/1/358 1430/2/358 1431/3/358 1432/4/358
v -2.111338 1.040761 -1.512958
v -2.238783 1.064800 -1.674092
v -2.224346 1.081154 -1.682260
v -2.097504 1.057126 -1.522088
vn 0.501877 -0.704335 -0.502028
f 1433/1/359 1434/2/359 1435/3/359 1436/4/359
v -2.097504 1.057126 -1.522088
v -2.224346 1.081154 -1.682260
v -2.217903 1.103495 -1.683671
v -2.091247 1.079482 -1.524003
vn 0.737686 -0.259794 -0.623159
f 1437/1/360 1438/2/360 1439/3/360 1440/4/360
v -2.217903 1.103495 -1.683671
v -2.331332 1.128958 -1.850735
v -2.335086 1.151276 -1.845220
v -2.221178 1.125835 -1.677945
vn 0.817985 0.252408 -0.516905
f 1441/1/361 1442/2/361 1443/3/361 1444/4/361
v -2.221178 1.125835 -1.677945
v -2.335086 1.151276 -1.845220
v -2.348235 1.167613 -1.835082
v -2.233295 1.142189 -1.666617
vn 0.636574 0.698330 -0.327276
f 1445/1/362 1446/2/362 1447/3/362 1448/4/362
v -2.233295 1.142189 -1.666617
v -2.348235 1.167613 -1.835082
v -2.367256 1.173593 -1.823038
v -2.251006 1.148175 -1.652722
vn 0.284585 0.957363 -0.049684
f 1449/1/363 1450/2/363 1451/3/363 1452/4/363
v -2.251006 1.148175 -1.652722
v -2.367256 1.173593 -1.823038
v -2.387051 1.167613 -1.812315
v -2.269567 1.142189 -1.639984
vn -0.143837 0.959705 0.241406
f 1453/1/364 1454/2/364 1455/3/364 1456/4/364
v -2.269567 1.142189 -1.639984
v -2.387051 1.167613 -1.812315
v -2.402317 1.151276 -1.805786
v -2.284003 1.125835 -1.631815
vn -0.533587 0.704641 0.467723
f 1457/1/365 1458/2/365 1459/3/365 1460/4/365
v -2.284003 1.125835 -1.631815
v -2.402317 1.151276 -1.805786
v -2.408963 1.128958 -1.805200
v -2.290447 1.103495 -1.630405
vn -0.780086 0.260913 0.568674
f 1461/1/366 1462/2/366 1463/3/366 1464/4/366
v -2.290447 1.103495 -1.630405
v -2.408963 1.128958 -1.805200
v -2.405208 1.106640 -1.810716
v -2.287172 1.081154 -1.636131
vn -0.817554 -0.252507 0.517538
f 1465/1/367 1466/2/367 1467/3/367 1468/4/367
v -2.287172 1.081154 -1.636131
v -2.405208 1.106640 -1.810716
v -2.392059 1.090302 -1.820853
v -2.275055 1.064800 -1.647459
vn -0.636026 -0.698463 0.328055
f 1469/1/368 1470/2/368 1471/3/368 1472/4/368
v -2.275055 1.064800 -1.647459
v -2.392059 1.090302 -1.820853
v -2.373039 1.084322 -1.832897
v -2.257344 1.058814 -1.661353
vn -0.283841 -0.957530 0.050703
f 1473/1/369 1474/2/369 1475/3/369 1476/4/369
v -2.257344 1.058814 -1.661353
v -2.373039 1.084322 -1.832897
v -2.353244 1.090302 -1.843621
v -2.238783 1.064800 -1.674092
vn 0.144655 -0.959863 -0.240288
f 1477/1/370 1478/2/370 1479/3/370 1480/4/370
v -2.238783 1.064800 -1.674092
v -2.353244 1.090302 -1.843621
v -2.337978 1.106640 -1.850149
v -2.224346 1.081154 -1.682260
vn 0.534280 -0.704765 -0.466746
f 1481/1/371 1482/2/371 1483/3/371 1484/4/371
v -2.224346 1.081154 -1.682260
v -2.337978 1.106640 -1.850149
v -2.331332 1.128958 -1.850735
v -2.217903 1.103495 -1.683671
vn 0.780587 -0.261012 -0.567941
f 1485/1/372 1486/2/372 1487/3/372 1488/4/372
v -2.331332 1.128958 -1.850735
v -2.422396 1.156250 -2.032590
v -2.426463 1.178556 -2.027250
v -2.335086 1.151276 -1.845220
vn 0.880627 0.247926 -0.403768
f 1489/1/373 1490/2/373 1491/3/373 1492/4/373
v -2.335086 1.151276 -1.845220
v -2.426463 1.178556 -2.027250
v -2.440219 1.194885 -2.017937
v -2.348235 1.167613 -1.835082
vn 0.679646 0.694150 -0.237143
f 1493/1/374 1494/2/374 1495/3/374 1496/4/374
v -2.348235 1.167613 -1.835082
v -2.440219 1.194885 -2.017937
v -2.459979 1.200861 -2.007147
v -2.367256 1.173593 -1.823038
vn 0.296154 0.955118 -0.006531
f 1497/1/375 1498/2/375 1499/3/375 1500/4/375
v -2.367256 1.173593 -1.823038
v -2.459979 1.200861 -2.007147
v -2.480447 1.194885 -1.997769
v -2.387051 1.167613 -1.812315
vn -0.167263 0.959575 0.226360
f 1501/1/376 1502/2/376 1503/3/376 1504/4/376
v -2.387051 1.167613 -1.812315
v -2.480447 1.194885 -1.997769
v -2.496139 1.178556 -1.992318
v -2.402317 1.151276 -1.805786
vn -0.585250 0.706132 0.398572
f 1505/1/377 1506/2/377 1507/3/377 1508/4/377
v -2.402317 1.151276 -1.805786
v -2.496139 1.178556 -1.992318
v -2.502851 1.156250 -1.992254
v -2.408963 1.128958 -1.805200
vn -0.845619 0.263988 0.463938
f 1509/1/378 1510/2/378 1511/3/378 1512/4/378
v -2.408963 1.128958 -1.805200
v -2.502851 1.156250 -1.992254
v -2.498784 1.133944 -1.997593
v -2.405208 1.106640 -1.810716
vn -0.879807 -0.248189 0.405390
f 1513/1/379 1514/2/379 1515/3/379 1516/4/379
v -2.405208 1.106640 -1.810716
v -2.498784 1.133944 -1.997593
v -2.485027 1.117615 -2.006906
v -2.392059 1.090302 -1.820853
vn -0.678915 -0.694402 0.238496
f 1517/1/380 1518/2/380 1519/3/380 1520/4/380
v -2.392059 1.090302 -1.820853
v -2.485027 1.117615 -2.006906
v -2.465268 1.111639 -2.017697
v -2.373039 1.084322 -1.832897
vn -0.295608 -0.955280 0.007473
f 1521/1/381 1522/2/381 1523/3/381 1524/4/381
v -2.373039 1.084322 -1.832897
v -2.465268 1.111639 -2.017697
v -2.444800 1.117615 -2.027074
v -2.353244 1.090302 -1.843621
vn 0.167726 -0.959682 -0.225565
f 1525/1/382 1526/2/382 1527/3/382 1528/4/382
v -2.353244 1.090302 -1.843621
v -2.444800 1.117615 -2.027074
v -2.429108 1.133944 -2.032525
v -2.337978 1.106640 -1.850149
vn 0.585826 -0.706249 -0.397517
f 1529/1/383 1530/2/383 1531/3/383 1532/4/383
v -2.337978 1.106640 -1.850149
v -2.429108 1.133944 -2.032525
v -2.422396 1.156250 -2.032590
v -2.331332 1.128958 -1.850735
vn 0.846368 -0.264172 -0.462465
f 1533/1/384 1534/2/384 1535/3/384 1536/4/384
v -2.422396 1.156250 -2.032590
v -2.459979 1.200861 -2.007147
v -2.440219 1.194885 -2.017937
v -2.426463 1.178556 -2.027250
vn -0.444309 0.131128 -0.886225
f 1537/1/385 1538/2/385 1539/3/385 1540/4/385
v -2.422396 1.156250 -2.032590
v -2.496139 1.178556 -1.992318
v -2.480447 1.194885 -1.997769
v -2.459979 1.200861 -2.007147
vn -0.444309 0.131128 -0.886225
f 1541/1/386 1542/2/386 1543/3/386 1544/4/386
v -2.422396 1.156250 -2.032590
v -2.498784 1.133944 -1.997593
v -2.502851 1.156250 -1.992254
v -2.496139 1.178556 -1.992318
vn -0.444309 0.131128 -0.886225
f 1545/1/387 1546/2/387 1547/3/387 1548/4/387
v -2.422396 1.156250 -2.032590
v -2.465268 1.111639 -2.017697
v -2.485027 1.117615 -2.006906
v -2.498784 1.133944 -1.997593
vn -0.444309 0.131128 -0.886225
f 1549/1/388 1550/2/388 1551/3/388 1552/4/388
v -2.422396 1.156250 -2.032590
v -2.429108 1.133944 -2.032525
v -2.444800 1.117615 -2.027074
v -2.465268 1.111639 -2.017697
vn -0.444309 0.131128 -0.886225
f 1553/1/389 1554/2/389 1555/3/389 1556/4/389
v -2.426915 1.154882 -2.014230
v -2.447120 1.156250 -2.072330
v -2.451445 1.173249 -2.070889
v -2.431098 1.171878 -2.012390
vn 0.914221 0.258771 -0.311829
f 1557/1/390 1558/2/390 1559/3/390 1560/4/390
v -2.431098 1.171878 -2.012390
v -2.451445 1.173249 -2.070889
v -2.463363 1.185693 -2.067305
v -2.442768 1.184320 -2.008057
vn 0.672994 0.706946 -0.217500
f 1561/1/391 1562/2/391 1563/3/391 1564/4/391
v -2.442768 1.184320 -2.008057
v -2.463363 1.185693 -2.067305
v -2.479682 1.190248 -2.062538
v -2.458797 1.188874 -2.002392
vn 0.251401 0.965698 -0.065002
f 1565/1/392 1566/2/392 1567/3/392 1568/4/392
v -2.458797 1.188874 -2.002392
v -2.479682 1.190248 -2.062538
v -2.496027 1.185693 -2.057867
v -2.474890 1.184320 -1.996914
vn -0.237666 0.965699 0.104594
f 1569/1/393 1570/2/393 1571/3/393 1572/4/393
v -2.474890 1.184320 -1.996914
v -2.496027 1.185693 -2.057867
v -2.508020 1.173249 -2.054541
v -2.486736 1.171878 -1.993089
vn -0.663143 0.706948 0.245896
f 1573/1/394 1574/2/394 1575/3/394 1576/4/394
v -2.486736 1.171878 -1.993089
v -2.508020 1.173249 -2.054541
v -2.512447 1.156250 -2.053454
v -2.491160 1.154882 -1.991944
vn -0.910939 0.258771 0.321290
f 1577/1/395 1578/2/395 1579/3/395 1580/4/395
v -2.491160 1.154882 -1.991944
v -2.512447 1.156250 -2.053454
v -2.508122 1.139251 -2.054895
v -2.486976 1.137885 -1.993784
vn -0.914588 -0.258747 0.310771
f 1581/1/396 1582/2/396 1583/3/396 1584/4/396
v -2.486976 1.137885 -1.993784
v -2.508122 1.139251 -2.054895
v -2.496204 1.126807 -2.058479
v -2.475307 1.125444 -1.998116
vn -0.673126 -0.706937 0.217121
f 1585/1/397 1586/2/397 1587/3/397 1588/4/397
v -2.475307 1.125444 -1.998116
v -2.496204 1.126807 -2.058479
v -2.479886 1.122252 -2.063245
v -2.459278 1.120889 -2.003781
vn -0.251333 -0.965702 0.065198
f 1589/1/398 1590/2/398 1591/3/398 1592/4/398
v -2.459278 1.120889 -2.003781
v -2.479886 1.122252 -2.063245
v -2.463540 1.126807 -2.067917
v -2.443185 1.125444 -2.009260
vn 0.237698 -0.965701 -0.104502
f 1593/1/399 1594/2/399 1595/3/399 1596/4/399
v -2.443185 1.125444 -2.009260
v -2.463540 1.126807 -2.067917
v -2.451547 1.139251 -2.071243
v -2.431339 1.137885 -2.013084
vn 0.662940 -0.706935 -0.246483
f 1597/1/400 1598/2/400 1599/3/400 1600/4/400
v -2.431339 1.137885 -2.013084
v -2.451547 1.139251 -2.071243
v -2.447120 1.156250 -2.072330
v -2.426915 1.154882 -2.014230
vn 0.910536 -0.258745 -0.322452
f 1601/1/401 1602/2/401 1603/3/401 1604/4/401
v -2.447120 1.156250 -2.072330
v -2.460565 1.156250 -2.129955
v -2.465061 1.173250 -2.129225
v -2.451445 1.173249 -2.070889
vn 0.940875 0.257998 -0.219525
f 1605/1/402 1606/2/402 1607/3/402 1608/4/402
v -2.451445 1.173249 -2.070889
v -2.465061 1.173250 -2.129225
v -2.477346 1.185695 -2.127232
v -2.463363 1.185693 -2.067305
vn 0.689240 0.706450 -0.160864
f 1609/1/403 1610/2/403 1611/3/403 1612/4/403
v -2.463363 1.185693 -2.067305
v -2.477346 1.185695 -2.127232
v -2.494126 1.190250 -2.124510
v -2.479682 1.190248 -2.062538
vn 0.252398 0.965832 -0.058861
f 1613/1/404 1614/2/404 1615/3/404 1616/4/404
v -2.479682 1.190248 -2.062538
v -2.494126 1.190250 -2.124510
v -2.510907 1.185695 -2.121788
v -2.496027 1.185693 -2.057867
vn -0.252327 0.965851 0.058845
f 1617/1/405 1618/2/405 1619/3/405 1620/4/405
v -2.496027 1.185693 -2.057867
v -2.510907 1.185695 -2.121788
v -2.523191 1.173250 -2.119795
v -2.508020 1.173249 -2.054541
vn -0.688949 0.706840 0.160394
f 1621/1/406 1622/2/406 1623/3/406 1624/4/406
v -2.508020 1.173249 -2.054541
v -2.523191 1.173250 -2.119795
v -2.527687 1.156250 -2.119065
v -2.512447 1.156250 -2.053454
vn -0.940782 0.259011 0.218727
f 1625/1/407 1626/2/407 1627/3/407 1628/4/407
v -2.512447 1.156250 -2.053454
v -2.527687 1.156250 -2.119065
v -2.523191 1.139250 -2.119795
v -2.508122 1.139251 -2.054895
vn -0.941098 -0.257976 0.218594
f 1629/1/408 1630/2/408 1631/3/408 1632/4/408
v -2.508122 1.139251 -2.054895
v -2.523191 1.139250 -2.119795
v -2.510907 1.126805 -2.121788
v -2.496204 1.126807 -2.058479
vn -0.689446 -0.706424 0.160089
f 1633/1/409 1634/2/409 1635/3/409 1636/4/409
v -2.496204 1.126807 -2.058479
v -2.510907 1.126805 -2.121788
v -2.494126 1.122250 -2.124510
v -2.479886 1.122252 -2.063245
vn -0.252457 -0.965829 0.058657
f 1637/1/410 1638/2/410 1639/3/410 1640/4/410
v -2.479886 1.122252 -2.063245
v -2.494126 1.122250 -2.124510
v -2.477346 1.126805 -2.127232
v -2.463540 1.126807 -2.067917
vn 0.252386 -0.965848 -0.058633
f 1641/1/411 1642/2/411 1643/3/411 1644/4/411
v -2.463540 1.126807 -2.067917
v -2.477346 1.126805 -2.127232
v -2.465061 1.139250 -2.129225
v -2.451547 1.139251 -2.071243
vn 0.688965 -0.706839 -0.160332
f 1645/1/412 1646/2/412 1647/3/412 1648/4/412
v -2.451547 1.139251 -2.071243
v -2.465061 1.139250 -2.129225
v -2.460565 1.156250 -2.129955
v -2.447120 1.156250 -2.072330
vn 0.940663 -0.259013 -0.219238
f 1649/1/413 1650/2/413 1651/3/413 1652/4/413
v -2.460565 1.156250 -2.129955
v -2.466147 1.156250 -2.190657
v -2.470682 1.173250 -2.190234
v -2.465061 1.173250 -2.129225
vn 0.962021 0.258242 -0.088464
f 1653/1/414 1654/2/414 1655/3/414 1656/4/414
v -2.465061 1.173250 -2.129225
v -2.470682 1.173250 -2.190234
v -2.483073 1.185695 -2.189078
v -2.477346 1.185695 -2.127232
vn 0.704962 0.706265 -0.064952
f 1657/1/415 1658/2/415 1659/3/415 1660/4/415
v -2.477346 1.185695 -2.127232
v -2.483073 1.185695 -2.189078
v -2.500000 1.190250 -2.187500
v -2.494126 1.190250 -2.124510
vn 0.258281 0.965774 -0.023921
f 1661/1/416 1662/2/416 1663/3/416 1664/4/416
v -2.494126 1.190250 -2.124510
v -2.500000 1.190250 -2.187500
v -2.516927 1.185695 -2.185922
v -2.510907 1.185695 -2.121788
vn -0.258255 0.965776 0.024082
f 1665/1/417 1666/2/417 1667/3/417 1668/4/417
v -2.510907 1.185695 -2.121788
v -2.516927 1.185695 -2.185922
v -2.529318 1.173250 -2.184766
v -2.523191 1.173250 -2.119795
vn -0.704808 0.706306 0.066156
f 1669/1/418 1670/2/418 1671/3/418 1672/4/418
v -2.523191 1.173250 -2.119795
v -2.529318 1.173250 -2.184766
v -2.533853 1.156250 -2.184343
v -2.527687 1.156250 -2.119065
vn -0.961803 0.258280 0.090696
f 1673/1/419 1674/2/419 1675/3/419 1676/4/419
v -2.527687 1.156250 -2.119065
v -2.533853 1.156250 -2.184343
v -2.529318 1.139250 -2.184766
v -2.523191 1.139250 -2.119795
vn -0.961789 -0.258283 0.090845
f 1677/1/420 1678/2/420 1679/3/420 1680/4/420
v -2.523191 1.139250 -2.119795
v -2.529318 1.139250 -2.184766
v -2.516927 1.126805 -2.185922
v -2.510907 1.126805 -2.121788
vn -0.704770 -0.706317 0.066458
f 1681/1/421 1682/2/421 1683/3/421 1684/4/421
v -2.510907 1.126805 -2.121788
v -2.516927 1.126805 -2.185922
v -2.500000 1.122250 -2.187500
v -2.494126 1.122250 -2.124510
vn -0.258231 -0.965779 0.024238
f 1685/1/422 1686/2/422 1687/3/422 1688/4/422
v -2.494126 1.122250 -2.124510
v -2.500000 1.122250 -2.187500
v -2.483073 1.126805 -2.189078
v -2.477346 1.126805 -2.127232
vn 0.258255 -0.965776 -0.024082
f 1689/1/423 1690/2/423 1691/3/423 1692/4/423
v -2.477346 1.126805 -2.127232
v -2.483073 1.126805 -2.189078
v -2.470682 1.139250 -2.190234
v -2.465061 1.139250 -2.129225
vn 0.704919 -0.706277 -0.065286
f 1693/1/424 1694/2/424 1695/3/424 1696/4/424
v -2.465061 1.139250 -2.129225
v -2.470682 1.139250 -2.190234
v -2.466147 1.156250 -2.190657
v -2.460565 1.156250 -2.129955
vn 0.962005 -0.258245 -0.088634
f 1697/1/425 1698/2/425 1699/3/425 1700/4/425
v -2.466147 1.156250 -2.190657
v -2.500000 1.190250 -2.187500
v -2.483073 1.185695 -2.189078
v -2.470682 1.173250 -2.190234
vn -0.092848 -0.000000 -0.995680
f 1701/1/426 1702/2/426 1703/3/426 1704/4/426
v -2.466147 1.156250 -2.190657
v -2.529318 1.173250 -2.184766
v -2.516927 1.185695 -2.185922
v -2.500000 1.190250 -2.187500
vn -0.092848 -0.000000 -0.995680
f 1705/1/427 1706/2/427 1707/3/427 1708/4/427
v -2.466147 1.156250 -2.190657
v -2.529318 1.139250 -2.184766
v -2.533853 1.156250 -2.184343
v -2.529318 1.173250 -2.184766
vn -0.092848 0.000000 -0.995680
f 1709/1/428 1710/2/428 1711/3/428 1712/4/428
v -2.466147 1.156250 -2.190657
v -2.500000 1.122250 -2.187500
v -2.516927 1.126805 -2.185922
v -2.529318 1.139250 -2.184766
vn -0.092848 0.000000 -0.995680
f 1713/1/429 1714/2/429 1715/3/429 1716/4/429
v -2.466147 1.156250 -2.190657
v -2.470682 1.139250 -2.190234
v -2.483073 1.126805 -2.189078
v -2.500000 1.122250 -2.187500
vn -0.092848 0.000000 -0.995680
f 1717/1/430 1718/2/430 1719/3/430 1720/4/430
usemtl clamp
v -2.431059 1.150193 -1.970199
v -2.431059 1.275193 -1.970199
v -2.399809 1.275193 -1.938949
v -2.399809 1.150193 -1.938949
vn 0.707107 0.000000 -0.707107
f 1721/1/431 1722/2/431 1723/3/431 1724/4/431
v -2.399809 1.150193 -1.938949
v -2.399809 1.275193 -1.938949
v -2.431059 1.275193 -1.907699
v -2.431059 1.150193 -1.907699
vn 0.707107 -0.000000 0.707107
f 1725/1/432 1726/2/432 1727/3/432 1728/4/432
v -2.431059 1.150193 -1.907699
v -2.431059 1.275193 -1.907699
v -2.462309 1.275193 -1.938949
v -2.462309 1.150193 -1.938949
vn -0.707107 0.000000 0.707107
f 1729/1/433 1730/2/433 1731/3/433 1732/4/433
v -2.462309 1.150193 -1.938949
v -2.462309 1.275193 -1.938949
v -2.431059 1.275193 -1.970199
v -2.431059 1.150193 -1.970199
vn -0.707107 0.000000 -0.707107
f 1733/1/434 1734/2/434 1735/3/434 1736/4/434
v -2.431059 1.275193 -1.970199
v -2.462309 1.275193 -1.938949
v -2.431059 1.275193 -1.907699
v -2.399809 1.275193 -1.938949
vn 0.000000 1.000000 -0.000000
f 1737/1/435 1738/2/435 1739/3/435 1740/4/435
usemtl porcelain
v -2.524809 1.275193 -1.845199
v -2.337309 1.275193 -1.845199
v -2.337309 1.462693 -1.845199
v -2.524809 1.462693 -1.845199
vn 0.000000 0.000000 1.000000
f 1741/1/436 1742/2/436 1743/3/436 1744/4/436
v -2.337309 1.275193 -2.032699
v -2.524809 1.275193 -2.032699
v -2.524809 1.462693 -2.032699
v -2.337309 1.462693 -2.032699
vn 0.000000 0.000000 -1.000000
f 1745/1/437 1746/2/437 1747/3/437 1748/4/437
v -2.337309 1.275193 -1.845199
v -2.337309 1.275193 -2.032699
v -2.337309 1.462693 -2.032699
v -2.337309 1.462693 -1.845199
vn 1.000000 -0.000000 0.000000
f 1749/1/438 1750/2/438 1751/3/438 1752/4/438
v -2.524809 1.275193 -2.032699
v -2.524809 1.275193 -1.845199
v -2.524809 1.462693 -1.845199
v -2.524809 1.462693 -2.032699
vn -1.000000 0.000000 0.000000
f 1753/1/439 1754/2/439 1755/3/439 1756/4/439
v -2.524809 1.462693 -1.845199
v -2.337309 1.462693 -1.845199
v -2.337309 1.462693 -2.032699
v -2.524809 1.462693 -2.032699
vn -0.000000 1.000000 0.000000
f 1757/1/440 1758/2/440 1759/3/440 1760/4/440
v -2.524809 1.275193 -2.032699
v -2.337309 1.275193 -2.032699
v -2.337309 1.275193 -1.845199
v -2.524809 1.275193 -1.845199
vn 0.000000 -1.000000 0.000000
f 1761/1/441 1762/2/441 1763/3/441 1764/4/441
usemtl cable
v -2.346813 1.273407 -1.963173
v -2.355147 1.101216 -1.981363
v -2.340443 1.101434 -1.989892
v -2.332107 1.273596 -1.971701
vn 0.499422 -0.114883 0.858708
f 1765/1/442 1766/2/442 1767/3/442 1768/4/442
v -2.332107 1.273596 -1.971701
v -2.340443 1.101434 -1.989892
v -2.340443 1.103334 -2.006785
v -2.332107 1.275382 -1.988607
vn 0.998843 -0.047828 -0.005052
f 1769/1/443 1770/2/443 1771/3/443 1772/4/443
v -2.332107 1.275382 -1.988607
v -2.340443 1.103334 -2.006785
v -2.355147 1.105015 -2.015150
v -2.346813 1.276979 -1.996985
vn 0.499422 0.067069 -0.863759
f 1773/1/444 1774/2/444 1775/3/444 1776/4/444
v -2.346813 1.276979 -1.996985
v -2.355147 1.105015 -2.015150
v -2.369851 1.104796 -2.006621
v -2.361518 1.276791 -1.988458
vn -0.499420 0.114911 -0.858705
f 1777/1/445 1778/2/445 1779/3/445 1780/4/445
v -2.361518 1.276791 -1.988458
v -2.369851 1.104796 -2.006621
v -2.369851 1.102897 -1.989727
v -2.361518 1.275005 -1.971552
vn -0.998841 0.047860 0.005056
f 1781/1/446 1782/2/446 1783/3/446 1784/4/446
v -2.361518 1.275005 -1.971552
v -2.369851 1.102897 -1.989727
v -2.355147 1.101216 -1.981363
v -2.346813 1.273407 -1.963173
vn -0.499420 -0.067038 0.863762
f 1785/1/447 1786/2/447 1787/3/447 1788/4/447
v -2.355147 1.101216 -1.981363
v -2.355246 0.796018 -2.040738
v -2.364789 0.810024 -2.042069
v -2.340443 1.101434 -1.989892
vn 0.496637 -0.165905 0.851955
f 1789/1/448 1790/2/448 1791/3/448 1792/4/448
v -2.340443 1.101434 -1.989892
v -2.364789 0.810024 -2.042069
v -2.380748 0.810024 -2.036214
v -2.340443 1.103334 -2.006785
vn 0.996621 -0.081618 -0.009177
f 1793/1/449 1794/2/449 1795/3/449 1796/4/449
v -2.340443 1.103334 -2.006785
v -2.380748 0.810024 -2.036214
v -2.387165 0.796018 -2.029027
v -2.355147 1.105015 -2.015150
vn 0.496002 0.018942 -0.868115
f 1797/1/450 1798/2/450 1799/3/450 1800/4/450
v -2.355147 1.105015 -2.015150
v -2.387165 0.796018 -2.029027
v -2.377623 0.782012 -2.027695
v -2.369851 1.104796 -2.006621
vn -0.500693 0.090543 -0.860877
f 1801/1/451 1802/2/451 1803/3/451 1804/4/451
v -2.369851 1.104796 -2.006621
v -2.377623 0.782012 -2.027695
v -2.361663 0.782012 -2.033551
v -2.369851 1.102897 -1.989727
vn -0.999711 0.023895 0.002687
f 1805/1/452 1806/2/452 1807/3/452 1808/4/452
v -2.369851 1.102897 -1.989727
v -2.361663 0.782012 -2.033551
v -2.355246 0.796018 -2.040738
v -2.355147 1.101216 -1.981363
vn -0.501439 -0.129621 0.855428
f 1809/1/453 1810/2/453 1811/3/453 1812/4/453
v -2.355246 0.796018 -2.040738
v -2.378253 0.870250 -2.105705
v -2.382917 0.878543 -2.091617
v -2.364789 0.810024 -2.042069
vn 0.754945 0.548533 0.359402
f 1813/1/454 1814/2/454 1815/3/454 1816/4/454
v -2.364789 0.810024 -2.042069
v -2.382917 0.878543 -2.091617
v -2.399207 0.878543 -2.086753
v -2.380748 0.810024 -2.036214
vn 0.272911 0.610098 0.743841
f 1817/1/455 1818/2/455 1819/3/455 1820/4/455
v -2.380748 0.810024 -2.036214
v -2.399207 0.878543 -2.086753
v -2.410832 0.870250 -2.095977
v -2.387165 0.796018 -2.029027
vn -0.249932 0.530248 0.810167
f 1821/1/456 1822/2/456 1823/3/456 1824/4/456
v -2.387165 0.796018 -2.029027
v -2.410832 0.870250 -2.095977
v -2.406168 0.861957 -2.110065
v -2.377623 0.782012 -2.027695
vn -0.761143 -0.551100 -0.341981
f 1825/1/457 1826/2/457 1827/3/457 1828/4/457
v -2.377623 0.782012 -2.027695
v -2.406168 0.861957 -2.110065
v -2.389878 0.861957 -2.114929
v -2.361663 0.782012 -2.033551
vn -0.232822 -0.736958 -0.634576
f 1829/1/458 1830/2/458 1831/3/458 1832/4/458
v -2.361663 0.782012 -2.033551
v -2.389878 0.861957 -2.114929
v -2.378253 0.870250 -2.105705
v -2.355246 0.796018 -2.040738
vn 0.437384 -0.561039 -0.702802
f 1833/1/459 1834/2/459 1835/3/459 1836/4/459
v -2.378253 0.870250 -2.105705
v -2.405764 1.059750 -2.203961
v -2.398134 1.067172 -2.190706
v -2.382917 0.878543 -2.091617
vn 0.955928 0.232046 0.179880
f 1837/1/460 1838/2/460 1839/3/460 1840/4/460
v -2.382917 0.878543 -2.091617
v -2.398134 1.067172 -2.190706
v -2.405669 1.067172 -2.175467
v -2.399207 0.878543 -2.086753
vn 0.253186 0.465825 0.847882
f 1841/1/461 1842/2/461 1843/3/461 1844/4/461
v -2.399207 0.878543 -2.086753
v -2.405669 1.067172 -2.175467
v -2.420834 1.059750 -2.173483
v -2.410832 0.870250 -2.095977
vn -0.711117 0.279123 0.645293
f 1845/1/462 1846/2/462 1847/3/462 1848/4/462
v -2.410832 0.870250 -2.095977
v -2.420834 1.059750 -2.173483
v -2.428464 1.052328 -2.186738
v -2.406168 0.861957 -2.110065
vn -0.961599 -0.145849 -0.232499
f 1849/1/463 1850/2/463 1851/3/463 1852/4/463
v -2.406168 0.861957 -2.110065
v -2.428464 1.052328 -2.186738
v -2.420929 1.052328 -2.201977
v -2.389878 0.861957 -2.114929
vn -0.263856 -0.386785 -0.883616
f 1853/1/464 1854/2/464 1855/3/464 1856/4/464
v -2.389878 0.861957 -2.114929
v -2.420929 1.052328 -2.201977
v -2.405764 1.059750 -2.203961
v -2.378253 0.870250 -2.105705
vn 0.693391 -0.203033 -0.691366
f 1857/1/465 1858/2/465 1859/3/465 1860/4/465
v -2.405764 1.059750 -2.203961
v -2.500240 1.139250 -2.204498
v -2.490171 1.150102 -2.196139
v -2.398134 1.067172 -2.190706
vn 0.505007 0.595914 -0.624383
f 1861/1/466 1862/2/466 1863/3/466 1864/4/466
v -2.398134 1.067172 -2.190706
v -2.490171 1.150102 -2.196139
v -2.489932 1.150102 -2.179141
v -2.405669 1.067172 -2.175467
vn 0.626329 0.715405 0.309690
f 1865/1/467 1866/2/467 1867/3/467 1868/4/467
v -2.405669 1.067172 -2.175467
v -2.489932 1.150102 -2.179141
v -2.499760 1.139250 -2.170502
v -2.420834 1.059750 -2.173483
vn 0.072198 0.117240 0.990476
f 1869/1/468 1870/2/468 1871/3/468 1872/4/468
v -2.420834 1.059750 -2.173483
v -2.499760 1.139250 -2.170502
v -2.509829 1.128398 -2.178861
v -2.428464 1.052328 -2.186738
vn -0.541572 -0.561138 0.625958
f 1873/1/469 1874/2/469 1875/3/469 1876/4/469
v -2.428464 1.052328 -2.186738
v -2.509829 1.128398 -2.178861
v -2.510068 1.128398 -2.195859
v -2.420929 1.052328 -2.201977
vn -0.662033 -0.674209 -0.327344
f 1877/1/470 1878/2/470 1879/3/470 1880/4/470
v -2.420929 1.052328 -2.201977
v -2.510068 1.128398 -2.195859
v -2.500240 1.139250 -2.204498
v -2.405764 1.059750 -2.203961
vn -0.107417 -0.045996 -0.993150
f 1881/1/471 1882/2/471 1883/3/471 1884/4/471
v -2.500240 1.139250 -2.204498
v -2.499760 1.139250 -2.170502
v -2.489932 1.150102 -2.179141
v -2.490171 1.150102 -2.196139
vn -0.737012 0.675800 0.010388
f 1885/1/472 1886/2/472 1887/3/472 1888/4/472
v -2.500240 1.139250 -2.204498
v -2.510068 1.128398 -2.195859
v -2.509829 1.128398 -2.178861
v -2.499760 1.139250 -2.170502
vn -0.737012 0.675800 0.010388
f 1889/1/473 1890/2/473 1891/3/473 1892/4/473
