# Generated by scripts/gen_pole_light_mounts.py
mtllib pole_light_mount.mtl
o pole_light_mount_5_straight_left
vt 0 0
vt 1 0
vt 1 1
vt 0 1
usemtl clamp
v 0.312500 0.062500 1.000000
v 0.687500 0.062500 1.000000
v 0.687500 0.937500 1.000000
v 0.312500 0.937500 1.000000
vn 0.000000 0.000000 1.000000
f 1/1/1 2/2/1 3/3/1 4/4/1
v 0.687500 0.062500 0.900000
v 0.312500 0.062500 0.900000
v 0.312500 0.937500 0.900000
v 0.687500 0.937500 0.900000
vn 0.000000 0.000000 -1.000000
f 5/1/2 6/2/2 7/3/2 8/4/2
v 0.687500 0.062500 1.000000
v 0.687500 0.062500 0.900000
v 0.687500 0.937500 0.900000
v 0.687500 0.937500 1.000000
vn 1.000000 -0.000000 0.000000
f 9/1/3 10/2/3 11/3/3 12/4/3
v 0.312500 0.062500 0.900000
v 0.312500 0.062500 1.000000
v 0.312500 0.937500 1.000000
v 0.312500 0.937500 0.900000
vn -1.000000 0.000000 0.000000
f 13/1/4 14/2/4 15/3/4 16/4/4
v 0.312500 0.937500 1.000000
v 0.687500 0.937500 1.000000
v 0.687500 0.937500 0.900000
v 0.312500 0.937500 0.900000
vn -0.000000 1.000000 0.000000
f 17/1/5 18/2/5 19/3/5 20/4/5
v 0.312500 0.062500 0.900000
v 0.687500 0.062500 0.900000
v 0.687500 0.062500 1.000000
v 0.312500 0.062500 1.000000
vn 0.000000 -1.000000 0.000000
f 21/1/6 22/2/6 23/3/6 24/4/6
v 0.406250 0.010625 0.900000
v 0.593750 0.010625 0.900000
v 0.593750 0.229375 0.900000
v 0.406250 0.229375 0.900000
vn 0.000000 0.000000 1.000000
f 25/1/7 26/2/7 27/3/7 28/4/7
v 0.593750 0.010625 0.800000
v 0.406250 0.010625 0.800000
v 0.406250 0.229375 0.800000
v 0.593750 0.229375 0.800000
vn 0.000000 0.000000 -1.000000
f 29/1/8 30/2/8 31/3/8 32/4/8
v 0.593750 0.010625 0.900000
v 0.593750 0.010625 0.800000
v 0.593750 0.229375 0.800000
v 0.593750 0.229375 0.900000
vn 1.000000 -0.000000 0.000000
f 33/1/9 34/2/9 35/3/9 36/4/9
v 0.406250 0.010625 0.800000
v 0.406250 0.010625 0.900000
v 0.406250 0.229375 0.900000
v 0.406250 0.229375 0.800000
vn -1.000000 0.000000 0.000000
f 37/1/10 38/2/10 39/3/10 40/4/10
v 0.406250 0.229375 0.900000
v 0.593750 0.229375 0.900000
v 0.593750 0.229375 0.800000
v 0.406250 0.229375 0.800000
vn -0.000000 1.000000 0.000000
f 41/1/11 42/2/11 43/3/11 44/4/11
v 0.406250 0.010625 0.800000
v 0.593750 0.010625 0.800000
v 0.593750 0.010625 0.900000
v 0.406250 0.010625 0.900000
vn 0.000000 -1.000000 0.000000
f 45/1/12 46/2/12 47/3/12 48/4/12
v 0.468750 0.125000 0.900000
v 0.531250 0.125000 0.900000
v 0.531250 0.187500 0.900000
v 0.468750 0.187500 0.900000
vn 0.000000 0.000000 1.000000
f 49/1/13 50/2/13 51/3/13 52/4/13
v 0.531250 0.125000 0.880000
v 0.468750 0.125000 0.880000
v 0.468750 0.187500 0.880000
v 0.531250 0.187500 0.880000
vn 0.000000 0.000000 -1.000000
f 53/1/14 54/2/14 55/3/14 56/4/14
v 0.531250 0.125000 0.900000
v 0.531250 0.125000 0.880000
v 0.531250 0.187500 0.880000
v 0.531250 0.187500 0.900000
vn 1.000000 -0.000000 0.000000
f 57/1/15 58/2/15 59/3/15 60/4/15
v 0.468750 0.125000 0.880000
v 0.468750 0.125000 0.900000
v 0.468750 0.187500 0.900000
v 0.468750 0.187500 0.880000
vn -1.000000 0.000000 0.000000
f 61/1/16 62/2/16 63/3/16 64/4/16
v 0.468750 0.187500 0.900000
v 0.531250 0.187500 0.900000
v 0.531250 0.187500 0.880000
v 0.468750 0.187500 0.880000
vn -0.000000 1.000000 0.000000
f 65/1/17 66/2/17 67/3/17 68/4/17
v 0.468750 0.125000 0.880000
v 0.531250 0.125000 0.880000
v 0.531250 0.125000 0.900000
v 0.468750 0.125000 0.900000
vn 0.000000 -1.000000 0.000000
f 69/1/18 70/2/18 71/3/18 72/4/18
v 0.468750 0.812500 0.900000
v 0.531250 0.812500 0.900000
v 0.531250 0.875000 0.900000
v 0.468750 0.875000 0.900000
vn 0.000000 0.000000 1.000000
f 73/1/19 74/2/19 75/3/19 76/4/19
v 0.531250 0.812500 0.880000
v 0.468750 0.812500 0.880000
v 0.468750 0.875000 0.880000
v 0.531250 0.875000 0.880000
vn 0.000000 0.000000 -1.000000
f 77/1/20 78/2/20 79/3/20 80/4/20
v 0.531250 0.812500 0.900000
v 0.531250 0.812500 0.880000
v 0.531250 0.875000 0.880000
v 0.531250 0.875000 0.900000
vn 1.000000 -0.000000 0.000000
f 81/1/21 82/2/21 83/3/21 84/4/21
v 0.468750 0.812500 0.880000
v 0.468750 0.812500 0.900000
v 0.468750 0.875000 0.900000
v 0.468750 0.875000 0.880000
vn -1.000000 0.000000 0.000000
f 85/1/22 86/2/22 87/3/22 88/4/22
v 0.468750 0.875000 0.900000
v 0.531250 0.875000 0.900000
v 0.531250 0.875000 0.880000
v 0.468750 0.875000 0.880000
vn -0.000000 1.000000 0.000000
f 89/1/23 90/2/23 91/3/23 92/4/23
v 0.468750 0.812500 0.880000
v 0.531250 0.812500 0.880000
v 0.531250 0.812500 0.900000
v 0.468750 0.812500 0.900000
vn 0.000000 -1.000000 0.000000
f 93/1/24 94/2/24 95/3/24 96/4/24
usemtl metal
v 0.545000 0.120000 0.860000
v 0.545000 0.120000 0.800000
v 0.538971 0.142198 0.803675
v 0.538971 0.142500 0.860000
vn 0.965926 0.258819 0.000000
f 97/1/25 98/2/25 99/3/25 100/4/25
v 0.538971 0.142500 0.860000
v 0.538971 0.142198 0.803675
v 0.522500 0.158448 0.806365
v 0.522500 0.158971 0.860000
vn 0.707102 0.707102 -0.003793
f 101/1/26 102/2/26 103/3/26 104/4/26
v 0.522500 0.158971 0.860000
v 0.522500 0.158448 0.806365
v 0.500000 0.164396 0.807350
v 0.500000 0.165000 0.860000
vn 0.258808 0.965883 -0.009424
f 105/1/27 106/2/27 107/3/27 108/4/27
v 0.500000 0.165000 0.860000
v 0.500000 0.164396 0.807350
v 0.477500 0.158448 0.806365
v 0.477500 0.158971 0.860000
vn -0.258803 0.965866 -0.011085
f 109/1/28 110/2/28 111/3/28 112/4/28
v 0.477500 0.158971 0.860000
v 0.477500 0.158448 0.806365
v 0.461029 0.142198 0.803675
v 0.461029 0.142500 0.860000
vn -0.707090 0.707090 -0.006899
f 113/1/29 114/2/29 115/3/29 116/4/29
v 0.461029 0.142500 0.860000
v 0.461029 0.142198 0.803675
v 0.455000 0.120000 0.800000
v 0.455000 0.120000 0.860000
vn -0.965925 0.258819 -0.001388
f 117/1/30 118/2/30 119/3/30 120/4/30
v 0.455000 0.120000 0.860000
v 0.455000 0.120000 0.800000
v 0.461029 0.097802 0.796325
v 0.461029 0.097500 0.860000
vn -0.965926 -0.258819 -0.000000
f 121/1/31 122/2/31 123/3/31 124/4/31
v 0.461029 0.097500 0.860000
v 0.461029 0.097802 0.796325
v 0.477500 0.081552 0.793635
v 0.477500 0.081029 0.860000
vn -0.707103 -0.707103 -0.003355
f 125/1/32 126/2/32 127/3/32 128/4/32
v 0.477500 0.081029 0.860000
v 0.477500 0.081552 0.793635
v 0.500000 0.075604 0.792650
v 0.500000 0.075000 0.860000
vn -0.258812 -0.965898 -0.007616
f 129/1/33 130/2/33 131/3/33 132/4/33
v 0.500000 0.075000 0.860000
v 0.500000 0.075604 0.792650
v 0.522500 0.081552 0.793635
v 0.522500 0.081029 0.860000
vn 0.258809 -0.965890 -0.008666
f 133/1/34 134/2/34 135/3/34 136/4/34
v 0.522500 0.081029 0.860000
v 0.522500 0.081552 0.793635
v 0.538971 0.097802 0.796325
v 0.538971 0.097500 0.860000
vn 0.707096 -0.707096 -0.005575
f 137/1/35 138/2/35 139/3/35 140/4/35
v 0.538971 0.097500 0.860000
v 0.538971 0.097802 0.796325
v 0.545000 0.120000 0.800000
v 0.545000 0.120000 0.860000
vn 0.965925 -0.258819 -0.001228
f 141/1/36 142/2/36 143/3/36 144/4/36
v 0.545000 0.120000 0.800000
v 0.545000 0.137021 0.750000
v 0.538971 0.158297 0.757320
v 0.538971 0.142198 0.803675
vn 0.965040 0.248118 0.084465
f 145/1/37 146/2/37 147/3/37 148/4/37
v 0.538971 0.142198 0.803675
v 0.538971 0.158297 0.757320
v 0.522500 0.173872 0.762678
v 0.522500 0.158448 0.806365
vn 0.701942 0.672812 0.233671
f 149/1/38 150/2/38 151/3/38 152/4/38
v 0.522500 0.158448 0.806365
v 0.522500 0.173872 0.762678
v 0.500000 0.179573 0.764639
v 0.500000 0.164396 0.807350
vn 0.255110 0.911751 0.321913
f 153/1/39 154/2/39 155/3/39 156/4/39
v 0.500000 0.164396 0.807350
v 0.500000 0.179573 0.764639
v 0.477500 0.173872 0.762678
v 0.477500 0.158448 0.806365
vn -0.255024 0.911116 0.323776
f 157/1/40 158/2/40 159/3/40 160/4/40
v 0.477500 0.158448 0.806365
v 0.477500 0.173872 0.762678
v 0.461029 0.158297 0.757320
v 0.461029 0.142198 0.803675
vn -0.701622 0.671899 0.237229
f 161/1/41 162/2/41 163/3/41 164/4/41
v 0.461029 0.142198 0.803675
v 0.461029 0.158297 0.757320
v 0.455000 0.137021 0.750000
v 0.455000 0.120000 0.800000
vn -0.964972 0.247833 0.086074
f 165/1/42 166/2/42 167/3/42 168/4/42
v 0.455000 0.120000 0.800000
v 0.455000 0.137021 0.750000
v 0.461029 0.115745 0.742680
v 0.461029 0.097802 0.796325
vn -0.965040 -0.248118 -0.084465
f 169/1/43 170/2/43 171/3/43 172/4/43
v 0.461029 0.097802 0.796325
v 0.461029 0.115745 0.742680
v 0.477500 0.100170 0.737322
v 0.477500 0.081552 0.793635
vn -0.702621 -0.674818 -0.225711
f 173/1/44 174/2/44 175/3/44 176/4/44
v 0.477500 0.081552 0.793635
v 0.477500 0.100170 0.737322
v 0.500000 0.094469 0.735361
v 0.500000 0.075604 0.792650
vn -0.255912 -0.917839 -0.303448
f 177/1/45 178/2/45 179/3/45 180/4/45
v 0.500000 0.075604 0.792650
v 0.500000 0.094469 0.735361
v 0.522500 0.100170 0.737322
v 0.522500 0.081552 0.793635
vn 0.255956 -0.918190 -0.302347
f 181/1/46 182/2/46 183/3/46 184/4/46
v 0.522500 0.081552 0.793635
v 0.522500 0.100170 0.737322
v 0.538971 0.115745 0.742680
v 0.538971 0.097802 0.796325
vn 0.702817 -0.675415 -0.223300
f 185/1/47 186/2/47 187/3/47 188/4/47
v 0.538971 0.097802 0.796325
v 0.538971 0.115745 0.742680
v 0.545000 0.137021 0.750000
v 0.545000 0.120000 0.800000
vn 0.965098 -0.248364 -0.083072
f 189/1/48 190/2/48 191/3/48 192/4/48
v 0.545000 0.137021 0.750000
v 0.545000 0.154404 0.700000
v 0.538971 0.175672 0.707343
v 0.538971 0.158297 0.757320
vn 0.965925 0.244468 0.084989
f 193/1/49 194/2/49 195/3/49 196/4/49
v 0.538971 0.158297 0.757320
v 0.538971 0.175672 0.707343
v 0.522500 0.191241 0.712719
v 0.522500 0.173872 0.762678
vn 0.707105 0.667898 0.232195
f 197/1/50 198/2/50 199/3/50 200/4/50
v 0.522500 0.173872 0.762678
v 0.522500 0.191241 0.712719
v 0.500000 0.196940 0.714686
v 0.500000 0.179573 0.764639
vn 0.258818 0.912364 0.317184
f 201/1/51 202/2/51 203/3/51 204/4/51
v 0.500000 0.179573 0.764639
v 0.500000 0.196940 0.714686
v 0.477500 0.191241 0.712719
v 0.477500 0.173872 0.762678
vn -0.258818 0.912364 0.317185
f 205/1/52 206/2/52 207/3/52 208/4/52
v 0.477500 0.173872 0.762678
v 0.477500 0.191241 0.712719
v 0.461029 0.175672 0.707343
v 0.461029 0.158297 0.757320
vn -0.707105 0.667898 0.232196
f 209/1/53 210/2/53 211/3/53 212/4/53
v 0.461029 0.158297 0.757320
v 0.461029 0.175672 0.707343
v 0.455000 0.154404 0.700000
v 0.455000 0.137021 0.750000
vn -0.965925 0.244468 0.084989
f 213/1/54 214/2/54 215/3/54 216/4/54
v 0.455000 0.137021 0.750000
v 0.455000 0.154404 0.700000
v 0.461029 0.133136 0.692657
v 0.461029 0.115745 0.742680
vn -0.965925 -0.244468 -0.084989
f 217/1/55 218/2/55 219/3/55 220/4/55
v 0.461029 0.115745 0.742680
v 0.461029 0.133136 0.692657
v 0.477500 0.117566 0.687281
v 0.477500 0.100170 0.737322
vn -0.707105 -0.667899 -0.232193
f 221/1/56 222/2/56 223/3/56 224/4/56
v 0.477500 0.100170 0.737322
v 0.477500 0.117566 0.687281
v 0.500000 0.111868 0.685314
v 0.500000 0.094469 0.735361
vn -0.258818 -0.912365 -0.317180
f 225/1/57 226/2/57 227/3/57 228/4/57
v 0.500000 0.094469 0.735361
v 0.500000 0.111868 0.685314
v 0.522500 0.117566 0.687281
v 0.522500 0.100170 0.737322
vn 0.258818 -0.912365 -0.317180
f 229/1/58 230/2/58 231/3/58 232/4/58
v 0.522500 0.100170 0.737322
v 0.522500 0.117566 0.687281
v 0.538971 0.133136 0.692657
v 0.538971 0.115745 0.742680
vn 0.707105 -0.667899 -0.232193
f 233/1/59 234/2/59 235/3/59 236/4/59
v 0.538971 0.115745 0.742680
v 0.538971 0.133136 0.692657
v 0.545000 0.154404 0.700000
v 0.545000 0.137021 0.750000
vn 0.965925 -0.244469 -0.084989
f 237/1/60 238/2/60 239/3/60 240/4/60
v 0.545000 0.154404 0.700000
v 0.545000 0.171548 0.650000
v 0.538971 0.192886 0.657137
v 0.538971 0.175672 0.707343
vn 0.965926 0.244827 0.083947
f 241/1/61 242/2/61 243/3/61 244/4/61
v 0.538971 0.175672 0.707343
v 0.538971 0.192886 0.657137
v 0.522500 0.208506 0.662362
v 0.522500 0.191241 0.712719
vn 0.707106 0.668883 0.229340
f 245/1/62 246/2/62 247/3/62 248/4/62
v 0.522500 0.191241 0.712719
v 0.522500 0.208506 0.662362
v 0.500000 0.214224 0.664274
v 0.500000 0.196940 0.714686
vn 0.258818 0.913713 0.313276
f 249/1/63 250/2/63 251/3/63 252/4/63
v 0.500000 0.196940 0.714686
v 0.500000 0.214224 0.664274
v 0.477500 0.208506 0.662362
v 0.477500 0.191241 0.712719
vn -0.258818 0.913714 0.313273
f 253/1/64 254/2/64 255/3/64 256/4/64
v 0.477500 0.191241 0.712719
v 0.477500 0.208506 0.662362
v 0.461029 0.192886 0.657137
v 0.461029 0.175672 0.707343
vn -0.707106 0.668885 0.229334
f 257/1/65 258/2/65 259/3/65 260/4/65
v 0.461029 0.175672 0.707343
v 0.461029 0.192886 0.657137
v 0.455000 0.171548 0.650000
v 0.455000 0.154404 0.700000
vn -0.965926 0.244828 0.083944
f 261/1/66 262/2/66 263/3/66 264/4/66
v 0.455000 0.154404 0.700000
v 0.455000 0.171548 0.650000
v 0.461029 0.150210 0.642863
v 0.461029 0.133136 0.692657
vn -0.965926 -0.244827 -0.083947
f 265/1/67 266/2/67 267/3/67 268/4/67
v 0.461029 0.133136 0.692657
v 0.461029 0.150210 0.642863
v 0.477500 0.134589 0.637638
v 0.477500 0.117566 0.687281
vn -0.707106 -0.668878 -0.229354
f 269/1/68 270/2/68 271/3/68 272/4/68
v 0.477500 0.117566 0.687281
v 0.477500 0.134589 0.637638
v 0.500000 0.128872 0.635726
v 0.500000 0.111868 0.685314
vn -0.258819 -0.913701 -0.313311
f 273/1/69 274/2/69 275/3/69 276/4/69
v 0.500000 0.111868 0.685314
v 0.500000 0.128872 0.635726
v 0.522500 0.134589 0.637638
v 0.522500 0.117566 0.687281
vn 0.258819 -0.913700 -0.313314
f 277/1/70 278/2/70 279/3/70 280/4/70
v 0.522500 0.117566 0.687281
v 0.522500 0.134589 0.637638
v 0.538971 0.150210 0.642863
v 0.538971 0.133136 0.692657
vn 0.707106 -0.668876 -0.229360
f 281/1/71 282/2/71 283/3/71 284/4/71
v 0.538971 0.133136 0.692657
v 0.538971 0.150210 0.642863
v 0.545000 0.171548 0.650000
v 0.545000 0.154404 0.700000
vn 0.965926 -0.244827 -0.083950
f 285/1/72 286/2/72 287/3/72 288/4/72
v 0.545000 0.171548 0.650000
v 0.545000 0.187854 0.600000
v 0.538971 0.209332 0.606702
v 0.538971 0.192886 0.657137
vn 0.965924 0.246071 0.080249
f 289/1/73 290/2/73 291/3/73 292/4/73
v 0.538971 0.192886 0.657137
v 0.538971 0.209332 0.606702
v 0.522500 0.225056 0.611609
v 0.522500 0.208506 0.662362
vn 0.707097 0.672275 0.219227
f 293/1/74 294/2/74 295/3/74 296/4/74
v 0.522500 0.208506 0.662362
v 0.522500 0.225056 0.611609
v 0.500000 0.230811 0.613405
v 0.500000 0.214224 0.664274
vn 0.258812 0.918338 0.299451
f 297/1/75 298/2/75 299/3/75 300/4/75
v 0.500000 0.214224 0.664274
v 0.500000 0.230811 0.613405
v 0.477500 0.225056 0.611609
v 0.477500 0.208506 0.662362
vn -0.258812 0.918340 0.299446
f 301/1/76 302/2/76 303/3/76 304/4/76
v 0.477500 0.208506 0.662362
v 0.477500 0.225056 0.611609
v 0.461029 0.209332 0.606702
v 0.461029 0.192886 0.657137
vn -0.707097 0.672279 0.219216
f 305/1/77 306/2/77 307/3/77 308/4/77
v 0.461029 0.192886 0.657137
v 0.461029 0.209332 0.606702
v 0.455000 0.187854 0.600000
v 0.455000 0.171548 0.650000
vn -0.965924 0.246073 0.080244
f 309/1/78 310/2/78 311/3/78 312/4/78
v 0.455000 0.171548 0.650000
v 0.455000 0.187854 0.600000
v 0.461029 0.166375 0.593298
v 0.461029 0.150210 0.642863
vn -0.965924 -0.246071 -0.080249
f 313/1/79 314/2/79 315/3/79 316/4/79
v 0.461029 0.150210 0.642863
v 0.461029 0.166375 0.593298
v 0.477500 0.150652 0.588391
v 0.477500 0.134589 0.637638
vn -0.707097 -0.672265 -0.219258
f 317/1/80 318/2/80 319/3/80 320/4/80
v 0.477500 0.134589 0.637638
v 0.477500 0.150652 0.588391
v 0.500000 0.144897 0.586595
v 0.500000 0.128872 0.635726
vn -0.258812 -0.918315 -0.299524
f 321/1/81 322/2/81 323/3/81 324/4/81
v 0.500000 0.128872 0.635726
v 0.500000 0.144897 0.586595
v 0.522500 0.150652 0.588391
v 0.522500 0.134589 0.637638
vn 0.258812 -0.918313 -0.299530
f 325/1/82 326/2/82 327/3/82 328/4/82
v 0.522500 0.134589 0.637638
v 0.522500 0.150652 0.588391
v 0.538971 0.166375 0.593298
v 0.538971 0.150210 0.642863
vn 0.707097 -0.672261 -0.219269
f 329/1/83 330/2/83 331/3/83 332/4/83
v 0.538971 0.150210 0.642863
v 0.538971 0.166375 0.593298
v 0.545000 0.187854 0.600000
v 0.545000 0.171548 0.650000
vn 0.965924 -0.246069 -0.080255
f 333/1/84 334/2/84 335/3/84 336/4/84
v 0.545000 0.187854 0.600000
v 0.545000 0.202758 0.550000
v 0.538971 0.224355 0.556309
v 0.538971 0.209332 0.606702
vn 0.965921 0.248053 0.073941
f 337/1/85 338/2/85 339/3/85 340/4/85
v 0.538971 0.209332 0.606702
v 0.538971 0.224355 0.556309
v 0.522500 0.240166 0.560928
v 0.522500 0.225056 0.611609
vn 0.707078 0.677663 0.202023
f 341/1/86 342/2/86 343/3/86 344/4/86
v 0.522500 0.225056 0.611609
v 0.522500 0.240166 0.560928
v 0.500000 0.245953 0.562618
v 0.500000 0.230811 0.613405
vn 0.258799 0.925667 0.275978
f 345/1/87 346/2/87 347/3/87 348/4/87
v 0.500000 0.230811 0.613405
v 0.500000 0.245953 0.562618
v 0.477500 0.240166 0.560928
v 0.477500 0.225056 0.611609
vn -0.258800 0.925665 0.275985
f 349/1/88 350/2/88 351/3/88 352/4/88
v 0.477500 0.225056 0.611609
v 0.477500 0.240166 0.560928
v 0.461029 0.224355 0.556309
v 0.461029 0.209332 0.606702
vn -0.707078 0.677659 0.202037
f 353/1/89 354/2/89 355/3/89 356/4/89
v 0.461029 0.209332 0.606702
v 0.461029 0.224355 0.556309
v 0.455000 0.202758 0.550000
v 0.455000 0.187854 0.600000
vn -0.965921 0.248051 0.073948
f 357/1/90 358/2/90 359/3/90 360/4/90
v 0.455000 0.187854 0.600000
v 0.455000 0.202758 0.550000
v 0.461029 0.181161 0.543691
v 0.461029 0.166375 0.593298
vn -0.965921 -0.248053 -0.073941
f 361/1/91 362/2/91 363/3/91 364/4/91
v 0.461029 0.166375 0.593298
v 0.461029 0.181161 0.543691
v 0.477500 0.165351 0.539072
v 0.477500 0.150652 0.588391
vn -0.707078 -0.677675 -0.201984
f 365/1/92 366/2/92 367/3/92 368/4/92
v 0.477500 0.150652 0.588391
v 0.477500 0.165351 0.539072
v 0.500000 0.159564 0.537382
v 0.500000 0.144897 0.586595
vn -0.258799 -0.925694 -0.275886
f 369/1/93 370/2/93 371/3/93 372/4/93
v 0.500000 0.144897 0.586595
v 0.500000 0.159564 0.537382
v 0.522500 0.165351 0.539072
v 0.522500 0.150652 0.588391
vn 0.258799 -0.925696 -0.275879
f 373/1/94 374/2/94 375/3/94 376/4/94
v 0.522500 0.150652 0.588391
v 0.522500 0.165351 0.539072
v 0.538971 0.181161 0.543691
v 0.538971 0.166375 0.593298
vn 0.707078 -0.677679 -0.201970
f 377/1/95 378/2/95 379/3/95 380/4/95
v 0.538971 0.166375 0.593298
v 0.538971 0.181161 0.543691
v 0.545000 0.202758 0.550000
v 0.545000 0.187854 0.600000
vn 0.965921 -0.248055 -0.073934
f 381/1/96 382/2/96 383/3/96 384/4/96
v 0.545000 0.202758 0.550000
v 0.545000 0.217068 0.500000
v 0.538971 0.238701 0.506184
v 0.538971 0.224355 0.556309
vn 0.965925 0.248833 0.071214
f 385/1/97 386/2/97 387/3/97 388/4/97
v 0.538971 0.224355 0.556309
v 0.538971 0.238701 0.506184
v 0.522500 0.254538 0.510712
v 0.522500 0.240166 0.560928
vn 0.707101 0.679818 0.194563
f 389/1/98 390/2/98 391/3/98 392/4/98
v 0.522500 0.240166 0.560928
v 0.522500 0.254538 0.510712
v 0.500000 0.260335 0.512369
v 0.500000 0.245953 0.562618
vn 0.258815 0.928641 0.265781
f 393/1/99 394/2/99 395/3/99 396/4/99
v 0.500000 0.245953 0.562618
v 0.500000 0.260335 0.512369
v 0.477500 0.254538 0.510712
v 0.477500 0.240166 0.560928
vn -0.258815 0.928641 0.265783
f 397/1/100 398/2/100 399/3/100 400/4/100
v 0.477500 0.240166 0.560928
v 0.477500 0.254538 0.510712
v 0.461029 0.238701 0.506184
v 0.461029 0.224355 0.556309
vn -0.707101 0.679817 0.194566
f 401/1/101 402/2/101 403/3/101 404/4/101
v 0.461029 0.224355 0.556309
v 0.461029 0.238701 0.506184
v 0.455000 0.217068 0.500000
v 0.455000 0.202758 0.550000
vn -0.965925 0.248832 0.071216
f 405/1/102 406/2/102 407/3/102 408/4/102
v 0.455000 0.202758 0.550000
v 0.455000 0.217068 0.500000
v 0.461029 0.195434 0.493816
v 0.461029 0.181161 0.543691
vn -0.965925 -0.248833 -0.071214
f 409/1/103 410/2/103 411/3/103 412/4/103
v 0.461029 0.181161 0.543691
v 0.461029 0.195434 0.493816
v 0.477500 0.179598 0.489288
v 0.477500 0.165351 0.539072
vn -0.707101 -0.679821 -0.194554
f 413/1/104 414/2/104 415/3/104 416/4/104
v 0.477500 0.165351 0.539072
v 0.477500 0.179598 0.489288
v 0.500000 0.173801 0.487631
v 0.500000 0.159564 0.537382
vn -0.258815 -0.928647 -0.265760
f 417/1/105 418/2/105 419/3/105 420/4/105
v 0.500000 0.159564 0.537382
v 0.500000 0.173801 0.487631
v 0.522500 0.179598 0.489288
v 0.522500 0.165351 0.539072
vn 0.258815 -0.928648 -0.265759
f 421/1/106 422/2/106 423/3/106 424/4/106
v 0.522500 0.165351 0.539072
v 0.522500 0.179598 0.489288
v 0.538971 0.195434 0.493816
v 0.538971 0.181161 0.543691
vn 0.707101 -0.679822 -0.194551
f 425/1/107 426/2/107 427/3/107 428/4/107
v 0.538971 0.181161 0.543691
v 0.538971 0.195434 0.493816
v 0.545000 0.217068 0.500000
v 0.545000 0.202758 0.550000
vn 0.965925 -0.248833 -0.071212
f 429/1/108 430/2/108 431/3/108 432/4/108
v 0.545000 0.217068 0.500000
v 0.545000 0.231345 0.450000
v 0.538971 0.252983 0.456171
v 0.538971 0.238701 0.506184
vn 0.965926 0.248871 0.071066
f 433/1/109 434/2/109 435/3/109 436/4/109
v 0.538971 0.238701 0.506184
v 0.538971 0.252983 0.456171
v 0.522500 0.268822 0.460689
v 0.522500 0.254538 0.510712
vn 0.707107 0.679929 0.194157
f 437/1/110 438/2/110 439/3/110 440/4/110
v 0.522500 0.254538 0.510712
v 0.522500 0.268822 0.460689
v 0.500000 0.274620 0.462343
v 0.500000 0.260335 0.512369
vn 0.258819 0.928800 0.265223
f 441/1/111 442/2/111 443/3/111 444/4/111
v 0.500000 0.260335 0.512369
v 0.500000 0.274620 0.462343
v 0.477500 0.268822 0.460689
v 0.477500 0.254538 0.510712
vn -0.258819 0.928800 0.265223
f 445/1/112 446/2/112 447/3/112 448/4/112
v 0.477500 0.254538 0.510712
v 0.477500 0.268822 0.460689
v 0.461029 0.252983 0.456171
v 0.461029 0.238701 0.506184
vn -0.707107 0.679929 0.194157
f 449/1/113 450/2/113 451/3/113 452/4/113
v 0.461029 0.238701 0.506184
v 0.461029 0.252983 0.456171
v 0.455000 0.231345 0.450000
v 0.455000 0.217068 0.500000
vn -0.965926 0.248871 0.071066
f 453/1/114 454/2/114 455/3/114 456/4/114
v 0.455000 0.217068 0.500000
v 0.455000 0.231345 0.450000
v 0.461029 0.209708 0.443829
v 0.461029 0.195434 0.493816
vn -0.965926 -0.248871 -0.071066
f 457/1/115 458/2/115 459/3/115 460/4/115
v 0.461029 0.195434 0.493816
v 0.461029 0.209708 0.443829
v 0.477500 0.193869 0.439311
v 0.477500 0.179598 0.489288
vn -0.707107 -0.679929 -0.194157
f 461/1/116 462/2/116 463/3/116 464/4/116
v 0.477500 0.179598 0.489288
v 0.477500 0.193869 0.439311
v 0.500000 0.188071 0.437657
v 0.500000 0.173801 0.487631
vn -0.258819 -0.928800 -0.265223
f 465/1/117 466/2/117 467/3/117 468/4/117
v 0.500000 0.173801 0.487631
v 0.500000 0.188071 0.437657
v 0.522500 0.193869 0.439311
v 0.522500 0.179598 0.489288
vn 0.258819 -0.928800 -0.265223
f 469/1/118 470/2/118 471/3/118 472/4/118
v 0.522500 0.179598 0.489288
v 0.522500 0.193869 0.439311
v 0.538971 0.209708 0.443829
v 0.538971 0.195434 0.493816
vn 0.707107 -0.679929 -0.194157
f 473/1/119 474/2/119 475/3/119 476/4/119
v 0.538971 0.195434 0.493816
v 0.538971 0.209708 0.443829
v 0.545000 0.231345 0.450000
v 0.545000 0.217068 0.500000
vn 0.965926 -0.248871 -0.071066
f 477/1/120 478/2/120 479/3/120 480/4/120
v 0.545000 0.231345 0.450000
v 0.545000 0.245590 0.400000
v 0.538971 0.267231 0.406158
v 0.538971 0.252983 0.456171
vn 0.965926 0.248915 0.070914
f 481/1/121 482/2/121 483/3/121 484/4/121
v 0.538971 0.252983 0.456171
v 0.538971 0.267231 0.406158
v 0.522500 0.283073 0.410666
v 0.522500 0.268822 0.460689
vn 0.707107 0.680048 0.193740
f 485/1/122 486/2/122 487/3/122 488/4/122
v 0.522500 0.268822 0.460689
v 0.522500 0.283073 0.410666
v 0.500000 0.288872 0.412316
v 0.500000 0.274620 0.462343
vn 0.258819 0.928962 0.264653
f 489/1/123 490/2/123 491/3/123 492/4/123
v 0.500000 0.274620 0.462343
v 0.500000 0.288872 0.412316
v 0.477500 0.283073 0.410666
v 0.477500 0.268822 0.460689
vn -0.258819 0.928962 0.264653
f 493/1/124 494/2/124 495/3/124 496/4/124
v 0.477500 0.268822 0.460689
v 0.477500 0.283073 0.410666
v 0.461029 0.267231 0.406158
v 0.461029 0.252983 0.456171
vn -0.707107 0.680048 0.193740
f 497/1/125 498/2/125 499/3/125 500/4/125
v 0.461029 0.252983 0.456171
v 0.461029 0.267231 0.406158
v 0.455000 0.245590 0.400000
v 0.455000 0.231345 0.450000
vn -0.965926 0.248915 0.070914
f 501/1/126 502/2/126 503/3/126 504/4/126
v 0.455000 0.231345 0.450000
v 0.455000 0.245590 0.400000
v 0.461029 0.223949 0.393842
v 0.461029 0.209708 0.443829
vn -0.965926 -0.248915 -0.070914
f 505/1/127 506/2/127 507/3/127 508/4/127
v 0.461029 0.209708 0.443829
v 0.461029 0.223949 0.393842
v 0.477500 0.208107 0.389334
v 0.477500 0.193869 0.439311
vn -0.707107 -0.680048 -0.193740
f 509/1/128 510/2/128 511/3/128 512/4/128
v 0.477500 0.193869 0.439311
v 0.477500 0.208107 0.389334
v 0.500000 0.202308 0.387684
v 0.500000 0.188071 0.437657
vn -0.258819 -0.928962 -0.264653
f 513/1/129 514/2/129 515/3/129 516/4/129
v 0.500000 0.188071 0.437657
v 0.500000 0.202308 0.387684
v 0.522500 0.208107 0.389334
v 0.522500 0.193869 0.439311
vn 0.258819 -0.928962 -0.264653
f 517/1/130 518/2/130 519/3/130 520/4/130
v 0.522500 0.193869 0.439311
v 0.522500 0.208107 0.389334
v 0.538971 0.223949 0.393842
v 0.538971 0.209708 0.443829
vn 0.707107 -0.680048 -0.193740
f 521/1/131 522/2/131 523/3/131 524/4/131
v 0.538971 0.209708 0.443829
v 0.538971 0.223949 0.393842
v 0.545000 0.245590 0.400000
v 0.545000 0.231345 0.450000
vn 0.965926 -0.248915 -0.070914
f 525/1/132 526/2/132 527/3/132 528/4/132
v 0.545000 0.245590 0.400000
v 0.545000 0.259800 0.350000
v 0.538971 0.281445 0.356144
v 0.538971 0.267231 0.406158
vn 0.965926 0.248960 0.070755
f 529/1/133 530/2/133 531/3/133 532/4/133
v 0.538971 0.267231 0.406158
v 0.538971 0.281445 0.356144
v 0.522500 0.297290 0.360641
v 0.522500 0.283073 0.410666
vn 0.707107 0.680171 0.193306
f 533/1/134 534/2/134 535/3/134 536/4/134
v 0.522500 0.283073 0.410666
v 0.522500 0.297290 0.360641
v 0.500000 0.303090 0.362288
v 0.500000 0.288872 0.412316
vn 0.258819 0.929131 0.264061
f 537/1/135 538/2/135 539/3/135 540/4/135
v 0.500000 0.288872 0.412316
v 0.500000 0.303090 0.362288
v 0.477500 0.297290 0.360641
v 0.477500 0.283073 0.410666
vn -0.258819 0.929131 0.264061
f 541/1/136 542/2/136 543/3/136 544/4/136
v 0.477500 0.283073 0.410666
v 0.477500 0.297290 0.360641
v 0.461029 0.281445 0.356144
v 0.461029 0.267231 0.406158
vn -0.707107 0.680171 0.193306
f 545/1/137 546/2/137 547/3/137 548/4/137
v 0.461029 0.267231 0.406158
v 0.461029 0.281445 0.356144
v 0.455000 0.259800 0.350000
v 0.455000 0.245590 0.400000
vn -0.965926 0.248960 0.070755
f 549/1/138 550/2/138 551/3/138 552/4/138
v 0.455000 0.245590 0.400000
v 0.455000 0.259800 0.350000
v 0.461029 0.238155 0.343856
v 0.461029 0.223949 0.393842
vn -0.965926 -0.248960 -0.070755
f 553/1/139 554/2/139 555/3/139 556/4/139
v 0.461029 0.223949 0.393842
v 0.461029 0.238155 0.343856
v 0.477500 0.222310 0.339359
v 0.477500 0.208107 0.389334
vn -0.707107 -0.680171 -0.193306
f 557/1/140 558/2/140 559/3/140 560/4/140
v 0.477500 0.208107 0.389334
v 0.477500 0.222310 0.339359
v 0.500000 0.216510 0.337712
v 0.500000 0.202308 0.387684
vn -0.258819 -0.929131 -0.264061
f 561/1/141 562/2/141 563/3/141 564/4/141
v 0.500000 0.202308 0.387684
v 0.500000 0.216510 0.337712
v 0.522500 0.222310 0.339359
v 0.522500 0.208107 0.389334
vn 0.258819 -0.929131 -0.264061
f 565/1/142 566/2/142 567/3/142 568/4/142
v 0.522500 0.208107 0.389334
v 0.522500 0.222310 0.339359
v 0.538971 0.238155 0.343856
v 0.538971 0.223949 0.393842
vn 0.707107 -0.680171 -0.193306
f 569/1/143 570/2/143 571/3/143 572/4/143
v 0.538971 0.223949 0.393842
v 0.538971 0.238155 0.343856
v 0.545000 0.259800 0.350000
v 0.545000 0.245590 0.400000
vn 0.965926 -0.248960 -0.070755
f 573/1/144 574/2/144 575/3/144 576/4/144
v 0.545000 0.259800 0.350000
v 0.545000 0.273975 0.300000
v 0.538971 0.295624 0.306129
v 0.538971 0.281445 0.356144
vn 0.965926 0.249007 0.070590
f 577/1/145 578/2/145 579/3/145 580/4/145
v 0.538971 0.281445 0.356144
v 0.538971 0.295624 0.306129
v 0.522500 0.311472 0.310616
v 0.522500 0.297290 0.360641
vn 0.707107 0.680299 0.192856
f 581/1/146 582/2/146 583/3/146 584/4/146
v 0.522500 0.297290 0.360641
v 0.522500 0.311472 0.310616
v 0.500000 0.317273 0.312258
v 0.500000 0.303090 0.362288
vn 0.258819 0.929306 0.263446
f 585/1/147 586/2/147 587/3/147 588/4/147
v 0.500000 0.303090 0.362288
v 0.500000 0.317273 0.312258
v 0.477500 0.311472 0.310616
v 0.477500 0.297290 0.360641
vn -0.258819 0.929306 0.263446
f 589/1/148 590/2/148 591/3/148 592/4/148
v 0.477500 0.297290 0.360641
v 0.477500 0.311472 0.310616
v 0.461029 0.295624 0.306129
v 0.461029 0.281445 0.356144
vn -0.707107 0.680299 0.192856
f 593/1/149 594/2/149 595/3/149 596/4/149
v 0.461029 0.281445 0.356144
v 0.461029 0.295624 0.306129
v 0.455000 0.273975 0.300000
v 0.455000 0.259800 0.350000
vn -0.965926 0.249007 0.070590
f 597/1/150 598/2/150 599/3/150 600/4/150
v 0.455000 0.259800 0.350000
v 0.455000 0.273975 0.300000
v 0.461029 0.252325 0.293871
v 0.461029 0.238155 0.343856
vn -0.965926 -0.249007 -0.070590
f 601/1/151 602/2/151 603/3/151 604/4/151
v 0.461029 0.238155 0.343856
v 0.461029 0.252325 0.293871
v 0.477500 0.236477 0.289384
v 0.477500 0.222310 0.339359
vn -0.707107 -0.680299 -0.192856
f 605/1/152 606/2/152 607/3/152 608/4/152
v 0.477500 0.222310 0.339359
v 0.477500 0.236477 0.289384
v 0.500000 0.230676 0.287742
v 0.500000 0.216510 0.337712
vn -0.258819 -0.929306 -0.263446
f 609/1/153 610/2/153 611/3/153 612/4/153
v 0.500000 0.216510 0.337712
v 0.500000 0.230676 0.287742
v 0.522500 0.236477 0.289384
v 0.522500 0.222310 0.339359
vn 0.258819 -0.929306 -0.263446
f 613/1/154 614/2/154 615/3/154 616/4/154
v 0.522500 0.222310 0.339359
v 0.522500 0.236477 0.289384
v 0.538971 0.252325 0.293871
v 0.538971 0.238155 0.343856
vn 0.707107 -0.680299 -0.192856
f 617/1/155 618/2/155 619/3/155 620/4/155
v 0.538971 0.238155 0.343856
v 0.538971 0.252325 0.293871
v 0.545000 0.273975 0.300000
v 0.545000 0.259800 0.350000
vn 0.965926 -0.249007 -0.070590
f 621/1/156 622/2/156 623/3/156 624/4/156
v 0.545000 0.273975 0.300000
v 0.545000 0.288112 0.250000
v 0.538971 0.309765 0.256114
v 0.538971 0.295624 0.306129
vn 0.965926 0.249055 0.070419
f 625/1/157 626/2/157 627/3/157 628/4/157
v 0.538971 0.295624 0.306129
v 0.538971 0.309765 0.256114
v 0.522500 0.325617 0.260590
v 0.522500 0.311472 0.310616
vn 0.707107 0.680431 0.192389
f 629/1/158 630/2/158 631/3/158 632/4/158
v 0.522500 0.311472 0.310616
v 0.522500 0.325617 0.260590
v 0.500000 0.331419 0.262228
v 0.500000 0.317273 0.312258
vn 0.258819 0.929486 0.262808
f 633/1/159 634/2/159 635/3/159 636/4/159
v 0.500000 0.317273 0.312258
v 0.500000 0.331419 0.262228
v 0.477500 0.325617 0.260590
v 0.477500 0.311472 0.310616
vn -0.258819 0.929486 0.262808
f 637/1/160 638/2/160 639/3/160 640/4/160
v 0.477500 0.311472 0.310616
v 0.477500 0.325617 0.260590
v 0.461029 0.309765 0.256114
v 0.461029 0.295624 0.306129
vn -0.707107 0.680431 0.192389
f 641/1/161 642/2/161 643/3/161 644/4/161
v 0.461029 0.295624 0.306129
v 0.461029 0.309765 0.256114
v 0.455000 0.288112 0.250000
v 0.455000 0.273975 0.300000
vn -0.965926 0.249055 0.070419
f 645/1/162 646/2/162 647/3/162 648/4/162
v 0.455000 0.273975 0.300000
v 0.455000 0.288112 0.250000
v 0.461029 0.266458 0.243886
v 0.461029 0.252325 0.293871
vn -0.965926 -0.249055 -0.070419
f 649/1/163 650/2/163 651/3/163 652/4/163
v 0.461029 0.252325 0.293871
v 0.461029 0.266458 0.243886
v 0.477500 0.250607 0.239410
v 0.477500 0.236477 0.289384
vn -0.707107 -0.680431 -0.192389
f 653/1/164 654/2/164 655/3/164 656/4/164
v 0.477500 0.236477 0.289384
v 0.477500 0.250607 0.239410
v 0.500000 0.244805 0.237772
v 0.500000 0.230676 0.287742
vn -0.258819 -0.929486 -0.262808
f 657/1/165 658/2/165 659/3/165 660/4/165
v 0.500000 0.230676 0.287742
v 0.500000 0.244805 0.237772
v 0.522500 0.250607 0.239410
v 0.522500 0.236477 0.289384
vn 0.258819 -0.929486 -0.262808
f 661/1/166 662/2/166 663/3/166 664/4/166
v 0.522500 0.236477 0.289384
v 0.522500 0.250607 0.239410
v 0.538971 0.266458 0.243886
v 0.538971 0.252325 0.293871
vn 0.707107 -0.680431 -0.192389
f 665/1/167 666/2/167 667/3/167 668/4/167
v 0.538971 0.252325 0.293871
v 0.538971 0.266458 0.243886
v 0.545000 0.288112 0.250000
v 0.545000 0.273975 0.300000
vn 0.965926 -0.249055 -0.070419
f 669/1/168 670/2/168 671/3/168 672/4/168
v 0.545000 0.288112 0.250000
v 0.545000 0.302211 0.200000
v 0.538971 0.323872 0.206085
v 0.538971 0.309765 0.256114
vn 0.965926 0.249105 0.070242
f 673/1/169 674/2/169 675/3/169 676/4/169
v 0.538971 0.309765 0.256114
v 0.538971 0.323872 0.206085
v 0.522500 0.339730 0.210539
v 0.522500 0.325617 0.260590
vn 0.707107 0.680568 0.191905
f 677/1/170 678/2/170 679/3/170 680/4/170
v 0.522500 0.325617 0.260590
v 0.522500 0.339730 0.210539
v 0.500000 0.345534 0.212170
v 0.500000 0.331419 0.262228
vn 0.258819 0.929673 0.262147
f 681/1/171 682/2/171 683/3/171 684/4/171
v 0.500000 0.331419 0.262228
v 0.500000 0.345534 0.212170
v 0.477500 0.339730 0.210539
v 0.477500 0.325617 0.260590
vn -0.258819 0.929673 0.262147
f 685/1/172 686/2/172 687/3/172 688/4/172
v 0.477500 0.325617 0.260590
v 0.477500 0.339730 0.210539
v 0.461029 0.323872 0.206085
v 0.461029 0.309765 0.256114
vn -0.707107 0.680568 0.191905
f 689/1/173 690/2/173 691/3/173 692/4/173
v 0.461029 0.309765 0.256114
v 0.461029 0.323872 0.206085
v 0.455000 0.302211 0.200000
v 0.455000 0.288112 0.250000
vn -0.965926 0.249105 0.070242
f 693/1/174 694/2/174 695/3/174 696/4/174
v 0.455000 0.288112 0.250000
v 0.455000 0.302211 0.200000
v 0.461029 0.280549 0.193915
v 0.461029 0.266458 0.243886
vn -0.965926 -0.249105 -0.070242
f 697/1/175 698/2/175 699/3/175 700/4/175
v 0.461029 0.266458 0.243886
v 0.461029 0.280549 0.193915
v 0.477500 0.264692 0.189461
v 0.477500 0.250607 0.239410
vn -0.707107 -0.680568 -0.191905
f 701/1/176 702/2/176 703/3/176 704/4/176
v 0.477500 0.250607 0.239410
v 0.477500 0.264692 0.189461
v 0.500000 0.258888 0.187830
v 0.500000 0.244805 0.237772
vn -0.258819 -0.929673 -0.262148
f 705/1/177 706/2/177 707/3/177 708/4/177
v 0.500000 0.244805 0.237772
v 0.500000 0.258888 0.187830
v 0.522500 0.264692 0.189461
v 0.522500 0.250607 0.239410
vn 0.258819 -0.929673 -0.262148
f 709/1/178 710/2/178 711/3/178 712/4/178
v 0.522500 0.250607 0.239410
v 0.522500 0.264692 0.189461
v 0.538971 0.280549 0.193915
v 0.538971 0.266458 0.243886
vn 0.707107 -0.680568 -0.191906
f 713/1/179 714/2/179 715/3/179 716/4/179
v 0.538971 0.266458 0.243886
v 0.538971 0.280549 0.193915
v 0.545000 0.302211 0.200000
v 0.545000 0.288112 0.250000
vn 0.965926 -0.249105 -0.070242
f 717/1/180 718/2/180 719/3/180 720/4/180
v 0.545000 0.302211 0.200000
v 0.545000 0.361082 -0.010375
v 0.538971 0.382760 -0.004350
v 0.538971 0.323872 0.206085
vn 0.965926 0.249244 0.069748
f 721/1/181 722/2/181 723/3/181 724/4/181
v 0.538971 0.323872 0.206085
v 0.538971 0.382760 -0.004350
v 0.522500 0.398630 0.000061
v 0.522500 0.339730 0.210539
vn 0.707107 0.680947 0.190556
f 725/1/182 726/2/182 727/3/182 728/4/182
v 0.522500 0.339730 0.210539
v 0.522500 0.398630 0.000061
v 0.500000 0.404439 0.001676
v 0.500000 0.345534 0.212170
vn 0.258819 0.930190 0.260305
f 729/1/183 730/2/183 731/3/183 732/4/183
v 0.500000 0.345534 0.212170
v 0.500000 0.404439 0.001676
v 0.477500 0.398630 0.000061
v 0.477500 0.339730 0.210539
vn -0.258819 0.930190 0.260305
f 733/1/184 734/2/184 735/3/184 736/4/184
v 0.477500 0.339730 0.210539
v 0.477500 0.398630 0.000061
v 0.461029 0.382760 -0.004350
v 0.461029 0.323872 0.206085
vn -0.707107 0.680947 0.190556
f 737/1/185 738/2/185 739/3/185 740/4/185
v 0.461029 0.323872 0.206085
v 0.461029 0.382760 -0.004350
v 0.455000 0.361082 -0.010375
v 0.455000 0.302211 0.200000
vn -0.965926 0.249244 0.069748
f 741/1/186 742/2/186 743/3/186 744/4/186
v 0.455000 0.302211 0.200000
v 0.455000 0.361082 -0.010375
v 0.461029 0.339404 -0.016400
v 0.461029 0.280549 0.193915
vn -0.965926 -0.249244 -0.069748
f 745/1/187 746/2/187 747/3/187 748/4/187
v 0.461029 0.280549 0.193915
v 0.461029 0.339404 -0.016400
v 0.477500 0.323534 -0.020811
v 0.477500 0.264692 0.189461
vn -0.707107 -0.680947 -0.190556
f 749/1/188 750/2/188 751/3/188 752/4/188
v 0.477500 0.264692 0.189461
v 0.477500 0.323534 -0.020811
v 0.500000 0.317726 -0.022426
v 0.500000 0.258888 0.187830
vn -0.258819 -0.930190 -0.260305
f 753/1/189 754/2/189 755/3/189 756/4/189
v 0.500000 0.258888 0.187830
v 0.500000 0.317726 -0.022426
v 0.522500 0.323534 -0.020811
v 0.522500 0.264692 0.189461
vn 0.258819 -0.930190 -0.260305
f 757/1/190 758/2/190 759/3/190 760/4/190
v 0.522500 0.264692 0.189461
v 0.522500 0.323534 -0.020811
v 0.538971 0.339404 -0.016400
v 0.538971 0.280549 0.193915
vn 0.707107 -0.680947 -0.190556
f 761/1/191 762/2/191 763/3/191 764/4/191
v 0.538971 0.280549 0.193915
v 0.538971 0.339404 -0.016400
v 0.545000 0.361082 -0.010375
v 0.545000 0.302211 0.200000
vn 0.965926 -0.249244 -0.069749
f 765/1/192 766/2/192 767/3/192 768/4/192
v 0.545000 0.361082 -0.010375
v 0.545000 0.419155 -0.220750
v 0.538971 0.440855 -0.214806
v 0.538971 0.382760 -0.004350
vn 0.965926 0.249488 0.068869
f 769/1/193 770/2/193 771/3/193 772/4/193
v 0.538971 0.382760 -0.004350
v 0.538971 0.440855 -0.214806
v 0.522500 0.456741 -0.210455
v 0.522500 0.398630 0.000061
vn 0.707106 0.681615 0.188154
f 773/1/194 774/2/194 775/3/194 776/4/194
v 0.522500 0.398630 0.000061
v 0.522500 0.456741 -0.210455
v 0.500000 0.462556 -0.208862
v 0.500000 0.404439 0.001676
vn 0.258819 0.931102 0.257024
f 777/1/195 778/2/195 779/3/195 780/4/195
v 0.500000 0.404439 0.001676
v 0.500000 0.462556 -0.208862
v 0.477500 0.456741 -0.210455
v 0.477500 0.398630 0.000061
vn -0.258819 0.931102 0.257024
f 781/1/196 782/2/196 783/3/196 784/4/196
v 0.477500 0.398630 0.000061
v 0.477500 0.456741 -0.210455
v 0.461029 0.440855 -0.214806
v 0.461029 0.382760 -0.004350
vn -0.707106 0.681615 0.188154
f 785/1/197 786/2/197 787/3/197 788/4/197
v 0.461029 0.382760 -0.004350
v 0.461029 0.440855 -0.214806
v 0.455000 0.419155 -0.220750
v 0.455000 0.361082 -0.010375
vn -0.965926 0.249488 0.068869
f 789/1/198 790/2/198 791/3/198 792/4/198
v 0.455000 0.361082 -0.010375
v 0.455000 0.419155 -0.220750
v 0.461029 0.397454 -0.226694
v 0.461029 0.339404 -0.016400
vn -0.965926 -0.249488 -0.068869
f 793/1/199 794/2/199 795/3/199 796/4/199
v 0.461029 0.339404 -0.016400
v 0.461029 0.397454 -0.226694
v 0.477500 0.381568 -0.231045
v 0.477500 0.323534 -0.020811
vn -0.707106 -0.681615 -0.188155
f 797/1/200 798/2/200 799/3/200 800/4/200
v 0.477500 0.323534 -0.020811
v 0.477500 0.381568 -0.231045
v 0.500000 0.375753 -0.232638
v 0.500000 0.317726 -0.022426
vn -0.258819 -0.931102 -0.257024
f 801/1/201 802/2/201 803/3/201 804/4/201
v 0.500000 0.317726 -0.022426
v 0.500000 0.375753 -0.232638
v 0.522500 0.381568 -0.231045
v 0.522500 0.323534 -0.020811
vn 0.258819 -0.931102 -0.257024
f 805/1/202 806/2/202 807/3/202 808/4/202
v 0.522500 0.323534 -0.020811
v 0.522500 0.381568 -0.231045
v 0.538971 0.397454 -0.226694
v 0.538971 0.339404 -0.016400
vn 0.707106 -0.681615 -0.188155
f 809/1/203 810/2/203 811/3/203 812/4/203
v 0.538971 0.339404 -0.016400
v 0.538971 0.397454 -0.226694
v 0.545000 0.419155 -0.220750
v 0.545000 0.361082 -0.010375
vn 0.965926 -0.249488 -0.068869
f 813/1/204 814/2/204 815/3/204 816/4/204
v 0.545000 0.419155 -0.220750
v 0.545000 0.476331 -0.431125
v 0.538971 0.498056 -0.425272
v 0.538971 0.440855 -0.214806
vn 0.965926 0.249759 0.067881
f 817/1/205 818/2/205 819/3/205 820/4/205
v 0.538971 0.440855 -0.214806
v 0.538971 0.498056 -0.425272
v 0.522500 0.513960 -0.420987
v 0.522500 0.456741 -0.210455
vn 0.707106 0.682355 0.185453
f 821/1/206 822/2/206 823/3/206 824/4/206
v 0.522500 0.456741 -0.210455
v 0.522500 0.513960 -0.420987
v 0.500000 0.519782 -0.419418
v 0.500000 0.462556 -0.208862
vn 0.258819 0.932113 0.253333
f 825/1/207 826/2/207 827/3/207 828/4/207
v 0.500000 0.462556 -0.208862
v 0.500000 0.519782 -0.419418
v 0.477500 0.513960 -0.420987
v 0.477500 0.456741 -0.210455
vn -0.258819 0.932113 0.253333
f 829/1/208 830/2/208 831/3/208 832/4/208
v 0.477500 0.456741 -0.210455
v 0.477500 0.513960 -0.420987
v 0.461029 0.498056 -0.425272
v 0.461029 0.440855 -0.214806
vn -0.707106 0.682355 0.185453
f 833/1/209 834/2/209 835/3/209 836/4/209
v 0.461029 0.440855 -0.214806
v 0.461029 0.498056 -0.425272
v 0.455000 0.476331 -0.431125
v 0.455000 0.419155 -0.220750
vn -0.965926 0.249759 0.067881
f 837/1/210 838/2/210 839/3/210 840/4/210
v 0.455000 0.419155 -0.220750
v 0.455000 0.476331 -0.431125
v 0.461029 0.454606 -0.436978
v 0.461029 0.397454 -0.226694
vn -0.965926 -0.249759 -0.067881
f 841/1/211 842/2/211 843/3/211 844/4/211
v 0.461029 0.397454 -0.226694
v 0.461029 0.454606 -0.436978
v 0.477500 0.438702 -0.441263
v 0.477500 0.381568 -0.231045
vn -0.707106 -0.682355 -0.185453
f 845/1/212 846/2/212 847/3/212 848/4/212
v 0.477500 0.381568 -0.231045
v 0.477500 0.438702 -0.441263
v 0.500000 0.432880 -0.442832
v 0.500000 0.375753 -0.232638
vn -0.258819 -0.932113 -0.253334
f 849/1/213 850/2/213 851/3/213 852/4/213
v 0.500000 0.375753 -0.232638
v 0.500000 0.432880 -0.442832
v 0.522500 0.438702 -0.441263
v 0.522500 0.381568 -0.231045
vn 0.258819 -0.932113 -0.253334
f 853/1/214 854/2/214 855/3/214 856/4/214
v 0.522500 0.381568 -0.231045
v 0.522500 0.438702 -0.441263
v 0.538971 0.454606 -0.436978
v 0.538971 0.397454 -0.226694
vn 0.707106 -0.682355 -0.185453
f 857/1/215 858/2/215 859/3/215 860/4/215
v 0.538971 0.397454 -0.226694
v 0.538971 0.454606 -0.436978
v 0.545000 0.476331 -0.431125
v 0.545000 0.419155 -0.220750
vn 0.965926 -0.249759 -0.067881
f 861/1/216 862/2/216 863/3/216 864/4/216
v 0.545000 0.476331 -0.431125
v 0.545000 0.532515 -0.641500
v 0.538971 0.554267 -0.635747
v 0.538971 0.498056 -0.425272
vn 0.965926 0.250056 0.066781
f 865/1/217 866/2/217 867/3/217 868/4/217
v 0.538971 0.498056 -0.425272
v 0.538971 0.554267 -0.635747
v 0.522500 0.570191 -0.631536
v 0.522500 0.513960 -0.420987
vn 0.707106 0.683164 0.182450
f 869/1/218 870/2/218 871/3/218 872/4/218
v 0.522500 0.513960 -0.420987
v 0.522500 0.570191 -0.631536
v 0.500000 0.576019 -0.629994
v 0.500000 0.519782 -0.419418
vn 0.258818 0.933219 0.249230
f 873/1/219 874/2/219 875/3/219 876/4/219
v 0.500000 0.519782 -0.419418
v 0.500000 0.576019 -0.629994
v 0.477500 0.570191 -0.631536
v 0.477500 0.513960 -0.420987
vn -0.258818 0.933219 0.249230
f 877/1/220 878/2/220 879/3/220 880/4/220
v 0.477500 0.513960 -0.420987
v 0.477500 0.570191 -0.631536
v 0.461029 0.554267 -0.635747
v 0.461029 0.498056 -0.425272
vn -0.707106 0.683164 0.182450
f 881/1/221 882/2/221 883/3/221 884/4/221
v 0.461029 0.498056 -0.425272
v 0.461029 0.554267 -0.635747
v 0.455000 0.532515 -0.641500
v 0.455000 0.476331 -0.431125
vn -0.965926 0.250056 0.066781
f 885/1/222 886/2/222 887/3/222 888/4/222
v 0.455000 0.476331 -0.431125
v 0.455000 0.532515 -0.641500
v 0.461029 0.510763 -0.647253
v 0.461029 0.454606 -0.436978
vn -0.965926 -0.250056 -0.066781
f 889/1/223 890/2/223 891/3/223 892/4/223
v 0.461029 0.454606 -0.436978
v 0.461029 0.510763 -0.647253
v 0.477500 0.494839 -0.651464
v 0.477500 0.438702 -0.441263
vn -0.707106 -0.683164 -0.182450
f 893/1/224 894/2/224 895/3/224 896/4/224
v 0.477500 0.438702 -0.441263
v 0.477500 0.494839 -0.651464
v 0.500000 0.489011 -0.653006
v 0.500000 0.432880 -0.442832
vn -0.258818 -0.933219 -0.249231
f 897/1/225 898/2/225 899/3/225 900/4/225
v 0.500000 0.432880 -0.442832
v 0.500000 0.489011 -0.653006
v 0.522500 0.494839 -0.651464
v 0.522500 0.438702 -0.441263
vn 0.258818 -0.933219 -0.249231
f 901/1/226 902/2/226 903/3/226 904/4/226
v 0.522500 0.438702 -0.441263
v 0.522500 0.494839 -0.651464
v 0.538971 0.510763 -0.647253
v 0.538971 0.454606 -0.436978
vn 0.707106 -0.683164 -0.182450
f 905/1/227 906/2/227 907/3/227 908/4/227
v 0.538971 0.454606 -0.436978
v 0.538971 0.510763 -0.647253
v 0.545000 0.532515 -0.641500
v 0.545000 0.476331 -0.431125
vn 0.965926 -0.250056 -0.066781
f 909/1/228 910/2/228 911/3/228 912/4/228
v 0.545000 0.532515 -0.641500
v 0.545000 0.587609 -0.851875
v 0.538971 0.609390 -0.846232
v 0.538971 0.554267 -0.635747
vn 0.965926 0.250376 0.065570
f 913/1/229 914/2/229 915/3/229 916/4/229
v 0.538971 0.554267 -0.635747
v 0.538971 0.609390 -0.846232
v 0.522500 0.625335 -0.842102
v 0.522500 0.570191 -0.631536
vn 0.707106 0.684039 0.179141
f 917/1/230 918/2/230 919/3/230 920/4/230
v 0.522500 0.570191 -0.631536
v 0.522500 0.625335 -0.842102
v 0.500000 0.631171 -0.840590
v 0.500000 0.576019 -0.629994
vn 0.258818 0.934414 0.244711
f 921/1/231 922/2/231 923/3/231 924/4/231
v 0.500000 0.576019 -0.629994
v 0.500000 0.631171 -0.840590
v 0.477500 0.625335 -0.842102
v 0.477500 0.570191 -0.631536
vn -0.258818 0.934414 0.244711
f 925/1/232 926/2/232 927/3/232 928/4/232
v 0.477500 0.570191 -0.631536
v 0.477500 0.625335 -0.842102
v 0.461029 0.609390 -0.846232
v 0.461029 0.554267 -0.635747
vn -0.707106 0.684039 0.179141
f 929/1/233 930/2/233 931/3/233 932/4/233
v 0.461029 0.554267 -0.635747
v 0.461029 0.609390 -0.846232
v 0.455000 0.587609 -0.851875
v 0.455000 0.532515 -0.641500
vn -0.965926 0.250376 0.065570
f 933/1/234 934/2/234 935/3/234 936/4/234
v 0.455000 0.532515 -0.641500
v 0.455000 0.587609 -0.851875
v 0.461029 0.565828 -0.857518
v 0.461029 0.510763 -0.647253
vn -0.965926 -0.250376 -0.065570
f 937/1/235 938/2/235 939/3/235 940/4/235
v 0.461029 0.510763 -0.647253
v 0.461029 0.565828 -0.857518
v 0.477500 0.549884 -0.861648
v 0.477500 0.494839 -0.651464
vn -0.707106 -0.684039 -0.179141
f 941/1/236 942/2/236 943/3/236 944/4/236
v 0.477500 0.494839 -0.651464
v 0.477500 0.549884 -0.861648
v 0.500000 0.544048 -0.863160
v 0.500000 0.489011 -0.653006
vn -0.258818 -0.934414 -0.244711
f 945/1/237 946/2/237 947/3/237 948/4/237
v 0.500000 0.489011 -0.653006
v 0.500000 0.544048 -0.863160
v 0.522500 0.549884 -0.861648
v 0.522500 0.494839 -0.651464
vn 0.258818 -0.934414 -0.244711
f 949/1/238 950/2/238 951/3/238 952/4/238
v 0.522500 0.494839 -0.651464
v 0.522500 0.549884 -0.861648
v 0.538971 0.565828 -0.857518
v 0.538971 0.510763 -0.647253
vn 0.707106 -0.684039 -0.179141
f 953/1/239 954/2/239 955/3/239 956/4/239
v 0.538971 0.510763 -0.647253
v 0.538971 0.565828 -0.857518
v 0.545000 0.587609 -0.851875
v 0.545000 0.532515 -0.641500
vn 0.965926 -0.250376 -0.065570
f 957/1/240 958/2/240 959/3/240 960/4/240
v 0.545000 0.587609 -0.851875
v 0.545000 0.641518 -1.062250
v 0.538971 0.663329 -1.056727
v 0.538971 0.609390 -0.846232
vn 0.965926 0.250719 0.064246
f 961/1/241 962/2/241 963/3/241 964/4/241
v 0.538971 0.609390 -0.846232
v 0.538971 0.663329 -1.056727
v 0.522500 0.679297 -1.052685
v 0.522500 0.625335 -0.842102
vn 0.707106 0.684977 0.175524
f 965/1/242 966/2/242 967/3/242 968/4/242
v 0.522500 0.625335 -0.842102
v 0.522500 0.679297 -1.052685
v 0.500000 0.685141 -1.051205
v 0.500000 0.631171 -0.840590
vn 0.258818 0.935694 0.239769
f 969/1/243 970/2/243 971/3/243 972/4/243
v 0.500000 0.631171 -0.840590
v 0.500000 0.685141 -1.051205
v 0.477500 0.679297 -1.052685
v 0.477500 0.625335 -0.842102
vn -0.258818 0.935694 0.239769
f 973/1/244 974/2/244 975/3/244 976/4/244
v 0.477500 0.625335 -0.842102
v 0.477500 0.679297 -1.052685
v 0.461029 0.663329 -1.056727
v 0.461029 0.609390 -0.846232
vn -0.707106 0.684977 0.175524
f 977/1/245 978/2/245 979/3/245 980/4/245
v 0.461029 0.609390 -0.846232
v 0.461029 0.663329 -1.056727
v 0.455000 0.641518 -1.062250
v 0.455000 0.587609 -0.851875
vn -0.965926 0.250719 0.064246
f 981/1/246 982/2/246 983/3/246 984/4/246
v 0.455000 0.587609 -0.851875
v 0.455000 0.641518 -1.062250
v 0.461029 0.619706 -1.067773
v 0.461029 0.565828 -0.857518
vn -0.965926 -0.250719 -0.064246
f 985/1/247 986/2/247 987/3/247 988/4/247
v 0.461029 0.565828 -0.857518
v 0.461029 0.619706 -1.067773
v 0.477500 0.603739 -1.071815
v 0.477500 0.549884 -0.861648
vn -0.707106 -0.684977 -0.175524
f 989/1/248 990/2/248 991/3/248 992/4/248
v 0.477500 0.549884 -0.861648
v 0.477500 0.603739 -1.071815
v 0.500000 0.597894 -1.073295
v 0.500000 0.544048 -0.863160
vn -0.258818 -0.935694 -0.239770
f 993/1/249 994/2/249 995/3/249 996/4/249
v 0.500000 0.544048 -0.863160
v 0.500000 0.597894 -1.073295
v 0.522500 0.603739 -1.071815
v 0.522500 0.549884 -0.861648
vn 0.258818 -0.935694 -0.239770
f 997/1/250 998/2/250 999/3/250 1000/4/250
v 0.522500 0.549884 -0.861648
v 0.522500 0.603739 -1.071815
v 0.538971 0.619706 -1.067773
v 0.538971 0.565828 -0.857518
vn 0.707106 -0.684977 -0.175524
f 1001/1/251 1002/2/251 1003/3/251 1004/4/251
v 0.538971 0.565828 -0.857518
v 0.538971 0.619706 -1.067773
v 0.545000 0.641518 -1.062250
v 0.545000 0.587609 -0.851875
vn 0.965926 -0.250719 -0.064246
f 1005/1/252 1006/2/252 1007/3/252 1008/4/252
v 0.545000 0.641518 -1.062250
v 0.545000 0.694143 -1.272625
v 0.538971 0.715987 -1.267232
v 0.538971 0.663329 -1.056727
vn 0.965926 0.251084 0.062808
f 1009/1/253 1010/2/253 1011/3/253 1012/4/253
v 0.538971 0.663329 -1.056727
v 0.538971 0.715987 -1.267232
v 0.522500 0.731978 -1.263285
v 0.522500 0.679297 -1.052685
vn 0.707105 0.685972 0.171595
f 1013/1/254 1014/2/254 1015/3/254 1016/4/254
v 0.522500 0.679297 -1.052685
v 0.522500 0.731978 -1.263285
v 0.500000 0.737831 -1.261840
v 0.500000 0.685141 -1.051205
vn 0.258818 0.937053 0.234402
f 1017/1/255 1018/2/255 1019/3/255 1020/4/255
v 0.500000 0.685141 -1.051205
v 0.500000 0.737831 -1.261840
v 0.477500 0.731978 -1.263285
v 0.477500 0.679297 -1.052685
vn -0.258818 0.937053 0.234402
f 1021/1/256 1022/2/256 1023/3/256 1024/4/256
v 0.477500 0.679297 -1.052685
v 0.477500 0.731978 -1.263285
v 0.461029 0.715987 -1.267232
v 0.461029 0.663329 -1.056727
vn -0.707105 0.685972 0.171595
f 1025/1/257 1026/2/257 1027/3/257 1028/4/257
v 0.461029 0.663329 -1.056727
v 0.461029 0.715987 -1.267232
v 0.455000 0.694143 -1.272625
v 0.455000 0.641518 -1.062250
vn -0.965926 0.251084 0.062808
f 1029/1/258 1030/2/258 1031/3/258 1032/4/258
v 0.455000 0.641518 -1.062250
v 0.455000 0.694143 -1.272625
v 0.461029 0.672298 -1.278018
v 0.461029 0.619706 -1.067773
vn -0.965926 -0.251084 -0.062808
f 1033/1/259 1034/2/259 1035/3/259 1036/4/259
v 0.461029 0.619706 -1.067773
v 0.461029 0.672298 -1.278018
v 0.477500 0.656307 -1.281965
v 0.477500 0.603739 -1.071815
vn -0.707105 -0.685972 -0.171595
f 1037/1/260 1038/2/260 1039/3/260 1040/4/260
v 0.477500 0.603739 -1.071815
v 0.477500 0.656307 -1.281965
v 0.500000 0.650454 -1.283410
v 0.500000 0.597894 -1.073295
vn -0.258818 -0.937053 -0.234403
f 1041/1/261 1042/2/261 1043/3/261 1044/4/261
v 0.500000 0.597894 -1.073295
v 0.500000 0.650454 -1.283410
v 0.522500 0.656307 -1.281965
v 0.522500 0.603739 -1.071815
vn 0.258818 -0.937053 -0.234403
f 1045/1/262 1046/2/262 1047/3/262 1048/4/262
v 0.522500 0.603739 -1.071815
v 0.522500 0.656307 -1.281965
v 0.538971 0.672298 -1.278018
v 0.538971 0.619706 -1.067773
vn 0.707105 -0.685972 -0.171595
f 1049/1/263 1050/2/263 1051/3/263 1052/4/263
v 0.538971 0.619706 -1.067773
v 0.538971 0.672298 -1.278018
v 0.545000 0.694143 -1.272625
v 0.545000 0.641518 -1.062250
vn 0.965926 -0.251084 -0.062808
f 1053/1/264 1054/2/264 1055/3/264 1056/4/264
v 0.545000 0.694143 -1.272625
v 0.545000 0.745388 -1.483000
v 0.538971 0.767266 -1.477748
v 0.538971 0.715987 -1.267232
vn 0.965926 0.251467 0.061255
f 1057/1/265 1058/2/265 1059/3/265 1060/4/265
v 0.538971 0.715987 -1.267232
v 0.538971 0.767266 -1.477748
v 0.522500 0.783282 -1.473902
v 0.522500 0.731978 -1.263285
vn 0.707105 0.687020 0.167351
f 1061/1/266 1062/2/266 1063/3/266 1064/4/266
v 0.522500 0.731978 -1.263285
v 0.522500 0.783282 -1.473902
v 0.500000 0.789144 -1.472495
v 0.500000 0.737831 -1.261840
vn 0.258818 0.938485 0.228605
f 1065/1/267 1066/2/267 1067/3/267 1068/4/267
v 0.500000 0.737831 -1.261840
v 0.500000 0.789144 -1.472495
v 0.477500 0.783282 -1.473902
v 0.477500 0.731978 -1.263285
vn -0.258818 0.938485 0.228605
f 1069/1/268 1070/2/268 1071/3/268 1072/4/268
v 0.477500 0.731978 -1.263285
v 0.477500 0.783282 -1.473902
v 0.461029 0.767266 -1.477748
v 0.461029 0.715987 -1.267232
vn -0.707105 0.687020 0.167350
f 1073/1/269 1074/2/269 1075/3/269 1076/4/269
v 0.461029 0.715987 -1.267232
v 0.461029 0.767266 -1.477748
v 0.455000 0.745388 -1.483000
v 0.455000 0.694143 -1.272625
vn -0.965926 0.251467 0.061255
f 1077/1/270 1078/2/270 1079/3/270 1080/4/270
v 0.455000 0.694143 -1.272625
v 0.455000 0.745388 -1.483000
v 0.461029 0.723509 -1.488252
v 0.461029 0.672298 -1.278018
vn -0.965926 -0.251467 -0.061255
f 1081/1/271 1082/2/271 1083/3/271 1084/4/271
v 0.461029 0.672298 -1.278018
v 0.461029 0.723509 -1.488252
v 0.477500 0.707493 -1.492098
v 0.477500 0.656307 -1.281965
vn -0.707105 -0.687020 -0.167351
f 1085/1/272 1086/2/272 1087/3/272 1088/4/272
v 0.477500 0.656307 -1.281965
v 0.477500 0.707493 -1.492098
v 0.500000 0.701631 -1.493505
v 0.500000 0.650454 -1.283410
vn -0.258818 -0.938484 -0.228605
f 1089/1/273 1090/2/273 1091/3/273 1092/4/273
v 0.500000 0.650454 -1.283410
v 0.500000 0.701631 -1.493505
v 0.522500 0.707493 -1.492098
v 0.522500 0.656307 -1.281965
vn 0.258818 -0.938484 -0.228605
f 1093/1/274 1094/2/274 1095/3/274 1096/4/274
v 0.522500 0.656307 -1.281965
v 0.522500 0.707493 -1.492098
v 0.538971 0.723509 -1.488252
v 0.538971 0.672298 -1.278018
vn 0.707105 -0.687020 -0.167351
f 1097/1/275 1098/2/275 1099/3/275 1100/4/275
v 0.538971 0.672298 -1.278018
v 0.538971 0.723509 -1.488252
v 0.545000 0.745388 -1.483000
v 0.545000 0.694143 -1.272625
vn 0.965926 -0.251467 -0.061255
f 1101/1/276 1102/2/276 1103/3/276 1104/4/276
v 0.545000 0.745388 -1.483000
v 0.545000 0.795156 -1.693375
v 0.538971 0.817070 -1.688273
v 0.538971 0.767266 -1.477748
vn 0.965925 0.251868 0.059584
f 1105/1/277 1106/2/277 1107/3/277 1108/4/277
v 0.538971 0.767266 -1.477748
v 0.538971 0.817070 -1.688273
v 0.522500 0.833112 -1.684538
v 0.522500 0.783282 -1.473902
vn 0.707105 0.688116 0.162787
f 1109/1/278 1110/2/278 1111/3/278 1112/4/278
v 0.522500 0.783282 -1.473902
v 0.522500 0.833112 -1.684538
v 0.500000 0.838984 -1.683171
v 0.500000 0.789144 -1.472495
vn 0.258818 0.939981 0.222371
f 1113/1/279 1114/2/279 1115/3/279 1116/4/279
v 0.500000 0.789144 -1.472495
v 0.500000 0.838984 -1.683171
v 0.477500 0.833112 -1.684538
v 0.477500 0.783282 -1.473902
vn -0.258818 0.939981 0.222371
f 1117/1/280 1118/2/280 1119/3/280 1120/4/280
v 0.477500 0.783282 -1.473902
v 0.477500 0.833112 -1.684538
v 0.461029 0.817070 -1.688273
v 0.461029 0.767266 -1.477748
vn -0.707105 0.688116 0.162787
f 1121/1/281 1122/2/281 1123/3/281 1124/4/281
v 0.461029 0.767266 -1.477748
v 0.461029 0.817070 -1.688273
v 0.455000 0.795156 -1.693375
v 0.455000 0.745388 -1.483000
vn -0.965925 0.251868 0.059584
f 1125/1/282 1126/2/282 1127/3/282 1128/4/282
v 0.455000 0.745388 -1.483000
v 0.455000 0.795156 -1.693375
v 0.461029 0.773242 -1.698477
v 0.461029 0.723509 -1.488252
vn -0.965925 -0.251868 -0.059584
f 1129/1/283 1130/2/283 1131/3/283 1132/4/283
v 0.461029 0.723509 -1.488252
v 0.461029 0.773242 -1.698477
v 0.477500 0.757200 -1.702212
v 0.477500 0.707493 -1.492098
vn -0.707105 -0.688116 -0.162787
f 1133/1/284 1134/2/284 1135/3/284 1136/4/284
v 0.477500 0.707493 -1.492098
v 0.477500 0.757200 -1.702212
v 0.500000 0.751328 -1.703579
v 0.500000 0.701631 -1.493505
vn -0.258818 -0.939981 -0.222371
f 1137/1/285 1138/2/285 1139/3/285 1140/4/285
v 0.500000 0.701631 -1.493505
v 0.500000 0.751328 -1.703579
v 0.522500 0.757200 -1.702212
v 0.522500 0.707493 -1.492098
vn 0.258818 -0.939981 -0.222371
f 1141/1/286 1142/2/286 1143/3/286 1144/4/286
v 0.522500 0.707493 -1.492098
v 0.522500 0.757200 -1.702212
v 0.538971 0.773242 -1.698477
v 0.538971 0.723509 -1.488252
vn 0.707105 -0.688116 -0.162787
f 1145/1/287 1146/2/287 1147/3/287 1148/4/287
v 0.538971 0.723509 -1.488252
v 0.538971 0.773242 -1.698477
v 0.545000 0.795156 -1.693375
v 0.545000 0.745388 -1.483000
vn 0.965925 -0.251868 -0.059584
f 1149/1/288 1150/2/288 1151/3/288 1152/4/288
v 0.545000 0.795156 -1.693375
v 0.545000 0.843351 -1.903750
v 0.538971 0.865301 -1.898809
v 0.538971 0.817070 -1.688273
vn 0.965925 0.252285 0.057796
f 1153/1/289 1154/2/289 1155/3/289 1156/4/289
v 0.538971 0.817070 -1.688273
v 0.538971 0.865301 -1.898809
v 0.522500 0.881370 -1.895191
v 0.522500 0.833112 -1.684538
vn 0.707105 0.689254 0.157901
f 1157/1/290 1158/2/290 1159/3/290 1160/4/290
v 0.522500 0.833112 -1.684538
v 0.522500 0.881370 -1.895191
v 0.500000 0.887252 -1.893867
v 0.500000 0.838984 -1.683171
vn 0.258818 0.941535 0.215696
f 1161/1/291 1162/2/291 1163/3/291 1164/4/291
v 0.500000 0.838984 -1.683171
v 0.500000 0.887252 -1.893867
v 0.477500 0.881370 -1.895191
v 0.477500 0.833112 -1.684538
vn -0.258818 0.941535 0.215696
f 1165/1/292 1166/2/292 1167/3/292 1168/4/292
v 0.477500 0.833112 -1.684538
v 0.477500 0.881370 -1.895191
v 0.461029 0.865301 -1.898809
v 0.461029 0.817070 -1.688273
vn -0.707105 0.689254 0.157901
f 1169/1/293 1170/2/293 1171/3/293 1172/4/293
v 0.461029 0.817070 -1.688273
v 0.461029 0.865301 -1.898809
v 0.455000 0.843351 -1.903750
v 0.455000 0.795156 -1.693375
vn -0.965925 0.252285 0.057796
f 1173/1/294 1174/2/294 1175/3/294 1176/4/294
v 0.455000 0.795156 -1.693375
v 0.455000 0.843351 -1.903750
v 0.461029 0.821400 -1.908691
v 0.461029 0.773242 -1.698477
vn -0.965925 -0.252285 -0.057796
f 1177/1/295 1178/2/295 1179/3/295 1180/4/295
v 0.461029 0.773242 -1.698477
v 0.461029 0.821400 -1.908691
v 0.477500 0.805331 -1.912309
v 0.477500 0.757200 -1.702212
vn -0.707105 -0.689254 -0.157901
f 1181/1/296 1182/2/296 1183/3/296 1184/4/296
v 0.477500 0.757200 -1.702212
v 0.477500 0.805331 -1.912309
v 0.500000 0.799449 -1.913633
v 0.500000 0.751328 -1.703579
vn -0.258818 -0.941535 -0.215696
f 1185/1/297 1186/2/297 1187/3/297 1188/4/297
v 0.500000 0.751328 -1.703579
v 0.500000 0.799449 -1.913633
v 0.522500 0.805331 -1.912309
v 0.522500 0.757200 -1.702212
vn 0.258818 -0.941535 -0.215696
f 1189/1/298 1190/2/298 1191/3/298 1192/4/298
v 0.522500 0.757200 -1.702212
v 0.522500 0.805331 -1.912309
v 0.538971 0.821400 -1.908691
v 0.538971 0.773242 -1.698477
vn 0.707105 -0.689254 -0.157901
f 1193/1/299 1194/2/299 1195/3/299 1196/4/299
v 0.538971 0.773242 -1.698477
v 0.538971 0.821400 -1.908691
v 0.545000 0.843351 -1.903750
v 0.545000 0.795156 -1.693375
vn 0.965925 -0.252285 -0.057796
f 1197/1/300 1198/2/300 1199/3/300 1200/4/300
v 0.545000 0.843351 -1.903750
v 0.545000 0.889875 -2.114125
v 0.538971 0.911863 -2.109355
v 0.538971 0.865301 -1.898809
vn 0.965925 0.252715 0.055888
f 1201/1/301 1202/2/301 1203/3/301 1204/4/301
v 0.538971 0.865301 -1.898809
v 0.538971 0.911863 -2.109355
v 0.522500 0.927960 -2.105863
v 0.522500 0.881370 -1.895191
vn 0.707104 0.690427 0.152688
f 1205/1/302 1206/2/302 1207/3/302 1208/4/302
v 0.522500 0.881370 -1.895191
v 0.522500 0.927960 -2.105863
v 0.500000 0.933852 -2.104584
v 0.500000 0.887252 -1.893867
vn 0.258817 0.943139 0.208574
f 1209/1/303 1210/2/303 1211/3/303 1212/4/303
v 0.500000 0.887252 -1.893867
v 0.500000 0.933852 -2.104584
v 0.477500 0.927960 -2.105863
v 0.477500 0.881370 -1.895191
vn -0.258817 0.943139 0.208574
f 1213/1/304 1214/2/304 1215/3/304 1216/4/304
v 0.477500 0.881370 -1.895191
v 0.477500 0.927960 -2.105863
v 0.461029 0.911863 -2.109355
v 0.461029 0.865301 -1.898809
vn -0.707104 0.690427 0.152688
f 1217/1/305 1218/2/305 1219/3/305 1220/4/305
v 0.461029 0.865301 -1.898809
v 0.461029 0.911863 -2.109355
v 0.455000 0.889875 -2.114125
v 0.455000 0.843351 -1.903750
vn -0.965925 0.252715 0.055888
f 1221/1/306 1222/2/306 1223/3/306 1224/4/306
v 0.455000 0.843351 -1.903750
v 0.455000 0.889875 -2.114125
v 0.461029 0.867886 -2.118895
v 0.461029 0.821400 -1.908691
vn -0.965925 -0.252715 -0.055888
f 1225/1/307 1226/2/307 1227/3/307 1228/4/307
v 0.461029 0.821400 -1.908691
v 0.461029 0.867886 -2.118895
v 0.477500 0.851790 -2.122387
v 0.477500 0.805331 -1.912309
vn -0.707104 -0.690427 -0.152688
f 1229/1/308 1230/2/308 1231/3/308 1232/4/308
v 0.477500 0.805331 -1.912309
v 0.477500 0.851790 -2.122387
v 0.500000 0.845898 -2.123666
v 0.500000 0.799449 -1.913633
vn -0.258817 -0.943138 -0.208575
f 1233/1/309 1234/2/309 1235/3/309 1236/4/309
v 0.500000 0.799449 -1.913633
v 0.500000 0.845898 -2.123666
v 0.522500 0.851790 -2.122387
v 0.522500 0.805331 -1.912309
vn 0.258817 -0.943138 -0.208575
f 1237/1/310 1238/2/310 1239/3/310 1240/4/310
v 0.522500 0.805331 -1.912309
v 0.522500 0.851790 -2.122387
v 0.538971 0.867886 -2.118895
v 0.538971 0.821400 -1.908691
vn 0.707104 -0.690427 -0.152688
f 1241/1/311 1242/2/311 1243/3/311 1244/4/311
v 0.538971 0.821400 -1.908691
v 0.538971 0.867886 -2.118895
v 0.545000 0.889875 -2.114125
v 0.545000 0.843351 -1.903750
vn 0.965925 -0.252715 -0.055888
f 1245/1/312 1246/2/312 1247/3/312 1248/4/312
v 0.545000 0.889875 -2.114125
v 0.545000 0.934632 -2.324500
v 0.538971 0.956659 -2.319911
v 0.538971 0.911863 -2.109355
vn 0.965925 0.253155 0.053859
f 1249/1/313 1250/2/313 1251/3/313 1252/4/313
v 0.538971 0.911863 -2.109355
v 0.538971 0.956659 -2.319911
v 0.522500 0.972784 -2.316552
v 0.522500 0.927960 -2.105863
vn 0.707104 0.691631 0.147144
f 1253/1/314 1254/2/314 1255/3/314 1256/4/314
v 0.522500 0.927960 -2.105863
v 0.522500 0.972784 -2.316552
v 0.500000 0.978686 -2.315323
v 0.500000 0.933852 -2.104584
vn 0.258817 0.944782 0.201001
f 1257/1/315 1258/2/315 1259/3/315 1260/4/315
v 0.500000 0.933852 -2.104584
v 0.500000 0.978686 -2.315323
v 0.477500 0.972784 -2.316552
v 0.477500 0.927960 -2.105863
vn -0.258817 0.944782 0.201001
f 1261/1/316 1262/2/316 1263/3/316 1264/4/316
v 0.477500 0.927960 -2.105863
v 0.477500 0.972784 -2.316552
v 0.461029 0.956659 -2.319911
v 0.461029 0.911863 -2.109355
vn -0.707104 0.691631 0.147144
f 1265/1/317 1266/2/317 1267/3/317 1268/4/317
v 0.461029 0.911863 -2.109355
v 0.461029 0.956659 -2.319911
v 0.455000 0.934632 -2.324500
v 0.455000 0.889875 -2.114125
vn -0.965925 0.253155 0.053858
f 1269/1/318 1270/2/318 1271/3/318 1272/4/318
v 0.455000 0.889875 -2.114125
v 0.455000 0.934632 -2.324500
v 0.461029 0.912605 -2.329089
v 0.461029 0.867886 -2.118895
vn -0.965925 -0.253155 -0.053859
f 1273/1/319 1274/2/319 1275/3/319 1276/4/319
v 0.461029 0.867886 -2.118895
v 0.461029 0.912605 -2.329089
v 0.477500 0.896480 -2.332448
v 0.477500 0.851790 -2.122387
vn -0.707104 -0.691630 -0.147144
f 1277/1/320 1278/2/320 1279/3/320 1280/4/320
v 0.477500 0.851790 -2.122387
v 0.477500 0.896480 -2.332448
v 0.500000 0.890578 -2.333677
v 0.500000 0.845898 -2.123666
vn -0.258817 -0.944782 -0.201002
f 1281/1/321 1282/2/321 1283/3/321 1284/4/321
v 0.500000 0.845898 -2.123666
v 0.500000 0.890578 -2.333677
v 0.522500 0.896480 -2.332448
v 0.522500 0.851790 -2.122387
vn 0.258817 -0.944782 -0.201002
f 1285/1/322 1286/2/322 1287/3/322 1288/4/322
v 0.522500 0.851790 -2.122387
v 0.522500 0.896480 -2.332448
v 0.538971 0.912605 -2.329089
v 0.538971 0.867886 -2.118895
vn 0.707104 -0.691630 -0.147144
f 1289/1/323 1290/2/323 1291/3/323 1292/4/323
v 0.538971 0.867886 -2.118895
v 0.538971 0.912605 -2.329089
v 0.545000 0.934632 -2.324500
v 0.545000 0.889875 -2.114125
vn 0.965925 -0.253155 -0.053859
f 1293/1/324 1294/2/324 1295/3/324 1296/4/324
v 0.545000 0.934632 -2.324500
v 0.545000 0.977525 -2.534875
v 0.538971 0.999591 -2.530479
v 0.538971 0.956659 -2.319911
vn 0.965925 0.253604 0.051707
f 1297/1/325 1298/2/325 1299/3/325 1300/4/325
v 0.538971 0.956659 -2.319911
v 0.538971 0.999591 -2.530479
v 0.522500 1.015745 -2.527261
v 0.522500 0.972784 -2.316552
vn 0.707104 0.692855 0.141265
f 1301/1/326 1302/2/326 1303/3/326 1304/4/326
v 0.522500 0.972784 -2.316552
v 0.522500 1.015745 -2.527261
v 0.500000 1.021658 -2.526083
v 0.500000 0.978686 -2.315323
vn 0.258817 0.946454 0.192971
f 1305/1/327 1306/2/327 1307/3/327 1308/4/327
v 0.500000 0.978686 -2.315323
v 0.500000 1.021658 -2.526083
v 0.477500 1.015745 -2.527261
v 0.477500 0.972784 -2.316552
vn -0.258817 0.946454 0.192971
f 1309/1/328 1310/2/328 1311/3/328 1312/4/328
v 0.477500 0.972784 -2.316552
v 0.477500 1.015745 -2.527261
v 0.461029 0.999591 -2.530479
v 0.461029 0.956659 -2.319911
vn -0.707104 0.692855 0.141265
f 1313/1/329 1314/2/329 1315/3/329 1316/4/329
v 0.461029 0.956659 -2.319911
v 0.461029 0.999591 -2.530479
v 0.455000 0.977525 -2.534875
v 0.455000 0.934632 -2.324500
vn -0.965925 0.253604 0.051707
f 1317/1/330 1318/2/330 1319/3/330 1320/4/330
v 0.455000 0.934632 -2.324500
v 0.455000 0.977525 -2.534875
v 0.461029 0.955459 -2.539271
v 0.461029 0.912605 -2.329089
vn -0.965925 -0.253604 -0.051707
f 1321/1/331 1322/2/331 1323/3/331 1324/4/331
v 0.461029 0.912605 -2.329089
v 0.461029 0.955459 -2.539271
v 0.477500 0.939305 -2.542489
v 0.477500 0.896480 -2.332448
vn -0.707104 -0.692855 -0.141265
f 1325/1/332 1326/2/332 1327/3/332 1328/4/332
v 0.477500 0.896480 -2.332448
v 0.477500 0.939305 -2.542489
v 0.500000 0.933392 -2.543667
v 0.500000 0.890578 -2.333677
vn -0.258817 -0.946454 -0.192971
f 1329/1/333 1330/2/333 1331/3/333 1332/4/333
v 0.500000 0.890578 -2.333677
v 0.500000 0.933392 -2.543667
v 0.522500 0.939305 -2.542489
v 0.522500 0.896480 -2.332448
vn 0.258817 -0.946454 -0.192971
f 1333/1/334 1334/2/334 1335/3/334 1336/4/334
v 0.522500 0.896480 -2.332448
v 0.522500 0.939305 -2.542489
v 0.538971 0.955459 -2.539271
v 0.538971 0.912605 -2.329089
vn 0.707104 -0.692855 -0.141265
f 1337/1/335 1338/2/335 1339/3/335 1340/4/335
v 0.538971 0.912605 -2.329089
v 0.538971 0.955459 -2.539271
v 0.545000 0.977525 -2.534875
v 0.545000 0.934632 -2.324500
vn 0.965925 -0.253604 -0.051707
f 1341/1/336 1342/2/336 1343/3/336 1344/4/336
v 0.545000 0.977525 -2.534875
v 0.545000 1.018457 -2.745250
v 0.538971 1.040563 -2.741057
v 0.538971 0.999591 -2.530479
vn 0.965925 0.254057 0.049431
f 1345/1/337 1346/2/337 1347/3/337 1348/4/337
v 0.538971 0.999591 -2.530479
v 0.538971 1.040563 -2.741057
v 0.522500 1.056746 -2.737988
v 0.522500 1.015745 -2.527261
vn 0.707103 0.694094 0.135048
f 1349/1/338 1350/2/338 1351/3/338 1352/4/338
v 0.522500 1.015745 -2.527261
v 0.522500 1.056746 -2.737988
v 0.500000 1.062669 -2.736864
v 0.500000 1.021658 -2.526083
vn 0.258817 0.948146 0.184478
f 1353/1/339 1354/2/339 1355/3/339 1356/4/339
v 0.500000 1.021658 -2.526083
v 0.500000 1.062669 -2.736864
v 0.477500 1.056746 -2.737988
v 0.477500 1.015745 -2.527261
vn -0.258817 0.948146 0.184478
f 1357/1/340 1358/2/340 1359/3/340 1360/4/340
v 0.477500 1.015745 -2.527261
v 0.477500 1.056746 -2.737988
v 0.461029 1.040563 -2.741057
v 0.461029 0.999591 -2.530479
vn -0.707103 0.694094 0.135048
f 1361/1/341 1362/2/341 1363/3/341 1364/4/341
v 0.461029 0.999591 -2.530479
v 0.461029 1.040563 -2.741057
v 0.455000 1.018457 -2.745250
v 0.455000 0.977525 -2.534875
vn -0.965925 0.254057 0.049431
f 1365/1/342 1366/2/342 1367/3/342 1368/4/342
v 0.455000 0.977525 -2.534875
v 0.455000 1.018457 -2.745250
v 0.461029 0.996351 -2.749443
v 0.461029 0.955459 -2.539271
vn -0.965925 -0.254057 -0.049431
f 1369/1/343 1370/2/343 1371/3/343 1372/4/343
v 0.461029 0.955459 -2.539271
v 0.461029 0.996351 -2.749443
v 0.477500 0.980169 -2.752512
v 0.477500 0.939305 -2.542489
vn -0.707103 -0.694094 -0.135048
f 1373/1/344 1374/2/344 1375/3/344 1376/4/344
v 0.477500 0.939305 -2.542489
v 0.477500 0.980169 -2.752512
v 0.500000 0.974245 -2.753636
v 0.500000 0.933392 -2.543667
vn -0.258817 -0.948146 -0.184479
f 1377/1/345 1378/2/345 1379/3/345 1380/4/345
v 0.500000 0.933392 -2.543667
v 0.500000 0.974245 -2.753636
v 0.522500 0.980169 -2.752512
v 0.522500 0.939305 -2.542489
vn 0.258817 -0.948146 -0.184479
f 1381/1/346 1382/2/346 1383/3/346 1384/4/346
v 0.522500 0.939305 -2.542489
v 0.522500 0.980169 -2.752512
v 0.538971 0.996351 -2.749443
v 0.538971 0.955459 -2.539271
vn 0.707103 -0.694094 -0.135048
f 1385/1/347 1386/2/347 1387/3/347 1388/4/347
v 0.538971 0.955459 -2.539271
v 0.538971 0.996351 -2.749443
v 0.545000 1.018457 -2.745250
v 0.545000 0.977525 -2.534875
vn 0.965925 -0.254057 -0.049431
f 1389/1/348 1390/2/348 1391/3/348 1392/4/348
v 0.545000 1.018457 -2.745250
v 0.545000 1.057332 -2.955625
v 0.538971 1.079478 -2.951651
v 0.538971 1.040563 -2.741057
vn 0.965925 0.254513 0.047031
f 1393/1/349 1394/2/349 1395/3/349 1396/4/349
v 0.538971 1.040563 -2.741057
v 0.538971 1.079478 -2.951651
v 0.522500 1.095690 -2.948741
v 0.522500 1.056746 -2.737988
vn 0.707103 0.695339 0.128489
f 1397/1/350 1398/2/350 1399/3/350 1400/4/350
v 0.522500 1.056746 -2.737988
v 0.522500 1.095690 -2.948741
v 0.500000 1.101624 -2.947677
v 0.500000 1.062669 -2.736864
vn 0.258816 0.949846 0.175518
f 1401/1/351 1402/2/351 1403/3/351 1404/4/351
v 0.500000 1.062669 -2.736864
v 0.500000 1.101624 -2.947677
v 0.477500 1.095690 -2.948741
v 0.477500 1.056746 -2.737988
vn -0.258816 0.949846 0.175518
f 1405/1/352 1406/2/352 1407/3/352 1408/4/352
v 0.477500 1.056746 -2.737988
v 0.477500 1.095690 -2.948741
v 0.461029 1.079478 -2.951651
v 0.461029 1.040563 -2.741057
vn -0.707103 0.695339 0.128489
f 1409/1/353 1410/2/353 1411/3/353 1412/4/353
v 0.461029 1.040563 -2.741057
v 0.461029 1.079478 -2.951651
v 0.455000 1.057332 -2.955625
v 0.455000 1.018457 -2.745250
vn -0.965925 0.254513 0.047030
f 1413/1/354 1414/2/354 1415/3/354 1416/4/354
v 0.455000 1.018457 -2.745250
v 0.455000 1.057332 -2.955625
v 0.461029 1.035185 -2.959599
v 0.461029 0.996351 -2.749443
vn -0.965925 -0.254513 -0.047031
f 1417/1/355 1418/2/355 1419/3/355 1420/4/355
v 0.461029 0.996351 -2.749443
v 0.461029 1.035185 -2.959599
v 0.477500 1.018973 -2.962509
v 0.477500 0.980169 -2.752512
vn -0.707103 -0.695339 -0.128489
f 1421/1/356 1422/2/356 1423/3/356 1424/4/356
v 0.477500 0.980169 -2.752512
v 0.477500 1.018973 -2.962509
v 0.500000 1.013039 -2.963573
v 0.500000 0.974245 -2.753636
vn -0.258816 -0.949846 -0.175519
f 1425/1/357 1426/2/357 1427/3/357 1428/4/357
v 0.500000 0.974245 -2.753636
v 0.500000 1.013039 -2.963573
v 0.522500 1.018973 -2.962509
v 0.522500 0.980169 -2.752512
vn 0.258816 -0.949846 -0.175519
f 1429/1/358 1430/2/358 1431/3/358 1432/4/358
v 0.522500 0.980169 -2.752512
v 0.522500 1.018973 -2.962509
v 0.538971 1.035185 -2.959599
v 0.538971 0.996351 -2.749443
vn 0.707103 -0.695339 -0.128489
f 1433/1/359 1434/2/359 1435/3/359 1436/4/359
v 0.538971 0.996351 -2.749443
v 0.538971 1.035185 -2.959599
v 0.545000 1.057332 -2.955625
v 0.545000 1.018457 -2.745250
vn 0.965925 -0.254513 -0.047031
f 1437/1/360 1438/2/360 1439/3/360 1440/4/360
v 0.545000 1.057332 -2.955625
v 0.545000 1.093965 -3.166000
v 0.538971 1.116209 -3.162617
v 0.538971 1.079478 -2.951651
vn 0.965925 0.254985 0.044401
f 1441/1/361 1442/2/361 1443/3/361 1444/4/361
v 0.538971 1.079478 -2.951651
v 0.538971 1.116209 -3.162617
v 0.522500 1.132493 -3.160140
v 0.522500 1.095690 -2.948741
vn 0.707102 0.696631 0.121290
f 1445/1/362 1446/2/362 1447/3/362 1448/4/362
v 0.522500 1.095690 -2.948741
v 0.522500 1.132493 -3.160140
v 0.500000 1.138453 -3.159233
v 0.500000 1.101624 -2.947677
vn 0.258816 0.951613 0.165669
f 1449/1/363 1450/2/363 1451/3/363 1452/4/363
v 0.500000 1.101624 -2.947677
v 0.500000 1.138453 -3.159233
v 0.477500 1.132493 -3.160140
v 0.477500 1.095690 -2.948741
vn -0.258816 0.951614 0.165663
f 1453/1/364 1454/2/364 1455/3/364 1456/4/364
v 0.477500 1.095690 -2.948741
v 0.477500 1.132493 -3.160140
v 0.461029 1.116209 -3.162617
v 0.461029 1.079478 -2.951651
vn -0.707102 0.696633 0.121279
f 1457/1/365 1458/2/365 1459/3/365 1460/4/365
v 0.461029 1.079478 -2.951651
v 0.461029 1.116209 -3.162617
v 0.455000 1.093965 -3.166000
v 0.455000 1.057332 -2.955625
vn -0.965925 0.254986 0.044396
f 1461/1/366 1462/2/366 1463/3/366 1464/4/366
v 0.455000 1.057332 -2.955625
v 0.455000 1.093965 -3.166000
v 0.461029 1.071721 -3.169383
v 0.461029 1.035185 -2.959599
vn -0.965925 -0.254985 -0.044401
f 1465/1/367 1466/2/367 1467/3/367 1468/4/367
v 0.461029 1.035185 -2.959599
v 0.461029 1.071721 -3.169383
v 0.477500 1.055437 -3.171860
v 0.477500 1.018973 -2.962509
vn -0.707102 -0.696626 -0.121322
f 1469/1/368 1470/2/368 1471/3/368 1472/4/368
v 0.477500 1.018973 -2.962509
v 0.477500 1.055437 -3.171860
v 0.500000 1.049477 -3.172767
v 0.500000 1.013039 -2.963573
vn -0.258816 -0.951600 -0.165744
f 1473/1/369 1474/2/369 1475/3/369 1476/4/369
v 0.500000 1.013039 -2.963573
v 0.500000 1.049477 -3.172767
v 0.522500 1.055437 -3.171860
v 0.522500 1.018973 -2.962509
vn 0.258816 -0.951599 -0.165750
f 1477/1/370 1478/2/370 1479/3/370 1480/4/370
v 0.522500 1.018973 -2.962509
v 0.522500 1.055437 -3.171860
v 0.538971 1.071721 -3.169383
v 0.538971 1.035185 -2.959599
vn 0.707102 -0.696624 -0.121334
f 1481/1/371 1482/2/371 1483/3/371 1484/4/371
v 0.538971 1.035185 -2.959599
v 0.538971 1.071721 -3.169383
v 0.545000 1.093965 -3.166000
v 0.545000 1.057332 -2.955625
vn 0.965925 -0.254984 -0.044407
f 1485/1/372 1486/2/372 1487/3/372 1488/4/372
v 0.545000 1.093965 -3.166000
v 0.545000 1.121360 -3.376375
v 0.538971 1.143732 -3.373973
v 0.538971 1.116209 -3.162617
vn 0.965911 0.256707 0.033429
f 1489/1/373 1490/2/373 1491/3/373 1492/4/373
v 0.538971 1.116209 -3.162617
v 0.538971 1.143732 -3.373973
v 0.522500 1.160109 -3.372215
v 0.522500 1.132493 -3.160140
vn 0.707025 0.701267 0.091319
f 1493/1/374 1494/2/374 1495/3/374 1496/4/374
v 0.522500 1.132493 -3.160140
v 0.522500 1.160109 -3.372215
v 0.500000 1.166103 -3.371571
v 0.500000 1.138453 -3.159233
vn 0.258763 0.957854 0.124729
f 1497/1/375 1498/2/375 1499/3/375 1500/4/375
v 0.500000 1.138453 -3.159233
v 0.500000 1.166103 -3.371571
v 0.477500 1.160109 -3.372215
v 0.477500 1.132493 -3.160140
vn -0.258763 0.957854 0.124729
f 1501/1/376 1502/2/376 1503/3/376 1504/4/376
v 0.477500 1.132493 -3.160140
v 0.477500 1.160109 -3.372215
v 0.461029 1.143732 -3.373973
v 0.461029 1.116209 -3.162617
vn -0.707025 0.701268 0.091317
f 1505/1/377 1506/2/377 1507/3/377 1508/4/377
v 0.461029 1.116209 -3.162617
v 0.461029 1.143732 -3.373973
v 0.455000 1.121360 -3.376375
v 0.455000 1.093965 -3.166000
vn -0.965911 0.256707 0.033428
f 1509/1/378 1510/2/378 1511/3/378 1512/4/378
v 0.455000 1.093965 -3.166000
v 0.455000 1.121360 -3.376375
v 0.461029 1.098989 -3.378777
v 0.461029 1.071721 -3.169383
vn -0.965911 -0.256707 -0.033429
f 1513/1/379 1514/2/379 1515/3/379 1516/4/379
v 0.461029 1.071721 -3.169383
v 0.461029 1.098989 -3.378777
v 0.477500 1.082612 -3.380535
v 0.477500 1.055437 -3.171860
vn -0.707025 -0.701267 -0.091322
f 1517/1/380 1518/2/380 1519/3/380 1520/4/380
v 0.477500 1.055437 -3.171860
v 0.477500 1.082612 -3.380535
v 0.500000 1.076617 -3.381179
v 0.500000 1.049477 -3.172767
vn -0.258763 -0.957853 -0.124738
f 1521/1/381 1522/2/381 1523/3/381 1524/4/381
v 0.500000 1.049477 -3.172767
v 0.500000 1.076617 -3.381179
v 0.522500 1.082612 -3.380535
v 0.522500 1.055437 -3.171860
vn 0.258763 -0.957853 -0.124738
f 1525/1/382 1526/2/382 1527/3/382 1528/4/382
v 0.522500 1.055437 -3.171860
v 0.522500 1.082612 -3.380535
v 0.538971 1.098989 -3.378777
v 0.538971 1.071721 -3.169383
vn 0.707025 -0.701267 -0.091323
f 1529/1/383 1530/2/383 1531/3/383 1532/4/383
v 0.538971 1.071721 -3.169383
v 0.538971 1.098989 -3.378777
v 0.545000 1.121360 -3.376375
v 0.545000 1.093965 -3.166000
vn 0.965911 -0.256707 -0.033430
f 1533/1/384 1534/2/384 1535/3/384 1536/4/384
v 0.545000 1.121360 -3.376375
v 0.545000 1.139161 -3.586750
v 0.538971 1.161602 -3.585131
v 0.538971 1.143732 -3.373973
vn 0.965909 0.257959 0.021826
f 1537/1/385 1538/2/385 1539/3/385 1540/4/385
v 0.538971 1.143732 -3.373973
v 0.538971 1.161602 -3.585131
v 0.522500 1.178031 -3.583945
v 0.522500 1.160109 -3.372215
vn 0.707017 0.704677 0.059638
f 1541/1/386 1542/2/386 1543/3/386 1544/4/386
v 0.522500 1.160109 -3.372215
v 0.522500 1.178031 -3.583945
v 0.500000 1.184044 -3.583511
v 0.500000 1.166103 -3.371571
vn 0.258758 0.962500 0.081471
f 1545/1/387 1546/2/387 1547/3/387 1548/4/387
v 0.500000 1.166103 -3.371571
v 0.500000 1.184044 -3.583511
v 0.477500 1.178031 -3.583945
v 0.477500 1.160109 -3.372215
vn -0.258758 0.962500 0.081476
f 1549/1/388 1550/2/388 1551/3/388 1552/4/388
v 0.477500 1.160109 -3.372215
v 0.477500 1.178031 -3.583945
v 0.461029 1.161602 -3.585131
v 0.461029 1.143732 -3.373973
vn -0.707017 0.704676 0.059647
f 1553/1/389 1554/2/389 1555/3/389 1556/4/389
v 0.461029 1.143732 -3.373973
v 0.461029 1.161602 -3.585131
v 0.455000 1.139161 -3.586750
v 0.455000 1.121360 -3.376375
vn -0.965909 0.257958 0.021831
f 1557/1/390 1558/2/390 1559/3/390 1560/4/390
v 0.455000 1.121360 -3.376375
v 0.455000 1.139161 -3.586750
v 0.461029 1.116719 -3.588369
v 0.461029 1.098989 -3.378777
vn -0.965909 -0.257959 -0.021826
f 1561/1/391 1562/2/391 1563/3/391 1564/4/391
v 0.461029 1.098989 -3.378777
v 0.461029 1.116719 -3.588369
v 0.477500 1.100291 -3.589555
v 0.477500 1.082612 -3.380535
vn -0.707017 -0.704680 -0.059611
f 1565/1/392 1566/2/392 1567/3/392 1568/4/392
v 0.477500 1.082612 -3.380535
v 0.477500 1.100291 -3.589555
v 0.500000 1.094277 -3.589989
v 0.500000 1.076617 -3.381179
vn -0.258758 -0.962506 -0.081408
f 1569/1/393 1570/2/393 1571/3/393 1572/4/393
v 0.500000 1.076617 -3.381179
v 0.500000 1.094277 -3.589989
v 0.522500 1.100291 -3.589555
v 0.522500 1.082612 -3.380535
vn 0.258757 -0.962506 -0.081403
f 1573/1/394 1574/2/394 1575/3/394 1576/4/394
v 0.522500 1.082612 -3.380535
v 0.522500 1.100291 -3.589555
v 0.538971 1.116719 -3.588369
v 0.538971 1.098989 -3.378777
vn 0.707017 -0.704681 -0.059601
f 1577/1/395 1578/2/395 1579/3/395 1580/4/395
v 0.538971 1.098989 -3.378777
v 0.538971 1.116719 -3.588369
v 0.545000 1.139161 -3.586750
v 0.545000 1.121360 -3.376375
vn 0.965909 -0.257959 -0.021822
f 1581/1/396 1582/2/396 1583/3/396 1584/4/396
v 0.545000 1.139161 -3.586750
v 0.545000 1.151727 -3.797125
v 0.538971 1.174208 -3.796212
v 0.538971 1.161602 -3.585131
vn 0.965921 0.258377 0.015433
f 1585/1/397 1586/2/397 1587/3/397 1588/4/397
v 0.538971 1.161602 -3.585131
v 0.538971 1.174208 -3.796212
v 0.522500 1.190666 -3.795544
v 0.522500 1.178031 -3.583945
vn 0.707080 0.705876 0.042156
f 1589/1/398 1590/2/398 1591/3/398 1592/4/398
v 0.522500 1.178031 -3.583945
v 0.522500 1.190666 -3.795544
v 0.500000 1.196690 -3.795299
v 0.500000 1.184044 -3.583511
vn 0.258800 0.964213 0.057576
f 1593/1/399 1594/2/399 1595/3/399 1596/4/399
v 0.500000 1.184044 -3.583511
v 0.500000 1.196690 -3.795299
v 0.477500 1.190666 -3.795544
v 0.477500 1.178031 -3.583945
vn -0.258800 0.964214 0.057573
f 1597/1/400 1598/2/400 1599/3/400 1600/4/400
v 0.477500 1.178031 -3.583945
v 0.477500 1.190666 -3.795544
v 0.461029 1.174208 -3.796212
v 0.461029 1.161602 -3.585131
vn -0.707080 0.705877 0.042150
f 1601/1/401 1602/2/401 1603/3/401 1604/4/401
v 0.461029 1.161602 -3.585131
v 0.461029 1.174208 -3.796212
v 0.455000 1.151727 -3.797125
v 0.455000 1.139161 -3.586750
vn -0.965921 0.258377 0.015431
f 1605/1/402 1606/2/402 1607/3/402 1608/4/402
v 0.455000 1.139161 -3.586750
v 0.455000 1.151727 -3.797125
v 0.461029 1.129245 -3.798038
v 0.461029 1.116719 -3.588369
vn -0.965921 -0.258377 -0.015433
f 1609/1/403 1610/2/403 1611/3/403 1612/4/403
v 0.461029 1.116719 -3.588369
v 0.461029 1.129245 -3.798038
v 0.477500 1.112788 -3.798706
v 0.477500 1.100291 -3.589555
vn -0.707080 -0.705875 -0.042171
f 1613/1/404 1614/2/404 1615/3/404 1616/4/404
v 0.477500 1.100291 -3.589555
v 0.477500 1.112788 -3.798706
v 0.500000 1.106764 -3.798951
v 0.500000 1.094277 -3.589989
vn -0.258801 -0.964211 -0.057613
f 1617/1/405 1618/2/405 1619/3/405 1620/4/405
v 0.500000 1.094277 -3.589989
v 0.500000 1.106764 -3.798951
v 0.522500 1.112788 -3.798706
v 0.522500 1.100291 -3.589555
vn 0.258801 -0.964211 -0.057616
f 1621/1/406 1622/2/406 1623/3/406 1624/4/406
v 0.522500 1.100291 -3.589555
v 0.522500 1.112788 -3.798706
v 0.538971 1.129245 -3.798038
v 0.538971 1.116719 -3.588369
vn 0.707080 -0.705875 -0.042177
f 1625/1/407 1626/2/407 1627/3/407 1628/4/407
v 0.538971 1.116719 -3.588369
v 0.538971 1.129245 -3.798038
v 0.545000 1.151727 -3.797125
v 0.545000 1.139161 -3.586750
vn 0.965921 -0.258377 -0.015436
f 1629/1/408 1630/2/408 1631/3/408 1632/4/408
v 0.545000 1.151727 -3.797125
v 0.545000 1.156250 -4.007500
v 0.538971 1.178745 -4.007016
v 0.538971 1.174208 -3.796212
vn 0.965914 0.258803 0.005564
f 1633/1/409 1634/2/409 1635/3/409 1636/4/409
v 0.538971 1.174208 -3.796212
v 0.538971 1.178745 -4.007016
v 0.522500 1.195212 -4.006662
v 0.522500 1.190666 -3.795544
vn 0.707043 0.707007 0.015215
f 1637/1/410 1638/2/410 1639/3/410 1640/4/410
v 0.522500 1.190666 -3.795544
v 0.522500 1.195212 -4.006662
v 0.500000 1.201240 -4.006533
v 0.500000 1.196690 -3.795299
vn 0.258775 0.965714 0.020796
f 1641/1/411 1642/2/411 1643/3/411 1644/4/411
v 0.500000 1.196690 -3.795299
v 0.500000 1.201240 -4.006533
v 0.477500 1.195212 -4.006662
v 0.477500 1.190666 -3.795544
vn -0.258775 0.965714 0.020801
f 1645/1/412 1646/2/412 1647/3/412 1648/4/412
v 0.477500 1.190666 -3.795544
v 0.477500 1.195212 -4.006662
v 0.461029 1.178745 -4.007016
v 0.461029 1.174208 -3.796212
vn -0.707043 0.707007 0.015225
f 1649/1/413 1650/2/413 1651/3/413 1652/4/413
v 0.461029 1.174208 -3.796212
v 0.461029 1.178745 -4.007016
v 0.455000 1.156250 -4.007500
v 0.455000 1.151727 -3.797125
vn -0.965914 0.258803 0.005569
f 1653/1/414 1654/2/414 1655/3/414 1656/4/414
v 0.455000 1.151727 -3.797125
v 0.455000 1.156250 -4.007500
v 0.461029 1.133755 -4.007984
v 0.461029 1.129245 -3.798038
vn -0.965914 -0.258803 -0.005564
f 1657/1/415 1658/2/415 1659/3/415 1660/4/415
v 0.461029 1.129245 -3.798038
v 0.461029 1.133755 -4.007984
v 0.477500 1.117288 -4.008338
v 0.477500 1.112788 -3.798706
vn -0.707042 -0.707008 -0.015187
f 1661/1/416 1662/2/416 1663/3/416 1664/4/416
v 0.477500 1.112788 -3.798706
v 0.477500 1.117288 -4.008338
v 0.500000 1.111260 -4.008467
v 0.500000 1.106764 -3.798951
vn -0.258775 -0.965715 -0.020731
f 1665/1/417 1666/2/417 1667/3/417 1668/4/417
v 0.500000 1.106764 -3.798951
v 0.500000 1.111260 -4.008467
v 0.522500 1.117288 -4.008338
v 0.522500 1.112788 -3.798706
vn 0.258775 -0.965715 -0.020726
f 1669/1/418 1670/2/418 1671/3/418 1672/4/418
v 0.522500 1.112788 -3.798706
v 0.522500 1.117288 -4.008338
v 0.538971 1.133755 -4.007984
v 0.538971 1.129245 -3.798038
vn 0.707042 -0.707008 -0.015177
f 1673/1/419 1674/2/419 1675/3/419 1676/4/419
v 0.538971 1.129245 -3.798038
v 0.538971 1.133755 -4.007984
v 0.545000 1.156250 -4.007500
v 0.545000 1.151727 -3.797125
vn 0.965914 -0.258803 -0.005559
f 1677/1/420 1678/2/420 1679/3/420 1680/4/420
v 0.545000 1.156250 -4.007500
v 0.500000 1.201240 -4.006533
v 0.522500 1.195212 -4.006662
v 0.538971 1.178745 -4.007016
vn 0.000000 0.021496 -0.999769
f 1681/1/421 1682/2/421 1683/3/421 1684/4/421
v 0.545000 1.156250 -4.007500
v 0.461029 1.178745 -4.007016
v 0.477500 1.195212 -4.006662
v 0.500000 1.201240 -4.006533
vn -0.000000 0.021496 -0.999769
f 1685/1/422 1686/2/422 1687/3/422 1688/4/422
v 0.545000 1.156250 -4.007500
v 0.461029 1.133755 -4.007984
v 0.455000 1.156250 -4.007500
v 0.461029 1.178745 -4.007016
vn 0.000000 0.021496 -0.999769
f 1689/1/423 1690/2/423 1691/3/423 1692/4/423
v 0.545000 1.156250 -4.007500
v 0.500000 1.111260 -4.008467
v 0.477500 1.117288 -4.008338
v 0.461029 1.133755 -4.007984
vn 0.000000 0.021496 -0.999769
f 1693/1/424 1694/2/424 1695/3/424 1696/4/424
v 0.545000 1.156250 -4.007500
v 0.538971 1.133755 -4.007984
v 0.522500 1.117288 -4.008338
v 0.500000 1.111260 -4.008467
vn -0.000000 0.021496 -0.999769
f 1697/1/425 1698/2/425 1699/3/425 1700/4/425
v 0.534000 1.155976 -3.997500
v 0.534000 1.156250 -4.060833
v 0.529445 1.173250 -4.060797
v 0.529445 1.172976 -3.997426
vn 0.965926 0.258817 0.001120
f 1701/1/426 1702/2/426 1703/3/426 1704/4/426
v 0.529445 1.172976 -3.997426
v 0.529445 1.173250 -4.060797
v 0.517000 1.185695 -4.060770
v 0.517000 1.185421 -3.997373
vn 0.707107 0.707100 0.003058
f 1705/1/427 1706/2/427 1707/3/427 1708/4/427
v 0.517000 1.185421 -3.997373
v 0.517000 1.185695 -4.060770
v 0.500000 1.190250 -4.060760
v 0.500000 1.189976 -3.997353
vn 0.258819 0.965917 0.004177
f 1709/1/428 1710/2/428 1711/3/428 1712/4/428
v 0.500000 1.189976 -3.997353
v 0.500000 1.190250 -4.060760
v 0.483000 1.185695 -4.060770
v 0.483000 1.185421 -3.997373
vn -0.258819 0.965917 0.004177
f 1713/1/429 1714/2/429 1715/3/429 1716/4/429
v 0.483000 1.185421 -3.997373
v 0.483000 1.185695 -4.060770
v 0.470555 1.173250 -4.060797
v 0.470555 1.172976 -3.997426
vn -0.707107 0.707100 0.003058
f 1717/1/430 1718/2/430 1719/3/430 1720/4/430
v 0.470555 1.172976 -3.997426
v 0.470555 1.173250 -4.060797
v 0.466000 1.156250 -4.060833
v 0.466000 1.155976 -3.997500
vn -0.965926 0.258817 0.001119
f 1721/1/431 1722/2/431 1723/3/431 1724/4/431
v 0.466000 1.155976 -3.997500
v 0.466000 1.156250 -4.060833
v 0.470555 1.139250 -4.060870
v 0.470555 1.138976 -3.997574
vn -0.965926 -0.258817 -0.001120
f 1725/1/432 1726/2/432 1727/3/432 1728/4/432
v 0.470555 1.138976 -3.997574
v 0.470555 1.139250 -4.060870
v 0.483000 1.126805 -4.060897
v 0.483000 1.126531 -3.997627
vn -0.707107 -0.707100 -0.003059
f 1729/1/433 1730/2/433 1731/3/433 1732/4/433
v 0.483000 1.126531 -3.997627
v 0.483000 1.126805 -4.060897
v 0.500000 1.122250 -4.060907
v 0.500000 1.121976 -3.997647
vn -0.258819 -0.965917 -0.004180
f 1733/1/434 1734/2/434 1735/3/434 1736/4/434
v 0.500000 1.121976 -3.997647
v 0.500000 1.122250 -4.060907
v 0.517000 1.126805 -4.060897
v 0.517000 1.126531 -3.997627
vn 0.258819 -0.965917 -0.004180
f 1737/1/435 1738/2/435 1739/3/435 1740/4/435
v 0.517000 1.126531 -3.997627
v 0.517000 1.126805 -4.060897
v 0.529445 1.139250 -4.060870
v 0.529445 1.138976 -3.997574
vn 0.707107 -0.707100 -0.003060
f 1741/1/436 1742/2/436 1743/3/436 1744/4/436
v 0.529445 1.138976 -3.997574
v 0.529445 1.139250 -4.060870
v 0.534000 1.156250 -4.060833
v 0.534000 1.155976 -3.997500
vn 0.965926 -0.258817 -0.001120
f 1745/1/437 1746/2/437 1747/3/437 1748/4/437
v 0.534000 1.156250 -4.060833
v 0.534000 1.156250 -4.124167
v 0.529445 1.173250 -4.124167
v 0.529445 1.173250 -4.060797
vn 0.965926 0.258820 0.000000
f 1749/1/438 1750/2/438 1751/3/438 1752/4/438
v 0.529445 1.173250 -4.060797
v 0.529445 1.173250 -4.124167
v 0.517000 1.185695 -4.124167
v 0.517000 1.185695 -4.060770
vn 0.707106 0.707108 0.000000
f 1753/1/439 1754/2/439 1755/3/439 1756/4/439
v 0.517000 1.185695 -4.060770
v 0.517000 1.185695 -4.124167
v 0.500000 1.190250 -4.124167
v 0.500000 1.190250 -4.060760
vn 0.258818 0.965926 0.000001
f 1757/1/440 1758/2/440 1759/3/440 1760/4/440
v 0.500000 1.190250 -4.060760
v 0.500000 1.190250 -4.124167
v 0.483000 1.185695 -4.124167
v 0.483000 1.185695 -4.060770
vn -0.258818 0.965926 0.000001
f 1761/1/441 1762/2/441 1763/3/441 1764/4/441
v 0.483000 1.185695 -4.060770
v 0.483000 1.185695 -4.124167
v 0.470555 1.173250 -4.124167
v 0.470555 1.173250 -4.060797
vn -0.707106 0.707108 0.000001
f 1765/1/442 1766/2/442 1767/3/442 1768/4/442
v 0.470555 1.173250 -4.060797
v 0.470555 1.173250 -4.124167
v 0.466000 1.156250 -4.124167
v 0.466000 1.156250 -4.060833
vn -0.965926 0.258820 0.000000
f 1769/1/443 1770/2/443 1771/3/443 1772/4/443
v 0.466000 1.156250 -4.060833
v 0.466000 1.156250 -4.124167
v 0.470555 1.139250 -4.124167
v 0.470555 1.139250 -4.060870
vn -0.965926 -0.258820 -0.000000
f 1773/1/444 1774/2/444 1775/3/444 1776/4/444
v 0.470555 1.139250 -4.060870
v 0.470555 1.139250 -4.124167
v 0.483000 1.126805 -4.124167
v 0.483000 1.126805 -4.060897
vn -0.707106 -0.707108 0.000000
f 1777/1/445 1778/2/445 1779/3/445 1780/4/445
v 0.483000 1.126805 -4.060897
v 0.483000 1.126805 -4.124167
v 0.500000 1.122250 -4.124167
v 0.500000 1.122250 -4.060907
vn -0.258818 -0.965926 0.000001
f 1781/1/446 1782/2/446 1783/3/446 1784/4/446
v 0.500000 1.122250 -4.060907
v 0.500000 1.122250 -4.124167
v 0.517000 1.126805 -4.124167
v 0.517000 1.126805 -4.060897
vn 0.258818 -0.965926 0.000001
f 1785/1/447 1786/2/447 1787/3/447 1788/4/447
v 0.517000 1.126805 -4.060897
v 0.517000 1.126805 -4.124167
v 0.529445 1.139250 -4.124167
v 0.529445 1.139250 -4.060870
vn 0.707106 -0.707108 0.000001
f 1789/1/448 1790/2/448 1791/3/448 1792/4/448
v 0.529445 1.139250 -4.060870
v 0.529445 1.139250 -4.124167
v 0.534000 1.156250 -4.124167
v 0.534000 1.156250 -4.060833
vn 0.965926 -0.258820 0.000000
f 1793/1/449 1794/2/449 1795/3/449 1796/4/449
v 0.534000 1.156250 -4.124167
v 0.534000 1.156250 -4.187500
v 0.529445 1.173250 -4.187500
v 0.529445 1.173250 -4.124167
vn 0.965926 0.258819 0.000000
f 1797/1/450 1798/2/450 1799/3/450 1800/4/450
v 0.529445 1.173250 -4.124167
v 0.529445 1.173250 -4.187500
v 0.517000 1.185695 -4.187500
v 0.517000 1.185695 -4.124167
vn 0.707107 0.707107 0.000000
f 1801/1/451 1802/2/451 1803/3/451 1804/4/451
v 0.517000 1.185695 -4.124167
v 0.517000 1.185695 -4.187500
v 0.500000 1.190250 -4.187500
v 0.500000 1.190250 -4.124167
vn 0.258819 0.965926 0.000000
f 1805/1/452 1806/2/452 1807/3/452 1808/4/452
v 0.500000 1.190250 -4.124167
v 0.500000 1.190250 -4.187500
v 0.483000 1.185695 -4.187500
v 0.483000 1.185695 -4.124167
vn -0.258819 0.965926 0.000000
f 1809/1/453 1810/2/453 1811/3/453 1812/4/453
v 0.483000 1.185695 -4.124167
v 0.483000 1.185695 -4.187500
v 0.470555 1.173250 -4.187500
v 0.470555 1.173250 -4.124167
vn -0.707107 0.707107 0.000000
f 1813/1/454 1814/2/454 1815/3/454 1816/4/454
v 0.470555 1.173250 -4.124167
v 0.470555 1.173250 -4.187500
v 0.466000 1.156250 -4.187500
v 0.466000 1.156250 -4.124167
vn -0.965926 0.258819 0.000000
f 1817/1/455 1818/2/455 1819/3/455 1820/4/455
v 0.466000 1.156250 -4.124167
v 0.466000 1.156250 -4.187500
v 0.470555 1.139250 -4.187500
v 0.470555 1.139250 -4.124167
vn -0.965926 -0.258819 -0.000000
f 1821/1/456 1822/2/456 1823/3/456 1824/4/456
v 0.470555 1.139250 -4.124167
v 0.470555 1.139250 -4.187500
v 0.483000 1.126805 -4.187500
v 0.483000 1.126805 -4.124167
vn -0.707107 -0.707107 -0.000000
f 1825/1/457 1826/2/457 1827/3/457 1828/4/457
v 0.483000 1.126805 -4.124167
v 0.483000 1.126805 -4.187500
v 0.500000 1.122250 -4.187500
v 0.500000 1.122250 -4.124167
vn -0.258819 -0.965926 -0.000000
f 1829/1/458 1830/2/458 1831/3/458 1832/4/458
v 0.500000 1.122250 -4.124167
v 0.500000 1.122250 -4.187500
v 0.517000 1.126805 -4.187500
v 0.517000 1.126805 -4.124167
vn 0.258819 -0.965926 0.000000
f 1833/1/459 1834/2/459 1835/3/459 1836/4/459
v 0.517000 1.126805 -4.124167
v 0.517000 1.126805 -4.187500
v 0.529445 1.139250 -4.187500
v 0.529445 1.139250 -4.124167
vn 0.707107 -0.707107 0.000000
f 1837/1/460 1838/2/460 1839/3/460 1840/4/460
v 0.529445 1.139250 -4.124167
v 0.529445 1.139250 -4.187500
v 0.534000 1.156250 -4.187500
v 0.534000 1.156250 -4.124167
vn 0.965926 -0.258819 0.000000
f 1841/1/461 1842/2/461 1843/3/461 1844/4/461
v 0.534000 1.156250 -4.187500
v 0.500000 1.190250 -4.187500
v 0.517000 1.185695 -4.187500
v 0.529445 1.173250 -4.187500
vn 0.000000 0.000000 -1.000000
f 1845/1/462 1846/2/462 1847/3/462 1848/4/462
v 0.534000 1.156250 -4.187500
v 0.470555 1.173250 -4.187500
v 0.483000 1.185695 -4.187500
v 0.500000 1.190250 -4.187500
vn 0.000000 0.000000 -1.000000
f 1849/1/463 1850/2/463 1851/3/463 1852/4/463
v 0.534000 1.156250 -4.187500
v 0.470555 1.139250 -4.187500
v 0.466000 1.156250 -4.187500
v 0.470555 1.173250 -4.187500
vn -0.000000 0.000000 -1.000000
f 1853/1/464 1854/2/464 1855/3/464 1856/4/464
v 0.534000 1.156250 -4.187500
v 0.500000 1.122250 -4.187500
v 0.483000 1.126805 -4.187500
v 0.470555 1.139250 -4.187500
vn 0.000000 0.000000 -1.000000
f 1857/1/465 1858/2/465 1859/3/465 1860/4/465
v 0.534000 1.156250 -4.187500
v 0.529445 1.139250 -4.187500
v 0.517000 1.126805 -4.187500
v 0.500000 1.122250 -4.187500
vn 0.000000 0.000000 -1.000000
f 1861/1/466 1862/2/466 1863/3/466 1864/4/466
usemtl clamp
v 0.464000 1.152059 -3.838750
v 0.361250 1.152059 -3.838750
v 0.361250 1.183309 -3.807500
v 0.464000 1.183309 -3.807500
vn 0.000000 0.707107 -0.707107
f 1865/1/467 1866/2/467 1867/3/467 1868/4/467
v 0.464000 1.183309 -3.807500
v 0.361250 1.183309 -3.807500
v 0.361250 1.152059 -3.776250
v 0.464000 1.152059 -3.776250
vn 0.000000 0.707107 0.707107
f 1869/1/468 1870/2/468 1871/3/468 1872/4/468
v 0.464000 1.152059 -3.776250
v 0.361250 1.152059 -3.776250
v 0.361250 1.120809 -3.807500
v 0.464000 1.120809 -3.807500
vn 0.000000 -0.707107 0.707107
f 1873/1/469 1874/2/469 1875/3/469 1876/4/469
v 0.464000 1.120809 -3.807500
v 0.361250 1.120809 -3.807500
v 0.361250 1.152059 -3.838750
v 0.464000 1.152059 -3.838750
vn -0.000000 -0.707107 -0.707107
f 1877/1/470 1878/2/470 1879/3/470 1880/4/470
v 0.361250 1.152059 -3.838750
v 0.361250 1.120809 -3.807500
v 0.361250 1.152059 -3.776250
v 0.361250 1.183309 -3.807500
vn -1.000000 0.000000 0.000000
f 1881/1/471 1882/2/471 1883/3/471 1884/4/471
usemtl porcelain_black
v 0.173750 1.058309 -3.713750
v 0.361250 1.058309 -3.713750
v 0.361250 1.245809 -3.713750
v 0.173750 1.245809 -3.713750
vn 0.000000 0.000000 1.000000
f 1885/1/472 1886/2/472 1887/3/472 1888/4/472
v 0.361250 1.058309 -3.901250
v 0.173750 1.058309 -3.901250
v 0.173750 1.245809 -3.901250
v 0.361250 1.245809 -3.901250
vn 0.000000 0.000000 -1.000000
f 1889/1/473 1890/2/473 1891/3/473 1892/4/473
v 0.361250 1.058309 -3.713750
v 0.361250 1.058309 -3.901250
v 0.361250 1.245809 -3.901250
v 0.361250 1.245809 -3.713750
vn 1.000000 -0.000000 0.000000
f 1893/1/474 1894/2/474 1895/3/474 1896/4/474
v 0.173750 1.058309 -3.901250
v 0.173750 1.058309 -3.713750
v 0.173750 1.245809 -3.713750
v 0.173750 1.245809 -3.901250
vn -1.000000 0.000000 0.000000
f 1897/1/475 1898/2/475 1899/3/475 1900/4/475
v 0.173750 1.245809 -3.713750
v 0.361250 1.245809 -3.713750
v 0.361250 1.245809 -3.901250
v 0.173750 1.245809 -3.901250
vn -0.000000 1.000000 0.000000
f 1901/1/476 1902/2/476 1903/3/476 1904/4/476
v 0.173750 1.058309 -3.901250
v 0.361250 1.058309 -3.901250
v 0.361250 1.058309 -3.713750
v 0.173750 1.058309 -3.713750
vn 0.000000 -1.000000 0.000000
f 1905/1/477 1906/2/477 1907/3/477 1908/4/477
