# Generated by scripts/gen_pole_light_mounts.py
mtllib pole_light_mount.mtl
o pole_light_mount_3_straight_wired
vt 0 0
vt 1 0
vt 1 1
vt 0 1
usemtl clamp
v 0.312500 0.062500 1.000000
v 0.687500 0.062500 1.000000
v 0.687500 0.937500 1.000000
v 0.312500 0.937500 1.000000
vn 0.000000 0.000000 1.000000
f 1/1/1 2/2/1 3/3/1 4/4/1
v 0.687500 0.062500 0.900000
v 0.312500 0.062500 0.900000
v 0.312500 0.937500 0.900000
v 0.687500 0.937500 0.900000
vn 0.000000 0.000000 -1.000000
f 5/1/2 6/2/2 7/3/2 8/4/2
v 0.687500 0.062500 1.000000
v 0.687500 0.062500 0.900000
v 0.687500 0.937500 0.900000
v 0.687500 0.937500 1.000000
vn 1.000000 -0.000000 0.000000
f 9/1/3 10/2/3 11/3/3 12/4/3
v 0.312500 0.062500 0.900000
v 0.312500 0.062500 1.000000
v 0.312500 0.937500 1.000000
v 0.312500 0.937500 0.900000
vn -1.000000 0.000000 0.000000
f 13/1/4 14/2/4 15/3/4 16/4/4
v 0.312500 0.937500 1.000000
v 0.687500 0.937500 1.000000
v 0.687500 0.937500 0.900000
v 0.312500 0.937500 0.900000
vn -0.000000 1.000000 0.000000
f 17/1/5 18/2/5 19/3/5 20/4/5
v 0.312500 0.062500 0.900000
v 0.687500 0.062500 0.900000
v 0.687500 0.062500 1.000000
v 0.312500 0.062500 1.000000
vn 0.000000 -1.000000 0.000000
f 21/1/6 22/2/6 23/3/6 24/4/6
v 0.406250 0.110625 0.900000
v 0.593750 0.110625 0.900000
v 0.593750 0.329375 0.900000
v 0.406250 0.329375 0.900000
vn 0.000000 0.000000 1.000000
f 25/1/7 26/2/7 27/3/7 28/4/7
v 0.593750 0.110625 0.800000
v 0.406250 0.110625 0.800000
v 0.406250 0.329375 0.800000
v 0.593750 0.329375 0.800000
vn 0.000000 0.000000 -1.000000
f 29/1/8 30/2/8 31/3/8 32/4/8
v 0.593750 0.110625 0.900000
v 0.593750 0.110625 0.800000
v 0.593750 0.329375 0.800000
v 0.593750 0.329375 0.900000
vn 1.000000 -0.000000 0.000000
f 33/1/9 34/2/9 35/3/9 36/4/9
v 0.406250 0.110625 0.800000
v 0.406250 0.110625 0.900000
v 0.406250 0.329375 0.900000
v 0.406250 0.329375 0.800000
vn -1.000000 0.000000 0.000000
f 37/1/10 38/2/10 39/3/10 40/4/10
v 0.406250 0.329375 0.900000
v 0.593750 0.329375 0.900000
v 0.593750 0.329375 0.800000
v 0.406250 0.329375 0.800000
vn -0.000000 1.000000 0.000000
f 41/1/11 42/2/11 43/3/11 44/4/11
v 0.406250 0.110625 0.800000
v 0.593750 0.110625 0.800000
v 0.593750 0.110625 0.900000
v 0.406250 0.110625 0.900000
vn 0.000000 -1.000000 0.000000
f 45/1/12 46/2/12 47/3/12 48/4/12
v 0.468750 0.125000 0.900000
v 0.531250 0.125000 0.900000
v 0.531250 0.187500 0.900000
v 0.468750 0.187500 0.900000
vn 0.000000 0.000000 1.000000
f 49/1/13 50/2/13 51/3/13 52/4/13
v 0.531250 0.125000 0.880000
v 0.468750 0.125000 0.880000
v 0.468750 0.187500 0.880000
v 0.531250 0.187500 0.880000
vn 0.000000 0.000000 -1.000000
f 53/1/14 54/2/14 55/3/14 56/4/14
v 0.531250 0.125000 0.900000
v 0.531250 0.125000 0.880000
v 0.531250 0.187500 0.880000
v 0.531250 0.187500 0.900000
vn 1.000000 -0.000000 0.000000
f 57/1/15 58/2/15 59/3/15 60/4/15
v 0.468750 0.125000 0.880000
v 0.468750 0.125000 0.900000
v 0.468750 0.187500 0.900000
v 0.468750 0.187500 0.880000
vn -1.000000 0.000000 0.000000
f 61/1/16 62/2/16 63/3/16 64/4/16
v 0.468750 0.187500 0.900000
v 0.531250 0.187500 0.900000
v 0.531250 0.187500 0.880000
v 0.468750 0.187500 0.880000
vn -0.000000 1.000000 0.000000
f 65/1/17 66/2/17 67/3/17 68/4/17
v 0.468750 0.125000 0.880000
v 0.531250 0.125000 0.880000
v 0.531250 0.125000 0.900000
v 0.468750 0.125000 0.900000
vn 0.000000 -1.000000 0.000000
f 69/1/18 70/2/18 71/3/18 72/4/18
v 0.468750 0.812500 0.900000
v 0.531250 0.812500 0.900000
v 0.531250 0.875000 0.900000
v 0.468750 0.875000 0.900000
vn 0.000000 0.000000 1.000000
f 73/1/19 74/2/19 75/3/19 76/4/19
v 0.531250 0.812500 0.880000
v 0.468750 0.812500 0.880000
v 0.468750 0.875000 0.880000
v 0.531250 0.875000 0.880000
vn 0.000000 0.000000 -1.000000
f 77/1/20 78/2/20 79/3/20 80/4/20
v 0.531250 0.812500 0.900000
v 0.531250 0.812500 0.880000
v 0.531250 0.875000 0.880000
v 0.531250 0.875000 0.900000
vn 1.000000 -0.000000 0.000000
f 81/1/21 82/2/21 83/3/21 84/4/21
v 0.468750 0.812500 0.880000
v 0.468750 0.812500 0.900000
v 0.468750 0.875000 0.900000
v 0.468750 0.875000 0.880000
vn -1.000000 0.000000 0.000000
f 85/1/22 86/2/22 87/3/22 88/4/22
v 0.468750 0.875000 0.900000
v 0.531250 0.875000 0.900000
v 0.531250 0.875000 0.880000
v 0.468750 0.875000 0.880000
vn -0.000000 1.000000 0.000000
f 89/1/23 90/2/23 91/3/23 92/4/23
v 0.468750 0.812500 0.880000
v 0.531250 0.812500 0.880000
v 0.531250 0.812500 0.900000
v 0.468750 0.812500 0.900000
vn 0.000000 -1.000000 0.000000
f 93/1/24 94/2/24 95/3/24 96/4/24
usemtl metal
v 0.545000 0.220000 0.860000
v 0.545000 0.220000 0.800000
v 0.538971 0.239679 0.810909
v 0.538971 0.242500 0.860000
vn 0.965926 0.258819 0.000000
f 97/1/25 98/2/25 99/3/25 100/4/25
v 0.538971 0.242500 0.860000
v 0.538971 0.239679 0.810909
v 0.522500 0.254085 0.818894
v 0.522500 0.258971 0.860000
vn 0.706524 0.706524 -0.040604
f 101/1/26 102/2/26 103/3/26 104/4/26
v 0.522500 0.258971 0.860000
v 0.522500 0.254085 0.818894
v 0.500000 0.259357 0.821817
v 0.500000 0.265000 0.860000
vn 0.257129 0.959620 -0.114079
f 105/1/27 106/2/27 107/3/27 108/4/27
v 0.500000 0.265000 0.860000
v 0.500000 0.259357 0.821817
v 0.477500 0.254085 0.818894
v 0.477500 0.258971 0.860000
vn -0.256222 0.956233 -0.141310
f 109/1/28 110/2/28 111/3/28 112/4/28
v 0.477500 0.258971 0.860000
v 0.477500 0.254085 0.818894
v 0.461029 0.239679 0.810909
v 0.461029 0.242500 0.860000
vn -0.704622 0.704622 -0.083765
f 113/1/29 114/2/29 115/3/29 116/4/29
v 0.461029 0.242500 0.860000
v 0.461029 0.239679 0.810909
v 0.455000 0.220000 0.800000
v 0.455000 0.220000 0.860000
vn -0.965819 0.258790 -0.014873
f 117/1/30 118/2/30 119/3/30 120/4/30
v 0.455000 0.220000 0.860000
v 0.455000 0.220000 0.800000
v 0.461029 0.200321 0.789091
v 0.461029 0.197500 0.860000
vn -0.965926 -0.258819 -0.000000
f 121/1/31 122/2/31 123/3/31 124/4/31
v 0.461029 0.197500 0.860000
v 0.461029 0.200321 0.789091
v 0.477500 0.185915 0.781106
v 0.477500 0.181029 0.860000
vn -0.706827 -0.706827 -0.028123
f 125/1/32 126/2/32 127/3/32 128/4/32
v 0.477500 0.181029 0.860000
v 0.477500 0.185915 0.781106
v 0.500000 0.180643 0.778183
v 0.500000 0.175000 0.860000
vn -0.258357 -0.964202 -0.059721
f 129/1/33 130/2/33 131/3/33 132/4/33
v 0.500000 0.175000 0.860000
v 0.500000 0.180643 0.778183
v 0.522500 0.185915 0.781106
v 0.522500 0.181029 0.860000
vn 0.258247 -0.963790 -0.066468
f 133/1/34 134/2/34 135/3/34 136/4/34
v 0.522500 0.181029 0.860000
v 0.522500 0.185915 0.781106
v 0.538971 0.200321 0.789091
v 0.538971 0.197500 0.860000
vn 0.706430 -0.706430 -0.043755
f 137/1/35 138/2/35 139/3/35 140/4/35
v 0.538971 0.197500 0.860000
v 0.538971 0.200321 0.789091
v 0.545000 0.220000 0.800000
v 0.545000 0.220000 0.860000
vn 0.965875 -0.258805 -0.010297
f 141/1/36 142/2/36 143/3/36 144/4/36
v 0.545000 0.220000 0.800000
v 0.545000 0.300024 0.750000
v 0.538971 0.311899 0.769111
v 0.538971 0.239679 0.810909
vn 0.956135 0.155217 0.248421
f 145/1/37 146/2/37 147/3/37 148/4/37
v 0.538971 0.239679 0.810909
v 0.538971 0.311899 0.769111
v 0.522500 0.320592 0.783101
v 0.522500 0.254085 0.818894
vn 0.651043 0.380210 0.656950
f 149/1/38 150/2/38 151/3/38 152/4/38
v 0.522500 0.254085 0.818894
v 0.522500 0.320592 0.783101
v 0.500000 0.323774 0.788222
v 0.500000 0.259357 0.821817
vn 0.219935 0.462302 0.859014
f 153/1/39 154/2/39 155/3/39 156/4/39
v 0.500000 0.259357 0.821817
v 0.500000 0.323774 0.788222
v 0.477500 0.320592 0.783101
v 0.477500 0.254085 0.818894
vn -0.218169 0.451280 0.865303
f 157/1/40 158/2/40 159/3/40 160/4/40
v 0.477500 0.254085 0.818894
v 0.477500 0.320592 0.783101
v 0.461029 0.311899 0.769111
v 0.461029 0.239679 0.810909
vn -0.643824 0.362620 0.673793
f 161/1/41 162/2/41 163/3/41 164/4/41
v 0.461029 0.239679 0.810909
v 0.461029 0.311899 0.769111
v 0.455000 0.300024 0.750000
v 0.455000 0.220000 0.800000
vn -0.954508 0.149364 0.258080
f 165/1/42 166/2/42 167/3/42 168/4/42
v 0.455000 0.220000 0.800000
v 0.455000 0.300024 0.750000
v 0.461029 0.288149 0.730889
v 0.461029 0.200321 0.789091
vn -0.956135 -0.155217 -0.248421
f 169/1/43 170/2/43 171/3/43 172/4/43
v 0.461029 0.200321 0.789091
v 0.461029 0.288149 0.730889
v 0.477500 0.279456 0.716899
v 0.477500 0.185915 0.781106
vn -0.663690 -0.413201 -0.623522
f 173/1/44 174/2/44 175/3/44 176/4/44
v 0.477500 0.185915 0.781106
v 0.477500 0.279456 0.716899
v 0.500000 0.276274 0.711778
v 0.500000 0.180643 0.778183
vn -0.233123 -0.550326 -0.801745
f 177/1/45 178/2/45 179/3/45 180/4/45
v 0.500000 0.180643 0.778183
v 0.500000 0.276274 0.711778
v 0.522500 0.279456 0.716899
v 0.522500 0.185915 0.781106
vn 0.233714 -0.554566 -0.798645
f 181/1/46 182/2/46 183/3/46 184/4/46
v 0.522500 0.185915 0.781106
v 0.522500 0.279456 0.716899
v 0.538971 0.288149 0.730889
v 0.538971 0.200321 0.789091
vn 0.666771 -0.421758 -0.614440
f 185/1/47 186/2/47 187/3/47 188/4/47
v 0.538971 0.200321 0.789091
v 0.538971 0.288149 0.730889
v 0.545000 0.300024 0.750000
v 0.545000 0.220000 0.800000
vn 0.957300 -0.159697 -0.240983
f 189/1/48 190/2/48 191/3/48 192/4/48
v 0.545000 0.300024 0.750000
v 0.545000 0.380936 0.700000
v 0.538971 0.393117 0.718918
v 0.538971 0.311899 0.769111
vn 0.965926 0.136057 0.220173
f 193/1/49 194/2/49 195/3/49 196/4/49
v 0.538971 0.311899 0.769111
v 0.538971 0.393117 0.718918
v 0.522500 0.402033 0.732767
v 0.522500 0.320592 0.783101
vn 0.707106 0.371739 0.601508
f 197/1/50 198/2/50 199/3/50 200/4/50
v 0.522500 0.320592 0.783101
v 0.522500 0.402033 0.732767
v 0.500000 0.405297 0.737836
v 0.500000 0.323774 0.788222
vn 0.258818 0.507828 0.821659
f 201/1/51 202/2/51 203/3/51 204/4/51
v 0.500000 0.323774 0.788222
v 0.500000 0.405297 0.737836
v 0.477500 0.402033 0.732767
v 0.477500 0.320592 0.783101
vn -0.258818 0.507836 0.821654
f 205/1/52 206/2/52 207/3/52 208/4/52
v 0.477500 0.320592 0.783101
v 0.477500 0.402033 0.732767
v 0.461029 0.393117 0.718918
v 0.461029 0.311899 0.769111
vn -0.707106 0.371756 0.601497
f 209/1/53 210/2/53 211/3/53 212/4/53
v 0.461029 0.311899 0.769111
v 0.461029 0.393117 0.718918
v 0.455000 0.380936 0.700000
v 0.455000 0.300024 0.750000
vn -0.965926 0.136066 0.220167
f 213/1/54 214/2/54 215/3/54 216/4/54
v 0.455000 0.300024 0.750000
v 0.455000 0.380936 0.700000
v 0.461029 0.368755 0.681082
v 0.461029 0.288149 0.730889
vn -0.965926 -0.136057 -0.220173
f 217/1/55 218/2/55 219/3/55 220/4/55
v 0.461029 0.288149 0.730889
v 0.461029 0.368755 0.681082
v 0.477500 0.359839 0.667233
v 0.477500 0.279456 0.716899
vn -0.707106 -0.371691 -0.601538
f 221/1/56 222/2/56 223/3/56 224/4/56
v 0.477500 0.279456 0.716899
v 0.477500 0.359839 0.667233
v 0.500000 0.356575 0.662164
v 0.500000 0.276274 0.711778
vn -0.258818 -0.507714 -0.821730
f 225/1/57 226/2/57 227/3/57 228/4/57
v 0.500000 0.276274 0.711778
v 0.500000 0.356575 0.662164
v 0.522500 0.359839 0.667233
v 0.522500 0.279456 0.716899
vn 0.258818 -0.507705 -0.821735
f 229/1/58 230/2/58 231/3/58 232/4/58
v 0.522500 0.279456 0.716899
v 0.522500 0.359839 0.667233
v 0.538971 0.368755 0.681082
v 0.538971 0.288149 0.730889
vn 0.707106 -0.371673 -0.601549
f 233/1/59 234/2/59 235/3/59 236/4/59
v 0.538971 0.288149 0.730889
v 0.538971 0.368755 0.681082
v 0.545000 0.380936 0.700000
v 0.545000 0.300024 0.750000
vn 0.965926 -0.136048 -0.220178
f 237/1/60 238/2/60 239/3/60 240/4/60
v 0.545000 0.380936 0.700000
v 0.545000 0.455518 0.650000
v 0.538971 0.468749 0.668198
v 0.538971 0.393117 0.718918
vn 0.965915 0.144146 0.215013
f 241/1/61 242/2/61 243/3/61 244/4/61
v 0.538971 0.393117 0.718918
v 0.538971 0.468749 0.668198
v 0.522500 0.478435 0.681520
v 0.522500 0.402033 0.732767
vn 0.707045 0.393865 0.587331
f 245/1/62 246/2/62 247/3/62 248/4/62
v 0.522500 0.402033 0.732767
v 0.522500 0.478435 0.681520
v 0.500000 0.481981 0.686397
v 0.500000 0.405297 0.737836
vn 0.258777 0.538068 0.802195
f 249/1/63 250/2/63 251/3/63 252/4/63
v 0.500000 0.405297 0.737836
v 0.500000 0.481981 0.686397
v 0.477500 0.478435 0.681520
v 0.477500 0.402033 0.732767
vn -0.258776 0.538096 0.802177
f 253/1/64 254/2/64 255/3/64 256/4/64
v 0.477500 0.402033 0.732767
v 0.477500 0.478435 0.681520
v 0.461029 0.468749 0.668198
v 0.461029 0.393117 0.718918
vn -0.707045 0.393923 0.587293
f 257/1/65 258/2/65 259/3/65 260/4/65
v 0.461029 0.393117 0.718918
v 0.461029 0.468749 0.668198
v 0.455000 0.455518 0.650000
v 0.455000 0.380936 0.700000
vn -0.965915 0.144176 0.214994
f 261/1/66 262/2/66 263/3/66 264/4/66
v 0.455000 0.380936 0.700000
v 0.455000 0.455518 0.650000
v 0.461029 0.442286 0.631802
v 0.461029 0.368755 0.681082
vn -0.965915 -0.144146 -0.215013
f 265/1/67 266/2/67 267/3/67 268/4/67
v 0.461029 0.368755 0.681082
v 0.461029 0.442286 0.631802
v 0.477500 0.432600 0.618480
v 0.477500 0.359839 0.667233
vn -0.707047 -0.393702 -0.587438
f 269/1/68 270/2/68 271/3/68 272/4/68
v 0.477500 0.359839 0.667233
v 0.477500 0.432600 0.618480
v 0.500000 0.429055 0.613603
v 0.500000 0.356575 0.662164
vn -0.258779 -0.537682 -0.802453
f 273/1/69 274/2/69 275/3/69 276/4/69
v 0.500000 0.356575 0.662164
v 0.500000 0.429055 0.613603
v 0.522500 0.432600 0.618480
v 0.522500 0.359839 0.667233
vn 0.258779 -0.537651 -0.802474
f 277/1/70 278/2/70 279/3/70 280/4/70
v 0.522500 0.359839 0.667233
v 0.522500 0.432600 0.618480
v 0.538971 0.442286 0.631802
v 0.538971 0.368755 0.681082
vn 0.707048 -0.393639 -0.587479
f 281/1/71 282/2/71 283/3/71 284/4/71
v 0.538971 0.368755 0.681082
v 0.538971 0.442286 0.631802
v 0.545000 0.455518 0.650000
v 0.545000 0.380936 0.700000
vn 0.965915 -0.144115 -0.215033
f 285/1/72 286/2/72 287/3/72 288/4/72
v 0.545000 0.455518 0.650000
v 0.545000 0.519052 0.600000
v 0.538971 0.533377 0.617351
v 0.538971 0.468749 0.668198
vn 0.965879 0.160170 0.203527
f 289/1/73 290/2/73 291/3/73 292/4/73
v 0.538971 0.468749 0.668198
v 0.538971 0.533377 0.617351
v 0.522500 0.543863 0.630053
v 0.522500 0.478435 0.681520
vn 0.706852 0.437387 0.555925
f 293/1/74 294/2/74 295/3/74 296/4/74
v 0.522500 0.478435 0.681520
v 0.522500 0.543863 0.630053
v 0.500000 0.547702 0.634702
v 0.500000 0.481981 0.686397
vn 0.258646 0.597228 0.759224
f 297/1/75 298/2/75 299/3/75 300/4/75
v 0.500000 0.481981 0.686397
v 0.500000 0.547702 0.634702
v 0.477500 0.543863 0.630053
v 0.477500 0.478435 0.681520
vn -0.258646 0.597204 0.759243
f 301/1/76 302/2/76 303/3/76 304/4/76
v 0.477500 0.478435 0.681520
v 0.477500 0.543863 0.630053
v 0.461029 0.533377 0.617351
v 0.461029 0.468749 0.668198
vn -0.706853 0.437337 0.555963
f 305/1/77 306/2/77 307/3/77 308/4/77
v 0.461029 0.468749 0.668198
v 0.461029 0.533377 0.617351
v 0.455000 0.519052 0.600000
v 0.455000 0.455518 0.650000
vn -0.965879 0.160145 0.203546
f 309/1/78 310/2/78 311/3/78 312/4/78
v 0.455000 0.455518 0.650000
v 0.455000 0.519052 0.600000
v 0.461029 0.504728 0.582649
v 0.461029 0.442286 0.631802
vn -0.965879 -0.160170 -0.203527
f 313/1/79 314/2/79 315/3/79 316/4/79
v 0.461029 0.442286 0.631802
v 0.461029 0.504728 0.582649
v 0.477500 0.494241 0.569947
v 0.477500 0.432600 0.618480
vn -0.706849 -0.437529 -0.555818
f 317/1/80 318/2/80 319/3/80 320/4/80
v 0.477500 0.432600 0.618480
v 0.477500 0.494241 0.569947
v 0.500000 0.490403 0.565298
v 0.500000 0.429055 0.613603
vn -0.258642 -0.597560 -0.758964
f 321/1/81 322/2/81 323/3/81 324/4/81
v 0.500000 0.429055 0.613603
v 0.500000 0.490403 0.565298
v 0.522500 0.494241 0.569947
v 0.522500 0.432600 0.618480
vn 0.258642 -0.597587 -0.758943
f 325/1/82 326/2/82 327/3/82 328/4/82
v 0.522500 0.432600 0.618480
v 0.522500 0.494241 0.569947
v 0.538971 0.504728 0.582649
v 0.538971 0.442286 0.631802
vn 0.706847 -0.437583 -0.555777
f 329/1/83 330/2/83 331/3/83 332/4/83
v 0.538971 0.442286 0.631802
v 0.538971 0.504728 0.582649
v 0.545000 0.519052 0.600000
v 0.545000 0.455518 0.650000
vn 0.965879 -0.160197 -0.203508
f 333/1/84 334/2/84 335/3/84 336/4/84
v 0.545000 0.519052 0.600000
v 0.545000 0.576809 0.550000
v 0.538971 0.591907 0.566682
v 0.538971 0.533377 0.617351
vn 0.965908 0.169444 0.195730
f 337/1/85 338/2/85 339/3/85 340/4/85
v 0.538971 0.533377 0.617351
v 0.538971 0.591907 0.566682
v 0.522500 0.602960 0.578894
v 0.522500 0.543863 0.630053
vn 0.707010 0.462871 0.534684
f 341/1/86 342/2/86 343/3/86 344/4/86
v 0.522500 0.543863 0.630053
v 0.522500 0.602960 0.578894
v 0.500000 0.607006 0.583364
v 0.500000 0.547702 0.634702
vn 0.258753 0.632214 0.730309
f 345/1/87 346/2/87 347/3/87 348/4/87
v 0.500000 0.547702 0.634702
v 0.500000 0.607006 0.583364
v 0.477500 0.602960 0.578894
v 0.477500 0.543863 0.630053
vn -0.258753 0.632213 0.730311
f 349/1/88 350/2/88 351/3/88 352/4/88
v 0.477500 0.543863 0.630053
v 0.477500 0.602960 0.578894
v 0.461029 0.591907 0.566682
v 0.461029 0.533377 0.617351
vn -0.707010 0.462868 0.534687
f 353/1/89 354/2/89 355/3/89 356/4/89
v 0.461029 0.533377 0.617351
v 0.461029 0.591907 0.566682
v 0.455000 0.576809 0.550000
v 0.455000 0.519052 0.600000
vn -0.965908 0.169443 0.195731
f 357/1/90 358/2/90 359/3/90 360/4/90
v 0.455000 0.519052 0.600000
v 0.455000 0.576809 0.550000
v 0.461029 0.561710 0.533318
v 0.461029 0.504728 0.582649
vn -0.965908 -0.169444 -0.195730
f 361/1/91 362/2/91 363/3/91 364/4/91
v 0.461029 0.504728 0.582649
v 0.461029 0.561710 0.533318
v 0.477500 0.550657 0.521106
v 0.477500 0.494241 0.569947
vn -0.707010 -0.462881 -0.534676
f 365/1/92 366/2/92 367/3/92 368/4/92
v 0.477500 0.494241 0.569947
v 0.477500 0.550657 0.521106
v 0.500000 0.546611 0.516636
v 0.500000 0.490403 0.565298
vn -0.258753 -0.632237 -0.730290
f 369/1/93 370/2/93 371/3/93 372/4/93
v 0.500000 0.490403 0.565298
v 0.500000 0.546611 0.516636
v 0.522500 0.550657 0.521106
v 0.522500 0.494241 0.569947
vn 0.258753 -0.632239 -0.730289
f 373/1/94 374/2/94 375/3/94 376/4/94
v 0.522500 0.494241 0.569947
v 0.522500 0.550657 0.521106
v 0.538971 0.561710 0.533318
v 0.538971 0.504728 0.582649
vn 0.707010 -0.462884 -0.534673
f 377/1/95 378/2/95 379/3/95 380/4/95
v 0.538971 0.504728 0.582649
v 0.538971 0.561710 0.533318
v 0.545000 0.576809 0.550000
v 0.545000 0.519052 0.600000
vn 0.965908 -0.169446 -0.195728
f 381/1/96 382/2/96 383/3/96 384/4/96
v 0.545000 0.576809 0.550000
v 0.545000 0.629657 0.500000
v 0.538971 0.645499 0.515978
v 0.538971 0.591907 0.566682
vn 0.965910 0.177916 0.188053
f 385/1/97 386/2/97 387/3/97 388/4/97
v 0.538971 0.591907 0.566682
v 0.538971 0.645499 0.515978
v 0.522500 0.657096 0.527675
v 0.522500 0.602960 0.578894
vn 0.707020 0.486028 0.513710
f 389/1/98 390/2/98 391/3/98 392/4/98
v 0.522500 0.602960 0.578894
v 0.522500 0.657096 0.527675
v 0.500000 0.661340 0.531956
v 0.500000 0.607006 0.583364
vn 0.258760 0.663861 0.701663
f 393/1/99 394/2/99 395/3/99 396/4/99
v 0.500000 0.607006 0.583364
v 0.500000 0.661340 0.531956
v 0.477500 0.657096 0.527675
v 0.477500 0.602960 0.578894
vn -0.258760 0.663863 0.701662
f 397/1/100 398/2/100 399/3/100 400/4/100
v 0.477500 0.602960 0.578894
v 0.477500 0.657096 0.527675
v 0.461029 0.645499 0.515978
v 0.461029 0.591907 0.566682
vn -0.707020 0.486032 0.513707
f 401/1/101 402/2/101 403/3/101 404/4/101
v 0.461029 0.591907 0.566682
v 0.461029 0.645499 0.515978
v 0.455000 0.629657 0.500000
v 0.455000 0.576809 0.550000
vn -0.965910 0.177918 0.188051
f 405/1/102 406/2/102 407/3/102 408/4/102
v 0.455000 0.576809 0.550000
v 0.455000 0.629657 0.500000
v 0.461029 0.613816 0.484022
v 0.461029 0.561710 0.533318
vn -0.965910 -0.177916 -0.188053
f 409/1/103 410/2/103 411/3/103 412/4/103
v 0.461029 0.561710 0.533318
v 0.461029 0.613816 0.484022
v 0.477500 0.602219 0.472325
v 0.477500 0.550657 0.521106
vn -0.707021 -0.486019 -0.513719
f 413/1/104 414/2/104 415/3/104 416/4/104
v 0.477500 0.550657 0.521106
v 0.477500 0.602219 0.472325
v 0.500000 0.597975 0.468044
v 0.500000 0.546611 0.516636
vn -0.258760 -0.663839 -0.701684
f 417/1/105 418/2/105 419/3/105 420/4/105
v 0.500000 0.546611 0.516636
v 0.500000 0.597975 0.468044
v 0.522500 0.602219 0.472325
v 0.522500 0.550657 0.521106
vn 0.258760 -0.663837 -0.701686
f 421/1/106 422/2/106 423/3/106 424/4/106
v 0.522500 0.550657 0.521106
v 0.522500 0.602219 0.472325
v 0.538971 0.613816 0.484022
v 0.538971 0.561710 0.533318
vn 0.707021 -0.486015 -0.513723
f 425/1/107 426/2/107 427/3/107 428/4/107
v 0.538971 0.561710 0.533318
v 0.538971 0.613816 0.484022
v 0.545000 0.629657 0.500000
v 0.545000 0.576809 0.550000
vn 0.965910 -0.177914 -0.188054
f 429/1/108 430/2/108 431/3/108 432/4/108
v 0.545000 0.629657 0.500000
v 0.545000 0.677782 0.450000
v 0.538971 0.694373 0.465198
v 0.538971 0.645499 0.515978
vn 0.965908 0.186524 0.179528
f 433/1/109 434/2/109 435/3/109 436/4/109
v 0.538971 0.645499 0.515978
v 0.538971 0.694373 0.465198
v 0.522500 0.706519 0.476324
v 0.522500 0.657096 0.527675
vn 0.707010 0.509537 0.490417
f 437/1/110 438/2/110 439/3/110 440/4/110
v 0.522500 0.657096 0.527675
v 0.522500 0.706519 0.476324
v 0.500000 0.710964 0.480397
v 0.500000 0.661340 0.531956
vn 0.258753 0.695962 0.669838
f 441/1/111 442/2/111 443/3/111 444/4/111
v 0.500000 0.661340 0.531956
v 0.500000 0.710964 0.480397
v 0.477500 0.706519 0.476324
v 0.477500 0.657096 0.527675
vn -0.258753 0.695964 0.669837
f 445/1/112 446/2/112 447/3/112 448/4/112
v 0.477500 0.657096 0.527675
v 0.477500 0.706519 0.476324
v 0.461029 0.694373 0.465198
v 0.461029 0.645499 0.515978
vn -0.707010 0.509540 0.490414
f 449/1/113 450/2/113 451/3/113 452/4/113
v 0.461029 0.645499 0.515978
v 0.461029 0.694373 0.465198
v 0.455000 0.677782 0.450000
v 0.455000 0.629657 0.500000
vn -0.965908 0.186526 0.179527
f 453/1/114 454/2/114 455/3/114 456/4/114
v 0.455000 0.629657 0.500000
v 0.455000 0.677782 0.450000
v 0.461029 0.661191 0.434802
v 0.461029 0.613816 0.484022
vn -0.965908 -0.186524 -0.179528
f 457/1/115 458/2/115 459/3/115 460/4/115
v 0.461029 0.613816 0.484022
v 0.461029 0.661191 0.434802
v 0.477500 0.649046 0.423676
v 0.477500 0.602219 0.472325
vn -0.707010 -0.509527 -0.490427
f 461/1/116 462/2/116 463/3/116 464/4/116
v 0.477500 0.602219 0.472325
v 0.477500 0.649046 0.423676
v 0.500000 0.644600 0.419603
v 0.500000 0.597975 0.468044
vn -0.258753 -0.695939 -0.669862
f 465/1/117 466/2/117 467/3/117 468/4/117
v 0.500000 0.597975 0.468044
v 0.500000 0.644600 0.419603
v 0.522500 0.649046 0.423676
v 0.522500 0.602219 0.472325
vn 0.258753 -0.695937 -0.669864
f 469/1/118 470/2/118 471/3/118 472/4/118
v 0.522500 0.602219 0.472325
v 0.522500 0.649046 0.423676
v 0.538971 0.661191 0.434802
v 0.538971 0.613816 0.484022
vn 0.707010 -0.509523 -0.490431
f 473/1/119 474/2/119 475/3/119 476/4/119
v 0.538971 0.613816 0.484022
v 0.538971 0.661191 0.434802
v 0.545000 0.677782 0.450000
v 0.545000 0.629657 0.500000
vn 0.965908 -0.186522 -0.179530
f 477/1/120 478/2/120 479/3/120 480/4/120
v 0.545000 0.677782 0.450000
v 0.545000 0.721367 0.400000
v 0.538971 0.738704 0.414341
v 0.538971 0.694373 0.465198
vn 0.965906 0.195156 0.170116
f 481/1/121 482/2/121 483/3/121 484/4/121
v 0.538971 0.694373 0.465198
v 0.538971 0.738704 0.414341
v 0.522500 0.751396 0.424840
v 0.522500 0.706519 0.476324
vn 0.706999 0.533112 0.464698
f 485/1/122 486/2/122 487/3/122 488/4/122
v 0.522500 0.706519 0.476324
v 0.522500 0.751396 0.424840
v 0.500000 0.756041 0.428682
v 0.500000 0.710964 0.480397
vn 0.258745 0.728153 0.634700
f 489/1/123 490/2/123 491/3/123 492/4/123
v 0.500000 0.710964 0.480397
v 0.500000 0.756041 0.428682
v 0.477500 0.751396 0.424840
v 0.477500 0.706519 0.476324
vn -0.258745 0.728154 0.634698
f 493/1/124 494/2/124 495/3/124 496/4/124
v 0.477500 0.706519 0.476324
v 0.477500 0.751396 0.424840
v 0.461029 0.738704 0.414341
v 0.461029 0.694373 0.465198
vn -0.706999 0.533115 0.464694
f 497/1/125 498/2/125 499/3/125 500/4/125
v 0.461029 0.694373 0.465198
v 0.461029 0.738704 0.414341
v 0.455000 0.721367 0.400000
v 0.455000 0.677782 0.450000
vn -0.965906 0.195158 0.170114
f 501/1/126 502/2/126 503/3/126 504/4/126
v 0.455000 0.677782 0.450000
v 0.455000 0.721367 0.400000
v 0.461029 0.704029 0.385659
v 0.461029 0.661191 0.434802
vn -0.965906 -0.195156 -0.170116
f 505/1/127 506/2/127 507/3/127 508/4/127
v 0.461029 0.661191 0.434802
v 0.461029 0.704029 0.385659
v 0.477500 0.691338 0.375160
v 0.477500 0.649046 0.423676
vn -0.706999 -0.533102 -0.464709
f 509/1/128 510/2/128 511/3/128 512/4/128
v 0.477500 0.649046 0.423676
v 0.477500 0.691338 0.375160
v 0.500000 0.686692 0.371318
v 0.500000 0.644600 0.419603
vn -0.258746 -0.728130 -0.634726
f 513/1/129 514/2/129 515/3/129 516/4/129
v 0.500000 0.644600 0.419603
v 0.500000 0.686692 0.371318
v 0.522500 0.691338 0.375160
v 0.522500 0.649046 0.423676
vn 0.258746 -0.728129 -0.634728
f 517/1/130 518/2/130 519/3/130 520/4/130
v 0.522500 0.649046 0.423676
v 0.522500 0.691338 0.375160
v 0.538971 0.704029 0.385659
v 0.538971 0.661191 0.434802
vn 0.706999 -0.533099 -0.464713
f 521/1/131 522/2/131 523/3/131 524/4/131
v 0.538971 0.661191 0.434802
v 0.538971 0.704029 0.385659
v 0.545000 0.721367 0.400000
v 0.545000 0.677782 0.450000
vn 0.965906 -0.195155 -0.170118
f 525/1/132 526/2/132 527/3/132 528/4/132
v 0.545000 0.721367 0.400000
v 0.545000 0.760594 0.350000
v 0.538971 0.778650 0.363425
v 0.538971 0.738704 0.414341
vn 0.965904 0.203692 0.159808
f 529/1/133 530/2/133 531/3/133 532/4/133
v 0.538971 0.738704 0.414341
v 0.538971 0.778650 0.363425
v 0.522500 0.791868 0.373253
v 0.522500 0.751396 0.424840
vn 0.706989 0.556418 0.436539
f 533/1/134 534/2/134 535/3/134 536/4/134
v 0.522500 0.751396 0.424840
v 0.522500 0.791868 0.373253
v 0.500000 0.796707 0.376850
v 0.500000 0.756041 0.428682
vn 0.258738 0.759971 0.596236
f 537/1/135 538/2/135 539/3/135 540/4/135
v 0.500000 0.756041 0.428682
v 0.500000 0.796707 0.376850
v 0.477500 0.791868 0.373253
v 0.477500 0.751396 0.424840
vn -0.258738 0.759971 0.596236
f 541/1/136 542/2/136 543/3/136 544/4/136
v 0.477500 0.751396 0.424840
v 0.477500 0.791868 0.373253
v 0.461029 0.778650 0.363425
v 0.461029 0.738704 0.414341
vn -0.706989 0.556418 0.436539
f 545/1/137 546/2/137 547/3/137 548/4/137
v 0.461029 0.738704 0.414341
v 0.461029 0.778650 0.363425
v 0.455000 0.760594 0.350000
v 0.455000 0.721367 0.400000
vn -0.965904 0.203693 0.159807
f 549/1/138 550/2/138 551/3/138 552/4/138
v 0.455000 0.721367 0.400000
v 0.455000 0.760594 0.350000
v 0.461029 0.742538 0.336575
v 0.461029 0.704029 0.385659
vn -0.965904 -0.203692 -0.159808
f 553/1/139 554/2/139 555/3/139 556/4/139
v 0.461029 0.704029 0.385659
v 0.461029 0.742538 0.336575
v 0.477500 0.729320 0.326747
v 0.477500 0.691338 0.375160
vn -0.706989 -0.556417 -0.436539
f 557/1/140 558/2/140 559/3/140 560/4/140
v 0.477500 0.691338 0.375160
v 0.477500 0.729320 0.326747
v 0.500000 0.724482 0.323150
v 0.500000 0.686692 0.371318
vn -0.258738 -0.759970 -0.596238
f 561/1/141 562/2/141 563/3/141 564/4/141
v 0.500000 0.686692 0.371318
v 0.500000 0.724482 0.323150
v 0.522500 0.729320 0.326747
v 0.522500 0.691338 0.375160
vn 0.258738 -0.759970 -0.596238
f 565/1/142 566/2/142 567/3/142 568/4/142
v 0.522500 0.691338 0.375160
v 0.522500 0.729320 0.326747
v 0.538971 0.742538 0.336575
v 0.538971 0.704029 0.385659
vn 0.706989 -0.556417 -0.436540
f 569/1/143 570/2/143 571/3/143 572/4/143
v 0.538971 0.704029 0.385659
v 0.538971 0.742538 0.336575
v 0.545000 0.760594 0.350000
v 0.545000 0.721367 0.400000
vn 0.965904 -0.203692 -0.159808
f 573/1/144 574/2/144 575/3/144 576/4/144
v 0.545000 0.760594 0.350000
v 0.545000 0.795795 0.300000
v 0.538971 0.814508 0.312494
v 0.538971 0.778650 0.363425
vn 0.965904 0.211699 0.149040
f 577/1/145 578/2/145 579/3/145 580/4/145
v 0.538971 0.778650 0.363425
v 0.538971 0.814508 0.312494
v 0.522500 0.828206 0.321640
v 0.522500 0.791868 0.373253
vn 0.706988 0.578283 0.407132
f 581/1/146 582/2/146 583/3/146 584/4/146
v 0.522500 0.791868 0.373253
v 0.522500 0.828206 0.321640
v 0.500000 0.833220 0.324988
v 0.500000 0.796707 0.376850
vn 0.258738 0.789831 0.556077
f 585/1/147 586/2/147 587/3/147 588/4/147
v 0.500000 0.796707 0.376850
v 0.500000 0.833220 0.324988
v 0.477500 0.828206 0.321640
v 0.477500 0.791868 0.373253
vn -0.258738 0.789829 0.556080
f 589/1/148 590/2/148 591/3/148 592/4/148
v 0.477500 0.791868 0.373253
v 0.477500 0.828206 0.321640
v 0.461029 0.814508 0.312494
v 0.461029 0.778650 0.363425
vn -0.706988 0.578280 0.407136
f 593/1/149 594/2/149 595/3/149 596/4/149
v 0.461029 0.778650 0.363425
v 0.461029 0.814508 0.312494
v 0.455000 0.795795 0.300000
v 0.455000 0.760594 0.350000
vn -0.965904 0.211697 0.149042
f 597/1/150 598/2/150 599/3/150 600/4/150
v 0.455000 0.760594 0.350000
v 0.455000 0.795795 0.300000
v 0.461029 0.777083 0.287506
v 0.461029 0.742538 0.336575
vn -0.965904 -0.211699 -0.149040
f 601/1/151 602/2/151 603/3/151 604/4/151
v 0.461029 0.742538 0.336575
v 0.461029 0.777083 0.287506
v 0.477500 0.763385 0.278360
v 0.477500 0.729320 0.326747
vn -0.706988 -0.578293 -0.407119
f 605/1/152 606/2/152 607/3/152 608/4/152
v 0.477500 0.729320 0.326747
v 0.477500 0.763385 0.278360
v 0.500000 0.758371 0.275012
v 0.500000 0.724482 0.323150
vn -0.258738 -0.789852 -0.556047
f 609/1/153 610/2/153 611/3/153 612/4/153
v 0.500000 0.724482 0.323150
v 0.500000 0.758371 0.275012
v 0.522500 0.763385 0.278360
v 0.522500 0.729320 0.326747
vn 0.258738 -0.789854 -0.556044
f 613/1/154 614/2/154 615/3/154 616/4/154
v 0.522500 0.729320 0.326747
v 0.522500 0.763385 0.278360
v 0.538971 0.777083 0.287506
v 0.538971 0.742538 0.336575
vn 0.706988 -0.578296 -0.407114
f 617/1/155 618/2/155 619/3/155 620/4/155
v 0.538971 0.742538 0.336575
v 0.538971 0.777083 0.287506
v 0.545000 0.795795 0.300000
v 0.545000 0.760594 0.350000
vn 0.965904 -0.211701 -0.149037
f 621/1/156 622/2/156 623/3/156 624/4/156
v 0.545000 0.795795 0.300000
v 0.545000 0.827422 0.250000
v 0.538971 0.846715 0.261578
v 0.538971 0.814508 0.312494
vn 0.965906 0.218796 0.138398
f 625/1/157 626/2/157 627/3/157 628/4/157
v 0.538971 0.814508 0.312494
v 0.538971 0.846715 0.261578
v 0.522500 0.860838 0.270054
v 0.522500 0.828206 0.321640
vn 0.706999 0.597677 0.378066
f 629/1/158 630/2/158 631/3/158 632/4/158
v 0.522500 0.828206 0.321640
v 0.522500 0.860838 0.270054
v 0.500000 0.866007 0.273156
v 0.500000 0.833220 0.324988
vn 0.258745 0.816331 0.516386
f 633/1/159 634/2/159 635/3/159 636/4/159
v 0.500000 0.833220 0.324988
v 0.500000 0.866007 0.273156
v 0.477500 0.860838 0.270054
v 0.477500 0.828206 0.321640
vn -0.258745 0.816329 0.516389
f 637/1/160 638/2/160 639/3/160 640/4/160
v 0.477500 0.828206 0.321640
v 0.477500 0.860838 0.270054
v 0.461029 0.846715 0.261578
v 0.461029 0.814508 0.312494
vn -0.706999 0.597674 0.378071
f 641/1/161 642/2/161 643/3/161 644/4/161
v 0.461029 0.814508 0.312494
v 0.461029 0.846715 0.261578
v 0.455000 0.827422 0.250000
v 0.455000 0.795795 0.300000
vn -0.965906 0.218794 0.138400
f 645/1/162 646/2/162 647/3/162 648/4/162
v 0.455000 0.795795 0.300000
v 0.455000 0.827422 0.250000
v 0.461029 0.808130 0.238422
v 0.461029 0.777083 0.287506
vn -0.965906 -0.218796 -0.138398
f 649/1/163 650/2/163 651/3/163 652/4/163
v 0.461029 0.777083 0.287506
v 0.461029 0.808130 0.238422
v 0.477500 0.794007 0.229946
v 0.477500 0.763385 0.278360
vn -0.706999 -0.597686 -0.378053
f 653/1/164 654/2/164 655/3/164 656/4/164
v 0.477500 0.763385 0.278360
v 0.477500 0.794007 0.229946
v 0.500000 0.788838 0.226844
v 0.500000 0.758371 0.275012
vn -0.258745 -0.816351 -0.516355
f 657/1/165 658/2/165 659/3/165 660/4/165
v 0.500000 0.758371 0.275012
v 0.500000 0.788838 0.226844
v 0.522500 0.794007 0.229946
v 0.522500 0.763385 0.278360
vn 0.258745 -0.816352 -0.516352
f 661/1/166 662/2/166 663/3/166 664/4/166
v 0.522500 0.763385 0.278360
v 0.522500 0.794007 0.229946
v 0.538971 0.808130 0.238422
v 0.538971 0.777083 0.287506
vn 0.706999 -0.597689 -0.378048
f 665/1/167 666/2/167 667/3/167 668/4/167
v 0.538971 0.777083 0.287506
v 0.538971 0.808130 0.238422
v 0.545000 0.827422 0.250000
v 0.545000 0.795795 0.300000
vn 0.965906 -0.218797 -0.138395
f 669/1/168 670/2/168 671/3/168 672/4/168
v 0.545000 0.827422 0.250000
v 0.545000 0.855854 0.200000
v 0.538971 0.875904 0.210211
v 0.538971 0.846715 0.261578
vn 0.965908 0.225046 0.127970
f 673/1/169 674/2/169 675/3/169 676/4/169
v 0.538971 0.846715 0.261578
v 0.538971 0.875904 0.210211
v 0.522500 0.890581 0.217686
v 0.522500 0.860838 0.270054
vn 0.707007 0.614869 0.349396
f 677/1/170 678/2/170 679/3/170 680/4/170
v 0.522500 0.860838 0.270054
v 0.522500 0.890581 0.217686
v 0.500000 0.895954 0.220422
v 0.500000 0.866007 0.273156
vn 0.258750 0.839923 0.477051
f 681/1/171 682/2/171 683/3/171 684/4/171
v 0.500000 0.866007 0.273156
v 0.500000 0.895954 0.220422
v 0.477500 0.890581 0.217686
v 0.477500 0.860838 0.270054
vn -0.258749 0.839959 0.476989
f 685/1/172 686/2/172 687/3/172 688/4/172
v 0.477500 0.860838 0.270054
v 0.477500 0.890581 0.217686
v 0.461029 0.875904 0.210211
v 0.461029 0.846715 0.261578
vn -0.707005 0.614943 0.349269
f 689/1/173 690/2/173 691/3/173 692/4/173
v 0.461029 0.846715 0.261578
v 0.461029 0.875904 0.210211
v 0.455000 0.855854 0.200000
v 0.455000 0.827422 0.250000
vn -0.965908 0.225085 0.127904
f 693/1/174 694/2/174 695/3/174 696/4/174
v 0.455000 0.827422 0.250000
v 0.455000 0.855854 0.200000
v 0.461029 0.835805 0.189789
v 0.461029 0.808130 0.238422
vn -0.965908 -0.225046 -0.127970
f 697/1/175 698/2/175 699/3/175 700/4/175
v 0.461029 0.808130 0.238422
v 0.461029 0.835805 0.189789
v 0.477500 0.821127 0.182314
v 0.477500 0.794007 0.229946
vn -0.707012 -0.614650 -0.349770
f 701/1/176 702/2/176 703/3/176 704/4/176
v 0.477500 0.794007 0.229946
v 0.477500 0.821127 0.182314
v 0.500000 0.815755 0.179578
v 0.500000 0.788838 0.226844
vn -0.258756 -0.839415 -0.477942
f 705/1/177 706/2/177 707/3/177 708/4/177
v 0.500000 0.788838 0.226844
v 0.500000 0.815755 0.179578
v 0.522500 0.821127 0.182314
v 0.522500 0.794007 0.229946
vn 0.258756 -0.839371 -0.478018
f 709/1/178 710/2/178 711/3/178 712/4/178
v 0.522500 0.794007 0.229946
v 0.522500 0.821127 0.182314
v 0.538971 0.835805 0.189789
v 0.538971 0.808130 0.238422
vn 0.707014 -0.614564 -0.349917
f 713/1/179 714/2/179 715/3/179 716/4/179
v 0.538971 0.808130 0.238422
v 0.538971 0.835805 0.189789
v 0.545000 0.855854 0.200000
v 0.545000 0.827422 0.250000
vn 0.965908 -0.225004 -0.128040
f 717/1/180 718/2/180 719/3/180 720/4/180
v 0.545000 0.855854 0.200000
v 0.545000 0.939124 0.016042
v 0.538971 0.960047 0.024316
v 0.538971 0.875904 0.210211
vn 0.965857 0.236021 0.106835
f 721/1/181 722/2/181 723/3/181 724/4/181
v 0.538971 0.875904 0.210211
v 0.538971 0.960047 0.024316
v 0.522500 0.975364 0.030372
v 0.522500 0.890581 0.217686
vn 0.706732 0.644530 0.291738
f 725/1/182 726/2/182 727/3/182 728/4/182
v 0.522500 0.890581 0.217686
v 0.522500 0.975364 0.030372
v 0.500000 0.980971 0.032589
v 0.500000 0.895954 0.220422
vn 0.258563 0.880044 0.398331
f 729/1/183 730/2/183 731/3/183 732/4/183
v 0.500000 0.895954 0.220422
v 0.500000 0.980971 0.032589
v 0.477500 0.975364 0.030372
v 0.477500 0.890581 0.217686
vn -0.258563 0.880046 0.398328
f 733/1/184 734/2/184 735/3/184 736/4/184
v 0.477500 0.890581 0.217686
v 0.477500 0.975364 0.030372
v 0.461029 0.960047 0.024316
v 0.461029 0.875904 0.210211
vn -0.706732 0.644532 0.291732
f 737/1/185 738/2/185 739/3/185 740/4/185
v 0.461029 0.875904 0.210211
v 0.461029 0.960047 0.024316
v 0.455000 0.939124 0.016042
v 0.455000 0.855854 0.200000
vn -0.965857 0.236022 0.106832
f 741/1/186 742/2/186 743/3/186 744/4/186
v 0.455000 0.855854 0.200000
v 0.455000 0.939124 0.016042
v 0.461029 0.918200 0.007768
v 0.461029 0.835805 0.189789
vn -0.965857 -0.236021 -0.106835
f 745/1/187 746/2/187 747/3/187 748/4/187
v 0.461029 0.835805 0.189789
v 0.461029 0.918200 0.007768
v 0.477500 0.902883 0.001711
v 0.477500 0.821127 0.182314
vn -0.706733 -0.644521 -0.291755
f 749/1/188 750/2/188 751/3/188 752/4/188
v 0.477500 0.821127 0.182314
v 0.477500 0.902883 0.001711
v 0.500000 0.897277 -0.000506
v 0.500000 0.815755 0.179578
vn -0.258564 -0.880026 -0.398371
f 753/1/189 754/2/189 755/3/189 756/4/189
v 0.500000 0.815755 0.179578
v 0.500000 0.897277 -0.000506
v 0.522500 0.902883 0.001711
v 0.522500 0.821127 0.182314
vn 0.258564 -0.880024 -0.398374
f 757/1/190 758/2/190 759/3/190 760/4/190
v 0.522500 0.821127 0.182314
v 0.522500 0.902883 0.001711
v 0.538971 0.918200 0.007768
v 0.538971 0.835805 0.189789
vn 0.706733 -0.644518 -0.291761
f 761/1/191 762/2/191 763/3/191 764/4/191
v 0.538971 0.835805 0.189789
v 0.538971 0.918200 0.007768
v 0.545000 0.939124 0.016042
v 0.545000 0.855854 0.200000
vn 0.965857 -0.236019 -0.106839
f 765/1/192 766/2/192 767/3/192 768/4/192
v 0.545000 0.939124 0.016042
v 0.545000 1.001737 -0.167917
v 0.538971 1.023364 -0.161709
v 0.538971 0.960047 0.024316
vn 0.965850 0.245284 0.083487
f 769/1/193 770/2/193 771/3/193 772/4/193
v 0.538971 0.960047 0.024316
v 0.538971 1.023364 -0.161709
v 0.522500 1.039196 -0.157165
v 0.522500 0.975364 0.030372
vn 0.706691 0.669788 0.227974
f 773/1/194 774/2/194 775/3/194 776/4/194
v 0.522500 0.975364 0.030372
v 0.522500 1.039196 -0.157165
v 0.500000 1.044990 -0.155502
v 0.500000 0.980971 0.032589
vn 0.258535 0.914482 0.311259
f 777/1/195 778/2/195 779/3/195 780/4/195
v 0.500000 0.980971 0.032589
v 0.500000 1.044990 -0.155502
v 0.477500 1.039196 -0.157165
v 0.477500 0.975364 0.030372
vn -0.258535 0.914482 0.311259
f 781/1/196 782/2/196 783/3/196 784/4/196
v 0.477500 0.975364 0.030372
v 0.477500 1.039196 -0.157165
v 0.461029 1.023364 -0.161709
v 0.461029 0.960047 0.024316
vn -0.706691 0.669788 0.227974
f 785/1/197 786/2/197 787/3/197 788/4/197
v 0.461029 0.960047 0.024316
v 0.461029 1.023364 -0.161709
v 0.455000 1.001737 -0.167917
v 0.455000 0.939124 0.016042
vn -0.965850 0.245284 0.083487
f 789/1/198 790/2/198 791/3/198 792/4/198
v 0.455000 0.939124 0.016042
v 0.455000 1.001737 -0.167917
v 0.461029 0.980110 -0.174124
v 0.461029 0.918200 0.007768
vn -0.965850 -0.245284 -0.083487
f 793/1/199 794/2/199 795/3/199 796/4/199
v 0.461029 0.918200 0.007768
v 0.461029 0.980110 -0.174124
v 0.477500 0.964278 -0.178668
v 0.477500 0.902883 0.001711
vn -0.706691 -0.669788 -0.227974
f 797/1/200 798/2/200 799/3/200 800/4/200
v 0.477500 0.902883 0.001711
v 0.477500 0.964278 -0.178668
v 0.500000 0.958483 -0.180332
v 0.500000 0.897277 -0.000506
vn -0.258535 -0.914482 -0.311260
f 801/1/201 802/2/201 803/3/201 804/4/201
v 0.500000 0.897277 -0.000506
v 0.500000 0.958483 -0.180332
v 0.522500 0.964278 -0.178668
v 0.522500 0.902883 0.001711
vn 0.258535 -0.914482 -0.311260
f 805/1/202 806/2/202 807/3/202 808/4/202
v 0.522500 0.902883 0.001711
v 0.522500 0.964278 -0.178668
v 0.538971 0.980110 -0.174124
v 0.538971 0.918200 0.007768
vn 0.706691 -0.669788 -0.227974
f 809/1/203 810/2/203 811/3/203 812/4/203
v 0.538971 0.918200 0.007768
v 0.538971 0.980110 -0.174124
v 0.545000 1.001737 -0.167917
v 0.545000 0.939124 0.016042
vn 0.965850 -0.245284 -0.083487
f 813/1/204 814/2/204 815/3/204 816/4/204
v 0.545000 1.001737 -0.167917
v 0.545000 1.044997 -0.351875
v 0.538971 1.067076 -0.347543
v 0.538971 1.023364 -0.161709
vn 0.965849 0.252224 0.059314
f 817/1/205 818/2/205 819/3/205 820/4/205
v 0.538971 1.023364 -0.161709
v 0.538971 1.067076 -0.347543
v 0.522500 1.083239 -0.344372
v 0.522500 1.039196 -0.157165
vn 0.706691 0.688725 0.162004
f 821/1/206 822/2/206 823/3/206 824/4/206
v 0.522500 1.039196 -0.157165
v 0.522500 1.083239 -0.344372
v 0.500000 1.089155 -0.343211
v 0.500000 1.044990 -0.155502
vn 0.258536 0.940328 0.221228
f 825/1/207 826/2/207 827/3/207 828/4/207
v 0.500000 1.044990 -0.155502
v 0.500000 1.089155 -0.343211
v 0.477500 1.083239 -0.344372
v 0.477500 1.039196 -0.157165
vn -0.258536 0.940325 0.221242
f 829/1/208 830/2/208 831/3/208 832/4/208
v 0.477500 1.039196 -0.157165
v 0.477500 1.083239 -0.344372
v 0.461029 1.067076 -0.347543
v 0.461029 1.023364 -0.161709
vn -0.706691 0.688718 0.162033
f 833/1/209 834/2/209 835/3/209 836/4/209
v 0.461029 1.023364 -0.161709
v 0.461029 1.067076 -0.347543
v 0.455000 1.044997 -0.351875
v 0.455000 1.001737 -0.167917
vn -0.965850 0.252219 0.059328
f 837/1/210 838/2/210 839/3/210 840/4/210
v 0.455000 1.001737 -0.167917
v 0.455000 1.044997 -0.351875
v 0.461029 1.022918 -0.356207
v 0.461029 0.980110 -0.174124
vn -0.965849 -0.252224 -0.059314
f 841/1/211 842/2/211 843/3/211 844/4/211
v 0.461029 0.980110 -0.174124
v 0.461029 1.022918 -0.356207
v 0.477500 1.006755 -0.359378
v 0.477500 0.964278 -0.178668
vn -0.706689 -0.688746 -0.161925
f 845/1/212 846/2/212 847/3/212 848/4/212
v 0.477500 0.964278 -0.178668
v 0.477500 1.006755 -0.359378
v 0.500000 1.000839 -0.360539
v 0.500000 0.958483 -0.180332
vn -0.258533 -0.940373 -0.221040
f 849/1/213 850/2/213 851/3/213 852/4/213
v 0.500000 0.958483 -0.180332
v 0.500000 1.000839 -0.360539
v 0.522500 1.006755 -0.359378
v 0.522500 0.964278 -0.178668
vn 0.258533 -0.940377 -0.221025
f 853/1/214 854/2/214 855/3/214 856/4/214
v 0.522500 0.964278 -0.178668
v 0.522500 1.006755 -0.359378
v 0.538971 1.022918 -0.356207
v 0.538971 0.980110 -0.174124
vn 0.706688 -0.688754 -0.161895
f 857/1/215 858/2/215 859/3/215 860/4/215
v 0.538971 0.980110 -0.174124
v 0.538971 1.022918 -0.356207
v 0.545000 1.044997 -0.351875
v 0.545000 1.001737 -0.167917
vn 0.965849 -0.252228 -0.059299
f 861/1/216 862/2/216 863/3/216 864/4/216
v 0.545000 1.044997 -0.351875
v 0.545000 1.074026 -0.535833
v 0.538971 1.096305 -0.532686
v 0.538971 1.067076 -0.347543
vn 0.965881 0.255821 0.040369
f 865/1/217 866/2/217 867/3/217 868/4/217
v 0.538971 1.067076 -0.347543
v 0.538971 1.096305 -0.532686
v 0.522500 1.112614 -0.530382
v 0.522500 1.083239 -0.344372
vn 0.706863 0.698698 0.110303
f 869/1/218 870/2/218 871/3/218 872/4/218
v 0.522500 1.083239 -0.344372
v 0.522500 1.112614 -0.530382
v 0.500000 1.118583 -0.529539
v 0.500000 1.089155 -0.343211
vn 0.258653 0.954146 0.150678
f 873/1/219 874/2/219 875/3/219 876/4/219
v 0.500000 1.089155 -0.343211
v 0.500000 1.118583 -0.529539
v 0.477500 1.112614 -0.530382
v 0.477500 1.083239 -0.344372
vn -0.258653 0.954143 0.150695
f 877/1/220 878/2/220 879/3/220 880/4/220
v 0.477500 1.083239 -0.344372
v 0.477500 1.112614 -0.530382
v 0.461029 1.096305 -0.532686
v 0.461029 1.067076 -0.347543
vn -0.706863 0.698692 0.110337
f 881/1/221 882/2/221 883/3/221 884/4/221
v 0.461029 1.067076 -0.347543
v 0.461029 1.096305 -0.532686
v 0.455000 1.074026 -0.535833
v 0.455000 1.044997 -0.351875
vn -0.965881 0.255818 0.040386
f 885/1/222 886/2/222 887/3/222 888/4/222
v 0.455000 1.044997 -0.351875
v 0.455000 1.074026 -0.535833
v 0.461029 1.051747 -0.538980
v 0.461029 1.022918 -0.356207
vn -0.965881 -0.255821 -0.040369
f 889/1/223 890/2/223 891/3/223 892/4/223
v 0.461029 1.022918 -0.356207
v 0.461029 1.051747 -0.538980
v 0.477500 1.035438 -0.541284
v 0.477500 1.006755 -0.359378
vn -0.706861 -0.698715 -0.110208
f 893/1/224 894/2/224 895/3/224 896/4/224
v 0.477500 1.006755 -0.359378
v 0.477500 1.035438 -0.541284
v 0.500000 1.029468 -0.542128
v 0.500000 1.000839 -0.360539
vn -0.258651 -0.954182 -0.150453
f 897/1/225 898/2/225 899/3/225 900/4/225
v 0.500000 1.000839 -0.360539
v 0.500000 1.029468 -0.542128
v 0.522500 1.035438 -0.541284
v 0.522500 1.006755 -0.359378
vn 0.258650 -0.954185 -0.150436
f 901/1/226 902/2/226 903/3/226 904/4/226
v 0.522500 1.006755 -0.359378
v 0.522500 1.035438 -0.541284
v 0.538971 1.051747 -0.538980
v 0.538971 1.022918 -0.356207
vn 0.706860 -0.698721 -0.110173
f 905/1/227 906/2/227 907/3/227 908/4/227
v 0.538971 1.022918 -0.356207
v 0.538971 1.051747 -0.538980
v 0.545000 1.074026 -0.535833
v 0.545000 1.044997 -0.351875
vn 0.965881 -0.255824 -0.040351
f 909/1/228 910/2/228 911/3/228 912/4/228
v 0.545000 1.074026 -0.535833
v 0.545000 1.096984 -0.719792
v 0.538971 1.119334 -0.717202
v 0.538971 1.096305 -0.532686
vn 0.965917 0.256858 0.032055
f 913/1/229 914/2/229 915/3/229 916/4/229
v 0.538971 1.096305 -0.532686
v 0.538971 1.119334 -0.717202
v 0.522500 1.135696 -0.715307
v 0.522500 1.112614 -0.530382
vn 0.707061 0.701709 0.087580
f 917/1/230 918/2/230 919/3/230 920/4/230
v 0.522500 1.112614 -0.530382
v 0.522500 1.135696 -0.715307
v 0.500000 1.141685 -0.714613
v 0.500000 1.118583 -0.529539
vn 0.258788 0.958497 0.119638
f 921/1/231 922/2/231 923/3/231 924/4/231
v 0.500000 1.118583 -0.529539
v 0.500000 1.141685 -0.714613
v 0.477500 1.135696 -0.715307
v 0.477500 1.112614 -0.530382
vn -0.258788 0.958496 0.119640
f 925/1/232 926/2/232 927/3/232 928/4/232
v 0.477500 1.112614 -0.530382
v 0.477500 1.135696 -0.715307
v 0.461029 1.119334 -0.717202
v 0.461029 1.096305 -0.532686
vn -0.707061 0.701708 0.087586
f 929/1/233 930/2/233 931/3/233 932/4/233
v 0.461029 1.096305 -0.532686
v 0.461029 1.119334 -0.717202
v 0.455000 1.096984 -0.719792
v 0.455000 1.074026 -0.535833
vn -0.965917 0.256858 0.032058
f 933/1/234 934/2/234 935/3/234 936/4/234
v 0.455000 1.074026 -0.535833
v 0.455000 1.096984 -0.719792
v 0.461029 1.074633 -0.722381
v 0.461029 1.051747 -0.538980
vn -0.965917 -0.256858 -0.032055
f 937/1/235 938/2/235 939/3/235 940/4/235
v 0.461029 1.051747 -0.538980
v 0.461029 1.074633 -0.722381
v 0.477500 1.058271 -0.724276
v 0.477500 1.035438 -0.541284
vn -0.707060 -0.701711 -0.087564
f 941/1/236 942/2/236 943/3/236 944/4/236
v 0.477500 1.035438 -0.541284
v 0.477500 1.058271 -0.724276
v 0.500000 1.052282 -0.724970
v 0.500000 1.029468 -0.542128
vn -0.258787 -0.958501 -0.119601
f 945/1/237 946/2/237 947/3/237 948/4/237
v 0.500000 1.029468 -0.542128
v 0.500000 1.052282 -0.724970
v 0.522500 1.058271 -0.724276
v 0.522500 1.035438 -0.541284
vn 0.258787 -0.958502 -0.119598
f 949/1/238 950/2/238 951/3/238 952/4/238
v 0.522500 1.035438 -0.541284
v 0.522500 1.058271 -0.724276
v 0.538971 1.074633 -0.722381
v 0.538971 1.051747 -0.538980
vn 0.707060 -0.701712 -0.087559
f 953/1/239 954/2/239 955/3/239 956/4/239
v 0.538971 1.051747 -0.538980
v 0.538971 1.074633 -0.722381
v 0.545000 1.096984 -0.719792
v 0.545000 1.074026 -0.535833
vn 0.965917 -0.256859 -0.032053
f 957/1/240 958/2/240 959/3/240 960/4/240
v 0.545000 1.096984 -0.719792
v 0.545000 1.116651 -0.903750
v 0.538971 1.139064 -0.901778
v 0.538971 1.119334 -0.717202
vn 0.965923 0.257362 0.027515
f 961/1/241 962/2/241 963/3/241 964/4/241
v 0.538971 1.119334 -0.717202
v 0.538971 1.139064 -0.901778
v 0.522500 1.155472 -0.900334
v 0.522500 1.135696 -0.715307
vn 0.707093 0.703115 0.075160
f 965/1/242 966/2/242 967/3/242 968/4/242
v 0.522500 1.135696 -0.715307
v 0.522500 1.155472 -0.900334
v 0.500000 1.161478 -0.899805
v 0.500000 1.141685 -0.714613
vn 0.258810 0.960458 0.102657
f 969/1/243 970/2/243 971/3/243 972/4/243
v 0.500000 1.141685 -0.714613
v 0.500000 1.161478 -0.899805
v 0.477500 1.155472 -0.900334
v 0.477500 1.135696 -0.715307
vn -0.258810 0.960458 0.102653
f 973/1/244 974/2/244 975/3/244 976/4/244
v 0.477500 1.135696 -0.715307
v 0.477500 1.155472 -0.900334
v 0.461029 1.139064 -0.901778
v 0.461029 1.119334 -0.717202
vn -0.707093 0.703116 0.075152
f 977/1/245 978/2/245 979/3/245 980/4/245
v 0.461029 1.119334 -0.717202
v 0.461029 1.139064 -0.901778
v 0.455000 1.116651 -0.903750
v 0.455000 1.096984 -0.719792
vn -0.965923 0.257362 0.027511
f 981/1/246 982/2/246 983/3/246 984/4/246
v 0.455000 1.096984 -0.719792
v 0.455000 1.116651 -0.903750
v 0.461029 1.094238 -0.905722
v 0.461029 1.074633 -0.722381
vn -0.965923 -0.257362 -0.027515
f 985/1/247 986/2/247 987/3/247 988/4/247
v 0.461029 1.074633 -0.722381
v 0.461029 1.094238 -0.905722
v 0.477500 1.077830 -0.907166
v 0.477500 1.058271 -0.724276
vn -0.707093 -0.703112 -0.075183
f 989/1/248 990/2/248 991/3/248 992/4/248
v 0.477500 1.058271 -0.724276
v 0.477500 1.077830 -0.907166
v 0.500000 1.071824 -0.907695
v 0.500000 1.052282 -0.724970
vn -0.258810 -0.960452 -0.102712
f 993/1/249 994/2/249 995/3/249 996/4/249
v 0.500000 1.052282 -0.724970
v 0.500000 1.071824 -0.907695
v 0.522500 1.077830 -0.907166
v 0.522500 1.058271 -0.724276
vn 0.258810 -0.960451 -0.102717
f 997/1/250 998/2/250 999/3/250 1000/4/250
v 0.522500 1.058271 -0.724276
v 0.522500 1.077830 -0.907166
v 0.538971 1.094238 -0.905722
v 0.538971 1.074633 -0.722381
vn 0.707093 -0.703111 -0.075192
f 1001/1/251 1002/2/251 1003/3/251 1004/4/251
v 0.538971 1.074633 -0.722381
v 0.538971 1.094238 -0.905722
v 0.545000 1.116651 -0.903750
v 0.545000 1.096984 -0.719792
vn 0.965923 -0.257361 -0.027519
f 1005/1/252 1006/2/252 1007/3/252 1008/4/252
v 0.545000 1.116651 -0.903750
v 0.545000 1.129370 -1.087708
v 0.538971 1.151832 -1.086407
v 0.538971 1.139064 -0.901778
vn 0.965914 0.258245 0.017855
f 1009/1/253 1010/2/253 1011/3/253 1012/4/253
v 0.538971 1.139064 -0.901778
v 0.538971 1.151832 -1.086407
v 0.522500 1.168276 -1.085454
v 0.522500 1.155472 -0.900334
vn 0.707045 0.705484 0.048787
f 1013/1/254 1014/2/254 1015/3/254 1016/4/254
v 0.522500 1.155472 -0.900334
v 0.522500 1.168276 -1.085454
v 0.500000 1.174295 -1.085105
v 0.500000 1.161478 -0.899805
vn 0.258777 0.963635 0.066649
f 1017/1/255 1018/2/255 1019/3/255 1020/4/255
v 0.500000 1.161478 -0.899805
v 0.500000 1.174295 -1.085105
v 0.477500 1.168276 -1.085454
v 0.477500 1.155472 -0.900334
vn -0.258777 0.963635 0.066653
f 1021/1/256 1022/2/256 1023/3/256 1024/4/256
v 0.477500 1.155472 -0.900334
v 0.477500 1.168276 -1.085454
v 0.461029 1.151832 -1.086407
v 0.461029 1.139064 -0.901778
vn -0.707045 0.705483 0.048794
f 1025/1/257 1026/2/257 1027/3/257 1028/4/257
v 0.461029 1.139064 -0.901778
v 0.461029 1.151832 -1.086407
v 0.455000 1.129370 -1.087708
v 0.455000 1.116651 -0.903750
vn -0.965914 0.258245 0.017859
f 1029/1/258 1030/2/258 1031/3/258 1032/4/258
v 0.455000 1.116651 -0.903750
v 0.455000 1.129370 -1.087708
v 0.461029 1.106908 -1.089010
v 0.461029 1.094238 -0.905722
vn -0.965914 -0.258245 -0.017855
f 1033/1/259 1034/2/259 1035/3/259 1036/4/259
v 0.461029 1.094238 -0.905722
v 0.461029 1.106908 -1.089010
v 0.477500 1.090464 -1.089963
v 0.477500 1.077830 -0.907166
vn -0.707045 -0.705485 -0.048768
f 1037/1/260 1038/2/260 1039/3/260 1040/4/260
v 0.477500 1.077830 -0.907166
v 0.477500 1.090464 -1.089963
v 0.500000 1.084445 -1.090312
v 0.500000 1.071824 -0.907695
vn -0.258777 -0.963638 -0.066603
f 1041/1/261 1042/2/261 1043/3/261 1044/4/261
v 0.500000 1.071824 -0.907695
v 0.500000 1.084445 -1.090312
v 0.522500 1.090464 -1.089963
v 0.522500 1.077830 -0.907166
vn 0.258777 -0.963639 -0.066599
f 1045/1/262 1046/2/262 1047/3/262 1048/4/262
v 0.522500 1.077830 -0.907166
v 0.522500 1.090464 -1.089963
v 0.538971 1.106908 -1.089010
v 0.538971 1.094238 -0.905722
vn 0.707045 -0.705486 -0.048761
f 1049/1/263 1050/2/263 1051/3/263 1052/4/263
v 0.538971 1.094238 -0.905722
v 0.538971 1.106908 -1.089010
v 0.545000 1.129370 -1.087708
v 0.545000 1.116651 -0.903750
vn 0.965914 -0.258245 -0.017852
f 1053/1/264 1054/2/264 1055/3/264 1056/4/264
v 0.545000 1.129370 -1.087708
v 0.545000 1.137974 -1.271667
v 0.538971 1.160453 -1.270687
v 0.538971 1.151832 -1.086407
vn 0.965922 0.258551 0.012093
f 1057/1/265 1058/2/265 1059/3/265 1060/4/265
v 0.538971 1.151832 -1.086407
v 0.538971 1.160453 -1.270687
v 0.522500 1.176908 -1.269971
v 0.522500 1.168276 -1.085454
vn 0.707085 0.706356 0.033043
f 1061/1/266 1062/2/266 1063/3/266 1064/4/266
v 0.522500 1.168276 -1.085454
v 0.522500 1.176908 -1.269971
v 0.500000 1.182932 -1.269708
v 0.500000 1.174295 -1.085105
vn 0.258804 0.964874 0.045141
f 1065/1/267 1066/2/267 1067/3/267 1068/4/267
v 0.500000 1.174295 -1.085105
v 0.500000 1.182932 -1.269708
v 0.477500 1.176908 -1.269971
v 0.477500 1.168276 -1.085454
vn -0.258804 0.964874 0.045143
f 1069/1/268 1070/2/268 1071/3/268 1072/4/268
v 0.477500 1.168276 -1.085454
v 0.477500 1.176908 -1.269971
v 0.461029 1.160453 -1.270687
v 0.461029 1.151832 -1.086407
vn -0.707085 0.706356 0.033047
f 1073/1/269 1074/2/269 1075/3/269 1076/4/269
v 0.461029 1.151832 -1.086407
v 0.461029 1.160453 -1.270687
v 0.455000 1.137974 -1.271667
v 0.455000 1.129370 -1.087708
vn -0.965922 0.258551 0.012095
f 1077/1/270 1078/2/270 1079/3/270 1080/4/270
v 0.455000 1.129370 -1.087708
v 0.455000 1.137974 -1.271667
v 0.461029 1.115495 -1.272646
v 0.461029 1.106908 -1.089010
vn -0.965922 -0.258551 -0.012093
f 1081/1/271 1082/2/271 1083/3/271 1084/4/271
v 0.461029 1.106908 -1.089010
v 0.461029 1.115495 -1.272646
v 0.477500 1.099040 -1.273363
v 0.477500 1.090464 -1.089963
vn -0.707085 -0.706357 -0.033033
f 1085/1/272 1086/2/272 1087/3/272 1088/4/272
v 0.477500 1.090464 -1.089963
v 0.477500 1.099040 -1.273363
v 0.500000 1.093017 -1.273625
v 0.500000 1.084445 -1.090312
vn -0.258804 -0.964876 -0.045118
f 1089/1/273 1090/2/273 1091/3/273 1092/4/273
v 0.500000 1.084445 -1.090312
v 0.500000 1.093017 -1.273625
v 0.522500 1.099040 -1.273363
v 0.522500 1.090464 -1.089963
vn 0.258804 -0.964876 -0.045116
f 1093/1/274 1094/2/274 1095/3/274 1096/4/274
v 0.522500 1.090464 -1.089963
v 0.522500 1.099040 -1.273363
v 0.538971 1.115495 -1.272646
v 0.538971 1.106908 -1.089010
vn 0.707085 -0.706357 -0.033030
f 1097/1/275 1098/2/275 1099/3/275 1100/4/275
v 0.538971 1.106908 -1.089010
v 0.538971 1.115495 -1.272646
v 0.545000 1.137974 -1.271667
v 0.545000 1.129370 -1.087708
vn 0.965922 -0.258551 -0.012091
f 1101/1/276 1102/2/276 1103/3/276 1104/4/276
v 0.545000 1.137974 -1.271667
v 0.545000 1.145398 -1.455625
v 0.538971 1.167884 -1.454847
v 0.538971 1.160453 -1.270687
vn 0.965925 0.258610 0.010436
f 1105/1/277 1106/2/277 1107/3/277 1108/4/277
v 0.538971 1.160453 -1.270687
v 0.538971 1.167884 -1.454847
v 0.522500 1.184346 -1.454277
v 0.522500 1.176908 -1.269971
vn 0.707105 0.706534 0.028511
f 1109/1/278 1110/2/278 1111/3/278 1112/4/278
v 0.522500 1.176908 -1.269971
v 0.522500 1.184346 -1.454277
v 0.500000 1.190371 -1.454068
v 0.500000 1.182932 -1.269708
vn 0.258818 0.965141 0.038946
f 1113/1/279 1114/2/279 1115/3/279 1116/4/279
v 0.500000 1.182932 -1.269708
v 0.500000 1.190371 -1.454068
v 0.477500 1.184346 -1.454277
v 0.477500 1.176908 -1.269971
vn -0.258818 0.965141 0.038945
f 1117/1/280 1118/2/280 1119/3/280 1120/4/280
v 0.477500 1.176908 -1.269971
v 0.477500 1.184346 -1.454277
v 0.461029 1.167884 -1.454847
v 0.461029 1.160453 -1.270687
vn -0.707105 0.706534 0.028510
f 1121/1/281 1122/2/281 1123/3/281 1124/4/281
v 0.461029 1.160453 -1.270687
v 0.461029 1.167884 -1.454847
v 0.455000 1.145398 -1.455625
v 0.455000 1.137974 -1.271667
vn -0.965925 0.258610 0.010436
f 1125/1/282 1126/2/282 1127/3/282 1128/4/282
v 0.455000 1.137974 -1.271667
v 0.455000 1.145398 -1.455625
v 0.461029 1.122911 -1.456403
v 0.461029 1.115495 -1.272646
vn -0.965925 -0.258610 -0.010436
f 1129/1/283 1130/2/283 1131/3/283 1132/4/283
v 0.461029 1.115495 -1.272646
v 0.461029 1.122911 -1.456403
v 0.477500 1.106450 -1.456973
v 0.477500 1.099040 -1.273363
vn -0.707105 -0.706533 -0.028513
f 1133/1/284 1134/2/284 1135/3/284 1136/4/284
v 0.477500 1.099040 -1.273363
v 0.477500 1.106450 -1.456973
v 0.500000 1.100425 -1.457182
v 0.500000 1.093017 -1.273625
vn -0.258818 -0.965141 -0.038950
f 1137/1/285 1138/2/285 1139/3/285 1140/4/285
v 0.500000 1.093017 -1.273625
v 0.500000 1.100425 -1.457182
v 0.522500 1.106450 -1.456973
v 0.522500 1.099040 -1.273363
vn 0.258818 -0.965140 -0.038951
f 1141/1/286 1142/2/286 1143/3/286 1144/4/286
v 0.522500 1.099040 -1.273363
v 0.522500 1.106450 -1.456973
v 0.538971 1.122911 -1.456403
v 0.538971 1.115495 -1.272646
vn 0.707105 -0.706533 -0.028514
f 1145/1/287 1146/2/287 1147/3/287 1148/4/287
v 0.538971 1.115495 -1.272646
v 0.538971 1.122911 -1.456403
v 0.545000 1.145398 -1.455625
v 0.545000 1.137974 -1.271667
vn 0.965925 -0.258610 -0.010437
f 1149/1/288 1150/2/288 1151/3/288 1152/4/288
v 0.545000 1.145398 -1.455625
v 0.545000 1.150710 -1.639583
v 0.538971 1.173205 -1.639091
v 0.538971 1.167884 -1.454847
vn 0.965925 0.258715 0.007471
f 1153/1/289 1154/2/289 1155/3/289 1156/4/289
v 0.538971 1.167884 -1.454847
v 0.538971 1.173205 -1.639091
v 0.522500 1.189672 -1.638730
v 0.522500 1.184346 -1.454277
vn 0.707101 0.706818 0.020412
f 1157/1/290 1158/2/290 1159/3/290 1160/4/290
v 0.522500 1.184346 -1.454277
v 0.522500 1.189672 -1.638730
v 0.500000 1.195700 -1.638598
v 0.500000 1.190371 -1.454068
vn 0.258815 0.965524 0.027882
f 1161/1/291 1162/2/291 1163/3/291 1164/4/291
v 0.500000 1.190371 -1.454068
v 0.500000 1.195700 -1.638598
v 0.477500 1.189672 -1.638730
v 0.477500 1.184346 -1.454277
vn -0.258815 0.965524 0.027882
f 1165/1/292 1166/2/292 1167/3/292 1168/4/292
v 0.477500 1.184346 -1.454277
v 0.477500 1.189672 -1.638730
v 0.461029 1.173205 -1.639091
v 0.461029 1.167884 -1.454847
vn -0.707101 0.706818 0.020411
f 1169/1/293 1170/2/293 1171/3/293 1172/4/293
v 0.461029 1.167884 -1.454847
v 0.461029 1.173205 -1.639091
v 0.455000 1.150710 -1.639583
v 0.455000 1.145398 -1.455625
vn -0.965925 0.258715 0.007471
f 1173/1/294 1174/2/294 1175/3/294 1176/4/294
v 0.455000 1.145398 -1.455625
v 0.455000 1.150710 -1.639583
v 0.461029 1.128216 -1.640076
v 0.461029 1.122911 -1.456403
vn -0.965925 -0.258715 -0.007471
f 1177/1/295 1178/2/295 1179/3/295 1180/4/295
v 0.461029 1.122911 -1.456403
v 0.461029 1.128216 -1.640076
v 0.477500 1.111749 -1.640437
v 0.477500 1.106450 -1.456973
vn -0.707101 -0.706818 -0.020413
f 1181/1/296 1182/2/296 1183/3/296 1184/4/296
v 0.477500 1.106450 -1.456973
v 0.477500 1.111749 -1.640437
v 0.500000 1.105721 -1.640569
v 0.500000 1.100425 -1.457182
vn -0.258815 -0.965524 -0.027885
f 1185/1/297 1186/2/297 1187/3/297 1188/4/297
v 0.500000 1.100425 -1.457182
v 0.500000 1.105721 -1.640569
v 0.522500 1.111749 -1.640437
v 0.522500 1.106450 -1.456973
vn 0.258815 -0.965524 -0.027885
f 1189/1/298 1190/2/298 1191/3/298 1192/4/298
v 0.522500 1.106450 -1.456973
v 0.522500 1.111749 -1.640437
v 0.538971 1.128216 -1.640076
v 0.538971 1.122911 -1.456403
vn 0.707101 -0.706818 -0.020413
f 1193/1/299 1194/2/299 1195/3/299 1196/4/299
v 0.538971 1.122911 -1.456403
v 0.538971 1.128216 -1.640076
v 0.545000 1.150710 -1.639583
v 0.545000 1.145398 -1.455625
vn 0.965925 -0.258715 -0.007472
f 1197/1/300 1198/2/300 1199/3/300 1200/4/300
v 0.545000 1.150710 -1.639583
v 0.545000 1.153457 -1.823542
v 0.538971 1.175955 -1.823203
v 0.538971 1.173205 -1.639091
vn 0.965924 0.258796 0.003865
f 1201/1/301 1202/2/301 1203/3/301 1204/4/301
v 0.538971 1.173205 -1.639091
v 0.538971 1.175955 -1.823203
v 0.522500 1.192424 -1.822955
v 0.522500 1.189672 -1.638730
vn 0.707098 0.707036 0.010560
f 1205/1/302 1206/2/302 1207/3/302 1208/4/302
v 0.522500 1.189672 -1.638730
v 0.522500 1.192424 -1.822955
v 0.500000 1.198452 -1.822864
v 0.500000 1.195700 -1.638598
vn 0.258813 0.965820 0.014428
f 1209/1/303 1210/2/303 1211/3/303 1212/4/303
v 0.500000 1.195700 -1.638598
v 0.500000 1.198452 -1.822864
v 0.477500 1.192424 -1.822955
v 0.477500 1.189672 -1.638730
vn -0.258813 0.965820 0.014428
f 1213/1/304 1214/2/304 1215/3/304 1216/4/304
v 0.477500 1.189672 -1.638730
v 0.477500 1.192424 -1.822955
v 0.461029 1.175955 -1.823203
v 0.461029 1.173205 -1.639091
vn -0.707098 0.707036 0.010562
f 1217/1/305 1218/2/305 1219/3/305 1220/4/305
v 0.461029 1.173205 -1.639091
v 0.461029 1.175955 -1.823203
v 0.455000 1.153457 -1.823542
v 0.455000 1.150710 -1.639583
vn -0.965924 0.258796 0.003865
f 1221/1/306 1222/2/306 1223/3/306 1224/4/306
v 0.455000 1.150710 -1.639583
v 0.455000 1.153457 -1.823542
v 0.461029 1.130960 -1.823880
v 0.461029 1.128216 -1.640076
vn -0.965924 -0.258796 -0.003865
f 1225/1/307 1226/2/307 1227/3/307 1228/4/307
v 0.461029 1.128216 -1.640076
v 0.461029 1.130960 -1.823880
v 0.477500 1.114491 -1.824128
v 0.477500 1.111749 -1.640437
vn -0.707098 -0.707037 -0.010556
f 1229/1/308 1230/2/308 1231/3/308 1232/4/308
v 0.477500 1.111749 -1.640437
v 0.477500 1.114491 -1.824128
v 0.500000 1.108462 -1.824219
v 0.500000 1.105721 -1.640569
vn -0.258813 -0.965820 -0.014418
f 1233/1/309 1234/2/309 1235/3/309 1236/4/309
v 0.500000 1.105721 -1.640569
v 0.500000 1.108462 -1.824219
v 0.522500 1.114491 -1.824128
v 0.522500 1.111749 -1.640437
vn 0.258813 -0.965820 -0.014417
f 1237/1/310 1238/2/310 1239/3/310 1240/4/310
v 0.522500 1.111749 -1.640437
v 0.522500 1.114491 -1.824128
v 0.538971 1.130960 -1.823880
v 0.538971 1.128216 -1.640076
vn 0.707098 -0.707037 -0.010555
f 1241/1/311 1242/2/311 1243/3/311 1244/4/311
v 0.538971 1.128216 -1.640076
v 0.538971 1.130960 -1.823880
v 0.545000 1.153457 -1.823542
v 0.545000 1.150710 -1.639583
vn 0.965924 -0.258796 -0.003864
f 1245/1/312 1246/2/312 1247/3/312 1248/4/312
v 0.545000 1.153457 -1.823542
v 0.545000 1.156250 -2.007500
v 0.538971 1.178747 -2.007158
v 0.538971 1.175955 -1.823203
vn 0.965926 0.258789 0.003929
f 1249/1/313 1250/2/313 1251/3/313 1252/4/313
v 0.538971 1.175955 -1.823203
v 0.538971 1.178747 -2.007158
v 0.522500 1.195217 -2.006908
v 0.522500 1.192424 -1.822955
vn 0.707107 0.707025 0.010733
f 1253/1/314 1254/2/314 1255/3/314 1256/4/314
v 0.522500 1.192424 -1.822955
v 0.522500 1.195217 -2.006908
v 0.500000 1.201245 -2.006817
v 0.500000 1.198452 -1.822864
vn 0.258819 0.965815 0.014662
f 1257/1/315 1258/2/315 1259/3/315 1260/4/315
v 0.500000 1.198452 -1.822864
v 0.500000 1.201245 -2.006817
v 0.477500 1.195217 -2.006908
v 0.477500 1.192424 -1.822955
vn -0.258819 0.965815 0.014662
f 1261/1/316 1262/2/316 1263/3/316 1264/4/316
v 0.477500 1.192424 -1.822955
v 0.477500 1.195217 -2.006908
v 0.461029 1.178747 -2.007158
v 0.461029 1.175955 -1.823203
vn -0.707107 0.707025 0.010733
f 1265/1/317 1266/2/317 1267/3/317 1268/4/317
v 0.461029 1.175955 -1.823203
v 0.461029 1.178747 -2.007158
v 0.455000 1.156250 -2.007500
v 0.455000 1.153457 -1.823542
vn -0.965926 0.258789 0.003929
f 1269/1/318 1270/2/318 1271/3/318 1272/4/318
v 0.455000 1.153457 -1.823542
v 0.455000 1.156250 -2.007500
v 0.461029 1.133753 -2.007842
v 0.461029 1.130960 -1.823880
vn -0.965926 -0.258789 -0.003929
f 1273/1/319 1274/2/319 1275/3/319 1276/4/319
v 0.461029 1.130960 -1.823880
v 0.461029 1.133753 -2.007842
v 0.477500 1.117283 -2.008092
v 0.477500 1.114491 -1.824128
vn -0.707107 -0.707025 -0.010733
f 1277/1/320 1278/2/320 1279/3/320 1280/4/320
v 0.477500 1.114491 -1.824128
v 0.477500 1.117283 -2.008092
v 0.500000 1.111255 -2.008183
v 0.500000 1.108462 -1.824219
vn -0.258819 -0.965815 -0.014662
f 1281/1/321 1282/2/321 1283/3/321 1284/4/321
v 0.500000 1.108462 -1.824219
v 0.500000 1.111255 -2.008183
v 0.522500 1.117283 -2.008092
v 0.522500 1.114491 -1.824128
vn 0.258819 -0.965815 -0.014662
f 1285/1/322 1286/2/322 1287/3/322 1288/4/322
v 0.522500 1.114491 -1.824128
v 0.522500 1.117283 -2.008092
v 0.538971 1.133753 -2.007842
v 0.538971 1.130960 -1.823880
vn 0.707107 -0.707025 -0.010733
f 1289/1/323 1290/2/323 1291/3/323 1292/4/323
v 0.538971 1.130960 -1.823880
v 0.538971 1.133753 -2.007842
v 0.545000 1.156250 -2.007500
v 0.545000 1.153457 -1.823542
vn 0.965926 -0.258789 -0.003929
f 1293/1/324 1294/2/324 1295/3/324 1296/4/324
v 0.545000 1.156250 -2.007500
v 0.500000 1.201245 -2.006817
v 0.522500 1.195217 -2.006908
v 0.538971 1.178747 -2.007158
vn 0.000000 0.015179 -0.999885
f 1297/1/325 1298/2/325 1299/3/325 1300/4/325
v 0.545000 1.156250 -2.007500
v 0.461029 1.178747 -2.007158
v 0.477500 1.195217 -2.006908
v 0.500000 1.201245 -2.006817
vn 0.000000 0.015179 -0.999885
f 1301/1/326 1302/2/326 1303/3/326 1304/4/326
v 0.545000 1.156250 -2.007500
v 0.461029 1.133753 -2.007842
v 0.455000 1.156250 -2.007500
v 0.461029 1.178747 -2.007158
vn 0.000000 0.015179 -0.999885
f 1305/1/327 1306/2/327 1307/3/327 1308/4/327
v 0.545000 1.156250 -2.007500
v 0.500000 1.111255 -2.008183
v 0.477500 1.117283 -2.008092
v 0.461029 1.133753 -2.007842
vn 0.000000 0.015179 -0.999885
f 1309/1/328 1310/2/328 1311/3/328 1312/4/328
v 0.545000 1.156250 -2.007500
v 0.538971 1.133753 -2.007842
v 0.522500 1.117283 -2.008092
v 0.500000 1.111255 -2.008183
vn 0.000000 0.015179 -0.999885
f 1313/1/329 1314/2/329 1315/3/329 1316/4/329
v 0.534000 1.156053 -1.997500
v 0.534000 1.156250 -2.060833
v 0.529445 1.173250 -2.060807
v 0.529445 1.173053 -1.997447
vn 0.965926 0.258818 0.000803
f 1317/1/330 1318/2/330 1319/3/330 1320/4/330
v 0.529445 1.173053 -1.997447
v 0.529445 1.173250 -2.060807
v 0.517000 1.185695 -2.060788
v 0.517000 1.185498 -1.997409
vn 0.707107 0.707103 0.002194
f 1321/1/331 1322/2/331 1323/3/331 1324/4/331
v 0.517000 1.185498 -1.997409
v 0.517000 1.185695 -2.060788
v 0.500000 1.190250 -2.060781
v 0.500000 1.190053 -1.997395
vn 0.258819 0.965921 0.002996
f 1325/1/332 1326/2/332 1327/3/332 1328/4/332
v 0.500000 1.190053 -1.997395
v 0.500000 1.190250 -2.060781
v 0.483000 1.185695 -2.060788
v 0.483000 1.185498 -1.997409
vn -0.258819 0.965921 0.002996
f 1329/1/333 1330/2/333 1331/3/333 1332/4/333
v 0.483000 1.185498 -1.997409
v 0.483000 1.185695 -2.060788
v 0.470555 1.173250 -2.060807
v 0.470555 1.173053 -1.997447
vn -0.707107 0.707103 0.002193
f 1333/1/334 1334/2/334 1335/3/334 1336/4/334
v 0.470555 1.173053 -1.997447
v 0.470555 1.173250 -2.060807
v 0.466000 1.156250 -2.060833
v 0.466000 1.156053 -1.997500
vn -0.965926 0.258818 0.000803
f 1337/1/335 1338/2/335 1339/3/335 1340/4/335
v 0.466000 1.156053 -1.997500
v 0.466000 1.156250 -2.060833
v 0.470555 1.139250 -2.060860
v 0.470555 1.139054 -1.997553
vn -0.965926 -0.258818 -0.000803
f 1341/1/336 1342/2/336 1343/3/336 1344/4/336
v 0.470555 1.139054 -1.997553
v 0.470555 1.139250 -2.060860
v 0.483000 1.126805 -2.060879
v 0.483000 1.126609 -1.997591
vn -0.707107 -0.707103 -0.002194
f 1345/1/337 1346/2/337 1347/3/337 1348/4/337
v 0.483000 1.126609 -1.997591
v 0.483000 1.126805 -2.060879
v 0.500000 1.122250 -2.060886
v 0.500000 1.122054 -1.997605
vn -0.258819 -0.965921 -0.002997
f 1349/1/338 1350/2/338 1351/3/338 1352/4/338
v 0.500000 1.122054 -1.997605
v 0.500000 1.122250 -2.060886
v 0.517000 1.126805 -2.060879
v 0.517000 1.126609 -1.997591
vn 0.258819 -0.965921 -0.002998
f 1353/1/339 1354/2/339 1355/3/339 1356/4/339
v 0.517000 1.126609 -1.997591
v 0.517000 1.126805 -2.060879
v 0.529445 1.139250 -2.060860
v 0.529445 1.139054 -1.997553
vn 0.707107 -0.707103 -0.002194
f 1357/1/340 1358/2/340 1359/3/340 1360/4/340
v 0.529445 1.139054 -1.997553
v 0.529445 1.139250 -2.060860
v 0.534000 1.156250 -2.060833
v 0.534000 1.156053 -1.997500
vn 0.965926 -0.258818 -0.000803
f 1361/1/341 1362/2/341 1363/3/341 1364/4/341
v 0.534000 1.156250 -2.060833
v 0.534000 1.156250 -2.124167
v 0.529445 1.173250 -2.124167
v 0.529445 1.173250 -2.060807
vn 0.965926 0.258819 0.000000
f 1365/1/342 1366/2/342 1367/3/342 1368/4/342
v 0.529445 1.173250 -2.060807
v 0.529445 1.173250 -2.124167
v 0.517000 1.185695 -2.124167
v 0.517000 1.185695 -2.060788
vn 0.707106 0.707107 0.000000
f 1369/1/343 1370/2/343 1371/3/343 1372/4/343
v 0.517000 1.185695 -2.060788
v 0.517000 1.185695 -2.124167
v 0.500000 1.190250 -2.124167
v 0.500000 1.190250 -2.060781
vn 0.258819 0.965926 0.000001
f 1373/1/344 1374/2/344 1375/3/344 1376/4/344
v 0.500000 1.190250 -2.060781
v 0.500000 1.190250 -2.124167
v 0.483000 1.185695 -2.124167
v 0.483000 1.185695 -2.060788
vn -0.258819 0.965926 0.000001
f 1377/1/345 1378/2/345 1379/3/345 1380/4/345
v 0.483000 1.185695 -2.060788
v 0.483000 1.185695 -2.124167
v 0.470555 1.173250 -2.124167
v 0.470555 1.173250 -2.060807
vn -0.707106 0.707107 0.000000
f 1381/1/346 1382/2/346 1383/3/346 1384/4/346
v 0.470555 1.173250 -2.060807
v 0.470555 1.173250 -2.124167
v 0.466000 1.156250 -2.124167
v 0.466000 1.156250 -2.060833
vn -0.965926 0.258819 0.000000
f 1385/1/347 1386/2/347 1387/3/347 1388/4/347
v 0.466000 1.156250 -2.060833
v 0.466000 1.156250 -2.124167
v 0.470555 1.139250 -2.124167
v 0.470555 1.139250 -2.060860
vn -0.965926 -0.258819 -0.000000
f 1389/1/348 1390/2/348 1391/3/348 1392/4/348
v 0.470555 1.139250 -2.060860
v 0.470555 1.139250 -2.124167
v 0.483000 1.126805 -2.124167
v 0.483000 1.126805 -2.060879
vn -0.707106 -0.707107 0.000000
f 1393/1/349 1394/2/349 1395/3/349 1396/4/349
v 0.483000 1.126805 -2.060879
v 0.483000 1.126805 -2.124167
v 0.500000 1.122250 -2.124167
v 0.500000 1.122250 -2.060886
vn -0.258819 -0.965926 0.000001
f 1397/1/350 1398/2/350 1399/3/350 1400/4/350
v 0.500000 1.122250 -2.060886
v 0.500000 1.122250 -2.124167
v 0.517000 1.126805 -2.124167
v 0.517000 1.126805 -2.060879
vn 0.258819 -0.965926 0.000001
f 1401/1/351 1402/2/351 1403/3/351 1404/4/351
v 0.517000 1.126805 -2.060879
v 0.517000 1.126805 -2.124167
v 0.529445 1.139250 -2.124167
v 0.529445 1.139250 -2.060860
vn 0.707106 -0.707107 0.000000
f 1405/1/352 1406/2/352 1407/3/352 1408/4/352
v 0.529445 1.139250 -2.060860
v 0.529445 1.139250 -2.124167
v 0.534000 1.156250 -2.124167
v 0.534000 1.156250 -2.060833
vn 0.965926 -0.258819 0.000000
f 1409/1/353 1410/2/353 1411/3/353 1412/4/353
v 0.534000 1.156250 -2.124167
v 0.534000 1.156250 -2.187500
v 0.529445 1.173250 -2.187500
v 0.529445 1.173250 -2.124167
vn 0.965926 0.258819 0.000000
f 1413/1/354 1414/2/354 1415/3/354 1416/4/354
v 0.529445 1.173250 -2.124167
v 0.529445 1.173250 -2.187500
v 0.517000 1.185695 -2.187500
v 0.517000 1.185695 -2.124167
vn 0.707107 0.707107 0.000000
f 1417/1/355 1418/2/355 1419/3/355 1420/4/355
v 0.517000 1.185695 -2.124167
v 0.517000 1.185695 -2.187500
v 0.500000 1.190250 -2.187500
v 0.500000 1.190250 -2.124167
vn 0.258819 0.965926 0.000000
f 1421/1/356 1422/2/356 1423/3/356 1424/4/356
v 0.500000 1.190250 -2.124167
v 0.500000 1.190250 -2.187500
v 0.483000 1.185695 -2.187500
v 0.483000 1.185695 -2.124167
vn -0.258819 0.965926 0.000000
f 1425/1/357 1426/2/357 1427/3/357 1428/4/357
v 0.483000 1.185695 -2.124167
v 0.483000 1.185695 -2.187500
v 0.470555 1.173250 -2.187500
v 0.470555 1.173250 -2.124167
vn -0.707107 0.707107 0.000000
f 1429/1/358 1430/2/358 1431/3/358 1432/4/358
v 0.470555 1.173250 -2.124167
v 0.470555 1.173250 -2.187500
v 0.466000 1.156250 -2.187500
v 0.466000 1.156250 -2.124167
vn -0.965926 0.258819 0.000000
f 1433/1/359 1434/2/359 1435/3/359 1436/4/359
v 0.466000 1.156250 -2.124167
v 0.466000 1.156250 -2.187500
v 0.470555 1.139250 -2.187500
v 0.470555 1.139250 -2.124167
vn -0.965926 -0.258819 -0.000000
f 1437/1/360 1438/2/360 1439/3/360 1440/4/360
v 0.470555 1.139250 -2.124167
v 0.470555 1.139250 -2.187500
v 0.483000 1.126805 -2.187500
v 0.483000 1.126805 -2.124167
vn -0.707107 -0.707107 -0.000000
f 1441/1/361 1442/2/361 1443/3/361 1444/4/361
v 0.483000 1.126805 -2.124167
v 0.483000 1.126805 -2.187500
v 0.500000 1.122250 -2.187500
v 0.500000 1.122250 -2.124167
vn -0.258819 -0.965926 -0.000000
f 1445/1/362 1446/2/362 1447/3/362 1448/4/362
v 0.500000 1.122250 -2.124167
v 0.500000 1.122250 -2.187500
v 0.517000 1.126805 -2.187500
v 0.517000 1.126805 -2.124167
vn 0.258819 -0.965926 0.000000
f 1449/1/363 1450/2/363 1451/3/363 1452/4/363
v 0.517000 1.126805 -2.124167
v 0.517000 1.126805 -2.187500
v 0.529445 1.139250 -2.187500
v 0.529445 1.139250 -2.124167
vn 0.707107 -0.707107 0.000000
f 1453/1/364 1454/2/364 1455/3/364 1456/4/364
v 0.529445 1.139250 -2.124167
v 0.529445 1.139250 -2.187500
v 0.534000 1.156250 -2.187500
v 0.534000 1.156250 -2.124167
vn 0.965926 -0.258819 0.000000
f 1457/1/365 1458/2/365 1459/3/365 1460/4/365
v 0.534000 1.156250 -2.187500
v 0.500000 1.190250 -2.187500
v 0.517000 1.185695 -2.187500
v 0.529445 1.173250 -2.187500
vn 0.000000 0.000000 -1.000000
f 1461/1/366 1462/2/366 1463/3/366 1464/4/366
v 0.534000 1.156250 -2.187500
v 0.470555 1.173250 -2.187500
v 0.483000 1.185695 -2.187500
v 0.500000 1.190250 -2.187500
vn 0.000000 0.000000 -1.000000
f 1465/1/367 1466/2/367 1467/3/367 1468/4/367
v 0.534000 1.156250 -2.187500
v 0.470555 1.139250 -2.187500
v 0.466000 1.156250 -2.187500
v 0.470555 1.173250 -2.187500
vn -0.000000 0.000000 -1.000000
f 1469/1/368 1470/2/368 1471/3/368 1472/4/368
v 0.534000 1.156250 -2.187500
v 0.500000 1.122250 -2.187500
v 0.483000 1.126805 -2.187500
v 0.470555 1.139250 -2.187500
vn 0.000000 0.000000 -1.000000
f 1473/1/369 1474/2/369 1475/3/369 1476/4/369
v 0.534000 1.156250 -2.187500
v 0.529445 1.139250 -2.187500
v 0.517000 1.126805 -2.187500
v 0.500000 1.122250 -2.187500
vn 0.000000 0.000000 -1.000000
f 1477/1/370 1478/2/370 1479/3/370 1480/4/370
usemtl clamp
v 0.500000 1.159613 -1.958750
v 0.500000 1.284613 -1.958750
v 0.531250 1.284613 -1.927500
v 0.531250 1.159613 -1.927500
vn 0.707107 0.000000 -0.707107
f 1481/1/371 1482/2/371 1483/3/371 1484/4/371
v 0.531250 1.159613 -1.927500
v 0.531250 1.284613 -1.927500
v 0.500000 1.284613 -1.896250
v 0.500000 1.159613 -1.896250
vn 0.707107 -0.000000 0.707107
f 1485/1/372 1486/2/372 1487/3/372 1488/4/372
v 0.500000 1.159613 -1.896250
v 0.500000 1.284613 -1.896250
v 0.468750 1.284613 -1.927500
v 0.468750 1.159613 -1.927500
vn -0.707107 0.000000 0.707107
f 1489/1/373 1490/2/373 1491/3/373 1492/4/373
v 0.468750 1.159613 -1.927500
v 0.468750 1.284613 -1.927500
v 0.500000 1.284613 -1.958750
v 0.500000 1.159613 -1.958750
vn -0.707107 0.000000 -0.707107
f 1493/1/374 1494/2/374 1495/3/374 1496/4/374
v 0.500000 1.284613 -1.958750
v 0.468750 1.284613 -1.927500
v 0.500000 1.284613 -1.896250
v 0.531250 1.284613 -1.927500
vn 0.000000 1.000000 -0.000000
f 1497/1/375 1498/2/375 1499/3/375 1500/4/375
usemtl porcelain
v 0.406250 1.284613 -1.833750
v 0.593750 1.284613 -1.833750
v 0.593750 1.472113 -1.833750
v 0.406250 1.472113 -1.833750
vn 0.000000 0.000000 1.000000
f 1501/1/376 1502/2/376 1503/3/376 1504/4/376
v 0.593750 1.284613 -2.021250
v 0.406250 1.284613 -2.021250
v 0.406250 1.472113 -2.021250
v 0.593750 1.472113 -2.021250
vn 0.000000 0.000000 -1.000000
f 1505/1/377 1506/2/377 1507/3/377 1508/4/377
v 0.593750 1.284613 -1.833750
v 0.593750 1.284613 -2.021250
v 0.593750 1.472113 -2.021250
v 0.593750 1.472113 -1.833750
vn 1.000000 -0.000000 0.000000
f 1509/1/378 1510/2/378 1511/3/378 1512/4/378
v 0.406250 1.284613 -2.021250
v 0.406250 1.284613 -1.833750
v 0.406250 1.472113 -1.833750
v 0.406250 1.472113 -2.021250
vn -1.000000 0.000000 0.000000
f 1513/1/379 1514/2/379 1515/3/379 1516/4/379
v 0.406250 1.472113 -1.833750
v 0.593750 1.472113 -1.833750
v 0.593750 1.472113 -2.021250
v 0.406250 1.472113 -2.021250
vn -0.000000 1.000000 0.000000
f 1517/1/380 1518/2/380 1519/3/380 1520/4/380
v 0.406250 1.284613 -2.021250
v 0.593750 1.284613 -2.021250
v 0.593750 1.284613 -1.833750
v 0.406250 1.284613 -1.833750
vn 0.000000 -1.000000 0.000000
f 1521/1/381 1522/2/381 1523/3/381 1524/4/381
usemtl cable
v 0.593750 1.282676 -1.910611
v 0.593750 1.108124 -1.930624
v 0.608472 1.109149 -1.939062
v 0.608472 1.283644 -1.919055
vn 0.500000 -0.098649 0.860389
f 1525/1/382 1526/2/382 1527/3/382 1528/4/382
v 0.608472 1.283644 -1.919055
v 0.608472 1.109149 -1.939062
v 0.608472 1.111199 -1.955938
v 0.608472 1.285581 -1.935945
vn 1.000000 0.000000 0.000000
f 1529/1/383 1530/2/383 1531/3/383 1532/4/383
v 0.608472 1.285581 -1.935945
v 0.608472 1.111199 -1.955938
v 0.593750 1.112224 -1.964376
v 0.593750 1.286549 -1.944389
vn 0.500000 0.098646 -0.860389
f 1533/1/384 1534/2/384 1535/3/384 1536/4/384
v 0.593750 1.286549 -1.944389
v 0.593750 1.112224 -1.964376
v 0.579028 1.111199 -1.955938
v 0.579028 1.285581 -1.935945
vn -0.500000 0.098645 -0.860389
f 1537/1/385 1538/2/385 1539/3/385 1540/4/385
v 0.579028 1.285581 -1.935945
v 0.579028 1.111199 -1.955938
v 0.579028 1.109149 -1.939062
v 0.579028 1.283644 -1.919055
vn -1.000000 -0.000000 0.000000
f 1541/1/386 1542/2/386 1543/3/386 1544/4/386
v 0.579028 1.283644 -1.919055
v 0.579028 1.109149 -1.939062
v 0.593750 1.108124 -1.930624
v 0.593750 1.282676 -1.910611
vn -0.500000 -0.098648 0.860389
f 1545/1/387 1546/2/387 1547/3/387 1548/4/387
v 0.593750 1.108124 -1.930624
v 0.610750 0.798364 -1.987500
v 0.602250 0.812329 -1.992163
v 0.608472 1.109149 -1.939062
vn 0.499836 -0.129803 0.856338
f 1549/1/388 1550/2/388 1551/3/388 1552/4/388
v 0.608472 1.109149 -1.939062
v 0.602250 0.812329 -1.992163
v 0.585250 0.812329 -1.992163
v 0.608472 1.111199 -1.955938
vn 0.999786 -0.020513 -0.002492
f 1553/1/389 1554/2/389 1555/3/389 1556/4/389
v 0.608472 1.111199 -1.955938
v 0.585250 0.812329 -1.992163
v 0.576750 0.798364 -1.987500
v 0.593750 1.112224 -1.964376
vn 0.499624 0.065868 -0.863734
f 1557/1/390 1558/2/390 1559/3/390 1560/4/390
v 0.593750 1.112224 -1.964376
v 0.576750 0.798364 -1.987500
v 0.585250 0.784400 -1.982837
v 0.579028 1.111199 -1.955938
vn -0.499951 0.090538 -0.861308
f 1561/1/391 1562/2/391 1563/3/391 1564/4/391
v 0.579028 1.111199 -1.955938
v 0.585250 0.784400 -1.982837
v 0.602250 0.784400 -1.982837
v 0.579028 1.109149 -1.939062
vn -0.999820 -0.018849 -0.002289
f 1565/1/392 1566/2/392 1567/3/392 1568/4/392
v 0.579028 1.109149 -1.939062
v 0.602250 0.784400 -1.982837
v 0.610750 0.798364 -1.987500
v 0.593750 1.108124 -1.930624
vn -0.499453 -0.150715 0.853130
f 1569/1/393 1570/2/393 1571/3/393 1572/4/393
v 0.610750 0.798364 -1.987500
v 0.610750 0.870250 -2.057500
v 0.602250 0.878657 -2.045414
v 0.602250 0.812329 -1.992163
vn 0.601607 0.557276 0.572287
f 1573/1/394 1574/2/394 1575/3/394 1576/4/394
v 0.602250 0.812329 -1.992163
v 0.602250 0.878657 -2.045414
v 0.585250 0.878657 -2.045414
v 0.585250 0.812329 -1.992163
vn 0.000000 0.626047 0.779785
f 1577/1/395 1578/2/395 1579/3/395 1580/4/395
v 0.585250 0.812329 -1.992163
v 0.585250 0.878657 -2.045414
v 0.576750 0.870250 -2.057500
v 0.576750 0.798364 -1.987500
vn -0.514978 0.536650 0.668434
f 1581/1/396 1582/2/396 1583/3/396 1584/4/396
v 0.576750 0.798364 -1.987500
v 0.576750 0.870250 -2.057500
v 0.585250 0.861843 -2.069586
v 0.585250 0.784400 -1.982837
vn -0.601607 -0.557276 -0.572287
f 1585/1/397 1586/2/397 1587/3/397 1588/4/397
v 0.585250 0.784400 -1.982837
v 0.585250 0.861843 -2.069586
v 0.602250 0.861843 -2.069586
v 0.602250 0.784400 -1.982837
vn 0.000000 -0.745985 -0.665963
f 1589/1/398 1590/2/398 1591/3/398 1592/4/398
v 0.602250 0.784400 -1.982837
v 0.602250 0.861843 -2.069586
v 0.610750 0.870250 -2.057500
v 0.610750 0.798364 -1.987500
vn 0.652147 -0.565526 -0.504861
f 1593/1/399 1594/2/399 1595/3/399 1596/4/399
v 0.610750 0.870250 -2.057500
v 0.605879 1.059750 -2.159412
v 0.608338 1.068043 -2.144777
v 0.602250 0.878657 -2.045414
vn 0.865411 0.254399 0.431676
f 1597/1/400 1598/2/400 1599/3/400 1600/4/400
v 0.602250 0.878657 -2.045414
v 0.608338 1.068043 -2.144777
v 0.596210 1.068043 -2.132865
v 0.585250 0.878657 -2.045414
vn 0.000000 0.464598 0.885522
f 1601/1/401 1602/2/401 1603/3/401 1604/4/401
v 0.585250 0.878657 -2.045414
v 0.596210 1.068043 -2.132865
v 0.581621 1.059750 -2.135588
v 0.576750 0.870250 -2.057500
vn -0.865252 0.250578 0.434222
f 1605/1/402 1606/2/402 1607/3/402 1608/4/402
v 0.576750 0.870250 -2.057500
v 0.581621 1.059750 -2.135588
v 0.579162 1.051457 -2.150223
v 0.585250 0.861843 -2.069586
vn -0.858661 -0.176253 -0.481286
f 1609/1/403 1610/2/403 1611/3/403 1612/4/403
v 0.585250 0.861843 -2.069586
v 0.579162 1.051457 -2.150223
v 0.591290 1.051457 -2.162135
v 0.602250 0.861843 -2.069586
vn 0.000000 -0.391350 -0.920242
f 1613/1/404 1614/2/404 1615/3/404 1616/4/404
v 0.602250 0.861843 -2.069586
v 0.591290 1.051457 -2.162135
v 0.605879 1.059750 -2.159412
v 0.610750 0.870250 -2.057500
vn 0.859551 -0.183182 -0.477092
f 1617/1/405 1618/2/405 1619/3/405 1620/4/405
v 0.605879 1.059750 -2.159412
v 0.506671 1.139250 -2.203136
v 0.511664 1.150859 -2.191765
v 0.608338 1.068043 -2.144777
vn 0.670973 0.591075 -0.447689
f 1621/1/406 1622/2/406 1623/3/406 1624/4/406
v 0.608338 1.068043 -2.144777
v 0.511664 1.150859 -2.191765
v 0.504992 1.150859 -2.176129
v 0.596210 1.068043 -2.132865
vn 0.443597 0.774092 0.451667
f 1625/1/407 1626/2/407 1627/3/407 1628/4/407
v 0.596210 1.068043 -2.132865
v 0.504992 1.150859 -2.176129
v 0.493329 1.139250 -2.171864
v 0.581621 1.059750 -2.135588
vn -0.280222 0.183571 0.942219
f 1629/1/408 1630/2/408 1631/3/408 1632/4/408
v 0.581621 1.059750 -2.135588
v 0.493329 1.139250 -2.171864
v 0.488336 1.127641 -2.183235
v 0.579162 1.051457 -2.150223
vn -0.693997 -0.570125 0.439688
f 1633/1/409 1634/2/409 1635/3/409 1636/4/409
v 0.579162 1.051457 -2.150223
v 0.488336 1.127641 -2.183235
v 0.495008 1.127641 -2.198871
v 0.591290 1.051457 -2.162135
vn -0.461035 -0.753053 -0.469422
f 1637/1/410 1638/2/410 1639/3/410 1640/4/410
v 0.591290 1.051457 -2.162135
v 0.495008 1.127641 -2.198871
v 0.506671 1.139250 -2.203136
v 0.605879 1.059750 -2.159412
vn 0.256539 -0.137136 -0.956756
f 1641/1/411 1642/2/411 1643/3/411 1644/4/411
v 0.506671 1.139250 -2.203136
v 0.493329 1.139250 -2.171864
v 0.504992 1.150859 -2.176129
v 0.511664 1.150859 -2.191765
vn -0.725257 0.615018 -0.309443
f 1645/1/412 1646/2/412 1647/3/412 1648/4/412
v 0.506671 1.139250 -2.203136
v 0.495008 1.127641 -2.198871
v 0.488336 1.127641 -2.183235
v 0.493329 1.139250 -2.171864
vn -0.725257 0.615018 -0.309443
f 1649/1/413 1650/2/413 1651/3/413 1652/4/413
