# Generated by scripts/gen_pole_light_mounts.py
mtllib pole_light_mount.mtl
o pole_light_mount_4_right
vt 0 0
vt 1 0
vt 1 1
vt 0 1
usemtl clamp
v 0.312500 0.062500 1.000000
v 0.687500 0.062500 1.000000
v 0.687500 0.937500 1.000000
v 0.312500 0.937500 1.000000
vn 0.000000 0.000000 1.000000
f 1/1/1 2/2/1 3/3/1 4/4/1
v 0.687500 0.062500 0.900000
v 0.312500 0.062500 0.900000
v 0.312500 0.937500 0.900000
v 0.687500 0.937500 0.900000
vn 0.000000 0.000000 -1.000000
f 5/1/2 6/2/2 7/3/2 8/4/2
v 0.687500 0.062500 1.000000
v 0.687500 0.062500 0.900000
v 0.687500 0.937500 0.900000
v 0.687500 0.937500 1.000000
vn 1.000000 -0.000000 0.000000
f 9/1/3 10/2/3 11/3/3 12/4/3
v 0.312500 0.062500 0.900000
v 0.312500 0.062500 1.000000
v 0.312500 0.937500 1.000000
v 0.312500 0.937500 0.900000
vn -1.000000 0.000000 0.000000
f 13/1/4 14/2/4 15/3/4 16/4/4
v 0.312500 0.937500 1.000000
v 0.687500 0.937500 1.000000
v 0.687500 0.937500 0.900000
v 0.312500 0.937500 0.900000
vn -0.000000 1.000000 0.000000
f 17/1/5 18/2/5 19/3/5 20/4/5
v 0.312500 0.062500 0.900000
v 0.687500 0.062500 0.900000
v 0.687500 0.062500 1.000000
v 0.312500 0.062500 1.000000
vn 0.000000 -1.000000 0.000000
f 21/1/6 22/2/6 23/3/6 24/4/6
v 0.406250 0.312500 0.900000
v 0.593750 0.312500 0.900000
v 0.593750 0.531250 0.900000
v 0.406250 0.531250 0.900000
vn 0.000000 0.000000 1.000000
f 25/1/7 26/2/7 27/3/7 28/4/7
v 0.593750 0.312500 0.800000
v 0.406250 0.312500 0.800000
v 0.406250 0.531250 0.800000
v 0.593750 0.531250 0.800000
vn 0.000000 0.000000 -1.000000
f 29/1/8 30/2/8 31/3/8 32/4/8
v 0.593750 0.312500 0.900000
v 0.593750 0.312500 0.800000
v 0.593750 0.531250 0.800000
v 0.593750 0.531250 0.900000
vn 1.000000 -0.000000 0.000000
f 33/1/9 34/2/9 35/3/9 36/4/9
v 0.406250 0.312500 0.800000
v 0.406250 0.312500 0.900000
v 0.406250 0.531250 0.900000
v 0.406250 0.531250 0.800000
vn -1.000000 0.000000 0.000000
f 37/1/10 38/2/10 39/3/10 40/4/10
v 0.406250 0.531250 0.900000
v 0.593750 0.531250 0.900000
v 0.593750 0.531250 0.800000
v 0.406250 0.531250 0.800000
vn -0.000000 1.000000 0.000000
f 41/1/11 42/2/11 43/3/11 44/4/11
v 0.406250 0.312500 0.800000
v 0.593750 0.312500 0.800000
v 0.593750 0.312500 0.900000
v 0.406250 0.312500 0.900000
vn 0.000000 -1.000000 0.000000
f 45/1/12 46/2/12 47/3/12 48/4/12
v 0.468750 0.125000 0.900000
v 0.531250 0.125000 0.900000
v 0.531250 0.187500 0.900000
v 0.468750 0.187500 0.900000
vn 0.000000 0.000000 1.000000
f 49/1/13 50/2/13 51/3/13 52/4/13
v 0.531250 0.125000 0.880000
v 0.468750 0.125000 0.880000
v 0.468750 0.187500 0.880000
v 0.531250 0.187500 0.880000
vn 0.000000 0.000000 -1.000000
f 53/1/14 54/2/14 55/3/14 56/4/14
v 0.531250 0.125000 0.900000
v 0.531250 0.125000 0.880000
v 0.531250 0.187500 0.880000
v 0.531250 0.187500 0.900000
vn 1.000000 -0.000000 0.000000
f 57/1/15 58/2/15 59/3/15 60/4/15
v 0.468750 0.125000 0.880000
v 0.468750 0.125000 0.900000
v 0.468750 0.187500 0.900000
v 0.468750 0.187500 0.880000
vn -1.000000 0.000000 0.000000
f 61/1/16 62/2/16 63/3/16 64/4/16
v 0.468750 0.187500 0.900000
v 0.531250 0.187500 0.900000
v 0.531250 0.187500 0.880000
v 0.468750 0.187500 0.880000
vn -0.000000 1.000000 0.000000
f 65/1/17 66/2/17 67/3/17 68/4/17
v 0.468750 0.125000 0.880000
v 0.531250 0.125000 0.880000
v 0.531250 0.125000 0.900000
v 0.468750 0.125000 0.900000
vn 0.000000 -1.000000 0.000000
f 69/1/18 70/2/18 71/3/18 72/4/18
v 0.468750 0.812500 0.900000
v 0.531250 0.812500 0.900000
v 0.531250 0.875000 0.900000
v 0.468750 0.875000 0.900000
vn 0.000000 0.000000 1.000000
f 73/1/19 74/2/19 75/3/19 76/4/19
v 0.531250 0.812500 0.880000
v 0.468750 0.812500 0.880000
v 0.468750 0.875000 0.880000
v 0.531250 0.875000 0.880000
vn 0.000000 0.000000 -1.000000
f 77/1/20 78/2/20 79/3/20 80/4/20
v 0.531250 0.812500 0.900000
v 0.531250 0.812500 0.880000
v 0.531250 0.875000 0.880000
v 0.531250 0.875000 0.900000
vn 1.000000 -0.000000 0.000000
f 81/1/21 82/2/21 83/3/21 84/4/21
v 0.468750 0.812500 0.880000
v 0.468750 0.812500 0.900000
v 0.468750 0.875000 0.900000
v 0.468750 0.875000 0.880000
vn -1.000000 0.000000 0.000000
f 85/1/22 86/2/22 87/3/22 88/4/22
v 0.468750 0.875000 0.900000
v 0.531250 0.875000 0.900000
v 0.531250 0.875000 0.880000
v 0.468750 0.875000 0.880000
vn -0.000000 1.000000 0.000000
f 89/1/23 90/2/23 91/3/23 92/4/23
v 0.468750 0.812500 0.880000
v 0.531250 0.812500 0.880000
v 0.531250 0.812500 0.900000
v 0.468750 0.812500 0.900000
vn 0.000000 -1.000000 0.000000
f 93/1/24 94/2/24 95/3/24 96/4/24
usemtl metal
v 0.545000 0.410000 0.860000
v 0.540348 0.410000 0.819927
v 0.534942 0.432500 0.817257
v 0.538971 0.432500 0.860000
vn 0.959909 0.257207 -0.111445
f 97/1/25 98/2/25 99/3/25 100/4/25
v 0.538971 0.432500 0.860000
v 0.534942 0.432500 0.817257
v 0.520174 0.448971 0.809963
v 0.522500 0.448971 0.860000
vn 0.705541 0.705541 -0.066508
f 101/1/26 102/2/26 103/3/26 104/4/26
v 0.522500 0.448971 0.860000
v 0.520174 0.448971 0.809963
v 0.500000 0.455000 0.800000
v 0.500000 0.455000 0.860000
vn 0.258800 0.965856 -0.012032
f 105/1/27 106/2/27 107/3/27 108/4/27
v 0.500000 0.455000 0.860000
v 0.500000 0.455000 0.800000
v 0.479826 0.448971 0.790037
v 0.477500 0.448971 0.860000
vn -0.258819 0.965926 0.000000
f 109/1/28 110/2/28 111/3/28 112/4/28
v 0.477500 0.448971 0.860000
v 0.479826 0.448971 0.790037
v 0.465058 0.432500 0.782743
v 0.461029 0.432500 0.860000
vn -0.706911 0.706911 -0.023504
f 113/1/29 114/2/29 115/3/29 116/4/29
v 0.461029 0.432500 0.860000
v 0.465058 0.432500 0.782743
v 0.459652 0.410000 0.780073
v 0.455000 0.410000 0.860000
vn -0.964703 0.258491 -0.050312
f 117/1/30 118/2/30 119/3/30 120/4/30
v 0.455000 0.410000 0.860000
v 0.459652 0.410000 0.780073
v 0.465058 0.387500 0.782743
v 0.461029 0.387500 0.860000
vn -0.964403 -0.258411 -0.056137
f 121/1/31 122/2/31 123/3/31 124/4/31
v 0.461029 0.387500 0.860000
v 0.465058 0.387500 0.782743
v 0.479826 0.371029 0.790037
v 0.477500 0.371029 0.860000
vn -0.706626 -0.706626 -0.036852
f 125/1/32 126/2/32 127/3/32 128/4/32
v 0.477500 0.371029 0.860000
v 0.479826 0.371029 0.790037
v 0.500000 0.365000 0.800000
v 0.500000 0.365000 0.860000
vn -0.258809 -0.965890 -0.008605
f 129/1/33 130/2/33 131/3/33 132/4/33
v 0.500000 0.365000 0.860000
v 0.500000 0.365000 0.800000
v 0.520174 0.371029 0.809963
v 0.522500 0.371029 0.860000
vn 0.258819 -0.965926 0.000000
f 133/1/34 134/2/34 135/3/34 136/4/34
v 0.522500 0.371029 0.860000
v 0.520174 0.371029 0.809963
v 0.534942 0.387500 0.817257
v 0.538971 0.387500 0.860000
vn 0.706725 -0.706725 -0.032856
f 137/1/35 138/2/35 139/3/35 140/4/35
v 0.538971 0.387500 0.860000
v 0.534942 0.387500 0.817257
v 0.540348 0.410000 0.819927
v 0.545000 0.410000 0.860000
vn 0.961946 -0.257753 -0.090678
f 141/1/36 142/2/36 143/3/36 144/4/36
v 0.540348 0.410000 0.819927
v 0.622644 0.410000 0.762792
v 0.618077 0.432471 0.758695
v 0.534942 0.432500 0.817257
vn 0.555234 0.228286 0.799750
f 145/1/37 146/2/37 147/3/37 148/4/37
v 0.534942 0.432500 0.817257
v 0.618077 0.432471 0.758695
v 0.607404 0.448921 0.746123
v 0.520174 0.448971 0.809963
vn 0.432802 0.659984 0.614087
f 149/1/38 150/2/38 151/3/38 152/4/38
v 0.520174 0.448971 0.809963
v 0.607404 0.448921 0.746123
v 0.593484 0.454943 0.728442
v 0.500000 0.455000 0.800000
vn 0.171040 0.957327 0.232959
f 153/1/39 154/2/39 155/3/39 156/4/39
v 0.500000 0.455000 0.800000
v 0.593484 0.454943 0.728442
v 0.580048 0.448921 0.710392
v 0.479826 0.448971 0.790037
vn -0.173798 0.958066 -0.227822
f 157/1/40 158/2/40 159/3/40 160/4/40
v 0.479826 0.448971 0.790037
v 0.580048 0.448921 0.710392
v 0.570696 0.432471 0.696808
v 0.465058 0.432500 0.782743
vn -0.461237 0.670749 -0.580823
f 161/1/41 162/2/41 163/3/41 164/4/41
v 0.465058 0.432500 0.782743
v 0.570696 0.432471 0.696808
v 0.567933 0.410000 0.691330
v 0.459652 0.410000 0.780073
vn -0.613078 0.236721 -0.753723
f 165/1/42 166/2/42 167/3/42 168/4/42
v 0.459652 0.410000 0.780073
v 0.567933 0.410000 0.691330
v 0.572500 0.387529 0.695427
v 0.465058 0.387500 0.782743
vn -0.615803 -0.237098 -0.751380
f 169/1/43 170/2/43 171/3/43 172/4/43
v 0.465058 0.387500 0.782743
v 0.572500 0.387529 0.695427
v 0.583173 0.371079 0.707999
v 0.479826 0.371029 0.790037
vn -0.466567 -0.672652 -0.574329
f 173/1/44 174/2/44 175/3/44 176/4/44
v 0.479826 0.371029 0.790037
v 0.583173 0.371079 0.707999
v 0.597093 0.365057 0.725680
v 0.500000 0.365000 0.800000
vn -0.176450 -0.958747 -0.222865
f 177/1/45 178/2/45 179/3/45 180/4/45
v 0.500000 0.365000 0.800000
v 0.597093 0.365057 0.725680
v 0.610529 0.371079 0.743730
v 0.520174 0.371029 0.809963
vn 0.174274 -0.958191 0.226933
f 181/1/46 182/2/46 183/3/46 184/4/46
v 0.520174 0.371029 0.809963
v 0.610529 0.371079 0.743730
v 0.619881 0.387529 0.757314
v 0.534942 0.387500 0.817257
vn 0.442436 -0.663744 0.603070
f 185/1/47 186/2/47 187/3/47 188/4/47
v 0.534942 0.387500 0.817257
v 0.619881 0.387529 0.757314
v 0.622644 0.410000 0.762792
v 0.540348 0.410000 0.819927
vn 0.561295 -0.229207 0.795244
f 189/1/48 190/2/48 191/3/48 192/4/48
v 0.622644 0.410000 0.762792
v 0.678289 0.417097 0.720181
v 0.671183 0.439176 0.718039
v 0.618077 0.432471 0.758695
vn 0.566483 0.257813 0.782707
f 193/1/49 194/2/49 195/3/49 196/4/49
v 0.618077 0.432471 0.758695
v 0.671183 0.439176 0.718039
v 0.658633 0.455340 0.706911
v 0.607404 0.448921 0.746123
vn 0.373534 0.704008 0.604024
f 197/1/50 198/2/50 199/3/50 200/4/50
v 0.607404 0.448921 0.746123
v 0.658633 0.455340 0.706911
v 0.644001 0.461256 0.689779
v 0.593484 0.454943 0.728442
vn 0.081202 0.961254 0.263434
f 201/1/51 202/2/51 203/3/51 204/4/51
v 0.593484 0.454943 0.728442
v 0.644001 0.461256 0.689779
v 0.631209 0.455340 0.671232
v 0.580048 0.448921 0.710392
vn -0.232885 0.961283 -0.147309
f 205/1/52 206/2/52 207/3/52 208/4/52
v 0.580048 0.448921 0.710392
v 0.631209 0.455340 0.671232
v 0.623684 0.439176 0.656242
v 0.570696 0.432471 0.696808
vn -0.485222 0.704048 -0.518532
f 209/1/53 210/2/53 211/3/53 212/4/53
v 0.570696 0.432471 0.696808
v 0.623684 0.439176 0.656242
v 0.623442 0.417097 0.648824
v 0.567933 0.410000 0.691330
vn -0.607689 0.257820 -0.751161
f 213/1/54 214/2/54 215/3/54 216/4/54
v 0.567933 0.410000 0.691330
v 0.623442 0.417097 0.648824
v 0.630548 0.395017 0.650966
v 0.572500 0.387529 0.695427
vn -0.566430 -0.257809 -0.782746
f 217/1/55 218/2/55 219/3/55 220/4/55
v 0.572500 0.387529 0.695427
v 0.630548 0.395017 0.650966
v 0.643098 0.378854 0.662094
v 0.583173 0.371079 0.707999
vn -0.372440 -0.703905 -0.604819
f 221/1/56 222/2/56 223/3/56 224/4/56
v 0.583173 0.371079 0.707999
v 0.643098 0.378854 0.662094
v 0.657730 0.372937 0.679227
v 0.597093 0.365057 0.725680
vn -0.078606 -0.960937 -0.265370
f 225/1/57 226/2/57 227/3/57 228/4/57
v 0.597093 0.365057 0.725680
v 0.657730 0.372937 0.679227
v 0.670522 0.378854 0.697773
v 0.610529 0.371079 0.743730
vn 0.235907 -0.960907 0.144935
f 229/1/58 230/2/58 231/3/58 232/4/58
v 0.610529 0.371079 0.743730
v 0.670522 0.378854 0.697773
v 0.678047 0.395017 0.712763
v 0.619881 0.387529 0.757314
vn 0.487210 -0.703855 0.516928
f 233/1/59 234/2/59 235/3/59 236/4/59
v 0.619881 0.387529 0.757314
v 0.678047 0.395017 0.712763
v 0.678289 0.417097 0.720181
v 0.622644 0.410000 0.762792
vn 0.608210 -0.257784 0.750752
f 237/1/60 238/2/60 239/3/60 240/4/60
v 0.678289 0.417097 0.720181
v 0.733776 0.437693 0.677368
v 0.723852 0.458767 0.677410
v 0.671183 0.439176 0.718039
vn 0.531755 0.249651 0.809266
f 241/1/61 242/2/61 243/3/61 244/4/61
v 0.671183 0.439176 0.718039
v 0.723852 0.458767 0.677410
v 0.709221 0.474194 0.667895
v 0.658633 0.455340 0.706911
vn 0.272202 0.680045 0.680768
f 245/1/62 246/2/62 247/3/62 248/4/62
v 0.658633 0.455340 0.706911
v 0.709221 0.474194 0.667895
v 0.693804 0.479841 0.651371
v 0.644001 0.461256 0.689779
vn -0.059433 0.926808 0.370803
f 249/1/63 250/2/63 251/3/63 252/4/63
v 0.644001 0.461256 0.689779
v 0.693804 0.479841 0.651371
v 0.681732 0.474194 0.632267
v 0.631209 0.455340 0.671232
vn -0.374468 0.926491 -0.037266
f 253/1/64 254/2/64 255/3/64 256/4/64
v 0.631209 0.455340 0.671232
v 0.681732 0.474194 0.632267
v 0.676238 0.458767 0.615702
v 0.623684 0.439176 0.656242
vn -0.590021 0.679342 -0.436314
f 257/1/65 258/2/65 259/3/65 260/4/65
v 0.623684 0.439176 0.656242
v 0.676238 0.458767 0.615702
v 0.678796 0.437693 0.606113
v 0.623442 0.417097 0.648824
vn -0.648031 0.248923 -0.719787
f 261/1/66 262/2/66 263/3/66 264/4/66
v 0.623442 0.417097 0.648824
v 0.678796 0.437693 0.606113
v 0.688720 0.416618 0.606071
v 0.630548 0.395017 0.650966
vn -0.531622 -0.249618 -0.809363
f 265/1/67 266/2/67 267/3/67 268/4/67
v 0.630548 0.395017 0.650966
v 0.688720 0.416618 0.606071
v 0.703350 0.401191 0.615587
v 0.643098 0.378854 0.662094
vn -0.272606 -0.680165 -0.680487
f 269/1/68 270/2/68 271/3/68 272/4/68
v 0.643098 0.378854 0.662094
v 0.703350 0.401191 0.615587
v 0.718767 0.395544 0.632110
v 0.657730 0.372937 0.679227
vn 0.058224 -0.927238 -0.369920
f 273/1/69 274/2/69 275/3/69 276/4/69
v 0.657730 0.372937 0.679227
v 0.718767 0.395544 0.632110
v 0.730840 0.401191 0.651214
v 0.670522 0.378854 0.697773
vn 0.373019 -0.927027 0.038436
f 277/1/70 278/2/70 279/3/70 280/4/70
v 0.670522 0.378854 0.697773
v 0.730840 0.401191 0.651214
v 0.736333 0.416618 0.667780
v 0.678047 0.395017 0.712763
vn 0.589086 -0.679643 0.437108
f 281/1/71 282/2/71 283/3/71 284/4/71
v 0.678047 0.395017 0.712763
v 0.736333 0.416618 0.667780
v 0.733776 0.437693 0.677368
v 0.678289 0.417097 0.720181
vn 0.647873 -0.248965 0.719915
f 285/1/72 286/2/72 287/3/72 288/4/72
v 0.733776 0.437693 0.677368
v 0.789227 0.469771 0.634582
v 0.777372 0.489763 0.636126
v 0.723852 0.458767 0.677410
vn 0.504435 0.235876 0.830607
f 289/1/73 290/2/73 291/3/73 292/4/73
v 0.723852 0.458767 0.677410
v 0.777372 0.489763 0.636126
v 0.761319 0.504398 0.627717
v 0.709221 0.474194 0.667895
vn 0.197675 0.643549 0.739439
f 293/1/74 294/2/74 295/3/74 296/4/74
v 0.709221 0.474194 0.667895
v 0.761319 0.504398 0.627717
v 0.745370 0.509754 0.611607
v 0.693804 0.479841 0.651371
vn -0.161442 0.877969 0.450673
f 297/1/75 298/2/75 299/3/75 300/4/75
v 0.693804 0.479841 0.651371
v 0.745370 0.509754 0.611607
v 0.733798 0.504398 0.592113
v 0.681732 0.474194 0.632267
vn -0.476966 0.877922 0.041920
f 301/1/76 302/2/76 303/3/76 304/4/76
v 0.681732 0.474194 0.632267
v 0.733798 0.504398 0.592113
v 0.729704 0.489763 0.574459
v 0.676238 0.458767 0.615702
vn -0.665278 0.643463 -0.378631
f 305/1/77 306/2/77 307/3/77 308/4/77
v 0.676238 0.458767 0.615702
v 0.729704 0.489763 0.574459
v 0.734185 0.469771 0.563376
v 0.678796 0.437693 0.606113
vn -0.675574 0.235839 -0.698555
f 309/1/78 310/2/78 311/3/78 312/4/78
v 0.678796 0.437693 0.606113
v 0.734185 0.469771 0.563376
v 0.746040 0.449779 0.561832
v 0.688720 0.416618 0.606071
vn -0.504352 -0.235836 -0.830669
f 313/1/79 314/2/79 315/3/79 316/4/79
v 0.688720 0.416618 0.606071
v 0.746040 0.449779 0.561832
v 0.762093 0.435145 0.570241
v 0.703350 0.401191 0.615587
vn -0.198062 -0.643746 -0.739164
f 317/1/80 318/2/80 319/3/80 320/4/80
v 0.703350 0.401191 0.615587
v 0.762093 0.435145 0.570241
v 0.778042 0.429788 0.586351
v 0.718767 0.395544 0.632110
vn 0.160459 -0.878523 -0.449945
f 321/1/81 322/2/81 323/3/81 324/4/81
v 0.718767 0.395544 0.632110
v 0.778042 0.429788 0.586351
v 0.789614 0.435145 0.605845
v 0.730840 0.401191 0.651214
vn 0.475867 -0.878560 -0.041036
f 325/1/82 326/2/82 327/3/82 328/4/82
v 0.730840 0.401191 0.651214
v 0.789614 0.435145 0.605845
v 0.793708 0.449779 0.623498
v 0.736333 0.416618 0.667780
vn 0.664624 -0.643817 0.379177
f 329/1/83 330/2/83 331/3/83 332/4/83
v 0.736333 0.416618 0.667780
v 0.793708 0.449779 0.623498
v 0.789227 0.469771 0.634582
v 0.733776 0.437693 0.677368
vn 0.675507 -0.235872 0.698609
f 333/1/84 334/2/84 335/3/84 336/4/84
v 0.789227 0.469771 0.634582
v 0.844643 0.510193 0.591665
v 0.831708 0.529415 0.594073
v 0.777372 0.489763 0.636126
vn 0.488838 0.224788 0.842916
f 337/1/85 338/2/85 339/3/85 340/4/85
v 0.777372 0.489763 0.636126
v 0.831708 0.529415 0.594073
v 0.814846 0.543487 0.586311
v 0.761319 0.504398 0.627717
vn 0.152682 0.612946 0.775233
f 341/1/86 342/2/86 343/3/86 344/4/86
v 0.761319 0.504398 0.627717
v 0.814846 0.543487 0.586311
v 0.798575 0.548637 0.570459
v 0.745370 0.509754 0.611607
vn -0.224098 0.836519 0.500016
f 345/1/87 346/2/87 347/3/87 348/4/87
v 0.745370 0.509754 0.611607
v 0.798575 0.548637 0.570459
v 0.787253 0.543487 0.550764
v 0.733798 0.504398 0.592113
vn -0.540674 0.836280 0.091151
f 349/1/88 350/2/88 351/3/88 352/4/88
v 0.733798 0.504398 0.592113
v 0.787253 0.543487 0.550764
v 0.783916 0.529415 0.532503
v 0.729704 0.489763 0.574459
vn -0.712614 0.612341 -0.342374
f 353/1/89 354/2/89 355/3/89 356/4/89
v 0.729704 0.489763 0.574459
v 0.783916 0.529415 0.532503
v 0.789457 0.510193 0.520570
v 0.734185 0.469771 0.563376
vn -0.693677 0.224048 -0.684554
f 357/1/90 358/2/90 359/3/90 360/4/90
v 0.734185 0.469771 0.563376
v 0.789457 0.510193 0.520570
v 0.802391 0.490970 0.518162
v 0.746040 0.449779 0.561832
vn -0.488630 -0.224653 -0.843073
f 361/1/91 362/2/91 363/3/91 364/4/91
v 0.746040 0.449779 0.561832
v 0.802391 0.490970 0.518162
v 0.819253 0.476898 0.525924
v 0.762093 0.435145 0.570241
vn -0.152705 -0.612961 -0.775216
f 365/1/92 366/2/92 367/3/92 368/4/92
v 0.762093 0.435145 0.570241
v 0.819253 0.476898 0.525924
v 0.835525 0.471748 0.541777
v 0.778042 0.429788 0.586351
vn 0.223759 -0.836762 -0.499762
f 369/1/93 370/2/93 371/3/93 372/4/93
v 0.778042 0.429788 0.586351
v 0.835525 0.471748 0.541777
v 0.846846 0.476898 0.561472
v 0.789614 0.435145 0.605845
vn 0.540253 -0.836588 -0.090817
f 373/1/94 374/2/94 375/3/94 376/4/94
v 0.789614 0.435145 0.605845
v 0.846846 0.476898 0.561472
v 0.850183 0.490970 0.579732
v 0.793708 0.449779 0.623498
vn 0.712414 -0.612482 0.342537
f 377/1/95 378/2/95 379/3/95 380/4/95
v 0.793708 0.449779 0.623498
v 0.850183 0.490970 0.579732
v 0.844643 0.510193 0.591665
v 0.789227 0.469771 0.634582
vn 0.693790 -0.223973 0.684465
f 381/1/96 382/2/96 383/3/96 384/4/96
v 0.844643 0.510193 0.591665
v 0.899930 0.555000 0.548648
v 0.886655 0.573950 0.551339
v 0.831708 0.529415 0.594073
vn 0.482709 0.218565 0.848069
f 385/1/97 386/2/97 387/3/97 388/4/97
v 0.831708 0.529415 0.594073
v 0.886655 0.573950 0.551339
v 0.869532 0.587823 0.543792
v 0.814846 0.543487 0.586311
vn 0.132835 0.596005 0.791917
f 389/1/98 390/2/98 391/3/98 392/4/98
v 0.814846 0.543487 0.586311
v 0.869532 0.587823 0.543792
v 0.853150 0.592900 0.528030
v 0.798575 0.548637 0.570459
vn -0.252559 0.813664 0.523608
f 393/1/99 394/2/99 395/3/99 396/4/99
v 0.798575 0.548637 0.570459
v 0.853150 0.592900 0.528030
v 0.841898 0.587823 0.508276
v 0.787253 0.543487 0.550764
vn -0.570233 0.813384 0.115072
f 397/1/100 398/2/100 399/3/100 400/4/100
v 0.787253 0.543487 0.550764
v 0.841898 0.587823 0.508276
v 0.838792 0.573950 0.489823
v 0.783916 0.529415 0.532503
vn -0.735158 0.595262 -0.324356
f 401/1/101 402/2/101 403/3/101 404/4/101
v 0.783916 0.529415 0.532503
v 0.838792 0.573950 0.489823
v 0.844663 0.555000 0.477616
v 0.789457 0.510193 0.520570
vn -0.703105 0.217588 -0.676978
f 405/1/102 406/2/102 407/3/102 408/4/102
v 0.789457 0.510193 0.520570
v 0.844663 0.555000 0.477616
v 0.857939 0.536050 0.474926
v 0.802391 0.490970 0.518162
vn -0.482593 -0.218476 -0.848158
f 409/1/103 410/2/103 411/3/103 412/4/103
v 0.802391 0.490970 0.518162
v 0.857939 0.536050 0.474926
v 0.875062 0.522177 0.482473
v 0.819253 0.476898 0.525924
vn -0.132781 -0.595962 -0.791958
f 413/1/104 414/2/104 415/3/104 416/4/104
v 0.819253 0.476898 0.525924
v 0.875062 0.522177 0.482473
v 0.891444 0.517100 0.498235
v 0.835525 0.471748 0.541777
vn 0.252519 -0.813695 -0.523578
f 417/1/105 418/2/105 419/3/105 420/4/105
v 0.835525 0.471748 0.541777
v 0.891444 0.517100 0.498235
v 0.902696 0.522177 0.517989
v 0.846846 0.476898 0.561472
vn 0.570162 -0.813442 -0.115016
f 421/1/106 422/2/106 423/3/106 424/4/106
v 0.846846 0.476898 0.561472
v 0.902696 0.522177 0.517989
v 0.905802 0.536050 0.536441
v 0.850183 0.490970 0.579732
vn 0.735147 -0.595270 0.324365
f 425/1/107 426/2/107 427/3/107 428/4/107
v 0.850183 0.490970 0.579732
v 0.905802 0.536050 0.536441
v 0.899930 0.555000 0.548648
v 0.844643 0.510193 0.591665
vn 0.703188 -0.217524 0.676913
f 429/1/108 430/2/108 431/3/108 432/4/108
v 0.899930 0.555000 0.548648
v 0.955246 0.599807 0.505610
v 0.942319 0.619030 0.508057
v 0.886655 0.573950 0.551339
vn 0.483124 0.218064 0.847962
f 433/1/109 434/2/109 435/3/109 436/4/109
v 0.886655 0.573950 0.551339
v 0.942319 0.619030 0.508057
v 0.925433 0.633102 0.500347
v 0.869532 0.587823 0.543792
vn 0.133481 0.595656 0.792071
f 437/1/110 438/2/110 439/3/110 440/4/110
v 0.869532 0.587823 0.543792
v 0.925433 0.633102 0.500347
v 0.909113 0.638252 0.484544
v 0.853150 0.592900 0.528030
vn -0.251886 0.813676 0.523913
f 441/1/111 442/2/111 443/3/111 444/4/111
v 0.853150 0.592900 0.528030
v 0.909113 0.638252 0.484544
v 0.897731 0.633102 0.464884
v 0.841898 0.587823 0.508276
vn -0.569751 0.813680 0.115366
f 445/1/112 446/2/112 447/3/112 448/4/112
v 0.841898 0.587823 0.508276
v 0.897731 0.633102 0.464884
v 0.894338 0.619030 0.446634
v 0.838792 0.573950 0.489823
vn -0.734944 0.595665 -0.324099
f 449/1/113 450/2/113 451/3/113 452/4/113
v 0.838792 0.573950 0.489823
v 0.894338 0.619030 0.446634
v 0.899842 0.599807 0.434684
v 0.844663 0.555000 0.477616
vn -0.703177 0.218069 -0.676748
f 453/1/114 454/2/114 455/3/114 456/4/114
v 0.844663 0.555000 0.477616
v 0.899842 0.599807 0.434684
v 0.912769 0.580585 0.432237
v 0.857939 0.536050 0.474926
vn -0.482929 -0.217906 -0.848114
f 457/1/115 458/2/115 459/3/115 460/4/115
v 0.857939 0.536050 0.474926
v 0.912769 0.580585 0.432237
v 0.929655 0.566513 0.439947
v 0.875062 0.522177 0.482473
vn -0.133211 -0.595436 -0.792282
f 461/1/116 462/2/116 463/3/116 464/4/116
v 0.875062 0.522177 0.482473
v 0.929655 0.566513 0.439947
v 0.945975 0.561363 0.455749
v 0.891444 0.517100 0.498235
vn 0.252244 -0.813386 -0.524192
f 465/1/117 466/2/117 467/3/117 468/4/117
v 0.891444 0.517100 0.498235
v 0.945975 0.561363 0.455749
v 0.957357 0.566513 0.475410
v 0.902696 0.522177 0.517989
vn 0.570119 -0.813381 -0.115653
f 469/1/118 470/2/118 471/3/118 472/4/118
v 0.902696 0.522177 0.517989
v 0.957357 0.566513 0.475410
v 0.960750 0.580585 0.493660
v 0.905802 0.536050 0.536441
vn 0.735238 -0.595427 0.323871
f 473/1/119 474/2/119 475/3/119 476/4/119
v 0.905802 0.536050 0.536441
v 0.960750 0.580585 0.493660
v 0.955246 0.599807 0.505610
v 0.899930 0.555000 0.548648
vn 0.703383 -0.217901 0.676588
f 477/1/120 478/2/120 479/3/120 480/4/120
v 0.955246 0.599807 0.505610
v 1.010403 0.640229 0.462356
v 0.998560 0.660221 0.463985
v 0.942319 0.619030 0.508057
vn 0.493745 0.225080 0.839973
f 481/1/121 482/2/121 483/3/121 484/4/121
v 0.942319 0.619030 0.508057
v 0.998560 0.660221 0.463985
v 0.982447 0.674855 0.455691
v 0.925433 0.633102 0.500347
vn 0.157519 0.613167 0.774089
f 485/1/122 486/2/122 487/3/122 488/4/122
v 0.925433 0.633102 0.500347
v 0.982447 0.674855 0.455691
v 0.966382 0.680212 0.439696
v 0.909113 0.638252 0.484544
vn -0.220730 0.836967 0.500764
f 489/1/123 490/2/123 491/3/123 492/4/123
v 0.909113 0.638252 0.484544
v 0.966382 0.680212 0.439696
v 0.954671 0.674855 0.420287
v 0.897731 0.633102 0.464884
vn -0.539836 0.836577 0.093353
f 493/1/124 494/2/124 495/3/124 496/4/124
v 0.897731 0.633102 0.464884
v 0.954671 0.674855 0.420287
v 0.950450 0.660221 0.402663
v 0.894338 0.619030 0.446634
vn -0.714421 0.612061 -0.339093
f 497/1/125 498/2/125 499/3/125 500/4/125
v 0.894338 0.619030 0.446634
v 0.950450 0.660221 0.402663
v 0.954851 0.640229 0.391547
v 0.899842 0.599807 0.434684
vn -0.697550 0.223486 -0.680792
f 501/1/126 502/2/126 503/3/126 504/4/126
v 0.899842 0.599807 0.434684
v 0.954851 0.640229 0.391547
v 0.966695 0.620237 0.389918
v 0.912769 0.580585 0.432237
vn -0.493543 -0.224924 -0.840134
f 505/1/127 506/2/127 507/3/127 508/4/127
v 0.912769 0.580585 0.432237
v 0.966695 0.620237 0.389918
v 0.982808 0.605602 0.398212
v 0.929655 0.566513 0.439947
vn -0.157101 -0.612850 -0.774425
f 509/1/128 510/2/128 511/3/128 512/4/128
v 0.929655 0.566513 0.439947
v 0.982808 0.605602 0.398212
v 0.998872 0.600246 0.414207
v 0.945975 0.561363 0.455749
vn 0.221464 -0.836425 -0.501345
f 513/1/129 514/2/129 515/3/129 516/4/129
v 0.945975 0.561363 0.455749
v 0.998872 0.600246 0.414207
v 1.010584 0.605602 0.433617
v 0.957357 0.566513 0.475410
vn 0.540671 -0.835966 -0.093996
f 517/1/130 518/2/130 519/3/130 520/4/130
v 0.957357 0.566513 0.475410
v 1.010584 0.605602 0.433617
v 1.014805 0.620237 0.451240
v 0.960750 0.580585 0.493660
vn 0.715034 -0.611603 0.338626
f 521/1/131 522/2/131 523/3/131 524/4/131
v 0.960750 0.580585 0.493660
v 1.014805 0.620237 0.451240
v 1.010403 0.640229 0.462356
v 0.955246 0.599807 0.505610
vn 0.697846 -0.223259 0.680563
f 525/1/132 526/2/132 527/3/132 528/4/132
v 1.010403 0.640229 0.462356
v 1.065509 0.672307 0.419105
v 1.055586 0.693382 0.419239
v 0.998560 0.660221 0.463985
vn 0.511429 0.235649 0.826384
f 529/1/133 530/2/133 531/3/133 532/4/133
v 0.998560 0.660221 0.463985
v 1.055586 0.693382 0.419239
v 1.040868 0.708809 0.409859
v 0.982447 0.674855 0.455691
vn 0.204676 0.643400 0.737661
f 533/1/134 534/2/134 535/3/134 536/4/134
v 0.982447 0.674855 0.455691
v 1.040868 0.708809 0.409859
v 1.025300 0.714456 0.393478
v 0.966382 0.680212 0.439696
vn -0.156467 0.878513 0.451368
f 537/1/135 538/2/135 539/3/135 540/4/135
v 0.966382 0.680212 0.439696
v 1.025300 0.714456 0.393478
v 1.013052 0.708809 0.374486
v 0.954671 0.674855 0.420287
vn -0.475648 0.878507 0.044549
f 541/1/136 542/2/136 543/3/136 544/4/136
v 0.954671 0.674855 0.420287
v 1.013052 0.708809 0.374486
v 1.007406 0.693382 0.357972
v 0.950450 0.660221 0.402663
vn -0.667818 0.643358 -0.374312
f 545/1/137 546/2/137 547/3/137 548/4/137
v 0.950450 0.660221 0.402663
v 1.007406 0.693382 0.357972
v 1.009875 0.672307 0.348360
v 0.954851 0.640229 0.391547
vn -0.681107 0.235523 -0.693269
f 549/1/138 550/2/138 551/3/138 552/4/138
v 0.954851 0.640229 0.391547
v 1.009875 0.672307 0.348360
v 1.019798 0.651233 0.348227
v 0.966695 0.620237 0.389918
vn -0.511328 -0.235582 -0.826465
f 553/1/139 554/2/139 555/3/139 556/4/139
v 0.966695 0.620237 0.389918
v 1.019798 0.651233 0.348227
v 1.034516 0.635806 0.357607
v 0.982808 0.605602 0.398212
vn -0.204137 -0.643060 -0.738107
f 557/1/140 558/2/140 559/3/140 560/4/140
v 0.982808 0.605602 0.398212
v 1.034516 0.635806 0.357607
v 1.050084 0.630159 0.373987
v 0.998872 0.600246 0.414207
vn 0.157601 -0.877840 -0.452282
f 561/1/141 562/2/141 563/3/141 564/4/141
v 0.998872 0.600246 0.414207
v 1.050084 0.630159 0.373987
v 1.062332 0.635806 0.392979
v 1.010584 0.605602 0.433617
vn 0.476946 -0.877752 -0.045541
f 565/1/142 566/2/142 567/3/142 568/4/142
v 1.010584 0.605602 0.433617
v 1.062332 0.635806 0.392979
v 1.067978 0.651233 0.409494
v 1.014805 0.620237 0.451240
vn 0.668659 -0.642848 0.373687
f 569/1/143 570/2/143 571/3/143 572/4/143
v 1.014805 0.620237 0.451240
v 1.067978 0.651233 0.409494
v 1.065509 0.672307 0.419105
v 1.010403 0.640229 0.462356
vn 0.681347 -0.235368 0.693086
f 573/1/144 574/2/144 575/3/144 576/4/144
v 1.065509 0.672307 0.419105
v 1.120573 0.692903 0.375724
v 1.113439 0.714983 0.373676
v 1.055586 0.693382 0.419239
vn 0.540100 0.249214 0.803856
f 577/1/145 578/2/145 579/3/145 580/4/145
v 1.055586 0.693382 0.419239
v 1.113439 0.714983 0.373676
v 1.100742 0.731146 0.362716
v 1.040868 0.708809 0.409859
vn 0.280219 0.679565 0.677988
f 581/1/146 582/2/146 583/3/146 584/4/146
v 1.040868 0.708809 0.409859
v 1.100742 0.731146 0.362716
v 1.085884 0.737063 0.345780
v 1.025300 0.714456 0.393478
vn -0.053907 0.927132 0.370838
f 585/1/147 586/2/147 587/3/147 588/4/147
v 1.025300 0.714456 0.393478
v 1.085884 0.737063 0.345780
v 1.072846 0.731146 0.327405
v 1.013052 0.708809 0.374486
vn -0.373357 0.927033 -0.034846
f 589/1/148 590/2/148 591/3/148 592/4/148
v 1.013052 0.708809 0.374486
v 1.072846 0.731146 0.327405
v 1.065122 0.714983 0.312516
v 1.007406 0.693382 0.357972
vn -0.593582 0.679247 -0.431607
f 593/1/149 594/2/149 595/3/149 596/4/149
v 1.007406 0.693382 0.357972
v 1.065122 0.714983 0.312516
v 1.064782 0.692903 0.305102
v 1.009875 0.672307 0.348360
vn -0.655015 0.248678 -0.713522
f 597/1/150 598/2/150 599/3/150 600/4/150
v 1.009875 0.672307 0.348360
v 1.064782 0.692903 0.305102
v 1.071916 0.670824 0.307150
v 1.019798 0.651233 0.348227
vn -0.539953 -0.249145 -0.803976
f 601/1/151 602/2/151 603/3/151 604/4/151
v 1.019798 0.651233 0.348227
v 1.071916 0.670824 0.307150
v 1.084613 0.654660 0.318110
v 1.034516 0.635806 0.357607
vn -0.279514 -0.679257 -0.678588
f 605/1/152 606/2/152 607/3/152 608/4/152
v 1.034516 0.635806 0.357607
v 1.084613 0.654660 0.318110
v 1.099471 0.648744 0.335046
v 1.050084 0.630159 0.373987
vn 0.055385 -0.926561 -0.372046
f 609/1/153 610/2/153 611/3/153 612/4/153
v 1.050084 0.630159 0.373987
v 1.099471 0.648744 0.335046
v 1.112508 0.654660 0.353421
v 1.062332 0.635806 0.392979
vn 0.375065 -0.926391 0.033553
f 613/1/154 614/2/154 615/3/154 616/4/154
v 1.062332 0.635806 0.392979
v 1.112508 0.654660 0.353421
v 1.120232 0.670824 0.368310
v 1.067978 0.651233 0.409494
vn 0.594700 -0.678785 0.430793
f 617/1/155 618/2/155 619/3/155 620/4/155
v 1.067978 0.651233 0.409494
v 1.120232 0.670824 0.368310
v 1.120573 0.692903 0.375724
v 1.065509 0.672307 0.419105
vn 0.655344 -0.248526 0.713273
f 621/1/156 622/2/156 623/3/156 624/4/156
v 1.120573 0.692903 0.375724
v 1.175555 0.700000 0.332173
v 1.169706 0.722340 0.329122
v 1.113439 0.714983 0.373676
vn 0.579008 0.258771 0.773167
f 625/1/157 626/2/157 627/3/157 628/4/157
v 1.113439 0.714983 0.373676
v 1.169706 0.722340 0.329122
v 1.157920 0.738694 0.317450
v 1.100742 0.731146 0.362716
vn 0.381312 0.705009 0.597966
f 629/1/158 630/2/158 631/3/158 632/4/158
v 1.100742 0.731146 0.362716
v 1.157920 0.738694 0.317450
v 1.143355 0.744680 0.300285
v 1.085884 0.737063 0.345780
vn 0.081984 0.961085 0.263805
f 633/1/159 634/2/159 635/3/159 636/4/159
v 1.085884 0.737063 0.345780
v 1.143355 0.744680 0.300285
v 1.129915 0.738694 0.282226
v 1.072846 0.731146 0.327405
vn -0.238402 0.960984 -0.140262
f 637/1/160 638/2/160 639/3/160 640/4/160
v 1.072846 0.731146 0.327405
v 1.129915 0.738694 0.282226
v 1.121199 0.722340 0.268113
v 1.065122 0.714983 0.312516
vn -0.495365 0.704662 -0.508001
f 641/1/161 642/2/161 643/3/161 644/4/161
v 1.065122 0.714983 0.312516
v 1.121199 0.722340 0.268113
v 1.119544 0.700000 0.261726
v 1.064782 0.692903 0.305102
vn -0.620325 0.258257 -0.740608
f 645/1/162 646/2/162 647/3/162 648/4/162
v 1.064782 0.692903 0.305102
v 1.119544 0.700000 0.261726
v 1.125393 0.677660 0.264778
v 1.071916 0.670824 0.307150
vn -0.578928 -0.258751 -0.773234
f 649/1/163 650/2/163 651/3/163 652/4/163
v 1.071916 0.670824 0.307150
v 1.125393 0.677660 0.264778
v 1.137179 0.661306 0.276450
v 1.084613 0.654660 0.318110
vn -0.382679 -0.705276 -0.596777
f 653/1/164 654/2/164 655/3/164 656/4/164
v 1.084613 0.654660 0.318110
v 1.137179 0.661306 0.276450
v 1.151744 0.655320 0.293615
v 1.099471 0.648744 0.335046
vn -0.085313 -0.961549 -0.261046
f 657/1/165 658/2/165 659/3/165 660/4/165
v 1.099471 0.648744 0.335046
v 1.151744 0.655320 0.293615
v 1.165184 0.661306 0.311674
v 1.112508 0.654660 0.353421
vn 0.234477 -0.961514 0.143217
f 661/1/166 662/2/166 663/3/166 664/4/166
v 1.112508 0.654660 0.353421
v 1.165184 0.661306 0.311674
v 1.173900 0.677660 0.325787
v 1.120232 0.670824 0.368310
vn 0.492940 -0.705106 0.509741
f 665/1/167 666/2/167 667/3/167 668/4/167
v 1.120232 0.670824 0.368310
v 1.173900 0.677660 0.325787
v 1.175555 0.700000 0.332173
v 1.120573 0.692903 0.375724
vn 0.619942 -0.258348 0.740897
f 669/1/168 670/2/168 671/3/168 672/4/168
v 1.175555 0.700000 0.332173
v 1.373748 0.735096 0.173997
v 1.367562 0.757383 0.171236
v 1.169706 0.722340 0.329122
vn 0.574727 0.256627 0.777066
f 673/1/169 674/2/169 675/3/169 676/4/169
v 1.169706 0.722340 0.329122
v 1.367562 0.757383 0.171236
v 1.355474 0.773699 0.159822
v 1.157920 0.738694 0.317450
vn 0.365091 0.700644 0.613031
f 677/1/170 678/2/170 679/3/170 680/4/170
v 1.157920 0.738694 0.317450
v 1.355474 0.773699 0.159822
v 1.340724 0.779670 0.142811
v 1.143355 0.744680 0.300285
vn 0.057663 0.956863 0.284760
f 681/1/171 682/2/171 683/3/171 684/4/171
v 1.143355 0.744680 0.300285
v 1.340724 0.779670 0.142811
v 1.327262 0.773699 0.124764
v 1.129915 0.738694 0.282226
vn -0.265173 0.956733 -0.119768
f 685/1/172 686/2/172 687/3/172 688/4/172
v 1.129915 0.738694 0.282226
v 1.327262 0.773699 0.124764
v 1.318696 0.757383 0.110514
v 1.121199 0.722340 0.268113
vn -0.516975 0.700311 -0.492242
f 689/1/173 690/2/173 691/3/173 692/4/173
v 1.121199 0.722340 0.268113
v 1.318696 0.757383 0.110514
v 1.317322 0.735096 0.103882
v 1.119544 0.700000 0.261726
vn -0.630278 0.256201 -0.732878
f 693/1/174 694/2/174 695/3/174 696/4/174
v 1.119544 0.700000 0.261726
v 1.317322 0.735096 0.103882
v 1.323508 0.712809 0.106643
v 1.125393 0.677660 0.264778
vn -0.574668 -0.256618 -0.777113
f 697/1/175 698/2/175 699/3/175 700/4/175
v 1.125393 0.677660 0.264778
v 1.323508 0.712809 0.106643
v 1.335595 0.696494 0.118057
v 1.137179 0.661306 0.276450
vn -0.365046 -0.700636 -0.613067
f 701/1/176 702/2/176 703/3/176 704/4/176
v 1.137179 0.661306 0.276450
v 1.335595 0.696494 0.118057
v 1.350346 0.690522 0.135068
v 1.151744 0.655320 0.293615
vn -0.057641 -0.956859 -0.284777
f 705/1/177 706/2/177 707/3/177 708/4/177
v 1.151744 0.655320 0.293615
v 1.350346 0.690522 0.135068
v 1.363808 0.696494 0.153115
v 1.165184 0.661306 0.311674
vn 0.265184 -0.956731 0.119760
f 709/1/178 710/2/178 711/3/178 712/4/178
v 1.165184 0.661306 0.311674
v 1.363808 0.696494 0.153115
v 1.372373 0.712809 0.167364
v 1.173900 0.677660 0.325787
vn 0.516999 -0.700306 0.492222
f 713/1/179 714/2/179 715/3/179 716/4/179
v 1.173900 0.677660 0.325787
v 1.372373 0.712809 0.167364
v 1.373748 0.735096 0.173997
v 1.175555 0.700000 0.332173
vn 0.630327 -0.256194 0.732839
f 717/1/180 718/2/180 719/3/180 720/4/180
v 1.373748 0.735096 0.173997
v 1.570737 0.770192 0.014152
v 1.564529 0.792479 0.011443
v 1.367562 0.757383 0.171236
vn 0.580937 0.256907 0.772341
f 721/1/181 722/2/181 723/3/181 724/4/181
v 1.367562 0.757383 0.171236
v 1.564529 0.792479 0.011443
v 1.552347 0.808795 0.000129
v 1.355474 0.773699 0.159822
vn 0.369942 0.700810 0.609925
f 725/1/182 726/2/182 727/3/182 728/4/182
v 1.355474 0.773699 0.159822
v 1.552347 0.808795 0.000129
v 1.537455 0.814767 -0.016758
v 1.340724 0.779670 0.142811
vn 0.059831 0.956935 0.284070
f 729/1/183 730/2/183 731/3/183 732/4/183
v 1.340724 0.779670 0.142811
v 1.537455 0.814767 -0.016758
v 1.523844 0.808795 -0.034693
v 1.327262 0.773699 0.124764
vn -0.266303 0.956650 -0.117913
f 733/1/184 734/2/184 735/3/184 736/4/184
v 1.327262 0.773699 0.124764
v 1.523844 0.808795 -0.034693
v 1.515160 0.792479 -0.048871
v 1.318696 0.757383 0.110514
vn -0.521068 0.700031 -0.488308
f 737/1/185 738/2/185 739/3/185 740/4/185
v 1.318696 0.757383 0.110514
v 1.515160 0.792479 -0.048871
v 1.513731 0.770192 -0.055492
v 1.317322 0.735096 0.103882
vn -0.636202 0.255843 -0.727868
f 741/1/186 742/2/186 743/3/186 744/4/186
v 1.317322 0.735096 0.103882
v 1.513731 0.770192 -0.055492
v 1.519939 0.747905 -0.052783
v 1.323508 0.712809 0.106643
vn -0.580857 -0.256893 -0.772406
f 745/1/187 746/2/187 747/3/187 748/4/187
v 1.323508 0.712809 0.106643
v 1.519939 0.747905 -0.052783
v 1.532121 0.731590 -0.041469
v 1.335595 0.696494 0.118057
vn -0.369862 -0.700795 -0.609990
f 749/1/188 750/2/188 751/3/188 752/4/188
v 1.335595 0.696494 0.118057
v 1.532121 0.731590 -0.041469
v 1.547013 0.725618 -0.024582
v 1.350346 0.690522 0.135068
vn -0.059751 -0.956921 -0.284134
f 753/1/189 754/2/189 755/3/189 756/4/189
v 1.350346 0.690522 0.135068
v 1.547013 0.725618 -0.024582
v 1.560624 0.731590 -0.006646
v 1.363808 0.696494 0.153115
vn 0.266383 -0.956636 0.117848
f 757/1/190 758/2/190 759/3/190 760/4/190
v 1.363808 0.696494 0.153115
v 1.560624 0.731590 -0.006646
v 1.569308 0.747905 0.007531
v 1.372373 0.712809 0.167364
vn 0.521148 -0.700016 0.488243
f 761/1/191 762/2/191 763/3/191 764/4/191
v 1.372373 0.712809 0.167364
v 1.569308 0.747905 0.007531
v 1.570737 0.770192 0.014152
v 1.373748 0.735096 0.173997
vn 0.636282 -0.255829 0.727803
f 765/1/192 766/2/192 767/3/192 768/4/192
v 1.570737 0.770192 0.014152
v 1.766384 0.805288 -0.147386
v 1.760151 0.827576 -0.150039
v 1.564529 0.792479 0.011443
vn 0.587490 0.256935 0.767359
f 769/1/193 770/2/193 771/3/193 772/4/193
v 1.564529 0.792479 0.011443
v 1.760151 0.827576 -0.150039
v 1.747867 0.843891 -0.161242
v 1.552347 0.808795 0.000129
vn 0.375112 0.700830 0.606736
f 773/1/194 774/2/194 775/3/194 776/4/194
v 1.552347 0.808795 0.000129
v 1.747867 0.843891 -0.161242
v 1.732822 0.849863 -0.177993
v 1.537455 0.814767 -0.016758
vn 0.062233 0.956943 0.283527
f 777/1/195 778/2/195 779/3/195 780/4/195
v 1.537455 0.814767 -0.016758
v 1.732822 0.849863 -0.177993
v 1.719049 0.843891 -0.195804
v 1.523844 0.808795 -0.034693
vn -0.267311 0.956643 -0.115666
f 781/1/196 782/2/196 783/3/196 784/4/196
v 1.523844 0.808795 -0.034693
v 1.719049 0.843891 -0.195804
v 1.710237 0.827576 -0.209902
v 1.515160 0.792479 -0.048871
vn -0.525215 0.700011 -0.483873
f 785/1/197 786/2/197 787/3/197 788/4/197
v 1.515160 0.792479 -0.048871
v 1.710237 0.827576 -0.209902
v 1.708748 0.805288 -0.216510
v 1.513731 0.770192 -0.055492
vn -0.642375 0.255817 -0.722435
f 789/1/198 790/2/198 791/3/198 792/4/198
v 1.513731 0.770192 -0.055492
v 1.708748 0.805288 -0.216510
v 1.714980 0.783001 -0.213857
v 1.519939 0.747905 -0.052783
vn -0.587402 -0.256919 -0.767432
f 793/1/199 794/2/199 795/3/199 796/4/199
v 1.519939 0.747905 -0.052783
v 1.714980 0.783001 -0.213857
v 1.727265 0.766686 -0.202654
v 1.532121 0.731590 -0.041469
vn -0.375025 -0.700814 -0.606808
f 797/1/200 798/2/200 799/3/200 800/4/200
v 1.532121 0.731590 -0.041469
v 1.727265 0.766686 -0.202654
v 1.742309 0.760714 -0.185903
v 1.547013 0.725618 -0.024582
vn -0.062146 -0.956927 -0.283598
f 801/1/201 802/2/201 803/3/201 804/4/201
v 1.547013 0.725618 -0.024582
v 1.742309 0.760714 -0.185903
v 1.756083 0.766686 -0.168092
v 1.560624 0.731590 -0.006646
vn 0.267398 -0.956628 0.115594
f 805/1/202 806/2/202 807/3/202 808/4/202
v 1.560624 0.731590 -0.006646
v 1.756083 0.766686 -0.168092
v 1.764894 0.783001 -0.153994
v 1.569308 0.747905 0.007531
vn 0.525302 -0.699996 0.483801
f 809/1/203 810/2/203 811/3/203 812/4/203
v 1.569308 0.747905 0.007531
v 1.764894 0.783001 -0.153994
v 1.766384 0.805288 -0.147386
v 1.570737 0.770192 0.014152
vn 0.642463 -0.255801 0.722362
f 813/1/204 814/2/204 815/3/204 816/4/204
v 1.766384 0.805288 -0.147386
v 1.960521 0.840385 -0.310852
v 1.954260 0.862672 -0.313437
v 1.760151 0.827576 -0.150039
vn 0.594850 0.257010 0.761643
f 817/1/205 818/2/205 819/3/205 820/4/205
v 1.760151 0.827576 -0.150039
v 1.954260 0.862672 -0.313437
v 1.941856 0.878987 -0.324508
v 1.747867 0.843891 -0.161242
vn 0.380913 0.700884 0.603047
f 821/1/206 822/2/206 823/3/206 824/4/206
v 1.747867 0.843891 -0.161242
v 1.941856 0.878987 -0.324508
v 1.926633 0.884959 -0.341096
v 1.732822 0.849863 -0.177993
vn 0.064923 0.956964 0.282852
f 825/1/207 826/2/207 827/3/207 828/4/207
v 1.732822 0.849863 -0.177993
v 1.926633 0.884959 -0.341096
v 1.912669 0.878987 -0.358758
v 1.719049 0.843891 -0.195804
vn -0.268452 0.956625 -0.113149
f 829/1/208 830/2/208 831/3/208 832/4/208
v 1.719049 0.843891 -0.195804
v 1.912669 0.878987 -0.358758
v 1.903706 0.862672 -0.372761
v 1.710237 0.827576 -0.209902
vn -0.529878 0.699958 -0.478840
f 833/1/209 834/2/209 835/3/209 836/4/209
v 1.710237 0.827576 -0.209902
v 1.903706 0.862672 -0.372761
v 1.902146 0.840385 -0.379353
v 1.708748 0.805288 -0.216510
vn -0.649309 0.255744 -0.716236
f 837/1/210 838/2/210 839/3/210 840/4/210
v 1.708748 0.805288 -0.216510
v 1.902146 0.840385 -0.379353
v 1.908407 0.818098 -0.376767
v 1.714980 0.783001 -0.213857
vn -0.594746 -0.256991 -0.761730
f 841/1/211 842/2/211 843/3/211 844/4/211
v 1.714980 0.783001 -0.213857
v 1.908407 0.818098 -0.376767
v 1.920811 0.801782 -0.365696
v 1.727265 0.766686 -0.202654
vn -0.380810 -0.700866 -0.603134
f 845/1/212 846/2/212 847/3/212 848/4/212
v 1.727265 0.766686 -0.202654
v 1.920811 0.801782 -0.365696
v 1.936034 0.795810 -0.349108
v 1.742309 0.760714 -0.185903
vn -0.064820 -0.956946 -0.282937
f 849/1/213 850/2/213 851/3/213 852/4/213
v 1.742309 0.760714 -0.185903
v 1.936034 0.795810 -0.349108
v 1.949998 0.801782 -0.331446
v 1.756083 0.766686 -0.168092
vn 0.268554 -0.956606 0.113063
f 853/1/214 854/2/214 855/3/214 856/4/214
v 1.756083 0.766686 -0.168092
v 1.949998 0.801782 -0.331446
v 1.958961 0.818098 -0.317443
v 1.764894 0.783001 -0.153994
vn 0.529981 -0.699939 0.478754
f 857/1/215 858/2/215 859/3/215 860/4/215
v 1.764894 0.783001 -0.153994
v 1.958961 0.818098 -0.317443
v 1.960521 0.840385 -0.310852
v 1.766384 0.805288 -0.147386
vn 0.649412 -0.255725 0.716149
f 861/1/216 862/2/216 863/3/216 864/4/216
v 1.960521 0.840385 -0.310852
v 2.152779 0.875481 -0.476662
v 2.146485 0.897768 -0.479168
v 1.954260 0.862672 -0.313437
vn 0.603789 0.257154 0.754527
f 865/1/217 866/2/217 867/3/217 868/4/217
v 1.954260 0.862672 -0.313437
v 2.146485 0.897768 -0.479168
v 2.133941 0.914083 -0.490079
v 1.941856 0.878987 -0.324508
vn 0.387953 0.700989 0.598420
f 869/1/218 870/2/218 871/3/218 872/4/218
v 1.941856 0.878987 -0.324508
v 2.133941 0.914083 -0.490079
v 2.118508 0.920055 -0.506472
v 1.926633 0.884959 -0.341096
vn 0.068177 0.957004 0.281950
f 873/1/219 874/2/219 875/3/219 876/4/219
v 1.926633 0.884959 -0.341096
v 2.118508 0.920055 -0.506472
v 2.104320 0.914083 -0.523955
v 1.912669 0.878987 -0.358758
vn -0.269854 0.956588 -0.110087
f 877/1/220 878/2/220 879/3/220 880/4/220
v 1.912669 0.878987 -0.358758
v 2.104320 0.914083 -0.523955
v 2.095180 0.897768 -0.537842
v 1.903706 0.862672 -0.372761
vn -0.535557 0.699852 -0.472637
f 881/1/221 882/2/221 883/3/221 884/4/221
v 1.903706 0.862672 -0.372761
v 2.095180 0.897768 -0.537842
v 2.093536 0.875481 -0.544413
v 1.902146 0.840385 -0.379353
vn -0.657739 0.255600 -0.708554
f 885/1/222 886/2/222 887/3/222 888/4/222
v 1.902146 0.840385 -0.379353
v 2.093536 0.875481 -0.544413
v 2.099829 0.853194 -0.541908
v 1.908407 0.818098 -0.376767
vn -0.603668 -0.257132 -0.754631
f 889/1/223 890/2/223 891/3/223 892/4/223
v 1.908407 0.818098 -0.376767
v 2.099829 0.853194 -0.541908
v 2.112373 0.836878 -0.530996
v 1.920811 0.801782 -0.365696
vn -0.387831 -0.700968 -0.598524
f 893/1/224 894/2/224 895/3/224 896/4/224
v 1.920811 0.801782 -0.365696
v 2.112373 0.836878 -0.530996
v 2.127806 0.830907 -0.514603
v 1.936034 0.795810 -0.349108
vn -0.068056 -0.956982 -0.282053
f 897/1/225 898/2/225 899/3/225 900/4/225
v 1.936034 0.795810 -0.349108
v 2.127806 0.830907 -0.514603
v 2.141994 0.836878 -0.497120
v 1.949998 0.801782 -0.331446
vn 0.269974 -0.956565 0.109984
f 901/1/226 902/2/226 903/3/226 904/4/226
v 1.949998 0.801782 -0.331446
v 2.141994 0.836878 -0.497120
v 2.151135 0.853194 -0.483233
v 1.958961 0.818098 -0.317443
vn 0.535678 -0.699830 0.472533
f 905/1/227 906/2/227 907/3/227 908/4/227
v 1.958961 0.818098 -0.317443
v 2.151135 0.853194 -0.483233
v 2.152779 0.875481 -0.476662
v 1.960521 0.840385 -0.310852
vn 0.657860 -0.255578 0.708449
f 909/1/228 910/2/228 911/3/228 912/4/228
v 2.152779 0.875481 -0.476662
v 2.342825 0.910577 -0.645146
v 2.336496 0.932864 -0.647558
v 2.146485 0.897768 -0.479168
vn 0.614015 0.257274 0.746187
f 913/1/229 914/2/229 915/3/229 916/4/229
v 2.146485 0.897768 -0.479168
v 2.336496 0.932864 -0.647558
v 2.323791 0.949179 -0.658281
v 2.133941 0.914083 -0.490079
vn 0.396033 0.701077 0.593000
f 917/1/230 918/2/230 919/3/230 920/4/230
v 2.133941 0.914083 -0.490079
v 2.323791 0.949179 -0.658281
v 2.308114 0.955151 -0.674443
v 2.118508 0.920055 -0.506472
vn 0.071948 0.957037 0.280898
f 921/1/231 922/2/231 923/3/231 924/4/231
v 2.118508 0.920055 -0.506472
v 2.308114 0.955151 -0.674443
v 2.293668 0.949179 -0.691712
v 2.104320 0.914083 -0.523955
vn -0.271400 0.956557 -0.106494
f 925/1/232 926/2/232 927/3/232 928/4/232
v 2.104320 0.914083 -0.523955
v 2.293668 0.949179 -0.691712
v 2.284321 0.932864 -0.705462
v 2.095180 0.897768 -0.537842
vn -0.542003 0.699764 -0.465363
f 929/1/233 930/2/233 931/3/233 932/4/233
v 2.095180 0.897768 -0.537842
v 2.284321 0.932864 -0.705462
v 2.282580 0.910577 -0.712008
v 2.093536 0.875481 -0.544413
vn -0.667354 0.255481 -0.699549
f 933/1/234 934/2/234 935/3/234 936/4/234
v 2.093536 0.875481 -0.544413
v 2.282580 0.910577 -0.712008
v 2.288909 0.888290 -0.709596
v 2.099829 0.853194 -0.541908
vn -0.613874 -0.257248 -0.746312
f 937/1/235 938/2/235 939/3/235 940/4/235
v 2.099829 0.853194 -0.541908
v 2.288909 0.888290 -0.709596
v 2.301615 0.871975 -0.698873
v 2.112373 0.836878 -0.530996
vn -0.395893 -0.701051 -0.593124
f 941/1/236 942/2/236 943/3/236 944/4/236
v 2.112373 0.836878 -0.530996
v 2.301615 0.871975 -0.698873
v 2.317291 0.866003 -0.682711
v 2.127806 0.830907 -0.514603
vn -0.071809 -0.957012 -0.281020
f 945/1/237 946/2/237 947/3/237 948/4/237
v 2.127806 0.830907 -0.514603
v 2.317291 0.866003 -0.682711
v 2.331738 0.871975 -0.665442
v 2.141994 0.836878 -0.497120
vn 0.271540 -0.956531 0.106372
f 949/1/238 950/2/238 951/3/238 952/4/238
v 2.141994 0.836878 -0.497120
v 2.331738 0.871975 -0.665442
v 2.341084 0.888290 -0.651692
v 2.151135 0.853194 -0.483233
vn 0.542143 -0.699738 0.465240
f 953/1/239 954/2/239 955/3/239 956/4/239
v 2.151135 0.853194 -0.483233
v 2.341084 0.888290 -0.651692
v 2.342825 0.910577 -0.645146
v 2.152779 0.875481 -0.476662
vn 0.667494 -0.255455 0.699424
f 957/1/240 958/2/240 959/3/240 960/4/240
v 2.342825 0.910577 -0.645146
v 2.530237 0.945673 -0.816776
v 2.523864 0.967960 -0.819072
v 2.336496 0.932864 -0.647558
vn 0.625949 0.257438 0.736148
f 961/1/241 962/2/241 963/3/241 964/4/241
v 2.336496 0.932864 -0.647558
v 2.523864 0.967960 -0.819072
v 2.510966 0.984275 -0.829562
v 2.323791 0.949179 -0.658281
vn 0.405477 0.701196 0.586441
f 965/1/242 966/2/242 967/3/242 968/4/242
v 2.323791 0.949179 -0.658281
v 2.510966 0.984275 -0.829562
v 2.494998 0.990247 -0.845436
v 2.308114 0.955151 -0.674443
vn 0.076373 0.957083 0.279571
f 969/1/243 970/2/243 971/3/243 972/4/243
v 2.308114 0.955151 -0.674443
v 2.494998 0.990247 -0.845436
v 2.480239 0.984275 -0.862439
v 2.293668 0.949179 -0.691712
vn -0.273177 0.956515 -0.102240
f 973/1/244 974/2/244 975/3/244 976/4/244
v 2.293668 0.949179 -0.691712
v 2.480239 0.984275 -0.862439
v 2.470644 0.967960 -0.876016
v 2.284321 0.932864 -0.705462
vn -0.549499 0.699645 -0.456671
f 977/1/245 978/2/245 979/3/245 980/4/245
v 2.284321 0.932864 -0.705462
v 2.470644 0.967960 -0.876016
v 2.468784 0.945673 -0.882530
v 2.282580 0.910577 -0.712008
vn -0.678554 0.255319 -0.688750
f 981/1/246 982/2/246 983/3/246 984/4/246
v 2.282580 0.910577 -0.712008
v 2.468784 0.945673 -0.882530
v 2.475157 0.923386 -0.880233
v 2.288909 0.888290 -0.709596
vn -0.625777 -0.257406 -0.736305
f 985/1/247 986/2/247 987/3/247 988/4/247
v 2.288909 0.888290 -0.709596
v 2.475157 0.923386 -0.880233
v 2.488055 0.907071 -0.869743
v 2.301615 0.871975 -0.698873
vn -0.405307 -0.701165 -0.586596
f 989/1/248 990/2/248 991/3/248 992/4/248
v 2.301615 0.871975 -0.698873
v 2.488055 0.907071 -0.869743
v 2.504023 0.901099 -0.853870
v 2.317291 0.866003 -0.682711
vn -0.076205 -0.957052 -0.279723
f 993/1/249 994/2/249 995/3/249 996/4/249
v 2.317291 0.866003 -0.682711
v 2.504023 0.901099 -0.853870
v 2.518781 0.907071 -0.836867
v 2.331738 0.871975 -0.665442
vn 0.273345 -0.956483 0.102088
f 997/1/250 998/2/250 999/3/250 1000/4/250
v 2.331738 0.871975 -0.665442
v 2.518781 0.907071 -0.836867
v 2.528377 0.923386 -0.823289
v 2.341084 0.888290 -0.651692
vn 0.549668 -0.699612 0.456517
f 1001/1/251 1002/2/251 1003/3/251 1004/4/251
v 2.341084 0.888290 -0.651692
v 2.528377 0.923386 -0.823289
v 2.530237 0.945673 -0.816776
v 2.342825 0.910577 -0.645146
vn 0.678725 -0.255286 0.688594
f 1005/1/252 1006/2/252 1007/3/252 1008/4/252
v 2.530237 0.945673 -0.816776
v 2.714288 0.980769 -0.992321
v 2.707864 1.003056 -0.994470
v 2.523864 0.967960 -0.819072
vn 0.640691 0.257709 0.723257
f 1009/1/253 1010/2/253 1011/3/253 1012/4/253
v 2.523864 0.967960 -0.819072
v 2.707864 1.003056 -0.994470
v 2.694726 1.019372 -1.004659
v 2.510966 0.984275 -0.829562
vn 0.417153 0.701392 0.577956
f 1013/1/254 1014/2/254 1015/3/254 1016/4/254
v 2.510966 0.984275 -0.829562
v 2.694726 1.019372 -1.004659
v 2.678396 1.025343 -1.020159
v 2.494998 0.990247 -0.845436
vn 0.081854 0.957158 0.277756
f 1017/1/255 1018/2/255 1019/3/255 1020/4/255
v 2.494998 0.990247 -0.845436
v 2.678396 1.025343 -1.020159
v 2.663248 1.019372 -1.036817
v 2.480239 0.984275 -0.862439
vn -0.275357 0.956445 -0.096909
f 1021/1/256 1022/2/256 1023/3/256 1024/4/256
v 2.480239 0.984275 -0.862439
v 2.663248 1.019372 -1.036817
v 2.653342 1.003056 -1.050169
v 2.470644 0.967960 -0.876016
vn -0.558744 0.699444 -0.445627
f 1025/1/257 1026/2/257 1027/3/257 1028/4/257
v 2.470644 0.967960 -0.876016
v 2.653342 1.003056 -1.050169
v 2.651332 0.980769 -1.056637
v 2.468784 0.945673 -0.882530
vn -0.692379 0.255047 -0.674954
f 1029/1/258 1030/2/258 1031/3/258 1032/4/258
v 2.468784 0.945673 -0.882530
v 2.651332 0.980769 -1.056637
v 2.657756 0.958482 -1.054489
v 2.475157 0.923386 -0.880233
vn -0.640475 -0.257669 -0.723463
f 1033/1/259 1034/2/259 1035/3/259 1036/4/259
v 2.475157 0.923386 -0.880233
v 2.657756 0.958482 -1.054489
v 2.670893 0.942167 -1.044300
v 2.488055 0.907071 -0.869743
vn -0.416939 -0.701352 -0.578158
f 1037/1/260 1038/2/260 1039/3/260 1040/4/260
v 2.488055 0.907071 -0.869743
v 2.670893 0.942167 -1.044300
v 2.687224 0.936195 -1.028800
v 2.504023 0.901099 -0.853870
vn -0.081643 -0.957119 -0.277954
f 1041/1/261 1042/2/261 1043/3/261 1044/4/261
v 2.504023 0.901099 -0.853870
v 2.687224 0.936195 -1.028800
v 2.702371 0.942167 -1.012142
v 2.518781 0.907071 -0.836867
vn 0.275567 -0.956405 0.096713
f 1045/1/262 1046/2/262 1047/3/262 1048/4/262
v 2.518781 0.907071 -0.836867
v 2.702371 0.942167 -1.012142
v 2.712277 0.958482 -0.998790
v 2.528377 0.923386 -0.823289
vn 0.558956 -0.699402 0.445427
f 1049/1/263 1050/2/263 1051/3/263 1052/4/263
v 2.528377 0.923386 -0.823289
v 2.712277 0.958482 -0.998790
v 2.714288 0.980769 -0.992321
v 2.530237 0.945673 -0.816776
vn 0.692594 -0.255005 0.674749
f 1053/1/264 1054/2/264 1055/3/264 1056/4/264
v 2.714288 0.980769 -0.992321
v 2.893932 1.015865 -1.172791
v 2.887446 1.038152 -1.174747
v 2.707864 1.003056 -0.994470
vn 0.659159 0.258079 0.706331
f 1057/1/265 1058/2/265 1059/3/265 1060/4/265
v 2.707864 1.003056 -0.994470
v 2.887446 1.038152 -1.174747
v 2.874011 1.054468 -1.184540
v 2.694726 1.019372 -1.004659
vn 0.431820 0.701658 0.566753
f 1061/1/266 1062/2/266 1063/3/266 1064/4/266
v 2.694726 1.019372 -1.004659
v 2.874011 1.054468 -1.184540
v 2.857226 1.060439 -1.199547
v 2.678396 1.025343 -1.020159
vn 0.088789 0.957260 0.275262
f 1065/1/267 1066/2/267 1067/3/267 1068/4/267
v 2.678396 1.025343 -1.020159
v 2.857226 1.060439 -1.199547
v 2.841589 1.054468 -1.215747
v 2.663248 1.019372 -1.036817
vn -0.278010 0.956349 -0.090043
f 1069/1/268 1070/2/268 1071/3/268 1072/4/268
v 2.663248 1.019372 -1.036817
v 2.841589 1.054468 -1.215747
v 2.831290 1.038152 -1.228798
v 2.653342 1.003056 -1.050169
vn -0.570258 0.699166 -0.431245
f 1073/1/269 1074/2/269 1075/3/269 1076/4/269
v 2.653342 1.003056 -1.050169
v 2.831290 1.038152 -1.228798
v 2.829088 1.015865 -1.235204
v 2.651332 0.980769 -1.056637
vn -0.709654 0.254674 -0.656911
f 1077/1/270 1078/2/270 1079/3/270 1080/4/270
v 2.651332 0.980769 -1.056637
v 2.829088 1.015865 -1.235204
v 2.835574 0.993578 -1.233249
v 2.657756 0.958482 -1.054489
vn -0.658884 -0.258026 -0.706608
f 1081/1/271 1082/2/271 1083/3/271 1084/4/271
v 2.657756 0.958482 -1.054489
v 2.835574 0.993578 -1.233249
v 2.849009 0.977263 -1.223455
v 2.670893 0.942167 -1.044300
vn -0.431547 -0.701607 -0.567023
f 1085/1/272 1086/2/272 1087/3/272 1088/4/272
v 2.670893 0.942167 -1.044300
v 2.849009 0.977263 -1.223455
v 2.865794 0.971291 -1.208448
v 2.687224 0.936195 -1.028800
vn -0.088522 -0.957210 -0.275524
f 1089/1/273 1090/2/273 1091/3/273 1092/4/273
v 2.687224 0.936195 -1.028800
v 2.865794 0.971291 -1.208448
v 2.881430 0.977263 -1.192249
v 2.702371 0.942167 -1.012142
vn 0.278276 -0.956296 0.089783
f 1093/1/274 1094/2/274 1095/3/274 1096/4/274
v 2.702371 0.942167 -1.012142
v 2.881430 0.977263 -1.192249
v 2.891730 0.993578 -1.179197
v 2.712277 0.958482 -0.998790
vn 0.570527 -0.699111 0.430978
f 1097/1/275 1098/2/275 1099/3/275 1100/4/275
v 2.712277 0.958482 -0.998790
v 2.891730 0.993578 -1.179197
v 2.893932 1.015865 -1.172791
v 2.714288 0.980769 -0.992321
vn 0.709928 -0.254619 0.656636
f 1101/1/276 1102/2/276 1103/3/276 1104/4/276
v 2.893932 1.015865 -1.172791
v 3.067746 1.050962 -1.359569
v 3.061185 1.073248 -1.361256
v 2.887446 1.038152 -1.174747
vn 0.682446 0.258582 0.683669
f 1105/1/277 1106/2/277 1107/3/277 1108/4/277
v 2.887446 1.038152 -1.174747
v 3.061185 1.073248 -1.361256
v 3.047358 1.089564 -1.370487
v 2.874011 1.054468 -1.184540
vn 0.450390 0.702016 0.551654
f 1109/1/278 1110/2/278 1111/3/278 1112/4/278
v 2.874011 1.054468 -1.184540
v 3.047358 1.089564 -1.370487
v 3.029970 1.095535 -1.384791
v 2.857226 1.060439 -1.199547
vn 0.097665 0.957400 0.271748
f 1113/1/279 1114/2/279 1115/3/279 1116/4/279
v 2.857226 1.060439 -1.199547
v 3.029970 1.095535 -1.384791
v 3.013679 1.089564 -1.400333
v 2.841589 1.054468 -1.215747
vn -0.281203 0.956218 -0.081064
f 1117/1/280 1118/2/280 1119/3/280 1120/4/280
v 2.841589 1.054468 -1.215747
v 3.013679 1.089564 -1.400333
v 3.002852 1.073248 -1.412949
v 2.831290 1.038152 -1.228798
vn -0.584632 0.698788 -0.412191
f 1121/1/281 1122/2/281 1123/3/281 1124/4/281
v 2.831290 1.038152 -1.228798
v 3.002852 1.073248 -1.412949
v 3.000389 1.050962 -1.419260
v 2.829088 1.015865 -1.235204
vn -0.731331 0.254168 -0.632893
f 1125/1/282 1126/2/282 1127/3/282 1128/4/282
v 2.829088 1.015865 -1.235204
v 3.000389 1.050962 -1.419260
v 3.006950 1.028675 -1.417573
v 2.835574 0.993578 -1.233249
vn -0.682059 -0.258505 -0.684083
f 1129/1/283 1130/2/283 1131/3/283 1132/4/283
v 2.835574 0.993578 -1.233249
v 3.006950 1.028675 -1.417573
v 3.020777 1.012359 -1.408342
v 2.849009 0.977263 -1.223455
vn -0.450013 -0.701945 -0.552052
f 1133/1/284 1134/2/284 1135/3/284 1136/4/284
v 2.849009 0.977263 -1.223455
v 3.020777 1.012359 -1.408342
v 3.038165 1.006388 -1.394039
v 2.865794 0.971291 -1.208448
vn -0.097303 -0.957330 -0.272125
f 1137/1/285 1138/2/285 1139/3/285 1140/4/285
v 2.865794 0.971291 -1.208448
v 3.038165 1.006388 -1.394039
v 3.054455 1.012359 -1.378496
v 2.881430 0.977263 -1.192249
vn 0.281560 -0.956145 0.080692
f 1141/1/286 1142/2/286 1143/3/286 1144/4/286
v 2.881430 0.977263 -1.192249
v 3.054455 1.012359 -1.378496
v 3.065283 1.028675 -1.365880
v 2.891730 0.993578 -1.179197
vn 0.584999 -0.698709 0.411803
f 1145/1/287 1146/2/287 1147/3/287 1148/4/287
v 2.891730 0.993578 -1.179197
v 3.065283 1.028675 -1.365880
v 3.067746 1.050962 -1.359569
v 2.893932 1.015865 -1.172791
vn 0.731713 -0.254088 0.632483
f 1149/1/288 1150/2/288 1151/3/288 1152/4/288
v 3.067746 1.050962 -1.359569
v 3.232840 1.086058 -1.555302
v 3.226186 1.108344 -1.556577
v 3.061185 1.073248 -1.361256
vn 0.714762 0.259559 0.649418
f 1153/1/289 1154/2/289 1155/3/289 1156/4/289
v 3.061185 1.073248 -1.361256
v 3.226186 1.108344 -1.556577
v 3.211812 1.124659 -1.564932
v 3.047358 1.089564 -1.370487
vn 0.476244 0.702705 0.528580
f 1157/1/290 1158/2/290 1159/3/290 1160/4/290
v 3.047358 1.089564 -1.370487
v 3.211812 1.124659 -1.564932
v 3.193570 1.130631 -1.578128
v 3.029970 1.095535 -1.384791
vn 0.110110 0.957670 0.265979
f 1161/1/291 1162/2/291 1163/3/291 1164/4/291
v 3.029970 1.095535 -1.384791
v 3.193570 1.130631 -1.578128
v 3.176346 1.124659 -1.592630
v 3.013679 1.089564 -1.400333
vn -0.285504 0.955958 -0.068059
f 1165/1/292 1166/2/292 1167/3/292 1168/4/292
v 3.013679 1.089564 -1.400333
v 3.176346 1.124659 -1.592630
v 3.164758 1.108344 -1.604551
v 3.002852 1.073248 -1.412949
vn -0.604452 0.698028 -0.383920
f 1169/1/293 1170/2/293 1171/3/293 1172/4/293
v 3.002852 1.073248 -1.412949
v 3.164758 1.108344 -1.604551
v 3.161909 1.086058 -1.610698
v 3.000389 1.050962 -1.419260
vn -0.761300 0.253164 -0.596935
f 1173/1/294 1174/2/294 1175/3/294 1176/4/294
v 3.000389 1.050962 -1.419260
v 3.161909 1.086058 -1.610698
v 3.168563 1.063771 -1.609423
v 3.006950 1.028675 -1.417573
vn -0.714169 -0.259437 -0.650120
f 1177/1/295 1178/2/295 1179/3/295 1180/4/295
v 3.006950 1.028675 -1.417573
v 3.168563 1.063771 -1.609423
v 3.182937 1.047456 -1.601069
v 3.020777 1.012359 -1.408342
vn -0.475676 -0.702596 -0.529237
f 1181/1/296 1182/2/296 1183/3/296 1184/4/296
v 3.020777 1.012359 -1.408342
v 3.182937 1.047456 -1.601069
v 3.201179 1.041484 -1.587872
v 3.038165 1.006388 -1.394039
vn -0.109581 -0.957564 -0.266578
f 1185/1/297 1186/2/297 1187/3/297 1188/4/297
v 3.038165 1.006388 -1.394039
v 3.201179 1.041484 -1.587872
v 3.218403 1.047456 -1.573371
v 3.054455 1.012359 -1.378496
vn 0.286021 -0.955845 0.067474
f 1189/1/298 1190/2/298 1191/3/298 1192/4/298
v 3.054455 1.012359 -1.378496
v 3.218403 1.047456 -1.573371
v 3.229991 1.063771 -1.561449
v 3.065283 1.028675 -1.365880
vn 0.604996 -0.697902 0.383291
f 1193/1/299 1194/2/299 1195/3/299 1196/4/299
v 3.065283 1.028675 -1.365880
v 3.229991 1.063771 -1.561449
v 3.232840 1.086058 -1.555302
v 3.067746 1.050962 -1.359569
vn 0.761881 -0.253033 0.596247
f 1197/1/300 1198/2/300 1199/3/300 1200/4/300
v 3.232840 1.086058 -1.555302
v 3.383873 1.121154 -1.764650
v 3.377115 1.143439 -1.765181
v 3.226186 1.108344 -1.556577
vn 0.761492 0.261284 0.593179
f 1201/1/301 1202/2/301 1203/3/301 1204/4/301
v 3.226186 1.108344 -1.556577
v 3.377115 1.143439 -1.765181
v 3.361909 1.159754 -1.771906
v 3.211812 1.124659 -1.564932
vn 0.513963 0.703892 0.490283
f 1205/1/302 1206/2/302 1207/3/302 1208/4/302
v 3.211812 1.124659 -1.564932
v 3.361909 1.159754 -1.771906
v 3.342330 1.165725 -1.783022
v 3.193570 1.130631 -1.578128
vn 0.128642 0.958145 0.255753
f 1209/1/303 1210/2/303 1211/3/303 1212/4/303
v 3.193570 1.130631 -1.578128
v 3.342330 1.165725 -1.783022
v 3.323623 1.159754 -1.795552
v 3.176346 1.124659 -1.592630
vn -0.291123 0.955495 -0.047710
f 1213/1/304 1214/2/304 1215/3/304 1216/4/304
v 3.176346 1.124659 -1.592630
v 3.323623 1.159754 -1.795552
v 3.310801 1.143439 -1.806138
v 3.164758 1.108344 -1.604551
vn -0.632491 0.696655 -0.338566
f 1217/1/305 1218/2/305 1219/3/305 1220/4/305
v 3.164758 1.108344 -1.604551
v 3.310801 1.143439 -1.806138
v 3.307300 1.121154 -1.811942
v 3.161909 1.086058 -1.610698
vn -0.804075 0.251386 -0.538765
f 1221/1/306 1222/2/306 1223/3/306 1224/4/306
v 3.161909 1.086058 -1.610698
v 3.307300 1.121154 -1.811942
v 3.314058 1.098868 -1.811411
v 3.168563 1.063771 -1.609423
vn -0.760305 -0.261023 -0.594814
f 1225/1/307 1226/2/307 1227/3/307 1228/4/307
v 3.168563 1.063771 -1.609423
v 3.314058 1.098868 -1.811411
v 3.329264 1.082554 -1.804686
v 3.182937 1.047456 -1.601069
vn -0.512888 -0.703678 -0.491714
f 1229/1/308 1230/2/308 1231/3/308 1232/4/308
v 3.182937 1.047456 -1.601069
v 3.329264 1.082554 -1.804686
v 3.348844 1.076583 -1.793570
v 3.201179 1.041484 -1.587872
vn -0.127735 -0.957954 -0.256920
f 1233/1/309 1234/2/309 1235/3/309 1236/4/309
v 3.201179 1.041484 -1.587872
v 3.348844 1.076583 -1.793570
v 3.367551 1.082554 -1.781040
v 3.218403 1.047456 -1.573371
vn 0.291982 -0.955288 0.046604
f 1237/1/310 1238/2/310 1239/3/310 1240/4/310
v 3.218403 1.047456 -1.573371
v 3.367551 1.082554 -1.781040
v 3.380372 1.098868 -1.770454
v 3.229991 1.063771 -1.561449
vn 0.633471 -0.696398 0.337261
f 1241/1/311 1242/2/311 1243/3/311 1244/4/311
v 3.229991 1.063771 -1.561449
v 3.380372 1.098868 -1.770454
v 3.383873 1.121154 -1.764650
v 3.232840 1.086058 -1.555302
vn 0.805216 -0.251098 0.537194
f 1245/1/312 1246/2/312 1247/3/312 1248/4/312
v 3.383873 1.121154 -1.764650
v 3.502512 1.156250 -1.991592
v 3.495736 1.178536 -1.991641
v 3.377115 1.143439 -1.765181
vn 0.837022 0.265230 0.478589
f 1249/1/313 1250/2/313 1251/3/313 1252/4/313
v 3.377115 1.143439 -1.765181
v 3.495736 1.178536 -1.991641
v 3.480088 1.194851 -1.997257
v 3.361909 1.159754 -1.771906
vn 0.576055 0.706438 0.411225
f 1253/1/314 1254/2/314 1255/3/314 1256/4/314
v 3.361909 1.159754 -1.771906
v 3.480088 1.194851 -1.997257
v 3.459759 1.200823 -2.006937
v 3.342330 1.165725 -1.783022
vn 0.160050 0.959139 0.233315
f 1257/1/315 1258/2/315 1259/3/315 1260/4/315
v 3.342330 1.165725 -1.783022
v 3.459759 1.200823 -2.006937
v 3.440199 1.194851 -2.018087
v 3.323623 1.159754 -1.795552
vn -0.299505 0.954065 -0.007526
f 1261/1/316 1262/2/316 1263/3/316 1264/4/316
v 3.323623 1.159754 -1.795552
v 3.440199 1.194851 -2.018087
v 3.426647 1.178536 -2.027719
v 3.310801 1.143439 -1.806138
vn -0.678114 0.692563 -0.246004
f 1265/1/317 1266/2/317 1267/3/317 1268/4/317
v 3.310801 1.143439 -1.806138
v 3.426647 1.178536 -2.027719
v 3.422734 1.156250 -2.033251
v 3.307300 1.121154 -1.811942
vn -0.874371 0.246267 -0.418125
f 1269/1/318 1270/2/318 1271/3/318 1272/4/318
v 3.307300 1.121154 -1.811942
v 3.422734 1.156250 -2.033251
v 3.429510 1.133964 -2.033203
v 3.314058 1.098868 -1.811411
vn -0.836998 -0.265223 -0.478635
f 1273/1/319 1274/2/319 1275/3/319 1276/4/319
v 3.314058 1.098868 -1.811411
v 3.429510 1.133964 -2.033203
v 3.445159 1.117649 -2.027586
v 3.329264 1.082554 -1.804686
vn -0.575873 -0.706400 -0.411545
f 1277/1/320 1278/2/320 1279/3/320 1280/4/320
v 3.329264 1.082554 -1.804686
v 3.445159 1.117649 -2.027586
v 3.465487 1.111677 -2.017906
v 3.348844 1.076583 -1.793570
vn -0.159633 -0.959042 -0.233998
f 1281/1/321 1282/2/321 1283/3/321 1284/4/321
v 3.348844 1.076583 -1.793570
v 3.465487 1.111677 -2.017906
v 3.485048 1.117649 -2.006756
v 3.367551 1.082554 -1.781040
vn 0.299982 -0.953921 0.006746
f 1285/1/322 1286/2/322 1287/3/322 1288/4/322
v 3.367551 1.082554 -1.781040
v 3.485048 1.117649 -2.006756
v 3.498600 1.133964 -1.997125
v 3.380372 1.098868 -1.770454
vn 0.678410 -0.692458 0.245483
f 1289/1/323 1290/2/323 1291/3/323 1292/4/323
v 3.380372 1.098868 -1.770454
v 3.498600 1.133964 -1.997125
v 3.502512 1.156250 -1.991592
v 3.383873 1.121154 -1.764650
vn 0.874450 -0.246240 0.417974
f 1293/1/324 1294/2/324 1295/3/324 1296/4/324
v 3.502512 1.156250 -1.991592
v 3.459759 1.200823 -2.006937
v 3.480088 1.194851 -1.997257
v 3.495736 1.178536 -1.991641
vn 0.458485 0.137488 -0.878002
f 1297/1/325 1298/2/325 1299/3/325 1300/4/325
v 3.502512 1.156250 -1.991592
v 3.426647 1.178536 -2.027719
v 3.440199 1.194851 -2.018087
v 3.459759 1.200823 -2.006937
vn 0.458485 0.137488 -0.878002
f 1301/1/326 1302/2/326 1303/3/326 1304/4/326
v 3.502512 1.156250 -1.991592
v 3.429510 1.133964 -2.033203
v 3.422734 1.156250 -2.033251
v 3.426647 1.178536 -2.027719
vn 0.458485 0.137488 -0.878002
f 1305/1/327 1306/2/327 1307/3/327 1308/4/327
v 3.502512 1.156250 -1.991592
v 3.465487 1.111677 -2.017906
v 3.445159 1.117649 -2.027586
v 3.429510 1.133964 -2.033203
vn 0.458485 0.137488 -0.878002
f 1309/1/328 1310/2/328 1311/3/328 1312/4/328
v 3.502512 1.156250 -1.991592
v 3.498600 1.133964 -1.997125
v 3.485048 1.117649 -2.006756
v 3.465487 1.111677 -2.017906
vn 0.458485 0.137488 -0.878002
f 1313/1/329 1314/2/329 1315/3/329 1316/4/329
v 3.491160 1.154864 -1.991944
v 3.512447 1.156250 -2.053454
v 3.508020 1.173249 -2.054539
v 3.486734 1.171860 -1.993085
vn 0.911000 0.258776 0.321114
f 1317/1/330 1318/2/330 1319/3/330 1320/4/330
v 3.486734 1.171860 -1.993085
v 3.508020 1.173249 -2.054539
v 3.496026 1.185693 -2.057863
v 3.474887 1.184302 -1.996906
vn 0.663216 0.706953 0.245688
f 1321/1/331 1322/2/331 1323/3/331 1324/4/331
v 3.474887 1.184302 -1.996906
v 3.496026 1.185693 -2.057863
v 3.479680 1.190248 -2.062534
v 3.458794 1.188856 -2.002384
vn 0.237710 0.965702 0.104467
f 1325/1/332 1326/2/332 1327/3/332 1328/4/332
v 3.458794 1.188856 -2.002384
v 3.479680 1.190248 -2.062534
v 3.463362 1.185693 -2.067301
v 3.442765 1.184302 -2.008050
vn -0.251415 0.965697 -0.064960
f 1329/1/333 1330/2/333 1331/3/333 1332/4/333
v 3.442765 1.184302 -2.008050
v 3.463362 1.185693 -2.067301
v 3.451444 1.173249 -2.070887
v 3.431097 1.171860 -2.012385
vn -0.673040 0.706943 -0.217369
f 1333/1/334 1334/2/334 1335/3/334 1336/4/334
v 3.431097 1.171860 -2.012385
v 3.451444 1.173249 -2.070887
v 3.447120 1.156250 -2.072330
v 3.426915 1.154864 -2.014230
vn -0.914219 0.258771 -0.311834
f 1337/1/335 1338/2/335 1339/3/335 1340/4/335
v 3.426915 1.154864 -2.014230
v 3.447120 1.156250 -2.072330
v 3.451548 1.139251 -2.071245
v 3.431341 1.137869 -2.013088
vn -0.910424 -0.258737 -0.322774
f 1341/1/336 1342/2/336 1343/3/336 1344/4/336
v 3.431341 1.137869 -2.013088
v 3.451548 1.139251 -2.071245
v 3.463541 1.126807 -2.067921
v 3.443188 1.125427 -2.009267
vn -0.662733 -0.706921 -0.247078
f 1345/1/337 1346/2/337 1347/3/337 1348/4/337
v 3.443188 1.125427 -2.009267
v 3.463541 1.126807 -2.067921
v 3.479887 1.122252 -2.063250
v 3.459281 1.120873 -2.003790
vn -0.237479 -0.965687 -0.105133
f 1349/1/338 1350/2/338 1351/3/338 1352/4/338
v 3.459281 1.120873 -2.003790
v 3.479887 1.122252 -2.063250
v 3.496205 1.126807 -2.058483
v 3.475310 1.125427 -1.998124
vn 0.251488 -0.965692 0.064750
f 1353/1/339 1354/2/339 1355/3/339 1356/4/339
v 3.475310 1.125427 -1.998124
v 3.496205 1.126807 -2.058483
v 3.508123 1.139251 -2.054897
v 3.486978 1.137869 -1.993788
vn 0.673206 -0.706932 0.216890
f 1357/1/340 1358/2/340 1359/3/340 1360/4/340
v 3.486978 1.137869 -1.993788
v 3.508123 1.139251 -2.054897
v 3.512447 1.156250 -2.053454
v 3.491160 1.154864 -1.991944
vn 0.914637 -0.258743 0.310631
f 1361/1/341 1362/2/341 1363/3/341 1364/4/341
v 3.512447 1.156250 -2.053454
v 3.527687 1.156250 -2.119065
v 3.523191 1.173250 -2.119795
v 3.508020 1.173249 -2.054539
vn 0.940826 0.259017 0.218531
f 1365/1/342 1366/2/342 1367/3/342 1368/4/342
v 3.508020 1.173249 -2.054539
v 3.523191 1.173250 -2.119795
v 3.510907 1.185695 -2.121788
v 3.496026 1.185693 -2.057863
vn 0.688996 0.706839 0.160198
f 1369/1/343 1370/2/343 1371/3/343 1372/4/343
v 3.496026 1.185693 -2.057863
v 3.510907 1.185695 -2.121788
v 3.494126 1.190250 -2.124510
v 3.479680 1.190248 -2.062534
vn 0.252347 0.965850 0.058770
f 1373/1/344 1374/2/344 1375/3/344 1376/4/344
v 3.479680 1.190248 -2.062534
v 3.494126 1.190250 -2.124510
v 3.477346 1.185695 -2.127232
v 3.463362 1.185693 -2.067301
vn -0.252415 0.965831 -0.058803
f 1377/1/345 1378/2/345 1379/3/345 1380/4/345
v 3.463362 1.185693 -2.067301
v 3.477346 1.185695 -2.127232
v 3.465061 1.173250 -2.129225
v 3.451444 1.173249 -2.070887
vn -0.689259 0.706446 -0.160799
f 1381/1/346 1382/2/346 1383/3/346 1384/4/346
v 3.451444 1.173249 -2.070887
v 3.465061 1.173250 -2.129225
v 3.460565 1.156250 -2.129955
v 3.447120 1.156250 -2.072330
vn -0.940858 0.257994 -0.219603
f 1385/1/347 1386/2/347 1387/3/347 1388/4/347
v 3.447120 1.156250 -2.072330
v 3.460565 1.156250 -2.129955
v 3.465061 1.139250 -2.129225
v 3.451548 1.139251 -2.071245
vn -0.940609 -0.259020 -0.219463
f 1389/1/348 1390/2/348 1391/3/348 1392/4/348
v 3.451548 1.139251 -2.071245
v 3.465061 1.139250 -2.129225
v 3.477346 1.126805 -2.127232
v 3.463541 1.126807 -2.067921
vn -0.688906 -0.706847 -0.160551
f 1393/1/349 1394/2/349 1395/3/349 1396/4/349
v 3.463541 1.126807 -2.067921
v 3.477346 1.126805 -2.127232
v 3.494126 1.122250 -2.124510
v 3.479887 1.122252 -2.063250
vn -0.252365 -0.965850 -0.058707
f 1397/1/350 1398/2/350 1399/3/350 1400/4/350
v 3.479887 1.122252 -2.063250
v 3.494126 1.122250 -2.124510
v 3.510907 1.126805 -2.121788
v 3.496205 1.126807 -2.058483
vn 0.252442 -0.965829 0.058709
f 1401/1/351 1402/2/351 1403/3/351 1404/4/351
v 3.496205 1.126807 -2.058483
v 3.510907 1.126805 -2.121788
v 3.523191 1.139250 -2.119795
v 3.508123 1.139251 -2.054897
vn 0.689437 -0.706424 0.160132
f 1405/1/352 1406/2/352 1407/3/352 1408/4/352
v 3.508123 1.139251 -2.054897
v 3.523191 1.139250 -2.119795
v 3.527687 1.156250 -2.119065
v 3.512447 1.156250 -2.053454
vn 0.941119 -0.257968 0.218514
f 1409/1/353 1410/2/353 1411/3/353 1412/4/353
v 3.527687 1.156250 -2.119065
v 3.533853 1.156250 -2.184343
v 3.529318 1.173250 -2.184766
v 3.523191 1.173250 -2.119795
vn 0.961789 0.258283 0.090845
f 1413/1/354 1414/2/354 1415/3/354 1416/4/354
v 3.523191 1.173250 -2.119795
v 3.529318 1.173250 -2.184766
v 3.516927 1.185695 -2.185922
v 3.510907 1.185695 -2.121788
vn 0.704770 0.706317 0.066458
f 1417/1/355 1418/2/355 1419/3/355 1420/4/355
v 3.510907 1.185695 -2.121788
v 3.516927 1.185695 -2.185922
v 3.500000 1.190250 -2.187500
v 3.494126 1.190250 -2.124510
vn 0.258231 0.965779 0.024238
f 1421/1/356 1422/2/356 1423/3/356 1424/4/356
v 3.494126 1.190250 -2.124510
v 3.500000 1.190250 -2.187500
v 3.483073 1.185695 -2.189078
v 3.477346 1.185695 -2.127232
vn -0.258255 0.965776 -0.024082
f 1425/1/357 1426/2/357 1427/3/357 1428/4/357
v 3.477346 1.185695 -2.127232
v 3.483073 1.185695 -2.189078
v 3.470682 1.173250 -2.190234
v 3.465061 1.173250 -2.129225
vn -0.704919 0.706277 -0.065286
f 1429/1/358 1430/2/358 1431/3/358 1432/4/358
v 3.465061 1.173250 -2.129225
v 3.470682 1.173250 -2.190234
v 3.466147 1.156250 -2.190657
v 3.460565 1.156250 -2.129955
vn -0.962005 0.258245 -0.088634
f 1433/1/359 1434/2/359 1435/3/359 1436/4/359
v 3.460565 1.156250 -2.129955
v 3.466147 1.156250 -2.190657
v 3.470682 1.139250 -2.190234
v 3.465061 1.139250 -2.129225
vn -0.962021 -0.258242 -0.088464
f 1437/1/360 1438/2/360 1439/3/360 1440/4/360
v 3.465061 1.139250 -2.129225
v 3.470682 1.139250 -2.190234
v 3.483073 1.126805 -2.189078
v 3.477346 1.126805 -2.127232
vn -0.704962 -0.706265 -0.064952
f 1441/1/361 1442/2/361 1443/3/361 1444/4/361
v 3.477346 1.126805 -2.127232
v 3.483073 1.126805 -2.189078
v 3.500000 1.122250 -2.187500
v 3.494126 1.122250 -2.124510
vn -0.258281 -0.965774 -0.023921
f 1445/1/362 1446/2/362 1447/3/362 1448/4/362
v 3.494126 1.122250 -2.124510
v 3.500000 1.122250 -2.187500
v 3.516927 1.126805 -2.185922
v 3.510907 1.126805 -2.121788
vn 0.258255 -0.965776 0.024082
f 1449/1/363 1450/2/363 1451/3/363 1452/4/363
v 3.510907 1.126805 -2.121788
v 3.516927 1.126805 -2.185922
v 3.529318 1.139250 -2.184766
v 3.523191 1.139250 -2.119795
vn 0.704808 -0.706306 0.066156
f 1453/1/364 1454/2/364 1455/3/364 1456/4/364
v 3.523191 1.139250 -2.119795
v 3.529318 1.139250 -2.184766
v 3.533853 1.156250 -2.184343
v 3.527687 1.156250 -2.119065
vn 0.961803 -0.258280 0.090696
f 1457/1/365 1458/2/365 1459/3/365 1460/4/365
v 3.533853 1.156250 -2.184343
v 3.500000 1.190250 -2.187500
v 3.516927 1.185695 -2.185922
v 3.529318 1.173250 -2.184766
vn 0.092848 0.000000 -0.995680
f 1461/1/366 1462/2/366 1463/3/366 1464/4/366
v 3.533853 1.156250 -2.184343
v 3.470682 1.173250 -2.190234
v 3.483073 1.185695 -2.189078
v 3.500000 1.190250 -2.187500
vn 0.092848 0.000000 -0.995680
f 1465/1/367 1466/2/367 1467/3/367 1468/4/367
v 3.533853 1.156250 -2.184343
v 3.470682 1.139250 -2.190234
v 3.466147 1.156250 -2.190657
v 3.470682 1.173250 -2.190234
vn 0.092848 0.000000 -0.995680
f 1469/1/368 1470/2/368 1471/3/368 1472/4/368
v 3.533853 1.156250 -2.184343
v 3.500000 1.122250 -2.187500
v 3.483073 1.126805 -2.189078
v 3.470682 1.139250 -2.190234
vn 0.092848 -0.000000 -0.995680
f 1473/1/369 1474/2/369 1475/3/369 1476/4/369
v 3.533853 1.156250 -2.184343
v 3.529318 1.139250 -2.184766
v 3.516927 1.126805 -2.185922
v 3.500000 1.122250 -2.187500
vn 0.092848 -0.000000 -0.995680
f 1477/1/370 1478/2/370 1479/3/370 1480/4/370
v 0.514762 0.125000 0.906312
v 1.224996 0.684084 0.263556
v 1.214858 0.697519 0.264041
v 0.504624 0.138435 0.906796
vn 0.476901 0.330507 0.814451
f 1481/1/371 1482/2/371 1483/3/371 1484/4/371
v 0.504624 0.138435 0.906796
v 1.214858 0.697519 0.264041
v 1.202012 0.703084 0.254686
v 0.491777 0.144000 0.897441
vn -0.088518 0.797915 0.596235
f 1485/1/372 1486/2/372 1487/3/372 1488/4/372
v 0.491777 0.144000 0.897441
v 1.202012 0.703084 0.254686
v 1.193982 0.697519 0.240972
v 0.483747 0.138435 0.883728
vn -0.602084 0.797915 0.028753
f 1489/1/373 1490/2/373 1491/3/373 1492/4/373
v 0.483747 0.138435 0.883728
v 1.193982 0.697519 0.240972
v 1.195472 0.684084 0.230933
v 0.485238 0.125000 0.873688
vn -0.762958 0.330507 -0.555572
f 1493/1/374 1494/2/374 1495/3/374 1496/4/374
v 0.485238 0.125000 0.873688
v 1.195472 0.684084 0.230933
v 1.205610 0.670649 0.230448
v 0.495376 0.111565 0.873204
vn -0.476901 -0.330507 -0.814451
f 1497/1/375 1498/2/375 1499/3/375 1500/4/375
v 0.495376 0.111565 0.873204
v 1.205610 0.670649 0.230448
v 1.218457 0.665084 0.239803
v 0.508223 0.106000 0.882559
vn 0.088518 -0.797915 -0.596235
f 1501/1/376 1502/2/376 1503/3/376 1504/4/376
v 0.508223 0.106000 0.882559
v 1.218457 0.665084 0.239803
v 1.226487 0.670649 0.253517
v 0.516253 0.111565 0.896272
vn 0.602084 -0.797915 -0.028753
f 1505/1/377 1506/2/377 1507/3/377 1508/4/377
v 0.516253 0.111565 0.896272
v 1.226487 0.670649 0.253517
v 1.224996 0.684084 0.263556
v 0.514762 0.125000 0.906312
vn 0.762958 -0.330507 0.555572
f 1509/1/378 1510/2/378 1511/3/378 1512/4/378
v 1.224996 0.684084 0.263556
v 1.193982 0.697519 0.240972
v 1.202012 0.703084 0.254686
v 1.214858 0.697519 0.264041
vn 0.640360 0.504080 -0.579520
f 1513/1/379 1514/2/379 1515/3/379 1516/4/379
v 1.224996 0.684084 0.263556
v 1.205610 0.670649 0.230448
v 1.195472 0.684084 0.230933
v 1.193982 0.697519 0.240972
vn 0.640360 0.504080 -0.579520
f 1517/1/380 1518/2/380 1519/3/380 1520/4/380
v 1.224996 0.684084 0.263556
v 1.226487 0.670649 0.253517
v 1.218457 0.665084 0.239803
v 1.205610 0.670649 0.230448
vn 0.640360 0.504080 -0.579520
f 1521/1/381 1522/2/381 1523/3/381 1524/4/381
