# Generated by scripts/gen_pole_light_mounts.py
mtllib pole_light_mount.mtl
o pole_light_mount_7_left_wired
vt 0 0
vt 1 0
vt 1 1
vt 0 1
usemtl clamp
v 0.312500 0.062500 1.000000
v 0.687500 0.062500 1.000000
v 0.687500 0.937500 1.000000
v 0.312500 0.937500 1.000000
vn 0.000000 0.000000 1.000000
f 1/1/1 2/2/1 3/3/1 4/4/1
v 0.687500 0.062500 0.900000
v 0.312500 0.062500 0.900000
v 0.312500 0.937500 0.900000
v 0.687500 0.937500 0.900000
vn 0.000000 0.000000 -1.000000
f 5/1/2 6/2/2 7/3/2 8/4/2
v 0.687500 0.062500 1.000000
v 0.687500 0.062500 0.900000
v 0.687500 0.937500 0.900000
v 0.687500 0.937500 1.000000
vn 1.000000 -0.000000 0.000000
f 9/1/3 10/2/3 11/3/3 12/4/3
v 0.312500 0.062500 0.900000
v 0.312500 0.062500 1.000000
v 0.312500 0.937500 1.000000
v 0.312500 0.937500 0.900000
vn -1.000000 0.000000 0.000000
f 13/1/4 14/2/4 15/3/4 16/4/4
v 0.312500 0.937500 1.000000
v 0.687500 0.937500 1.000000
v 0.687500 0.937500 0.900000
v 0.312500 0.937500 0.900000
vn -0.000000 1.000000 0.000000
f 17/1/5 18/2/5 19/3/5 20/4/5
v 0.312500 0.062500 0.900000
v 0.687500 0.062500 0.900000
v 0.687500 0.062500 1.000000
v 0.312500 0.062500 1.000000
vn 0.000000 -1.000000 0.000000
f 21/1/6 22/2/6 23/3/6 24/4/6
v 0.406250 0.312500 0.900000
v 0.593750 0.312500 0.900000
v 0.593750 0.531250 0.900000
v 0.406250 0.531250 0.900000
vn 0.000000 0.000000 1.000000
f 25/1/7 26/2/7 27/3/7 28/4/7
v 0.593750 0.312500 0.800000
v 0.406250 0.312500 0.800000
v 0.406250 0.531250 0.800000
v 0.593750 0.531250 0.800000
vn 0.000000 0.000000 -1.000000
f 29/1/8 30/2/8 31/3/8 32/4/8
v 0.593750 0.312500 0.900000
v 0.593750 0.312500 0.800000
v 0.593750 0.531250 0.800000
v 0.593750 0.531250 0.900000
vn 1.000000 -0.000000 0.000000
f 33/1/9 34/2/9 35/3/9 36/4/9
v 0.406250 0.312500 0.800000
v 0.406250 0.312500 0.900000
v 0.406250 0.531250 0.900000
v 0.406250 0.531250 0.800000
vn -1.000000 0.000000 0.000000
f 37/1/10 38/2/10 39/3/10 40/4/10
v 0.406250 0.531250 0.900000
v 0.593750 0.531250 0.900000
v 0.593750 0.531250 0.800000
v 0.406250 0.531250 0.800000
vn -0.000000 1.000000 0.000000
f 41/1/11 42/2/11 43/3/11 44/4/11
v 0.406250 0.312500 0.800000
v 0.593750 0.312500 0.800000
v 0.593750 0.312500 0.900000
v 0.406250 0.312500 0.900000
vn 0.000000 -1.000000 0.000000
f 45/1/12 46/2/12 47/3/12 48/4/12
v 0.468750 0.125000 0.900000
v 0.531250 0.125000 0.900000
v 0.531250 0.187500 0.900000
v 0.468750 0.187500 0.900000
vn 0.000000 0.000000 1.000000
f 49/1/13 50/2/13 51/3/13 52/4/13
v 0.531250 0.125000 0.880000
v 0.468750 0.125000 0.880000
v 0.468750 0.187500 0.880000
v 0.531250 0.187500 0.880000
vn 0.000000 0.000000 -1.000000
f 53/1/14 54/2/14 55/3/14 56/4/14
v 0.531250 0.125000 0.900000
v 0.531250 0.125000 0.880000
v 0.531250 0.187500 0.880000
v 0.531250 0.187500 0.900000
vn 1.000000 -0.000000 0.000000
f 57/1/15 58/2/15 59/3/15 60/4/15
v 0.468750 0.125000 0.880000
v 0.468750 0.125000 0.900000
v 0.468750 0.187500 0.900000
v 0.468750 0.187500 0.880000
vn -1.000000 0.000000 0.000000
f 61/1/16 62/2/16 63/3/16 64/4/16
v 0.468750 0.187500 0.900000
v 0.531250 0.187500 0.900000
v 0.531250 0.187500 0.880000
v 0.468750 0.187500 0.880000
vn -0.000000 1.000000 0.000000
f 65/1/17 66/2/17 67/3/17 68/4/17
v 0.468750 0.125000 0.880000
v 0.531250 0.125000 0.880000
v 0.531250 0.125000 0.900000
v 0.468750 0.125000 0.900000
vn 0.000000 -1.000000 0.000000
f 69/1/18 70/2/18 71/3/18 72/4/18
v 0.468750 0.812500 0.900000
v 0.531250 0.812500 0.900000
v 0.531250 0.875000 0.900000
v 0.468750 0.875000 0.900000
vn 0.000000 0.000000 1.000000
f 73/1/19 74/2/19 75/3/19 76/4/19
v 0.531250 0.812500 0.880000
v 0.468750 0.812500 0.880000
v 0.468750 0.875000 0.880000
v 0.531250 0.875000 0.880000
vn 0.000000 0.000000 -1.000000
f 77/1/20 78/2/20 79/3/20 80/4/20
v 0.531250 0.812500 0.900000
v 0.531250 0.812500 0.880000
v 0.531250 0.875000 0.880000
v 0.531250 0.875000 0.900000
vn 1.000000 -0.000000 0.000000
f 81/1/21 82/2/21 83/3/21 84/4/21
v 0.468750 0.812500 0.880000
v 0.468750 0.812500 0.900000
v 0.468750 0.875000 0.900000
v 0.468750 0.875000 0.880000
vn -1.000000 0.000000 0.000000
f 85/1/22 86/2/22 87/3/22 88/4/22
v 0.468750 0.875000 0.900000
v 0.531250 0.875000 0.900000
v 0.531250 0.875000 0.880000
v 0.468750 0.875000 0.880000
vn -0.000000 1.000000 0.000000
f 89/1/23 90/2/23 91/3/23 92/4/23
v 0.468750 0.812500 0.880000
v 0.531250 0.812500 0.880000
v 0.531250 0.812500 0.900000
v 0.468750 0.812500 0.900000
vn 0.000000 -1.000000 0.000000
f 93/1/24 94/2/24 95/3/24 96/4/24
usemtl metal
v 0.545000 0.410000 0.860000
v 0.541821 0.410000 0.783386
v 0.536218 0.432500 0.785612
v 0.538971 0.432500 0.860000
vn 0.965151 0.258611 -0.040049
f 97/1/25 98/2/25 99/3/25 100/4/25
v 0.538971 0.432500 0.860000
v 0.536218 0.432500 0.785612
v 0.520910 0.448971 0.791693
v 0.522500 0.448971 0.860000
vn 0.706865 0.706865 -0.026162
f 101/1/26 102/2/26 103/3/26 104/4/26
v 0.522500 0.448971 0.860000
v 0.520910 0.448971 0.791693
v 0.500000 0.455000 0.800000
v 0.500000 0.455000 0.860000
vn 0.258814 0.965908 -0.006023
f 105/1/27 106/2/27 107/3/27 108/4/27
v 0.500000 0.455000 0.860000
v 0.500000 0.455000 0.800000
v 0.479090 0.448971 0.808307
v 0.477500 0.448971 0.860000
vn -0.258819 0.965926 0.000000
f 109/1/28 110/2/28 111/3/28 112/4/28
v 0.477500 0.448971 0.860000
v 0.479090 0.448971 0.808307
v 0.463782 0.432500 0.814388
v 0.461029 0.432500 0.860000
vn -0.706940 0.706940 -0.021738
f 113/1/29 114/2/29 115/3/29 116/4/29
v 0.461029 0.432500 0.860000
v 0.463782 0.432500 0.814388
v 0.458179 0.410000 0.816614
v 0.455000 0.410000 0.860000
vn -0.964288 0.258380 -0.058205
f 117/1/30 118/2/30 119/3/30 120/4/30
v 0.455000 0.410000 0.860000
v 0.458179 0.410000 0.816614
v 0.463782 0.387500 0.814388
v 0.461029 0.387500 0.860000
vn -0.963515 -0.258173 -0.070601
f 121/1/31 122/2/31 123/3/31 124/4/31
v 0.461029 0.387500 0.860000
v 0.463782 0.387500 0.814388
v 0.479090 0.371029 0.808307
v 0.477500 0.371029 0.860000
vn -0.706464 -0.706464 -0.042643
f 125/1/32 126/2/32 127/3/32 128/4/32
v 0.477500 0.371029 0.860000
v 0.479090 0.371029 0.808307
v 0.500000 0.365000 0.800000
v 0.500000 0.365000 0.860000
vn -0.258811 -0.965895 -0.007958
f 129/1/33 130/2/33 131/3/33 132/4/33
v 0.500000 0.365000 0.860000
v 0.500000 0.365000 0.800000
v 0.520910 0.371029 0.791693
v 0.522500 0.371029 0.860000
vn 0.258819 -0.965926 0.000000
f 133/1/34 134/2/34 135/3/34 136/4/34
v 0.522500 0.371029 0.860000
v 0.520910 0.371029 0.791693
v 0.536218 0.387500 0.785612
v 0.538971 0.387500 0.860000
vn 0.707011 -0.707011 -0.016453
f 137/1/35 138/2/35 139/3/35 140/4/35
v 0.538971 0.387500 0.860000
v 0.536218 0.387500 0.785612
v 0.541821 0.410000 0.783386
v 0.545000 0.410000 0.860000
vn 0.965309 -0.258654 -0.035727
f 141/1/36 142/2/36 143/3/36 144/4/36
v 0.541821 0.410000 0.783386
v 0.450386 0.410000 0.681833
v 0.446781 0.432471 0.686796
v 0.536218 0.432500 0.785612
vn 0.720759 0.243680 -0.648942
f 145/1/37 146/2/37 147/3/37 148/4/37
v 0.536218 0.432500 0.785612
v 0.446781 0.432471 0.686796
v 0.435370 0.448921 0.698704
v 0.520910 0.448971 0.791693
vn 0.541003 0.683634 -0.489857
f 149/1/38 150/2/38 151/3/38 152/4/38
v 0.520910 0.448971 0.791693
v 0.435370 0.448921 0.698704
v 0.419213 0.454943 0.714366
v 0.500000 0.455000 0.800000
vn 0.202809 0.961182 -0.187077
f 153/1/39 154/2/39 155/3/39 156/4/39
v 0.500000 0.455000 0.800000
v 0.419213 0.454943 0.714366
v 0.402638 0.448921 0.729584
v 0.479090 0.448971 0.808307
vn -0.201709 0.960910 0.189647
f 157/1/40 158/2/40 159/3/40 160/4/40
v 0.479090 0.448971 0.808307
v 0.402638 0.448921 0.729584
v 0.390086 0.432471 0.740282
v 0.463782 0.432500 0.814388
vn -0.527085 0.678673 0.511453
f 161/1/41 162/2/41 163/3/41 164/4/41
v 0.463782 0.432500 0.814388
v 0.390086 0.432471 0.740282
v 0.384921 0.410000 0.743593
v 0.458179 0.410000 0.816614
vn -0.688529 0.239184 0.684630
f 165/1/42 166/2/42 167/3/42 168/4/42
v 0.458179 0.410000 0.816614
v 0.384921 0.410000 0.743593
v 0.388527 0.387529 0.738629
v 0.463782 0.387500 0.814388
vn -0.685543 -0.238751 0.687771
f 169/1/43 170/2/43 171/3/43 172/4/43
v 0.463782 0.387500 0.814388
v 0.388527 0.387529 0.738629
v 0.399937 0.371079 0.726721
v 0.479090 0.371029 0.808307
vn -0.522339 -0.676906 0.518613
f 173/1/44 174/2/44 175/3/44 176/4/44
v 0.479090 0.371029 0.808307
v 0.399937 0.371079 0.726721
v 0.416094 0.365057 0.711060
v 0.500000 0.365000 0.800000
vn -0.200055 -0.960487 0.193504
f 177/1/45 178/2/45 179/3/45 180/4/45
v 0.500000 0.365000 0.800000
v 0.416094 0.365057 0.711060
v 0.432669 0.371079 0.695841
v 0.520910 0.371029 0.791693
vn 0.201323 -0.960812 -0.190548
f 181/1/46 182/2/46 183/3/46 184/4/46
v 0.520910 0.371029 0.791693
v 0.432669 0.371079 0.695841
v 0.445221 0.387529 0.685144
v 0.536218 0.387500 0.785612
vn 0.537582 -0.682446 -0.495251
f 185/1/47 186/2/47 187/3/47 188/4/47
v 0.536218 0.387500 0.785612
v 0.445221 0.387529 0.685144
v 0.450386 0.410000 0.681833
v 0.541821 0.410000 0.783386
vn 0.718852 -0.243423 -0.651150
f 189/1/48 190/2/48 191/3/48 192/4/48
v 0.450386 0.410000 0.681833
v 0.402351 0.417097 0.630915
v 0.400936 0.439176 0.638201
v 0.446781 0.432471 0.686796
vn 0.720484 0.257806 -0.643769
f 193/1/49 194/2/49 195/3/49 196/4/49
v 0.446781 0.432471 0.686796
v 0.400936 0.439176 0.638201
v 0.391129 0.455340 0.651809
v 0.435370 0.448921 0.698704
vn 0.562516 0.704003 -0.433537
f 197/1/50 198/2/50 199/3/50 200/4/50
v 0.435370 0.448921 0.698704
v 0.391129 0.455340 0.651809
v 0.375559 0.461256 0.668093
v 0.419213 0.454943 0.714366
vn 0.253726 0.961250 -0.107799
f 201/1/51 202/2/51 203/3/51 204/4/51
v 0.419213 0.454943 0.714366
v 0.375559 0.461256 0.668093
v 0.358397 0.455340 0.682689
v 0.402638 0.448921 0.729584
vn -0.122590 0.961279 0.246809
f 205/1/52 206/2/52 207/3/52 208/4/52
v 0.402638 0.448921 0.729584
v 0.358397 0.455340 0.682689
v 0.344241 0.439176 0.691687
v 0.390086 0.432471 0.740282
vn -0.465940 0.704046 0.535928
f 209/1/53 210/2/53 211/3/53 212/4/53
v 0.390086 0.432471 0.740282
v 0.344241 0.439176 0.691687
v 0.336885 0.417097 0.692675
v 0.384921 0.410000 0.743593
vn -0.684794 0.257820 0.681606
f 213/1/54 214/2/54 215/3/54 216/4/54
v 0.384921 0.410000 0.743593
v 0.336885 0.417097 0.692675
v 0.338300 0.395017 0.685389
v 0.388527 0.387529 0.738629
vn -0.720484 -0.257806 0.643769
f 217/1/55 218/2/55 219/3/55 220/4/55
v 0.388527 0.387529 0.738629
v 0.338300 0.395017 0.685389
v 0.348107 0.378854 0.671782
v 0.399937 0.371079 0.726721
vn -0.563424 -0.703900 0.432525
f 221/1/56 222/2/56 223/3/56 224/4/56
v 0.399937 0.371079 0.726721
v 0.348107 0.378854 0.671782
v 0.363677 0.372937 0.655498
v 0.416094 0.365057 0.711060
vn -0.255906 -0.960935 0.105429
f 225/1/57 226/2/57 227/3/57 228/4/57
v 0.416094 0.365057 0.711060
v 0.363677 0.372937 0.655498
v 0.380840 0.378854 0.640902
v 0.432669 0.371079 0.695841
vn 0.119998 -0.960914 -0.249487
f 229/1/58 230/2/58 231/3/58 232/4/58
v 0.432669 0.371079 0.695841
v 0.380840 0.378854 0.640902
v 0.394995 0.395017 0.631904
v 0.445221 0.387529 0.685144
vn 0.464275 -0.703866 -0.537607
f 233/1/59 234/2/59 235/3/59 236/4/59
v 0.445221 0.387529 0.685144
v 0.394995 0.395017 0.631904
v 0.402351 0.417097 0.630915
v 0.450386 0.410000 0.681833
vn 0.684447 -0.257793 -0.681964
f 237/1/60 238/2/60 239/3/60 240/4/60
v 0.402351 0.417097 0.630915
v 0.354315 0.437693 0.579998
v 0.355339 0.458767 0.589869
v 0.400936 0.439176 0.638201
vn 0.752738 0.249290 -0.609294
f 241/1/61 242/2/61 243/3/61 244/4/61
v 0.400936 0.439176 0.638201
v 0.355339 0.458767 0.589869
v 0.347318 0.474194 0.605369
v 0.391129 0.455340 0.651809
vn 0.650744 0.679714 -0.338409
f 245/1/62 246/2/62 247/3/62 248/4/62
v 0.391129 0.455340 0.651809
v 0.347318 0.474194 0.605369
v 0.332401 0.479841 0.622345
v 0.375559 0.461256 0.668093
vn 0.375278 0.926647 0.022168
f 249/1/63 250/2/63 251/3/63 252/4/63
v 0.375559 0.461256 0.668093
v 0.332401 0.479841 0.622345
v 0.314585 0.474194 0.636249
v 0.358397 0.455340 0.682689
vn 0.000400 0.926601 0.376045
f 253/1/64 254/2/64 255/3/64 256/4/64
v 0.358397 0.455340 0.682689
v 0.314585 0.474194 0.636249
v 0.298644 0.458767 0.643354
v 0.344241 0.439176 0.691687
vn -0.375489 0.679639 0.630158
f 257/1/65 258/2/65 259/3/65 260/4/65
v 0.344241 0.439176 0.691687
v 0.298644 0.458767 0.643354
v 0.288850 0.437693 0.641758
v 0.336885 0.417097 0.692675
vn -0.651974 0.249262 0.716100
f 261/1/66 262/2/66 263/3/66 264/4/66
v 0.336885 0.417097 0.692675
v 0.288850 0.437693 0.641758
v 0.287826 0.416618 0.631887
v 0.338300 0.395017 0.685389
vn -0.752738 -0.249290 0.609294
f 265/1/67 266/2/67 267/3/67 268/4/67
v 0.338300 0.395017 0.685389
v 0.287826 0.416618 0.631887
v 0.295847 0.401191 0.616387
v 0.348107 0.378854 0.671782
vn -0.650271 -0.679892 0.338961
f 269/1/68 270/2/68 271/3/68 272/4/68
v 0.348107 0.378854 0.671782
v 0.295847 0.401191 0.616387
v 0.310764 0.395544 0.599410
v 0.363677 0.372937 0.655498
vn -0.374138 -0.927138 -0.020900
f 273/1/69 274/2/69 275/3/69 276/4/69
v 0.363677 0.372937 0.655498
v 0.310764 0.395544 0.599410
v 0.328580 0.401191 0.585507
v 0.380840 0.378854 0.640902
vn 0.000988 -0.927169 -0.374642
f 277/1/70 278/2/70 279/3/70 280/4/70
v 0.380840 0.378854 0.640902
v 0.328580 0.401191 0.585507
v 0.344521 0.416618 0.578401
v 0.394995 0.395017 0.631904
vn 0.376401 -0.679949 -0.629279
f 281/1/71 282/2/71 283/3/71 284/4/71
v 0.394995 0.395017 0.631904
v 0.344521 0.416618 0.578401
v 0.354315 0.437693 0.579998
v 0.402351 0.417097 0.630915
vn 0.652163 -0.249316 -0.715908
f 285/1/72 286/2/72 287/3/72 288/4/72
v 0.354315 0.437693 0.579998
v 0.306280 0.469771 0.529080
v 0.308979 0.489763 0.540727
v 0.355339 0.458767 0.589869
vn 0.776657 0.235856 -0.584103
f 289/1/73 290/2/73 291/3/73 292/4/73
v 0.355339 0.458767 0.589869
v 0.308979 0.489763 0.540727
v 0.302184 0.504398 0.557527
v 0.347318 0.474194 0.605369
vn 0.716283 0.643529 -0.269831
f 293/1/74 294/2/74 295/3/74 296/4/74
v 0.347318 0.474194 0.605369
v 0.302184 0.504398 0.557527
v 0.287716 0.509754 0.574979
v 0.332401 0.479841 0.622345
vn 0.464468 0.877947 0.116096
f 297/1/75 298/2/75 299/3/75 300/4/75
v 0.332401 0.479841 0.622345
v 0.287716 0.509754 0.574979
v 0.269452 0.504398 0.588407
v 0.314585 0.474194 0.636249
vn 0.088947 0.877895 0.470520
f 301/1/76 302/2/76 303/3/76 304/4/76
v 0.314585 0.474194 0.636249
v 0.269452 0.504398 0.588407
v 0.252284 0.489763 0.594212
v 0.298644 0.458767 0.643354
vn -0.310901 0.643435 0.699522
f 305/1/77 306/2/77 307/3/77 308/4/77
v 0.298644 0.458767 0.643354
v 0.252284 0.489763 0.594212
v 0.240815 0.469771 0.590840
v 0.288850 0.437693 0.641758
vn -0.628241 0.235815 0.741421
f 309/1/78 310/2/78 311/3/78 312/4/78
v 0.288850 0.437693 0.641758
v 0.240815 0.469771 0.590840
v 0.238115 0.449779 0.579193
v 0.287826 0.416618 0.631887
vn -0.776657 -0.235856 0.584103
f 313/1/79 314/2/79 315/3/79 316/4/79
v 0.287826 0.416618 0.631887
v 0.238115 0.449779 0.579193
v 0.244910 0.435145 0.562393
v 0.295847 0.401191 0.616387
vn -0.715912 -0.643763 0.270256
f 317/1/80 318/2/80 319/3/80 320/4/80
v 0.295847 0.401191 0.616387
v 0.244910 0.435145 0.562393
v 0.259378 0.429788 0.544941
v 0.310764 0.395544 0.599410
vn -0.463584 -0.878543 -0.115122
f 321/1/81 322/2/81 323/3/81 324/4/81
v 0.310764 0.395544 0.599410
v 0.259378 0.429788 0.544941
v 0.277643 0.435145 0.531513
v 0.328580 0.401191 0.585507
vn -0.087882 -0.878583 -0.469435
f 325/1/82 326/2/82 327/3/82 328/4/82
v 0.328580 0.401191 0.585507
v 0.277643 0.435145 0.531513
v 0.294810 0.449779 0.525708
v 0.344521 0.416618 0.578401
vn 0.311600 -0.643841 -0.698837
f 329/1/83 330/2/83 331/3/83 332/4/83
v 0.344521 0.416618 0.578401
v 0.294810 0.449779 0.525708
v 0.306280 0.469771 0.529080
v 0.354315 0.437693 0.579998
vn 0.628388 -0.235894 -0.741271
f 333/1/84 334/2/84 335/3/84 336/4/84
v 0.306280 0.469771 0.529080
v 0.258245 0.510193 0.478163
v 0.261884 0.529415 0.490806
v 0.308979 0.489763 0.540727
vn 0.791463 0.224365 -0.568548
f 337/1/85 338/2/85 339/3/85 340/4/85
v 0.308979 0.489763 0.540727
v 0.261884 0.529415 0.490806
v 0.255777 0.543487 0.508335
v 0.302184 0.504398 0.557527
vn 0.756940 0.612603 -0.227505
f 341/1/86 342/2/86 343/3/86 344/4/86
v 0.302184 0.504398 0.557527
v 0.255777 0.543487 0.508335
v 0.241561 0.548638 0.526055
v 0.287716 0.509754 0.574979
vn 0.519793 0.836341 0.174210
f 345/1/87 346/2/87 347/3/87 348/4/87
v 0.287716 0.509754 0.574979
v 0.241561 0.548638 0.526055
v 0.223044 0.543487 0.539215
v 0.269452 0.504398 0.588407
vn 0.143701 0.836308 0.529093
f 349/1/88 350/2/88 351/3/88 352/4/88
v 0.269452 0.504398 0.588407
v 0.223044 0.543487 0.539215
v 0.205189 0.529415 0.544291
v 0.252284 0.489763 0.594212
vn -0.271096 0.612542 0.742495
f 353/1/89 354/2/89 355/3/89 356/4/89
v 0.252284 0.489763 0.594212
v 0.205189 0.529415 0.544291
v 0.192779 0.510193 0.539922
v 0.240815 0.469771 0.590840
vn -0.613612 0.224337 0.757069
f 357/1/90 358/2/90 359/3/90 360/4/90
v 0.240815 0.469771 0.590840
v 0.192779 0.510193 0.539922
v 0.189140 0.490970 0.527279
v 0.238115 0.449779 0.579193
vn -0.791463 -0.224365 0.568548
f 361/1/91 362/2/91 363/3/91 364/4/91
v 0.238115 0.449779 0.579193
v 0.189140 0.490970 0.527279
v 0.195247 0.476898 0.509750
v 0.244910 0.435145 0.562393
vn -0.756746 -0.612762 0.227722
f 365/1/92 366/2/92 367/3/92 368/4/92
v 0.244910 0.435145 0.562393
v 0.195247 0.476898 0.509750
v 0.209463 0.471748 0.492030
v 0.259378 0.429788 0.544941
vn -0.519333 -0.836731 -0.173708
f 369/1/93 370/2/93 371/3/93 372/4/93
v 0.259378 0.429788 0.544941
v 0.209463 0.471748 0.492030
v 0.227979 0.476898 0.478870
v 0.277643 0.435145 0.531513
vn -0.143153 -0.836759 -0.528527
f 373/1/94 374/2/94 375/3/94 376/4/94
v 0.277643 0.435145 0.531513
v 0.227979 0.476898 0.478870
v 0.245835 0.490970 0.473794
v 0.294810 0.449779 0.525708
vn 0.271453 -0.612818 -0.742137
f 377/1/95 378/2/95 379/3/95 380/4/95
v 0.294810 0.449779 0.525708
v 0.245835 0.490970 0.473794
v 0.258245 0.510193 0.478163
v 0.306280 0.469771 0.529080
vn 0.613687 -0.224393 -0.756992
f 381/1/96 382/2/96 383/3/96 384/4/96
v 0.258245 0.510193 0.478163
v 0.210209 0.555000 0.427245
v 0.214148 0.573950 0.440206
v 0.261884 0.529415 0.490806
vn 0.798370 0.218038 -0.561306
f 385/1/97 386/2/97 387/3/97 388/4/97
v 0.261884 0.529415 0.490806
v 0.214148 0.573950 0.440206
v 0.208260 0.587823 0.457968
v 0.255777 0.543487 0.508335
vn 0.775937 0.595598 -0.207808
f 389/1/98 390/2/98 391/3/98 392/4/98
v 0.255777 0.543487 0.508335
v 0.208260 0.587823 0.457968
v 0.194124 0.592900 0.475772
v 0.241561 0.548638 0.526055
vn 0.545640 0.813482 0.201305
f 393/1/99 394/2/99 395/3/99 396/4/99
v 0.241561 0.548638 0.526055
v 0.194124 0.592900 0.475772
v 0.175528 0.587823 0.488847
v 0.223044 0.543487 0.539215
vn 0.169217 0.813472 0.556443
f 397/1/100 398/2/100 399/3/100 400/4/100
v 0.223044 0.543487 0.539215
v 0.175528 0.587823 0.488847
v 0.157453 0.573950 0.493691
v 0.205189 0.529415 0.544291
vn -0.252595 0.595578 0.762550
f 401/1/101 402/2/101 403/3/101 404/4/101
v 0.205189 0.529415 0.544291
v 0.157453 0.573950 0.493691
v 0.144744 0.555000 0.489005
v 0.192779 0.510193 0.539922
vn -0.606811 0.218029 0.764359
f 405/1/102 406/2/102 407/3/102 408/4/102
v 0.192779 0.510193 0.539922
v 0.144744 0.555000 0.489005
v 0.140805 0.536050 0.476044
v 0.189140 0.490970 0.527279
vn -0.798370 -0.218038 0.561306
f 409/1/103 410/2/103 411/3/103 412/4/103
v 0.189140 0.490970 0.527279
v 0.140805 0.536050 0.476044
v 0.146693 0.522177 0.458282
v 0.195247 0.476898 0.509750
vn -0.775880 -0.595651 0.207870
f 413/1/104 414/2/104 415/3/104 416/4/104
v 0.195247 0.476898 0.509750
v 0.146693 0.522177 0.458282
v 0.160828 0.517100 0.440478
v 0.209463 0.471748 0.492030
vn -0.545504 -0.813610 -0.201159
f 417/1/105 418/2/105 419/3/105 420/4/105
v 0.209463 0.471748 0.492030
v 0.160828 0.517100 0.440478
v 0.179425 0.522177 0.427402
v 0.227979 0.476898 0.478870
vn -0.169058 -0.813619 -0.556276
f 421/1/106 422/2/106 423/3/106 424/4/106
v 0.227979 0.476898 0.478870
v 0.179425 0.522177 0.427402
v 0.197500 0.536050 0.422559
v 0.245835 0.490970 0.473794
vn 0.252698 -0.595670 -0.762444
f 425/1/107 426/2/107 427/3/107 428/4/107
v 0.245835 0.490970 0.473794
v 0.197500 0.536050 0.422559
v 0.210209 0.555000 0.427245
v 0.258245 0.510193 0.478163
vn 0.606832 -0.218048 -0.764336
f 429/1/108 430/2/108 431/3/108 432/4/108
v 0.210209 0.555000 0.427245
v 0.162174 0.599807 0.376328
v 0.165813 0.619030 0.388971
v 0.214148 0.573950 0.440206
vn 0.798359 0.217985 -0.561342
f 433/1/109 434/2/109 435/3/109 436/4/109
v 0.214148 0.573950 0.440206
v 0.165813 0.619030 0.388971
v 0.159706 0.633102 0.406500
v 0.208260 0.587823 0.457968
vn 0.775913 0.595574 -0.207969
f 437/1/110 438/2/110 439/3/110 440/4/110
v 0.208260 0.587823 0.457968
v 0.159706 0.633102 0.406500
v 0.145490 0.638252 0.424219
v 0.194124 0.592900 0.475772
vn 0.545543 0.813595 0.201110
f 441/1/111 442/2/111 443/3/111 444/4/111
v 0.194124 0.592900 0.475772
v 0.145490 0.638252 0.424219
v 0.126974 0.633102 0.437380
v 0.175528 0.587823 0.488847
vn 0.169006 0.813605 0.556313
f 445/1/112 446/2/112 447/3/112 448/4/112
v 0.175528 0.587823 0.488847
v 0.126974 0.633102 0.437380
v 0.109118 0.619030 0.442456
v 0.157453 0.573950 0.493691
vn -0.252798 0.595593 0.762471
f 449/1/113 450/2/113 451/3/113 452/4/113
v 0.157453 0.573950 0.493691
v 0.109118 0.619030 0.442456
v 0.096708 0.599807 0.438087
v 0.144744 0.555000 0.489005
vn -0.606868 0.217995 0.764323
f 453/1/114 454/2/114 455/3/114 456/4/114
v 0.144744 0.555000 0.489005
v 0.096708 0.599807 0.438087
v 0.093069 0.580585 0.425444
v 0.140805 0.536050 0.476044
vn -0.798359 -0.217985 0.561342
f 457/1/115 458/2/115 459/3/115 460/4/115
v 0.140805 0.536050 0.476044
v 0.093069 0.580585 0.425444
v 0.099176 0.566513 0.407915
v 0.146693 0.522177 0.458282
vn -0.775971 -0.595520 0.207908
f 461/1/116 462/2/116 463/3/116 464/4/116
v 0.146693 0.522177 0.458282
v 0.099176 0.566513 0.407915
v 0.113392 0.561362 0.390195
v 0.160828 0.517100 0.440478
vn -0.545680 -0.813468 -0.201255
f 465/1/117 466/2/117 467/3/117 468/4/117
v 0.160828 0.517100 0.440478
v 0.113392 0.561362 0.390195
v 0.131908 0.566513 0.377035
v 0.179425 0.522177 0.427402
vn -0.169164 -0.813458 -0.556480
f 469/1/118 470/2/118 471/3/118 472/4/118
v 0.179425 0.522177 0.427402
v 0.131908 0.566513 0.377035
v 0.149764 0.580585 0.371959
v 0.197500 0.536050 0.422559
vn 0.252698 -0.595500 -0.762577
f 473/1/119 474/2/119 475/3/119 476/4/119
v 0.197500 0.536050 0.422559
v 0.149764 0.580585 0.371959
v 0.162174 0.599807 0.376328
v 0.210209 0.555000 0.427245
vn 0.606847 -0.217975 -0.764345
f 477/1/120 478/2/120 479/3/120 480/4/120
v 0.162174 0.599807 0.376328
v 0.114138 0.640229 0.325410
v 0.116837 0.660221 0.337057
v 0.165813 0.619030 0.388971
vn 0.791432 0.224189 -0.568660
f 481/1/121 482/2/121 483/3/121 484/4/121
v 0.165813 0.619030 0.388971
v 0.116837 0.660221 0.337057
v 0.110043 0.674855 0.353857
v 0.159706 0.633102 0.406500
vn 0.756859 0.612509 -0.228029
f 485/1/122 486/2/122 487/3/122 488/4/122
v 0.159706 0.633102 0.406500
v 0.110043 0.674855 0.353857
v 0.095574 0.680212 0.371309
v 0.145490 0.638252 0.424219
vn 0.519458 0.836686 0.173554
f 489/1/123 490/2/123 491/3/123 492/4/123
v 0.145490 0.638252 0.424219
v 0.095574 0.680212 0.371309
v 0.077310 0.674855 0.384737
v 0.126974 0.633102 0.437380
vn 0.142993 0.836714 0.528643
f 493/1/124 494/2/124 495/3/124 496/4/124
v 0.126974 0.633102 0.437380
v 0.077310 0.674855 0.384737
v 0.060143 0.660221 0.390542
v 0.109118 0.619030 0.442456
vn -0.271761 0.612568 0.742231
f 497/1/125 498/2/125 499/3/125 500/4/125
v 0.109118 0.619030 0.442456
v 0.060143 0.660221 0.390542
v 0.048673 0.640229 0.387170
v 0.096708 0.599807 0.438087
vn -0.613794 0.224220 0.756956
f 501/1/126 502/2/126 503/3/126 504/4/126
v 0.096708 0.599807 0.438087
v 0.048673 0.640229 0.387170
v 0.045974 0.620237 0.375523
v 0.093069 0.580585 0.425444
vn -0.791432 -0.224189 0.568660
f 505/1/127 506/2/127 507/3/127 508/4/127
v 0.093069 0.580585 0.425444
v 0.045974 0.620237 0.375523
v 0.052769 0.605602 0.358723
v 0.099176 0.566513 0.407915
vn -0.757057 -0.612340 0.227824
f 509/1/128 510/2/128 511/3/128 512/4/128
v 0.099176 0.566513 0.407915
v 0.052769 0.605602 0.358723
v 0.067237 0.600246 0.341271
v 0.113392 0.561362 0.390195
vn -0.519927 -0.836292 -0.174045
f 513/1/129 514/2/129 515/3/129 516/4/129
v 0.113392 0.561362 0.390195
v 0.067237 0.600246 0.341271
v 0.085501 0.605602 0.327843
v 0.131908 0.566513 0.377035
vn -0.143527 -0.836259 -0.529217
f 517/1/130 518/2/130 519/3/130 520/4/130
v 0.131908 0.566513 0.377035
v 0.085501 0.605602 0.327843
v 0.102668 0.620237 0.322038
v 0.149764 0.580585 0.371959
vn 0.271427 -0.612275 -0.742595
f 521/1/131 522/2/131 523/3/131 524/4/131
v 0.149764 0.580585 0.371959
v 0.102668 0.620237 0.322038
v 0.114138 0.640229 0.325410
v 0.162174 0.599807 0.376328
vn 0.613723 -0.224157 -0.757032
f 525/1/132 526/2/132 527/3/132 528/4/132
v 0.114138 0.640229 0.325410
v 0.066103 0.672307 0.274492
v 0.067127 0.693382 0.284363
v 0.116837 0.660221 0.337057
vn 0.776624 0.235532 -0.584277
f 529/1/133 530/2/133 531/3/133 532/4/133
v 0.116837 0.660221 0.337057
v 0.067127 0.693382 0.284363
v 0.059105 0.708809 0.299863
v 0.110043 0.674855 0.353857
vn 0.716135 0.643306 -0.270754
f 533/1/134 534/2/134 535/3/134 536/4/134
v 0.110043 0.674855 0.353857
v 0.059105 0.708809 0.299863
v 0.044188 0.714456 0.316840
v 0.095574 0.680212 0.371309
vn 0.463802 0.878461 0.114864
f 537/1/135 538/2/135 539/3/135 540/4/135
v 0.095574 0.680212 0.371309
v 0.044188 0.714456 0.316840
v 0.026373 0.708809 0.330743
v 0.077310 0.674855 0.384737
vn 0.087615 0.878502 0.469636
f 541/1/136 542/2/136 543/3/136 544/4/136
v 0.077310 0.674855 0.384737
v 0.026373 0.708809 0.330743
v 0.010432 0.693382 0.337849
v 0.060143 0.660221 0.390542
vn -0.312098 0.643395 0.699026
f 545/1/137 546/2/137 547/3/137 548/4/137
v 0.060143 0.660221 0.390542
v 0.010432 0.693382 0.337849
v 0.000637 0.672307 0.336252
v 0.048673 0.640229 0.387170
vn -0.628553 0.235581 0.741230
f 549/1/138 550/2/138 551/3/138 552/4/138
v 0.048673 0.640229 0.387170
v 0.000637 0.672307 0.336252
v -0.000386 0.651233 0.326381
v 0.045974 0.620237 0.375523
vn -0.776624 -0.235532 0.584277
f 553/1/139 554/2/139 555/3/139 556/4/139
v 0.045974 0.620237 0.375523
v -0.000386 0.651233 0.326381
v 0.007635 0.635806 0.310881
v 0.052769 0.605602 0.358723
vn -0.716522 -0.643039 0.270366
f 557/1/140 558/2/140 559/3/140 560/4/140
v 0.052769 0.605602 0.358723
v 0.007635 0.635806 0.310881
v 0.022552 0.630159 0.293905
v 0.067237 0.600246 0.341271
vn -0.464714 -0.877855 -0.115806
f 561/1/141 562/2/141 563/3/141 564/4/141
v 0.067237 0.600246 0.341271
v 0.022552 0.630159 0.293905
v 0.040368 0.635806 0.280001
v 0.085501 0.605602 0.327843
vn -0.088640 -0.877802 -0.470751
f 565/1/142 566/2/142 567/3/142 568/4/142
v 0.085501 0.605602 0.327843
v 0.040368 0.635806 0.280001
v 0.056308 0.651233 0.272896
v 0.102668 0.620237 0.322038
vn 0.311464 -0.642932 -0.699735
f 569/1/143 570/2/143 571/3/143 572/4/143
v 0.102668 0.620237 0.322038
v 0.056308 0.651233 0.272896
v 0.066103 0.672307 0.274492
v 0.114138 0.640229 0.325410
vn 0.628419 -0.235479 -0.741377
f 573/1/144 574/2/144 575/3/144 576/4/144
v 0.066103 0.672307 0.274492
v 0.018067 0.692903 0.223575
v 0.016652 0.714983 0.230861
v 0.067127 0.693382 0.284363
vn 0.752739 0.248893 -0.609456
f 577/1/145 578/2/145 579/3/145 580/4/145
v 0.067127 0.693382 0.284363
v 0.016652 0.714983 0.230861
v 0.006846 0.731146 0.244468
v 0.059105 0.708809 0.299863
vn 0.650580 0.679340 -0.339475
f 581/1/146 582/2/146 583/3/146 584/4/146
v 0.059105 0.708809 0.299863
v 0.006846 0.731146 0.244468
v -0.008724 0.737063 0.260752
v 0.044188 0.714456 0.316840
vn 0.374394 0.927040 0.020619
f 585/1/147 586/2/147 587/3/147 588/4/147
v 0.044188 0.714456 0.316840
v -0.008724 0.737063 0.260752
v -0.025887 0.731146 0.275348
v 0.026373 0.708809 0.330743
vn -0.001280 0.927073 0.374879
f 589/1/148 590/2/148 591/3/148 592/4/148
v 0.026373 0.708809 0.330743
v -0.025887 0.731146 0.275348
v -0.040042 0.714983 0.284346
v 0.010432 0.693382 0.337849
vn -0.376914 0.679416 0.629548
f 593/1/149 594/2/149 595/3/149 596/4/149
v 0.010432 0.693382 0.337849
v -0.040042 0.714983 0.284346
v -0.047398 0.692903 0.285335
v 0.000637 0.672307 0.336252
vn -0.652317 0.248938 0.715900
f 597/1/150 598/2/150 599/3/150 600/4/150
v 0.000637 0.672307 0.336252
v -0.047398 0.692903 0.285335
v -0.045983 0.670824 0.278049
v -0.000386 0.651233 0.326381
vn -0.752739 -0.248893 0.609456
f 601/1/151 602/2/151 603/3/151 604/4/151
v -0.000386 0.651233 0.326381
v -0.045983 0.670824 0.278049
v -0.036177 0.654660 0.264441
v 0.007635 0.635806 0.310881
vn -0.651085 -0.679104 0.338978
f 605/1/152 606/2/152 607/3/152 608/4/152
v 0.007635 0.635806 0.310881
v -0.036177 0.654660 0.264441
v -0.020606 0.648744 0.248157
v 0.022552 0.630159 0.293905
vn -0.375583 -0.926532 -0.021833
f 609/1/153 610/2/153 611/3/153 612/4/153
v 0.022552 0.630159 0.293905
v -0.020606 0.648744 0.248157
v -0.003444 0.654660 0.233561
v 0.040368 0.635806 0.280001
vn -0.000043 -0.926484 -0.376335
f 613/1/154 614/2/154 615/3/154 616/4/154
v 0.040368 0.635806 0.280001
v -0.003444 0.654660 0.233561
v 0.010712 0.670824 0.224563
v 0.056308 0.651233 0.272896
vn 0.376101 -0.679004 -0.630477
f 617/1/155 618/2/155 619/3/155 620/4/155
v 0.056308 0.651233 0.272896
v 0.010712 0.670824 0.224563
v 0.018067 0.692903 0.223575
v 0.066103 0.672307 0.274492
vn 0.652144 -0.248843 -0.716091
f 621/1/156 622/2/156 623/3/156 624/4/156
v 0.018067 0.692903 0.223575
v -0.029968 0.700000 0.172657
v -0.033374 0.722455 0.177833
v 0.016652 0.714983 0.230861
vn 0.720392 0.258531 -0.643581
f 625/1/157 626/2/157 627/3/157 628/4/157
v 0.016652 0.714983 0.230861
v -0.033374 0.722455 0.177833
v -0.044638 0.738893 0.189895
v 0.006846 0.731146 0.244468
vn 0.562843 0.704893 -0.431663
f 629/1/158 630/2/158 631/3/158 632/4/158
v 0.006846 0.731146 0.244468
v -0.044638 0.738893 0.189895
v -0.060742 0.744909 0.205614
v -0.008724 0.737063 0.260752
vn 0.255635 0.961082 -0.104745
f 633/1/159 634/2/159 635/3/159 636/4/159
v -0.008724 0.737063 0.260752
v -0.060742 0.744909 0.205614
v -0.077371 0.738893 0.220775
v -0.025887 0.731146 0.275348
vn -0.119277 0.961054 0.249294
f 637/1/160 638/2/160 639/3/160 640/4/160
v -0.025887 0.731146 0.275348
v -0.077371 0.738893 0.220775
v -0.090069 0.722455 0.231318
v -0.040042 0.714983 0.284346
vn -0.463347 0.704815 0.537164
f 641/1/161 642/2/161 643/3/161 644/4/161
v -0.040042 0.714983 0.284346
v -0.090069 0.722455 0.231318
v -0.095433 0.700000 0.234417
v -0.047398 0.692903 0.285335
vn -0.684231 0.258478 0.681921
f 645/1/162 646/2/162 647/3/162 648/4/162
v -0.047398 0.692903 0.285335
v -0.095433 0.700000 0.234417
v -0.092028 0.677545 0.229242
v -0.045983 0.670824 0.278049
vn -0.720392 -0.258531 0.643581
f 649/1/163 650/2/163 651/3/163 652/4/163
v -0.045983 0.670824 0.278049
v -0.092028 0.677545 0.229242
v -0.080764 0.661107 0.217179
v -0.036177 0.654660 0.264441
vn -0.561686 -0.705132 0.432780
f 653/1/164 654/2/164 655/3/164 656/4/164
v -0.036177 0.654660 0.264441
v -0.080764 0.661107 0.217179
v -0.064660 0.655091 0.201461
v -0.020606 0.648744 0.248157
vn -0.252946 -0.961493 0.107466
f 657/1/165 658/2/165 659/3/165 660/4/165
v -0.020606 0.648744 0.248157
v -0.064660 0.655091 0.201461
v -0.048031 0.661107 0.186299
v -0.003444 0.654660 0.233561
vn 0.122237 -0.961530 -0.246005
f 661/1/166 662/2/166 663/3/166 664/4/166
v -0.003444 0.654660 0.233561
v -0.048031 0.661107 0.186299
v -0.035333 0.677545 0.175756
v 0.010712 0.670824 0.224563
vn 0.465169 -0.705229 -0.535042
f 665/1/167 666/2/167 667/3/167 668/4/167
v 0.010712 0.670824 0.224563
v -0.035333 0.677545 0.175756
v -0.029968 0.700000 0.172657
v 0.018067 0.692903 0.223575
vn 0.684624 -0.258589 -0.681485
f 669/1/168 670/2/168 671/3/168 672/4/168
v -0.029968 0.700000 0.172657
v -4.000637 0.850000 -4.036252
v -4.004623 0.872492 -4.031691
v -0.033374 0.722455 0.177833
vn 0.707181 0.258902 -0.657925
f 673/1/169 674/2/169 675/3/169 676/4/169
v -0.033374 0.722455 0.177833
v -4.004623 0.872492 -4.031691
v -4.016311 0.888958 -4.020078
v -0.044638 0.738893 0.189895
vn 0.526744 0.707119 -0.471725
f 677/1/170 678/2/170 679/3/170 680/4/170
v -0.044638 0.738893 0.189895
v -4.016311 0.888958 -4.020078
v -4.032570 0.894985 -4.004524
v -0.060742 0.744909 0.205614
vn 0.205321 0.965647 -0.159278
f 681/1/171 682/2/171 683/3/171 684/4/171
v -0.060742 0.744909 0.205614
v -4.032570 0.894985 -4.004524
v -4.049043 0.888958 -3.989198
v -0.077371 0.738893 0.220775
vn -0.170958 0.965647 0.195703
f 685/1/172 686/2/172 687/3/172 688/4/172
v -0.077371 0.738893 0.220775
v -4.049043 0.888958 -3.989198
v -4.061317 0.872492 -3.978205
v -0.090069 0.722455 0.231318
vn -0.501582 0.707118 0.498396
f 689/1/173 690/2/173 691/3/173 692/4/173
v -0.090069 0.722455 0.231318
v -4.061317 0.872492 -3.978205
v -4.066103 0.850000 -3.974492
v -0.095433 0.700000 0.234417
vn -0.697969 0.258902 0.667689
f 693/1/174 694/2/174 695/3/174 696/4/174
v -0.095433 0.700000 0.234417
v -4.066103 0.850000 -3.974492
v -4.062118 0.827508 -3.979054
v -0.092028 0.677545 0.229242
vn -0.707181 -0.258902 0.657925
f 697/1/175 698/2/175 699/3/175 700/4/175
v -0.092028 0.677545 0.229242
v -4.062118 0.827508 -3.979054
v -4.050429 0.811042 -3.990667
v -0.080764 0.661107 0.217179
vn -0.526741 -0.707119 0.471728
f 701/1/176 702/2/176 703/3/176 704/4/176
v -0.080764 0.661107 0.217179
v -4.050429 0.811042 -3.990667
v -4.034170 0.805015 -4.006221
v -0.064660 0.655091 0.201461
vn -0.205314 -0.965647 0.159285
f 705/1/177 706/2/177 707/3/177 708/4/177
v -0.064660 0.655091 0.201461
v -4.034170 0.805015 -4.006221
v -4.017697 0.811042 -4.021547
v -0.048031 0.661107 0.186299
vn 0.170965 -0.965647 -0.195695
f 709/1/178 710/2/178 711/3/178 712/4/178
v -0.048031 0.661107 0.186299
v -4.017697 0.811042 -4.021547
v -4.005423 0.827508 -4.032539
v -0.035333 0.677545 0.175756
vn 0.501587 -0.707119 -0.498391
f 713/1/179 714/2/179 715/3/179 716/4/179
v -0.035333 0.677545 0.175756
v -4.005423 0.827508 -4.032539
v -4.000637 0.850000 -4.036252
v -0.029968 0.700000 0.172657
vn 0.697970 -0.258903 -0.667688
f 717/1/180 718/2/180 719/3/180 720/4/180
v -4.000637 0.850000 -4.036252
v -4.032570 0.894985 -4.004524
v -4.016311 0.888958 -4.020078
v -4.004623 0.872492 -4.031691
vn -0.685990 0.025915 -0.727149
f 721/1/181 722/2/181 723/3/181 724/4/181
v -4.000637 0.850000 -4.036252
v -4.061317 0.872492 -3.978205
v -4.049043 0.888958 -3.989198
v -4.032570 0.894985 -4.004524
vn -0.685990 0.025915 -0.727149
f 725/1/182 726/2/182 727/3/182 728/4/182
v -4.000637 0.850000 -4.036252
v -4.062118 0.827508 -3.979054
v -4.066103 0.850000 -3.974492
v -4.061317 0.872492 -3.978205
vn -0.685990 0.025915 -0.727149
f 729/1/183 730/2/183 731/3/183 732/4/183
v -4.000637 0.850000 -4.036252
v -4.034170 0.805015 -4.006221
v -4.050429 0.811042 -3.990667
v -4.062118 0.827508 -3.979054
vn -0.685990 0.025915 -0.727149
f 733/1/184 734/2/184 735/3/184 736/4/184
v -4.000637 0.850000 -4.036252
v -4.005423 0.827508 -4.032539
v -4.017697 0.811042 -4.021547
v -4.034170 0.805015 -4.006221
vn -0.685990 0.025915 -0.727149
f 737/1/185 738/2/185 739/3/185 740/4/185
v -4.001777 0.849741 -4.021430
v -4.132158 0.850000 -4.159635
v -4.135456 0.867000 -4.156492
v -4.005074 0.866741 -4.018287
vn 0.702851 0.258819 -0.662581
f 741/1/186 742/2/186 743/3/186 744/4/186
v -4.005074 0.866741 -4.018287
v -4.135456 0.867000 -4.156492
v -4.144497 0.879445 -4.147940
v -4.014115 0.879186 -4.009735
vn 0.515007 0.707106 -0.484529
f 745/1/187 746/2/187 747/3/187 748/4/187
v -4.014115 0.879186 -4.009735
v -4.144497 0.879445 -4.147940
v -4.156858 0.884000 -4.136269
v -4.026476 0.883741 -3.998065
vn 0.189168 0.965925 -0.176648
f 749/1/188 750/2/188 751/3/188 752/4/188
v -4.026476 0.883741 -3.998065
v -4.156858 0.884000 -4.136269
v -4.169228 0.879445 -4.124608
v -4.038846 0.879186 -3.986403
vn -0.187359 0.965925 0.178566
f 753/1/189 754/2/189 755/3/189 756/4/189
v -4.038846 0.879186 -3.986403
v -4.169228 0.879445 -4.124608
v -4.178292 0.867000 -4.116081
v -4.047910 0.866741 -3.977876
vn -0.513683 0.707106 0.485933
f 757/1/190 758/2/190 759/3/190 760/4/190
v -4.047910 0.866741 -3.977876
v -4.178292 0.867000 -4.116081
v -4.181621 0.850000 -4.112972
v -4.051239 0.849741 -3.974767
vn -0.702366 0.258819 0.663095
f 761/1/191 762/2/191 763/3/191 764/4/191
v -4.051239 0.849741 -3.974767
v -4.181621 0.850000 -4.112972
v -4.178324 0.833000 -4.116114
v -4.047942 0.832741 -3.977910
vn -0.702851 -0.258819 0.662581
f 765/1/192 766/2/192 767/3/192 768/4/192
v -4.047942 0.832741 -3.977910
v -4.178324 0.833000 -4.116114
v -4.169283 0.820555 -4.124667
v -4.038901 0.820296 -3.986462
vn -0.515007 -0.707106 0.484529
f 769/1/193 770/2/193 771/3/193 772/4/193
v -4.038901 0.820296 -3.986462
v -4.169283 0.820555 -4.124667
v -4.156922 0.816000 -4.136337
v -4.026540 0.815741 -3.998132
vn -0.189168 -0.965925 0.176648
f 773/1/194 774/2/194 775/3/194 776/4/194
v -4.026540 0.815741 -3.998132
v -4.156922 0.816000 -4.136337
v -4.144552 0.820555 -4.147998
v -4.014170 0.820296 -4.009793
vn 0.187359 -0.965925 -0.178566
f 777/1/195 778/2/195 779/3/195 780/4/195
v -4.014170 0.820296 -4.009793
v -4.144552 0.820555 -4.147998
v -4.135488 0.833000 -4.156526
v -4.005106 0.832741 -4.018321
vn 0.513683 -0.707106 -0.485933
f 781/1/196 782/2/196 783/3/196 784/4/196
v -4.005106 0.832741 -4.018321
v -4.135488 0.833000 -4.156526
v -4.132158 0.850000 -4.159635
v -4.001777 0.849741 -4.021430
vn 0.702366 -0.258819 -0.663095
f 785/1/197 786/2/197 787/3/197 788/4/197
v -4.132158 0.850000 -4.159635
v -4.156858 0.884000 -4.136269
v -4.144497 0.879445 -4.147940
v -4.135456 0.867000 -4.156492
vn -0.686220 0.001364 -0.727393
f 789/1/198 790/2/198 791/3/198 792/4/198
v -4.132158 0.850000 -4.159635
v -4.178292 0.867000 -4.116081
v -4.169228 0.879445 -4.124608
v -4.156858 0.884000 -4.136269
vn -0.686220 0.001364 -0.727393
f 793/1/199 794/2/199 795/3/199 796/4/199
v -4.132158 0.850000 -4.159635
v -4.178324 0.833000 -4.116114
v -4.181621 0.850000 -4.112972
v -4.178292 0.867000 -4.116081
vn -0.686220 0.001364 -0.727393
f 797/1/200 798/2/200 799/3/200 800/4/200
v -4.132158 0.850000 -4.159635
v -4.156922 0.816000 -4.136337
v -4.169283 0.820555 -4.124667
v -4.178324 0.833000 -4.116114
vn -0.686220 0.001364 -0.727393
f 801/1/201 802/2/201 803/3/201 804/4/201
v -4.132158 0.850000 -4.159635
v -4.135488 0.833000 -4.156526
v -4.144552 0.820555 -4.147998
v -4.156922 0.816000 -4.136337
vn -0.686220 0.001364 -0.727393
f 805/1/202 806/2/202 807/3/202 808/4/202
v 0.516934 0.125000 0.875956
v -0.100665 0.675074 0.131301
v -0.100716 0.688597 0.141333
v 0.516883 0.138523 0.885988
vn 0.831877 0.332669 -0.444198
f 809/1/203 810/2/203 811/3/203 812/4/203
v 0.516883 0.138523 0.885988
v -0.100716 0.688597 0.141333
v -0.110657 0.694199 0.153716
v 0.506942 0.144125 0.898370
vn 0.586078 0.803133 0.107193
f 813/1/204 814/2/204 815/3/204 816/4/204
v 0.506942 0.144125 0.898370
v -0.110657 0.694199 0.153716
v -0.124664 0.688597 0.161195
v 0.492935 0.138523 0.905849
vn -0.003038 0.803133 0.595792
f 817/1/205 818/2/205 819/3/205 820/4/205
v 0.492935 0.138523 0.905849
v -0.124664 0.688597 0.161195
v -0.134532 0.675074 0.159390
v 0.483066 0.125000 0.904044
vn -0.590375 0.332669 0.735384
f 821/1/206 822/2/206 823/3/206 824/4/206
v 0.483066 0.125000 0.904044
v -0.134532 0.675074 0.159390
v -0.134481 0.661551 0.149358
v 0.483117 0.111477 0.894012
vn -0.831877 -0.332669 0.444198
f 825/1/207 826/2/207 827/3/207 828/4/207
v 0.483117 0.111477 0.894012
v -0.134481 0.661551 0.149358
v -0.124540 0.655949 0.136976
v 0.493058 0.105875 0.881630
vn -0.586078 -0.803133 -0.107193
f 829/1/208 830/2/208 831/3/208 832/4/208
v 0.493058 0.105875 0.881630
v -0.124540 0.655949 0.136976
v -0.110533 0.661551 0.129496
v 0.507065 0.111477 0.874151
vn 0.003038 -0.803133 -0.595792
f 833/1/209 834/2/209 835/3/209 836/4/209
v 0.507065 0.111477 0.874151
v -0.110533 0.661551 0.129496
v -0.100665 0.675074 0.131301
v 0.516934 0.125000 0.875956
vn 0.590375 -0.332669 -0.735384
f 837/1/210 838/2/210 839/3/210 840/4/210
v -0.100665 0.675074 0.131301
v -0.124664 0.688597 0.161195
v -0.110657 0.694199 0.153716
v -0.100716 0.688597 0.141333
vn -0.554951 0.494276 -0.669119
f 841/1/211 842/2/211 843/3/211 844/4/211
v -0.100665 0.675074 0.131301
v -0.134481 0.661551 0.149358
v -0.134532 0.675074 0.159390
v -0.124664 0.688597 0.161195
vn -0.554951 0.494276 -0.669119
f 845/1/212 846/2/212 847/3/212 848/4/212
v -0.100665 0.675074 0.131301
v -0.110533 0.661551 0.129496
v -0.124540 0.655949 0.136976
v -0.134481 0.661551 0.149358
vn -0.554951 0.494276 -0.669119
f 849/1/213 850/2/213 851/3/213 852/4/213
usemtl clamp
v 0.468750 0.750000 0.900000
v 0.531250 0.750000 0.900000
v 0.531250 0.812500 0.900000
v 0.468750 0.812500 0.900000
vn 0.000000 0.000000 1.000000
f 853/1/214 854/2/214 855/3/214 856/4/214
v 0.531250 0.750000 0.812500
v 0.468750 0.750000 0.812500
v 0.468750 0.812500 0.812500
v 0.531250 0.812500 0.812500
vn 0.000000 0.000000 -1.000000
f 857/1/215 858/2/215 859/3/215 860/4/215
v 0.531250 0.750000 0.900000
v 0.531250 0.750000 0.812500
v 0.531250 0.812500 0.812500
v 0.531250 0.812500 0.900000
vn 1.000000 -0.000000 0.000000
f 861/1/216 862/2/216 863/3/216 864/4/216
v 0.468750 0.750000 0.812500
v 0.468750 0.750000 0.900000
v 0.468750 0.812500 0.900000
v 0.468750 0.812500 0.812500
vn -1.000000 0.000000 0.000000
f 865/1/217 866/2/217 867/3/217 868/4/217
v 0.468750 0.812500 0.900000
v 0.531250 0.812500 0.900000
v 0.531250 0.812500 0.812500
v 0.468750 0.812500 0.812500
vn -0.000000 1.000000 0.000000
f 869/1/218 870/2/218 871/3/218 872/4/218
v 0.468750 0.750000 0.812500
v 0.531250 0.750000 0.812500
v 0.531250 0.750000 0.900000
v 0.468750 0.750000 0.900000
vn 0.000000 -1.000000 0.000000
f 873/1/219 874/2/219 875/3/219 876/4/219
usemtl porcelain
v 0.437500 0.812500 0.875000
v 0.562500 0.812500 0.875000
v 0.562500 0.937500 0.875000
v 0.437500 0.937500 0.875000
vn 0.000000 0.000000 1.000000
f 877/1/220 878/2/220 879/3/220 880/4/220
v 0.562500 0.812500 0.750000
v 0.437500 0.812500 0.750000
v 0.437500 0.937500 0.750000
v 0.562500 0.937500 0.750000
vn 0.000000 0.000000 -1.000000
f 881/1/221 882/2/221 883/3/221 884/4/221
v 0.562500 0.812500 0.875000
v 0.562500 0.812500 0.750000
v 0.562500 0.937500 0.750000
v 0.562500 0.937500 0.875000
vn 1.000000 -0.000000 0.000000
f 885/1/222 886/2/222 887/3/222 888/4/222
v 0.437500 0.812500 0.750000
v 0.437500 0.812500 0.875000
v 0.437500 0.937500 0.875000
v 0.437500 0.937500 0.750000
vn -1.000000 0.000000 0.000000
f 889/1/223 890/2/223 891/3/223 892/4/223
v 0.437500 0.937500 0.875000
v 0.562500 0.937500 0.875000
v 0.562500 0.937500 0.750000
v 0.437500 0.937500 0.750000
vn -0.000000 1.000000 0.000000
f 893/1/224 894/2/224 895/3/224 896/4/224
v 0.437500 0.812500 0.750000
v 0.562500 0.812500 0.750000
v 0.562500 0.812500 0.875000
v 0.437500 0.812500 0.875000
vn 0.000000 -1.000000 0.000000
f 897/1/225 898/2/225 899/3/225 900/4/225
usemtl cable
v 0.500000 0.870870 0.766491
v 0.317879 0.253399 0.582196
v 0.305372 0.264906 0.581821
v 0.514091 0.868796 0.757209
vn 0.470221 -0.376876 0.798033
f 901/1/226 902/2/226 903/3/226 904/4/226
v 0.514091 0.868796 0.757209
v 0.305372 0.264906 0.581821
v 0.293455 0.264906 0.593946
v 0.514091 0.872926 0.740718
vn 0.949023 -0.305765 -0.076578
f 905/1/227 906/2/227 907/3/227 908/4/227
v 0.514091 0.872926 0.740718
v 0.293455 0.264906 0.593946
v 0.294047 0.253399 0.606445
v 0.500000 0.879130 0.733509
vn 0.469774 0.042384 -0.881768
f 909/1/228 910/2/228 911/3/228 912/4/228
v 0.500000 0.879130 0.733509
v 0.294047 0.253399 0.606445
v 0.306554 0.241891 0.606820
v 0.485909 0.881204 0.742791
vn -0.486472 0.324818 -0.811072
f 913/1/229 914/2/229 915/3/229 916/4/229
v 0.485909 0.881204 0.742791
v 0.306554 0.241891 0.606820
v 0.318471 0.241891 0.594696
v 0.485909 0.877074 0.759282
vn -0.964308 0.256849 0.064328
f 917/1/230 918/2/230 919/3/230 920/4/230
v 0.485909 0.877074 0.759282
v 0.318471 0.241891 0.594696
v 0.317879 0.253399 0.582196
v 0.500000 0.870870 0.766491
vn -0.486725 -0.096659 0.868191
f 921/1/231 922/2/231 923/3/231 924/4/231
v 0.317879 0.253399 0.582196
v 0.124292 0.209182 0.376976
v 0.117147 0.223837 0.381789
v 0.305372 0.264906 0.581821
vn 0.537035 0.563264 -0.627955
f 925/1/232 926/2/232 927/3/232 928/4/232
v 0.305372 0.264906 0.581821
v 0.117147 0.223837 0.381789
v 0.104782 0.223837 0.393455
v 0.293455 0.264906 0.593946
vn -0.105546 0.988989 -0.103735
f 929/1/233 930/2/233 931/3/233 932/4/233
v 0.293455 0.264906 0.593946
v 0.104782 0.223837 0.393455
v 0.099560 0.209182 0.400307
v 0.294047 0.253399 0.606445
vn -0.668676 0.530999 0.520493
f 933/1/234 934/2/234 935/3/234 936/4/234
v 0.294047 0.253399 0.606445
v 0.099560 0.209182 0.400307
v 0.106704 0.194526 0.395493
v 0.306554 0.241891 0.606820
vn -0.537182 -0.563433 0.627677
f 937/1/235 938/2/235 939/3/235 940/4/235
v 0.306554 0.241891 0.606820
v 0.106704 0.194526 0.395493
v 0.119070 0.194526 0.383828
v 0.318471 0.241891 0.594696
vn 0.114707 -0.986981 0.112738
f 941/1/236 942/2/236 943/3/236 944/4/236
v 0.318471 0.241891 0.594696
v 0.119070 0.194526 0.383828
v 0.124292 0.209182 0.376976
v 0.317879 0.253399 0.582196
vn 0.673090 -0.527952 -0.517896
f 945/1/237 946/2/237 947/3/237 948/4/237
v 0.124292 0.209182 0.376976
v -0.069746 0.199142 0.171296
v -0.077364 0.213715 0.175607
v 0.117147 0.223837 0.381789
vn 0.617469 0.500356 -0.606940
f 949/1/238 950/2/238 951/3/238 952/4/238
v 0.117147 0.223837 0.381789
v -0.077364 0.213715 0.175607
v -0.089730 0.213715 0.187273
v 0.104782 0.223837 0.393455
vn -0.024489 0.999363 -0.025958
f 953/1/239 954/2/239 955/3/239 956/4/239
v 0.104782 0.223837 0.393455
v -0.089730 0.213715 0.187273
v -0.094477 0.199142 0.194628
v 0.099560 0.209182 0.400307
vn -0.641922 0.500348 0.581024
f 957/1/240 958/2/240 959/3/240 960/4/240
v 0.099560 0.209182 0.400307
v -0.094477 0.199142 0.194628
v -0.086858 0.184570 0.190317
v 0.106704 0.194526 0.395493
vn -0.617469 -0.500356 0.606940
f 961/1/241 962/2/241 963/3/241 964/4/241
v 0.106704 0.194526 0.395493
v -0.086858 0.184570 0.190317
v -0.074492 0.184570 0.178651
v 0.119070 0.194526 0.383828
vn 0.024207 -0.999378 0.025659
f 965/1/242 966/2/242 967/3/242 968/4/242
v 0.119070 0.194526 0.383828
v -0.074492 0.184570 0.178651
v -0.069746 0.199142 0.171296
v 0.124292 0.209182 0.376976
vn 0.641777 -0.500364 -0.581169
f 969/1/243 970/2/243 971/3/243 972/4/243
v -0.069746 0.199142 0.171296
v -0.263783 0.127013 -0.034383
v -0.272261 0.141351 -0.030983
v -0.077364 0.213715 0.175607
vn 0.543859 0.486577 -0.683711
f 973/1/244 974/2/244 975/3/244 976/4/244
v -0.077364 0.213715 0.175607
v -0.272261 0.141351 -0.030983
v -0.284626 0.141351 -0.019317
v -0.089730 0.213715 0.187273
vn -0.169431 0.969040 -0.179596
f 977/1/245 978/2/245 979/3/245 980/4/245
v -0.089730 0.213715 0.187273
v -0.284626 0.141351 -0.019317
v -0.288514 0.127013 -0.011051
v -0.094477 0.199142 0.194628
vn -0.714116 0.486600 0.503248
f 981/1/246 982/2/246 983/3/246 984/4/246
v -0.094477 0.199142 0.194628
v -0.288514 0.127013 -0.011051
v -0.280036 0.112676 -0.014451
v -0.086858 0.184570 0.190317
vn -0.543859 -0.486577 0.683711
f 985/1/247 986/2/247 987/3/247 988/4/247
v -0.086858 0.184570 0.190317
v -0.280036 0.112676 -0.014451
v -0.267670 0.112676 -0.026117
v -0.074492 0.184570 0.178651
vn 0.169801 -0.968902 0.179989
f 989/1/248 990/2/248 991/3/248 992/4/248
v -0.074492 0.184570 0.178651
v -0.267670 0.112676 -0.026117
v -0.263783 0.127013 -0.034383
v -0.069746 0.199142 0.171296
vn 0.714297 -0.486553 -0.503037
f 993/1/249 994/2/249 995/3/249 996/4/249
v -0.263783 0.127013 -0.034383
v -0.457820 0.067151 -0.240062
v -0.465918 0.081607 -0.236260
v -0.272261 0.141351 -0.030983
vn 0.558834 0.489236 -0.669591
f 997/1/250 998/2/250 999/3/250 1000/4/250
v -0.272261 0.141351 -0.030983
v -0.465918 0.081607 -0.236260
v -0.478284 0.081607 -0.224594
v -0.284626 0.141351 -0.019317
vn -0.142124 0.978317 -0.150651
f 1001/1/251 1002/2/251 1003/3/251 1004/4/251
v -0.284626 0.141351 -0.019317
v -0.478284 0.081607 -0.224594
v -0.482551 0.067151 -0.216731
v -0.288514 0.127013 -0.011051
vn -0.700981 0.489236 0.518915
f 1005/1/252 1006/2/252 1007/3/252 1008/4/252
v -0.288514 0.127013 -0.011051
v -0.482551 0.067151 -0.216731
v -0.474453 0.052696 -0.220533
v -0.280036 0.112676 -0.014451
vn -0.558834 -0.489236 0.669591
f 1009/1/253 1010/2/253 1011/3/253 1012/4/253
v -0.280036 0.112676 -0.014451
v -0.474453 0.052696 -0.220533
v -0.462087 0.052696 -0.232199
v -0.267670 0.112676 -0.026117
vn 0.142127 -0.978316 0.150655
f 1013/1/254 1014/2/254 1015/3/254 1016/4/254
v -0.267670 0.112676 -0.026117
v -0.462087 0.052696 -0.232199
v -0.457820 0.067151 -0.240062
v -0.263783 0.127013 -0.034383
vn 0.700983 -0.489236 -0.518913
f 1017/1/255 1018/2/255 1019/3/255 1020/4/255
v -0.457820 0.067151 -0.240062
v -0.651857 0.017769 -0.445742
v -0.659614 0.032311 -0.441577
v -0.465918 0.081607 -0.236260
vn 0.570880 0.492604 -0.656839
f 1021/1/256 1022/2/256 1023/3/256 1024/4/256
v -0.465918 0.081607 -0.236260
v -0.659614 0.032311 -0.441577
v -0.671980 0.032311 -0.429912
v -0.478284 0.081607 -0.224594
vn -0.118057 0.985090 -0.125140
f 1025/1/257 1026/2/257 1027/3/257 1028/4/257
v -0.478284 0.081607 -0.224594
v -0.671980 0.032311 -0.429912
v -0.676588 0.017769 -0.422410
v -0.482551 0.067151 -0.216731
vn -0.688952 0.492604 0.531683
f 1029/1/258 1030/2/258 1031/3/258 1032/4/258
v -0.482551 0.067151 -0.216731
v -0.676588 0.017769 -0.422410
v -0.668831 0.003226 -0.426574
v -0.474453 0.052696 -0.220533
vn -0.570880 -0.492604 0.656839
f 1033/1/259 1034/2/259 1035/3/259 1036/4/259
v -0.474453 0.052696 -0.220533
v -0.668831 0.003226 -0.426574
v -0.656465 0.003226 -0.438240
v -0.462087 0.052696 -0.232199
vn 0.118059 -0.985090 0.125142
f 1037/1/260 1038/2/260 1039/3/260 1040/4/260
v -0.462087 0.052696 -0.232199
v -0.656465 0.003226 -0.438240
v -0.651857 0.017769 -0.445742
v -0.457820 0.067151 -0.240062
vn 0.688953 -0.492604 -0.531682
f 1041/1/261 1042/2/261 1043/3/261 1044/4/261
v -0.651857 0.017769 -0.445742
v -0.845894 -0.022083 -0.651421
v -0.853330 -0.007474 -0.646916
v -0.659614 0.032311 -0.441577
vn 0.582032 0.495157 -0.645026
f 1045/1/262 1046/2/262 1047/3/262 1048/4/262
v -0.659614 0.032311 -0.441577
v -0.853330 -0.007474 -0.646916
v -0.865695 -0.007474 -0.635250
v -0.671980 0.032311 -0.429912
vn -0.095767 0.990214 -0.101513
f 1049/1/263 1050/2/263 1051/3/263 1052/4/263
v -0.671980 0.032311 -0.429912
v -0.865695 -0.007474 -0.635250
v -0.870625 -0.022083 -0.628089
v -0.676588 0.017769 -0.422410
vn -0.677808 0.495157 0.543503
f 1053/1/264 1054/2/264 1055/3/264 1056/4/264
v -0.676588 0.017769 -0.422410
v -0.870625 -0.022083 -0.628089
v -0.863189 -0.036692 -0.632594
v -0.668831 0.003226 -0.426574
vn -0.582032 -0.495157 0.645026
f 1057/1/265 1058/2/265 1059/3/265 1060/4/265
v -0.668831 0.003226 -0.426574
v -0.863189 -0.036692 -0.632594
v -0.850824 -0.036692 -0.644260
v -0.656465 0.003226 -0.438240
vn 0.095767 -0.990214 0.101513
f 1061/1/266 1062/2/266 1063/3/266 1064/4/266
v -0.656465 0.003226 -0.438240
v -0.850824 -0.036692 -0.644260
v -0.845894 -0.022083 -0.651421
v -0.651857 0.017769 -0.445742
vn 0.677809 -0.495157 -0.543502
f 1065/1/267 1066/2/267 1067/3/267 1068/4/267
v -0.845894 -0.022083 -0.651421
v -1.039931 -0.052934 -0.857100
v -1.047056 -0.038276 -0.852266
v -0.853330 -0.007474 -0.646916
vn 0.592704 0.497096 -0.633718
f 1069/1/268 1070/2/268 1071/3/268 1072/4/268
v -0.853330 -0.007474 -0.646916
v -1.047056 -0.038276 -0.852266
v -1.059422 -0.038276 -0.840601
v -0.865695 -0.007474 -0.635250
vn -0.074430 0.994100 -0.078896
f 1073/1/269 1074/2/269 1075/3/269 1076/4/269
v -0.865695 -0.007474 -0.635250
v -1.059422 -0.038276 -0.840601
v -1.064662 -0.052934 -0.833769
v -0.870625 -0.022083 -0.628089
vn -0.667140 0.497096 0.554815
f 1077/1/270 1078/2/270 1079/3/270 1080/4/270
v -0.870625 -0.022083 -0.628089
v -1.064662 -0.052934 -0.833769
v -1.057537 -0.067592 -0.838602
v -0.863189 -0.036692 -0.632594
vn -0.592704 -0.497096 0.633718
f 1081/1/271 1082/2/271 1083/3/271 1084/4/271
v -0.863189 -0.036692 -0.632594
v -1.057537 -0.067592 -0.838602
v -1.045171 -0.067592 -0.850268
v -0.850824 -0.036692 -0.644260
vn 0.074430 -0.994100 0.078896
f 1085/1/272 1086/2/272 1087/3/272 1088/4/272
v -0.850824 -0.036692 -0.644260
v -1.045171 -0.067592 -0.850268
v -1.039931 -0.052934 -0.857100
v -0.845894 -0.022083 -0.651421
vn 0.667141 -0.497096 -0.554814
f 1089/1/273 1090/2/273 1091/3/273 1092/4/273
v -1.039931 -0.052934 -0.857100
v -1.233968 -0.075091 -1.062779
v -1.240789 -0.060398 -1.057623
v -1.047056 -0.038276 -0.852266
vn 0.603117 0.498515 -0.622681
f 1093/1/274 1094/2/274 1095/3/274 1096/4/274
v -1.047056 -0.038276 -0.852266
v -1.240789 -0.060398 -1.057623
v -1.253155 -0.060398 -1.045957
v -1.059422 -0.038276 -0.840601
vn -0.053607 0.996944 -0.056823
f 1097/1/275 1098/2/275 1099/3/275 1100/4/275
v -1.059422 -0.038276 -0.840601
v -1.253155 -0.060398 -1.045957
v -1.258699 -0.075091 -1.039448
v -1.064662 -0.052934 -0.833769
vn -0.656729 0.498515 0.565853
f 1101/1/276 1102/2/276 1103/3/276 1104/4/276
v -1.064662 -0.052934 -0.833769
v -1.258699 -0.075091 -1.039448
v -1.251878 -0.089784 -1.044604
v -1.057537 -0.067592 -0.838602
vn -0.603117 -0.498515 0.622681
f 1105/1/277 1106/2/277 1107/3/277 1108/4/277
v -1.057537 -0.067592 -0.838602
v -1.251878 -0.089784 -1.044604
v -1.239513 -0.089784 -1.056270
v -1.045171 -0.067592 -0.850268
vn 0.053607 -0.996944 0.056824
f 1109/1/278 1110/2/278 1111/3/278 1112/4/278
v -1.045171 -0.067592 -0.850268
v -1.239513 -0.089784 -1.056270
v -1.233968 -0.075091 -1.062779
v -1.039931 -0.052934 -0.857100
vn 0.656729 -0.498515 -0.565853
f 1113/1/279 1114/2/279 1115/3/279 1116/4/279
v -1.233968 -0.075091 -1.062779
v -1.428005 -0.088730 -1.268459
v -1.434525 -0.074015 -1.262983
v -1.240789 -0.060398 -1.057623
vn 0.613392 0.499462 -0.611791
f 1117/1/280 1118/2/280 1119/3/280 1120/4/280
v -1.240789 -0.060398 -1.057623
v -1.434525 -0.074015 -1.262983
v -1.446890 -0.074015 -1.251317
v -1.253155 -0.060398 -1.045957
vn -0.033060 0.998839 -0.035043
f 1121/1/281 1122/2/281 1123/3/281 1124/4/281
v -1.253155 -0.060398 -1.045957
v -1.446890 -0.074015 -1.251317
v -1.452736 -0.088730 -1.245127
v -1.258699 -0.075091 -1.039448
vn -0.646455 0.499462 0.576744
f 1125/1/282 1126/2/282 1127/3/282 1128/4/282
v -1.258699 -0.075091 -1.039448
v -1.452736 -0.088730 -1.245127
v -1.446217 -0.103444 -1.250603
v -1.251878 -0.089784 -1.044604
vn -0.613392 -0.499462 0.611791
f 1129/1/283 1130/2/283 1131/3/283 1132/4/283
v -1.251878 -0.089784 -1.044604
v -1.446217 -0.103444 -1.250603
v -1.433851 -0.103444 -1.262269
v -1.239513 -0.089784 -1.056270
vn 0.033060 -0.998839 0.035043
f 1133/1/284 1134/2/284 1135/3/284 1136/4/284
v -1.239513 -0.089784 -1.056270
v -1.433851 -0.103444 -1.262269
v -1.428005 -0.088730 -1.268459
v -1.233968 -0.075091 -1.062779
vn 0.646455 -0.499462 -0.576744
f 1137/1/285 1138/2/285 1139/3/285 1140/4/285
v -1.428005 -0.088730 -1.268459
v -1.622042 -0.093948 -1.474138
v -1.628262 -0.079225 -1.468344
v -1.434525 -0.074015 -1.262983
vn 0.623593 0.499956 -0.600979
f 1141/1/286 1142/2/286 1143/3/286 1144/4/286
v -1.434525 -0.074015 -1.262983
v -1.628262 -0.079225 -1.468344
v -1.640628 -0.079225 -1.456679
v -1.446890 -0.074015 -1.251317
vn -0.012662 0.999830 -0.013421
f 1145/1/287 1146/2/287 1147/3/287 1148/4/287
v -1.446890 -0.074015 -1.251317
v -1.640628 -0.079225 -1.456679
v -1.646774 -0.093948 -1.450807
v -1.452736 -0.088730 -1.245127
vn -0.636255 0.499956 0.587557
f 1149/1/288 1150/2/288 1151/3/288 1152/4/288
v -1.452736 -0.088730 -1.245127
v -1.646774 -0.093948 -1.450807
v -1.640554 -0.108670 -1.456600
v -1.446217 -0.103444 -1.250603
vn -0.623593 -0.499956 0.600979
f 1153/1/289 1154/2/289 1155/3/289 1156/4/289
v -1.446217 -0.103444 -1.250603
v -1.640554 -0.108670 -1.456600
v -1.628188 -0.108670 -1.468266
v -1.433851 -0.103444 -1.262269
vn 0.012662 -0.999830 0.013422
f 1157/1/290 1158/2/290 1159/3/290 1160/4/290
v -1.433851 -0.103444 -1.262269
v -1.628188 -0.108670 -1.468266
v -1.622042 -0.093948 -1.474138
v -1.428005 -0.088730 -1.268459
vn 0.636255 -0.499956 -0.587557
f 1161/1/291 1162/2/291 1163/3/291 1164/4/291
v -1.622042 -0.093948 -1.474138
v -1.816079 -0.090795 -1.679817
v -1.822000 -0.076078 -1.673707
v -1.628262 -0.079225 -1.468344
vn 0.633749 0.500010 -0.590213
f 1165/1/292 1166/2/292 1167/3/292 1168/4/292
v -1.628262 -0.079225 -1.468344
v -1.822000 -0.076078 -1.673707
v -1.834366 -0.076078 -1.662041
v -1.640628 -0.079225 -1.456679
vn 0.007650 0.999938 0.008109
f 1169/1/293 1170/2/293 1171/3/293 1172/4/293
v -1.640628 -0.079225 -1.456679
v -1.834366 -0.076078 -1.662041
v -1.840811 -0.090795 -1.656486
v -1.646774 -0.093948 -1.450807
vn -0.626099 0.500010 0.598323
f 1173/1/294 1174/2/294 1175/3/294 1176/4/294
v -1.646774 -0.093948 -1.450807
v -1.840811 -0.090795 -1.656486
v -1.834889 -0.105513 -1.662596
v -1.640554 -0.108670 -1.456600
vn -0.633749 -0.500010 0.590213
f 1177/1/295 1178/2/295 1179/3/295 1180/4/295
v -1.640554 -0.108670 -1.456600
v -1.834889 -0.105513 -1.662596
v -1.822524 -0.105513 -1.674262
v -1.628188 -0.108670 -1.468266
vn -0.007650 -0.999938 -0.008109
f 1181/1/296 1182/2/296 1183/3/296 1184/4/296
v -1.628188 -0.108670 -1.468266
v -1.822524 -0.105513 -1.674262
v -1.816079 -0.090795 -1.679817
v -1.622042 -0.093948 -1.474138
vn 0.626099 -0.500010 -0.598323
f 1185/1/297 1186/2/297 1187/3/297 1188/4/297
v -1.816079 -0.090795 -1.679817
v -2.010116 -0.079288 -1.885497
v -2.015739 -0.064588 -1.879070
v -1.822000 -0.076078 -1.673707
vn 0.643878 0.499627 -0.579477
f 1189/1/298 1190/2/298 1191/3/298 1192/4/298
v -1.822000 -0.076078 -1.673707
v -2.015739 -0.064588 -1.879070
v -2.028105 -0.064588 -1.867405
v -1.834366 -0.076078 -1.662041
vn 0.027905 0.999173 0.029579
f 1193/1/299 1194/2/299 1195/3/299 1196/4/299
v -1.834366 -0.076078 -1.662041
v -2.028105 -0.064588 -1.867405
v -2.034848 -0.079288 -1.862165
v -1.840811 -0.090795 -1.656486
vn -0.615971 0.499627 0.609059
f 1197/1/300 1198/2/300 1199/3/300 1200/4/300
v -1.840811 -0.090795 -1.656486
v -2.034848 -0.079288 -1.862165
v -2.029225 -0.093987 -1.868591
v -1.834889 -0.105513 -1.662596
vn -0.643878 -0.499627 0.579477
f 1201/1/301 1202/2/301 1203/3/301 1204/4/301
v -1.834889 -0.105513 -1.662596
v -2.029225 -0.093987 -1.868591
v -2.016859 -0.093987 -1.880257
v -1.822524 -0.105513 -1.674262
vn -0.027905 -0.999173 -0.029579
f 1205/1/302 1206/2/302 1207/3/302 1208/4/302
v -1.822524 -0.105513 -1.674262
v -2.016859 -0.093987 -1.880257
v -2.010116 -0.079288 -1.885497
v -1.816079 -0.090795 -1.679817
vn 0.615971 -0.499627 -0.609059
f 1209/1/303 1210/2/303 1211/3/303 1212/4/303
v -2.010116 -0.079288 -1.885497
v -2.204153 -0.059409 -2.091176
v -2.209479 -0.044740 -2.084434
v -2.015739 -0.064588 -1.879070
vn 0.653988 0.498810 -0.568761
f 1213/1/304 1214/2/304 1215/3/304 1216/4/304
v -2.015739 -0.064588 -1.879070
v -2.209479 -0.044740 -2.084434
v -2.221845 -0.044740 -2.072768
v -2.028105 -0.064588 -1.867405
vn 0.048123 0.997538 0.051011
f 1217/1/305 1218/2/305 1219/3/305 1220/4/305
v -2.028105 -0.064588 -1.867405
v -2.221845 -0.044740 -2.072768
v -2.228885 -0.059409 -2.067844
v -2.034848 -0.079288 -1.862165
vn -0.605861 0.498810 0.619776
f 1221/1/306 1222/2/306 1223/3/306 1224/4/306
v -2.034848 -0.079288 -1.862165
v -2.228885 -0.059409 -2.067844
v -2.223559 -0.074078 -2.074586
v -2.029225 -0.093987 -1.868591
vn -0.653988 -0.498810 0.568761
f 1225/1/307 1226/2/307 1227/3/307 1228/4/307
v -2.029225 -0.093987 -1.868591
v -2.223559 -0.074078 -2.074586
v -2.211194 -0.074078 -2.086252
v -2.016859 -0.093987 -1.880257
vn -0.048123 -0.997538 -0.051011
f 1229/1/308 1230/2/308 1231/3/308 1232/4/308
v -2.016859 -0.093987 -1.880257
v -2.211194 -0.074078 -2.086252
v -2.204153 -0.059409 -2.091176
v -2.010116 -0.079288 -1.885497
vn 0.605861 -0.498810 -0.619776
f 1233/1/309 1234/2/309 1235/3/309 1236/4/309
v -2.204153 -0.059409 -2.091176
v -2.398190 -0.031110 -2.296855
v -2.403218 -0.016485 -2.289798
v -2.209479 -0.044740 -2.084434
vn 0.664095 0.497555 -0.558047
f 1237/1/310 1238/2/310 1239/3/310 1240/4/310
v -2.209479 -0.044740 -2.084434
v -2.403218 -0.016485 -2.289798
v -2.415584 -0.016485 -2.278132
v -2.221845 -0.044740 -2.072768
vn 0.068335 0.995029 0.072435
f 1241/1/311 1242/2/311 1243/3/311 1244/4/311
v -2.221845 -0.044740 -2.072768
v -2.415584 -0.016485 -2.278132
v -2.422922 -0.031110 -2.273524
v -2.228885 -0.059409 -2.067844
vn -0.595754 0.497555 0.630489
f 1245/1/312 1246/2/312 1247/3/312 1248/4/312
v -2.228885 -0.059409 -2.067844
v -2.422922 -0.031110 -2.273524
v -2.417894 -0.045736 -2.280581
v -2.223559 -0.074078 -2.074586
vn -0.664095 -0.497555 0.558047
f 1249/1/313 1250/2/313 1251/3/313 1252/4/313
v -2.223559 -0.074078 -2.074586
v -2.417894 -0.045736 -2.280581
v -2.405529 -0.045736 -2.292247
v -2.211194 -0.074078 -2.086252
vn -0.068335 -0.995029 -0.072435
f 1253/1/314 1254/2/314 1255/3/314 1256/4/314
v -2.211194 -0.074078 -2.086252
v -2.405529 -0.045736 -2.292247
v -2.398190 -0.031110 -2.296855
v -2.204153 -0.059409 -2.091176
vn 0.595754 -0.497555 -0.630489
f 1257/1/315 1258/2/315 1259/3/315 1260/4/315
v -2.398190 -0.031110 -2.296855
v -2.592227 0.005707 -2.502535
v -2.596955 0.020276 -2.495159
v -2.403218 -0.016485 -2.289798
vn 0.674229 0.495856 -0.547305
f 1261/1/316 1262/2/316 1263/3/316 1264/4/316
v -2.403218 -0.016485 -2.289798
v -2.596955 0.020276 -2.495159
v -2.609321 0.020276 -2.483494
v -2.415584 -0.016485 -2.278132
vn 0.088602 0.991630 0.093918
f 1265/1/317 1266/2/317 1267/3/317 1268/4/317
v -2.415584 -0.016485 -2.278132
v -2.609321 0.020276 -2.483494
v -2.616959 0.005707 -2.479203
v -2.422922 -0.031110 -2.273524
vn -0.585619 0.495856 0.641231
f 1269/1/318 1270/2/318 1271/3/318 1272/4/318
v -2.422922 -0.031110 -2.273524
v -2.616959 0.005707 -2.479203
v -2.612231 -0.008862 -2.486578
v -2.417894 -0.045736 -2.280581
vn -0.674229 -0.495856 0.547305
f 1273/1/319 1274/2/319 1275/3/319 1276/4/319
v -2.417894 -0.045736 -2.280581
v -2.612231 -0.008862 -2.486578
v -2.599865 -0.008862 -2.498244
v -2.405529 -0.045736 -2.292247
vn -0.088602 -0.991630 -0.093918
f 1277/1/320 1278/2/320 1279/3/320 1280/4/320
v -2.405529 -0.045736 -2.292247
v -2.599865 -0.008862 -2.498244
v -2.592227 0.005707 -2.502535
v -2.398190 -0.031110 -2.296855
vn 0.585619 -0.495856 -0.641231
f 1281/1/321 1282/2/321 1283/3/321 1284/4/321
v -2.592227 0.005707 -2.502535
v -2.786265 0.051219 -2.708214
v -2.790688 0.065716 -2.700516
v -2.596955 0.020276 -2.495159
vn 0.684451 0.493689 -0.536468
f 1285/1/322 1286/2/322 1287/3/322 1288/4/322
v -2.596955 0.020276 -2.495159
v -2.790688 0.065716 -2.700516
v -2.803054 0.065716 -2.688851
v -2.609321 0.020276 -2.483494
vn 0.109046 0.987293 0.115589
f 1289/1/323 1290/2/323 1291/3/323 1292/4/323
v -2.609321 0.020276 -2.483494
v -2.803054 0.065716 -2.688851
v -2.810996 0.051219 -2.684882
v -2.616959 0.005707 -2.479203
vn -0.575396 0.493689 0.652067
f 1293/1/324 1294/2/324 1295/3/324 1296/4/324
v -2.616959 0.005707 -2.479203
v -2.810996 0.051219 -2.684882
v -2.806572 0.036721 -2.692580
v -2.612231 -0.008862 -2.486578
vn -0.684451 -0.493689 0.536468
f 1297/1/325 1298/2/325 1299/3/325 1300/4/325
v -2.612231 -0.008862 -2.486578
v -2.806572 0.036721 -2.692580
v -2.794207 0.036721 -2.704246
v -2.599865 -0.008862 -2.498244
vn -0.109047 -0.987293 -0.115590
f 1301/1/326 1302/2/326 1303/3/326 1304/4/326
v -2.599865 -0.008862 -2.498244
v -2.794207 0.036721 -2.704246
v -2.786265 0.051219 -2.708214
v -2.592227 0.005707 -2.502535
vn 0.575396 -0.493689 -0.652067
f 1305/1/327 1306/2/327 1307/3/327 1308/4/327
v -2.786265 0.051219 -2.708214
v -2.980302 0.105730 -2.913893
v -2.984412 0.120140 -2.905864
v -2.790688 0.065716 -2.700516
vn 0.694878 0.491004 -0.525414
f 1309/1/328 1310/2/328 1311/3/328 1312/4/328
v -2.790688 0.065716 -2.700516
v -2.984412 0.120140 -2.905864
v -2.996778 0.120140 -2.894198
v -2.803054 0.065716 -2.688851
vn 0.129899 0.981920 0.137693
f 1313/1/329 1314/2/329 1315/3/329 1316/4/329
v -2.803054 0.065716 -2.688851
v -2.996778 0.120140 -2.894198
v -3.005033 0.105730 -2.890562
v -2.810996 0.051219 -2.684882
vn -0.564967 0.491004 0.663119
f 1317/1/330 1318/2/330 1319/3/330 1320/4/330
v -2.810996 0.051219 -2.684882
v -3.005033 0.105730 -2.890562
v -3.000923 0.091321 -2.898591
v -2.806572 0.036721 -2.692580
vn -0.694878 -0.491004 0.525414
f 1321/1/331 1322/2/331 1323/3/331 1324/4/331
v -2.806572 0.036721 -2.692580
v -3.000923 0.091321 -2.898591
v -2.988557 0.091321 -2.910257
v -2.794207 0.036721 -2.704246
vn -0.129900 -0.981920 -0.137694
f 1325/1/332 1326/2/332 1327/3/332 1328/4/332
v -2.794207 0.036721 -2.704246
v -2.988557 0.091321 -2.910257
v -2.980302 0.105730 -2.913893
v -2.786265 0.051219 -2.708214
vn 0.564967 -0.491004 -0.663120
f 1329/1/333 1330/2/333 1331/3/333 1332/4/333
v -2.980302 0.105730 -2.913893
v -3.174339 0.169773 -3.119572
v -3.178118 0.184073 -3.111192
v -2.984412 0.120140 -2.905864
vn 0.705720 0.487696 -0.513918
f 1333/1/334 1334/2/334 1335/3/334 1336/4/334
v -2.984412 0.120140 -2.905864
v -3.178118 0.184073 -3.111192
v -3.190484 0.184073 -3.099526
v -2.996778 0.120140 -2.894198
vn 0.151583 0.975298 0.160678
f 1337/1/335 1338/2/335 1339/3/335 1340/4/335
v -2.996778 0.120140 -2.894198
v -3.190484 0.184073 -3.099526
v -3.199070 0.169773 -3.096241
v -3.005033 0.105730 -2.890562
vn -0.554122 0.487696 0.674612
f 1341/1/336 1342/2/336 1343/3/336 1344/4/336
v -3.005033 0.105730 -2.890562
v -3.199070 0.169773 -3.096241
v -3.195291 0.155474 -3.104622
v -3.000923 0.091321 -2.898591
vn -0.705720 -0.487696 0.513918
f 1345/1/337 1346/2/337 1347/3/337 1348/4/337
v -3.000923 0.091321 -2.898591
v -3.195291 0.155474 -3.104622
v -3.182925 0.155474 -3.116287
v -2.988557 0.091321 -2.910257
vn -0.151584 -0.975297 -0.160679
f 1349/1/338 1350/2/338 1351/3/338 1352/4/338
v -2.988557 0.091321 -2.910257
v -3.182925 0.155474 -3.116287
v -3.174339 0.169773 -3.119572
v -2.980302 0.105730 -2.913893
vn 0.554121 -0.487696 -0.674612
f 1353/1/339 1354/2/339 1355/3/339 1356/4/339
v -3.174339 0.169773 -3.119572
v -3.368376 0.244296 -3.325252
v -3.371789 0.258454 -3.316483
v -3.178118 0.184073 -3.111192
vn 0.717368 0.483546 -0.501563
f 1357/1/340 1358/2/340 1359/3/340 1360/4/340
v -3.178118 0.184073 -3.111192
v -3.371789 0.258454 -3.316483
v -3.384154 0.258454 -3.304817
v -3.190484 0.184073 -3.099526
vn 0.174881 0.966982 0.185374
f 1361/1/341 1362/2/341 1363/3/341 1364/4/341
v -3.190484 0.184073 -3.099526
v -3.384154 0.258454 -3.304817
v -3.393107 0.244296 -3.301920
v -3.199070 0.169773 -3.096241
vn -0.542467 0.483546 0.686959
f 1365/1/342 1366/2/342 1367/3/342 1368/4/342
v -3.199070 0.169773 -3.096241
v -3.393107 0.244296 -3.301920
v -3.389694 0.230137 -3.310689
v -3.195291 0.155474 -3.104622
vn -0.717368 -0.483546 0.501563
f 1369/1/343 1370/2/343 1371/3/343 1372/4/343
v -3.195291 0.155474 -3.104622
v -3.389694 0.230137 -3.310689
v -3.377329 0.230137 -3.322355
v -3.182925 0.155474 -3.116287
vn -0.174884 -0.966980 -0.185377
f 1373/1/344 1374/2/344 1375/3/344 1376/4/344
v -3.182925 0.155474 -3.116287
v -3.377329 0.230137 -3.322355
v -3.368376 0.244296 -3.325252
v -3.174339 0.169773 -3.119572
vn 0.542465 -0.483546 -0.686961
f 1377/1/345 1378/2/345 1379/3/345 1380/4/345
v -3.368376 0.244296 -3.325252
v -3.562413 0.331085 -3.530931
v -3.565386 0.345045 -3.521696
v -3.371789 0.258454 -3.316483
vn 0.730602 0.478063 -0.487521
f 1381/1/346 1382/2/346 1383/3/346 1384/4/346
v -3.371789 0.258454 -3.316483
v -3.565386 0.345045 -3.521696
v -3.577752 0.345045 -3.510030
v -3.384154 0.258454 -3.304817
vn 0.201349 0.955984 0.213430
f 1385/1/347 1386/2/347 1387/3/347 1388/4/347
v -3.384154 0.258454 -3.304817
v -3.577752 0.345045 -3.510030
v -3.587144 0.331085 -3.507600
v -3.393107 0.244296 -3.301920
vn -0.529220 0.478064 0.700986
f 1389/1/348 1390/2/348 1391/3/348 1392/4/348
v -3.393107 0.244296 -3.301920
v -3.587144 0.331085 -3.507600
v -3.584171 0.317125 -3.516835
v -3.389694 0.230137 -3.310689
vn -0.730602 -0.478063 0.487521
f 1393/1/349 1394/2/349 1395/3/349 1396/4/349
v -3.389694 0.230137 -3.310689
v -3.584171 0.317125 -3.516835
v -3.571805 0.317125 -3.528500
v -3.377329 0.230137 -3.322355
vn -0.201358 -0.955981 -0.213439
f 1397/1/350 1398/2/350 1399/3/350 1400/4/350
v -3.377329 0.230137 -3.322355
v -3.571805 0.317125 -3.528500
v -3.562413 0.331085 -3.530931
v -3.368376 0.244296 -3.325252
vn 0.529216 -0.478062 -0.700990
f 1401/1/351 1402/2/351 1403/3/351 1404/4/351
v -3.562413 0.331085 -3.530931
v -3.756450 0.433911 -3.736610
v -3.758807 0.447537 -3.726722
v -3.565386 0.345045 -3.521696
vn 0.747178 0.470009 -0.469911
f 1405/1/352 1406/2/352 1407/3/352 1408/4/352
v -3.565386 0.345045 -3.521696
v -3.758807 0.447537 -3.726722
v -3.771173 0.447537 -3.715057
v -3.577752 0.345045 -3.510030
vn 0.234504 0.939797 0.248574
f 1409/1/353 1410/2/353 1411/3/353 1412/4/353
v -3.577752 0.345045 -3.510030
v -3.771173 0.447537 -3.715057
v -3.781181 0.433911 -3.713279
v -3.587144 0.331085 -3.507600
vn -0.512610 0.470013 0.718554
f 1413/1/354 1414/2/354 1415/3/354 1416/4/354
v -3.587144 0.331085 -3.507600
v -3.781181 0.433911 -3.713279
v -3.778824 0.420285 -3.723167
v -3.584171 0.317125 -3.516835
vn -0.747178 -0.470009 0.469911
f 1417/1/355 1418/2/355 1419/3/355 1420/4/355
v -3.584171 0.317125 -3.516835
v -3.778824 0.420285 -3.723167
v -3.766458 0.420285 -3.734832
v -3.571805 0.317125 -3.528500
vn -0.234533 -0.939782 -0.248605
f 1421/1/356 1422/2/356 1423/3/356 1424/4/356
v -3.571805 0.317125 -3.528500
v -3.766458 0.420285 -3.734832
v -3.756450 0.433911 -3.736610
v -3.562413 0.331085 -3.530931
vn 0.512595 -0.470006 -0.718569
f 1425/1/357 1426/2/357 1427/3/357 1428/4/357
v -3.756450 0.433911 -3.736610
v -3.950487 0.562871 -3.942290
v -3.951235 0.575282 -3.930696
v -3.758807 0.447537 -3.726722
vn 0.772277 0.455188 -0.443162
f 1429/1/358 1430/2/358 1431/3/358 1432/4/358
v -3.758807 0.447537 -3.726722
v -3.951235 0.575282 -3.930696
v -3.963601 0.575282 -3.919030
v -3.771173 0.447537 -3.715057
vn 0.284481 0.910021 0.301550
f 1433/1/359 1434/2/359 1435/3/359 1436/4/359
v -3.771173 0.447537 -3.715057
v -3.963601 0.575282 -3.919030
v -3.975218 0.562871 -3.918958
v -3.781181 0.433911 -3.713279
vn -0.487499 0.455272 0.745032
f 1437/1/360 1438/2/360 1439/3/360 1440/4/360
v -3.781181 0.433911 -3.713279
v -3.975218 0.562871 -3.918958
v -3.974470 0.550461 -3.930552
v -3.778824 0.420285 -3.723167
vn -0.772277 -0.455188 0.443162
f 1441/1/361 1442/2/361 1443/3/361 1444/4/361
v -3.778824 0.420285 -3.723167
v -3.974470 0.550461 -3.930552
v -3.962105 0.550461 -3.942218
v -3.766458 0.420285 -3.734832
vn -0.285014 -0.909667 -0.302115
f 1445/1/362 1446/2/362 1447/3/362 1448/4/362
v -3.766458 0.420285 -3.734832
v -3.962105 0.550461 -3.942218
v -3.950487 0.562871 -3.942290
v -3.756450 0.433911 -3.736610
vn 0.487223 -0.455106 -0.745314
f 1449/1/363 1450/2/363 1451/3/363 1452/4/363
v -3.950487 0.562871 -3.942290
v -4.144524 0.805000 -4.147969
v -4.144136 0.816183 -4.135171
v -3.951235 0.575282 -3.930696
vn 0.853198 0.382596 -0.354506
f 1453/1/364 1454/2/364 1455/3/364 1456/4/364
v -3.951235 0.575282 -3.930696
v -4.144136 0.816183 -4.135171
v -4.156502 0.816183 -4.123505
v -3.963601 0.575282 -3.919030
vn 0.446536 0.759320 0.473328
f 1457/1/365 1458/2/365 1459/3/365 1460/4/365
v -3.963601 0.575282 -3.919030
v -4.156502 0.816183 -4.123505
v -4.169255 0.805000 -4.124637
v -3.975218 0.562871 -3.918958
vn -0.403443 0.382484 0.831228
f 1461/1/366 1462/2/366 1463/3/366 1464/4/366
v -3.975218 0.562871 -3.918958
v -4.169255 0.805000 -4.124637
v -4.169644 0.793817 -4.137436
v -3.974470 0.550461 -3.930552
vn -0.853198 -0.382596 0.354506
f 1465/1/367 1466/2/367 1467/3/367 1468/4/367
v -3.974470 0.550461 -3.930552
v -4.169644 0.793817 -4.137436
v -4.157278 0.793817 -4.149101
v -3.962105 0.550461 -3.942218
vn -0.446132 -0.759824 -0.472900
f 1469/1/368 1470/2/368 1471/3/368 1472/4/368
v -3.962105 0.550461 -3.942218
v -4.157278 0.793817 -4.149101
v -4.144524 0.805000 -4.147969
v -3.950487 0.562871 -3.942290
vn 0.403683 -0.382706 -0.831009
f 1473/1/369 1474/2/369 1475/3/369 1476/4/369
v -4.144524 0.805000 -4.147969
v -4.169255 0.805000 -4.124637
v -4.156502 0.816183 -4.123505
v -4.144136 0.816183 -4.135171
vn -0.521235 0.650422 -0.552509
f 1477/1/370 1478/2/370 1479/3/370 1480/4/370
v -4.144524 0.805000 -4.147969
v -4.157278 0.793817 -4.149101
v -4.169644 0.793817 -4.137436
v -4.169255 0.805000 -4.124637
vn -0.521235 0.650422 -0.552509
f 1481/1/371 1482/2/371 1483/3/371 1484/4/371
