# Generated by scripts/gen_pole_light_mounts.py: placeholder geometry, replace with the final model.
mtllib pole_light_mount.mtl
o pole_light_mount_3_right
vt 0 0
vt 1 0
vt 1 1
vt 0 1
usemtl clamp
v 0.312500 0.125000 1.000000
v 0.687500 0.125000 1.000000
v 0.687500 0.875000 1.000000
v 0.312500 0.875000 1.000000
vn 0.000000 0.000000 1.000000
f 1/1/1 2/2/1 3/3/1 4/4/1
v 0.687500 0.125000 0.875000
v 0.312500 0.125000 0.875000
v 0.312500 0.875000 0.875000
v 0.687500 0.875000 0.875000
vn 0.000000 0.000000 -1.000000
f 5/1/2 6/2/2 7/3/2 8/4/2
v 0.687500 0.125000 1.000000
v 0.687500 0.125000 0.875000
v 0.687500 0.875000 0.875000
v 0.687500 0.875000 1.000000
vn 1.000000 -0.000000 0.000000
f 9/1/3 10/2/3 11/3/3 12/4/3
v 0.312500 0.125000 0.875000
v 0.312500 0.125000 1.000000
v 0.312500 0.875000 1.000000
v 0.312500 0.875000 0.875000
vn -1.000000 0.000000 0.000000
f 13/1/4 14/2/4 15/3/4 16/4/4
v 0.312500 0.875000 1.000000
v 0.687500 0.875000 1.000000
v 0.687500 0.875000 0.875000
v 0.312500 0.875000 0.875000
vn -0.000000 1.000000 0.000000
f 17/1/5 18/2/5 19/3/5 20/4/5
v 0.312500 0.125000 0.875000
v 0.687500 0.125000 0.875000
v 0.687500 0.125000 1.000000
v 0.312500 0.125000 1.000000
vn 0.000000 -1.000000 0.000000
f 21/1/6 22/2/6 23/3/6 24/4/6
usemtl metal
v 0.550000 0.400000 0.950000
v 0.547745 0.400000 0.914847
v 0.530046 0.433068 0.922445
v 0.535355 0.435355 0.950000
vn 0.922261 0.382013 -0.059167
f 25/1/7 26/2/7 27/3/7 28/4/7
v 0.535355 0.435355 0.950000
v 0.530046 0.433068 0.922445
v 0.494746 0.446765 0.916895
v 0.500000 0.450000 0.950000
vn 0.378425 0.913600 -0.148760
f 29/1/8 30/2/8 31/3/8 32/4/8
v 0.500000 0.450000 0.950000
v 0.494746 0.446765 0.916895
v 0.462524 0.433068 0.901448
v 0.464645 0.435355 0.950000
vn -0.382516 0.923476 -0.029535
f 33/1/9 34/2/9 35/3/9 36/4/9
v 0.464645 0.435355 0.950000
v 0.462524 0.433068 0.901448
v 0.452255 0.400000 0.885153
v 0.450000 0.400000 0.950000
vn -0.923650 0.382588 0.022310
f 37/1/10 38/2/10 39/3/10 40/4/10
v 0.450000 0.400000 0.950000
v 0.452255 0.400000 0.885153
v 0.469954 0.366932 0.877555
v 0.464645 0.364645 0.950000
vn -0.923403 -0.382486 -0.032114
f 41/1/11 42/2/11 43/3/11 44/4/11
v 0.464645 0.364645 0.950000
v 0.469954 0.366932 0.877555
v 0.505254 0.353235 0.883105
v 0.500000 0.350000 0.950000
vn -0.382059 -0.922371 -0.057126
f 45/1/12 46/2/12 47/3/12 48/4/12
v 0.500000 0.350000 0.950000
v 0.505254 0.353235 0.883105
v 0.537476 0.366932 0.898552
v 0.535355 0.364645 0.950000
vn 0.382643 -0.923781 -0.014622
f 49/1/13 50/2/13 51/3/13 52/4/13
v 0.535355 0.364645 0.950000
v 0.537476 0.366932 0.898552
v 0.547745 0.400000 0.914847
v 0.550000 0.400000 0.950000
vn 0.923675 -0.382599 0.021055
f 53/1/14 54/2/14 55/3/14 56/4/14
v 0.547745 0.400000 0.914847
v 0.658404 0.552883 0.788017
v 0.633834 0.581467 0.794626
v 0.530046 0.433068 0.922445
vn 0.634835 0.166428 0.754511
f 57/1/15 58/2/15 59/3/15 60/4/15
v 0.530046 0.433068 0.922445
v 0.633834 0.581467 0.794626
v 0.601155 0.593307 0.778614
v 0.494746 0.446765 0.916895
vn 0.109949 0.603394 0.789827
f 61/1/16 62/2/16 63/3/16 64/4/16
v 0.494746 0.446765 0.916895
v 0.601155 0.593307 0.778614
v 0.579512 0.581467 0.749359
v 0.462524 0.433068 0.901448
vn -0.515123 0.755694 0.404444
f 65/1/17 66/2/17 67/3/17 68/4/17
v 0.462524 0.433068 0.901448
v 0.579512 0.581467 0.749359
v 0.581582 0.552883 0.723999
v 0.452255 0.400000 0.885153
vn -0.871719 0.405945 -0.274435
f 69/1/18 70/2/18 71/3/18 72/4/18
v 0.452255 0.400000 0.885153
v 0.581582 0.552883 0.723999
v 0.606153 0.524298 0.717389
v 0.469954 0.366932 0.877555
vn -0.668111 -0.192457 -0.718741
f 73/1/19 74/2/19 75/3/19 76/4/19
v 0.469954 0.366932 0.877555
v 0.606153 0.524298 0.717389
v 0.638831 0.512458 0.733402
v 0.505254 0.353235 0.883105
vn -0.133456 -0.647836 -0.749999
f 77/1/20 78/2/20 79/3/20 80/4/20
v 0.505254 0.353235 0.883105
v 0.638831 0.512458 0.733402
v 0.660475 0.524298 0.762657
v 0.537476 0.366932 0.898552
vn 0.508487 -0.776492 -0.372158
f 81/1/21 82/2/21 83/3/21 84/4/21
v 0.537476 0.366932 0.898552
v 0.660475 0.524298 0.762657
v 0.658404 0.552883 0.788017
v 0.547745 0.400000 0.914847
vn 0.859820 -0.414168 0.298620
f 85/1/22 86/2/22 87/3/22 88/4/22
v 0.658404 0.552883 0.788017
v 0.778398 0.674146 0.644025
v 0.756095 0.705000 0.647913
v 0.633834 0.581467 0.794626
vn 0.576339 0.321719 0.751220
f 89/1/23 90/2/23 91/3/23 92/4/23
v 0.633834 0.581467 0.794626
v 0.756095 0.705000 0.647913
v 0.724356 0.717779 0.630773
v 0.601155 0.593307 0.778614
vn -0.027698 0.775910 0.630235
f 93/1/24 94/2/24 95/3/24 96/4/24
v 0.601155 0.593307 0.778614
v 0.724356 0.717779 0.630773
v 0.701773 0.705000 0.602645
v 0.579512 0.581467 0.749359
vn -0.614891 0.775927 0.140874
f 97/1/25 98/2/25 99/3/25 100/4/25
v 0.579512 0.581467 0.749359
v 0.701773 0.705000 0.602645
v 0.701576 0.674146 0.580007
v 0.581582 0.552883 0.723999
vn -0.842817 0.321738 -0.431444
f 101/1/26 102/2/26 103/3/26 104/4/26
v 0.581582 0.552883 0.723999
v 0.701576 0.674146 0.580007
v 0.723879 0.643293 0.576118
v 0.606153 0.524298 0.717389
vn -0.576339 -0.321719 -0.751220
f 105/1/27 106/2/27 107/3/27 108/4/27
v 0.606153 0.524298 0.717389
v 0.723879 0.643293 0.576118
v 0.755618 0.630513 0.593259
v 0.638831 0.512458 0.733402
vn 0.027781 -0.775823 -0.630338
f 109/1/28 110/2/28 111/3/28 112/4/28
v 0.638831 0.512458 0.733402
v 0.755618 0.630513 0.593259
v 0.778200 0.643293 0.621386
v 0.660475 0.524298 0.762657
vn 0.615014 -0.775805 -0.141014
f 113/1/29 114/2/29 115/3/29 116/4/29
v 0.660475 0.524298 0.762657
v 0.778200 0.643293 0.621386
v 0.778398 0.674146 0.644025
v 0.658404 0.552883 0.788017
vn 0.842852 -0.321699 0.431404
f 117/1/30 118/2/30 119/3/30 120/4/30
v 0.778398 0.674146 0.644025
v 0.898391 0.763791 0.500033
v 0.878889 0.796713 0.500560
v 0.756095 0.705000 0.647913
vn 0.603642 0.345836 0.718341
f 121/1/31 122/2/31 123/3/31 124/4/31
v 0.756095 0.705000 0.647913
v 0.878889 0.796713 0.500560
v 0.848311 0.810350 0.482027
v 0.724356 0.717779 0.630773
vn 0.038257 0.833752 0.550812
f 125/1/32 126/2/32 127/3/32 128/4/32
v 0.724356 0.717779 0.630773
v 0.848311 0.810350 0.482027
v 0.824568 0.796713 0.455292
v 0.701773 0.705000 0.602645
vn -0.548659 0.833768 0.061672
f 129/1/33 130/2/33 131/3/33 132/4/33
v 0.701773 0.705000 0.602645
v 0.824568 0.796713 0.455292
v 0.821569 0.763791 0.436014
v 0.701576 0.674146 0.580007
vn -0.815396 0.345855 -0.464235
f 133/1/34 134/2/34 135/3/34 136/4/34
v 0.701576 0.674146 0.580007
v 0.821569 0.763791 0.436014
v 0.841071 0.730869 0.435488
v 0.723879 0.643293 0.576118
vn -0.603642 -0.345836 -0.718341
f 137/1/35 138/2/35 139/3/35 140/4/35
v 0.723879 0.643293 0.576118
v 0.841071 0.730869 0.435488
v 0.871650 0.717232 0.454020
v 0.755618 0.630513 0.593259
vn -0.038150 -0.833668 -0.550947
f 141/1/36 142/2/36 143/3/36 144/4/36
v 0.755618 0.630513 0.593259
v 0.871650 0.717232 0.454020
v 0.895393 0.730869 0.480756
v 0.778200 0.643293 0.621386
vn 0.548820 -0.833649 -0.061855
f 145/1/37 146/2/37 147/3/37 148/4/37
v 0.778200 0.643293 0.621386
v 0.895393 0.730869 0.480756
v 0.898391 0.763791 0.500033
v 0.778398 0.674146 0.644025
vn 0.815442 -0.345817 0.464182
f 149/1/38 150/2/38 151/3/38 152/4/38
v 0.898391 0.763791 0.500033
v 1.018385 0.821817 0.356041
v 1.002193 0.856320 0.352595
v 0.878889 0.796713 0.500560
vn 0.636851 0.366398 0.678360
f 153/1/39 154/2/39 155/3/39 156/4/39
v 0.878889 0.796713 0.500560
v 1.002193 0.856320 0.352595
v 0.972985 0.870611 0.332417
v 0.848311 0.810350 0.482027
vn 0.118391 0.882926 0.454340
f 157/1/40 158/2/40 159/3/40 160/4/40
v 0.848311 0.810350 0.482027
v 0.972985 0.870611 0.332417
v 0.947872 0.856320 0.307327
v 0.824568 0.796713 0.455292
vn -0.468218 0.882937 -0.034546
f 161/1/41 162/2/41 163/3/41 164/4/41
v 0.824568 0.796713 0.455292
v 0.947872 0.856320 0.307327
v 0.941563 0.821817 0.292022
v 0.821569 0.763791 0.436014
vn -0.782059 0.366411 -0.504110
f 165/1/42 166/2/42 167/3/42 168/4/42
v 0.821569 0.763791 0.436014
v 0.941563 0.821817 0.292022
v 0.957754 0.787315 0.295468
v 0.841071 0.730869 0.435488
vn -0.636851 -0.366398 -0.678360
f 169/1/43 170/2/43 171/3/43 172/4/43
v 0.841071 0.730869 0.435488
v 0.957754 0.787315 0.295468
v 0.986962 0.773023 0.315646
v 0.871650 0.717232 0.454020
vn -0.118284 -0.882870 -0.454477
f 173/1/44 174/2/44 175/3/44 176/4/44
v 0.871650 0.717232 0.454020
v 0.986962 0.773023 0.315646
v 1.012076 0.787315 0.340736
v 0.895393 0.730869 0.480756
vn 0.468381 -0.882858 0.034361
f 177/1/45 178/2/45 179/3/45 180/4/45
v 0.895393 0.730869 0.480756
v 1.012076 0.787315 0.340736
v 1.018385 0.821817 0.356041
v 0.898391 0.763791 0.500033
vn 0.782106 -0.366384 0.504056
f 181/1/46 182/2/46 183/3/46 184/4/46
v 1.018385 0.821817 0.356041
v 1.138378 0.848224 0.212049
v 1.125438 0.883481 0.204701
v 1.002193 0.856320 0.352595
vn 0.675138 0.379982 0.632300
f 185/1/47 186/2/47 187/3/47 188/4/47
v 1.002193 0.856320 0.352595
v 1.125438 0.883481 0.204701
v 1.097578 0.898085 0.182907
v 0.972985 0.870611 0.332417
vn 0.210518 0.915247 0.343519
f 189/1/48 190/2/48 191/3/48 192/4/48
v 0.972985 0.870611 0.332417
v 1.097578 0.898085 0.182907
v 1.071117 0.883481 0.159433
v 0.947872 0.856320 0.307327
vn -0.375897 0.915236 -0.145067
f 193/1/49 194/2/49 195/3/49 196/4/49
v 0.947872 0.856320 0.307327
v 1.071117 0.883481 0.159433
v 1.061556 0.848224 0.148030
v 0.941563 0.821817 0.292022
vn -0.743730 0.379966 -0.549993
f 197/1/50 198/2/50 199/3/50 200/4/50
v 0.941563 0.821817 0.292022
v 1.061556 0.848224 0.148030
v 1.074496 0.812967 0.155378
v 0.957754 0.787315 0.295468
vn -0.675138 -0.379982 -0.632300
f 201/1/51 202/2/51 203/3/51 204/4/51
v 0.957754 0.787315 0.295468
v 1.074496 0.812967 0.155378
v 1.102357 0.798364 0.177172
v 0.986962 0.773023 0.315646
vn -0.210746 -0.915303 -0.343229
f 205/1/52 206/2/52 207/3/52 208/4/52
v 0.986962 0.773023 0.315646
v 1.102357 0.798364 0.177172
v 1.128817 0.812967 0.200646
v 1.012076 0.787315 0.340736
vn 0.375551 -0.915316 0.145459
f 209/1/53 210/2/53 211/3/53 212/4/53
v 1.012076 0.787315 0.340736
v 1.128817 0.812967 0.200646
v 1.138378 0.848224 0.212049
v 1.018385 0.821817 0.356041
vn 0.743629 -0.379998 0.550107
f 213/1/54 214/2/54 215/3/54 216/4/54
v 1.138378 0.848224 0.212049
v 1.258372 0.850000 0.068057
v 1.247014 0.885355 0.058810
v 1.125438 0.883481 0.204701
vn 0.707197 0.383362 0.594059
f 217/1/55 218/2/55 219/3/55 220/4/55
v 1.125438 0.883481 0.204701
v 1.247014 0.885355 0.058810
v 1.219809 0.899999 0.036229
v 1.097578 0.898085 0.182907
vn 0.287619 0.924119 0.251554
f 221/1/56 222/2/56 223/3/56 224/4/56
v 1.097578 0.898085 0.182907
v 1.219809 0.899999 0.036229
v 1.192693 0.885355 0.013542
v 1.071117 0.883481 0.159433
vn -0.299394 0.924116 -0.237430
f 225/1/57 226/2/57 227/3/57 228/4/57
v 1.071117 0.883481 0.159433
v 1.192693 0.885355 0.013542
v 1.181549 0.850000 0.004038
v 1.061556 0.848224 0.148030
vn -0.711947 0.383353 -0.588364
f 229/1/58 230/2/58 231/3/58 232/4/58
v 1.061556 0.848224 0.148030
v 1.181549 0.850000 0.004038
v 1.192907 0.814645 0.013285
v 1.074496 0.812967 0.155378
vn -0.707197 -0.383362 -0.594059
f 233/1/59 234/2/59 235/3/59 236/4/59
v 1.074496 0.812967 0.155378
v 1.192907 0.814645 0.013285
v 1.220112 0.800001 0.035865
v 1.102357 0.798364 0.177172
vn -0.288079 -0.924133 -0.250977
f 237/1/60 238/2/60 239/3/60 240/4/60
v 1.102357 0.798364 0.177172
v 1.220112 0.800001 0.035865
v 1.247228 0.814645 0.058553
v 1.128817 0.812967 0.200646
vn 0.298707 -0.924136 0.238217
f 241/1/61 242/2/61 243/3/61 244/4/61
v 1.128817 0.812967 0.200646
v 1.247228 0.814645 0.058553
v 1.258372 0.850000 0.068057
v 1.138378 0.848224 0.212049
vn 0.711746 -0.383372 0.588595
f 245/1/62 246/2/62 247/3/62 248/4/62
v 1.258372 0.850000 0.068057
v 1.378365 0.850000 -0.075935
v 1.367115 0.885355 -0.085311
v 1.247014 0.885355 0.058810
vn 0.709743 0.382687 0.591452
f 249/1/63 250/2/63 251/3/63 252/4/63
v 1.247014 0.885355 0.058810
v 1.367115 0.885355 -0.085311
v 1.339954 0.900000 -0.107945
v 1.219809 0.899999 0.036229
vn 0.293981 0.923881 0.244987
f 253/1/64 254/2/64 255/3/64 256/4/64
v 1.219809 0.899999 0.036229
v 1.339954 0.900000 -0.107945
v 1.312793 0.885355 -0.130579
v 1.192693 0.885355 0.013542
vn -0.293985 0.923881 -0.244983
f 257/1/65 258/2/65 259/3/65 260/4/65
v 1.192693 0.885355 0.013542
v 1.312793 0.885355 -0.130579
v 1.301543 0.850000 -0.139954
v 1.181549 0.850000 0.004038
vn -0.709743 0.382687 -0.591452
f 261/1/66 262/2/66 263/3/66 264/4/66
v 1.181549 0.850000 0.004038
v 1.301543 0.850000 -0.139954
v 1.312793 0.814645 -0.130579
v 1.192907 0.814645 0.013285
vn -0.709743 -0.382687 -0.591452
f 265/1/67 266/2/67 267/3/67 268/4/67
v 1.192907 0.814645 0.013285
v 1.312793 0.814645 -0.130579
v 1.339954 0.800000 -0.107945
v 1.220112 0.800001 0.035865
vn -0.293984 -0.923881 -0.244984
f 269/1/68 270/2/68 271/3/68 272/4/68
v 1.220112 0.800001 0.035865
v 1.339954 0.800000 -0.107945
v 1.367115 0.814645 -0.085311
v 1.247228 0.814645 0.058553
vn 0.293981 -0.923881 0.244988
f 273/1/69 274/2/69 275/3/69 276/4/69
v 1.247228 0.814645 0.058553
v 1.367115 0.814645 -0.085311
v 1.378365 0.850000 -0.075935
v 1.258372 0.850000 0.068057
vn 0.709742 -0.382687 0.591453
f 277/1/70 278/2/70 279/3/70 280/4/70
v 1.378365 0.850000 -0.075935
v 1.498358 0.850000 -0.219928
v 1.487108 0.885355 -0.229303
v 1.367115 0.885355 -0.085311
vn 0.709744 0.382683 0.591453
f 281/1/71 282/2/71 283/3/71 284/4/71
v 1.367115 0.885355 -0.085311
v 1.487108 0.885355 -0.229303
v 1.459947 0.900000 -0.251937
v 1.339954 0.900000 -0.107945
vn 0.293986 0.923880 0.244988
f 285/1/72 286/2/72 287/3/72 288/4/72
v 1.339954 0.900000 -0.107945
v 1.459947 0.900000 -0.251937
v 1.432787 0.885355 -0.274571
v 1.312793 0.885355 -0.130579
vn -0.293986 0.923880 -0.244988
f 289/1/73 290/2/73 291/3/73 292/4/73
v 1.312793 0.885355 -0.130579
v 1.432787 0.885355 -0.274571
v 1.421536 0.850000 -0.283946
v 1.301543 0.850000 -0.139954
vn -0.709744 0.382683 -0.591453
f 293/1/74 294/2/74 295/3/74 296/4/74
v 1.301543 0.850000 -0.139954
v 1.421536 0.850000 -0.283946
v 1.432787 0.814645 -0.274571
v 1.312793 0.814645 -0.130579
vn -0.709744 -0.382683 -0.591453
f 297/1/75 298/2/75 299/3/75 300/4/75
v 1.312793 0.814645 -0.130579
v 1.432787 0.814645 -0.274571
v 1.459947 0.800000 -0.251937
v 1.339954 0.800000 -0.107945
vn -0.293986 -0.923880 -0.244988
f 301/1/76 302/2/76 303/3/76 304/4/76
v 1.339954 0.800000 -0.107945
v 1.459947 0.800000 -0.251937
v 1.487108 0.814645 -0.229303
v 1.367115 0.814645 -0.085311
vn 0.293986 -0.923880 0.244988
f 305/1/77 306/2/77 307/3/77 308/4/77
v 1.367115 0.814645 -0.085311
v 1.487108 0.814645 -0.229303
v 1.498358 0.850000 -0.219928
v 1.378365 0.850000 -0.075935
vn 0.709744 -0.382683 0.591453
f 309/1/78 310/2/78 311/3/78 312/4/78
v 1.498358 0.850000 -0.219928
v 1.618352 0.850000 -0.363920
v 1.607101 0.885355 -0.373295
v 1.487108 0.885355 -0.229303
vn 0.709744 0.382683 0.591453
f 313/1/79 314/2/79 315/3/79 316/4/79
v 1.487108 0.885355 -0.229303
v 1.607101 0.885355 -0.373295
v 1.579941 0.900000 -0.395929
v 1.459947 0.900000 -0.251937
vn 0.293986 0.923880 0.244988
f 317/1/80 318/2/80 319/3/80 320/4/80
v 1.459947 0.900000 -0.251937
v 1.579941 0.900000 -0.395929
v 1.552780 0.885355 -0.418563
v 1.432787 0.885355 -0.274571
vn -0.293986 0.923880 -0.244988
f 321/1/81 322/2/81 323/3/81 324/4/81
v 1.432787 0.885355 -0.274571
v 1.552780 0.885355 -0.418563
v 1.541530 0.850000 -0.427938
v 1.421536 0.850000 -0.283946
vn -0.709744 0.382683 -0.591453
f 325/1/82 326/2/82 327/3/82 328/4/82
v 1.421536 0.850000 -0.283946
v 1.541530 0.850000 -0.427938
v 1.552780 0.814645 -0.418563
v 1.432787 0.814645 -0.274571
vn -0.709744 -0.382683 -0.591453
f 329/1/83 330/2/83 331/3/83 332/4/83
v 1.432787 0.814645 -0.274571
v 1.552780 0.814645 -0.418563
v 1.579941 0.800000 -0.395929
v 1.459947 0.800000 -0.251937
vn -0.293986 -0.923880 -0.244988
f 333/1/84 334/2/84 335/3/84 336/4/84
v 1.459947 0.800000 -0.251937
v 1.579941 0.800000 -0.395929
v 1.607101 0.814645 -0.373295
v 1.487108 0.814645 -0.229303
vn 0.293986 -0.923880 0.244988
f 337/1/85 338/2/85 339/3/85 340/4/85
v 1.487108 0.814645 -0.229303
v 1.607101 0.814645 -0.373295
v 1.618352 0.850000 -0.363920
v 1.498358 0.850000 -0.219928
vn 0.709744 -0.382683 0.591453
f 341/1/86 342/2/86 343/3/86 344/4/86
v 1.618352 0.850000 -0.363920
v 1.738345 0.850000 -0.507912
v 1.727095 0.885355 -0.517287
v 1.607101 0.885355 -0.373295
vn 0.709744 0.382683 0.591453
f 345/1/87 346/2/87 347/3/87 348/4/87
v 1.607101 0.885355 -0.373295
v 1.727095 0.885355 -0.517287
v 1.699934 0.900000 -0.539921
v 1.579941 0.900000 -0.395929
vn 0.293986 0.923880 0.244988
f 349/1/88 350/2/88 351/3/88 352/4/88
v 1.579941 0.900000 -0.395929
v 1.699934 0.900000 -0.539921
v 1.672773 0.885355 -0.562555
v 1.552780 0.885355 -0.418563
vn -0.293986 0.923880 -0.244988
f 353/1/89 354/2/89 355/3/89 356/4/89
v 1.552780 0.885355 -0.418563
v 1.672773 0.885355 -0.562555
v 1.661523 0.850000 -0.571930
v 1.541530 0.850000 -0.427938
vn -0.709744 0.382683 -0.591453
f 357/1/90 358/2/90 359/3/90 360/4/90
v 1.541530 0.850000 -0.427938
v 1.661523 0.850000 -0.571930
v 1.672773 0.814645 -0.562555
v 1.552780 0.814645 -0.418563
vn -0.709744 -0.382683 -0.591453
f 361/1/91 362/2/91 363/3/91 364/4/91
v 1.552780 0.814645 -0.418563
v 1.672773 0.814645 -0.562555
v 1.699934 0.800000 -0.539921
v 1.579941 0.800000 -0.395929
vn -0.293986 -0.923880 -0.244988
f 365/1/92 366/2/92 367/3/92 368/4/92
v 1.579941 0.800000 -0.395929
v 1.699934 0.800000 -0.539921
v 1.727095 0.814645 -0.517287
v 1.607101 0.814645 -0.373295
vn 0.293986 -0.923880 0.244988
f 369/1/93 370/2/93 371/3/93 372/4/93
v 1.607101 0.814645 -0.373295
v 1.727095 0.814645 -0.517287
v 1.738345 0.850000 -0.507912
v 1.618352 0.850000 -0.363920
vn 0.709744 -0.382683 0.591453
f 373/1/94 374/2/94 375/3/94 376/4/94
v 1.738345 0.850000 -0.507912
v 1.858339 0.850000 -0.651904
v 1.847088 0.885355 -0.661279
v 1.727095 0.885355 -0.517287
vn 0.709744 0.382683 0.591453
f 377/1/95 378/2/95 379/3/95 380/4/95
v 1.727095 0.885355 -0.517287
v 1.847088 0.885355 -0.661279
v 1.819928 0.900000 -0.683913
v 1.699934 0.900000 -0.539921
vn 0.293986 0.923880 0.244988
f 381/1/96 382/2/96 383/3/96 384/4/96
v 1.699934 0.900000 -0.539921
v 1.819928 0.900000 -0.683913
v 1.792767 0.885355 -0.706547
v 1.672773 0.885355 -0.562555
vn -0.293986 0.923880 -0.244988
f 385/1/97 386/2/97 387/3/97 388/4/97
v 1.672773 0.885355 -0.562555
v 1.792767 0.885355 -0.706547
v 1.781516 0.850000 -0.715922
v 1.661523 0.850000 -0.571930
vn -0.709744 0.382683 -0.591453
f 389/1/98 390/2/98 391/3/98 392/4/98
v 1.661523 0.850000 -0.571930
v 1.781516 0.850000 -0.715922
v 1.792767 0.814645 -0.706547
v 1.672773 0.814645 -0.562555
vn -0.709744 -0.382683 -0.591453
f 393/1/99 394/2/99 395/3/99 396/4/99
v 1.672773 0.814645 -0.562555
v 1.792767 0.814645 -0.706547
v 1.819928 0.800000 -0.683913
v 1.699934 0.800000 -0.539921
vn -0.293986 -0.923880 -0.244988
f 397/1/100 398/2/100 399/3/100 400/4/100
v 1.699934 0.800000 -0.539921
v 1.819928 0.800000 -0.683913
v 1.847088 0.814645 -0.661279
v 1.727095 0.814645 -0.517287
vn 0.293986 -0.923880 0.244988
f 401/1/101 402/2/101 403/3/101 404/4/101
v 1.727095 0.814645 -0.517287
v 1.847088 0.814645 -0.661279
v 1.858339 0.850000 -0.651904
v 1.738345 0.850000 -0.507912
vn 0.709744 -0.382683 0.591453
f 405/1/102 406/2/102 407/3/102 408/4/102
v 1.858339 0.850000 -0.651904
v 1.978332 0.850000 -0.795896
v 1.967082 0.885355 -0.805271
v 1.847088 0.885355 -0.661279
vn 0.709744 0.382683 0.591453
f 409/1/103 410/2/103 411/3/103 412/4/103
v 1.847088 0.885355 -0.661279
v 1.967082 0.885355 -0.805271
v 1.939921 0.900000 -0.827905
v 1.819928 0.900000 -0.683913
vn 0.293986 0.923880 0.244988
f 413/1/104 414/2/104 415/3/104 416/4/104
v 1.819928 0.900000 -0.683913
v 1.939921 0.900000 -0.827905
v 1.912760 0.885355 -0.850539
v 1.792767 0.885355 -0.706547
vn -0.293986 0.923880 -0.244988
f 417/1/105 418/2/105 419/3/105 420/4/105
v 1.792767 0.885355 -0.706547
v 1.912760 0.885355 -0.850539
v 1.901510 0.850000 -0.859914
v 1.781516 0.850000 -0.715922
vn -0.709744 0.382683 -0.591453
f 421/1/106 422/2/106 423/3/106 424/4/106
v 1.781516 0.850000 -0.715922
v 1.901510 0.850000 -0.859914
v 1.912760 0.814645 -0.850539
v 1.792767 0.814645 -0.706547
vn -0.709744 -0.382683 -0.591453
f 425/1/107 426/2/107 427/3/107 428/4/107
v 1.792767 0.814645 -0.706547
v 1.912760 0.814645 -0.850539
v 1.939921 0.800000 -0.827905
v 1.819928 0.800000 -0.683913
vn -0.293986 -0.923880 -0.244988
f 429/1/108 430/2/108 431/3/108 432/4/108
v 1.819928 0.800000 -0.683913
v 1.939921 0.800000 -0.827905
v 1.967082 0.814645 -0.805271
v 1.847088 0.814645 -0.661279
vn 0.293986 -0.923880 0.244988
f 433/1/109 434/2/109 435/3/109 436/4/109
v 1.847088 0.814645 -0.661279
v 1.967082 0.814645 -0.805271
v 1.978332 0.850000 -0.795896
v 1.858339 0.850000 -0.651904
vn 0.709744 -0.382683 0.591453
f 437/1/110 438/2/110 439/3/110 440/4/110
v 1.978332 0.850000 -0.795896
v 2.098325 0.850000 -0.939888
v 2.087075 0.885355 -0.949263
v 1.967082 0.885355 -0.805271
vn 0.709744 0.382683 0.591453
f 441/1/111 442/2/111 443/3/111 444/4/111
v 1.967082 0.885355 -0.805271
v 2.087075 0.885355 -0.949263
v 2.059914 0.900000 -0.971897
v 1.939921 0.900000 -0.827905
vn 0.293986 0.923880 0.244988
f 445/1/112 446/2/112 447/3/112 448/4/112
v 1.939921 0.900000 -0.827905
v 2.059914 0.900000 -0.971897
v 2.032754 0.885355 -0.994531
v 1.912760 0.885355 -0.850539
vn -0.293986 0.923880 -0.244988
f 449/1/113 450/2/113 451/3/113 452/4/113
v 1.912760 0.885355 -0.850539
v 2.032754 0.885355 -0.994531
v 2.021503 0.850000 -1.003906
v 1.901510 0.850000 -0.859914
vn -0.709744 0.382683 -0.591453
f 453/1/114 454/2/114 455/3/114 456/4/114
v 1.901510 0.850000 -0.859914
v 2.021503 0.850000 -1.003906
v 2.032754 0.814645 -0.994531
v 1.912760 0.814645 -0.850539
vn -0.709744 -0.382683 -0.591453
f 457/1/115 458/2/115 459/3/115 460/4/115
v 1.912760 0.814645 -0.850539
v 2.032754 0.814645 -0.994531
v 2.059914 0.800000 -0.971897
v 1.939921 0.800000 -0.827905
vn -0.293986 -0.923880 -0.244988
f 461/1/116 462/2/116 463/3/116 464/4/116
v 1.939921 0.800000 -0.827905
v 2.059914 0.800000 -0.971897
v 2.087075 0.814645 -0.949263
v 1.967082 0.814645 -0.805271
vn 0.293986 -0.923880 0.244988
f 465/1/117 466/2/117 467/3/117 468/4/117
v 1.967082 0.814645 -0.805271
v 2.087075 0.814645 -0.949263
v 2.098325 0.850000 -0.939888
v 1.978332 0.850000 -0.795896
vn 0.709744 -0.382683 0.591453
f 469/1/118 470/2/118 471/3/118 472/4/118
v 2.098325 0.850000 -0.939888
v 2.218319 0.850000 -1.083880
v 2.207069 0.885355 -1.093255
v 2.087075 0.885355 -0.949263
vn 0.709744 0.382683 0.591453
f 473/1/119 474/2/119 475/3/119 476/4/119
v 2.087075 0.885355 -0.949263
v 2.207069 0.885355 -1.093255
v 2.179908 0.900000 -1.115889
v 2.059914 0.900000 -0.971897
vn 0.293986 0.923880 0.244988
f 477/1/120 478/2/120 479/3/120 480/4/120
v 2.059914 0.900000 -0.971897
v 2.179908 0.900000 -1.115889
v 2.152747 0.885355 -1.138523
v 2.032754 0.885355 -0.994531
vn -0.293986 0.923880 -0.244988
f 481/1/121 482/2/121 483/3/121 484/4/121
v 2.032754 0.885355 -0.994531
v 2.152747 0.885355 -1.138523
v 2.141497 0.850000 -1.147899
v 2.021503 0.850000 -1.003906
vn -0.709744 0.382683 -0.591453
f 485/1/122 486/2/122 487/3/122 488/4/122
v 2.021503 0.850000 -1.003906
v 2.141497 0.850000 -1.147899
v 2.152747 0.814645 -1.138523
v 2.032754 0.814645 -0.994531
vn -0.709744 -0.382683 -0.591453
f 489/1/123 490/2/123 491/3/123 492/4/123
v 2.032754 0.814645 -0.994531
v 2.152747 0.814645 -1.138523
v 2.179908 0.800000 -1.115889
v 2.059914 0.800000 -0.971897
vn -0.293986 -0.923880 -0.244988
f 493/1/124 494/2/124 495/3/124 496/4/124
v 2.059914 0.800000 -0.971897
v 2.179908 0.800000 -1.115889
v 2.207069 0.814645 -1.093255
v 2.087075 0.814645 -0.949263
vn 0.293986 -0.923880 0.244988
f 497/1/125 498/2/125 499/3/125 500/4/125
v 2.087075 0.814645 -0.949263
v 2.207069 0.814645 -1.093255
v 2.218319 0.850000 -1.083880
v 2.098325 0.850000 -0.939888
vn 0.709744 -0.382683 0.591453
f 501/1/126 502/2/126 503/3/126 504/4/126
v 2.218319 0.850000 -1.083880
v 2.152747 0.885355 -1.138523
v 2.179908 0.900000 -1.115889
v 2.207069 0.885355 -1.093255
vn 0.640184 0.000000 -0.768221
f 505/1/127 506/2/127 507/3/127 508/4/127
v 2.218319 0.850000 -1.083880
v 2.152747 0.814645 -1.138523
v 2.141497 0.850000 -1.147899
v 2.152747 0.885355 -1.138523
vn 0.640184 0.000000 -0.768221
f 509/1/128 510/2/128 511/3/128 512/4/128
v 2.218319 0.850000 -1.083880
v 2.207069 0.814645 -1.093255
v 2.179908 0.800000 -1.115889
v 2.152747 0.814645 -1.138523
vn 0.640184 -0.000000 -0.768221
f 513/1/129 514/2/129 515/3/129 516/4/129
v 0.523807 0.160000 0.968254
v 1.003781 0.821817 0.342286
v 0.988511 0.838068 0.347760
v 0.508538 0.176251 0.973728
vn 0.583492 0.293165 0.757358
f 517/1/130 518/2/130 519/3/130 520/4/130
v 0.508538 0.176251 0.973728
v 0.988511 0.838068 0.347760
v 0.968241 0.844799 0.339334
v 0.488267 0.182982 0.965302
vn -0.057646 0.707763 0.704094
f 521/1/131 522/2/131 523/3/131 524/4/131
v 0.488267 0.182982 0.965302
v 0.968241 0.844799 0.339334
v 0.954843 0.838068 0.321944
v 0.474869 0.176251 0.947912
vn -0.665016 0.707763 0.238382
f 525/1/132 526/2/132 527/3/132 528/4/132
v 0.474869 0.176251 0.947912
v 0.954843 0.838068 0.321944
v 0.956167 0.821817 0.305777
v 0.476193 0.160000 0.931746
vn -0.882828 0.293165 -0.366972
f 529/1/133 530/2/133 531/3/133 532/4/133
v 0.476193 0.160000 0.931746
v 0.956167 0.821817 0.305777
v 0.971436 0.805566 0.300304
v 0.491462 0.143749 0.926272
vn -0.583492 -0.293165 -0.757358
f 533/1/134 534/2/134 535/3/134 536/4/134
v 0.491462 0.143749 0.926272
v 0.971436 0.805566 0.300304
v 0.991707 0.798835 0.308730
v 0.511733 0.137018 0.934698
vn 0.057646 -0.707763 -0.704094
f 537/1/135 538/2/135 539/3/135 540/4/135
v 0.511733 0.137018 0.934698
v 0.991707 0.798835 0.308730
v 1.005104 0.805566 0.326119
v 0.525131 0.143749 0.952088
vn 0.665016 -0.707763 -0.238382
f 541/1/136 542/2/136 543/3/136 544/4/136
v 0.525131 0.143749 0.952088
v 1.005104 0.805566 0.326119
v 1.003781 0.821817 0.342286
v 0.523807 0.160000 0.968254
vn 0.882828 -0.293165 0.366972
f 545/1/137 546/2/137 547/3/137 548/4/137
v 1.003781 0.821817 0.342286
v 0.954843 0.838068 0.321944
v 0.968241 0.844799 0.339334
v 0.988511 0.838068 0.347760
vn 0.466145 0.642749 -0.607933
f 549/1/138 550/2/138 551/3/138 552/4/138
v 1.003781 0.821817 0.342286
v 0.971436 0.805566 0.300304
v 0.956167 0.821817 0.305777
v 0.954843 0.838068 0.321944
vn 0.466145 0.642749 -0.607933
f 553/1/139 554/2/139 555/3/139 556/4/139
v 1.003781 0.821817 0.342286
v 1.005104 0.805566 0.326119
v 0.991707 0.798835 0.308730
v 0.971436 0.805566 0.300304
vn 0.466145 0.642749 -0.607933
f 557/1/140 558/2/140 559/3/140 560/4/140
