# Generated by scripts/gen_pole_light_mounts.py
mtllib pole_light_mount.mtl
o pole_light_mount_5_right_wired
vt 0 0
vt 1 0
vt 1 1
vt 0 1
usemtl clamp
v 0.312500 0.062500 1.000000
v 0.687500 0.062500 1.000000
v 0.687500 0.937500 1.000000
v 0.312500 0.937500 1.000000
vn 0.000000 0.000000 1.000000
f 1/1/1 2/2/1 3/3/1 4/4/1
v 0.687500 0.062500 0.900000
v 0.312500 0.062500 0.900000
v 0.312500 0.937500 0.900000
v 0.687500 0.937500 0.900000
vn 0.000000 0.000000 -1.000000
f 5/1/2 6/2/2 7/3/2 8/4/2
v 0.687500 0.062500 1.000000
v 0.687500 0.062500 0.900000
v 0.687500 0.937500 0.900000
v 0.687500 0.937500 1.000000
vn 1.000000 -0.000000 0.000000
f 9/1/3 10/2/3 11/3/3 12/4/3
v 0.312500 0.062500 0.900000
v 0.312500 0.062500 1.000000
v 0.312500 0.937500 1.000000
v 0.312500 0.937500 0.900000
vn -1.000000 0.000000 0.000000
f 13/1/4 14/2/4 15/3/4 16/4/4
v 0.312500 0.937500 1.000000
v 0.687500 0.937500 1.000000
v 0.687500 0.937500 0.900000
v 0.312500 0.937500 0.900000
vn -0.000000 1.000000 0.000000
f 17/1/5 18/2/5 19/3/5 20/4/5
v 0.312500 0.062500 0.900000
v 0.687500 0.062500 0.900000
v 0.687500 0.062500 1.000000
v 0.312500 0.062500 1.000000
vn 0.000000 -1.000000 0.000000
f 21/1/6 22/2/6 23/3/6 24/4/6
v 0.406250 0.312500 0.900000
v 0.593750 0.312500 0.900000
v 0.593750 0.531250 0.900000
v 0.406250 0.531250 0.900000
vn 0.000000 0.000000 1.000000
f 25/1/7 26/2/7 27/3/7 28/4/7
v 0.593750 0.312500 0.800000
v 0.406250 0.312500 0.800000
v 0.406250 0.531250 0.800000
v 0.593750 0.531250 0.800000
vn 0.000000 0.000000 -1.000000
f 29/1/8 30/2/8 31/3/8 32/4/8
v 0.593750 0.312500 0.900000
v 0.593750 0.312500 0.800000
v 0.593750 0.531250 0.800000
v 0.593750 0.531250 0.900000
vn 1.000000 -0.000000 0.000000
f 33/1/9 34/2/9 35/3/9 36/4/9
v 0.406250 0.312500 0.800000
v 0.406250 0.312500 0.900000
v 0.406250 0.531250 0.900000
v 0.406250 0.531250 0.800000
vn -1.000000 0.000000 0.000000
f 37/1/10 38/2/10 39/3/10 40/4/10
v 0.406250 0.531250 0.900000
v 0.593750 0.531250 0.900000
v 0.593750 0.531250 0.800000
v 0.406250 0.531250 0.800000
vn -0.000000 1.000000 0.000000
f 41/1/11 42/2/11 43/3/11 44/4/11
v 0.406250 0.312500 0.800000
v 0.593750 0.312500 0.800000
v 0.593750 0.312500 0.900000
v 0.406250 0.312500 0.900000
vn 0.000000 -1.000000 0.000000
f 45/1/12 46/2/12 47/3/12 48/4/12
v 0.468750 0.125000 0.900000
v 0.531250 0.125000 0.900000
v 0.531250 0.187500 0.900000
v 0.468750 0.187500 0.900000
vn 0.000000 0.000000 1.000000
f 49/1/13 50/2/13 51/3/13 52/4/13
v 0.531250 0.125000 0.880000
v 0.468750 0.125000 0.880000
v 0.468750 0.187500 0.880000
v 0.531250 0.187500 0.880000
vn 0.000000 0.000000 -1.000000
f 53/1/14 54/2/14 55/3/14 56/4/14
v 0.531250 0.125000 0.900000
v 0.531250 0.125000 0.880000
v 0.531250 0.187500 0.880000
v 0.531250 0.187500 0.900000
vn 1.000000 -0.000000 0.000000
f 57/1/15 58/2/15 59/3/15 60/4/15
v 0.468750 0.125000 0.880000
v 0.468750 0.125000 0.900000
v 0.468750 0.187500 0.900000
v 0.468750 0.187500 0.880000
vn -1.000000 0.000000 0.000000
f 61/1/16 62/2/16 63/3/16 64/4/16
v 0.468750 0.187500 0.900000
v 0.531250 0.187500 0.900000
v 0.531250 0.187500 0.880000
v 0.468750 0.187500 0.880000
vn -0.000000 1.000000 0.000000
f 65/1/17 66/2/17 67/3/17 68/4/17
v 0.468750 0.125000 0.880000
v 0.531250 0.125000 0.880000
v 0.531250 0.125000 0.900000
v 0.468750 0.125000 0.900000
vn 0.000000 -1.000000 0.000000
f 69/1/18 70/2/18 71/3/18 72/4/18
v 0.468750 0.812500 0.900000
v 0.531250 0.812500 0.900000
v 0.531250 0.875000 0.900000
v 0.468750 0.875000 0.900000
vn 0.000000 0.000000 1.000000
f 73/1/19 74/2/19 75/3/19 76/4/19
v 0.531250 0.812500 0.880000
v 0.468750 0.812500 0.880000
v 0.468750 0.875000 0.880000
v 0.531250 0.875000 0.880000
vn 0.000000 0.000000 -1.000000
f 77/1/20 78/2/20 79/3/20 80/4/20
v 0.531250 0.812500 0.900000
v 0.531250 0.812500 0.880000
v 0.531250 0.875000 0.880000
v 0.531250 0.875000 0.900000
vn 1.000000 -0.000000 0.000000
f 81/1/21 82/2/21 83/3/21 84/4/21
v 0.468750 0.812500 0.880000
v 0.468750 0.812500 0.900000
v 0.468750 0.875000 0.900000
v 0.468750 0.875000 0.880000
vn -1.000000 0.000000 0.000000
f 85/1/22 86/2/22 87/3/22 88/4/22
v 0.468750 0.875000 0.900000
v 0.531250 0.875000 0.900000
v 0.531250 0.875000 0.880000
v 0.468750 0.875000 0.880000
vn -0.000000 1.000000 0.000000
f 89/1/23 90/2/23 91/3/23 92/4/23
v 0.468750 0.812500 0.880000
v 0.531250 0.812500 0.880000
v 0.531250 0.812500 0.900000
v 0.468750 0.812500 0.900000
vn 0.000000 -1.000000 0.000000
f 93/1/24 94/2/24 95/3/24 96/4/24
usemtl metal
v 0.545000 0.410000 0.860000
v 0.541879 0.410000 0.816467
v 0.536268 0.432500 0.814261
v 0.538971 0.432500 0.860000
vn 0.963618 0.258201 -0.069087
f 97/1/25 98/2/25 99/3/25 100/4/25
v 0.538971 0.432500 0.860000
v 0.536268 0.432500 0.814261
v 0.520939 0.448971 0.808233
v 0.522500 0.448971 0.860000
vn 0.706490 0.706490 -0.041750
f 101/1/26 102/2/26 103/3/26 104/4/26
v 0.522500 0.448971 0.860000
v 0.520939 0.448971 0.808233
v 0.500000 0.455000 0.800000
v 0.500000 0.455000 0.860000
vn 0.258811 0.965896 -0.007802
f 105/1/27 106/2/27 107/3/27 108/4/27
v 0.500000 0.455000 0.860000
v 0.500000 0.455000 0.800000
v 0.479061 0.448971 0.791767
v 0.477500 0.448971 0.860000
vn -0.258819 0.965926 0.000000
f 109/1/28 110/2/28 111/3/28 112/4/28
v 0.477500 0.448971 0.860000
v 0.479061 0.448971 0.791767
v 0.463732 0.432500 0.785739
v 0.461029 0.432500 0.860000
vn -0.707014 0.707014 -0.016170
f 113/1/29 114/2/29 115/3/29 116/4/29
v 0.461029 0.432500 0.860000
v 0.463732 0.432500 0.785739
v 0.458121 0.410000 0.783533
v 0.455000 0.410000 0.860000
vn -0.965329 0.258659 -0.035137
f 117/1/30 118/2/30 119/3/30 120/4/30
v 0.455000 0.410000 0.860000
v 0.458121 0.410000 0.783533
v 0.463732 0.387500 0.785739
v 0.461029 0.387500 0.860000
vn -0.965176 -0.258618 -0.039395
f 121/1/31 122/2/31 123/3/31 124/4/31
v 0.461029 0.387500 0.860000
v 0.463732 0.387500 0.785739
v 0.479061 0.371029 0.791767
v 0.477500 0.371029 0.860000
vn -0.706873 -0.706873 -0.025729
f 125/1/32 126/2/32 127/3/32 128/4/32
v 0.477500 0.371029 0.860000
v 0.479061 0.371029 0.791767
v 0.500000 0.365000 0.800000
v 0.500000 0.365000 0.860000
vn -0.258815 -0.965909 -0.005919
f 129/1/33 130/2/33 131/3/33 132/4/33
v 0.500000 0.365000 0.860000
v 0.500000 0.365000 0.800000
v 0.520939 0.371029 0.808233
v 0.522500 0.371029 0.860000
vn 0.258819 -0.965926 0.000000
f 133/1/34 134/2/34 135/3/34 136/4/34
v 0.522500 0.371029 0.860000
v 0.520939 0.371029 0.808233
v 0.536268 0.387500 0.814261
v 0.538971 0.387500 0.860000
vn 0.706946 -0.706946 -0.021312
f 137/1/35 138/2/35 139/3/35 140/4/35
v 0.538971 0.387500 0.860000
v 0.536268 0.387500 0.814261
v 0.541879 0.410000 0.816467
v 0.545000 0.410000 0.860000
vn 0.964356 -0.258398 -0.056989
f 141/1/36 142/2/36 143/3/36 144/4/36
v 0.541879 0.410000 0.816467
v 0.614681 0.410000 0.742787
v 0.609493 0.432471 0.739513
v 0.536268 0.432500 0.814261
vn 0.690690 0.239150 0.682462
f 145/1/37 146/2/37 147/3/37 148/4/37
v 0.536268 0.432500 0.814261
v 0.609493 0.432471 0.739513
v 0.596866 0.448921 0.728903
v 0.520939 0.448971 0.808233
vn 0.525585 0.677445 0.514614
f 149/1/38 150/2/38 151/3/38 152/4/38
v 0.520939 0.448971 0.808233
v 0.596866 0.448921 0.728903
v 0.580185 0.454943 0.713801
v 0.500000 0.455000 0.800000
vn 0.201120 0.960588 0.191889
f 153/1/39 154/2/39 155/3/39 156/4/39
v 0.500000 0.455000 0.800000
v 0.580185 0.454943 0.713801
v 0.563918 0.448921 0.698254
v 0.479061 0.448971 0.791767
vn -0.202386 0.960913 -0.188906
f 157/1/40 158/2/40 159/3/40 160/4/40
v 0.479061 0.448971 0.791767
v 0.563918 0.448921 0.698254
v 0.552424 0.432471 0.686426
v 0.463732 0.432500 0.785739
vn -0.540761 0.682954 -0.491072
f 161/1/41 162/2/41 163/3/41 164/4/41
v 0.463732 0.432500 0.785739
v 0.552424 0.432471 0.686426
v 0.548784 0.410000 0.681488
v 0.458121 0.410000 0.783533
vn -0.723336 0.243721 -0.646053
f 165/1/42 166/2/42 167/3/42 168/4/42
v 0.458121 0.410000 0.783533
v 0.548784 0.410000 0.681488
v 0.553972 0.387529 0.684762
v 0.463732 0.387500 0.785739
vn -0.724985 -0.243942 -0.644119
f 169/1/43 170/2/43 171/3/43 172/4/43
v 0.463732 0.387500 0.785739
v 0.553972 0.387529 0.684762
v 0.566599 0.371079 0.695372
v 0.479061 0.371029 0.791767
vn -0.543820 -0.684015 -0.486192
f 173/1/44 174/2/44 175/3/44 176/4/44
v 0.479061 0.371029 0.791767
v 0.566599 0.371079 0.695372
v 0.583280 0.365057 0.710474
v 0.500000 0.365000 0.800000
vn -0.203799 -0.961265 -0.185570
f 177/1/45 178/2/45 179/3/45 180/4/45
v 0.500000 0.365000 0.800000
v 0.583280 0.365057 0.710474
v 0.599547 0.371079 0.726022
v 0.520939 0.371029 0.808233
vn 0.202768 -0.961009 0.188005
f 181/1/46 182/2/46 183/3/46 184/4/46
v 0.520939 0.371029 0.808233
v 0.599547 0.371079 0.726022
v 0.611040 0.387529 0.737849
v 0.536268 0.387500 0.814261
vn 0.530611 -0.679313 0.506937
f 185/1/47 186/2/47 187/3/47 188/4/47
v 0.536268 0.387500 0.814261
v 0.611040 0.387529 0.737849
v 0.614681 0.410000 0.742787
v 0.541879 0.410000 0.816467
vn 0.693955 -0.239622 0.678976
f 189/1/48 190/2/48 191/3/48 192/4/48
v 0.614681 0.410000 0.742787
v 0.662358 0.417097 0.691534
v 0.654996 0.439176 0.690597
v 0.609493 0.432471 0.739513
vn 0.689375 0.257806 0.676977
f 193/1/49 194/2/49 195/3/49 196/4/49
v 0.609493 0.432471 0.739513
v 0.654996 0.439176 0.690597
v 0.640777 0.455340 0.681699
v 0.596866 0.448921 0.728903
vn 0.469291 0.704003 0.533053
f 197/1/50 198/2/50 199/3/50 200/4/50
v 0.596866 0.448921 0.728903
v 0.640777 0.455340 0.681699
v 0.623513 0.461256 0.667223
v 0.580185 0.454943 0.713801
vn 0.124113 0.961250 0.246158
f 201/1/51 202/2/51 203/3/51 204/4/51
v 0.580185 0.454943 0.713801
v 0.623513 0.461256 0.667223
v 0.607829 0.455340 0.651049
v 0.563918 0.448921 0.698254
vn -0.254277 0.961279 -0.106237
f 205/1/52 206/2/52 207/3/52 208/4/52
v 0.563918 0.448921 0.698254
v 0.607829 0.455340 0.651049
v 0.597927 0.439176 0.637511
v 0.552424 0.432471 0.686426
vn -0.565168 0.704046 -0.430006
f 209/1/53 210/2/53 211/3/53 212/4/53
v 0.552424 0.432471 0.686426
v 0.597927 0.439176 0.637511
v 0.596461 0.417097 0.630235
v 0.548784 0.410000 0.681488
vn -0.724804 0.257820 -0.638895
f 213/1/54 214/2/54 215/3/54 216/4/54
v 0.548784 0.410000 0.681488
v 0.596461 0.417097 0.630235
v 0.603824 0.395017 0.631172
v 0.553972 0.387529 0.684762
vn -0.689375 -0.257806 -0.676977
f 217/1/55 218/2/55 219/3/55 220/4/55
v 0.553972 0.387529 0.684762
v 0.603824 0.395017 0.631172
v 0.618042 0.378854 0.640070
v 0.566599 0.371079 0.695372
vn -0.468340 -0.703900 -0.534024
f 221/1/56 222/2/56 223/3/56 224/4/56
v 0.566599 0.371079 0.695372
v 0.618042 0.378854 0.640070
v 0.635306 0.372937 0.654546
v 0.583280 0.365057 0.710474
vn -0.121890 -0.960935 -0.248488
f 225/1/57 226/2/57 227/3/57 228/4/57
v 0.583280 0.365057 0.710474
v 0.635306 0.372937 0.654546
v 0.650991 0.378854 0.670720
v 0.599547 0.371079 0.726022
vn 0.256780 -0.960914 0.103476
f 229/1/58 230/2/58 231/3/58 232/4/58
v 0.599547 0.371079 0.726022
v 0.650991 0.378854 0.670720
v 0.660892 0.395017 0.684258
v 0.611040 0.387529 0.737849
vn 0.566734 -0.703866 0.428235
f 233/1/59 234/2/59 235/3/59 236/4/59
v 0.611040 0.387529 0.737849
v 0.660892 0.395017 0.684258
v 0.662358 0.417097 0.691534
v 0.614681 0.410000 0.742787
vn 0.725140 -0.257793 0.638526
f 237/1/60 238/2/60 239/3/60 240/4/60
v 0.662358 0.417097 0.691534
v 0.710035 0.437693 0.640281
v 0.700252 0.458767 0.641946
v 0.654996 0.439176 0.690597
vn 0.657077 0.249290 0.711410
f 241/1/61 242/2/61 243/3/61 244/4/61
v 0.654996 0.439176 0.690597
v 0.700252 0.458767 0.641946
v 0.684262 0.474194 0.634953
v 0.640777 0.455340 0.681699
vn 0.380117 0.679714 0.627295
f 245/1/62 246/2/62 247/3/62 248/4/62
v 0.640777 0.455340 0.681699
v 0.684262 0.474194 0.634953
v 0.666349 0.479841 0.621174
v 0.623513 0.461256 0.667223
vn 0.002348 0.926647 0.375925
f 249/1/63 250/2/63 251/3/63 252/4/63
v 0.623513 0.461256 0.667223
v 0.666349 0.479841 0.621174
v 0.651314 0.474194 0.604303
v 0.607829 0.455340 0.651049
vn -0.375219 0.926601 0.024918
f 253/1/64 254/2/64 255/3/64 256/4/64
v 0.607829 0.455340 0.651049
v 0.651314 0.474194 0.604303
v 0.643184 0.458767 0.588860
v 0.597927 0.439176 0.637511
vn -0.653299 0.679639 -0.333604
f 257/1/65 258/2/65 259/3/65 260/4/65
v 0.597927 0.439176 0.637511
v 0.643184 0.458767 0.588860
v 0.644139 0.437693 0.578982
v 0.596461 0.417097 0.630235
vn -0.757085 0.249262 -0.603896
f 261/1/66 262/2/66 263/3/66 264/4/66
v 0.596461 0.417097 0.630235
v 0.644139 0.437693 0.578982
v 0.653922 0.416618 0.577317
v 0.603824 0.395017 0.631172
vn -0.657077 -0.249290 -0.711410
f 265/1/67 266/2/67 267/3/67 268/4/67
v 0.603824 0.395017 0.631172
v 0.653922 0.416618 0.577317
v 0.669912 0.401191 0.584310
v 0.618042 0.378854 0.640070
vn -0.380638 -0.679892 -0.626787
f 269/1/68 270/2/68 271/3/68 272/4/68
v 0.618042 0.378854 0.640070
v 0.669912 0.401191 0.584310
v 0.687825 0.395544 0.598088
v 0.635306 0.372937 0.654546
vn -0.003539 -0.927138 -0.374704
f 273/1/69 274/2/69 275/3/69 276/4/69
v 0.635306 0.372937 0.654546
v 0.687825 0.395544 0.598088
v 0.702860 0.401191 0.614960
v 0.650991 0.378854 0.670720
vn 0.373910 -0.927169 -0.023441
f 277/1/70 278/2/70 279/3/70 280/4/70
v 0.650991 0.378854 0.670720
v 0.702860 0.401191 0.614960
v 0.710990 0.416618 0.630403
v 0.660892 0.395017 0.684258
vn 0.652481 -0.679949 0.334571
f 281/1/71 282/2/71 283/3/71 284/4/71
v 0.660892 0.395017 0.684258
v 0.710990 0.416618 0.630403
v 0.710035 0.437693 0.640281
v 0.662358 0.417097 0.691534
vn 0.756906 -0.249316 0.604098
f 285/1/72 286/2/72 287/3/72 288/4/72
v 0.710035 0.437693 0.640281
v 0.757713 0.469771 0.589028
v 0.746267 0.489763 0.592481
v 0.700252 0.458767 0.641946
vn 0.633499 0.235856 0.736920
f 289/1/73 290/2/73 291/3/73 292/4/73
v 0.700252 0.458767 0.641946
v 0.746267 0.489763 0.592481
v 0.729059 0.504398 0.586796
v 0.684262 0.474194 0.634953
vn 0.315959 0.643529 0.697166
f 293/1/74 294/2/74 295/3/74 296/4/74
v 0.684262 0.474194 0.634953
v 0.729059 0.504398 0.586796
v 0.710701 0.509754 0.573496
v 0.666349 0.479841 0.621174
vn -0.085566 0.877947 0.471049
f 297/1/75 298/2/75 299/3/75 300/4/75
v 0.666349 0.479841 0.621174
v 0.710701 0.509754 0.573496
v 0.696111 0.504398 0.556146
v 0.651314 0.474194 0.604303
vn -0.463720 0.877895 0.119436
f 301/1/76 302/2/76 303/3/76 304/4/76
v 0.651314 0.474194 0.604303
v 0.696111 0.504398 0.556146
v 0.689198 0.489763 0.539394
v 0.643184 0.458767 0.588860
vn -0.718305 0.643435 -0.264631
f 305/1/77 306/2/77 307/3/77 308/4/77
v 0.643184 0.458767 0.588860
v 0.689198 0.489763 0.539394
v 0.691816 0.469771 0.527729
v 0.644139 0.437693 0.578982
vn -0.780805 0.235815 -0.578563
f 309/1/78 310/2/78 311/3/78 312/4/78
v 0.644139 0.437693 0.578982
v 0.691816 0.469771 0.527729
v 0.703262 0.449779 0.524276
v 0.653922 0.416618 0.577317
vn -0.633499 -0.235856 -0.736920
f 313/1/79 314/2/79 315/3/79 316/4/79
v 0.653922 0.416618 0.577317
v 0.703262 0.449779 0.524276
v 0.720469 0.435145 0.529961
v 0.669912 0.401191 0.584310
vn -0.316359 -0.643763 -0.696768
f 317/1/80 318/2/80 319/3/80 320/4/80
v 0.669912 0.401191 0.584310
v 0.720469 0.435145 0.529961
v 0.738828 0.429788 0.543260
v 0.687825 0.395544 0.598088
vn 0.084651 -0.878543 -0.470103
f 321/1/81 322/2/81 323/3/81 324/4/81
v 0.687825 0.395544 0.598088
v 0.738828 0.429788 0.543260
v 0.753418 0.435145 0.560611
v 0.702860 0.401191 0.614960
vn 0.462706 -0.878583 -0.118302
f 325/1/82 326/2/82 327/3/82 328/4/82
v 0.702860 0.401191 0.614960
v 0.753418 0.435145 0.560611
v 0.760330 0.449779 0.577363
v 0.710990 0.416618 0.630403
vn 0.717667 -0.643841 0.265373
f 329/1/83 330/2/83 331/3/83 332/4/83
v 0.710990 0.416618 0.630403
v 0.760330 0.449779 0.577363
v 0.757713 0.469771 0.589028
v 0.710035 0.437693 0.640281
vn 0.780665 -0.235894 0.578719
f 333/1/84 334/2/84 335/3/84 336/4/84
v 0.757713 0.469771 0.589028
v 0.805390 0.510193 0.537775
v 0.793011 0.529415 0.542231
v 0.746267 0.489763 0.592481
vn 0.618942 0.224365 0.752709
f 337/1/85 338/2/85 339/3/85 340/4/85
v 0.746267 0.489763 0.592481
v 0.793011 0.529415 0.542231
v 0.775120 0.543487 0.537280
v 0.729059 0.504398 0.586796
vn 0.276374 0.612603 0.740496
f 341/1/86 342/2/86 343/3/86 344/4/86
v 0.729059 0.504398 0.586796
v 0.775120 0.543487 0.537280
v 0.756512 0.548638 0.524249
v 0.710701 0.509754 0.573496
vn -0.139949 0.836341 0.530046
f 345/1/87 346/2/87 347/3/87 348/4/87
v 0.710701 0.509754 0.573496
v 0.756512 0.548638 0.524249
v 0.742172 0.543487 0.506630
v 0.696111 0.504398 0.556146
vn -0.518597 0.836308 0.177892
f 349/1/88 350/2/88 351/3/88 352/4/88
v 0.696111 0.504398 0.556146
v 0.742172 0.543487 0.506630
v 0.735943 0.529415 0.489144
v 0.689198 0.489763 0.539394
vn -0.758591 0.612542 -0.222108
f 353/1/89 354/2/89 355/3/89 356/4/89
v 0.689198 0.489763 0.539394
v 0.735943 0.529415 0.489144
v 0.739493 0.510193 0.476476
v 0.691816 0.469771 0.527729
vn -0.795466 0.224337 -0.562945
f 357/1/90 358/2/90 359/3/90 360/4/90
v 0.691816 0.469771 0.527729
v 0.739493 0.510193 0.476476
v 0.751872 0.490970 0.472020
v 0.703262 0.449779 0.524276
vn -0.618942 -0.224365 -0.752709
f 361/1/91 362/2/91 363/3/91 364/4/91
v 0.703262 0.449779 0.524276
v 0.751872 0.490970 0.472020
v 0.769763 0.476898 0.476971
v 0.720469 0.435145 0.529961
vn -0.276578 -0.612762 -0.740288
f 365/1/92 366/2/92 367/3/92 368/4/92
v 0.720469 0.435145 0.529961
v 0.769763 0.476898 0.476971
v 0.788371 0.471748 0.490001
v 0.738828 0.429788 0.543260
vn 0.139478 -0.836731 -0.529553
f 369/1/93 370/2/93 371/3/93 372/4/93
v 0.738828 0.429788 0.543260
v 0.788371 0.471748 0.490001
v 0.802711 0.476898 0.507620
v 0.753418 0.435145 0.560611
vn 0.518069 -0.836759 -0.177309
f 373/1/94 374/2/94 375/3/94 376/4/94
v 0.753418 0.435145 0.560611
v 0.802711 0.476898 0.507620
v 0.808940 0.490970 0.525107
v 0.760330 0.449779 0.577363
vn 0.758257 -0.612818 0.222487
f 377/1/95 378/2/95 379/3/95 380/4/95
v 0.760330 0.449779 0.577363
v 0.808940 0.490970 0.525107
v 0.805390 0.510193 0.537775
v 0.757713 0.469771 0.589028
vn 0.795394 -0.224393 0.563025
f 381/1/96 382/2/96 383/3/96 384/4/96
v 0.805390 0.510193 0.537775
v 0.853067 0.555000 0.486522
v 0.840391 0.573950 0.491297
v 0.793011 0.529415 0.542231
vn 0.612165 0.218038 0.760074
f 385/1/97 386/2/97 387/3/97 388/4/97
v 0.793011 0.529415 0.542231
v 0.840391 0.573950 0.491297
v 0.822283 0.587823 0.486580
v 0.775120 0.543487 0.537280
vn 0.257957 0.595598 0.760737
f 389/1/98 390/2/98 391/3/98 392/4/98
v 0.775120 0.543487 0.537280
v 0.822283 0.587823 0.486580
v 0.803595 0.592900 0.473635
v 0.756512 0.548638 0.524249
vn -0.165301 0.813482 0.557604
f 393/1/99 394/2/99 395/3/99 396/4/99
v 0.756512 0.548638 0.524249
v 0.803595 0.592900 0.473635
v 0.789335 0.587823 0.455931
v 0.742172 0.543487 0.506630
vn -0.544226 0.813472 0.205137
f 397/1/100 398/2/100 399/3/100 400/4/100
v 0.742172 0.543487 0.506630
v 0.789335 0.587823 0.455931
v 0.783323 0.573950 0.438210
v 0.735943 0.529415 0.489144
vn -0.777396 0.595578 -0.202339
f 401/1/101 402/2/101 403/3/101 404/4/101
v 0.735943 0.529415 0.489144
v 0.783323 0.573950 0.438210
v 0.787170 0.555000 0.425223
v 0.739493 0.510193 0.476476
vn -0.802297 0.218029 -0.555683
f 405/1/102 406/2/102 407/3/102 408/4/102
v 0.739493 0.510193 0.476476
v 0.787170 0.555000 0.425223
v 0.799847 0.536050 0.420447
v 0.751872 0.490970 0.472020
vn -0.612165 -0.218038 -0.760074
f 409/1/103 410/2/103 411/3/103 412/4/103
v 0.751872 0.490970 0.472020
v 0.799847 0.536050 0.420447
v 0.817955 0.522177 0.425164
v 0.769763 0.476898 0.476971
vn -0.258016 -0.595651 -0.760676
f 413/1/104 414/2/104 415/3/104 416/4/104
v 0.769763 0.476898 0.476971
v 0.817955 0.522177 0.425164
v 0.836643 0.517100 0.438109
v 0.788371 0.471748 0.490001
vn 0.165164 -0.813610 -0.557459
f 417/1/105 418/2/105 419/3/105 420/4/105
v 0.788371 0.471748 0.490001
v 0.836643 0.517100 0.438109
v 0.850903 0.522177 0.455814
v 0.802711 0.476898 0.507620
vn 0.544070 -0.813619 -0.204967
f 421/1/106 422/2/106 423/3/106 424/4/106
v 0.802711 0.476898 0.507620
v 0.850903 0.522177 0.455814
v 0.856915 0.536050 0.473534
v 0.808940 0.490970 0.525107
vn 0.777298 -0.595670 0.202448
f 425/1/107 426/2/107 427/3/107 428/4/107
v 0.808940 0.490970 0.525107
v 0.856915 0.536050 0.473534
v 0.853067 0.555000 0.486522
v 0.805390 0.510193 0.537775
vn 0.802275 -0.218048 0.555706
f 429/1/108 430/2/108 431/3/108 432/4/108
v 0.853067 0.555000 0.486522
v 0.900745 0.599807 0.435269
v 0.888366 0.619030 0.439725
v 0.840391 0.573950 0.491297
vn 0.612201 0.217985 0.760061
f 433/1/109 434/2/109 435/3/109 436/4/109
v 0.840391 0.573950 0.491297
v 0.888366 0.619030 0.439725
v 0.870475 0.633102 0.434774
v 0.822283 0.587823 0.486580
vn 0.258117 0.595574 0.760702
f 437/1/110 438/2/110 439/3/110 440/4/110
v 0.822283 0.587823 0.486580
v 0.870475 0.633102 0.434774
v 0.851867 0.638252 0.421743
v 0.803595 0.592900 0.473635
vn -0.165112 0.813595 0.557495
f 441/1/111 442/2/111 443/3/111 444/4/111
v 0.803595 0.592900 0.473635
v 0.851867 0.638252 0.421743
v 0.837527 0.633102 0.404124
v 0.789335 0.587823 0.455931
vn -0.544110 0.813605 0.204918
f 445/1/112 446/2/112 447/3/112 448/4/112
v 0.789335 0.587823 0.455931
v 0.837527 0.633102 0.404124
v 0.831297 0.619030 0.386638
v 0.783323 0.573950 0.438210
vn -0.777331 0.595593 -0.202547
f 449/1/113 450/2/113 451/3/113 452/4/113
v 0.783323 0.573950 0.438210
v 0.831297 0.619030 0.386638
v 0.834848 0.599807 0.373969
v 0.787170 0.555000 0.425223
vn -0.802265 0.217995 -0.555742
f 453/1/114 454/2/114 455/3/114 456/4/114
v 0.787170 0.555000 0.425223
v 0.834848 0.599807 0.373969
v 0.847227 0.580585 0.369514
v 0.799847 0.536050 0.420447
vn -0.612201 -0.217985 -0.760061
f 457/1/115 458/2/115 459/3/115 460/4/115
v 0.799847 0.536050 0.420447
v 0.847227 0.580585 0.369514
v 0.865117 0.566513 0.374464
v 0.817955 0.522177 0.425164
vn -0.258059 -0.595520 -0.760764
f 461/1/116 462/2/116 463/3/116 464/4/116
v 0.817955 0.522177 0.425164
v 0.865117 0.566513 0.374464
v 0.883726 0.561362 0.387495
v 0.836643 0.517100 0.438109
vn 0.165248 -0.813468 -0.557641
f 465/1/117 466/2/117 467/3/117 468/4/117
v 0.836643 0.517100 0.438109
v 0.883726 0.561362 0.387495
v 0.898066 0.566513 0.405114
v 0.850903 0.522177 0.455814
vn 0.544266 -0.813458 -0.205087
f 469/1/118 470/2/118 471/3/118 472/4/118
v 0.850903 0.522177 0.455814
v 0.898066 0.566513 0.405114
v 0.904295 0.580585 0.422600
v 0.856915 0.536050 0.473534
vn 0.777430 -0.595500 0.202440
f 473/1/119 474/2/119 475/3/119 476/4/119
v 0.856915 0.536050 0.473534
v 0.904295 0.580585 0.422600
v 0.900745 0.599807 0.435269
v 0.853067 0.555000 0.486522
vn 0.802286 -0.217975 0.555720
f 477/1/120 478/2/120 479/3/120 480/4/120
v 0.900745 0.599807 0.435269
v 0.948422 0.640229 0.384016
v 0.936976 0.660221 0.387469
v 0.888366 0.619030 0.439725
vn 0.619052 0.224189 0.752672
f 481/1/121 482/2/121 483/3/121 484/4/121
v 0.888366 0.619030 0.439725
v 0.936976 0.660221 0.387469
v 0.919768 0.674855 0.381784
v 0.870475 0.633102 0.434774
vn 0.276892 0.612509 0.740381
f 485/1/122 486/2/122 487/3/122 488/4/122
v 0.870475 0.633102 0.434774
v 0.919768 0.674855 0.381784
v 0.901410 0.680212 0.368484
v 0.851867 0.638252 0.421743
vn -0.139316 0.836686 0.529668
f 489/1/123 490/2/123 491/3/123 492/4/123
v 0.851867 0.638252 0.421743
v 0.901410 0.680212 0.368484
v 0.886820 0.674855 0.351134
v 0.837527 0.633102 0.404124
vn -0.518195 0.836714 0.177156
f 493/1/124 494/2/124 495/3/124 496/4/124
v 0.837527 0.633102 0.404124
v 0.886820 0.674855 0.351134
v 0.879908 0.660221 0.334382
v 0.831297 0.619030 0.386638
vn -0.758370 0.612568 -0.222789
f 497/1/125 498/2/125 499/3/125 500/4/125
v 0.831297 0.619030 0.386638
v 0.879908 0.660221 0.334382
v 0.882525 0.640229 0.322716
v 0.834848 0.599807 0.373969
vn -0.795365 0.224220 -0.563134
f 501/1/126 502/2/126 503/3/126 504/4/126
v 0.834848 0.599807 0.373969
v 0.882525 0.640229 0.322716
v 0.893971 0.620237 0.319264
v 0.847227 0.580585 0.369514
vn -0.619052 -0.224189 -0.752672
f 505/1/127 506/2/127 507/3/127 508/4/127
v 0.847227 0.580585 0.369514
v 0.893971 0.620237 0.319264
v 0.911178 0.605602 0.324949
v 0.865117 0.566513 0.374464
vn -0.276700 -0.612340 -0.740592
f 509/1/128 510/2/128 511/3/128 512/4/128
v 0.865117 0.566513 0.374464
v 0.911178 0.605602 0.324949
v 0.929537 0.600246 0.338248
v 0.883726 0.561362 0.387495
vn 0.139776 -0.836292 -0.530169
f 513/1/129 514/2/129 515/3/129 516/4/129
v 0.883726 0.561362 0.387495
v 0.929537 0.600246 0.338248
v 0.944127 0.605602 0.355598
v 0.898066 0.566513 0.405114
vn 0.518733 -0.836259 -0.177727
f 517/1/130 518/2/130 519/3/130 520/4/130
v 0.898066 0.566513 0.405114
v 0.944127 0.605602 0.355598
v 0.951039 0.620237 0.372350
v 0.904295 0.580585 0.422600
vn 0.758712 -0.612275 0.222431
f 521/1/131 522/2/131 523/3/131 524/4/131
v 0.904295 0.580585 0.422600
v 0.951039 0.620237 0.372350
v 0.948422 0.640229 0.384016
v 0.900745 0.599807 0.435269
vn 0.795436 -0.224157 0.563059
f 525/1/132 526/2/132 527/3/132 528/4/132
v 0.948422 0.640229 0.384016
v 0.996099 0.672307 0.332763
v 0.986316 0.693382 0.334428
v 0.936976 0.660221 0.387469
vn 0.633670 0.235532 0.736877
f 529/1/133 530/2/133 531/3/133 532/4/133
v 0.936976 0.660221 0.387469
v 0.986316 0.693382 0.334428
v 0.970326 0.708809 0.327434
v 0.919768 0.674855 0.381784
vn 0.316871 0.643306 0.696958
f 533/1/134 534/2/134 535/3/134 536/4/134
v 0.919768 0.674855 0.381784
v 0.970326 0.708809 0.327434
v 0.952413 0.714456 0.313656
v 0.901410 0.680212 0.368484
vn -0.084380 0.878461 0.470304
f 537/1/135 538/2/135 539/3/135 540/4/135
v 0.901410 0.680212 0.368484
v 0.952413 0.714456 0.313656
v 0.937377 0.708809 0.296785
v 0.886820 0.674855 0.351134
vn -0.462924 0.878502 0.118049
f 541/1/136 542/2/136 543/3/136 544/4/136
v 0.886820 0.674855 0.351134
v 0.937377 0.708809 0.296785
v 0.929248 0.693382 0.281341
v 0.879908 0.660221 0.334382
vn -0.717888 0.643395 -0.265857
f 545/1/137 546/2/137 547/3/137 548/4/137
v 0.879908 0.660221 0.334382
v 0.929248 0.693382 0.281341
v 0.930202 0.672307 0.271463
v 0.882525 0.640229 0.322716
vn -0.780635 0.235581 -0.578887
f 549/1/138 550/2/138 551/3/138 552/4/138
v 0.882525 0.640229 0.322716
v 0.930202 0.672307 0.271463
v 0.939985 0.651233 0.269798
v 0.893971 0.620237 0.319264
vn -0.633670 -0.235532 -0.736877
f 553/1/139 554/2/139 555/3/139 556/4/139
v 0.893971 0.620237 0.319264
v 0.939985 0.651233 0.269798
v 0.955976 0.635806 0.276792
v 0.911178 0.605602 0.324949
vn -0.316508 -0.643039 -0.697369
f 557/1/140 558/2/140 559/3/140 560/4/140
v 0.911178 0.605602 0.324949
v 0.955976 0.635806 0.276792
v 0.973888 0.630159 0.290570
v 0.929537 0.600246 0.338248
vn 0.085260 -0.877855 -0.471276
f 561/1/141 562/2/141 563/3/141 564/4/141
v 0.929537 0.600246 0.338248
v 0.973888 0.630159 0.290570
v 0.988924 0.635806 0.307441
v 0.944127 0.605602 0.355598
vn 0.463970 -0.877802 -0.119145
f 565/1/142 566/2/142 567/3/142 568/4/142
v 0.944127 0.605602 0.355598
v 0.988924 0.635806 0.307441
v 0.997054 0.651233 0.322885
v 0.951039 0.620237 0.372350
vn 0.718554 -0.642932 0.265178
f 569/1/143 570/2/143 571/3/143 572/4/143
v 0.951039 0.620237 0.372350
v 0.997054 0.651233 0.322885
v 0.996099 0.672307 0.332763
v 0.948422 0.640229 0.384016
vn 0.780772 -0.235479 0.578743
f 573/1/144 574/2/144 575/3/144 576/4/144
v 0.996099 0.672307 0.332763
v 1.043776 0.692903 0.281510
v 1.036414 0.714983 0.280573
v 0.986316 0.693382 0.334428
vn 0.657238 0.248893 0.711400
f 577/1/145 578/2/145 579/3/145 580/4/145
v 0.986316 0.693382 0.334428
v 1.036414 0.714983 0.280573
v 1.022196 0.731146 0.271674
v 0.970326 0.708809 0.327434
vn 0.381170 0.679340 0.627061
f 581/1/146 582/2/146 583/3/146 584/4/146
v 0.970326 0.708809 0.327434
v 1.022196 0.731146 0.271674
v 1.004931 0.737063 0.257199
v 0.952413 0.714456 0.313656
vn 0.003835 0.927040 0.374942
f 585/1/147 586/2/147 587/3/147 588/4/147
v 0.952413 0.714456 0.313656
v 1.004931 0.737063 0.257199
v 0.989247 0.731146 0.241025
v 0.937377 0.708809 0.296785
vn -0.374164 0.927073 0.023165
f 589/1/148 590/2/148 591/3/148 592/4/148
v 0.937377 0.708809 0.296785
v 0.989247 0.731146 0.241025
v 0.979346 0.714983 0.227486
v 0.929248 0.693382 0.281341
vn -0.652783 0.679416 -0.335065
f 593/1/149 594/2/149 595/3/149 596/4/149
v 0.929248 0.693382 0.281341
v 0.979346 0.714983 0.227486
v 0.977880 0.692903 0.220210
v 0.930202 0.672307 0.271463
vn -0.756908 0.248938 -0.604251
f 597/1/150 598/2/150 599/3/150 600/4/150
v 0.930202 0.672307 0.271463
v 0.977880 0.692903 0.220210
v 0.985242 0.670824 0.221147
v 0.939985 0.651233 0.269798
vn -0.657238 -0.248893 -0.711400
f 601/1/151 602/2/151 603/3/151 604/4/151
v 0.939985 0.651233 0.269798
v 0.985242 0.670824 0.221147
v 0.999460 0.654660 0.230046
v 0.955976 0.635806 0.276792
vn -0.380707 -0.679104 -0.627598
f 605/1/152 606/2/152 607/3/152 608/4/152
v 0.955976 0.635806 0.276792
v 0.999460 0.654660 0.230046
v 1.016725 0.648744 0.244521
v 0.973888 0.630159 0.290570
vn -0.002702 -0.926532 -0.376207
f 609/1/153 610/2/153 611/3/153 612/4/153
v 0.973888 0.630159 0.290570
v 1.016725 0.648744 0.244521
v 1.032409 0.654660 0.260695
v 0.988924 0.635806 0.307441
vn 0.375531 -0.926484 -0.024580
f 613/1/154 614/2/154 615/3/154 616/4/154
v 0.988924 0.635806 0.307441
v 1.032409 0.654660 0.260695
v 1.042310 0.670824 0.274234
v 0.997054 0.651233 0.322885
vn 0.653657 -0.679004 0.334194
f 617/1/155 618/2/155 619/3/155 620/4/155
v 0.997054 0.651233 0.322885
v 1.042310 0.670824 0.274234
v 1.043776 0.692903 0.281510
v 0.996099 0.672307 0.332763
vn 0.757087 -0.248843 0.604066
f 621/1/156 622/2/156 623/3/156 624/4/156
v 1.043776 0.692903 0.281510
v 1.091454 0.700000 0.230257
v 1.086003 0.722449 0.227264
v 1.036414 0.714983 0.280573
vn 0.689182 0.258531 0.676897
f 625/1/157 626/2/157 627/3/157 628/4/157
v 1.036414 0.714983 0.280573
v 1.086003 0.722449 0.227264
v 1.073185 0.738882 0.216861
v 1.022196 0.731146 0.271674
vn 0.467421 0.704888 0.533526
f 629/1/158 630/2/158 631/3/158 632/4/158
v 1.022196 0.731146 0.271674
v 1.073185 0.738882 0.216861
v 1.056433 0.744897 0.201835
v 1.004931 0.737063 0.257199
vn 0.121138 0.961074 0.248320
f 633/1/159 634/2/159 635/3/159 636/4/159
v 1.004931 0.737063 0.257199
v 1.056433 0.744897 0.201835
v 1.040236 0.738882 0.186211
v 0.989247 0.731146 0.241025
vn -0.256603 0.961045 -0.102705
f 637/1/160 638/2/160 639/3/160 640/4/160
v 0.989247 0.731146 0.241025
v 1.040236 0.738882 0.186211
v 1.028935 0.722449 0.174177
v 0.979346 0.714983 0.227486
vn -0.566272 0.704806 -0.427298
f 641/1/161 642/2/161 643/3/161 644/4/161
v 0.979346 0.714983 0.227486
v 1.028935 0.722449 0.174177
v 1.025557 0.700000 0.168957
v 0.977880 0.692903 0.220210
vn -0.725091 0.258476 -0.638305
f 645/1/162 646/2/162 647/3/162 648/4/162
v 0.977880 0.692903 0.220210
v 1.025557 0.700000 0.168957
v 1.031007 0.677551 0.171950
v 0.985242 0.670824 0.221147
vn -0.689182 -0.258531 -0.676897
f 649/1/163 650/2/163 651/3/163 652/4/163
v 0.985242 0.670824 0.221147
v 1.031007 0.677551 0.171950
v 1.043826 0.661118 0.182353
v 0.999460 0.654660 0.230046
vn -0.468503 -0.705137 -0.532247
f 653/1/164 654/2/164 655/3/164 656/4/164
v 0.999460 0.654660 0.230046
v 1.043826 0.661118 0.182353
v 1.060578 0.655103 0.197379
v 1.016725 0.648744 0.244521
vn -0.123782 -0.961502 -0.245341
f 657/1/165 658/2/165 659/3/165 660/4/165
v 1.016725 0.648744 0.244521
v 1.060578 0.655103 0.197379
v 1.076774 0.661118 0.213002
v 1.032409 0.654660 0.260695
vn 0.253387 -0.961539 0.106004
f 661/1/166 662/2/166 663/3/166 664/4/166
v 1.032409 0.654660 0.260695
v 1.076774 0.661118 0.213002
v 1.088076 0.677551 0.225036
v 1.042310 0.670824 0.274234
vn 0.564191 -0.705238 0.429334
f 665/1/167 666/2/167 667/3/167 668/4/167
v 1.042310 0.670824 0.274234
v 1.088076 0.677551 0.225036
v 1.091454 0.700000 0.230257
v 1.043776 0.692903 0.281510
vn 0.724664 -0.258592 0.638743
f 669/1/168 670/2/168 671/3/168 672/4/168
v 1.091454 0.700000 0.230257
v 4.069798 0.850000 -2.971463
v 4.064858 0.872487 -2.975005
v 1.086003 0.722449 0.227264
vn 0.701165 0.258801 0.664371
f 673/1/169 674/2/169 675/3/169 676/4/169
v 1.086003 0.722449 0.227264
v 4.064858 0.872487 -2.975005
v 4.052414 0.888948 -2.985810
v 1.073185 0.738882 0.216861
vn 0.501073 0.706888 0.499235
f 677/1/170 678/2/170 679/3/170 680/4/170
v 1.073185 0.738882 0.216861
v 4.052414 0.888948 -2.985810
v 4.035799 0.894974 -3.000983
v 1.056433 0.744897 0.201835
vn 0.166847 0.965394 0.200442
f 681/1/171 682/2/171 683/3/171 684/4/171
v 1.056433 0.744897 0.201835
v 4.035799 0.894974 -3.000983
v 4.019465 0.888948 -3.016460
v 1.040236 0.738882 0.186211
vn -0.211964 0.965394 -0.151940
f 685/1/172 686/2/172 687/3/172 688/4/172
v 1.040236 0.738882 0.186211
v 4.019465 0.888948 -3.016460
v 4.007790 0.872487 -3.028092
v 1.028935 0.722449 0.174177
vn -0.534108 0.706888 -0.463722
f 689/1/173 690/2/173 691/3/173 692/4/173
v 1.028935 0.722449 0.174177
v 4.007790 0.872487 -3.028092
v 4.003901 0.850000 -3.032763
v 1.025557 0.700000 0.168957
vn -0.713259 0.258801 -0.651371
f 693/1/174 694/2/174 695/3/174 696/4/174
v 1.025557 0.700000 0.168957
v 4.003901 0.850000 -3.032763
v 4.008841 0.827513 -3.029221
v 1.031007 0.677551 0.171950
vn -0.701165 -0.258801 -0.664371
f 697/1/175 698/2/175 699/3/175 700/4/175
v 1.031007 0.677551 0.171950
v 4.008841 0.827513 -3.029221
v 4.021285 0.811052 -3.018416
v 1.043826 0.661118 0.182353
vn -0.501076 -0.706888 -0.499232
f 701/1/176 702/2/176 703/3/176 704/4/176
v 1.043826 0.661118 0.182353
v 4.021285 0.811052 -3.018416
v 4.037900 0.805026 -3.003243
v 1.060578 0.655103 0.197379
vn -0.166853 -0.965394 -0.200434
f 705/1/177 706/2/177 707/3/177 708/4/177
v 1.060578 0.655103 0.197379
v 4.037900 0.805026 -3.003243
v 4.054233 0.811052 -2.987766
v 1.076774 0.661118 0.213002
vn 0.211957 -0.965394 0.151948
f 709/1/178 710/2/178 711/3/178 712/4/178
v 1.076774 0.661118 0.213002
v 4.054233 0.811052 -2.987766
v 4.065909 0.827513 -2.976134
v 1.088076 0.677551 0.225036
vn 0.534103 -0.706888 0.463727
f 713/1/179 714/2/179 715/3/179 716/4/179
v 1.088076 0.677551 0.225036
v 4.065909 0.827513 -2.976134
v 4.069798 0.850000 -2.971463
v 1.091454 0.700000 0.230257
vn 0.713258 -0.258801 0.651372
f 717/1/180 718/2/180 719/3/180 720/4/180
v 4.069798 0.850000 -2.971463
v 4.035799 0.894974 -3.000983
v 4.052414 0.888948 -2.985810
v 4.064858 0.872487 -2.975005
vn 0.680704 0.034283 -0.731756
f 721/1/181 722/2/181 723/3/181 724/4/181
v 4.069798 0.850000 -2.971463
v 4.007790 0.872487 -3.028092
v 4.019465 0.888948 -3.016460
v 4.035799 0.894974 -3.000983
vn 0.680704 0.034283 -0.731756
f 725/1/182 726/2/182 727/3/182 728/4/182
v 4.069798 0.850000 -2.971463
v 4.008841 0.827513 -3.029221
v 4.003901 0.850000 -3.032763
v 4.007790 0.872487 -3.028092
vn 0.680704 0.034283 -0.731756
f 729/1/183 730/2/183 731/3/183 732/4/183
v 4.069798 0.850000 -2.971463
v 4.037900 0.805026 -3.003243
v 4.021285 0.811052 -3.018416
v 4.008841 0.827513 -3.029221
vn 0.680704 0.034283 -0.731756
f 733/1/184 734/2/184 735/3/184 736/4/184
v 4.069798 0.850000 -2.971463
v 4.065909 0.827513 -2.976134
v 4.054233 0.811052 -2.987766
v 4.037900 0.805026 -3.003243
vn 0.680704 0.034283 -0.731756
f 737/1/185 738/2/185 739/3/185 740/4/185
v 4.054933 0.849657 -2.971634
v 4.184342 0.850000 -3.110749
v 4.180986 0.867000 -3.113829
v 4.051577 0.866657 -2.974714
vn 0.706920 0.258819 0.658238
f 741/1/186 742/2/186 743/3/186 744/4/186
v 4.051577 0.866657 -2.974714
v 4.180986 0.867000 -3.113829
v 4.171859 0.879445 -3.122289
v 4.042449 0.879102 -2.983173
vn 0.516865 0.707106 0.482548
f 745/1/187 746/2/187 747/3/187 748/4/187
v 4.042449 0.879102 -2.983173
v 4.171859 0.879445 -3.122289
v 4.159406 0.884000 -3.133862
v 4.029996 0.883657 -2.994746
vn 0.188316 0.965924 0.177560
f 749/1/188 750/2/188 751/3/188 752/4/188
v 4.029996 0.883657 -2.994746
v 4.159406 0.884000 -3.133862
v 4.146965 0.879445 -3.145446
v 4.017555 0.879102 -3.006331
vn -0.190692 0.965924 -0.175006
f 753/1/189 754/2/189 755/3/189 756/4/189
v 4.017555 0.879102 -3.006331
v 4.146965 0.879445 -3.145446
v 4.137868 0.867000 -3.153939
v 4.008458 0.866657 -3.014824
vn -0.518604 0.707106 -0.480678
f 757/1/190 758/2/190 759/3/190 760/4/190
v 4.008458 0.866657 -3.014824
v 4.137868 0.867000 -3.153939
v 4.134554 0.850000 -3.157064
v 4.005144 0.849657 -3.017949
vn -0.707556 0.258819 -0.657554
f 761/1/191 762/2/191 763/3/191 764/4/191
v 4.005144 0.849657 -3.017949
v 4.134554 0.850000 -3.157064
v 4.137910 0.833000 -3.153984
v 4.008500 0.832657 -3.014869
vn -0.706920 -0.258819 -0.658238
f 765/1/192 766/2/192 767/3/192 768/4/192
v 4.008500 0.832657 -3.014869
v 4.137910 0.833000 -3.153984
v 4.147037 0.820555 -3.145524
v 4.017627 0.820212 -3.006409
vn -0.516865 -0.707106 -0.482548
f 769/1/193 770/2/193 771/3/193 772/4/193
v 4.017627 0.820212 -3.006409
v 4.147037 0.820555 -3.145524
v 4.159490 0.816000 -3.133952
v 4.030080 0.815657 -2.994836
vn -0.188316 -0.965924 -0.177560
f 773/1/194 774/2/194 775/3/194 776/4/194
v 4.030080 0.815657 -2.994836
v 4.159490 0.816000 -3.133952
v 4.171931 0.820555 -3.122367
v 4.042522 0.820212 -2.983251
vn 0.190692 -0.965924 0.175006
f 777/1/195 778/2/195 779/3/195 780/4/195
v 4.042522 0.820212 -2.983251
v 4.171931 0.820555 -3.122367
v 4.181028 0.833000 -3.113874
v 4.051618 0.832657 -2.974759
vn 0.518604 -0.707106 0.480678
f 781/1/196 782/2/196 783/3/196 784/4/196
v 4.051618 0.832657 -2.974759
v 4.181028 0.833000 -3.113874
v 4.184342 0.850000 -3.110749
v 4.054933 0.849657 -2.971634
vn 0.707556 -0.258819 0.657554
f 785/1/197 786/2/197 787/3/197 788/4/197
v 4.184342 0.850000 -3.110749
v 4.159406 0.884000 -3.133862
v 4.171859 0.879445 -3.122289
v 4.180986 0.867000 -3.113829
vn 0.681103 0.001805 -0.732186
f 789/1/198 790/2/198 791/3/198 792/4/198
v 4.184342 0.850000 -3.110749
v 4.137868 0.867000 -3.153939
v 4.146965 0.879445 -3.145446
v 4.159406 0.884000 -3.133862
vn 0.681103 0.001805 -0.732186
f 793/1/199 794/2/199 795/3/199 796/4/199
v 4.184342 0.850000 -3.110749
v 4.137910 0.833000 -3.153984
v 4.134554 0.850000 -3.157064
v 4.137868 0.867000 -3.153939
vn 0.681103 0.001805 -0.732186
f 797/1/200 798/2/200 799/3/200 800/4/200
v 4.184342 0.850000 -3.110749
v 4.159490 0.816000 -3.133952
v 4.147037 0.820555 -3.145524
v 4.137910 0.833000 -3.153984
vn 0.681103 0.001805 -0.732186
f 801/1/201 802/2/201 803/3/201 804/4/201
v 4.184342 0.850000 -3.110749
v 4.181028 0.833000 -3.113874
v 4.171931 0.820555 -3.122367
v 4.159490 0.816000 -3.133952
vn 0.681103 0.001805 -0.732186
f 805/1/202 806/2/202 807/3/202 808/4/202
v 0.517025 0.125000 0.903934
v 1.130018 0.675744 0.154966
v 1.120159 0.689265 0.156839
v 0.507165 0.138521 0.905807
vn 0.595075 0.332603 0.731615
f 809/1/203 810/2/203 811/3/203 812/4/203
v 0.507165 0.138521 0.905807
v 1.120159 0.689265 0.156839
v 1.106102 0.694865 0.149452
v 0.493109 0.144121 0.898420
vn 0.006740 0.802975 0.595974
f 813/1/204 814/2/204 815/3/204 816/4/204
v 0.493109 0.144121 0.898420
v 1.106102 0.694865 0.149452
v 1.096082 0.689265 0.137133
v 0.483089 0.138521 0.886101
vn -0.585543 0.802975 0.111219
f 817/1/205 818/2/205 819/3/205 820/4/205
v 0.483089 0.138521 0.886101
v 1.096082 0.689265 0.137133
v 1.095969 0.675744 0.127098
v 0.482975 0.125000 0.876066
vn -0.834823 0.332603 -0.438686
f 821/1/206 822/2/206 823/3/206 824/4/206
v 0.482975 0.125000 0.876066
v 1.095969 0.675744 0.127098
v 1.105828 0.662224 0.125225
v 0.492835 0.111479 0.874193
vn -0.595075 -0.332603 -0.731615
f 825/1/207 826/2/207 827/3/207 828/4/207
v 0.492835 0.111479 0.874193
v 1.105828 0.662224 0.125225
v 1.119885 0.656623 0.132612
v 0.506891 0.105879 0.881580
vn -0.006740 -0.802975 -0.595974
f 829/1/208 830/2/208 831/3/208 832/4/208
v 0.506891 0.105879 0.881580
v 1.119885 0.656623 0.132612
v 1.129905 0.662224 0.144931
v 0.516911 0.111479 0.893899
vn 0.585543 -0.802975 -0.111219
f 833/1/209 834/2/209 835/3/209 836/4/209
v 0.516911 0.111479 0.893899
v 1.129905 0.662224 0.144931
v 1.130018 0.675744 0.154966
v 0.517025 0.125000 0.903934
vn 0.834823 -0.332603 0.438686
f 837/1/210 838/2/210 839/3/210 840/4/210
v 1.130018 0.675744 0.154966
v 1.096082 0.689265 0.137133
v 1.106102 0.694865 0.149452
v 1.120159 0.689265 0.156839
vn 0.550477 0.494576 -0.672584
f 841/1/211 842/2/211 843/3/211 844/4/211
v 1.130018 0.675744 0.154966
v 1.105828 0.662224 0.125225
v 1.095969 0.675744 0.127098
v 1.096082 0.689265 0.137133
vn 0.550477 0.494576 -0.672584
f 845/1/212 846/2/212 847/3/212 848/4/212
v 1.130018 0.675744 0.154966
v 1.129905 0.662224 0.144931
v 1.119885 0.656623 0.132612
v 1.105828 0.662224 0.125225
vn 0.550477 0.494576 -0.672584
f 849/1/213 850/2/213 851/3/213 852/4/213
usemtl clamp
v 0.468750 0.750000 0.900000
v 0.531250 0.750000 0.900000
v 0.531250 0.812500 0.900000
v 0.468750 0.812500 0.900000
vn 0.000000 0.000000 1.000000
f 853/1/214 854/2/214 855/3/214 856/4/214
v 0.531250 0.750000 0.812500
v 0.468750 0.750000 0.812500
v 0.468750 0.812500 0.812500
v 0.531250 0.812500 0.812500
vn 0.000000 0.000000 -1.000000
f 857/1/215 858/2/215 859/3/215 860/4/215
v 0.531250 0.750000 0.900000
v 0.531250 0.750000 0.812500
v 0.531250 0.812500 0.812500
v 0.531250 0.812500 0.900000
vn 1.000000 -0.000000 0.000000
f 861/1/216 862/2/216 863/3/216 864/4/216
v 0.468750 0.750000 0.812500
v 0.468750 0.750000 0.900000
v 0.468750 0.812500 0.900000
v 0.468750 0.812500 0.812500
vn -1.000000 0.000000 0.000000
f 865/1/217 866/2/217 867/3/217 868/4/217
v 0.468750 0.812500 0.900000
v 0.531250 0.812500 0.900000
v 0.531250 0.812500 0.812500
v 0.468750 0.812500 0.812500
vn -0.000000 1.000000 0.000000
f 869/1/218 870/2/218 871/3/218 872/4/218
v 0.468750 0.750000 0.812500
v 0.531250 0.750000 0.812500
v 0.531250 0.750000 0.900000
v 0.468750 0.750000 0.900000
vn 0.000000 -1.000000 0.000000
f 873/1/219 874/2/219 875/3/219 876/4/219
usemtl porcelain
v 0.437500 0.812500 0.875000
v 0.562500 0.812500 0.875000
v 0.562500 0.937500 0.875000
v 0.437500 0.937500 0.875000
vn 0.000000 0.000000 1.000000
f 877/1/220 878/2/220 879/3/220 880/4/220
v 0.562500 0.812500 0.750000
v 0.437500 0.812500 0.750000
v 0.437500 0.937500 0.750000
v 0.562500 0.937500 0.750000
vn 0.000000 0.000000 -1.000000
f 881/1/221 882/2/221 883/3/221 884/4/221
v 0.562500 0.812500 0.875000
v 0.562500 0.812500 0.750000
v 0.562500 0.937500 0.750000
v 0.562500 0.937500 0.875000
vn 1.000000 -0.000000 0.000000
f 885/1/222 886/2/222 887/3/222 888/4/222
v 0.437500 0.812500 0.750000
v 0.437500 0.812500 0.875000
v 0.437500 0.937500 0.875000
v 0.437500 0.937500 0.750000
vn -1.000000 0.000000 0.000000
f 889/1/223 890/2/223 891/3/223 892/4/223
v 0.437500 0.937500 0.875000
v 0.562500 0.937500 0.875000
v 0.562500 0.937500 0.750000
v 0.437500 0.937500 0.750000
vn -0.000000 1.000000 0.000000
f 893/1/224 894/2/224 895/3/224 896/4/224
v 0.437500 0.812500 0.750000
v 0.562500 0.812500 0.750000
v 0.562500 0.812500 0.875000
v 0.437500 0.812500 0.875000
vn 0.000000 -1.000000 0.000000
f 897/1/225 898/2/225 899/3/225 900/4/225
usemtl cable
v 0.500000 0.871587 0.766654
v 0.664292 0.319224 0.648311
v 0.667099 0.327582 0.633776
v 0.514218 0.877037 0.759094
vn 0.482125 -0.044066 0.874993
f 901/1/226 902/2/226 903/3/226 904/4/226
v 0.514218 0.877037 0.759094
v 0.667099 0.327582 0.633776
v 0.655284 0.327582 0.621553
v 0.514218 0.880450 0.742440
vn 0.965103 0.256539 0.052581
f 905/1/227 906/2/227 907/3/227 908/4/227
v 0.514218 0.880450 0.742440
v 0.655284 0.327582 0.621553
v 0.640662 0.319224 0.623864
v 0.500000 0.878413 0.733346
vn 0.482374 0.302806 -0.821964
f 909/1/228 910/2/228 911/3/228 912/4/228
v 0.500000 0.878413 0.733346
v 0.640662 0.319224 0.623864
v 0.637855 0.310865 0.638398
v 0.485782 0.872963 0.740906
vn -0.483602 0.049449 -0.873890
f 913/1/229 914/2/229 915/3/229 916/4/229
v 0.485782 0.872963 0.740906
v 0.637855 0.310865 0.638398
v 0.649670 0.310865 0.650622
v 0.485782 0.869550 0.757560
vn -0.966342 -0.252020 -0.051654
f 917/1/230 918/2/230 919/3/230 920/4/230
v 0.485782 0.869550 0.757560
v 0.649670 0.310865 0.650622
v 0.664292 0.319224 0.648311
v 0.500000 0.871587 0.766654
vn -0.483347 -0.299259 0.822691
f 921/1/231 922/2/231 923/3/231 924/4/231
v 0.664292 0.319224 0.648311
v 0.817401 0.134440 0.483753
v 0.813870 0.148622 0.475069
v 0.667099 0.327582 0.633776
vn 0.849825 0.369013 0.376335
f 925/1/232 926/2/232 927/3/232 928/4/232
v 0.667099 0.327582 0.633776
v 0.813870 0.148622 0.475069
v 0.801423 0.148622 0.463490
v 0.655284 0.327582 0.621553
vn 0.458949 0.769796 -0.443599
f 929/1/233 930/2/233 931/3/233 932/4/233
v 0.655284 0.327582 0.621553
v 0.801423 0.148622 0.463490
v 0.792507 0.134440 0.460596
v 0.640662 0.319224 0.623864
vn -0.372957 0.424256 -0.825173
f 933/1/234 934/2/234 935/3/234 936/4/234
v 0.640662 0.319224 0.623864
v 0.792507 0.134440 0.460596
v 0.796038 0.120259 0.469280
v 0.637855 0.310865 0.638398
vn -0.850877 -0.367351 -0.375582
f 937/1/235 938/2/235 939/3/235 940/4/235
v 0.637855 0.310865 0.638398
v 0.796038 0.120259 0.469280
v 0.808485 0.120259 0.480859
v 0.649670 0.310865 0.650622
vn -0.457303 -0.771688 0.442008
f 941/1/236 942/2/236 943/3/236 944/4/236
v 0.649670 0.310865 0.650622
v 0.808485 0.120259 0.480859
v 0.817401 0.134440 0.483753
v 0.664292 0.319224 0.648311
vn 0.372942 -0.424221 0.825197
f 945/1/237 946/2/237 947/3/237 948/4/237
v 0.817401 0.134440 0.483753
v 0.969878 0.167422 0.319840
v 0.963935 0.182139 0.313750
v 0.813870 0.148622 0.475069
vn 0.565974 0.528415 0.632812
f 949/1/238 950/2/238 951/3/238 952/4/238
v 0.813870 0.148622 0.475069
v 0.963935 0.182139 0.313750
v 0.951488 0.182139 0.302171
v 0.801423 0.148622 0.463490
vn -0.102434 0.988626 0.110117
f 953/1/239 954/2/239 955/3/239 956/4/239
v 0.801423 0.148622 0.463490
v 0.951488 0.182139 0.302171
v 0.944984 0.167422 0.296683
v 0.792507 0.134440 0.460596
vn -0.673421 0.528836 -0.516563
f 957/1/240 958/2/240 959/3/240 960/4/240
v 0.792507 0.134440 0.460596
v 0.944984 0.167422 0.296683
v 0.950927 0.152705 0.302773
v 0.796038 0.120259 0.469280
vn -0.565974 -0.528415 -0.632812
f 961/1/241 962/2/241 963/3/241 964/4/241
v 0.796038 0.120259 0.469280
v 0.950927 0.152705 0.302773
v 0.963374 0.152705 0.314352
v 0.808485 0.120259 0.480859
vn 0.096205 -0.989974 -0.103421
f 965/1/242 966/2/242 967/3/242 968/4/242
v 0.808485 0.120259 0.480859
v 0.963374 0.152705 0.314352
v 0.969878 0.167422 0.319840
v 0.817401 0.134440 0.483753
vn 0.670663 -0.528004 0.520982
f 969/1/243 970/2/243 971/3/243 972/4/243
v 0.969878 0.167422 0.319840
v 1.122355 0.121539 0.155928
v 1.118427 0.135870 0.147670
v 0.963935 0.182139 0.313750
vn 0.700812 0.495432 0.513235
f 973/1/244 974/2/244 975/3/244 976/4/244
v 0.963935 0.182139 0.313750
v 1.118427 0.135870 0.147670
v 1.105980 0.135870 0.136092
v 0.951488 0.182139 0.302171
vn 0.136130 0.979823 -0.146339
f 977/1/245 978/2/245 979/3/245 980/4/245
v 0.951488 0.182139 0.302171
v 1.105980 0.135870 0.136092
v 1.097461 0.121539 0.132770
v 0.944984 0.167422 0.296683
vn -0.562841 0.495466 -0.661606
f 981/1/246 982/2/246 983/3/246 984/4/246
v 0.944984 0.167422 0.296683
v 1.097461 0.121539 0.132770
v 1.101389 0.107207 0.141027
v 0.950927 0.152705 0.302773
vn -0.700812 -0.495432 -0.513235
f 985/1/247 986/2/247 987/3/247 988/4/247
v 0.950927 0.152705 0.302773
v 1.101389 0.107207 0.141027
v 1.113836 0.107207 0.152606
v 0.963374 0.152705 0.314352
vn -0.137395 -0.979442 0.147700
f 989/1/248 990/2/248 991/3/248 992/4/248
v 0.963374 0.152705 0.314352
v 1.113836 0.107207 0.152606
v 1.122355 0.121539 0.155928
v 0.969878 0.167422 0.319840
vn 0.562130 -0.495396 0.662263
f 993/1/249 994/2/249 995/3/249 996/4/249
v 1.122355 0.121539 0.155928
v 1.274832 0.062026 -0.007985
v 1.270970 0.076334 -0.016313
v 1.118427 0.135870 0.147670
vn 0.721547 0.483368 0.495707
f 997/1/250 998/2/250 999/3/250 1000/4/250
v 1.118427 0.135870 0.147670
v 1.270970 0.076334 -0.016313
v 1.258523 0.076334 -0.027892
v 1.105980 0.135870 0.136092
vn 0.174979 0.966437 -0.188103
f 1001/1/251 1002/2/251 1003/3/251 1004/4/251
v 1.105980 0.135870 0.136092
v 1.258523 0.076334 -0.027892
v 1.249938 0.062026 -0.031143
v 1.097461 0.121539 0.132770
vn -0.546510 0.483369 -0.683873
f 1005/1/252 1006/2/252 1007/3/252 1008/4/252
v 1.097461 0.121539 0.132770
v 1.249938 0.062026 -0.031143
v 1.253800 0.047718 -0.022815
v 1.101389 0.107207 0.141027
vn -0.721547 -0.483368 -0.495707
f 1009/1/253 1010/2/253 1011/3/253 1012/4/253
v 1.101389 0.107207 0.141027
v 1.253800 0.047718 -0.022815
v 1.266247 0.047718 -0.011236
v 1.113836 0.107207 0.152606
vn -0.174994 -0.966431 0.188118
f 1013/1/254 1014/2/254 1015/3/254 1016/4/254
v 1.113836 0.107207 0.152606
v 1.266247 0.047718 -0.011236
v 1.274832 0.062026 -0.007985
v 1.122355 0.121539 0.155928
vn 0.546502 -0.483366 0.683880
f 1017/1/255 1018/2/255 1019/3/255 1020/4/255
v 1.274832 0.062026 -0.007985
v 1.427309 0.012992 -0.171898
v 1.423030 0.027435 -0.179777
v 1.270970 0.076334 -0.016313
vn 0.706931 0.488511 0.511474
f 1021/1/256 1022/2/256 1023/3/256 1024/4/256
v 1.270970 0.076334 -0.016313
v 1.423030 0.027435 -0.179777
v 1.410583 0.027435 -0.191356
v 1.258523 0.076334 -0.027892
vn 0.145726 0.976843 -0.156656
f 1025/1/257 1026/2/257 1027/3/257 1028/4/257
v 1.258523 0.076334 -0.027892
v 1.410583 0.027435 -0.191356
v 1.402415 0.012992 -0.195055
v 1.249938 0.062026 -0.031143
vn -0.561177 0.488511 -0.668159
f 1029/1/258 1030/2/258 1031/3/258 1032/4/258
v 1.249938 0.062026 -0.031143
v 1.402415 0.012992 -0.195055
v 1.406694 -0.001451 -0.187176
v 1.253800 0.047718 -0.022815
vn -0.706931 -0.488511 -0.511474
f 1033/1/259 1034/2/259 1035/3/259 1036/4/259
v 1.253800 0.047718 -0.022815
v 1.406694 -0.001451 -0.187176
v 1.419141 -0.001451 -0.175597
v 1.266247 0.047718 -0.011236
vn -0.145729 -0.976842 0.156659
f 1037/1/260 1038/2/260 1039/3/260 1040/4/260
v 1.266247 0.047718 -0.011236
v 1.419141 -0.001451 -0.175597
v 1.427309 0.012992 -0.171898
v 1.274832 0.062026 -0.007985
vn 0.561176 -0.488511 0.668161
f 1041/1/261 1042/2/261 1043/3/261 1044/4/261
v 1.427309 0.012992 -0.171898
v 1.579786 -0.026510 -0.335811
v 1.575111 -0.011964 -0.343265
v 1.423030 0.027435 -0.179777
vn 0.693246 0.492471 0.526196
f 1045/1/262 1046/2/262 1047/3/262 1048/4/262
v 1.423030 0.027435 -0.179777
v 1.575111 -0.011964 -0.343265
v 1.562664 -0.011964 -0.354843
v 1.410583 0.027435 -0.191356
vn 0.118354 0.984787 -0.127231
f 1049/1/263 1050/2/263 1051/3/263 1052/4/263
v 1.410583 0.027435 -0.191356
v 1.562664 -0.011964 -0.354843
v 1.554892 -0.026510 -0.358968
v 1.402415 0.012992 -0.195055
vn -0.574873 0.492471 -0.653448
f 1053/1/264 1054/2/264 1055/3/264 1056/4/264
v 1.402415 0.012992 -0.195055
v 1.554892 -0.026510 -0.358968
v 1.559567 -0.041056 -0.351514
v 1.406694 -0.001451 -0.187176
vn -0.693246 -0.492471 -0.526196
f 1057/1/265 1058/2/265 1059/3/265 1060/4/265
v 1.406694 -0.001451 -0.187176
v 1.559567 -0.041056 -0.351514
v 1.572014 -0.041056 -0.339936
v 1.419141 -0.001451 -0.175597
vn -0.118356 -0.984786 0.127233
f 1061/1/266 1062/2/266 1063/3/266 1064/4/266
v 1.419141 -0.001451 -0.175597
v 1.572014 -0.041056 -0.339936
v 1.579786 -0.026510 -0.335811
v 1.427309 0.012992 -0.171898
vn 0.574872 -0.492471 0.653449
f 1065/1/267 1066/2/267 1067/3/267 1068/4/267
v 1.579786 -0.026510 -0.335811
v 1.732263 -0.057012 -0.499723
v 1.727203 -0.042389 -0.506763
v 1.575111 -0.011964 -0.343265
vn 0.680044 0.495494 0.540394
f 1069/1/268 1070/2/268 1071/3/268 1072/4/268
v 1.575111 -0.011964 -0.343265
v 1.727203 -0.042389 -0.506763
v 1.714756 -0.042389 -0.518342
v 1.562664 -0.011964 -0.354843
vn 0.091951 0.990845 -0.098848
f 1073/1/269 1074/2/269 1075/3/269 1076/4/269
v 1.562664 -0.011964 -0.354843
v 1.714756 -0.042389 -0.518342
v 1.707369 -0.057012 -0.522881
v 1.554892 -0.026510 -0.358968
vn -0.588079 0.495494 -0.639256
f 1077/1/270 1078/2/270 1079/3/270 1080/4/270
v 1.554892 -0.026510 -0.358968
v 1.707369 -0.057012 -0.522881
v 1.712429 -0.071635 -0.515841
v 1.559567 -0.041056 -0.351514
vn -0.680044 -0.495494 -0.540394
f 1081/1/271 1082/2/271 1083/3/271 1084/4/271
v 1.559567 -0.041056 -0.351514
v 1.712429 -0.071635 -0.515841
v 1.724876 -0.071635 -0.504262
v 1.572014 -0.041056 -0.339936
vn -0.091952 -0.990845 0.098849
f 1085/1/272 1086/2/272 1087/3/272 1088/4/272
v 1.572014 -0.041056 -0.339936
v 1.724876 -0.071635 -0.504262
v 1.732263 -0.057012 -0.499723
v 1.579786 -0.026510 -0.335811
vn 0.588079 -0.495494 0.639256
f 1089/1/273 1090/2/273 1091/3/273 1092/4/273
v 1.732263 -0.057012 -0.499723
v 1.884740 -0.078820 -0.663636
v 1.879300 -0.064143 -0.670268
v 1.727203 -0.042389 -0.506763
vn 0.667086 0.497713 0.554327
f 1093/1/274 1094/2/274 1095/3/274 1096/4/274
v 1.727203 -0.042389 -0.506763
v 1.879300 -0.064143 -0.670268
v 1.866853 -0.064143 -0.681846
v 1.714756 -0.042389 -0.518342
vn 0.066036 0.995289 -0.070989
f 1097/1/275 1098/2/275 1099/3/275 1100/4/275
v 1.714756 -0.042389 -0.518342
v 1.866853 -0.064143 -0.681846
v 1.859846 -0.078820 -0.686794
v 1.707369 -0.057012 -0.522881
vn -0.601041 0.497713 -0.625326
f 1101/1/276 1102/2/276 1103/3/276 1104/4/276
v 1.707369 -0.057012 -0.522881
v 1.859846 -0.078820 -0.686794
v 1.865286 -0.093497 -0.680162
v 1.712429 -0.071635 -0.515841
vn -0.667086 -0.497713 -0.554327
f 1105/1/277 1106/2/277 1107/3/277 1108/4/277
v 1.712429 -0.071635 -0.515841
v 1.865286 -0.093497 -0.680162
v 1.877733 -0.093497 -0.668584
v 1.724876 -0.071635 -0.504262
vn -0.066037 -0.995289 0.070989
f 1109/1/278 1110/2/278 1111/3/278 1112/4/278
v 1.724876 -0.071635 -0.504262
v 1.877733 -0.093497 -0.668584
v 1.884740 -0.078820 -0.663636
v 1.732263 -0.057012 -0.499723
vn 0.601040 -0.497713 0.625326
f 1113/1/279 1114/2/279 1115/3/279 1116/4/279
v 1.884740 -0.078820 -0.663636
v 2.037217 -0.092109 -0.827549
v 2.031400 -0.077399 -0.833775
v 1.879300 -0.064143 -0.670268
vn 0.654247 0.499188 0.568130
f 1117/1/280 1118/2/280 1119/3/280 1120/4/280
v 1.879300 -0.064143 -0.670268
v 2.031400 -0.077399 -0.833775
v 2.018953 -0.077399 -0.845354
v 1.866853 -0.064143 -0.681846
vn 0.040361 0.998243 -0.043388
f 1121/1/281 1122/2/281 1123/3/281 1124/4/281
v 1.866853 -0.064143 -0.681846
v 2.018953 -0.077399 -0.845354
v 2.012323 -0.092109 -0.850707
v 1.859846 -0.078820 -0.686794
vn -0.613881 0.499188 -0.611524
f 1125/1/282 1126/2/282 1127/3/282 1128/4/282
v 1.859846 -0.078820 -0.686794
v 2.012323 -0.092109 -0.850707
v 2.018140 -0.106820 -0.844480
v 1.865286 -0.093497 -0.680162
vn -0.654247 -0.499188 -0.568130
f 1129/1/283 1130/2/283 1131/3/283 1132/4/283
v 1.865286 -0.093497 -0.680162
v 2.018140 -0.106820 -0.844480
v 2.030587 -0.106820 -0.832902
v 1.877733 -0.093497 -0.668584
vn -0.040361 -0.998243 0.043388
f 1133/1/284 1134/2/284 1135/3/284 1136/4/284
v 1.877733 -0.093497 -0.668584
v 2.030587 -0.106820 -0.832902
v 2.037217 -0.092109 -0.827549
v 1.884740 -0.078820 -0.663636
vn 0.613881 -0.499188 0.611524
f 1137/1/285 1138/2/285 1139/3/285 1140/4/285
v 2.037217 -0.092109 -0.827549
v 2.189694 -0.096978 -0.991462
v 2.183501 -0.082256 -0.997284
v 2.031400 -0.077399 -0.833775
vn 0.641471 0.499948 0.581866
f 1141/1/286 1142/2/286 1143/3/286 1144/4/286
v 2.031400 -0.077399 -0.833775
v 2.183501 -0.082256 -0.997284
v 2.171054 -0.082256 -1.008863
v 2.018953 -0.077399 -0.845354
vn 0.014810 0.999764 -0.015921
f 1145/1/287 1146/2/287 1147/3/287 1148/4/287
v 2.018953 -0.077399 -0.845354
v 2.171054 -0.082256 -1.008863
v 2.164800 -0.096978 -1.014619
v 2.012323 -0.092109 -0.850707
vn -0.626658 0.499948 -0.597789
f 1149/1/288 1150/2/288 1151/3/288 1152/4/288
v 2.012323 -0.092109 -0.850707
v 2.164800 -0.096978 -1.014619
v 2.170993 -0.111701 -1.008797
v 2.018140 -0.106820 -0.844480
vn -0.641471 -0.499948 -0.581866
f 1153/1/289 1154/2/289 1155/3/289 1156/4/289
v 2.018140 -0.106820 -0.844480
v 2.170993 -0.111701 -1.008797
v 2.183440 -0.111701 -0.997218
v 2.030587 -0.106820 -0.832902
vn -0.014811 -0.999764 0.015921
f 1157/1/290 1158/2/290 1159/3/290 1160/4/290
v 2.030587 -0.106820 -0.832902
v 2.183440 -0.111701 -0.997218
v 2.189694 -0.096978 -0.991462
v 2.037217 -0.092109 -0.827549
vn 0.626658 -0.499948 0.597789
f 1161/1/291 1162/2/291 1163/3/291 1164/4/291
v 2.189694 -0.096978 -0.991462
v 2.342171 -0.093477 -1.155375
v 2.335604 -0.078763 -1.160795
v 2.183501 -0.082256 -0.997284
vn 0.628738 0.500004 0.595554
f 1165/1/292 1166/2/292 1167/3/292 1168/4/292
v 2.183501 -0.082256 -0.997284
v 2.335604 -0.078763 -1.160795
v 2.323157 -0.078763 -1.172373
v 2.171054 -0.082256 -1.008863
vn -0.010652 0.999878 0.011451
f 1169/1/293 1170/2/293 1171/3/293 1172/4/293
v 2.171054 -0.082256 -1.008863
v 2.323157 -0.078763 -1.172373
v 2.317277 -0.093477 -1.178532
v 2.164800 -0.096978 -1.014619
vn -0.639391 0.500004 -0.584101
f 1173/1/294 1174/2/294 1175/3/294 1176/4/294
v 2.164800 -0.096978 -1.014619
v 2.317277 -0.093477 -1.178532
v 2.323844 -0.108191 -1.173112
v 2.170993 -0.111701 -1.008797
vn -0.628738 -0.500004 -0.595554
f 1177/1/295 1178/2/295 1179/3/295 1180/4/295
v 2.170993 -0.111701 -1.008797
v 2.323844 -0.108191 -1.173112
v 2.336291 -0.108191 -1.161533
v 2.183440 -0.111701 -0.997218
vn 0.010652 -0.999878 -0.011451
f 1181/1/296 1182/2/296 1183/3/296 1184/4/296
v 2.183440 -0.111701 -0.997218
v 2.336291 -0.108191 -1.161533
v 2.342171 -0.093477 -1.155375
v 2.189694 -0.096978 -0.991462
vn 0.639391 -0.500004 0.584101
f 1185/1/297 1186/2/297 1187/3/297 1188/4/297
v 2.342171 -0.093477 -1.155375
v 2.494648 -0.081620 -1.319287
v 2.487708 -0.066935 -1.324306
v 2.335604 -0.078763 -1.160795
vn 0.616050 0.499365 0.609193
f 1189/1/298 1190/2/298 1191/3/298 1192/4/298
v 2.335604 -0.078763 -1.160795
v 2.487708 -0.066935 -1.324306
v 2.475261 -0.066935 -1.335885
v 2.323157 -0.078763 -1.172373
vn -0.036024 0.998600 0.038726
f 1193/1/299 1194/2/299 1195/3/299 1196/4/299
v 2.323157 -0.078763 -1.172373
v 2.475261 -0.066935 -1.335885
v 2.469754 -0.081620 -1.342445
v 2.317277 -0.093477 -1.178532
vn -0.652079 0.499365 -0.570462
f 1197/1/300 1198/2/300 1199/3/300 1200/4/300
v 2.317277 -0.093477 -1.178532
v 2.469754 -0.081620 -1.342445
v 2.476694 -0.096305 -1.337426
v 2.323844 -0.108191 -1.173112
vn -0.616050 -0.499365 -0.609193
f 1201/1/301 1202/2/301 1203/3/301 1204/4/301
v 2.323844 -0.108191 -1.173112
v 2.476694 -0.096305 -1.337426
v 2.489141 -0.096305 -1.325847
v 2.336291 -0.108191 -1.161533
vn 0.036024 -0.998600 -0.038726
f 1205/1/302 1206/2/302 1207/3/302 1208/4/302
v 2.336291 -0.108191 -1.161533
v 2.489141 -0.096305 -1.325847
v 2.494648 -0.081620 -1.319287
v 2.342171 -0.093477 -1.155375
vn 0.652079 -0.499365 0.570462
f 1209/1/303 1210/2/303 1211/3/303 1212/4/303
v 2.494648 -0.081620 -1.319287
v 2.647125 -0.061392 -1.483200
v 2.639814 -0.046757 -1.487820
v 2.487708 -0.066935 -1.324306
vn 0.603415 0.498036 0.622776
f 1213/1/304 1214/2/304 1215/3/304 1216/4/304
v 2.487708 -0.066935 -1.324306
v 2.639814 -0.046757 -1.487820
v 2.627367 -0.046757 -1.499399
v 2.475261 -0.066935 -1.335885
vn -0.061292 0.995943 0.065889
f 1217/1/305 1218/2/305 1219/3/305 1220/4/305
v 2.475261 -0.066935 -1.335885
v 2.627367 -0.046757 -1.499399
v 2.622231 -0.061392 -1.506358
v 2.469754 -0.081620 -1.342445
vn -0.664715 0.498036 -0.556879
f 1221/1/306 1222/2/306 1223/3/306 1224/4/306
v 2.469754 -0.081620 -1.342445
v 2.622231 -0.061392 -1.506358
v 2.629542 -0.076028 -1.501738
v 2.476694 -0.096305 -1.337426
vn -0.603415 -0.498036 -0.622776
f 1225/1/307 1226/2/307 1227/3/307 1228/4/307
v 2.476694 -0.096305 -1.337426
v 2.629542 -0.076028 -1.501738
v 2.641989 -0.076028 -1.490159
v 2.489141 -0.096305 -1.325847
vn 0.061292 -0.995943 -0.065889
f 1229/1/308 1230/2/308 1231/3/308 1232/4/308
v 2.489141 -0.096305 -1.325847
v 2.641989 -0.076028 -1.490159
v 2.647125 -0.061392 -1.483200
v 2.494648 -0.081620 -1.319287
vn 0.664715 -0.498036 0.556879
f 1233/1/309 1234/2/309 1235/3/309 1236/4/309
v 2.647125 -0.061392 -1.483200
v 2.799602 -0.032744 -1.647113
v 2.791921 -0.018178 -1.651335
v 2.639814 -0.046757 -1.487820
vn 0.590832 0.496020 0.636303
f 1237/1/310 1238/2/310 1239/3/310 1240/4/310
v 2.639814 -0.046757 -1.487820
v 2.791921 -0.018178 -1.651335
v 2.779474 -0.018178 -1.662914
v 2.627367 -0.046757 -1.499399
vn -0.086454 0.991911 0.092938
f 1241/1/311 1242/2/311 1243/3/311 1244/4/311
v 2.627367 -0.046757 -1.499399
v 2.779474 -0.018178 -1.662914
v 2.774708 -0.032744 -1.670270
v 2.622231 -0.061392 -1.506358
vn -0.677298 0.496020 -0.543353
f 1245/1/312 1246/2/312 1247/3/312 1248/4/312
v 2.622231 -0.061392 -1.506358
v 2.774708 -0.032744 -1.670270
v 2.782389 -0.047310 -1.666048
v 2.629542 -0.076028 -1.501738
vn -0.590832 -0.496020 -0.636303
f 1249/1/313 1250/2/313 1251/3/313 1252/4/313
v 2.629542 -0.076028 -1.501738
v 2.782389 -0.047310 -1.666048
v 2.794836 -0.047310 -1.654469
v 2.641989 -0.076028 -1.490159
vn 0.086454 -0.991911 -0.092938
f 1253/1/314 1254/2/314 1255/3/314 1256/4/314
v 2.641989 -0.076028 -1.490159
v 2.794836 -0.047310 -1.654469
v 2.799602 -0.032744 -1.647113
v 2.647125 -0.061392 -1.483200
vn 0.677298 -0.496020 0.543353
f 1257/1/315 1258/2/315 1259/3/315 1260/4/315
v 2.799602 -0.032744 -1.647113
v 2.952079 0.004422 -1.811026
v 2.944028 0.018898 -1.814850
v 2.791921 -0.018178 -1.651335
vn 0.578283 0.493313 0.649793
f 1261/1/316 1262/2/316 1263/3/316 1264/4/316
v 2.791921 -0.018178 -1.651335
v 2.944028 0.018898 -1.814850
v 2.931581 0.018898 -1.826429
v 2.779474 -0.018178 -1.662914
vn -0.111549 0.986497 0.119916
f 1265/1/317 1266/2/317 1267/3/317 1268/4/317
v 2.779474 -0.018178 -1.662914
v 2.931581 0.018898 -1.826429
v 2.927185 0.004422 -1.834183
v 2.774708 -0.032744 -1.670270
vn -0.689847 0.493313 -0.529862
f 1269/1/318 1270/2/318 1271/3/318 1272/4/318
v 2.774708 -0.032744 -1.670270
v 2.927185 0.004422 -1.834183
v 2.935236 -0.010054 -1.830359
v 2.782389 -0.047310 -1.666048
vn -0.578283 -0.493313 -0.649793
f 1273/1/319 1274/2/319 1275/3/319 1276/4/319
v 2.782389 -0.047310 -1.666048
v 2.935236 -0.010054 -1.830359
v 2.947683 -0.010054 -1.818780
v 2.794836 -0.047310 -1.654469
vn 0.111550 -0.986497 -0.119916
f 1277/1/320 1278/2/320 1279/3/320 1280/4/320
v 2.794836 -0.047310 -1.654469
v 2.947683 -0.010054 -1.818780
v 2.952079 0.004422 -1.811026
v 2.799602 -0.032744 -1.647113
vn 0.689847 -0.493313 0.529862
f 1281/1/321 1282/2/321 1283/3/321 1284/4/321
v 2.952079 0.004422 -1.811026
v 3.104556 0.050283 -1.974938
v 3.096133 0.064647 -1.978363
v 2.944028 0.018898 -1.814850
vn 0.565710 0.489892 0.663308
f 1285/1/322 1286/2/322 1287/3/322 1288/4/322
v 2.944028 0.018898 -1.814850
v 3.096133 0.064647 -1.978363
v 3.083685 0.064647 -1.989942
v 2.931581 0.018898 -1.826429
vn -0.136690 0.979655 0.146942
f 1289/1/323 1290/2/323 1291/3/323 1292/4/323
v 2.931581 0.018898 -1.826429
v 3.083685 0.064647 -1.989942
v 3.079662 0.050283 -1.998096
v 2.927185 0.004422 -1.834183
vn -0.702418 0.489892 -0.516347
f 1293/1/324 1294/2/324 1295/3/324 1296/4/324
v 2.927185 0.004422 -1.834183
v 3.079662 0.050283 -1.998096
v 3.088085 0.035919 -1.994672
v 2.935236 -0.010054 -1.830359
vn -0.565710 -0.489892 -0.663308
f 1297/1/325 1298/2/325 1299/3/325 1300/4/325
v 2.935236 -0.010054 -1.830359
v 3.088085 0.035919 -1.994672
v 3.100533 0.035919 -1.983093
v 2.947683 -0.010054 -1.818780
vn 0.136691 -0.979655 -0.146942
f 1301/1/326 1302/2/326 1303/3/326 1304/4/326
v 2.947683 -0.010054 -1.818780
v 3.100533 0.035919 -1.983093
v 3.104556 0.050283 -1.974938
v 2.952079 0.004422 -1.811026
vn 0.702419 -0.489892 0.516346
f 1305/1/327 1306/2/327 1307/3/327 1308/4/327
v 3.104556 0.050283 -1.974938
v 3.257033 0.105144 -2.138851
v 3.248230 0.119371 -2.141867
v 3.096133 0.064647 -1.978363
vn 0.552995 0.485697 0.676975
f 1309/1/328 1310/2/328 1311/3/328 1312/4/328
v 3.096133 0.064647 -1.978363
v 3.248230 0.119371 -2.141867
v 3.235783 0.119371 -2.153446
v 3.083685 0.064647 -1.989942
vn -0.162114 0.971261 0.174272
f 1313/1/329 1314/2/329 1315/3/329 1316/4/329
v 3.083685 0.064647 -1.989942
v 3.235783 0.119371 -2.153446
v 3.232139 0.105144 -2.162009
v 3.079662 0.050283 -1.998096
vn -0.715131 0.485697 -0.502678
f 1317/1/330 1318/2/330 1319/3/330 1320/4/330
v 3.079662 0.050283 -1.998096
v 3.232139 0.105144 -2.162009
v 3.240942 0.090917 -2.158993
v 3.088085 0.035919 -1.994672
vn -0.552995 -0.485697 -0.676975
f 1321/1/331 1322/2/331 1323/3/331 1324/4/331
v 3.088085 0.035919 -1.994672
v 3.240942 0.090917 -2.158993
v 3.253389 0.090917 -2.147414
v 3.100533 0.035919 -1.983093
vn 0.162115 -0.971261 -0.174273
f 1325/1/332 1326/2/332 1327/3/332 1328/4/332
v 3.100533 0.035919 -1.983093
v 3.253389 0.090917 -2.147414
v 3.257033 0.105144 -2.138851
v 3.104556 0.050283 -1.974938
vn 0.715132 -0.485697 0.502678
f 1329/1/333 1330/2/333 1331/3/333 1332/4/333
v 3.257033 0.105144 -2.138851
v 3.409510 0.169536 -2.302764
v 3.400310 0.183595 -2.305353
v 3.248230 0.119371 -2.141867
vn 0.539909 0.480589 0.691038
f 1333/1/334 1334/2/334 1335/3/334 1336/4/334
v 3.248230 0.119371 -2.141867
v 3.400310 0.183595 -2.305353
v 3.387863 0.183595 -2.316932
v 3.235783 0.119371 -2.153446
vn -0.188275 0.961035 0.202395
f 1337/1/335 1338/2/335 1339/3/335 1340/4/335
v 3.235783 0.119371 -2.153446
v 3.387863 0.183595 -2.316932
v 3.384616 0.169536 -2.325922
v 3.232139 0.105144 -2.162009
vn -0.728212 0.480589 -0.488611
f 1341/1/336 1342/2/336 1343/3/336 1344/4/336
v 3.232139 0.105144 -2.162009
v 3.384616 0.169536 -2.325922
v 3.393816 0.155477 -2.323332
v 3.240942 0.090917 -2.158993
vn -0.539909 -0.480589 -0.691038
f 1345/1/337 1346/2/337 1347/3/337 1348/4/337
v 3.240942 0.090917 -2.158993
v 3.393816 0.155477 -2.323332
v 3.406263 0.155477 -2.311753
v 3.253389 0.090917 -2.147414
vn 0.188277 -0.961034 -0.202398
f 1349/1/338 1350/2/338 1351/3/338 1352/4/338
v 3.253389 0.090917 -2.147414
v 3.406263 0.155477 -2.311753
v 3.409510 0.169536 -2.302764
v 3.257033 0.105144 -2.138851
vn 0.728214 -0.480588 0.488610
f 1353/1/339 1354/2/339 1355/3/339 1356/4/339
v 3.409510 0.169536 -2.302764
v 3.561987 0.244407 -2.466677
v 3.552354 0.258252 -2.468801
v 3.400310 0.183595 -2.305353
vn 0.526023 0.474264 0.705956
f 1357/1/340 1358/2/340 1359/3/340 1360/4/340
v 3.400310 0.183595 -2.305353
v 3.552354 0.258252 -2.468801
v 3.539907 0.258252 -2.480379
v 3.387863 0.183595 -2.316932
vn -0.216027 0.948368 0.232229
f 1361/1/341 1362/2/341 1363/3/341 1364/4/341
v 3.387863 0.183595 -2.316932
v 3.539907 0.258252 -2.480379
v 3.537093 0.244407 -2.489834
v 3.384616 0.169536 -2.325922
vn -0.742088 0.474265 -0.473685
f 1365/1/342 1366/2/342 1367/3/342 1368/4/342
v 3.384616 0.169536 -2.325922
v 3.537093 0.244407 -2.489834
v 3.546726 0.230562 -2.487711
v 3.393816 0.155477 -2.323332
vn -0.526023 -0.474264 -0.705956
f 1369/1/343 1370/2/343 1371/3/343 1372/4/343
v 3.393816 0.155477 -2.323332
v 3.546726 0.230562 -2.487711
v 3.559174 0.230562 -2.476132
v 3.406263 0.155477 -2.311753
vn 0.216033 -0.948365 -0.232235
f 1373/1/344 1374/2/344 1375/3/344 1376/4/344
v 3.406263 0.155477 -2.311753
v 3.559174 0.230562 -2.476132
v 3.561987 0.244407 -2.466677
v 3.409510 0.169536 -2.302764
vn 0.742091 -0.474264 0.473682
f 1377/1/345 1378/2/345 1379/3/345 1380/4/345
v 3.561987 0.244407 -2.466677
v 3.714464 0.331546 -2.630590
v 3.704322 0.345097 -2.632166
v 3.552354 0.258252 -2.468801
vn 0.510490 0.466049 0.722633
f 1381/1/346 1382/2/346 1383/3/346 1384/4/346
v 3.552354 0.258252 -2.468801
v 3.704322 0.345097 -2.632166
v 3.691874 0.345097 -2.643745
v 3.539907 0.258252 -2.480379
vn -0.247052 0.931897 0.265580
f 1385/1/347 1386/2/347 1387/3/347 1388/4/347
v 3.539907 0.258252 -2.480379
v 3.691874 0.345097 -2.643745
v 3.689570 0.331546 -2.653747
v 3.537093 0.244407 -2.489834
vn -0.757599 0.466051 -0.456991
f 1389/1/348 1390/2/348 1391/3/348 1392/4/348
v 3.537093 0.244407 -2.489834
v 3.689570 0.331546 -2.653747
v 3.699712 0.317994 -2.652171
v 3.546726 0.230562 -2.487711
vn -0.510490 -0.466049 -0.722633
f 1393/1/349 1394/2/349 1395/3/349 1396/4/349
v 3.546726 0.230562 -2.487711
v 3.699712 0.317994 -2.652171
v 3.712160 0.317994 -2.640592
v 3.559174 0.230562 -2.476132
vn 0.247065 -0.931890 -0.265594
f 1397/1/350 1398/2/350 1399/3/350 1400/4/350
v 3.559174 0.230562 -2.476132
v 3.712160 0.317994 -2.640592
v 3.714464 0.331546 -2.630590
v 3.561987 0.244407 -2.466677
vn 0.757605 -0.466048 0.456984
f 1401/1/351 1402/2/351 1403/3/351 1404/4/351
v 3.714464 0.331546 -2.630590
v 3.866941 0.434721 -2.794502
v 3.856106 0.447795 -2.795335
v 3.704322 0.345097 -2.632166
vn 0.491428 0.454251 0.743071
f 1405/1/352 1406/2/352 1407/3/352 1408/4/352
v 3.704322 0.345097 -2.632166
v 3.856106 0.447795 -2.795335
v 3.843659 0.447795 -2.806913
v 3.691874 0.345097 -2.643745
vn -0.285063 0.908203 0.306442
f 1409/1/353 1410/2/353 1411/3/353 1412/4/353
v 3.691874 0.345097 -2.643745
v 3.843659 0.447795 -2.806913
v 3.842047 0.434721 -2.817660
v 3.689570 0.331546 -2.653747
vn -0.776600 0.454258 -0.436512
f 1413/1/354 1414/2/354 1415/3/354 1416/4/354
v 3.689570 0.331546 -2.653747
v 3.842047 0.434721 -2.817660
v 3.852882 0.421648 -2.816827
v 3.699712 0.317994 -2.652171
vn -0.491428 -0.454251 -0.743071
f 1417/1/355 1418/2/355 1419/3/355 1420/4/355
v 3.699712 0.317994 -2.652171
v 3.852882 0.421648 -2.816827
v 3.865329 0.421648 -2.805249
v 3.712160 0.317994 -2.640592
vn 0.285107 -0.908173 -0.306490
f 1421/1/356 1422/2/356 1423/3/356 1424/4/356
v 3.712160 0.317994 -2.640592
v 3.865329 0.421648 -2.805249
v 3.866941 0.434721 -2.794502
v 3.714464 0.331546 -2.630590
vn 0.776622 -0.454244 0.436487
f 1425/1/357 1426/2/357 1427/3/357 1428/4/357
v 3.866941 0.434721 -2.794502
v 4.019418 0.564030 -2.958415
v 4.006944 0.575543 -2.957485
v 3.856106 0.447795 -2.795335
vn 0.463455 0.433306 0.772952
f 1429/1/358 1430/2/358 1431/3/358 1432/4/358
v 3.856106 0.447795 -2.795335
v 4.006944 0.575543 -2.957485
v 3.994497 0.575543 -2.969064
v 3.843659 0.447795 -2.806913
vn -0.340327 0.866216 0.365852
f 1433/1/359 1434/2/359 1435/3/359 1436/4/359
v 3.843659 0.447795 -2.806913
v 3.994497 0.575543 -2.969064
v 3.994524 0.564030 -2.981573
v 3.842047 0.434721 -2.817660
vn -0.804224 0.433443 -0.406634
f 1437/1/360 1438/2/360 1439/3/360 1440/4/360
v 3.842047 0.434721 -2.817660
v 3.994524 0.564030 -2.981573
v 4.006998 0.552518 -2.982502
v 3.852882 0.421648 -2.816827
vn -0.463455 -0.433306 -0.772952
f 1441/1/361 1442/2/361 1443/3/361 1444/4/361
v 3.852882 0.421648 -2.816827
v 4.006998 0.552518 -2.982502
v 4.019445 0.552518 -2.970924
v 3.865329 0.421648 -2.805249
vn 0.341003 -0.865643 -0.366578
f 1445/1/362 1446/2/362 1447/3/362 1448/4/362
v 3.865329 0.421648 -2.805249
v 4.019445 0.552518 -2.970924
v 4.019418 0.564030 -2.958415
v 3.866941 0.434721 -2.794502
vn 0.804560 -0.433173 0.406256
f 1449/1/363 1450/2/363 1451/3/363 1452/4/363
v 4.019418 0.564030 -2.958415
v 4.171895 0.805000 -3.122328
v 4.158325 0.815021 -3.120220
v 4.006944 0.575543 -2.957485
vn 0.380719 0.343170 0.858655
f 1453/1/364 1454/2/364 1455/3/364 1456/4/364
v 4.006944 0.575543 -2.957485
v 4.158325 0.815021 -3.120220
v 4.145878 0.815021 -3.131799
v 3.994497 0.575543 -2.969064
vn -0.499227 0.680264 0.536669
f 1457/1/365 1458/2/365 1459/3/365 1460/4/365
v 3.994497 0.575543 -2.969064
v 4.145878 0.815021 -3.131799
v 4.147001 0.805000 -3.145485
v 3.994524 0.564030 -2.981573
vn -0.884019 0.343004 -0.317582
f 1461/1/366 1462/2/366 1463/3/366 1464/4/366
v 3.994524 0.564030 -2.981573
v 4.147001 0.805000 -3.145485
v 4.160571 0.794979 -3.147593
v 4.006998 0.552518 -2.982502
vn -0.380719 -0.343170 -0.858655
f 1465/1/367 1466/2/367 1467/3/367 1468/4/367
v 4.006998 0.552518 -2.982502
v 4.160571 0.794979 -3.147593
v 4.173018 0.794979 -3.136015
v 4.019445 0.552518 -2.970924
vn 0.498766 -0.680992 -0.536174
f 1469/1/368 1470/2/368 1471/3/368 1472/4/368
v 4.019445 0.552518 -2.970924
v 4.173018 0.794979 -3.136015
v 4.171895 0.805000 -3.122328
v 4.019418 0.564030 -2.958415
vn 0.883782 -0.343334 0.317885
f 1473/1/369 1474/2/369 1475/3/369 1476/4/369
v 4.171895 0.805000 -3.122328
v 4.147001 0.805000 -3.145485
v 4.145878 0.815021 -3.131799
v 4.158325 0.815021 -3.120220
vn 0.463580 0.732627 -0.498349
f 1477/1/370 1478/2/370 1479/3/370 1480/4/370
v 4.171895 0.805000 -3.122328
v 4.173018 0.794979 -3.136015
v 4.160571 0.794979 -3.147593
v 4.147001 0.805000 -3.145485
vn 0.463580 0.732627 -0.498349
f 1481/1/371 1482/2/371 1483/3/371 1484/4/371
