# Generated by scripts/gen_pole_light_mounts.py
mtllib pole_light_mount.mtl
o pole_light_mount_1_left
vt 0 0
vt 1 0
vt 1 1
vt 0 1
usemtl clamp
v 0.312500 0.062500 1.000000
v 0.687500 0.062500 1.000000
v 0.687500 0.937500 1.000000
v 0.312500 0.937500 1.000000
vn 0.000000 0.000000 1.000000
f 1/1/1 2/2/1 3/3/1 4/4/1
v 0.687500 0.062500 0.900000
v 0.312500 0.062500 0.900000
v 0.312500 0.937500 0.900000
v 0.687500 0.937500 0.900000
vn 0.000000 0.000000 -1.000000
f 5/1/2 6/2/2 7/3/2 8/4/2
v 0.687500 0.062500 1.000000
v 0.687500 0.062500 0.900000
v 0.687500 0.937500 0.900000
v 0.687500 0.937500 1.000000
vn 1.000000 -0.000000 0.000000
f 9/1/3 10/2/3 11/3/3 12/4/3
v 0.312500 0.062500 0.900000
v 0.312500 0.062500 1.000000
v 0.312500 0.937500 1.000000
v 0.312500 0.937500 0.900000
vn -1.000000 0.000000 0.000000
f 13/1/4 14/2/4 15/3/4 16/4/4
v 0.312500 0.937500 1.000000
v 0.687500 0.937500 1.000000
v 0.687500 0.937500 0.900000
v 0.312500 0.937500 0.900000
vn -0.000000 1.000000 0.000000
f 17/1/5 18/2/5 19/3/5 20/4/5
v 0.312500 0.062500 0.900000
v 0.687500 0.062500 0.900000
v 0.687500 0.062500 1.000000
v 0.312500 0.062500 1.000000
vn 0.000000 -1.000000 0.000000
f 21/1/6 22/2/6 23/3/6 24/4/6
v 0.406250 0.312500 0.900000
v 0.593750 0.312500 0.900000
v 0.593750 0.531250 0.900000
v 0.406250 0.531250 0.900000
vn 0.000000 0.000000 1.000000
f 25/1/7 26/2/7 27/3/7 28/4/7
v 0.593750 0.312500 0.800000
v 0.406250 0.312500 0.800000
v 0.406250 0.531250 0.800000
v 0.593750 0.531250 0.800000
vn 0.000000 0.000000 -1.000000
f 29/1/8 30/2/8 31/3/8 32/4/8
v 0.593750 0.312500 0.900000
v 0.593750 0.312500 0.800000
v 0.593750 0.531250 0.800000
v 0.593750 0.531250 0.900000
vn 1.000000 -0.000000 0.000000
f 33/1/9 34/2/9 35/3/9 36/4/9
v 0.406250 0.312500 0.800000
v 0.406250 0.312500 0.900000
v 0.406250 0.531250 0.900000
v 0.406250 0.531250 0.800000
vn -1.000000 0.000000 0.000000
f 37/1/10 38/2/10 39/3/10 40/4/10
v 0.406250 0.531250 0.900000
v 0.593750 0.531250 0.900000
v 0.593750 0.531250 0.800000
v 0.406250 0.531250 0.800000
vn -0.000000 1.000000 0.000000
f 41/1/11 42/2/11 43/3/11 44/4/11
v 0.406250 0.312500 0.800000
v 0.593750 0.312500 0.800000
v 0.593750 0.312500 0.900000
v 0.406250 0.312500 0.900000
vn 0.000000 -1.000000 0.000000
f 45/1/12 46/2/12 47/3/12 48/4/12
v 0.468750 0.125000 0.900000
v 0.531250 0.125000 0.900000
v 0.531250 0.187500 0.900000
v 0.468750 0.187500 0.900000
vn 0.000000 0.000000 1.000000
f 49/1/13 50/2/13 51/3/13 52/4/13
v 0.531250 0.125000 0.880000
v 0.468750 0.125000 0.880000
v 0.468750 0.187500 0.880000
v 0.531250 0.187500 0.880000
vn 0.000000 0.000000 -1.000000
f 53/1/14 54/2/14 55/3/14 56/4/14
v 0.531250 0.125000 0.900000
v 0.531250 0.125000 0.880000
v 0.531250 0.187500 0.880000
v 0.531250 0.187500 0.900000
vn 1.000000 -0.000000 0.000000
f 57/1/15 58/2/15 59/3/15 60/4/15
v 0.468750 0.125000 0.880000
v 0.468750 0.125000 0.900000
v 0.468750 0.187500 0.900000
v 0.468750 0.187500 0.880000
vn -1.000000 0.000000 0.000000
f 61/1/16 62/2/16 63/3/16 64/4/16
v 0.468750 0.187500 0.900000
v 0.531250 0.187500 0.900000
v 0.531250 0.187500 0.880000
v 0.468750 0.187500 0.880000
vn -0.000000 1.000000 0.000000
f 65/1/17 66/2/17 67/3/17 68/4/17
v 0.468750 0.125000 0.880000
v 0.531250 0.125000 0.880000
v 0.531250 0.125000 0.900000
v 0.468750 0.125000 0.900000
vn 0.000000 -1.000000 0.000000
f 69/1/18 70/2/18 71/3/18 72/4/18
v 0.468750 0.812500 0.900000
v 0.531250 0.812500 0.900000
v 0.531250 0.875000 0.900000
v 0.468750 0.875000 0.900000
vn 0.000000 0.000000 1.000000
f 73/1/19 74/2/19 75/3/19 76/4/19
v 0.531250 0.812500 0.880000
v 0.468750 0.812500 0.880000
v 0.468750 0.875000 0.880000
v 0.531250 0.875000 0.880000
vn 0.000000 0.000000 -1.000000
f 77/1/20 78/2/20 79/3/20 80/4/20
v 0.531250 0.812500 0.900000
v 0.531250 0.812500 0.880000
v 0.531250 0.875000 0.880000
v 0.531250 0.875000 0.900000
vn 1.000000 -0.000000 0.000000
f 81/1/21 82/2/21 83/3/21 84/4/21
v 0.468750 0.812500 0.880000
v 0.468750 0.812500 0.900000
v 0.468750 0.875000 0.900000
v 0.468750 0.875000 0.880000
vn -1.000000 0.000000 0.000000
f 85/1/22 86/2/22 87/3/22 88/4/22
v 0.468750 0.875000 0.900000
v 0.531250 0.875000 0.900000
v 0.531250 0.875000 0.880000
v 0.468750 0.875000 0.880000
vn -0.000000 1.000000 0.000000
f 89/1/23 90/2/23 91/3/23 92/4/23
v 0.468750 0.812500 0.880000
v 0.531250 0.812500 0.880000
v 0.531250 0.812500 0.900000
v 0.468750 0.812500 0.900000
vn 0.000000 -1.000000 0.000000
f 93/1/24 94/2/24 95/3/24 96/4/24
usemtl metal
v 0.545000 0.410000 0.860000
v 0.542603 0.410000 0.785510
v 0.536895 0.432500 0.787451
v 0.538971 0.432500 0.860000
vn 0.965460 0.258694 -0.031065
f 97/1/25 98/2/25 99/3/25 100/4/25
v 0.538971 0.432500 0.860000
v 0.536895 0.432500 0.787451
v 0.521302 0.448971 0.792755
v 0.522500 0.448971 0.860000
vn 0.706962 0.706962 -0.020227
f 101/1/26 102/2/26 103/3/26 104/4/26
v 0.522500 0.448971 0.860000
v 0.521302 0.448971 0.792755
v 0.500000 0.455000 0.800000
v 0.500000 0.455000 0.860000
vn 0.258816 0.965916 -0.004612
f 105/1/27 106/2/27 107/3/27 108/4/27
v 0.500000 0.455000 0.860000
v 0.500000 0.455000 0.800000
v 0.478698 0.448971 0.807245
v 0.477500 0.448971 0.860000
vn -0.258819 0.965926 0.000000
f 109/1/28 110/2/28 111/3/28 112/4/28
v 0.477500 0.448971 0.860000
v 0.478698 0.448971 0.807245
v 0.463105 0.432500 0.812549
v 0.461029 0.432500 0.860000
vn -0.707016 0.707016 -0.016061
f 113/1/29 114/2/29 115/3/29 116/4/29
v 0.461029 0.432500 0.860000
v 0.463105 0.432500 0.812549
v 0.457397 0.410000 0.814490
v 0.455000 0.410000 0.860000
vn -0.965065 0.258588 -0.042216
f 117/1/30 118/2/30 119/3/30 120/4/30
v 0.455000 0.410000 0.860000
v 0.457397 0.410000 0.814490
v 0.463105 0.387500 0.812549
v 0.461029 0.387500 0.860000
vn -0.964678 -0.258485 -0.050806
f 121/1/31 122/2/31 123/3/31 124/4/31
v 0.461029 0.387500 0.860000
v 0.463105 0.387500 0.812549
v 0.478698 0.371029 0.807245
v 0.477500 0.371029 0.860000
vn -0.706769 -0.706769 -0.030917
f 125/1/32 126/2/32 127/3/32 128/4/32
v 0.477500 0.371029 0.860000
v 0.478698 0.371029 0.807245
v 0.500000 0.365000 0.800000
v 0.500000 0.365000 0.860000
vn -0.258815 -0.965909 -0.005879
f 129/1/33 130/2/33 131/3/33 132/4/33
v 0.500000 0.365000 0.860000
v 0.500000 0.365000 0.800000
v 0.521302 0.371029 0.792755
v 0.522500 0.371029 0.860000
vn 0.258819 -0.965926 0.000000
f 133/1/34 134/2/34 135/3/34 136/4/34
v 0.522500 0.371029 0.860000
v 0.521302 0.371029 0.792755
v 0.536895 0.387500 0.787451
v 0.538971 0.387500 0.860000
vn 0.707051 -0.707051 -0.012601
f 137/1/35 138/2/35 139/3/35 140/4/35
v 0.538971 0.387500 0.860000
v 0.536895 0.387500 0.787451
v 0.542603 0.410000 0.785510
v 0.545000 0.410000 0.860000
vn 0.965557 -0.258720 -0.027626
f 141/1/36 142/2/36 143/3/36 144/4/36
v 0.542603 0.410000 0.785510
v 0.466154 0.410000 0.682194
v 0.462317 0.432447 0.687095
v 0.536895 0.432500 0.787451
vn 0.778885 0.247313 -0.576346
f 145/1/37 146/2/37 147/3/37 148/4/37
v 0.536895 0.432500 0.787451
v 0.462317 0.432447 0.687095
v 0.449951 0.448879 0.698034
v 0.521302 0.448971 0.792755
vn 0.581205 0.689445 -0.432279
f 149/1/38 150/2/38 151/3/38 152/4/38
v 0.521302 0.448971 0.792755
v 0.449951 0.448879 0.698034
v 0.432370 0.454894 0.712081
v 0.500000 0.455000 0.800000
vn 0.216572 0.962381 -0.164072
f 153/1/39 154/2/39 155/3/39 156/4/39
v 0.500000 0.455000 0.800000
v 0.432370 0.454894 0.712081
v 0.414283 0.448879 0.725471
v 0.478698 0.448971 0.807245
vn -0.216185 0.962287 0.165133
f 157/1/40 158/2/40 159/3/40 160/4/40
v 0.478698 0.448971 0.807245
v 0.414283 0.448879 0.725471
v 0.400538 0.432447 0.734617
v 0.463105 0.432500 0.812549
vn -0.571824 0.686162 0.449665
f 161/1/41 162/2/41 163/3/41 164/4/41
v 0.463105 0.432500 0.812549
v 0.400538 0.432447 0.734617
v 0.394817 0.410000 0.737068
v 0.457397 0.410000 0.814490
vn -0.756259 0.244217 0.606984
f 165/1/42 166/2/42 167/3/42 168/4/42
v 0.457397 0.410000 0.814490
v 0.394817 0.410000 0.737068
v 0.398654 0.387553 0.732168
v 0.463105 0.387500 0.812549
vn -0.754222 -0.243929 0.609629
f 169/1/43 170/2/43 171/3/43 172/4/43
v 0.463105 0.387500 0.812549
v 0.398654 0.387553 0.732168
v 0.411020 0.371121 0.721228
v 0.478698 0.371029 0.807245
vn -0.568618 -0.684996 0.455471
f 173/1/44 174/2/44 175/3/44 176/4/44
v 0.478698 0.371029 0.807245
v 0.411020 0.371121 0.721228
v 0.428601 0.365106 0.707182
v 0.500000 0.365000 0.800000
vn -0.215067 -0.962008 0.168187
f 177/1/45 178/2/45 179/3/45 180/4/45
v 0.500000 0.365000 0.800000
v 0.428601 0.365106 0.707182
v 0.446688 0.371121 0.693791
v 0.521302 0.371029 0.792755
vn 0.215538 -0.962127 -0.166900
f 181/1/46 182/2/46 183/3/46 184/4/46
v 0.521302 0.371029 0.792755
v 0.446688 0.371121 0.693791
v 0.460433 0.387553 0.684645
v 0.536895 0.387500 0.787451
vn 0.578711 -0.688592 -0.436961
f 185/1/47 186/2/47 187/3/47 188/4/47
v 0.536895 0.387500 0.787451
v 0.460433 0.387553 0.684645
v 0.466154 0.410000 0.682194
v 0.542603 0.410000 0.785510
vn 0.777449 -0.247123 -0.578362
f 189/1/48 190/2/48 191/3/48 192/4/48
v 0.466154 0.410000 0.682194
v 0.434872 0.417097 0.641528
v 0.433615 0.438843 0.649782
v 0.462317 0.432447 0.687095
vn 0.787165 0.256944 -0.560671
f 193/1/49 194/2/49 195/3/49 196/4/49
v 0.462317 0.432447 0.687095
v 0.433615 0.438843 0.649782
v 0.423137 0.454762 0.663176
v 0.449951 0.448879 0.698034
vn 0.617960 0.701440 -0.355116
f 197/1/50 198/2/50 199/3/50 200/4/50
v 0.449951 0.448879 0.698034
v 0.423137 0.454762 0.663176
v 0.406247 0.460589 0.678121
v 0.432370 0.454894 0.712081
vn 0.282849 0.957530 -0.055974
f 201/1/51 202/2/51 203/3/51 204/4/51
v 0.432370 0.454894 0.712081
v 0.406247 0.460589 0.678121
v 0.387469 0.454762 0.690613
v 0.414283 0.448879 0.725471
vn -0.127147 0.957632 0.258407
f 205/1/52 206/2/52 207/3/52 208/4/52
v 0.414283 0.448879 0.725471
v 0.387469 0.454762 0.690613
v 0.371836 0.438843 0.697304
v 0.400538 0.432447 0.734617
vn -0.502668 0.701587 0.505075
f 209/1/53 210/2/53 211/3/53 212/4/53
v 0.400538 0.432447 0.734617
v 0.371836 0.438843 0.697304
v 0.363536 0.417097 0.696402
v 0.394817 0.410000 0.737068
vn -0.744214 0.256990 0.616524
f 213/1/54 214/2/54 215/3/54 216/4/54
v 0.394817 0.410000 0.737068
v 0.363536 0.417097 0.696402
v 0.364793 0.395351 0.688149
v 0.398654 0.387553 0.732168
vn -0.787165 -0.256944 0.560671
f 217/1/55 218/2/55 219/3/55 220/4/55
v 0.398654 0.387553 0.732168
v 0.364793 0.395351 0.688149
v 0.375271 0.379431 0.674755
v 0.411020 0.371121 0.721228
vn -0.619788 -0.701115 0.352563
f 221/1/56 222/2/56 223/3/56 224/4/56
v 0.411020 0.371121 0.721228
v 0.375271 0.379431 0.674755
v 0.392161 0.373605 0.659810
v 0.428601 0.365106 0.707182
vn -0.287313 -0.956533 0.049960
f 225/1/57 226/2/57 227/3/57 228/4/57
v 0.428601 0.365106 0.707182
v 0.392161 0.373605 0.659810
v 0.410939 0.379431 0.647318
v 0.446688 0.371121 0.693791
vn 0.121720 -0.956475 -0.265218
f 229/1/58 230/2/58 231/3/58 232/4/58
v 0.446688 0.371121 0.693791
v 0.410939 0.379431 0.647318
v 0.426572 0.395351 0.640626
v 0.460433 0.387553 0.684645
vn 0.499159 -0.701019 -0.509327
f 233/1/59 234/2/59 235/3/59 236/4/59
v 0.460433 0.387553 0.684645
v 0.426572 0.395351 0.640626
v 0.434872 0.417097 0.641528
v 0.466154 0.410000 0.682194
vn 0.743494 -0.256905 -0.617427
f 237/1/60 238/2/60 239/3/60 240/4/60
v 0.434872 0.417097 0.641528
v 0.403591 0.437693 0.600862
v 0.405028 0.457750 0.612619
v 0.433615 0.438843 0.649782
vn 0.824429 0.241869 -0.511679
f 241/1/61 242/2/61 243/3/61 244/4/61
v 0.433615 0.438843 0.649782
v 0.405028 0.457750 0.612619
v 0.396523 0.472433 0.628577
v 0.423137 0.454762 0.663176
vn 0.720174 0.658303 -0.219057
f 245/1/62 246/2/62 247/3/62 248/4/62
v 0.423137 0.454762 0.663176
v 0.396523 0.472433 0.628577
v 0.380355 0.477808 0.644461
v 0.406247 0.460589 0.678121
vn 0.424763 0.895806 0.130794
f 249/1/63 250/2/63 251/3/63 252/4/63
v 0.406247 0.460589 0.678121
v 0.380355 0.477808 0.644461
v 0.360855 0.472433 0.656014
v 0.387469 0.454762 0.690613
vn 0.017776 0.895612 0.444480
f 253/1/64 254/2/64 255/3/64 256/4/64
v 0.387469 0.454762 0.690613
v 0.360855 0.472433 0.656014
v 0.343249 0.457750 0.660141
v 0.371836 0.438843 0.697304
vn -0.395853 0.657999 0.640576
f 257/1/65 258/2/65 259/3/65 260/4/65
v 0.371836 0.438843 0.697304
v 0.343249 0.457750 0.660141
v 0.332254 0.437693 0.655736
v 0.363536 0.417097 0.696402
vn -0.705777 0.241760 0.665906
f 261/1/66 262/2/66 263/3/66 264/4/66
v 0.363536 0.417097 0.696402
v 0.332254 0.437693 0.655736
v 0.330817 0.417635 0.643979
v 0.364793 0.395351 0.688149
vn -0.824429 -0.241869 0.511679
f 265/1/67 266/2/67 267/3/67 268/4/67
v 0.364793 0.395351 0.688149
v 0.330817 0.417635 0.643979
v 0.339322 0.402952 0.628021
v 0.375271 0.379431 0.674755
vn -0.719082 -0.658953 0.220684
f 269/1/68 270/2/68 271/3/68 272/4/68
v 0.375271 0.379431 0.674755
v 0.339322 0.402952 0.628021
v 0.355490 0.397577 0.612137
v 0.392161 0.373605 0.659810
vn -0.422088 -0.897606 -0.127068
f 273/1/69 274/2/69 275/3/69 276/4/69
v 0.392161 0.373605 0.659810
v 0.355490 0.397577 0.612137
v 0.374990 0.402952 0.600584
v 0.410939 0.379431 0.647318
vn -0.014385 -0.897706 -0.440360
f 277/1/70 278/2/70 279/3/70 280/4/70
v 0.410939 0.379431 0.647318
v 0.374990 0.402952 0.600584
v 0.392596 0.417635 0.596457
v 0.426572 0.395351 0.640626
vn 0.398126 -0.659142 -0.637987
f 281/1/71 282/2/71 283/3/71 284/4/71
v 0.426572 0.395351 0.640626
v 0.392596 0.417635 0.596457
v 0.403591 0.437693 0.600862
v 0.434872 0.417097 0.641528
vn 0.706243 -0.241961 -0.665338
f 285/1/72 286/2/72 287/3/72 288/4/72
v 0.403591 0.437693 0.600862
v 0.372309 0.469771 0.560196
v 0.375423 0.488174 0.574133
v 0.405028 0.457750 0.612619
vn 0.849381 0.220258 -0.479623
f 289/1/73 290/2/73 291/3/73 292/4/73
v 0.405028 0.457750 0.612619
v 0.375423 0.488174 0.574133
v 0.368146 0.501646 0.591687
v 0.396523 0.472433 0.628577
vn 0.788718 0.600399 -0.132081
f 293/1/74 294/2/74 295/3/74 296/4/74
v 0.396523 0.472433 0.628577
v 0.368146 0.501646 0.591687
v 0.352427 0.506577 0.608155
v 0.380355 0.477808 0.644461
vn 0.517541 0.818347 0.249921
f 297/1/75 298/2/75 299/3/75 300/4/75
v 0.380355 0.477808 0.644461
v 0.352427 0.506577 0.608155
v 0.332478 0.501646 0.619124
v 0.360855 0.472433 0.656014
vn 0.108962 0.818194 0.564523
f 301/1/76 302/2/76 303/3/76 304/4/76
v 0.360855 0.472433 0.656014
v 0.332478 0.501646 0.619124
v 0.313645 0.488174 0.621655
v 0.343249 0.457750 0.660141
vn -0.329662 0.600128 0.728813
f 305/1/77 306/2/77 307/3/77 308/4/77
v 0.343249 0.457750 0.660141
v 0.313645 0.488174 0.621655
v 0.300973 0.469771 0.615070
v 0.332254 0.437693 0.655736
vn -0.681307 0.220144 0.698110
f 309/1/78 310/2/78 311/3/78 312/4/78
v 0.332254 0.437693 0.655736
v 0.300973 0.469771 0.615070
v 0.297859 0.451368 0.601134
v 0.330817 0.417635 0.643979
vn -0.849381 -0.220258 0.479623
f 313/1/79 314/2/79 315/3/79 316/4/79
v 0.330817 0.417635 0.643979
v 0.297859 0.451368 0.601134
v 0.305136 0.437896 0.583579
v 0.339322 0.402952 0.628021
vn -0.788078 -0.601035 0.133008
f 317/1/80 318/2/80 319/3/80 320/4/80
v 0.339322 0.402952 0.628021
v 0.305136 0.437896 0.583579
v 0.320855 0.432965 0.567112
v 0.355490 0.397577 0.612137
vn -0.516003 -0.819958 -0.247811
f 321/1/81 322/2/81 323/3/81 324/4/81
v 0.355490 0.397577 0.612137
v 0.320855 0.432965 0.567112
v 0.340804 0.437896 0.556143
v 0.374990 0.402952 0.600584
vn -0.107057 -0.820060 -0.562175
f 325/1/82 326/2/82 327/3/82 328/4/82
v 0.374990 0.402952 0.600584
v 0.340804 0.437896 0.556143
v 0.359638 0.451368 0.553611
v 0.392596 0.417635 0.596457
vn 0.330936 -0.601236 -0.727321
f 329/1/83 330/2/83 331/3/83 332/4/83
v 0.392596 0.417635 0.596457
v 0.359638 0.451368 0.553611
v 0.372309 0.469771 0.560196
v 0.403591 0.437693 0.600862
vn 0.681573 -0.220361 -0.697782
f 333/1/84 334/2/84 335/3/84 336/4/84
v 0.372309 0.469771 0.560196
v 0.341028 0.510193 0.519530
v 0.345009 0.527508 0.534594
v 0.375423 0.488174 0.574133
vn 0.863334 0.203582 -0.461746
f 337/1/85 338/2/85 339/3/85 340/4/85
v 0.375423 0.488174 0.574133
v 0.345009 0.527508 0.534594
v 0.338366 0.540184 0.552973
v 0.368146 0.501646 0.591687
vn 0.827199 0.555669 -0.083516
f 341/1/86 342/2/86 343/3/86 344/4/86
v 0.368146 0.501646 0.591687
v 0.338366 0.540184 0.552973
v 0.322879 0.544824 0.569743
v 0.352427 0.506577 0.608155
vn 0.569697 0.758380 0.316710
f 345/1/87 346/2/87 347/3/87 348/4/87
v 0.352427 0.506577 0.608155
v 0.322879 0.544824 0.569743
v 0.302698 0.540184 0.580410
v 0.332478 0.501646 0.619124
vn 0.160039 0.758310 0.631945
f 349/1/88 350/2/88 351/3/88 352/4/88
v 0.332478 0.501646 0.619124
v 0.302698 0.540184 0.580410
v 0.283230 0.527508 0.582116
v 0.313645 0.488174 0.621655
vn -0.292790 0.555536 0.778238
f 353/1/89 354/2/89 355/3/89 356/4/89
v 0.313645 0.488174 0.621655
v 0.283230 0.527508 0.582116
v 0.269691 0.510193 0.574404
v 0.300973 0.469771 0.615070
vn -0.667693 0.203521 0.716076
f 357/1/90 358/2/90 359/3/90 360/4/90
v 0.300973 0.469771 0.615070
v 0.269691 0.510193 0.574404
v 0.265710 0.492877 0.559341
v 0.297859 0.451368 0.601134
vn -0.863334 -0.203582 0.461746
f 361/1/91 362/2/91 363/3/91 364/4/91
v 0.297859 0.451368 0.601134
v 0.265710 0.492877 0.559341
v 0.272353 0.480201 0.540962
v 0.305136 0.437896 0.583579
vn -0.826936 -0.556004 0.083883
f 365/1/92 366/2/92 367/3/92 368/4/92
v 0.305136 0.437896 0.583579
v 0.272353 0.480201 0.540962
v 0.287840 0.475561 0.524192
v 0.320855 0.432965 0.567112
vn -0.569072 -0.759200 -0.315868
f 369/1/93 370/2/93 371/3/93 372/4/93
v 0.320855 0.432965 0.567112
v 0.287840 0.475561 0.524192
v 0.308021 0.480201 0.513525
v 0.340804 0.437896 0.556143
vn -0.159284 -0.759257 -0.630997
f 373/1/94 374/2/94 375/3/94 376/4/94
v 0.340804 0.437896 0.556143
v 0.308021 0.480201 0.513525
v 0.327489 0.492877 0.511819
v 0.359638 0.451368 0.553611
vn 0.293287 -0.556118 -0.777634
f 377/1/95 378/2/95 379/3/95 380/4/95
v 0.359638 0.451368 0.553611
v 0.327489 0.492877 0.511819
v 0.341028 0.510193 0.519530
v 0.372309 0.469771 0.560196
vn 0.667798 -0.203640 -0.715945
f 381/1/96 382/2/96 383/3/96 384/4/96
v 0.341028 0.510193 0.519530
v 0.309746 0.555000 0.478864
v 0.313991 0.571947 0.494271
v 0.345009 0.527508 0.534594
vn 0.869434 0.194999 -0.453937
f 385/1/97 386/2/97 387/3/97 388/4/97
v 0.345009 0.527508 0.534594
v 0.313991 0.571947 0.494271
v 0.307542 0.584353 0.512902
v 0.338366 0.540184 0.552973
vn 0.844057 0.532625 -0.062280
f 389/1/98 390/2/98 391/3/98 392/4/98
v 0.338366 0.540184 0.552973
v 0.307542 0.584353 0.512902
v 0.292126 0.588894 0.529764
v 0.322879 0.544824 0.569743
vn 0.592576 0.727427 0.345983
f 393/1/99 394/2/99 395/3/99 396/4/99
v 0.322879 0.544824 0.569743
v 0.292126 0.588894 0.529764
v 0.271874 0.584353 0.540339
v 0.302698 0.540184 0.580410
vn 0.182421 0.727408 0.661513
f 397/1/100 398/2/100 399/3/100 400/4/100
v 0.302698 0.540184 0.580410
v 0.271874 0.584353 0.540339
v 0.252213 0.571947 0.541794
v 0.283230 0.527508 0.582116
vn -0.276675 0.532588 0.799875
f 401/1/101 402/2/101 403/3/101 404/4/101
v 0.283230 0.527508 0.582116
v 0.252213 0.571947 0.541794
v 0.238410 0.555000 0.533738
v 0.269691 0.510193 0.574404
vn -0.661752 0.194981 0.723925
f 405/1/102 406/2/102 407/3/102 408/4/102
v 0.269691 0.510193 0.574404
v 0.238410 0.555000 0.533738
v 0.234165 0.538053 0.518331
v 0.265710 0.492877 0.559341
vn -0.869434 -0.194999 0.453937
f 409/1/103 410/2/103 411/3/103 412/4/103
v 0.265710 0.492877 0.559341
v 0.234165 0.538053 0.518331
v 0.240614 0.525647 0.499701
v 0.272353 0.480201 0.540962
vn -0.843989 -0.532722 0.062372
f 413/1/104 414/2/104 415/3/104 416/4/104
v 0.272353 0.480201 0.540962
v 0.240614 0.525647 0.499701
v 0.256030 0.521106 0.482839
v 0.287840 0.475561 0.524192
vn -0.592415 -0.727659 -0.345770
f 417/1/105 418/2/105 419/3/105 420/4/105
v 0.287840 0.475561 0.524192
v 0.256030 0.521106 0.482839
v 0.276282 0.525647 0.472264
v 0.308021 0.480201 0.513525
vn -0.182231 -0.727677 -0.661270
f 421/1/106 422/2/106 423/3/106 424/4/106
v 0.308021 0.480201 0.513525
v 0.276282 0.525647 0.472264
v 0.295943 0.538053 0.470809
v 0.327489 0.492877 0.511819
vn 0.276798 -0.532756 -0.799721
f 425/1/107 426/2/107 427/3/107 428/4/107
v 0.327489 0.492877 0.511819
v 0.295943 0.538053 0.470809
v 0.309746 0.555000 0.478864
v 0.341028 0.510193 0.519530
vn 0.661778 -0.195016 -0.723892
f 429/1/108 430/2/108 431/3/108 432/4/108
v 0.309746 0.555000 0.478864
v 0.278465 0.599807 0.438198
v 0.282446 0.617123 0.453262
v 0.313991 0.571947 0.494271
vn 0.869420 0.194941 -0.453990
f 433/1/109 434/2/109 435/3/109 436/4/109
v 0.313991 0.571947 0.494271
v 0.282446 0.617123 0.453262
v 0.275803 0.629799 0.471641
v 0.307542 0.584353 0.512902
vn 0.844033 0.532637 -0.062498
f 437/1/110 438/2/110 439/3/110 440/4/110
v 0.307542 0.584353 0.512902
v 0.275803 0.629799 0.471641
v 0.260316 0.634439 0.488411
v 0.292126 0.588894 0.529764
vn 0.592467 0.727644 0.345713
f 441/1/111 442/2/111 443/3/111 444/4/111
v 0.292126 0.588894 0.529764
v 0.260316 0.634439 0.488411
v 0.240135 0.629799 0.499078
v 0.271874 0.584353 0.540339
vn 0.182163 0.727661 0.661306
f 445/1/112 446/2/112 447/3/112 448/4/112
v 0.271874 0.584353 0.540339
v 0.240135 0.629799 0.499078
v 0.220667 0.617123 0.500784
v 0.252213 0.571947 0.541794
vn -0.276931 0.532672 0.799731
f 449/1/113 450/2/113 451/3/113 452/4/113
v 0.252213 0.571947 0.541794
v 0.220667 0.617123 0.500784
v 0.207128 0.599807 0.493072
v 0.238410 0.555000 0.533738
vn -0.661825 0.194959 0.723864
f 453/1/114 454/2/114 455/3/114 456/4/114
v 0.238410 0.555000 0.533738
v 0.207128 0.599807 0.493072
v 0.203147 0.582492 0.478009
v 0.234165 0.538053 0.518331
vn -0.869420 -0.194941 0.453990
f 457/1/115 458/2/115 459/3/115 460/4/115
v 0.234165 0.538053 0.518331
v 0.203147 0.582492 0.478009
v 0.209790 0.569816 0.459630
v 0.240614 0.525647 0.499701
vn -0.844102 -0.532539 0.062409
f 461/1/116 462/2/116 463/3/116 464/4/116
v 0.240614 0.525647 0.499701
v 0.209790 0.569816 0.459630
v 0.225277 0.565176 0.442860
v 0.256030 0.521106 0.482839
vn -0.592630 -0.727411 -0.345924
f 465/1/117 466/2/117 467/3/117 468/4/117
v 0.256030 0.521106 0.482839
v 0.225277 0.565176 0.442860
v 0.245458 0.569816 0.432193
v 0.276282 0.525647 0.472264
vn -0.182350 -0.727393 -0.661550
f 469/1/118 470/2/118 471/3/118 472/4/118
v 0.276282 0.525647 0.472264
v 0.245458 0.569816 0.432193
v 0.264926 0.582492 0.430487
v 0.295943 0.538053 0.470809
vn 0.276812 -0.532502 -0.799885
f 473/1/119 474/2/119 475/3/119 476/4/119
v 0.295943 0.538053 0.470809
v 0.264926 0.582492 0.430487
v 0.278465 0.599807 0.438198
v 0.309746 0.555000 0.478864
vn 0.661800 -0.194923 -0.723897
f 477/1/120 478/2/120 479/3/120 480/4/120
v 0.278465 0.599807 0.438198
v 0.247183 0.640229 0.397532
v 0.250297 0.658632 0.411469
v 0.282446 0.617123 0.453262
vn 0.863288 0.203363 -0.461928
f 481/1/121 482/2/121 483/3/121 484/4/121
v 0.282446 0.617123 0.453262
v 0.250297 0.658632 0.411469
v 0.243020 0.672104 0.429023
v 0.275803 0.629799 0.471641
vn 0.827101 0.555693 -0.084319
f 485/1/122 486/2/122 487/3/122 488/4/122
v 0.275803 0.629799 0.471641
v 0.243020 0.672104 0.429023
v 0.227301 0.677035 0.445491
v 0.260316 0.634439 0.488411
vn 0.569256 0.759144 0.315671
f 489/1/123 490/2/123 491/3/123 492/4/123
v 0.260316 0.634439 0.488411
v 0.227301 0.677035 0.445491
v 0.207352 0.672104 0.456460
v 0.240135 0.629799 0.499078
vn 0.159049 0.759201 0.631124
f 493/1/124 494/2/124 495/3/124 496/4/124
v 0.240135 0.629799 0.499078
v 0.207352 0.672104 0.456460
v 0.188518 0.658632 0.458991
v 0.220667 0.617123 0.500784
vn -0.293742 0.555813 0.777681
f 497/1/125 498/2/125 499/3/125 500/4/125
v 0.220667 0.617123 0.500784
v 0.188518 0.658632 0.458991
v 0.175847 0.640229 0.452406
v 0.207128 0.599807 0.493072
vn -0.667958 0.203427 0.715856
f 501/1/126 502/2/126 503/3/126 504/4/126
v 0.207128 0.599807 0.493072
v 0.175847 0.640229 0.452406
v 0.172733 0.621826 0.438470
v 0.203147 0.582492 0.478009
vn -0.863288 -0.203363 0.461928
f 505/1/127 506/2/127 507/3/127 508/4/127
v 0.203147 0.582492 0.478009
v 0.172733 0.621826 0.438470
v 0.180010 0.608354 0.420916
v 0.209790 0.569816 0.459630
vn -0.827373 -0.555340 0.083977
f 509/1/128 510/2/128 511/3/128 512/4/128
v 0.209790 0.569816 0.459630
v 0.180010 0.608354 0.420916
v 0.195729 0.603423 0.404448
v 0.225277 0.565176 0.442860
vn -0.569899 -0.758319 -0.316493
f 513/1/129 514/2/129 515/3/129 516/4/129
v 0.225277 0.565176 0.442860
v 0.195729 0.603423 0.404448
v 0.215678 0.608354 0.393479
v 0.245458 0.569816 0.432193
vn -0.159776 -0.758248 -0.632085
f 517/1/130 518/2/130 519/3/130 520/4/130
v 0.245458 0.569816 0.432193
v 0.215678 0.608354 0.393479
v 0.234511 0.621826 0.390947
v 0.264926 0.582492 0.430487
vn 0.293290 -0.555200 -0.778289
f 521/1/131 522/2/131 523/3/131 524/4/131
v 0.264926 0.582492 0.430487
v 0.234511 0.621826 0.390947
v 0.247183 0.640229 0.397532
v 0.278465 0.599807 0.438198
vn 0.667862 -0.203296 -0.715983
f 525/1/132 526/2/132 527/3/132 528/4/132
v 0.247183 0.640229 0.397532
v 0.215902 0.672307 0.356867
v 0.217339 0.692365 0.368623
v 0.250297 0.658632 0.411469
vn 0.849315 0.219755 -0.479970
f 529/1/133 530/2/133 531/3/133 532/4/133
v 0.250297 0.658632 0.411469
v 0.217339 0.692365 0.368623
v 0.208834 0.707048 0.384582
v 0.243020 0.672104 0.429023
vn 0.788465 0.600338 -0.133855
f 533/1/134 534/2/134 535/3/134 536/4/134
v 0.243020 0.672104 0.429023
v 0.208834 0.707048 0.384582
v 0.192666 0.712423 0.400465
v 0.227301 0.677035 0.445491
vn 0.516385 0.819835 0.247420
f 537/1/135 538/2/135 539/3/135 540/4/135
v 0.227301 0.677035 0.445491
v 0.192666 0.712423 0.400465
v 0.173166 0.707048 0.412019
v 0.207352 0.672104 0.456460
vn 0.106588 0.819938 0.562441
f 541/1/136 542/2/136 543/3/136 544/4/136
v 0.207352 0.672104 0.456460
v 0.173166 0.707048 0.412019
v 0.155560 0.692365 0.416146
v 0.188518 0.658632 0.458991
vn -0.331821 0.600564 0.727473
f 545/1/137 546/2/137 547/3/137 548/4/137
v 0.188518 0.658632 0.458991
v 0.155560 0.692365 0.416146
v 0.144565 0.672307 0.411741
v 0.175847 0.640229 0.452406
vn -0.681875 0.219884 0.697637
f 549/1/138 550/2/138 551/3/138 552/4/138
v 0.175847 0.640229 0.452406
v 0.144565 0.672307 0.411741
v 0.143128 0.652250 0.399984
v 0.172733 0.621826 0.438470
vn -0.849315 -0.219755 0.479970
f 553/1/139 554/2/139 555/3/139 556/4/139
v 0.172733 0.621826 0.438470
v 0.143128 0.652250 0.399984
v 0.151633 0.637567 0.384025
v 0.180010 0.608354 0.420916
vn -0.789148 -0.599624 0.133024
f 557/1/140 558/2/140 559/3/140 560/4/140
v 0.180010 0.608354 0.420916
v 0.151633 0.637567 0.384025
v 0.167801 0.632192 0.368142
v 0.195729 0.603423 0.404448
vn -0.518000 -0.818199 -0.249451
f 561/1/141 562/2/141 563/3/141 564/4/141
v 0.195729 0.603423 0.404448
v 0.167801 0.632192 0.368142
v 0.187301 0.637567 0.356588
v 0.215678 0.608354 0.393479
vn -0.108382 -0.818044 -0.564851
f 565/1/142 566/2/142 567/3/142 568/4/142
v 0.215678 0.608354 0.393479
v 0.187301 0.637567 0.356588
v 0.204907 0.652250 0.352461
v 0.234511 0.621826 0.390947
vn 0.330728 -0.599321 -0.728994
f 569/1/143 570/2/143 571/3/143 572/4/143
v 0.234511 0.621826 0.390947
v 0.204907 0.652250 0.352461
v 0.215902 0.672307 0.356867
v 0.247183 0.640229 0.397532
vn 0.681643 -0.219613 -0.697949
f 573/1/144 574/2/144 575/3/144 576/4/144
v 0.215902 0.672307 0.356867
v 0.184620 0.692903 0.316201
v 0.183363 0.714649 0.324454
v 0.217339 0.692365 0.368623
vn 0.824418 0.241069 -0.512075
f 577/1/145 578/2/145 579/3/145 580/4/145
v 0.217339 0.692365 0.368623
v 0.183363 0.714649 0.324454
v 0.172885 0.730569 0.337848
v 0.208834 0.707048 0.384582
vn 0.719741 0.657881 -0.221732
f 581/1/146 582/2/146 583/3/146 584/4/146
v 0.208834 0.707048 0.384582
v 0.172885 0.730569 0.337848
v 0.155995 0.736395 0.352793
v 0.192666 0.712423 0.400465
vn 0.422633 0.897421 0.126556
f 585/1/147 586/2/147 587/3/147 588/4/147
v 0.192666 0.712423 0.400465
v 0.155995 0.736395 0.352793
v 0.137217 0.730569 0.365285
v 0.173166 0.707048 0.412019
vn 0.013763 0.897525 0.440748
f 589/1/148 590/2/148 591/3/148 592/4/148
v 0.173166 0.707048 0.412019
v 0.137217 0.730569 0.365285
v 0.121584 0.714649 0.371977
v 0.155560 0.692365 0.416146
vn -0.399243 0.658128 0.638336
f 593/1/149 594/2/149 595/3/149 596/4/149
v 0.155560 0.692365 0.416146
v 0.121584 0.714649 0.371977
v 0.113284 0.692903 0.371075
v 0.144565 0.672307 0.411741
vn -0.706593 0.241224 0.665235
f 597/1/150 598/2/150 599/3/150 600/4/150
v 0.144565 0.672307 0.411741
v 0.113284 0.692903 0.371075
v 0.114541 0.671157 0.362821
v 0.143128 0.652250 0.399984
vn -0.824418 -0.241069 0.512075
f 601/1/151 602/2/151 603/3/151 604/4/151
v 0.143128 0.652250 0.399984
v 0.114541 0.671157 0.362821
v 0.125019 0.655238 0.349427
v 0.151633 0.637567 0.384025
vn -0.720955 -0.657032 0.220304
f 605/1/152 606/2/152 607/3/152 608/4/152
v 0.151633 0.637567 0.384025
v 0.125019 0.655238 0.349427
v 0.141909 0.649411 0.334482
v 0.167801 0.632192 0.368142
vn -0.425498 -0.895559 -0.130103
f 609/1/153 610/2/153 611/3/153 612/4/153
v 0.167801 0.632192 0.368142
v 0.141909 0.649411 0.334482
v 0.160687 0.655238 0.321990
v 0.187301 0.637567 0.356588
vn -0.016896 -0.895358 -0.445027
f 613/1/154 614/2/154 615/3/154 616/4/154
v 0.187301 0.637567 0.356588
v 0.160687 0.655238 0.321990
v 0.176320 0.671157 0.315299
v 0.204907 0.652250 0.352461
vn 0.397363 -0.656635 -0.641041
f 617/1/155 618/2/155 619/3/155 620/4/155
v 0.204907 0.652250 0.352461
v 0.176320 0.671157 0.315299
v 0.184620 0.692903 0.316201
v 0.215902 0.672307 0.356867
vn 0.706194 -0.240885 -0.665781
f 621/1/156 622/2/156 623/3/156 624/4/156
v 0.184620 0.692903 0.316201
v 0.153339 0.700000 0.275535
v 0.152355 0.721622 0.284144
v 0.183363 0.714649 0.324454
vn 0.787004 0.258172 -0.560333
f 625/1/157 626/2/157 627/3/157 628/4/157
v 0.183363 0.714649 0.324454
v 0.152355 0.721622 0.284144
v 0.142078 0.737450 0.297799
v 0.172885 0.730569 0.337848
vn 0.617113 0.703219 -0.353064
f 629/1/158 630/2/158 631/3/158 632/4/158
v 0.172885 0.730569 0.337848
v 0.142078 0.737450 0.297799
v 0.125261 0.743244 0.312839
v 0.155995 0.736395 0.352793
vn 0.283186 0.957583 -0.053298
f 633/1/159 634/2/159 635/3/159 636/4/159
v 0.155995 0.736395 0.352793
v 0.125261 0.743244 0.312839
v 0.106410 0.737450 0.325236
v 0.137217 0.730569 0.365285
vn -0.124338 0.957628 0.259785
f 637/1/160 638/2/160 639/3/160 640/4/160
v 0.137217 0.730569 0.365285
v 0.106410 0.737450 0.325236
v 0.090576 0.721622 0.331667
v 0.121584 0.714649 0.371977
vn -0.499893 0.703344 0.505386
f 641/1/161 642/2/161 643/3/161 644/4/161
v 0.121584 0.714649 0.371977
v 0.090576 0.721622 0.331667
v 0.082002 0.700000 0.330409
v 0.113284 0.692903 0.371075
vn -0.743634 0.258250 0.616697
f 645/1/162 646/2/162 647/3/162 648/4/162
v 0.113284 0.692903 0.371075
v 0.082002 0.700000 0.330409
v 0.082986 0.678378 0.321799
v 0.114541 0.671157 0.362821
vn -0.787004 -0.258172 0.560333
f 649/1/163 650/2/163 651/3/163 652/4/163
v 0.114541 0.671157 0.362821
v 0.082986 0.678378 0.321799
v 0.093263 0.662550 0.308144
v 0.125019 0.655238 0.349427
vn -0.618205 -0.702886 0.351814
f 653/1/164 654/2/164 655/3/164 656/4/164
v 0.125019 0.655238 0.349427
v 0.093263 0.662550 0.308144
v 0.110080 0.656756 0.293104
v 0.141909 0.649411 0.334482
vn -0.285684 -0.957006 0.050250
f 657/1/165 658/2/165 659/3/165 660/4/165
v 0.141909 0.649411 0.334482
v 0.110080 0.656756 0.293104
v 0.128931 0.662550 0.280707
v 0.160687 0.655238 0.321990
vn 0.121676 -0.956962 -0.263475
f 661/1/166 662/2/166 663/3/166 664/4/166
v 0.160687 0.655238 0.321990
v 0.128931 0.662550 0.280707
v 0.144765 0.678378 0.274277
v 0.176320 0.671157 0.315299
vn 0.498284 -0.702767 -0.507771
f 665/1/167 666/2/167 667/3/167 668/4/167
v 0.176320 0.671157 0.315299
v 0.144765 0.678378 0.274277
v 0.153339 0.700000 0.275535
v 0.184620 0.692903 0.316201
vn 0.743281 -0.258095 -0.617187
f 669/1/168 670/2/168 671/3/168 672/4/168
v 0.153339 0.700000 0.275535
v -0.049729 0.850000 0.011547
v -0.048874 0.870515 0.022547
v 0.152355 0.721622 0.284144
vn 0.830510 0.238253 -0.503476
f 673/1/169 674/2/169 675/3/169 676/4/169
v 0.152355 0.721622 0.284144
v -0.048874 0.870515 0.022547
v -0.057805 0.885534 0.037951
v 0.142078 0.737450 0.297799
vn 0.735773 0.647872 -0.197230
f 677/1/170 678/2/170 679/3/170 680/4/170
v 0.142078 0.737450 0.297799
v -0.057805 0.885534 0.037951
v -0.074130 0.891031 0.053631
v 0.125261 0.743244 0.312839
vn 0.445770 0.880894 0.159108
f 681/1/171 682/2/171 683/3/171 684/4/171
v 0.125261 0.743244 0.312839
v -0.074130 0.891031 0.053631
v -0.093473 0.885534 0.065388
v 0.106410 0.737450 0.325236
vn 0.039540 0.880826 0.471786
f 685/1/172 686/2/172 687/3/172 688/4/172
v 0.106410 0.737450 0.325236
v -0.093473 0.885534 0.065388
v -0.110653 0.870515 0.070069
v 0.090576 0.721622 0.331667
vn -0.379151 0.647756 0.660800
f 689/1/173 690/2/173 691/3/173 692/4/173
v 0.090576 0.721622 0.331667
v -0.110653 0.870515 0.070069
v -0.121065 0.850000 0.066421
v 0.082002 0.700000 0.330409
vn -0.699560 0.238205 0.673702
f 693/1/174 694/2/174 695/3/174 696/4/174
v 0.082002 0.700000 0.330409
v -0.121065 0.850000 0.066421
v -0.121920 0.829485 0.055422
v 0.082986 0.678378 0.321799
vn -0.830510 -0.238253 0.503476
f 697/1/175 698/2/175 699/3/175 700/4/175
v 0.082986 0.678378 0.321799
v -0.121920 0.829485 0.055422
v -0.112988 0.814466 0.040018
v 0.093263 0.662550 0.308144
vn -0.735312 -0.648180 0.197935
f 701/1/176 702/2/176 703/3/176 704/4/176
v 0.093263 0.662550 0.308144
v -0.112988 0.814466 0.040018
v -0.096664 0.808969 0.024337
v 0.110080 0.656756 0.293104
vn -0.444656 -0.881739 -0.157537
f 705/1/177 706/2/177 707/3/177 708/4/177
v 0.110080 0.656756 0.293104
v -0.096664 0.808969 0.024337
v -0.077320 0.814466 0.012581
v 0.128931 0.662550 0.280707
vn -0.038117 -0.881802 -0.470078
f 709/1/178 710/2/178 711/3/178 712/4/178
v 0.128931 0.662550 0.280707
v -0.077320 0.814466 0.012581
v -0.060141 0.829485 0.007900
v 0.144765 0.678378 0.274277
vn 0.380125 -0.648290 -0.659716
f 713/1/179 714/2/179 715/3/179 716/4/179
v 0.144765 0.678378 0.274277
v -0.060141 0.829485 0.007900
v -0.049729 0.850000 0.011547
v 0.153339 0.700000 0.275535
vn 0.699762 -0.238300 -0.673458
f 717/1/180 718/2/180 719/3/180 720/4/180
v -0.049729 0.850000 0.011547
v -0.074130 0.891031 0.053631
v -0.057805 0.885534 0.037951
v -0.048874 0.870515 0.022547
vn -0.555930 0.410650 -0.722709
f 721/1/181 722/2/181 723/3/181 724/4/181
v -0.049729 0.850000 0.011547
v -0.110653 0.870515 0.070069
v -0.093473 0.885534 0.065388
v -0.074130 0.891031 0.053631
vn -0.555930 0.410650 -0.722709
f 725/1/182 726/2/182 727/3/182 728/4/182
v -0.049729 0.850000 0.011547
v -0.121920 0.829485 0.055422
v -0.121065 0.850000 0.066421
v -0.110653 0.870515 0.070069
vn -0.555930 0.410650 -0.722709
f 729/1/183 730/2/183 731/3/183 732/4/183
v -0.049729 0.850000 0.011547
v -0.096664 0.808969 0.024337
v -0.112988 0.814466 0.040018
v -0.121920 0.829485 0.055422
vn -0.555930 0.410650 -0.722709
f 733/1/184 734/2/184 735/3/184 736/4/184
v -0.049729 0.850000 0.011547
v -0.060141 0.829485 0.007900
v -0.077320 0.814466 0.012581
v -0.096664 0.808969 0.024337
vn -0.555930 0.410650 -0.722709
f 737/1/185 738/2/185 739/3/185 740/4/185
v -0.052350 0.845496 0.026180
v -0.168195 0.850000 -0.124418
v -0.171560 0.866995 -0.121322
v -0.055715 0.862491 0.029277
vn 0.769356 0.258746 -0.584074
f 741/1/186 742/2/186 743/3/186 744/4/186
v -0.055715 0.862491 0.029277
v -0.171560 0.866995 -0.121322
v -0.181245 0.879437 -0.113500
v -0.065400 0.874933 0.037099
vn 0.570686 0.706908 -0.417849
f 745/1/187 746/2/187 747/3/187 748/4/187
v -0.065400 0.874933 0.037099
v -0.181245 0.879437 -0.113500
v -0.194653 0.883990 -0.103049
v -0.078808 0.879487 0.047549
vn 0.219102 0.965655 -0.139662
f 749/1/188 750/2/188 751/3/188 752/4/188
v -0.078808 0.879487 0.047549
v -0.194653 0.883990 -0.103049
v -0.208194 0.879437 -0.092770
v -0.092349 0.874933 0.057829
vn -0.191190 0.965655 0.175948
f 753/1/189 754/2/189 755/3/189 756/4/189
v -0.092349 0.874933 0.057829
v -0.208194 0.879437 -0.092770
v -0.218238 0.866995 -0.085416
v -0.102393 0.862491 0.065183
vn -0.550253 0.706908 0.444412
f 757/1/190 758/2/190 759/3/190 760/4/190
v -0.102393 0.862491 0.065183
v -0.218238 0.866995 -0.085416
v -0.222094 0.850000 -0.082958
v -0.106249 0.845496 0.067641
vn -0.761876 0.258746 0.593797
f 761/1/191 762/2/191 763/3/191 764/4/191
v -0.106249 0.845496 0.067641
v -0.222094 0.850000 -0.082958
v -0.218729 0.833005 -0.086054
v -0.102884 0.828501 0.064544
vn -0.769356 -0.258746 0.584074
f 765/1/192 766/2/192 767/3/192 768/4/192
v -0.102884 0.828501 0.064544
v -0.218729 0.833005 -0.086054
v -0.209045 0.820563 -0.093876
v -0.093200 0.816060 0.056723
vn -0.570686 -0.706908 0.417849
f 769/1/193 770/2/193 771/3/193 772/4/193
v -0.093200 0.816060 0.056723
v -0.209045 0.820563 -0.093876
v -0.195636 0.816010 -0.104327
v -0.079791 0.811506 0.046272
vn -0.219102 -0.965655 0.139662
f 773/1/194 774/2/194 775/3/194 776/4/194
v -0.079791 0.811506 0.046272
v -0.195636 0.816010 -0.104327
v -0.182095 0.820563 -0.114606
v -0.066250 0.816060 0.035992
vn 0.191190 -0.965655 -0.175948
f 777/1/195 778/2/195 779/3/195 780/4/195
v -0.066250 0.816060 0.035992
v -0.182095 0.820563 -0.114606
v -0.172052 0.833005 -0.121960
v -0.056206 0.828501 0.028638
vn 0.550253 -0.706908 -0.444412
f 781/1/196 782/2/196 783/3/196 784/4/196
v -0.056206 0.828501 0.028638
v -0.172052 0.833005 -0.121960
v -0.168195 0.850000 -0.124418
v -0.052350 0.845496 0.026180
vn 0.761876 -0.258746 -0.593797
f 785/1/197 786/2/197 787/3/197 788/4/197
v -0.168195 0.850000 -0.124418
v -0.194653 0.883990 -0.103049
v -0.181245 0.879437 -0.113500
v -0.171560 0.866995 -0.121322
vn -0.609540 0.023697 -0.792401
f 789/1/198 790/2/198 791/3/198 792/4/198
v -0.168195 0.850000 -0.124418
v -0.218238 0.866995 -0.085416
v -0.208194 0.879437 -0.092770
v -0.194653 0.883990 -0.103049
vn -0.609540 0.023697 -0.792401
f 793/1/199 794/2/199 795/3/199 796/4/199
v -0.168195 0.850000 -0.124418
v -0.218729 0.833005 -0.086054
v -0.222094 0.850000 -0.082958
v -0.218238 0.866995 -0.085416
vn -0.609540 0.023697 -0.792401
f 797/1/200 798/2/200 799/3/200 800/4/200
v -0.168195 0.850000 -0.124418
v -0.195636 0.816010 -0.104327
v -0.209045 0.820563 -0.093876
v -0.218729 0.833005 -0.086054
vn -0.609540 0.023697 -0.792401
f 801/1/201 802/2/201 803/3/201 804/4/201
v -0.168195 0.850000 -0.124418
v -0.172052 0.833005 -0.121960
v -0.182095 0.820563 -0.114606
v -0.195636 0.816010 -0.104327
vn -0.609540 0.023697 -0.792401
f 805/1/202 806/2/202 807/3/202 808/4/202
v 0.518435 0.125000 0.877993
v 0.136105 0.673000 0.290965
v 0.135937 0.685253 0.302513
v 0.518266 0.137253 0.889542
vn 0.902840 0.301420 -0.306637
f 809/1/203 810/2/203 811/3/203 812/4/203
v 0.518266 0.137253 0.889542
v 0.135937 0.685253 0.302513
v 0.125068 0.690328 0.314330
v 0.507398 0.142328 0.901358
vn 0.631325 0.727691 0.268131
f 813/1/204 814/2/204 815/3/204 816/4/204
v 0.507398 0.142328 0.901358
v 0.125068 0.690328 0.314330
v 0.109866 0.685253 0.319493
v 0.492195 0.137253 0.906521
vn -0.010012 0.727691 0.685832
f 817/1/205 818/2/205 819/3/205 820/4/205
v 0.492195 0.137253 0.906521
v 0.109866 0.685253 0.319493
v 0.099236 0.673000 0.314978
v 0.481565 0.125000 0.902007
vn -0.645484 0.301420 0.701781
f 821/1/206 822/2/206 823/3/206 824/4/206
v 0.481565 0.125000 0.902007
v 0.099236 0.673000 0.314978
v 0.099404 0.660747 0.303430
v 0.481734 0.112747 0.890458
vn -0.902840 -0.301420 0.306637
f 825/1/207 826/2/207 827/3/207 828/4/207
v 0.481734 0.112747 0.890458
v 0.099404 0.660747 0.303430
v 0.110273 0.655672 0.291613
v 0.492602 0.107672 0.878642
vn -0.631325 -0.727691 -0.268131
f 829/1/208 830/2/208 831/3/208 832/4/208
v 0.492602 0.107672 0.878642
v 0.110273 0.655672 0.291613
v 0.125475 0.660747 0.286450
v 0.507805 0.112747 0.873479
vn 0.010012 -0.727691 -0.685832
f 833/1/209 834/2/209 835/3/209 836/4/209
v 0.507805 0.112747 0.873479
v 0.125475 0.660747 0.286450
v 0.136105 0.673000 0.290965
v 0.518435 0.125000 0.877993
vn 0.645484 -0.301420 -0.701781
f 837/1/210 838/2/210 839/3/210 840/4/210
v 0.136105 0.673000 0.290965
v 0.109866 0.685253 0.319493
v 0.125068 0.690328 0.314330
v 0.135937 0.685253 0.302513
vn -0.429860 0.616126 -0.660007
f 841/1/211 842/2/211 843/3/211 844/4/211
v 0.136105 0.673000 0.290965
v 0.099404 0.660747 0.303430
v 0.099236 0.673000 0.314978
v 0.109866 0.685253 0.319493
vn -0.429860 0.616126 -0.660007
f 845/1/212 846/2/212 847/3/212 848/4/212
v 0.136105 0.673000 0.290965
v 0.125475 0.660747 0.286450
v 0.110273 0.655672 0.291613
v 0.099404 0.660747 0.303430
vn -0.429860 0.616126 -0.660007
f 849/1/213 850/2/213 851/3/213 852/4/213
