# Generated by scripts/gen_pole_light_mounts.py
mtllib pole_light_mount.mtl
o pole_light_mount_2_straight_wired
vt 0 0
vt 1 0
vt 1 1
vt 0 1
usemtl clamp
v 0.312500 0.062500 1.000000
v 0.687500 0.062500 1.000000
v 0.687500 0.937500 1.000000
v 0.312500 0.937500 1.000000
vn 0.000000 0.000000 1.000000
f 1/1/1 2/2/1 3/3/1 4/4/1
v 0.687500 0.062500 0.900000
v 0.312500 0.062500 0.900000
v 0.312500 0.937500 0.900000
v 0.687500 0.937500 0.900000
vn 0.000000 0.000000 -1.000000
f 5/1/2 6/2/2 7/3/2 8/4/2
v 0.687500 0.062500 1.000000
v 0.687500 0.062500 0.900000
v 0.687500 0.937500 0.900000
v 0.687500 0.937500 1.000000
vn 1.000000 -0.000000 0.000000
f 9/1/3 10/2/3 11/3/3 12/4/3
v 0.312500 0.062500 0.900000
v 0.312500 0.062500 1.000000
v 0.312500 0.937500 1.000000
v 0.312500 0.937500 0.900000
vn -1.000000 0.000000 0.000000
f 13/1/4 14/2/4 15/3/4 16/4/4
v 0.312500 0.937500 1.000000
v 0.687500 0.937500 1.000000
v 0.687500 0.937500 0.900000
v 0.312500 0.937500 0.900000
vn -0.000000 1.000000 0.000000
f 17/1/5 18/2/5 19/3/5 20/4/5
v 0.312500 0.062500 0.900000
v 0.687500 0.062500 0.900000
v 0.687500 0.062500 1.000000
v 0.312500 0.062500 1.000000
vn 0.000000 -1.000000 0.000000
f 21/1/6 22/2/6 23/3/6 24/4/6
v 0.406250 0.312500 0.900000
v 0.593750 0.312500 0.900000
v 0.593750 0.531250 0.900000
v 0.406250 0.531250 0.900000
vn 0.000000 0.000000 1.000000
f 25/1/7 26/2/7 27/3/7 28/4/7
v 0.593750 0.312500 0.800000
v 0.406250 0.312500 0.800000
v 0.406250 0.531250 0.800000
v 0.593750 0.531250 0.800000
vn 0.000000 0.000000 -1.000000
f 29/1/8 30/2/8 31/3/8 32/4/8
v 0.593750 0.312500 0.900000
v 0.593750 0.312500 0.800000
v 0.593750 0.531250 0.800000
v 0.593750 0.531250 0.900000
vn 1.000000 -0.000000 0.000000
f 33/1/9 34/2/9 35/3/9 36/4/9
v 0.406250 0.312500 0.800000
v 0.406250 0.312500 0.900000
v 0.406250 0.531250 0.900000
v 0.406250 0.531250 0.800000
vn -1.000000 0.000000 0.000000
f 37/1/10 38/2/10 39/3/10 40/4/10
v 0.406250 0.531250 0.900000
v 0.593750 0.531250 0.900000
v 0.593750 0.531250 0.800000
v 0.406250 0.531250 0.800000
vn -0.000000 1.000000 0.000000
f 41/1/11 42/2/11 43/3/11 44/4/11
v 0.406250 0.312500 0.800000
v 0.593750 0.312500 0.800000
v 0.593750 0.312500 0.900000
v 0.406250 0.312500 0.900000
vn 0.000000 -1.000000 0.000000
f 45/1/12 46/2/12 47/3/12 48/4/12
v 0.468750 0.125000 0.900000
v 0.531250 0.125000 0.900000
v 0.531250 0.187500 0.900000
v 0.468750 0.187500 0.900000
vn 0.000000 0.000000 1.000000
f 49/1/13 50/2/13 51/3/13 52/4/13
v 0.531250 0.125000 0.880000
v 0.468750 0.125000 0.880000
v 0.468750 0.187500 0.880000
v 0.531250 0.187500 0.880000
vn 0.000000 0.000000 -1.000000
f 53/1/14 54/2/14 55/3/14 56/4/14
v 0.531250 0.125000 0.900000
v 0.531250 0.125000 0.880000
v 0.531250 0.187500 0.880000
v 0.531250 0.187500 0.900000
vn 1.000000 -0.000000 0.000000
f 57/1/15 58/2/15 59/3/15 60/4/15
v 0.468750 0.125000 0.880000
v 0.468750 0.125000 0.900000
v 0.468750 0.187500 0.900000
v 0.468750 0.187500 0.880000
vn -1.000000 0.000000 0.000000
f 61/1/16 62/2/16 63/3/16 64/4/16
v 0.468750 0.187500 0.900000
v 0.531250 0.187500 0.900000
v 0.531250 0.187500 0.880000
v 0.468750 0.187500 0.880000
vn -0.000000 1.000000 0.000000
f 65/1/17 66/2/17 67/3/17 68/4/17
v 0.468750 0.125000 0.880000
v 0.531250 0.125000 0.880000
v 0.531250 0.125000 0.900000
v 0.468750 0.125000 0.900000
vn 0.000000 -1.000000 0.000000
f 69/1/18 70/2/18 71/3/18 72/4/18
v 0.468750 0.812500 0.900000
v 0.531250 0.812500 0.900000
v 0.531250 0.875000 0.900000
v 0.468750 0.875000 0.900000
vn 0.000000 0.000000 1.000000
f 73/1/19 74/2/19 75/3/19 76/4/19
v 0.531250 0.812500 0.880000
v 0.468750 0.812500 0.880000
v 0.468750 0.875000 0.880000
v 0.531250 0.875000 0.880000
vn 0.000000 0.000000 -1.000000
f 77/1/20 78/2/20 79/3/20 80/4/20
v 0.531250 0.812500 0.900000
v 0.531250 0.812500 0.880000
v 0.531250 0.875000 0.880000
v 0.531250 0.875000 0.900000
vn 1.000000 -0.000000 0.000000
f 81/1/21 82/2/21 83/3/21 84/4/21
v 0.468750 0.812500 0.880000
v 0.468750 0.812500 0.900000
v 0.468750 0.875000 0.900000
v 0.468750 0.875000 0.880000
vn -1.000000 0.000000 0.000000
f 85/1/22 86/2/22 87/3/22 88/4/22
v 0.468750 0.875000 0.900000
v 0.531250 0.875000 0.900000
v 0.531250 0.875000 0.880000
v 0.468750 0.875000 0.880000
vn -0.000000 1.000000 0.000000
f 89/1/23 90/2/23 91/3/23 92/4/23
v 0.468750 0.812500 0.880000
v 0.531250 0.812500 0.880000
v 0.531250 0.812500 0.900000
v 0.468750 0.812500 0.900000
vn 0.000000 -1.000000 0.000000
f 93/1/24 94/2/24 95/3/24 96/4/24
usemtl metal
v 0.545000 0.410000 0.860000
v 0.545000 0.410000 0.800000
v 0.538971 0.432500 0.800000
v 0.538971 0.432500 0.860000
vn 0.965926 0.258819 0.000000
f 97/1/25 98/2/25 99/3/25 100/4/25
v 0.538971 0.432500 0.860000
v 0.538971 0.432500 0.800000
v 0.522500 0.448971 0.800000
v 0.522500 0.448971 0.860000
vn 0.707107 0.707107 0.000000
f 101/1/26 102/2/26 103/3/26 104/4/26
v 0.522500 0.448971 0.860000
v 0.522500 0.448971 0.800000
v 0.500000 0.455000 0.800000
v 0.500000 0.455000 0.860000
vn 0.258819 0.965926 0.000000
f 105/1/27 106/2/27 107/3/27 108/4/27
v 0.500000 0.455000 0.860000
v 0.500000 0.455000 0.800000
v 0.477500 0.448971 0.800000
v 0.477500 0.448971 0.860000
vn -0.258819 0.965926 0.000000
f 109/1/28 110/2/28 111/3/28 112/4/28
v 0.477500 0.448971 0.860000
v 0.477500 0.448971 0.800000
v 0.461029 0.432500 0.800000
v 0.461029 0.432500 0.860000
vn -0.707107 0.707107 0.000000
f 113/1/29 114/2/29 115/3/29 116/4/29
v 0.461029 0.432500 0.860000
v 0.461029 0.432500 0.800000
v 0.455000 0.410000 0.800000
v 0.455000 0.410000 0.860000
vn -0.965926 0.258819 0.000000
f 117/1/30 118/2/30 119/3/30 120/4/30
v 0.455000 0.410000 0.860000
v 0.455000 0.410000 0.800000
v 0.461029 0.387500 0.800000
v 0.461029 0.387500 0.860000
vn -0.965926 -0.258819 -0.000000
f 121/1/31 122/2/31 123/3/31 124/4/31
v 0.461029 0.387500 0.860000
v 0.461029 0.387500 0.800000
v 0.477500 0.371029 0.800000
v 0.477500 0.371029 0.860000
vn -0.707107 -0.707107 -0.000000
f 125/1/32 126/2/32 127/3/32 128/4/32
v 0.477500 0.371029 0.860000
v 0.477500 0.371029 0.800000
v 0.500000 0.365000 0.800000
v 0.500000 0.365000 0.860000
vn -0.258819 -0.965926 -0.000000
f 129/1/33 130/2/33 131/3/33 132/4/33
v 0.500000 0.365000 0.860000
v 0.500000 0.365000 0.800000
v 0.522500 0.371029 0.800000
v 0.522500 0.371029 0.860000
vn 0.258819 -0.965926 0.000000
f 133/1/34 134/2/34 135/3/34 136/4/34
v 0.522500 0.371029 0.860000
v 0.522500 0.371029 0.800000
v 0.538971 0.387500 0.800000
v 0.538971 0.387500 0.860000
vn 0.707107 -0.707107 0.000000
f 137/1/35 138/2/35 139/3/35 140/4/35
v 0.538971 0.387500 0.860000
v 0.538971 0.387500 0.800000
v 0.545000 0.410000 0.800000
v 0.545000 0.410000 0.860000
vn 0.965926 -0.258819 0.000000
f 141/1/36 142/2/36 143/3/36 144/4/36
v 0.545000 0.410000 0.800000
v 0.545000 0.410000 0.680000
v 0.538971 0.432471 0.681136
v 0.538971 0.432500 0.800000
vn 0.965926 0.258819 0.000000
f 145/1/37 146/2/37 147/3/37 148/4/37
v 0.538971 0.432500 0.800000
v 0.538971 0.432471 0.681136
v 0.522500 0.448921 0.681968
v 0.522500 0.448971 0.800000
vn 0.707107 0.707107 -0.000171
f 149/1/38 150/2/38 151/3/38 152/4/38
v 0.522500 0.448971 0.800000
v 0.522500 0.448921 0.681968
v 0.500000 0.454943 0.682272
v 0.500000 0.455000 0.800000
vn 0.258819 0.965926 -0.000407
f 153/1/39 154/2/39 155/3/39 156/4/39
v 0.500000 0.455000 0.800000
v 0.500000 0.454943 0.682272
v 0.477500 0.448921 0.681968
v 0.477500 0.448971 0.800000
vn -0.258819 0.965926 -0.000471
f 157/1/40 158/2/40 159/3/40 160/4/40
v 0.477500 0.448971 0.800000
v 0.477500 0.448921 0.681968
v 0.461029 0.432471 0.681136
v 0.461029 0.432500 0.800000
vn -0.707107 0.707107 -0.000298
f 161/1/41 162/2/41 163/3/41 164/4/41
v 0.461029 0.432500 0.800000
v 0.461029 0.432471 0.681136
v 0.455000 0.410000 0.680000
v 0.455000 0.410000 0.800000
vn -0.965926 0.258819 -0.000063
f 165/1/42 166/2/42 167/3/42 168/4/42
v 0.455000 0.410000 0.800000
v 0.455000 0.410000 0.680000
v 0.461029 0.387529 0.678864
v 0.461029 0.387500 0.800000
vn -0.965926 -0.258819 -0.000000
f 169/1/43 170/2/43 171/3/43 172/4/43
v 0.461029 0.387500 0.800000
v 0.461029 0.387529 0.678864
v 0.477500 0.371079 0.678032
v 0.477500 0.371029 0.800000
vn -0.707107 -0.707107 -0.000168
f 173/1/44 174/2/44 175/3/44 176/4/44
v 0.477500 0.371029 0.800000
v 0.477500 0.371079 0.678032
v 0.500000 0.365057 0.677728
v 0.500000 0.365000 0.800000
vn -0.258819 -0.965926 -0.000394
f 177/1/45 178/2/45 179/3/45 180/4/45
v 0.500000 0.365000 0.800000
v 0.500000 0.365057 0.677728
v 0.522500 0.371079 0.678032
v 0.522500 0.371029 0.800000
vn 0.258819 -0.965926 -0.000454
f 181/1/46 182/2/46 183/3/46 184/4/46
v 0.522500 0.371029 0.800000
v 0.522500 0.371079 0.678032
v 0.538971 0.387529 0.678864
v 0.538971 0.387500 0.800000
vn 0.707107 -0.707107 -0.000288
f 185/1/47 186/2/47 187/3/47 188/4/47
v 0.538971 0.387500 0.800000
v 0.538971 0.387529 0.678864
v 0.545000 0.410000 0.680000
v 0.545000 0.410000 0.800000
vn 0.965926 -0.258819 -0.000061
f 189/1/48 190/2/48 191/3/48 192/4/48
v 0.545000 0.410000 0.680000
v 0.545000 0.417097 0.610000
v 0.538971 0.439176 0.614329
v 0.538971 0.432471 0.681136
vn 0.965843 0.257806 0.026137
f 193/1/49 194/2/49 195/3/49 196/4/49
v 0.538971 0.432471 0.681136
v 0.538971 0.439176 0.614329
v 0.522500 0.455340 0.617498
v 0.522500 0.448921 0.681968
vn 0.706673 0.704003 0.070658
f 197/1/50 198/2/50 199/3/50 200/4/50
v 0.522500 0.448921 0.681968
v 0.522500 0.455340 0.617498
v 0.500000 0.461256 0.618657
v 0.500000 0.454943 0.682272
vn 0.258533 0.961250 0.095700
f 201/1/51 202/2/51 203/3/51 204/4/51
v 0.500000 0.454943 0.682272
v 0.500000 0.461256 0.618657
v 0.477500 0.455340 0.617498
v 0.477500 0.448921 0.681968
vn -0.258536 0.961279 0.095404
f 205/1/52 206/2/52 207/3/52 208/4/52
v 0.477500 0.448921 0.681968
v 0.477500 0.455340 0.617498
v 0.461029 0.439176 0.614329
v 0.461029 0.432471 0.681136
vn -0.706687 0.704046 0.070093
f 209/1/53 210/2/53 211/3/53 212/4/53
v 0.461029 0.432471 0.681136
v 0.461029 0.439176 0.614329
v 0.455000 0.417097 0.610000
v 0.455000 0.410000 0.680000
vn -0.965846 0.257820 0.025876
f 213/1/54 214/2/54 215/3/54 216/4/54
v 0.455000 0.410000 0.680000
v 0.455000 0.417097 0.610000
v 0.461029 0.395017 0.605671
v 0.461029 0.387529 0.678864
vn -0.965843 -0.257806 -0.026137
f 217/1/55 218/2/55 219/3/55 220/4/55
v 0.461029 0.387529 0.678864
v 0.461029 0.395017 0.605671
v 0.477500 0.378854 0.602502
v 0.477500 0.371079 0.678032
vn -0.706639 -0.703900 -0.072017
f 221/1/56 222/2/56 223/3/56 224/4/56
v 0.477500 0.371079 0.678032
v 0.477500 0.378854 0.602502
v 0.500000 0.372937 0.601343
v 0.500000 0.365057 0.677728
vn -0.258492 -0.960935 -0.098920
f 225/1/57 226/2/57 227/3/57 228/4/57
v 0.500000 0.365057 0.677728
v 0.500000 0.372937 0.601343
v 0.522500 0.378854 0.602502
v 0.522500 0.371079 0.678032
vn 0.258489 -0.960914 -0.099130
f 229/1/58 230/2/58 231/3/58 232/4/58
v 0.522500 0.371079 0.678032
v 0.522500 0.378854 0.602502
v 0.538971 0.395017 0.605671
v 0.538971 0.387529 0.678864
vn 0.706627 -0.703866 -0.072457
f 233/1/59 234/2/59 235/3/59 236/4/59
v 0.538971 0.387529 0.678864
v 0.538971 0.395017 0.605671
v 0.545000 0.417097 0.610000
v 0.545000 0.410000 0.680000
vn 0.965840 -0.257793 -0.026375
f 237/1/60 238/2/60 239/3/60 240/4/60
v 0.545000 0.417097 0.610000
v 0.545000 0.437693 0.540000
v 0.538971 0.458767 0.547883
v 0.538971 0.439176 0.614329
vn 0.965647 0.249290 0.073347
f 241/1/61 242/2/61 243/3/61 244/4/61
v 0.538971 0.439176 0.614329
v 0.538971 0.458767 0.547883
v 0.522500 0.474194 0.553653
v 0.522500 0.455340 0.617498
vn 0.705570 0.679714 0.200398
f 245/1/62 246/2/62 247/3/62 248/4/62
v 0.522500 0.455340 0.617498
v 0.522500 0.474194 0.553653
v 0.500000 0.479841 0.555765
v 0.500000 0.461256 0.618657
vn 0.257763 0.926647 0.273648
f 249/1/63 250/2/63 251/3/63 252/4/63
v 0.500000 0.461256 0.618657
v 0.500000 0.479841 0.555765
v 0.477500 0.474194 0.553653
v 0.477500 0.455340 0.617498
vn -0.257759 0.926601 0.273808
f 253/1/64 254/2/64 255/3/64 256/4/64
v 0.477500 0.455340 0.617498
v 0.477500 0.474194 0.553653
v 0.461029 0.458767 0.547883
v 0.461029 0.439176 0.614329
vn -0.705556 0.679639 0.200704
f 257/1/65 258/2/65 259/3/65 260/4/65
v 0.461029 0.439176 0.614329
v 0.461029 0.458767 0.547883
v 0.455000 0.437693 0.540000
v 0.455000 0.417097 0.610000
vn -0.965644 0.249262 0.073489
f 261/1/66 262/2/66 263/3/66 264/4/66
v 0.455000 0.417097 0.610000
v 0.455000 0.437693 0.540000
v 0.461029 0.416618 0.532117
v 0.461029 0.395017 0.605671
vn -0.965647 -0.249290 -0.073347
f 265/1/67 266/2/67 267/3/67 268/4/67
v 0.461029 0.395017 0.605671
v 0.461029 0.416618 0.532117
v 0.477500 0.401191 0.526347
v 0.477500 0.378854 0.602502
vn -0.705605 -0.679892 -0.199671
f 269/1/68 270/2/68 271/3/68 272/4/68
v 0.477500 0.378854 0.602502
v 0.477500 0.401191 0.526347
v 0.500000 0.395544 0.524235
v 0.500000 0.372937 0.601343
vn -0.257804 -0.927138 -0.271943
f 273/1/69 274/2/69 275/3/69 276/4/69
v 0.500000 0.372937 0.601343
v 0.500000 0.395544 0.524235
v 0.522500 0.401191 0.526347
v 0.522500 0.378854 0.602502
vn 0.257806 -0.927169 -0.271834
f 277/1/70 278/2/70 279/3/70 280/4/70
v 0.522500 0.378854 0.602502
v 0.522500 0.401191 0.526347
v 0.538971 0.416618 0.532117
v 0.538971 0.395017 0.605671
vn 0.705616 -0.679949 -0.199439
f 281/1/71 282/2/71 283/3/71 284/4/71
v 0.538971 0.395017 0.605671
v 0.538971 0.416618 0.532117
v 0.545000 0.437693 0.540000
v 0.545000 0.417097 0.610000
vn 0.965650 -0.249316 -0.073219
f 285/1/72 286/2/72 287/3/72 288/4/72
v 0.545000 0.437693 0.540000
v 0.545000 0.469771 0.470000
v 0.538971 0.489763 0.480324
v 0.538971 0.458767 0.547883
vn 0.965759 0.235856 0.108085
f 289/1/73 290/2/73 291/3/73 292/4/73
v 0.538971 0.458767 0.547883
v 0.538971 0.489763 0.480324
v 0.522500 0.504398 0.487882
v 0.522500 0.474194 0.553653
vn 0.706183 0.643529 0.295254
f 293/1/74 294/2/74 295/3/74 296/4/74
v 0.522500 0.474194 0.553653
v 0.522500 0.504398 0.487882
v 0.500000 0.509754 0.490648
v 0.500000 0.479841 0.555765
vn 0.258183 0.877947 0.403175
f 297/1/75 298/2/75 299/3/75 300/4/75
v 0.500000 0.479841 0.555765
v 0.500000 0.509754 0.490648
v 0.477500 0.504398 0.487882
v 0.477500 0.474194 0.553653
vn -0.258181 0.877895 0.403291
f 301/1/76 302/2/76 303/3/76 304/4/76
v 0.477500 0.474194 0.553653
v 0.477500 0.504398 0.487882
v 0.461029 0.489763 0.480324
v 0.461029 0.458767 0.547883
vn -0.706174 0.643435 0.295481
f 305/1/77 306/2/77 307/3/77 308/4/77
v 0.461029 0.458767 0.547883
v 0.461029 0.489763 0.480324
v 0.455000 0.469771 0.470000
v 0.455000 0.437693 0.540000
vn -0.965757 0.235815 0.108193
f 309/1/78 310/2/78 311/3/78 312/4/78
v 0.455000 0.437693 0.540000
v 0.455000 0.469771 0.470000
v 0.461029 0.449779 0.459676
v 0.461029 0.416618 0.532117
vn -0.965759 -0.235856 -0.108085
f 313/1/79 314/2/79 315/3/79 316/4/79
v 0.461029 0.416618 0.532117
v 0.461029 0.449779 0.459676
v 0.477500 0.435145 0.452118
v 0.477500 0.401191 0.526347
vn -0.706205 -0.643763 -0.294691
f 317/1/80 318/2/80 319/3/80 320/4/80
v 0.477500 0.401191 0.526347
v 0.477500 0.435145 0.452118
v 0.500000 0.429788 0.449352
v 0.500000 0.395544 0.524235
vn -0.258209 -0.878543 -0.401859
f 321/1/81 322/2/81 323/3/81 324/4/81
v 0.500000 0.395544 0.524235
v 0.500000 0.429788 0.449352
v 0.522500 0.435145 0.452118
v 0.522500 0.401191 0.526347
vn 0.258211 -0.878583 -0.401770
f 325/1/82 326/2/82 327/3/82 328/4/82
v 0.522500 0.401191 0.526347
v 0.522500 0.435145 0.452118
v 0.538971 0.449779 0.459676
v 0.538971 0.416618 0.532117
vn 0.706212 -0.643841 -0.294503
f 329/1/83 330/2/83 331/3/83 332/4/83
v 0.538971 0.416618 0.532117
v 0.538971 0.449779 0.459676
v 0.545000 0.469771 0.470000
v 0.545000 0.437693 0.540000
vn 0.965761 -0.235894 -0.107984
f 333/1/84 334/2/84 335/3/84 336/4/84
v 0.545000 0.469771 0.470000
v 0.545000 0.510193 0.400000
v 0.538971 0.529415 0.411694
v 0.538971 0.489763 0.480324
vn 0.965854 0.224365 0.129559
f 337/1/85 338/2/85 339/3/85 340/4/85
v 0.538971 0.489763 0.480324
v 0.538971 0.529415 0.411694
v 0.522500 0.543487 0.420254
v 0.522500 0.504398 0.487882
vn 0.706712 0.612603 0.353942
f 341/1/86 342/2/86 343/3/86 344/4/86
v 0.522500 0.504398 0.487882
v 0.522500 0.543487 0.420254
v 0.500000 0.548638 0.423388
v 0.500000 0.509754 0.490648
vn 0.258548 0.836341 0.483412
f 345/1/87 346/2/87 347/3/87 348/4/87
v 0.500000 0.509754 0.490648
v 0.500000 0.548638 0.423388
v 0.477500 0.543487 0.420254
v 0.477500 0.504398 0.487882
vn -0.258547 0.836308 0.483469
f 349/1/88 350/2/88 351/3/88 352/4/88
v 0.477500 0.504398 0.487882
v 0.477500 0.543487 0.420254
v 0.461029 0.529415 0.411694
v 0.461029 0.489763 0.480324
vn -0.706709 0.612542 0.354055
f 353/1/89 354/2/89 355/3/89 356/4/89
v 0.461029 0.489763 0.480324
v 0.461029 0.529415 0.411694
v 0.455000 0.510193 0.400000
v 0.455000 0.469771 0.470000
vn -0.965854 0.224337 0.129614
f 357/1/90 358/2/90 359/3/90 360/4/90
v 0.455000 0.469771 0.470000
v 0.455000 0.510193 0.400000
v 0.461029 0.490970 0.388306
v 0.461029 0.449779 0.459676
vn -0.965854 -0.224365 -0.129559
f 361/1/91 362/2/91 363/3/91 364/4/91
v 0.461029 0.449779 0.459676
v 0.461029 0.490970 0.388306
v 0.477500 0.476898 0.379746
v 0.477500 0.435145 0.452118
vn -0.706720 -0.612762 -0.353651
f 365/1/92 366/2/92 367/3/92 368/4/92
v 0.477500 0.435145 0.452118
v 0.477500 0.476898 0.379746
v 0.500000 0.471748 0.376612
v 0.500000 0.429788 0.449352
vn -0.258557 -0.836731 -0.482731
f 369/1/93 370/2/93 371/3/93 372/4/93
v 0.500000 0.429788 0.449352
v 0.500000 0.471748 0.376612
v 0.522500 0.476898 0.379746
v 0.522500 0.435145 0.452118
vn 0.258558 -0.836759 -0.482682
f 373/1/94 374/2/94 375/3/94 376/4/94
v 0.522500 0.435145 0.452118
v 0.522500 0.476898 0.379746
v 0.538971 0.490970 0.388306
v 0.538971 0.449779 0.459676
vn 0.706723 -0.612818 -0.353550
f 377/1/95 378/2/95 379/3/95 380/4/95
v 0.538971 0.449779 0.459676
v 0.538971 0.490970 0.388306
v 0.545000 0.510193 0.400000
v 0.545000 0.469771 0.470000
vn 0.965855 -0.224393 -0.129507
f 381/1/96 382/2/96 383/3/96 384/4/96
v 0.545000 0.510193 0.400000
v 0.545000 0.555000 0.330000
v 0.538971 0.573950 0.342130
v 0.538971 0.529415 0.411694
vn 0.965909 0.218038 0.139568
f 385/1/97 386/2/97 387/3/97 388/4/97
v 0.538971 0.529415 0.411694
v 0.538971 0.573950 0.342130
v 0.522500 0.587823 0.351010
v 0.522500 0.543487 0.420254
vn 0.707014 0.595598 0.381306
f 389/1/98 390/2/98 391/3/98 392/4/98
v 0.522500 0.543487 0.420254
v 0.522500 0.587823 0.351010
v 0.500000 0.592900 0.354260
v 0.500000 0.548638 0.423388
vn 0.258755 0.813482 0.520857
f 393/1/99 394/2/99 395/3/99 396/4/99
v 0.500000 0.548638 0.423388
v 0.500000 0.592900 0.354260
v 0.477500 0.587823 0.351010
v 0.477500 0.543487 0.420254
vn -0.258755 0.813472 0.520873
f 397/1/100 398/2/100 399/3/100 400/4/100
v 0.477500 0.543487 0.420254
v 0.477500 0.587823 0.351010
v 0.461029 0.573950 0.342130
v 0.461029 0.529415 0.411694
vn -0.707013 0.595578 0.381338
f 401/1/101 402/2/101 403/3/101 404/4/101
v 0.461029 0.529415 0.411694
v 0.461029 0.573950 0.342130
v 0.455000 0.555000 0.330000
v 0.455000 0.510193 0.400000
vn -0.965909 0.218029 0.139584
f 405/1/102 406/2/102 407/3/102 408/4/102
v 0.455000 0.510193 0.400000
v 0.455000 0.555000 0.330000
v 0.461029 0.536050 0.317870
v 0.461029 0.490970 0.388306
vn -0.965909 -0.218038 -0.139568
f 409/1/103 410/2/103 411/3/103 412/4/103
v 0.461029 0.490970 0.388306
v 0.461029 0.536050 0.317870
v 0.477500 0.522177 0.308990
v 0.477500 0.476898 0.379746
vn -0.707015 -0.595651 -0.381221
f 413/1/104 414/2/104 415/3/104 416/4/104
v 0.477500 0.476898 0.379746
v 0.477500 0.522177 0.308990
v 0.500000 0.517100 0.305740
v 0.500000 0.471748 0.376612
vn -0.258757 -0.813610 -0.520658
f 417/1/105 418/2/105 419/3/105 420/4/105
v 0.500000 0.471748 0.376612
v 0.500000 0.517100 0.305740
v 0.522500 0.522177 0.308990
v 0.522500 0.476898 0.379746
vn 0.258757 -0.813619 -0.520643
f 421/1/106 422/2/106 423/3/106 424/4/106
v 0.522500 0.476898 0.379746
v 0.522500 0.522177 0.308990
v 0.538971 0.536050 0.317870
v 0.538971 0.490970 0.388306
vn 0.707015 -0.595670 -0.381191
f 425/1/107 426/2/107 427/3/107 428/4/107
v 0.538971 0.490970 0.388306
v 0.538971 0.536050 0.317870
v 0.545000 0.555000 0.330000
v 0.545000 0.510193 0.400000
vn 0.965909 -0.218048 -0.139552
f 429/1/108 430/2/108 431/3/108 432/4/108
v 0.545000 0.555000 0.330000
v 0.545000 0.599807 0.260000
v 0.538971 0.619030 0.271694
v 0.538971 0.573950 0.342130
vn 0.965926 0.217985 0.139534
f 433/1/109 434/2/109 435/3/109 436/4/109
v 0.538971 0.573950 0.342130
v 0.538971 0.619030 0.271694
v 0.522500 0.633102 0.280254
v 0.522500 0.587823 0.351010
vn 0.707107 0.595574 0.381172
f 437/1/110 438/2/110 439/3/110 440/4/110
v 0.522500 0.587823 0.351010
v 0.522500 0.633102 0.280254
v 0.500000 0.638252 0.283388
v 0.500000 0.592900 0.354260
vn 0.258819 0.813595 0.520649
f 441/1/111 442/2/111 443/3/111 444/4/111
v 0.500000 0.592900 0.354260
v 0.500000 0.638252 0.283388
v 0.477500 0.633102 0.280254
v 0.477500 0.587823 0.351010
vn -0.258819 0.813605 0.520634
f 445/1/112 446/2/112 447/3/112 448/4/112
v 0.477500 0.587823 0.351010
v 0.477500 0.633102 0.280254
v 0.461029 0.619030 0.271694
v 0.461029 0.573950 0.342130
vn -0.707107 0.595593 0.381141
f 449/1/113 450/2/113 451/3/113 452/4/113
v 0.461029 0.573950 0.342130
v 0.461029 0.619030 0.271694
v 0.455000 0.599807 0.260000
v 0.455000 0.555000 0.330000
vn -0.965926 0.217995 0.139519
f 453/1/114 454/2/114 455/3/114 456/4/114
v 0.455000 0.555000 0.330000
v 0.455000 0.599807 0.260000
v 0.461029 0.580585 0.248306
v 0.461029 0.536050 0.317870
vn -0.965926 -0.217985 -0.139534
f 457/1/115 458/2/115 459/3/115 460/4/115
v 0.461029 0.536050 0.317870
v 0.461029 0.580585 0.248306
v 0.477500 0.566513 0.239746
v 0.477500 0.522177 0.308990
vn -0.707107 -0.595520 -0.381256
f 461/1/116 462/2/116 463/3/116 464/4/116
v 0.477500 0.522177 0.308990
v 0.477500 0.566513 0.239746
v 0.500000 0.561362 0.236612
v 0.500000 0.517100 0.305740
vn -0.258819 -0.813468 -0.520848
f 465/1/117 466/2/117 467/3/117 468/4/117
v 0.500000 0.517100 0.305740
v 0.500000 0.561362 0.236612
v 0.522500 0.566513 0.239746
v 0.522500 0.522177 0.308990
vn 0.258819 -0.813458 -0.520864
f 469/1/118 470/2/118 471/3/118 472/4/118
v 0.522500 0.522177 0.308990
v 0.522500 0.566513 0.239746
v 0.538971 0.580585 0.248306
v 0.538971 0.536050 0.317870
vn 0.707107 -0.595500 -0.381287
f 473/1/119 474/2/119 475/3/119 476/4/119
v 0.538971 0.536050 0.317870
v 0.538971 0.580585 0.248306
v 0.545000 0.599807 0.260000
v 0.545000 0.555000 0.330000
vn 0.965926 -0.217975 -0.139549
f 477/1/120 478/2/120 479/3/120 480/4/120
v 0.545000 0.599807 0.260000
v 0.545000 0.640229 0.190000
v 0.538971 0.660221 0.200324
v 0.538971 0.619030 0.271694
vn 0.965909 0.224189 0.129458
f 481/1/121 482/2/121 483/3/121 484/4/121
v 0.538971 0.619030 0.271694
v 0.538971 0.660221 0.200324
v 0.522500 0.674855 0.207882
v 0.522500 0.633102 0.280254
vn 0.707013 0.612509 0.353505
f 485/1/122 486/2/122 487/3/122 488/4/122
v 0.522500 0.633102 0.280254
v 0.522500 0.674855 0.207882
v 0.500000 0.680212 0.210648
v 0.500000 0.638252 0.283388
vn 0.258754 0.836686 0.482705
f 489/1/123 490/2/123 491/3/123 492/4/123
v 0.500000 0.638252 0.283388
v 0.500000 0.680212 0.210648
v 0.477500 0.674855 0.207882
v 0.477500 0.633102 0.280254
vn -0.258753 0.836714 0.482656
f 493/1/124 494/2/124 495/3/124 496/4/124
v 0.477500 0.633102 0.280254
v 0.477500 0.674855 0.207882
v 0.461029 0.660221 0.200324
v 0.461029 0.619030 0.271694
vn -0.707011 0.612568 0.353406
f 497/1/125 498/2/125 499/3/125 500/4/125
v 0.461029 0.619030 0.271694
v 0.461029 0.660221 0.200324
v 0.455000 0.640229 0.190000
v 0.455000 0.599807 0.260000
vn -0.965909 0.224220 0.129407
f 501/1/126 502/2/126 503/3/126 504/4/126
v 0.455000 0.599807 0.260000
v 0.455000 0.640229 0.190000
v 0.461029 0.620237 0.179676
v 0.461029 0.580585 0.248306
vn -0.965909 -0.224189 -0.129458
f 505/1/127 506/2/127 507/3/127 508/4/127
v 0.461029 0.580585 0.248306
v 0.461029 0.620237 0.179676
v 0.477500 0.605602 0.172118
v 0.477500 0.566513 0.239746
vn -0.707016 -0.612340 -0.353790
f 509/1/128 510/2/128 511/3/128 512/4/128
v 0.477500 0.566513 0.239746
v 0.477500 0.605602 0.172118
v 0.500000 0.600246 0.169352
v 0.500000 0.561362 0.236612
vn -0.258758 -0.836292 -0.483384
f 513/1/129 514/2/129 515/3/129 516/4/129
v 0.500000 0.561362 0.236612
v 0.500000 0.600246 0.169352
v 0.522500 0.605602 0.172118
v 0.522500 0.566513 0.239746
vn 0.258759 -0.836259 -0.483441
f 517/1/130 518/2/130 519/3/130 520/4/130
v 0.522500 0.566513 0.239746
v 0.522500 0.605602 0.172118
v 0.538971 0.620237 0.179676
v 0.538971 0.580585 0.248306
vn 0.707018 -0.612275 -0.353900
f 521/1/131 522/2/131 523/3/131 524/4/131
v 0.538971 0.580585 0.248306
v 0.538971 0.620237 0.179676
v 0.545000 0.640229 0.190000
v 0.545000 0.599807 0.260000
vn 0.965909 -0.224157 -0.129511
f 525/1/132 526/2/132 527/3/132 528/4/132
v 0.545000 0.640229 0.190000
v 0.545000 0.672307 0.120000
v 0.538971 0.693382 0.127883
v 0.538971 0.660221 0.200324
vn 0.965854 0.235532 0.107936
f 529/1/133 530/2/133 531/3/133 532/4/133
v 0.538971 0.660221 0.200324
v 0.538971 0.693382 0.127883
v 0.522500 0.708809 0.133653
v 0.522500 0.674855 0.207882
vn 0.706709 0.643306 0.294482
f 533/1/134 534/2/134 535/3/134 536/4/134
v 0.522500 0.674855 0.207882
v 0.522500 0.708809 0.133653
v 0.500000 0.714456 0.135765
v 0.500000 0.680212 0.210648
vn 0.258545 0.878461 0.401822
f 537/1/135 538/2/135 539/3/135 540/4/135
v 0.500000 0.680212 0.210648
v 0.500000 0.714456 0.135765
v 0.477500 0.708809 0.133653
v 0.477500 0.674855 0.207882
vn -0.258543 0.878502 0.401733
f 541/1/136 542/2/136 543/3/136 544/4/136
v 0.477500 0.674855 0.207882
v 0.477500 0.708809 0.133653
v 0.461029 0.693382 0.127883
v 0.461029 0.660221 0.200324
vn -0.706705 0.643395 0.294299
f 545/1/137 546/2/137 547/3/137 548/4/137
v 0.461029 0.660221 0.200324
v 0.461029 0.693382 0.127883
v 0.455000 0.672307 0.120000
v 0.455000 0.640229 0.190000
vn -0.965853 0.235581 0.107840
f 549/1/138 550/2/138 551/3/138 552/4/138
v 0.455000 0.640229 0.190000
v 0.455000 0.672307 0.120000
v 0.461029 0.651233 0.112117
v 0.461029 0.620237 0.179676
vn -0.965854 -0.235532 -0.107936
f 553/1/139 554/2/139 555/3/139 556/4/139
v 0.461029 0.620237 0.179676
v 0.461029 0.651233 0.112117
v 0.477500 0.635806 0.106347
v 0.477500 0.605602 0.172118
vn -0.706724 -0.643039 -0.295029
f 557/1/140 558/2/140 559/3/140 560/4/140
v 0.477500 0.605602 0.172118
v 0.477500 0.635806 0.106347
v 0.500000 0.630159 0.104235
v 0.500000 0.600246 0.169352
vn -0.258561 -0.877855 -0.403133
f 561/1/141 562/2/141 563/3/141 564/4/141
v 0.500000 0.600246 0.169352
v 0.500000 0.630159 0.104235
v 0.522500 0.635806 0.106347
v 0.522500 0.605602 0.172118
vn 0.258563 -0.877802 -0.403248
f 565/1/142 566/2/142 567/3/142 568/4/142
v 0.522500 0.605602 0.172118
v 0.522500 0.635806 0.106347
v 0.538971 0.651233 0.112117
v 0.538971 0.620237 0.179676
vn 0.706729 -0.642932 -0.295250
f 569/1/143 570/2/143 571/3/143 572/4/143
v 0.538971 0.620237 0.179676
v 0.538971 0.651233 0.112117
v 0.545000 0.672307 0.120000
v 0.545000 0.640229 0.190000
vn 0.965856 -0.235479 -0.108039
f 573/1/144 574/2/144 575/3/144 576/4/144
v 0.545000 0.672307 0.120000
v 0.545000 0.692903 0.050000
v 0.538971 0.714983 0.054329
v 0.538971 0.693382 0.127883
vn 0.965759 0.248893 0.073230
f 577/1/145 578/2/145 579/3/145 580/4/145
v 0.538971 0.693382 0.127883
v 0.538971 0.714983 0.054329
v 0.522500 0.731146 0.057498
v 0.522500 0.708809 0.133653
vn 0.706182 0.679340 0.199509
f 581/1/146 582/2/146 583/3/146 584/4/146
v 0.522500 0.708809 0.133653
v 0.522500 0.731146 0.057498
v 0.500000 0.737063 0.058657
v 0.500000 0.714456 0.135765
vn 0.258182 0.927040 0.271915
f 585/1/147 586/2/147 587/3/147 588/4/147
v 0.500000 0.714456 0.135765
v 0.500000 0.737063 0.058657
v 0.477500 0.731146 0.057498
v 0.477500 0.708809 0.133653
vn -0.258180 0.927073 0.271806
f 589/1/148 590/2/148 591/3/148 592/4/148
v 0.477500 0.708809 0.133653
v 0.477500 0.731146 0.057498
v 0.461029 0.714983 0.054329
v 0.461029 0.693382 0.127883
vn -0.706173 0.679416 0.199283
f 593/1/149 594/2/149 595/3/149 596/4/149
v 0.461029 0.693382 0.127883
v 0.461029 0.714983 0.054329
v 0.455000 0.692903 0.050000
v 0.455000 0.672307 0.120000
vn -0.965756 0.248938 0.073108
f 597/1/150 598/2/150 599/3/150 600/4/150
v 0.455000 0.672307 0.120000
v 0.455000 0.692903 0.050000
v 0.461029 0.670824 0.045671
v 0.461029 0.651233 0.112117
vn -0.965759 -0.248893 -0.073230
f 601/1/151 602/2/151 603/3/151 604/4/151
v 0.461029 0.651233 0.112117
v 0.461029 0.670824 0.045671
v 0.477500 0.654660 0.042502
v 0.477500 0.635806 0.106347
vn -0.706209 -0.679104 -0.200218
f 605/1/152 606/2/152 607/3/152 608/4/152
v 0.477500 0.635806 0.106347
v 0.477500 0.654660 0.042502
v 0.500000 0.648744 0.041343
v 0.500000 0.630159 0.104235
vn -0.258214 -0.926532 -0.273614
f 609/1/153 610/2/153 611/3/153 612/4/153
v 0.500000 0.630159 0.104235
v 0.500000 0.648744 0.041343
v 0.522500 0.654660 0.042502
v 0.522500 0.635806 0.106347
vn 0.258217 -0.926484 -0.273773
f 613/1/154 614/2/154 615/3/154 616/4/154
v 0.522500 0.635806 0.106347
v 0.522500 0.654660 0.042502
v 0.538971 0.670824 0.045671
v 0.538971 0.651233 0.112117
vn 0.706220 -0.679004 -0.200517
f 617/1/155 618/2/155 619/3/155 620/4/155
v 0.538971 0.651233 0.112117
v 0.538971 0.670824 0.045671
v 0.545000 0.692903 0.050000
v 0.545000 0.672307 0.120000
vn 0.965761 -0.248843 -0.073366
f 621/1/156 622/2/156 623/3/156 624/4/156
v 0.545000 0.692903 0.050000
v 0.545000 0.700000 -0.020000
v 0.538971 0.721703 -0.014065
v 0.538971 0.714983 0.054329
vn 0.965647 0.258531 0.026211
f 625/1/157 626/2/157 627/3/157 628/4/157
v 0.538971 0.714983 0.054329
v 0.538971 0.721703 -0.014065
v 0.522500 0.737591 -0.009721
v 0.522500 0.731146 0.057498
vn 0.705485 0.705328 0.069305
f 629/1/158 630/2/158 631/3/158 632/4/158
v 0.522500 0.731146 0.057498
v 0.522500 0.737591 -0.009721
v 0.500000 0.743406 -0.008131
v 0.500000 0.737063 0.058657
vn 0.257660 0.961825 0.092218
f 633/1/159 634/2/159 635/3/159 636/4/159
v 0.500000 0.737063 0.058657
v 0.500000 0.743406 -0.008131
v 0.477500 0.737591 -0.009721
v 0.477500 0.731146 0.057498
vn -0.257639 0.961912 0.091367
f 637/1/160 638/2/160 639/3/160 640/4/160
v 0.477500 0.731146 0.057498
v 0.477500 0.737591 -0.009721
v 0.461029 0.721703 -0.014065
v 0.461029 0.714983 0.054329
vn -0.705404 0.705570 0.067648
f 641/1/161 642/2/161 643/3/161 644/4/161
v 0.461029 0.714983 0.054329
v 0.461029 0.721703 -0.014065
v 0.455000 0.700000 -0.020000
v 0.455000 0.692903 0.050000
vn -0.965628 0.258682 0.025418
f 645/1/162 646/2/162 647/3/162 648/4/162
v 0.455000 0.692903 0.050000
v 0.455000 0.700000 -0.020000
v 0.461029 0.678297 -0.025935
v 0.461029 0.670824 0.045671
vn -0.965647 -0.258531 -0.026211
f 649/1/163 650/2/163 651/3/163 652/4/163
v 0.461029 0.670824 0.045671
v 0.461029 0.678297 -0.025935
v 0.477500 0.662409 -0.030279
v 0.477500 0.654660 0.042502
vn -0.705684 -0.704699 -0.073547
f 653/1/164 654/2/164 655/3/164 656/4/164
v 0.477500 0.654660 0.042502
v 0.477500 0.662409 -0.030279
v 0.500000 0.656594 -0.031869
v 0.500000 0.648744 0.041343
vn -0.257894 -0.960743 -0.102288
f 657/1/165 658/2/165 659/3/165 660/4/165
v 0.500000 0.648744 0.041343
v 0.500000 0.656594 -0.031869
v 0.522500 0.662409 -0.030279
v 0.522500 0.654660 0.042502
vn 0.257910 -0.960663 -0.103002
f 661/1/166 662/2/166 663/3/166 664/4/166
v 0.522500 0.654660 0.042502
v 0.522500 0.662409 -0.030279
v 0.538971 0.678297 -0.025935
v 0.538971 0.670824 0.045671
vn 0.705750 -0.704480 -0.075004
f 665/1/167 666/2/167 667/3/167 668/4/167
v 0.538971 0.670824 0.045671
v 0.538971 0.678297 -0.025935
v 0.545000 0.700000 -0.020000
v 0.545000 0.692903 0.050000
vn 0.965665 -0.258388 -0.026967
f 669/1/168 670/2/168 671/3/168 672/4/168
v 0.545000 0.700000 -0.020000
v 0.545000 1.156250 -1.007500
v 0.538971 1.176675 -0.998063
v 0.538971 0.721703 -0.014065
vn 0.965020 0.238001 0.109962
f 673/1/169 674/2/169 675/3/169 676/4/169
v 0.538971 0.721703 -0.014065
v 0.538971 1.176675 -0.998063
v 0.522500 1.191628 -0.991155
v 0.522500 0.737591 -0.009721
vn 0.702186 0.646256 0.298810
f 677/1/170 678/2/170 679/3/170 680/4/170
v 0.522500 0.737591 -0.009721
v 0.522500 1.191628 -0.991155
v 0.500000 1.197101 -0.988626
v 0.500000 0.743406 -0.008131
vn 0.255480 0.877465 0.405938
f 681/1/171 682/2/171 683/3/171 684/4/171
v 0.500000 0.743406 -0.008131
v 0.500000 1.197101 -0.988626
v 0.477500 1.191628 -0.991155
v 0.477500 0.737591 -0.009721
vn -0.255477 0.877434 0.406006
f 685/1/172 686/2/172 687/3/172 688/4/172
v 0.477500 0.737591 -0.009721
v 0.477500 1.191628 -0.991155
v 0.461029 1.176675 -0.998063
v 0.461029 0.721703 -0.014065
vn -0.702174 0.646205 0.298951
f 689/1/173 690/2/173 691/3/173 692/4/173
v 0.461029 0.721703 -0.014065
v 0.461029 1.176675 -0.998063
v 0.455000 1.156250 -1.007500
v 0.455000 0.700000 -0.020000
vn -0.965017 0.237980 0.110035
f 693/1/174 694/2/174 695/3/174 696/4/174
v 0.455000 0.700000 -0.020000
v 0.455000 1.156250 -1.007500
v 0.461029 1.135825 -1.016937
v 0.461029 0.678297 -0.025935
vn -0.965020 -0.238001 -0.109962
f 697/1/175 698/2/175 699/3/175 700/4/175
v 0.461029 0.678297 -0.025935
v 0.461029 1.135825 -1.016937
v 0.477500 1.120872 -1.023845
v 0.477500 0.662409 -0.030279
vn -0.702220 -0.646396 -0.298429
f 701/1/176 702/2/176 703/3/176 704/4/176
v 0.477500 0.662409 -0.030279
v 0.477500 1.120872 -1.023845
v 0.500000 1.115399 -1.026374
v 0.500000 0.656594 -0.031869
vn -0.255519 -0.877854 -0.405070
f 705/1/177 706/2/177 707/3/177 708/4/177
v 0.500000 0.656594 -0.031869
v 0.500000 1.115399 -1.026374
v 0.522500 1.120872 -1.023845
v 0.522500 0.662409 -0.030279
vn 0.255522 -0.877884 -0.405004
f 709/1/178 710/2/178 711/3/178 712/4/178
v 0.522500 0.662409 -0.030279
v 0.522500 1.120872 -1.023845
v 0.538971 1.135825 -1.016937
v 0.538971 0.678297 -0.025935
vn 0.702232 -0.646446 -0.298291
f 713/1/179 714/2/179 715/3/179 716/4/179
v 0.538971 0.678297 -0.025935
v 0.538971 1.135825 -1.016937
v 0.545000 1.156250 -1.007500
v 0.545000 0.700000 -0.020000
vn 0.965023 -0.238021 -0.109890
f 717/1/180 718/2/180 719/3/180 720/4/180
v 0.545000 1.156250 -1.007500
v 0.500000 1.197101 -0.988626
v 0.522500 1.191628 -0.991155
v 0.538971 1.176675 -0.998063
vn 0.000000 0.419422 -0.907791
f 721/1/181 722/2/181 723/3/181 724/4/181
v 0.545000 1.156250 -1.007500
v 0.461029 1.176675 -0.998063
v 0.477500 1.191628 -0.991155
v 0.500000 1.197101 -0.988626
vn -0.000000 0.419422 -0.907791
f 725/1/182 726/2/182 727/3/182 728/4/182
v 0.545000 1.156250 -1.007500
v 0.461029 1.135825 -1.016937
v 0.455000 1.156250 -1.007500
v 0.461029 1.176675 -0.998063
vn 0.000000 0.419422 -0.907791
f 729/1/183 730/2/183 731/3/183 732/4/183
v 0.545000 1.156250 -1.007500
v 0.500000 1.115399 -1.026374
v 0.477500 1.120872 -1.023845
v 0.461029 1.135825 -1.016937
vn 0.000000 0.419422 -0.907791
f 733/1/184 734/2/184 735/3/184 736/4/184
v 0.545000 1.156250 -1.007500
v 0.538971 1.135825 -1.016937
v 0.522500 1.120872 -1.023845
v 0.500000 1.115399 -1.026374
vn -0.000000 0.419422 -0.907791
f 737/1/185 738/2/185 739/3/185 740/4/185
v 0.534000 1.151630 -0.997500
v 0.534000 1.156250 -1.060833
v 0.529445 1.173239 -1.060214
v 0.529445 1.168585 -0.996263
vn 0.965926 0.258133 0.018831
f 741/1/186 742/2/186 743/3/186 744/4/186
v 0.529445 1.168585 -0.996263
v 0.529445 1.173239 -1.060214
v 0.517000 1.185675 -1.059761
v 0.517000 1.180997 -0.995358
vn 0.707107 0.705242 0.051324
f 745/1/187 746/2/187 747/3/187 748/4/187
v 0.517000 1.180997 -0.995358
v 0.517000 1.185675 -1.059761
v 0.500000 1.190227 -1.059596
v 0.500000 1.185540 -0.995026
vn 0.258819 0.963387 0.069988
f 749/1/188 750/2/188 751/3/188 752/4/188
v 0.500000 1.185540 -0.995026
v 0.500000 1.190227 -1.059596
v 0.483000 1.185675 -1.059761
v 0.483000 1.180997 -0.995358
vn -0.258819 0.963390 0.069943
f 753/1/189 754/2/189 755/3/189 756/4/189
v 0.483000 1.180997 -0.995358
v 0.483000 1.185675 -1.059761
v 0.470555 1.173239 -1.060214
v 0.470555 1.168585 -0.996263
vn -0.707107 0.705248 0.051235
f 757/1/190 758/2/190 759/3/190 760/4/190
v 0.470555 1.168585 -0.996263
v 0.470555 1.173239 -1.060214
v 0.466000 1.156250 -1.060833
v 0.466000 1.151630 -0.997500
vn -0.965926 0.258136 0.018786
f 761/1/191 762/2/191 763/3/191 764/4/191
v 0.466000 1.151630 -0.997500
v 0.466000 1.156250 -1.060833
v 0.470555 1.139261 -1.061452
v 0.470555 1.134675 -0.998737
vn -0.965926 -0.258133 -0.018831
f 765/1/192 766/2/192 767/3/192 768/4/192
v 0.470555 1.134675 -0.998737
v 0.470555 1.139261 -1.061452
v 0.483000 1.126825 -1.061905
v 0.483000 1.122263 -0.999642
vn -0.707107 -0.705223 -0.051574
f 769/1/193 770/2/193 771/3/193 772/4/193
v 0.483000 1.122263 -0.999642
v 0.483000 1.126825 -1.061905
v 0.500000 1.122273 -1.062071
v 0.500000 1.117720 -0.999974
vn -0.258819 -0.963344 -0.070580
f 773/1/194 774/2/194 775/3/194 776/4/194
v 0.500000 1.117720 -0.999974
v 0.500000 1.122273 -1.062071
v 0.517000 1.126825 -1.061905
v 0.517000 1.122263 -0.999642
vn 0.258819 -0.963340 -0.070628
f 777/1/195 778/2/195 779/3/195 780/4/195
v 0.517000 1.122263 -0.999642
v 0.517000 1.126825 -1.061905
v 0.529445 1.139261 -1.061452
v 0.529445 1.134675 -0.998737
vn 0.707107 -0.705217 -0.051668
f 781/1/196 782/2/196 783/3/196 784/4/196
v 0.529445 1.134675 -0.998737
v 0.529445 1.139261 -1.061452
v 0.534000 1.156250 -1.060833
v 0.534000 1.151630 -0.997500
vn 0.965926 -0.258130 -0.018877
f 785/1/197 786/2/197 787/3/197 788/4/197
v 0.534000 1.156250 -1.060833
v 0.534000 1.156250 -1.124167
v 0.529445 1.173250 -1.124167
v 0.529445 1.173239 -1.060214
vn 0.965883 0.258979 0.000000
f 789/1/198 790/2/198 791/3/198 792/4/198
v 0.529445 1.173239 -1.060214
v 0.529445 1.173250 -1.124167
v 0.517000 1.185695 -1.124167
v 0.517000 1.185675 -1.059761
vn 0.706875 0.707339 0.000125
f 793/1/199 794/2/199 795/3/199 796/4/199
v 0.517000 1.185675 -1.059761
v 0.517000 1.185695 -1.124167
v 0.500000 1.190250 -1.124167
v 0.500000 1.190227 -1.059596
vn 0.258662 0.965968 0.000293
f 797/1/200 798/2/200 799/3/200 800/4/200
v 0.500000 1.190227 -1.059596
v 0.500000 1.190250 -1.124167
v 0.483000 1.185695 -1.124167
v 0.483000 1.185675 -1.059761
vn -0.258662 0.965968 0.000337
f 801/1/201 802/2/201 803/3/201 804/4/201
v 0.483000 1.185675 -1.059761
v 0.483000 1.185695 -1.124167
v 0.470555 1.173250 -1.124167
v 0.470555 1.173239 -1.060214
vn -0.706876 0.707337 0.000214
f 805/1/202 806/2/202 807/3/202 808/4/202
v 0.470555 1.173239 -1.060214
v 0.470555 1.173250 -1.124167
v 0.466000 1.156250 -1.124167
v 0.466000 1.156250 -1.060833
vn -0.965883 0.258978 0.000046
f 809/1/203 810/2/203 811/3/203 812/4/203
v 0.466000 1.156250 -1.060833
v 0.466000 1.156250 -1.124167
v 0.470555 1.139250 -1.124167
v 0.470555 1.139261 -1.061452
vn -0.965883 -0.258979 -0.000000
f 813/1/204 814/2/204 815/3/204 816/4/204
v 0.470555 1.139261 -1.061452
v 0.470555 1.139250 -1.124167
v 0.483000 1.126805 -1.124167
v 0.483000 1.126825 -1.061905
vn -0.706870 -0.707343 0.000127
f 817/1/205 818/2/205 819/3/205 820/4/205
v 0.483000 1.126825 -1.061905
v 0.483000 1.126805 -1.124167
v 0.500000 1.122250 -1.124167
v 0.500000 1.122273 -1.062071
vn -0.258656 -0.965969 0.000303
f 821/1/206 822/2/206 823/3/206 824/4/206
v 0.500000 1.122273 -1.062071
v 0.500000 1.122250 -1.124167
v 0.517000 1.126805 -1.124167
v 0.517000 1.126825 -1.061905
vn 0.258656 -0.965969 0.000351
f 825/1/207 826/2/207 827/3/207 828/4/207
v 0.517000 1.126825 -1.061905
v 0.517000 1.126805 -1.124167
v 0.529445 1.139250 -1.124167
v 0.529445 1.139261 -1.061452
vn 0.706868 -0.707345 0.000222
f 829/1/208 830/2/208 831/3/208 832/4/208
v 0.529445 1.139261 -1.061452
v 0.529445 1.139250 -1.124167
v 0.534000 1.156250 -1.124167
v 0.534000 1.156250 -1.060833
vn 0.965882 -0.258981 0.000047
f 833/1/209 834/2/209 835/3/209 836/4/209
v 0.534000 1.156250 -1.124167
v 0.534000 1.156250 -1.187500
v 0.529445 1.173250 -1.187500
v 0.529445 1.173250 -1.124167
vn 0.965926 0.258819 0.000000
f 837/1/210 838/2/210 839/3/210 840/4/210
v 0.529445 1.173250 -1.124167
v 0.529445 1.173250 -1.187500
v 0.517000 1.185695 -1.187500
v 0.517000 1.185695 -1.124167
vn 0.707107 0.707107 0.000000
f 841/1/211 842/2/211 843/3/211 844/4/211
v 0.517000 1.185695 -1.124167
v 0.517000 1.185695 -1.187500
v 0.500000 1.190250 -1.187500
v 0.500000 1.190250 -1.124167
vn 0.258819 0.965926 0.000000
f 845/1/212 846/2/212 847/3/212 848/4/212
v 0.500000 1.190250 -1.124167
v 0.500000 1.190250 -1.187500
v 0.483000 1.185695 -1.187500
v 0.483000 1.185695 -1.124167
vn -0.258819 0.965926 0.000000
f 849/1/213 850/2/213 851/3/213 852/4/213
v 0.483000 1.185695 -1.124167
v 0.483000 1.185695 -1.187500
v 0.470555 1.173250 -1.187500
v 0.470555 1.173250 -1.124167
vn -0.707107 0.707107 0.000000
f 853/1/214 854/2/214 855/3/214 856/4/214
v 0.470555 1.173250 -1.124167
v 0.470555 1.173250 -1.187500
v 0.466000 1.156250 -1.187500
v 0.466000 1.156250 -1.124167
vn -0.965926 0.258819 0.000000
f 857/1/215 858/2/215 859/3/215 860/4/215
v 0.466000 1.156250 -1.124167
v 0.466000 1.156250 -1.187500
v 0.470555 1.139250 -1.187500
v 0.470555 1.139250 -1.124167
vn -0.965926 -0.258819 -0.000000
f 861/1/216 862/2/216 863/3/216 864/4/216
v 0.470555 1.139250 -1.124167
v 0.470555 1.139250 -1.187500
v 0.483000 1.126805 -1.187500
v 0.483000 1.126805 -1.124167
vn -0.707107 -0.707107 -0.000000
f 865/1/217 866/2/217 867/3/217 868/4/217
v 0.483000 1.126805 -1.124167
v 0.483000 1.126805 -1.187500
v 0.500000 1.122250 -1.187500
v 0.500000 1.122250 -1.124167
vn -0.258819 -0.965926 -0.000000
f 869/1/218 870/2/218 871/3/218 872/4/218
v 0.500000 1.122250 -1.124167
v 0.500000 1.122250 -1.187500
v 0.517000 1.126805 -1.187500
v 0.517000 1.126805 -1.124167
vn 0.258819 -0.965926 0.000000
f 873/1/219 874/2/219 875/3/219 876/4/219
v 0.517000 1.126805 -1.124167
v 0.517000 1.126805 -1.187500
v 0.529445 1.139250 -1.187500
v 0.529445 1.139250 -1.124167
vn 0.707107 -0.707107 0.000000
f 877/1/220 878/2/220 879/3/220 880/4/220
v 0.529445 1.139250 -1.124167
v 0.529445 1.139250 -1.187500
v 0.534000 1.156250 -1.187500
v 0.534000 1.156250 -1.124167
vn 0.965926 -0.258819 0.000000
f 881/1/221 882/2/221 883/3/221 884/4/221
v 0.534000 1.156250 -1.187500
v 0.500000 1.190250 -1.187500
v 0.517000 1.185695 -1.187500
v 0.529445 1.173250 -1.187500
vn 0.000000 0.000000 -1.000000
f 885/1/222 886/2/222 887/3/222 888/4/222
v 0.534000 1.156250 -1.187500
v 0.470555 1.173250 -1.187500
v 0.483000 1.185695 -1.187500
v 0.500000 1.190250 -1.187500
vn 0.000000 0.000000 -1.000000
f 889/1/223 890/2/223 891/3/223 892/4/223
v 0.534000 1.156250 -1.187500
v 0.470555 1.139250 -1.187500
v 0.466000 1.156250 -1.187500
v 0.470555 1.173250 -1.187500
vn -0.000000 0.000000 -1.000000
f 893/1/224 894/2/224 895/3/224 896/4/224
v 0.534000 1.156250 -1.187500
v 0.500000 1.122250 -1.187500
v 0.483000 1.126805 -1.187500
v 0.470555 1.139250 -1.187500
vn 0.000000 0.000000 -1.000000
f 897/1/225 898/2/225 899/3/225 900/4/225
v 0.534000 1.156250 -1.187500
v 0.529445 1.139250 -1.187500
v 0.517000 1.126805 -1.187500
v 0.500000 1.122250 -1.187500
vn 0.000000 0.000000 -1.000000
f 901/1/226 902/2/226 903/3/226 904/4/226
v 0.522000 0.125000 0.890000
v 0.522000 0.709962 -0.100000
v 0.515556 0.723355 -0.092086
v 0.515556 0.138393 0.897914
vn 0.923880 0.329468 0.194673
f 905/1/227 906/2/227 907/3/227 908/4/227
v 0.515556 0.138393 0.897914
v 0.515556 0.723355 -0.092086
v 0.500000 0.728903 -0.088808
v 0.500000 0.143941 0.901192
vn 0.382683 0.795406 0.469982
f 909/1/228 910/2/228 911/3/228 912/4/228
v 0.500000 0.143941 0.901192
v 0.500000 0.728903 -0.088808
v 0.484444 0.723355 -0.092086
v 0.484444 0.138393 0.897914
vn -0.382683 0.795406 0.469982
f 913/1/229 914/2/229 915/3/229 916/4/229
v 0.484444 0.138393 0.897914
v 0.484444 0.723355 -0.092086
v 0.478000 0.709962 -0.100000
v 0.478000 0.125000 0.890000
vn -0.923880 0.329468 0.194673
f 917/1/230 918/2/230 919/3/230 920/4/230
v 0.478000 0.125000 0.890000
v 0.478000 0.709962 -0.100000
v 0.484444 0.696569 -0.107914
v 0.484444 0.111607 0.882086
vn -0.923880 -0.329468 -0.194673
f 921/1/231 922/2/231 923/3/231 924/4/231
v 0.484444 0.111607 0.882086
v 0.484444 0.696569 -0.107914
v 0.500000 0.691021 -0.111192
v 0.500000 0.106059 0.878808
vn -0.382683 -0.795406 -0.469982
f 925/1/232 926/2/232 927/3/232 928/4/232
v 0.500000 0.106059 0.878808
v 0.500000 0.691021 -0.111192
v 0.515556 0.696569 -0.107914
v 0.515556 0.111607 0.882086
vn 0.382683 -0.795406 -0.469982
f 929/1/233 930/2/233 931/3/233 932/4/233
v 0.515556 0.111607 0.882086
v 0.515556 0.696569 -0.107914
v 0.522000 0.709962 -0.100000
v 0.522000 0.125000 0.890000
vn 0.923880 -0.329468 -0.194673
f 933/1/234 934/2/234 935/3/234 936/4/234
v 0.522000 0.709962 -0.100000
v 0.484444 0.723355 -0.092086
v 0.500000 0.728903 -0.088808
v 0.515556 0.723355 -0.092086
vn 0.000000 0.508705 -0.860941
f 937/1/235 938/2/235 939/3/235 940/4/235
v 0.522000 0.709962 -0.100000
v 0.484444 0.696569 -0.107914
v 0.478000 0.709962 -0.100000
v 0.484444 0.723355 -0.092086
vn 0.000000 0.508705 -0.860941
f 941/1/236 942/2/236 943/3/236 944/4/236
v 0.522000 0.709962 -0.100000
v 0.515556 0.696569 -0.107914
v 0.500000 0.691021 -0.111192
v 0.484444 0.696569 -0.107914
vn 0.000000 0.508705 -0.860941
f 945/1/237 946/2/237 947/3/237 948/4/237
usemtl clamp
v 0.468750 0.750000 0.900000
v 0.531250 0.750000 0.900000
v 0.531250 0.812500 0.900000
v 0.468750 0.812500 0.900000
vn 0.000000 0.000000 1.000000
f 949/1/238 950/2/238 951/3/238 952/4/238
v 0.531250 0.750000 0.812500
v 0.468750 0.750000 0.812500
v 0.468750 0.812500 0.812500
v 0.531250 0.812500 0.812500
vn 0.000000 0.000000 -1.000000
f 953/1/239 954/2/239 955/3/239 956/4/239
v 0.531250 0.750000 0.900000
v 0.531250 0.750000 0.812500
v 0.531250 0.812500 0.812500
v 0.531250 0.812500 0.900000
vn 1.000000 -0.000000 0.000000
f 957/1/240 958/2/240 959/3/240 960/4/240
v 0.468750 0.750000 0.812500
v 0.468750 0.750000 0.900000
v 0.468750 0.812500 0.900000
v 0.468750 0.812500 0.812500
vn -1.000000 0.000000 0.000000
f 961/1/241 962/2/241 963/3/241 964/4/241
v 0.468750 0.812500 0.900000
v 0.531250 0.812500 0.900000
v 0.531250 0.812500 0.812500
v 0.468750 0.812500 0.812500
vn -0.000000 1.000000 0.000000
f 965/1/242 966/2/242 967/3/242 968/4/242
v 0.468750 0.750000 0.812500
v 0.531250 0.750000 0.812500
v 0.531250 0.750000 0.900000
v 0.468750 0.750000 0.900000
vn 0.000000 -1.000000 0.000000
f 969/1/243 970/2/243 971/3/243 972/4/243
usemtl porcelain
v 0.437500 0.812500 0.875000
v 0.562500 0.812500 0.875000
v 0.562500 0.937500 0.875000
v 0.437500 0.937500 0.875000
vn 0.000000 0.000000 1.000000
f 973/1/244 974/2/244 975/3/244 976/4/244
v 0.562500 0.812500 0.750000
v 0.437500 0.812500 0.750000
v 0.437500 0.937500 0.750000
v 0.562500 0.937500 0.750000
vn 0.000000 0.000000 -1.000000
f 977/1/245 978/2/245 979/3/245 980/4/245
v 0.562500 0.812500 0.875000
v 0.562500 0.812500 0.750000
v 0.562500 0.937500 0.750000
v 0.562500 0.937500 0.875000
vn 1.000000 -0.000000 0.000000
f 981/1/246 982/2/246 983/3/246 984/4/246
v 0.437500 0.812500 0.750000
v 0.437500 0.812500 0.875000
v 0.437500 0.937500 0.875000
v 0.437500 0.937500 0.750000
vn -1.000000 0.000000 0.000000
f 985/1/247 986/2/247 987/3/247 988/4/247
v 0.437500 0.937500 0.875000
v 0.562500 0.937500 0.875000
v 0.562500 0.937500 0.750000
v 0.437500 0.937500 0.750000
vn -0.000000 1.000000 0.000000
f 989/1/248 990/2/248 991/3/248 992/4/248
v 0.437500 0.812500 0.750000
v 0.562500 0.812500 0.750000
v 0.562500 0.812500 0.875000
v 0.437500 0.812500 0.875000
vn 0.000000 -1.000000 0.000000
f 993/1/249 994/2/249 995/3/249 996/4/249
usemtl cable
v 0.500000 0.873457 0.766930
v 0.500000 0.511305 0.733810
v 0.514722 0.513085 0.725499
v 0.514722 0.874229 0.758465
vn 0.500000 -0.078870 0.862427
f 997/1/250 998/2/250 999/3/250 1000/4/250
v 0.514722 0.874229 0.758465
v 0.514722 0.513085 0.725499
v 0.514722 0.516646 0.708876
v 0.514722 0.875771 0.741535
vn 1.000000 0.000000 0.000000
f 1001/1/251 1002/2/251 1003/3/251 1004/4/251
v 0.514722 0.875771 0.741535
v 0.514722 0.516646 0.708876
v 0.500000 0.518426 0.700565
v 0.500000 0.876543 0.733070
vn 0.500000 0.078433 -0.862466
f 1005/1/252 1006/2/252 1007/3/252 1008/4/252
v 0.500000 0.876543 0.733070
v 0.500000 0.518426 0.700565
v 0.485278 0.516646 0.708876
v 0.485278 0.875771 0.741535
vn -0.500000 0.078286 -0.862480
f 1009/1/253 1010/2/253 1011/3/253 1012/4/253
v 0.485278 0.875771 0.741535
v 0.485278 0.516646 0.708876
v 0.485278 0.513085 0.725499
v 0.485278 0.874229 0.758465
vn -1.000000 -0.000000 0.000000
f 1013/1/254 1014/2/254 1015/3/254 1016/4/254
v 0.485278 0.874229 0.758465
v 0.485278 0.513085 0.725499
v 0.500000 0.511305 0.733810
v 0.500000 0.873457 0.766930
vn -0.500000 -0.078725 0.862440
f 1017/1/255 1018/2/255 1019/3/255 1020/4/255
v 0.500000 0.511305 0.733810
v 0.500000 0.267995 0.650279
v 0.514722 0.270997 0.642327
v 0.514722 0.513085 0.725499
vn 0.497310 -0.281709 0.820563
f 1021/1/256 1022/2/256 1023/3/256 1024/4/256
v 0.514722 0.513085 0.725499
v 0.514722 0.270997 0.642327
v 0.514722 0.277002 0.626423
v 0.514722 0.516646 0.708876
vn 1.000000 0.000000 0.000000
f 1025/1/257 1026/2/257 1027/3/257 1028/4/257
v 0.514722 0.516646 0.708876
v 0.514722 0.277002 0.626423
v 0.500000 0.280004 0.618471
v 0.500000 0.518426 0.700565
vn 0.497279 0.282267 -0.820389
f 1029/1/258 1030/2/258 1031/3/258 1032/4/258
v 0.500000 0.518426 0.700565
v 0.500000 0.280004 0.618471
v 0.485278 0.277002 0.626423
v 0.485278 0.516646 0.708876
vn -0.497269 0.282457 -0.820330
f 1033/1/259 1034/2/259 1035/3/259 1036/4/259
v 0.485278 0.516646 0.708876
v 0.485278 0.277002 0.626423
v 0.485278 0.270997 0.642327
v 0.485278 0.513085 0.725499
vn -1.000000 -0.000000 0.000000
f 1037/1/260 1038/2/260 1039/3/260 1040/4/260
v 0.485278 0.513085 0.725499
v 0.485278 0.270997 0.642327
v 0.500000 0.267995 0.650279
v 0.500000 0.511305 0.733810
vn -0.497300 -0.281893 0.820506
f 1041/1/261 1042/2/261 1043/3/261 1044/4/261
v 0.500000 0.267995 0.650279
v 0.500000 0.065870 0.566981
v 0.514722 0.069451 0.559272
v 0.514722 0.270997 0.642327
vn 0.499832 -0.330015 0.800785
f 1045/1/262 1046/2/262 1047/3/262 1048/4/262
v 0.514722 0.270997 0.642327
v 0.514722 0.069451 0.559272
v 0.514722 0.076612 0.543853
v 0.514722 0.277002 0.626423
vn 1.000000 0.000000 0.000000
f 1049/1/263 1050/2/263 1051/3/263 1052/4/263
v 0.514722 0.277002 0.626423
v 0.514722 0.076612 0.543853
v 0.500000 0.080192 0.536144
v 0.500000 0.280004 0.618471
vn 0.499833 0.329967 -0.800805
f 1053/1/264 1054/2/264 1055/3/264 1056/4/264
v 0.500000 0.280004 0.618471
v 0.500000 0.080192 0.536144
v 0.485278 0.076612 0.543853
v 0.485278 0.277002 0.626423
vn -0.499833 0.329950 -0.800812
f 1057/1/265 1058/2/265 1059/3/265 1060/4/265
v 0.485278 0.277002 0.626423
v 0.485278 0.076612 0.543853
v 0.485278 0.069451 0.559272
v 0.485278 0.270997 0.642327
vn -1.000000 -0.000000 0.000000
f 1061/1/266 1062/2/266 1063/3/266 1064/4/266
v 0.485278 0.270997 0.642327
v 0.485278 0.069451 0.559272
v 0.500000 0.065870 0.566981
v 0.500000 0.267995 0.650279
vn -0.499833 -0.329999 0.800792
f 1065/1/267 1066/2/267 1067/3/267 1068/4/267
v 0.500000 0.065870 0.566981
v 0.517000 -0.086535 0.468750
v 0.508500 -0.076113 0.458352
v 0.514722 0.069451 0.559272
vn 0.498683 -0.429601 0.752833
f 1069/1/268 1070/2/268 1071/3/268 1072/4/268
v 0.514722 0.069451 0.559272
v 0.508500 -0.076113 0.458352
v 0.491500 -0.076113 0.458352
v 0.514722 0.076612 0.543853
vn 0.999365 -0.032315 -0.015008
f 1073/1/269 1074/2/269 1075/3/269 1076/4/269
v 0.514722 0.076612 0.543853
v 0.491500 -0.076113 0.458352
v 0.483000 -0.086535 0.468750
v 0.500000 0.080192 0.536144
vn 0.500000 0.363923 -0.785850
f 1077/1/270 1078/2/270 1079/3/270 1080/4/270
v 0.500000 0.080192 0.536144
v 0.483000 -0.086535 0.468750
v 0.491500 -0.096958 0.479148
v 0.485278 0.076612 0.543853
vn -0.499997 0.367889 -0.784003
f 1081/1/271 1082/2/271 1083/3/271 1084/4/271
v 0.485278 0.076612 0.543853
v 0.491500 -0.096958 0.479148
v 0.508500 -0.096958 0.479148
v 0.485278 0.069451 0.559272
vn -0.999433 -0.030542 -0.014185
f 1085/1/272 1086/2/272 1087/3/272 1088/4/272
v 0.485278 0.069451 0.559272
v 0.508500 -0.096958 0.479148
v 0.517000 -0.086535 0.468750
v 0.500000 0.065870 0.566981
vn -0.498602 -0.431549 0.751773
f 1089/1/273 1090/2/273 1091/3/273 1092/4/273
v 0.517000 -0.086535 0.468750
v 0.517000 -0.129263 0.385938
v 0.508500 -0.115027 0.382185
v 0.508500 -0.076113 0.458352
vn 0.855283 0.460482 -0.237587
f 1093/1/274 1094/2/274 1095/3/274 1096/4/274
v 0.508500 -0.076113 0.458352
v 0.508500 -0.115027 0.382185
v 0.491500 -0.115027 0.382185
v 0.491500 -0.076113 0.458352
vn 0.000000 0.890511 -0.454962
f 1097/1/275 1098/2/275 1099/3/275 1100/4/275
v 0.491500 -0.076113 0.458352
v 0.491500 -0.115027 0.382185
v 0.483000 -0.129263 0.385938
v 0.483000 -0.086535 0.468750
vn -0.854988 0.461861 -0.235965
f 1101/1/276 1102/2/276 1103/3/276 1104/4/276
v 0.483000 -0.086535 0.468750
v 0.483000 -0.129263 0.385938
v 0.491500 -0.143499 0.389690
v 0.491500 -0.096958 0.479148
vn -0.855283 -0.460482 0.237587
f 1105/1/277 1106/2/277 1107/3/277 1108/4/277
v 0.491500 -0.096958 0.479148
v 0.491500 -0.143499 0.389690
v 0.508500 -0.143499 0.389690
v 0.508500 -0.096958 0.479148
vn -0.000000 -0.887125 0.461530
f 1109/1/278 1110/2/278 1111/3/278 1112/4/278
v 0.508500 -0.096958 0.479148
v 0.508500 -0.143499 0.389690
v 0.517000 -0.129263 0.385938
v 0.517000 -0.086535 0.468750
vn 0.855529 -0.459314 0.238960
f 1113/1/279 1114/2/279 1115/3/279 1116/4/279
v 0.517000 -0.129263 0.385938
v 0.517000 -0.132508 0.303125
v 0.508500 -0.117786 0.303183
v 0.508500 -0.115027 0.382185
vn 0.860733 0.508666 -0.019936
f 1117/1/280 1118/2/280 1119/3/280 1120/4/280
v 0.508500 -0.115027 0.382185
v 0.508500 -0.117786 0.303183
v 0.491500 -0.117786 0.303183
v 0.491500 -0.115027 0.382185
vn 0.000000 0.999391 -0.034907
f 1121/1/281 1122/2/281 1123/3/281 1124/4/281
v 0.491500 -0.115027 0.382185
v 0.491500 -0.117786 0.303183
v 0.483000 -0.132508 0.303125
v 0.483000 -0.129263 0.385938
vn -0.860520 0.509106 -0.017782
f 1125/1/282 1126/2/282 1127/3/282 1128/4/282
v 0.483000 -0.129263 0.385938
v 0.483000 -0.132508 0.303125
v 0.491500 -0.147231 0.303067
v 0.491500 -0.143499 0.389690
vn -0.860733 -0.508666 0.019936
f 1129/1/283 1130/2/283 1131/3/283 1132/4/283
v 0.491500 -0.143499 0.389690
v 0.491500 -0.147231 0.303067
v 0.508500 -0.147231 0.303067
v 0.508500 -0.143499 0.389690
vn 0.000000 -0.999073 0.043041
f 1133/1/284 1134/2/284 1135/3/284 1136/4/284
v 0.508500 -0.143499 0.389690
v 0.508500 -0.147231 0.303067
v 0.517000 -0.132508 0.303125
v 0.517000 -0.129263 0.385938
vn 0.860924 -0.508263 0.021896
f 1137/1/285 1138/2/285 1139/3/285 1140/4/285
v 0.517000 -0.132508 0.303125
v 0.517000 -0.128605 0.220313
v 0.508500 -0.113897 0.220974
v 0.508500 -0.117786 0.303183
vn 0.865824 0.499794 0.023558
f 1141/1/286 1142/2/286 1143/3/286 1144/4/286
v 0.508500 -0.117786 0.303183
v 0.508500 -0.113897 0.220974
v 0.491500 -0.113897 0.220974
v 0.491500 -0.117786 0.303183
vn 0.000000 0.998883 0.047249
f 1145/1/287 1146/2/287 1147/3/287 1148/4/287
v 0.491500 -0.117786 0.303183
v 0.491500 -0.113897 0.220974
v 0.483000 -0.128605 0.220313
v 0.483000 -0.132508 0.303125
vn -0.865822 0.499793 0.023641
f 1149/1/288 1150/2/288 1151/3/288 1152/4/288
v 0.483000 -0.132508 0.303125
v 0.483000 -0.128605 0.220313
v 0.491500 -0.143312 0.219651
v 0.491500 -0.147231 0.303067
vn -0.865824 -0.499794 -0.023558
f 1153/1/289 1154/2/289 1155/3/289 1156/4/289
v 0.491500 -0.147231 0.303067
v 0.491500 -0.143312 0.219651
v 0.508500 -0.143312 0.219651
v 0.508500 -0.147231 0.303067
vn -0.000000 -0.998899 -0.046920
f 1157/1/290 1158/2/290 1159/3/290 1160/4/290
v 0.508500 -0.147231 0.303067
v 0.508500 -0.143312 0.219651
v 0.517000 -0.128605 0.220313
v 0.517000 -0.132508 0.303125
vn 0.865825 -0.499795 -0.023476
f 1161/1/291 1162/2/291 1163/3/291 1164/4/291
v 0.517000 -0.128605 0.220313
v 0.517000 -0.125059 0.137500
v 0.508500 -0.110337 0.137565
v 0.508500 -0.113897 0.220974
vn 0.866025 0.499543 0.021387
f 1165/1/292 1166/2/292 1167/3/292 1168/4/292
v 0.508500 -0.113897 0.220974
v 0.508500 -0.110337 0.137565
v 0.491500 -0.110337 0.137565
v 0.491500 -0.113897 0.220974
vn 0.000000 0.999090 0.042645
f 1169/1/293 1170/2/293 1171/3/293 1172/4/293
v 0.491500 -0.113897 0.220974
v 0.491500 -0.110337 0.137565
v 0.483000 -0.125059 0.137500
v 0.483000 -0.128605 0.220313
vn -0.866025 0.499546 0.021323
f 1173/1/294 1174/2/294 1175/3/294 1176/4/294
v 0.483000 -0.128605 0.220313
v 0.483000 -0.125059 0.137500
v 0.491500 -0.139782 0.137435
v 0.491500 -0.143312 0.219651
vn -0.866025 -0.499543 -0.021387
f 1177/1/295 1178/2/295 1179/3/295 1180/4/295
v 0.491500 -0.143312 0.219651
v 0.491500 -0.139782 0.137435
v 0.508500 -0.139782 0.137435
v 0.508500 -0.143312 0.219651
vn 0.000000 -0.999079 -0.042906
f 1181/1/296 1182/2/296 1183/3/296 1184/4/296
v 0.508500 -0.143312 0.219651
v 0.508500 -0.139782 0.137435
v 0.517000 -0.125059 0.137500
v 0.517000 -0.128605 0.220313
vn 0.866025 -0.499540 -0.021453
f 1185/1/297 1186/2/297 1187/3/297 1188/4/297
v 0.517000 -0.125059 0.137500
v 0.517000 -0.127875 0.054688
v 0.508500 -0.113191 0.053629
v 0.508500 -0.110337 0.137565
vn 0.865866 0.499987 -0.017001
f 1189/1/298 1190/2/298 1191/3/298 1192/4/298
v 0.508500 -0.110337 0.137565
v 0.508500 -0.113191 0.053629
v 0.491500 -0.113191 0.053629
v 0.491500 -0.110337 0.137565
vn 0.000000 0.999423 -0.033980
f 1193/1/299 1194/2/299 1195/3/299 1196/4/299
v 0.491500 -0.110337 0.137565
v 0.491500 -0.113191 0.053629
v 0.483000 -0.127875 0.054688
v 0.483000 -0.125059 0.137500
vn -0.865866 0.499987 -0.016999
f 1197/1/300 1198/2/300 1199/3/300 1200/4/300
v 0.483000 -0.125059 0.137500
v 0.483000 -0.127875 0.054688
v 0.491500 -0.142559 0.055746
v 0.491500 -0.139782 0.137435
vn -0.865866 -0.499987 0.017001
f 1201/1/301 1202/2/301 1203/3/301 1204/4/301
v 0.491500 -0.139782 0.137435
v 0.491500 -0.142559 0.055746
v 0.508500 -0.142559 0.055746
v 0.508500 -0.139782 0.137435
vn -0.000000 -0.999422 0.033985
f 1205/1/302 1206/2/302 1207/3/302 1208/4/302
v 0.508500 -0.139782 0.137435
v 0.508500 -0.142559 0.055746
v 0.517000 -0.127875 0.054688
v 0.517000 -0.125059 0.137500
vn 0.865866 -0.499987 0.017002
f 1209/1/303 1210/2/303 1211/3/303 1212/4/303
v 0.517000 -0.127875 0.054688
v 0.517000 -0.137020 -0.028125
v 0.508500 -0.122365 -0.026721
v 0.508500 -0.113191 0.053629
vn 0.865869 0.497248 -0.054909
f 1213/1/304 1214/2/304 1215/3/304 1216/4/304
v 0.508500 -0.113191 0.053629
v 0.508500 -0.122365 -0.026721
v 0.491500 -0.122365 -0.026721
v 0.491500 -0.113191 0.053629
vn 0.000000 0.993545 -0.113436
f 1217/1/305 1218/2/305 1219/3/305 1220/4/305
v 0.491500 -0.113191 0.053629
v 0.491500 -0.122365 -0.026721
v 0.483000 -0.137020 -0.028125
v 0.483000 -0.127875 0.054688
vn -0.865837 0.497097 -0.056755
f 1221/1/306 1222/2/306 1223/3/306 1224/4/306
v 0.483000 -0.127875 0.054688
v 0.483000 -0.137020 -0.028125
v 0.491500 -0.151675 -0.029529
v 0.491500 -0.142559 0.055746
vn -0.865869 -0.497248 0.054909
f 1225/1/307 1226/2/307 1227/3/307 1228/4/307
v 0.491500 -0.142559 0.055746
v 0.491500 -0.151675 -0.029529
v 0.508500 -0.151675 -0.029529
v 0.508500 -0.142559 0.055746
vn 0.000000 -0.994335 0.106291
f 1229/1/308 1230/2/308 1231/3/308 1232/4/308
v 0.508500 -0.142559 0.055746
v 0.508500 -0.151675 -0.029529
v 0.517000 -0.137020 -0.028125
v 0.517000 -0.127875 0.054688
vn 0.865896 -0.497390 0.053169
f 1233/1/309 1234/2/309 1235/3/309 1236/4/309
v 0.517000 -0.137020 -0.028125
v 0.517000 -0.111307 -0.110938
v 0.508500 -0.097456 -0.105948
v 0.508500 -0.122365 -0.026721
vn 0.861359 0.485148 0.150637
f 1237/1/310 1238/2/310 1239/3/310 1240/4/310
v 0.508500 -0.122365 -0.026721
v 0.508500 -0.097456 -0.105948
v 0.491500 -0.097456 -0.105948
v 0.491500 -0.122365 -0.026721
vn 0.000000 0.953963 0.299924
f 1241/1/311 1242/2/311 1243/3/311 1244/4/311
v 0.491500 -0.122365 -0.026721
v 0.491500 -0.097456 -0.105948
v 0.483000 -0.111307 -0.110938
v 0.483000 -0.137020 -0.028125
vn -0.861193 0.484879 0.152445
f 1245/1/312 1246/2/312 1247/3/312 1248/4/312
v 0.483000 -0.137020 -0.028125
v 0.483000 -0.111307 -0.110938
v 0.491500 -0.125158 -0.115927
v 0.491500 -0.151675 -0.029529
vn -0.861359 -0.485148 -0.150637
f 1249/1/313 1250/2/313 1251/3/313 1252/4/313
v 0.491500 -0.151675 -0.029529
v 0.491500 -0.125158 -0.115927
v 0.508500 -0.125158 -0.115927
v 0.508500 -0.151675 -0.029529
vn 0.000000 -0.955986 -0.293412
f 1253/1/314 1254/2/314 1255/3/314 1256/4/314
v 0.508500 -0.151675 -0.029529
v 0.508500 -0.125158 -0.115927
v 0.517000 -0.111307 -0.110938
v 0.517000 -0.137020 -0.028125
vn 0.861509 -0.485395 -0.148978
f 1257/1/315 1258/2/315 1259/3/315 1260/4/315
v 0.517000 -0.111307 -0.110938
v 0.517000 -0.077223 -0.193750
v 0.508500 -0.063853 -0.187586
v 0.508500 -0.097456 -0.105948
vn 0.865809 0.462716 0.190443
f 1261/1/316 1262/2/316 1263/3/316 1264/4/316
v 0.508500 -0.097456 -0.105948
v 0.508500 -0.063853 -0.187586
v 0.491500 -0.063853 -0.187586
v 0.491500 -0.097456 -0.105948
vn 0.000000 0.924731 0.380622
f 1265/1/317 1266/2/317 1267/3/317 1268/4/317
v 0.491500 -0.097456 -0.105948
v 0.491500 -0.063853 -0.187586
v 0.483000 -0.077223 -0.193750
v 0.483000 -0.111307 -0.110938
vn -0.865809 0.462712 0.190454
f 1269/1/318 1270/2/318 1271/3/318 1272/4/318
v 0.483000 -0.111307 -0.110938
v 0.483000 -0.077223 -0.193750
v 0.491500 -0.090593 -0.199914
v 0.491500 -0.125158 -0.115927
vn -0.865809 -0.462716 -0.190443
f 1273/1/319 1274/2/319 1275/3/319 1276/4/319
v 0.491500 -0.125158 -0.115927
v 0.491500 -0.090593 -0.199914
v 0.508500 -0.090593 -0.199914
v 0.508500 -0.125158 -0.115927
vn 0.000000 -0.924748 -0.380581
f 1277/1/320 1278/2/320 1279/3/320 1280/4/320
v 0.508500 -0.125158 -0.115927
v 0.508500 -0.090593 -0.199914
v 0.517000 -0.077223 -0.193750
v 0.517000 -0.111307 -0.110938
vn 0.865809 -0.462720 -0.190433
f 1281/1/321 1282/2/321 1283/3/321 1284/4/321
v 0.517000 -0.077223 -0.193750
v 0.517000 -0.034784 -0.276563
v 0.508500 -0.021949 -0.269350
v 0.508500 -0.063853 -0.187586
vn 0.865838 0.445260 0.228184
f 1285/1/322 1286/2/322 1287/3/322 1288/4/322
v 0.508500 -0.063853 -0.187586
v 0.508500 -0.021949 -0.269350
v 0.491500 -0.021949 -0.269350
v 0.491500 -0.063853 -0.187586
vn 0.000000 0.889933 0.456091
f 1289/1/323 1290/2/323 1291/3/323 1292/4/323
v 0.491500 -0.063853 -0.187586
v 0.491500 -0.021949 -0.269350
v 0.483000 -0.034784 -0.276563
v 0.483000 -0.077223 -0.193750
vn -0.865838 0.445255 0.228193
f 1293/1/324 1294/2/324 1295/3/324 1296/4/324
v 0.483000 -0.077223 -0.193750
v 0.483000 -0.034784 -0.276563
v 0.491500 -0.047619 -0.283775
v 0.491500 -0.090593 -0.199914
vn -0.865838 -0.445260 -0.228184
f 1297/1/325 1298/2/325 1299/3/325 1300/4/325
v 0.491500 -0.090593 -0.199914
v 0.491500 -0.047619 -0.283775
v 0.508500 -0.047619 -0.283775
v 0.508500 -0.090593 -0.199914
vn 0.000000 -0.889952 -0.456055
f 1301/1/326 1302/2/326 1303/3/326 1304/4/326
v 0.508500 -0.090593 -0.199914
v 0.508500 -0.047619 -0.283775
v 0.517000 -0.034784 -0.276563
v 0.517000 -0.077223 -0.193750
vn 0.865838 -0.445264 -0.228175
f 1305/1/327 1306/2/327 1307/3/327 1308/4/327
v 0.517000 -0.034784 -0.276563
v 0.517000 0.016026 -0.359375
v 0.508500 0.028295 -0.351238
v 0.508500 -0.021949 -0.269350
vn 0.865866 0.426413 0.261627
f 1309/1/328 1310/2/328 1311/3/328 1312/4/328
v 0.508500 -0.021949 -0.269350
v 0.508500 0.028295 -0.351238
v 0.491500 0.028295 -0.351238
v 0.491500 -0.021949 -0.269350
vn 0.000000 0.852345 0.522980
f 1313/1/329 1314/2/329 1315/3/329 1316/4/329
v 0.491500 -0.021949 -0.269350
v 0.491500 0.028295 -0.351238
v 0.483000 0.016026 -0.359375
v 0.483000 -0.034784 -0.276563
vn -0.865866 0.426408 0.261634
f 1317/1/330 1318/2/330 1319/3/330 1320/4/330
v 0.483000 -0.034784 -0.276563
v 0.483000 0.016026 -0.359375
v 0.491500 0.003757 -0.367512
v 0.491500 -0.047619 -0.283775
vn -0.865866 -0.426413 -0.261627
f 1321/1/331 1322/2/331 1323/3/331 1324/4/331
v 0.491500 -0.047619 -0.283775
v 0.491500 0.003757 -0.367512
v 0.508500 0.003757 -0.367512
v 0.508500 -0.047619 -0.283775
vn -0.000000 -0.852363 -0.522950
f 1325/1/332 1326/2/332 1327/3/332 1328/4/332
v 0.508500 -0.047619 -0.283775
v 0.508500 0.003757 -0.367512
v 0.517000 0.016026 -0.359375
v 0.517000 -0.034784 -0.276563
vn 0.865866 -0.426417 -0.261619
f 1329/1/333 1330/2/333 1331/3/333 1332/4/333
v 0.517000 0.016026 -0.359375
v 0.517000 0.075256 -0.442187
v 0.508500 0.086947 -0.433239
v 0.508500 0.028295 -0.351238
vn 0.865891 0.406875 0.291009
f 1333/1/334 1334/2/334 1335/3/334 1336/4/334
v 0.508500 0.028295 -0.351238
v 0.508500 0.086947 -0.433239
v 0.491500 0.086947 -0.433239
v 0.491500 0.028295 -0.351238
vn 0.000000 0.813362 0.581758
f 1337/1/335 1338/2/335 1339/3/335 1340/4/335
v 0.491500 0.028295 -0.351238
v 0.491500 0.086947 -0.433239
v 0.483000 0.075256 -0.442187
v 0.483000 0.016026 -0.359375
vn -0.865891 0.406871 0.291015
f 1341/1/336 1342/2/336 1343/3/336 1344/4/336
v 0.483000 0.016026 -0.359375
v 0.483000 0.075256 -0.442187
v 0.491500 0.063565 -0.451136
v 0.491500 0.003757 -0.367512
vn -0.865891 -0.406875 -0.291009
f 1345/1/337 1346/2/337 1347/3/337 1348/4/337
v 0.491500 0.003757 -0.367512
v 0.491500 0.063565 -0.451136
v 0.508500 0.063565 -0.451136
v 0.508500 0.003757 -0.367512
vn -0.000000 -0.813378 -0.581735
f 1349/1/338 1350/2/338 1351/3/338 1352/4/338
v 0.508500 0.003757 -0.367512
v 0.508500 0.063565 -0.451136
v 0.517000 0.075256 -0.442187
v 0.517000 0.016026 -0.359375
vn 0.865891 -0.406879 -0.291003
f 1353/1/339 1354/2/339 1355/3/339 1356/4/339
v 0.517000 0.075256 -0.442187
v 0.517000 0.143005 -0.525000
v 0.508500 0.154116 -0.515342
v 0.508500 0.086947 -0.433239
vn 0.865912 0.387147 0.316724
f 1357/1/340 1358/2/340 1359/3/340 1360/4/340
v 0.508500 0.086947 -0.433239
v 0.508500 0.154116 -0.515342
v 0.491500 0.154116 -0.515342
v 0.491500 0.086947 -0.433239
vn 0.000000 0.773983 0.633206
f 1361/1/341 1362/2/341 1363/3/341 1364/4/341
v 0.491500 0.086947 -0.433239
v 0.491500 0.154116 -0.515342
v 0.483000 0.143005 -0.525000
v 0.483000 0.075256 -0.442187
vn -0.865912 0.387144 0.316728
f 1365/1/342 1366/2/342 1367/3/342 1368/4/342
v 0.483000 0.075256 -0.442187
v 0.483000 0.143005 -0.525000
v 0.491500 0.131893 -0.534658
v 0.491500 0.063565 -0.451136
vn -0.865912 -0.387147 -0.316724
f 1369/1/343 1370/2/343 1371/3/343 1372/4/343
v 0.491500 0.063565 -0.451136
v 0.491500 0.131893 -0.534658
v 0.508500 0.131893 -0.534658
v 0.508500 0.063565 -0.451136
vn -0.000000 -0.773997 -0.633189
f 1373/1/344 1374/2/344 1375/3/344 1376/4/344
v 0.508500 0.063565 -0.451136
v 0.508500 0.131893 -0.534658
v 0.517000 0.143005 -0.525000
v 0.517000 0.075256 -0.442187
vn 0.865912 -0.387151 -0.316719
f 1377/1/345 1378/2/345 1379/3/345 1380/4/345
v 0.517000 0.143005 -0.525000
v 0.517000 0.219448 -0.607813
v 0.508500 0.229984 -0.597530
v 0.508500 0.154116 -0.515342
vn 0.865929 0.367523 0.339255
f 1381/1/346 1382/2/346 1383/3/346 1384/4/346
v 0.508500 0.154116 -0.515342
v 0.508500 0.229984 -0.597530
v 0.491500 0.229984 -0.597530
v 0.491500 0.154116 -0.515342
vn 0.000000 0.734795 0.678289
f 1385/1/347 1386/2/347 1387/3/347 1388/4/347
v 0.491500 0.154116 -0.515342
v 0.491500 0.229984 -0.597530
v 0.483000 0.219448 -0.607813
v 0.483000 0.143005 -0.525000
vn -0.865929 0.367520 0.339258
f 1389/1/348 1390/2/348 1391/3/348 1392/4/348
v 0.483000 0.143005 -0.525000
v 0.483000 0.219448 -0.607813
v 0.491500 0.208911 -0.618095
v 0.491500 0.131893 -0.534658
vn -0.865929 -0.367523 -0.339255
f 1393/1/349 1394/2/349 1395/3/349 1396/4/349
v 0.491500 0.131893 -0.534658
v 0.491500 0.208911 -0.618095
v 0.508500 0.208911 -0.618095
v 0.508500 0.131893 -0.534658
vn 0.000000 -0.734805 -0.678278
f 1397/1/350 1398/2/350 1399/3/350 1400/4/350
v 0.508500 0.131893 -0.534658
v 0.508500 0.208911 -0.618095
v 0.517000 0.219448 -0.607813
v 0.517000 0.143005 -0.525000
vn 0.865929 -0.367526 -0.339252
f 1401/1/351 1402/2/351 1403/3/351 1404/4/351
v 0.517000 0.219448 -0.607813
v 0.517000 0.304891 -0.690625
v 0.508500 0.314855 -0.679787
v 0.508500 0.229984 -0.597530
vn 0.865942 0.348084 0.359141
f 1405/1/352 1406/2/352 1407/3/352 1408/4/352
v 0.508500 0.229984 -0.597530
v 0.508500 0.314855 -0.679787
v 0.491500 0.314855 -0.679787
v 0.491500 0.229984 -0.597530
vn 0.000000 0.695963 0.718078
f 1409/1/353 1410/2/353 1411/3/353 1412/4/353
v 0.491500 0.229984 -0.597530
v 0.491500 0.314855 -0.679787
v 0.483000 0.304891 -0.690625
v 0.483000 0.219448 -0.607813
vn -0.865942 0.348082 0.359143
f 1413/1/354 1414/2/354 1415/3/354 1416/4/354
v 0.483000 0.219448 -0.607813
v 0.483000 0.304891 -0.690625
v 0.491500 0.294926 -0.701463
v 0.491500 0.208911 -0.618095
vn -0.865942 -0.348084 -0.359141
f 1417/1/355 1418/2/355 1419/3/355 1420/4/355
v 0.491500 0.208911 -0.618095
v 0.491500 0.294926 -0.701463
v 0.508500 0.294926 -0.701463
v 0.508500 0.208911 -0.618095
vn 0.000000 -0.695970 -0.718071
f 1421/1/356 1422/2/356 1423/3/356 1424/4/356
v 0.508500 0.208911 -0.618095
v 0.508500 0.294926 -0.701463
v 0.517000 0.304891 -0.690625
v 0.517000 0.219448 -0.607813
vn 0.865942 -0.348086 -0.359139
f 1425/1/357 1426/2/357 1427/3/357 1428/4/357
v 0.517000 0.304891 -0.690625
v 0.517000 0.399865 -0.773438
v 0.508500 0.409252 -0.762096
v 0.508500 0.314855 -0.679787
vn 0.865950 0.328685 0.376956
f 1429/1/358 1430/2/358 1431/3/358 1432/4/358
v 0.508500 0.314855 -0.679787
v 0.508500 0.409252 -0.762096
v 0.491500 0.409252 -0.762096
v 0.491500 0.314855 -0.679787
vn 0.000000 0.657198 0.753718
f 1433/1/359 1434/2/359 1435/3/359 1436/4/359
v 0.491500 0.314855 -0.679787
v 0.491500 0.409252 -0.762096
v 0.483000 0.399865 -0.773438
v 0.483000 0.304891 -0.690625
vn -0.865950 0.328685 0.376957
f 1437/1/360 1438/2/360 1439/3/360 1440/4/360
v 0.483000 0.304891 -0.690625
v 0.483000 0.399865 -0.773438
v 0.491500 0.390478 -0.784779
v 0.491500 0.294926 -0.701463
vn -0.865950 -0.328685 -0.376956
f 1441/1/361 1442/2/361 1443/3/361 1444/4/361
v 0.491500 0.294926 -0.701463
v 0.491500 0.390478 -0.784779
v 0.508500 0.390478 -0.784779
v 0.508500 0.294926 -0.701463
vn 0.000000 -0.657201 -0.753715
f 1445/1/362 1446/2/362 1447/3/362 1448/4/362
v 0.508500 0.294926 -0.701463
v 0.508500 0.390478 -0.784779
v 0.517000 0.399865 -0.773438
v 0.517000 0.304891 -0.690625
vn 0.865950 -0.328686 -0.376956
f 1449/1/363 1450/2/363 1451/3/363 1452/4/363
v 0.517000 0.399865 -0.773438
v 0.517000 0.505319 -0.856250
v 0.508500 0.514103 -0.844436
v 0.508500 0.409252 -0.762096
vn 0.865954 0.308886 0.393336
f 1453/1/364 1454/2/364 1455/3/364 1456/4/364
v 0.508500 0.409252 -0.762096
v 0.508500 0.514103 -0.844436
v 0.491500 0.514103 -0.844436
v 0.491500 0.409252 -0.762096
vn 0.000000 0.617621 0.786476
f 1457/1/365 1458/2/365 1459/3/365 1460/4/365
v 0.491500 0.409252 -0.762096
v 0.491500 0.514103 -0.844436
v 0.483000 0.505319 -0.856250
v 0.483000 0.399865 -0.773438
vn -0.865954 0.308887 0.393335
f 1461/1/366 1462/2/366 1463/3/366 1464/4/366
v 0.483000 0.399865 -0.773438
v 0.483000 0.505319 -0.856250
v 0.491500 0.496534 -0.868064
v 0.491500 0.390478 -0.784779
vn -0.865954 -0.308886 -0.393336
f 1465/1/367 1466/2/367 1467/3/367 1468/4/367
v 0.491500 0.390478 -0.784779
v 0.491500 0.496534 -0.868064
v 0.508500 0.496534 -0.868064
v 0.508500 0.390478 -0.784779
vn 0.000000 -0.617618 -0.786478
f 1469/1/368 1470/2/368 1471/3/368 1472/4/368
v 0.508500 0.390478 -0.784779
v 0.508500 0.496534 -0.868064
v 0.517000 0.505319 -0.856250
v 0.517000 0.399865 -0.773438
vn 0.865954 -0.308886 -0.393336
f 1473/1/369 1474/2/369 1475/3/369 1476/4/369
v 0.517000 0.505319 -0.856250
v 0.517000 0.623039 -0.939063
v 0.508500 0.631294 -0.926872
v 0.508500 0.514103 -0.844436
vn 0.865950 0.287756 0.409055
f 1477/1/370 1478/2/370 1479/3/370 1480/4/370
v 0.508500 0.514103 -0.844436
v 0.508500 0.631294 -0.926872
v 0.491500 0.631294 -0.926872
v 0.491500 0.514103 -0.844436
vn 0.000000 0.575347 0.817909
f 1481/1/371 1482/2/371 1483/3/371 1484/4/371
v 0.491500 0.514103 -0.844436
v 0.491500 0.631294 -0.926872
v 0.483000 0.623039 -0.939063
v 0.483000 0.505319 -0.856250
vn -0.865950 0.287749 0.409061
f 1485/1/372 1486/2/372 1487/3/372 1488/4/372
v 0.483000 0.505319 -0.856250
v 0.483000 0.623039 -0.939063
v 0.491500 0.614784 -0.951253
v 0.491500 0.496534 -0.868064
vn -0.865950 -0.287756 -0.409055
f 1489/1/373 1490/2/373 1491/3/373 1492/4/373
v 0.491500 0.496534 -0.868064
v 0.491500 0.614784 -0.951253
v 0.508500 0.614784 -0.951253
v 0.508500 0.496534 -0.868064
vn 0.000000 -0.575379 -0.817887
f 1493/1/374 1494/2/374 1495/3/374 1496/4/374
v 0.508500 0.496534 -0.868064
v 0.508500 0.614784 -0.951253
v 0.517000 0.623039 -0.939063
v 0.517000 0.505319 -0.856250
vn 0.865950 -0.287764 -0.409050
f 1497/1/375 1498/2/375 1499/3/375 1500/4/375
v 0.517000 0.623039 -0.939063
v 0.517000 0.750155 -1.021875
v 0.508500 0.758317 -1.009622
v 0.508500 0.631294 -0.926872
vn 0.865991 0.272960 0.418990
f 1501/1/376 1502/2/376 1503/3/376 1504/4/376
v 0.508500 0.631294 -0.926872
v 0.508500 0.758317 -1.009622
v 0.491500 0.758317 -1.009622
v 0.491500 0.631294 -0.926872
vn 0.000000 0.545846 0.837885
f 1505/1/377 1506/2/377 1507/3/377 1508/4/377
v 0.491500 0.631294 -0.926872
v 0.491500 0.758317 -1.009622
v 0.483000 0.750155 -1.021875
v 0.483000 0.623039 -0.939063
vn -0.865991 0.272956 0.418993
f 1509/1/378 1510/2/378 1511/3/378 1512/4/378
v 0.483000 0.623039 -0.939063
v 0.483000 0.750155 -1.021875
v 0.491500 0.741994 -1.034128
v 0.491500 0.614784 -0.951253
vn -0.865991 -0.272960 -0.418990
f 1513/1/379 1514/2/379 1515/3/379 1516/4/379
v 0.491500 0.614784 -0.951253
v 0.491500 0.741994 -1.034128
v 0.508500 0.741994 -1.034128
v 0.508500 0.614784 -0.951253
vn 0.000000 -0.545864 -0.837874
f 1517/1/380 1518/2/380 1519/3/380 1520/4/380
v 0.508500 0.614784 -0.951253
v 0.508500 0.741994 -1.034128
v 0.517000 0.750155 -1.021875
v 0.517000 0.623039 -0.939063
vn 0.865991 -0.272964 -0.418987
f 1521/1/381 1522/2/381 1523/3/381 1524/4/381
v 0.517000 0.750155 -1.021875
v 0.517000 0.871785 -1.104687
v 0.508500 0.878392 -1.091531
v 0.508500 0.758317 -1.009622
vn 0.866014 0.281408 0.413314
f 1525/1/382 1526/2/382 1527/3/382 1528/4/382
v 0.508500 0.758317 -1.009622
v 0.508500 0.878392 -1.091531
v 0.491500 0.878392 -1.091531
v 0.491500 0.758317 -1.009622
vn 0.000000 0.563523 0.826100
f 1529/1/383 1530/2/383 1531/3/383 1532/4/383
v 0.491500 0.758317 -1.009622
v 0.491500 0.878392 -1.091531
v 0.483000 0.871785 -1.104687
v 0.483000 0.750155 -1.021875
vn -0.866012 0.281774 0.413069
f 1533/1/384 1534/2/384 1535/3/384 1536/4/384
v 0.483000 0.750155 -1.021875
v 0.483000 0.871785 -1.104687
v 0.491500 0.865178 -1.117844
v 0.491500 0.741994 -1.034128
vn -0.866014 -0.281408 -0.413314
f 1537/1/385 1538/2/385 1539/3/385 1540/4/385
v 0.491500 0.741994 -1.034128
v 0.491500 0.865178 -1.117844
v 0.508500 0.865178 -1.117844
v 0.508500 0.741994 -1.034128
vn 0.000000 -0.562083 -0.827081
f 1541/1/386 1542/2/386 1543/3/386 1544/4/386
v 0.508500 0.741994 -1.034128
v 0.508500 0.865178 -1.117844
v 0.517000 0.871785 -1.104687
v 0.517000 0.750155 -1.021875
vn 0.866016 -0.281051 -0.413554
f 1545/1/387 1546/2/387 1547/3/387 1548/4/387
v 0.517000 0.871785 -1.104687
v 0.500000 1.105694 -1.203566
v 0.514722 1.108472 -1.195533
v 0.508500 0.878392 -1.091531
vn 0.865747 0.246940 0.435318
f 1549/1/388 1550/2/388 1551/3/388 1552/4/388
v 0.508500 0.878392 -1.091531
v 0.514722 1.108472 -1.195533
v 0.514722 1.114028 -1.179467
v 0.491500 0.878392 -1.091531
vn 0.000000 0.411900 0.911229
f 1553/1/389 1554/2/389 1555/3/389 1556/4/389
v 0.491500 0.878392 -1.091531
v 0.514722 1.114028 -1.179467
v 0.500000 1.116806 -1.171434
v 0.483000 0.871785 -1.104687
vn -0.865730 0.247639 0.434956
f 1557/1/390 1558/2/390 1559/3/390 1560/4/390
v 0.483000 0.871785 -1.104687
v 0.500000 1.116806 -1.171434
v 0.485278 1.114028 -1.179467
v 0.491500 0.865178 -1.117844
vn -0.855124 -0.080194 -0.512184
f 1561/1/391 1562/2/391 1563/3/391 1564/4/391
v 0.491500 0.865178 -1.117844
v 0.485278 1.114028 -1.179467
v 0.485278 1.108472 -1.195533
v 0.508500 0.865178 -1.117844
vn 0.000000 -0.240369 -0.970682
f 1565/1/392 1566/2/392 1567/3/392 1568/4/392
v 0.508500 0.865178 -1.117844
v 0.485278 1.108472 -1.195533
v 0.500000 1.105694 -1.203566
v 0.517000 0.871785 -1.104687
vn 0.855349 -0.081711 -0.511568
f 1569/1/393 1570/2/393 1571/3/393 1572/4/393
v 0.500000 1.105694 -1.203566
v 0.500000 1.116806 -1.171434
v 0.514722 1.114028 -1.179467
v 0.514722 1.108472 -1.195533
vn -0.000000 0.945083 -0.326831
f 1573/1/394 1574/2/394 1575/3/394 1576/4/394
v 0.500000 1.105694 -1.203566
v 0.485278 1.108472 -1.195533
v 0.485278 1.114028 -1.179467
v 0.500000 1.116806 -1.171434
vn 0.000000 0.945083 -0.326831
f 1577/1/395 1578/2/395 1579/3/395 1580/4/395
