# Generated by scripts/gen_pole_light_mounts.py
mtllib pole_light_mount.mtl
o pole_light_mount_7_straight
vt 0 0
vt 1 0
vt 1 1
vt 0 1
usemtl clamp
v 0.312500 0.062500 1.000000
v 0.687500 0.062500 1.000000
v 0.687500 0.937500 1.000000
v 0.312500 0.937500 1.000000
vn 0.000000 0.000000 1.000000
f 1/1/1 2/2/1 3/3/1 4/4/1
v 0.687500 0.062500 0.900000
v 0.312500 0.062500 0.900000
v 0.312500 0.937500 0.900000
v 0.687500 0.937500 0.900000
vn 0.000000 0.000000 -1.000000
f 5/1/2 6/2/2 7/3/2 8/4/2
v 0.687500 0.062500 1.000000
v 0.687500 0.062500 0.900000
v 0.687500 0.937500 0.900000
v 0.687500 0.937500 1.000000
vn 1.000000 -0.000000 0.000000
f 9/1/3 10/2/3 11/3/3 12/4/3
v 0.312500 0.062500 0.900000
v 0.312500 0.062500 1.000000
v 0.312500 0.937500 1.000000
v 0.312500 0.937500 0.900000
vn -1.000000 0.000000 0.000000
f 13/1/4 14/2/4 15/3/4 16/4/4
v 0.312500 0.937500 1.000000
v 0.687500 0.937500 1.000000
v 0.687500 0.937500 0.900000
v 0.312500 0.937500 0.900000
vn -0.000000 1.000000 0.000000
f 17/1/5 18/2/5 19/3/5 20/4/5
v 0.312500 0.062500 0.900000
v 0.687500 0.062500 0.900000
v 0.687500 0.062500 1.000000
v 0.312500 0.062500 1.000000
vn 0.000000 -1.000000 0.000000
f 21/1/6 22/2/6 23/3/6 24/4/6
v 0.406250 0.312500 0.900000
v 0.593750 0.312500 0.900000
v 0.593750 0.531250 0.900000
v 0.406250 0.531250 0.900000
vn 0.000000 0.000000 1.000000
f 25/1/7 26/2/7 27/3/7 28/4/7
v 0.593750 0.312500 0.800000
v 0.406250 0.312500 0.800000
v 0.406250 0.531250 0.800000
v 0.593750 0.531250 0.800000
vn 0.000000 0.000000 -1.000000
f 29/1/8 30/2/8 31/3/8 32/4/8
v 0.593750 0.312500 0.900000
v 0.593750 0.312500 0.800000
v 0.593750 0.531250 0.800000
v 0.593750 0.531250 0.900000
vn 1.000000 -0.000000 0.000000
f 33/1/9 34/2/9 35/3/9 36/4/9
v 0.406250 0.312500 0.800000
v 0.406250 0.312500 0.900000
v 0.406250 0.531250 0.900000
v 0.406250 0.531250 0.800000
vn -1.000000 0.000000 0.000000
f 37/1/10 38/2/10 39/3/10 40/4/10
v 0.406250 0.531250 0.900000
v 0.593750 0.531250 0.900000
v 0.593750 0.531250 0.800000
v 0.406250 0.531250 0.800000
vn -0.000000 1.000000 0.000000
f 41/1/11 42/2/11 43/3/11 44/4/11
v 0.406250 0.312500 0.800000
v 0.593750 0.312500 0.800000
v 0.593750 0.312500 0.900000
v 0.406250 0.312500 0.900000
vn 0.000000 -1.000000 0.000000
f 45/1/12 46/2/12 47/3/12 48/4/12
v 0.468750 0.125000 0.900000
v 0.531250 0.125000 0.900000
v 0.531250 0.187500 0.900000
v 0.468750 0.187500 0.900000
vn 0.000000 0.000000 1.000000
f 49/1/13 50/2/13 51/3/13 52/4/13
v 0.531250 0.125000 0.880000
v 0.468750 0.125000 0.880000
v 0.468750 0.187500 0.880000
v 0.531250 0.187500 0.880000
vn 0.000000 0.000000 -1.000000
f 53/1/14 54/2/14 55/3/14 56/4/14
v 0.531250 0.125000 0.900000
v 0.531250 0.125000 0.880000
v 0.531250 0.187500 0.880000
v 0.531250 0.187500 0.900000
vn 1.000000 -0.000000 0.000000
f 57/1/15 58/2/15 59/3/15 60/4/15
v 0.468750 0.125000 0.880000
v 0.468750 0.125000 0.900000
v 0.468750 0.187500 0.900000
v 0.468750 0.187500 0.880000
vn -1.000000 0.000000 0.000000
f 61/1/16 62/2/16 63/3/16 64/4/16
v 0.468750 0.187500 0.900000
v 0.531250 0.187500 0.900000
v 0.531250 0.187500 0.880000
v 0.468750 0.187500 0.880000
vn -0.000000 1.000000 0.000000
f 65/1/17 66/2/17 67/3/17 68/4/17
v 0.468750 0.125000 0.880000
v 0.531250 0.125000 0.880000
v 0.531250 0.125000 0.900000
v 0.468750 0.125000 0.900000
vn 0.000000 -1.000000 0.000000
f 69/1/18 70/2/18 71/3/18 72/4/18
v 0.468750 0.812500 0.900000
v 0.531250 0.812500 0.900000
v 0.531250 0.875000 0.900000
v 0.468750 0.875000 0.900000
vn 0.000000 0.000000 1.000000
f 73/1/19 74/2/19 75/3/19 76/4/19
v 0.531250 0.812500 0.880000
v 0.468750 0.812500 0.880000
v 0.468750 0.875000 0.880000
v 0.531250 0.875000 0.880000
vn 0.000000 0.000000 -1.000000
f 77/1/20 78/2/20 79/3/20 80/4/20
v 0.531250 0.812500 0.900000
v 0.531250 0.812500 0.880000
v 0.531250 0.875000 0.880000
v 0.531250 0.875000 0.900000
vn 1.000000 -0.000000 0.000000
f 81/1/21 82/2/21 83/3/21 84/4/21
v 0.468750 0.812500 0.880000
v 0.468750 0.812500 0.900000
v 0.468750 0.875000 0.900000
v 0.468750 0.875000 0.880000
vn -1.000000 0.000000 0.000000
f 85/1/22 86/2/22 87/3/22 88/4/22
v 0.468750 0.875000 0.900000
v 0.531250 0.875000 0.900000
v 0.531250 0.875000 0.880000
v 0.468750 0.875000 0.880000
vn -0.000000 1.000000 0.000000
f 89/1/23 90/2/23 91/3/23 92/4/23
v 0.468750 0.812500 0.880000
v 0.531250 0.812500 0.880000
v 0.531250 0.812500 0.900000
v 0.468750 0.812500 0.900000
vn 0.000000 -1.000000 0.000000
f 93/1/24 94/2/24 95/3/24 96/4/24
usemtl metal
v 0.545000 0.410000 0.860000
v 0.545000 0.410000 0.800000
v 0.538971 0.432500 0.800000
v 0.538971 0.432500 0.860000
vn 0.965926 0.258819 0.000000
f 97/1/25 98/2/25 99/3/25 100/4/25
v 0.538971 0.432500 0.860000
v 0.538971 0.432500 0.800000
v 0.522500 0.448971 0.800000
v 0.522500 0.448971 0.860000
vn 0.707107 0.707107 0.000000
f 101/1/26 102/2/26 103/3/26 104/4/26
v 0.522500 0.448971 0.860000
v 0.522500 0.448971 0.800000
v 0.500000 0.455000 0.800000
v 0.500000 0.455000 0.860000
vn 0.258819 0.965926 0.000000
f 105/1/27 106/2/27 107/3/27 108/4/27
v 0.500000 0.455000 0.860000
v 0.500000 0.455000 0.800000
v 0.477500 0.448971 0.800000
v 0.477500 0.448971 0.860000
vn -0.258819 0.965926 0.000000
f 109/1/28 110/2/28 111/3/28 112/4/28
v 0.477500 0.448971 0.860000
v 0.477500 0.448971 0.800000
v 0.461029 0.432500 0.800000
v 0.461029 0.432500 0.860000
vn -0.707107 0.707107 0.000000
f 113/1/29 114/2/29 115/3/29 116/4/29
v 0.461029 0.432500 0.860000
v 0.461029 0.432500 0.800000
v 0.455000 0.410000 0.800000
v 0.455000 0.410000 0.860000
vn -0.965926 0.258819 0.000000
f 117/1/30 118/2/30 119/3/30 120/4/30
v 0.455000 0.410000 0.860000
v 0.455000 0.410000 0.800000
v 0.461029 0.387500 0.800000
v 0.461029 0.387500 0.860000
vn -0.965926 -0.258819 -0.000000
f 121/1/31 122/2/31 123/3/31 124/4/31
v 0.461029 0.387500 0.860000
v 0.461029 0.387500 0.800000
v 0.477500 0.371029 0.800000
v 0.477500 0.371029 0.860000
vn -0.707107 -0.707107 -0.000000
f 125/1/32 126/2/32 127/3/32 128/4/32
v 0.477500 0.371029 0.860000
v 0.477500 0.371029 0.800000
v 0.500000 0.365000 0.800000
v 0.500000 0.365000 0.860000
vn -0.258819 -0.965926 -0.000000
f 129/1/33 130/2/33 131/3/33 132/4/33
v 0.500000 0.365000 0.860000
v 0.500000 0.365000 0.800000
v 0.522500 0.371029 0.800000
v 0.522500 0.371029 0.860000
vn 0.258819 -0.965926 0.000000
f 133/1/34 134/2/34 135/3/34 136/4/34
v 0.522500 0.371029 0.860000
v 0.522500 0.371029 0.800000
v 0.538971 0.387500 0.800000
v 0.538971 0.387500 0.860000
vn 0.707107 -0.707107 0.000000
f 137/1/35 138/2/35 139/3/35 140/4/35
v 0.538971 0.387500 0.860000
v 0.538971 0.387500 0.800000
v 0.545000 0.410000 0.800000
v 0.545000 0.410000 0.860000
vn 0.965926 -0.258819 0.000000
f 141/1/36 142/2/36 143/3/36 144/4/36
v 0.545000 0.410000 0.800000
v 0.545000 0.410000 0.680000
v 0.538971 0.432471 0.681136
v 0.538971 0.432500 0.800000
vn 0.965926 0.258819 0.000000
f 145/1/37 146/2/37 147/3/37 148/4/37
v 0.538971 0.432500 0.800000
v 0.538971 0.432471 0.681136
v 0.522500 0.448921 0.681968
v 0.522500 0.448971 0.800000
vn 0.707107 0.707107 -0.000171
f 149/1/38 150/2/38 151/3/38 152/4/38
v 0.522500 0.448971 0.800000
v 0.522500 0.448921 0.681968
v 0.500000 0.454943 0.682272
v 0.500000 0.455000 0.800000
vn 0.258819 0.965926 -0.000407
f 153/1/39 154/2/39 155/3/39 156/4/39
v 0.500000 0.455000 0.800000
v 0.500000 0.454943 0.682272
v 0.477500 0.448921 0.681968
v 0.477500 0.448971 0.800000
vn -0.258819 0.965926 -0.000471
f 157/1/40 158/2/40 159/3/40 160/4/40
v 0.477500 0.448971 0.800000
v 0.477500 0.448921 0.681968
v 0.461029 0.432471 0.681136
v 0.461029 0.432500 0.800000
vn -0.707107 0.707107 -0.000298
f 161/1/41 162/2/41 163/3/41 164/4/41
v 0.461029 0.432500 0.800000
v 0.461029 0.432471 0.681136
v 0.455000 0.410000 0.680000
v 0.455000 0.410000 0.800000
vn -0.965926 0.258819 -0.000063
f 165/1/42 166/2/42 167/3/42 168/4/42
v 0.455000 0.410000 0.800000
v 0.455000 0.410000 0.680000
v 0.461029 0.387529 0.678864
v 0.461029 0.387500 0.800000
vn -0.965926 -0.258819 -0.000000
f 169/1/43 170/2/43 171/3/43 172/4/43
v 0.461029 0.387500 0.800000
v 0.461029 0.387529 0.678864
v 0.477500 0.371079 0.678032
v 0.477500 0.371029 0.800000
vn -0.707107 -0.707107 -0.000168
f 173/1/44 174/2/44 175/3/44 176/4/44
v 0.477500 0.371029 0.800000
v 0.477500 0.371079 0.678032
v 0.500000 0.365057 0.677728
v 0.500000 0.365000 0.800000
vn -0.258819 -0.965926 -0.000394
f 177/1/45 178/2/45 179/3/45 180/4/45
v 0.500000 0.365000 0.800000
v 0.500000 0.365057 0.677728
v 0.522500 0.371079 0.678032
v 0.522500 0.371029 0.800000
vn 0.258819 -0.965926 -0.000454
f 181/1/46 182/2/46 183/3/46 184/4/46
v 0.522500 0.371029 0.800000
v 0.522500 0.371079 0.678032
v 0.538971 0.387529 0.678864
v 0.538971 0.387500 0.800000
vn 0.707107 -0.707107 -0.000288
f 185/1/47 186/2/47 187/3/47 188/4/47
v 0.538971 0.387500 0.800000
v 0.538971 0.387529 0.678864
v 0.545000 0.410000 0.680000
v 0.545000 0.410000 0.800000
vn 0.965926 -0.258819 -0.000061
f 189/1/48 190/2/48 191/3/48 192/4/48
v 0.545000 0.410000 0.680000
v 0.545000 0.417097 0.610000
v 0.538971 0.439176 0.614329
v 0.538971 0.432471 0.681136
vn 0.965843 0.257806 0.026137
f 193/1/49 194/2/49 195/3/49 196/4/49
v 0.538971 0.432471 0.681136
v 0.538971 0.439176 0.614329
v 0.522500 0.455340 0.617498
v 0.522500 0.448921 0.681968
vn 0.706673 0.704003 0.070658
f 197/1/50 198/2/50 199/3/50 200/4/50
v 0.522500 0.448921 0.681968
v 0.522500 0.455340 0.617498
v 0.500000 0.461256 0.618657
v 0.500000 0.454943 0.682272
vn 0.258533 0.961250 0.095700
f 201/1/51 202/2/51 203/3/51 204/4/51
v 0.500000 0.454943 0.682272
v 0.500000 0.461256 0.618657
v 0.477500 0.455340 0.617498
v 0.477500 0.448921 0.681968
vn -0.258536 0.961279 0.095404
f 205/1/52 206/2/52 207/3/52 208/4/52
v 0.477500 0.448921 0.681968
v 0.477500 0.455340 0.617498
v 0.461029 0.439176 0.614329
v 0.461029 0.432471 0.681136
vn -0.706687 0.704046 0.070093
f 209/1/53 210/2/53 211/3/53 212/4/53
v 0.461029 0.432471 0.681136
v 0.461029 0.439176 0.614329
v 0.455000 0.417097 0.610000
v 0.455000 0.410000 0.680000
vn -0.965846 0.257820 0.025876
f 213/1/54 214/2/54 215/3/54 216/4/54
v 0.455000 0.410000 0.680000
v 0.455000 0.417097 0.610000
v 0.461029 0.395017 0.605671
v 0.461029 0.387529 0.678864
vn -0.965843 -0.257806 -0.026137
f 217/1/55 218/2/55 219/3/55 220/4/55
v 0.461029 0.387529 0.678864
v 0.461029 0.395017 0.605671
v 0.477500 0.378854 0.602502
v 0.477500 0.371079 0.678032
vn -0.706639 -0.703900 -0.072017
f 221/1/56 222/2/56 223/3/56 224/4/56
v 0.477500 0.371079 0.678032
v 0.477500 0.378854 0.602502
v 0.500000 0.372937 0.601343
v 0.500000 0.365057 0.677728
vn -0.258492 -0.960935 -0.098920
f 225/1/57 226/2/57 227/3/57 228/4/57
v 0.500000 0.365057 0.677728
v 0.500000 0.372937 0.601343
v 0.522500 0.378854 0.602502
v 0.522500 0.371079 0.678032
vn 0.258489 -0.960914 -0.099130
f 229/1/58 230/2/58 231/3/58 232/4/58
v 0.522500 0.371079 0.678032
v 0.522500 0.378854 0.602502
v 0.538971 0.395017 0.605671
v 0.538971 0.387529 0.678864
vn 0.706627 -0.703866 -0.072457
f 233/1/59 234/2/59 235/3/59 236/4/59
v 0.538971 0.387529 0.678864
v 0.538971 0.395017 0.605671
v 0.545000 0.417097 0.610000
v 0.545000 0.410000 0.680000
vn 0.965840 -0.257793 -0.026375
f 237/1/60 238/2/60 239/3/60 240/4/60
v 0.545000 0.417097 0.610000
v 0.545000 0.437693 0.540000
v 0.538971 0.458767 0.547883
v 0.538971 0.439176 0.614329
vn 0.965647 0.249290 0.073347
f 241/1/61 242/2/61 243/3/61 244/4/61
v 0.538971 0.439176 0.614329
v 0.538971 0.458767 0.547883
v 0.522500 0.474194 0.553653
v 0.522500 0.455340 0.617498
vn 0.705570 0.679714 0.200398
f 245/1/62 246/2/62 247/3/62 248/4/62
v 0.522500 0.455340 0.617498
v 0.522500 0.474194 0.553653
v 0.500000 0.479841 0.555765
v 0.500000 0.461256 0.618657
vn 0.257763 0.926647 0.273648
f 249/1/63 250/2/63 251/3/63 252/4/63
v 0.500000 0.461256 0.618657
v 0.500000 0.479841 0.555765
v 0.477500 0.474194 0.553653
v 0.477500 0.455340 0.617498
vn -0.257759 0.926601 0.273808
f 253/1/64 254/2/64 255/3/64 256/4/64
v 0.477500 0.455340 0.617498
v 0.477500 0.474194 0.553653
v 0.461029 0.458767 0.547883
v 0.461029 0.439176 0.614329
vn -0.705556 0.679639 0.200704
f 257/1/65 258/2/65 259/3/65 260/4/65
v 0.461029 0.439176 0.614329
v 0.461029 0.458767 0.547883
v 0.455000 0.437693 0.540000
v 0.455000 0.417097 0.610000
vn -0.965644 0.249262 0.073489
f 261/1/66 262/2/66 263/3/66 264/4/66
v 0.455000 0.417097 0.610000
v 0.455000 0.437693 0.540000
v 0.461029 0.416618 0.532117
v 0.461029 0.395017 0.605671
vn -0.965647 -0.249290 -0.073347
f 265/1/67 266/2/67 267/3/67 268/4/67
v 0.461029 0.395017 0.605671
v 0.461029 0.416618 0.532117
v 0.477500 0.401191 0.526347
v 0.477500 0.378854 0.602502
vn -0.705605 -0.679892 -0.199671
f 269/1/68 270/2/68 271/3/68 272/4/68
v 0.477500 0.378854 0.602502
v 0.477500 0.401191 0.526347
v 0.500000 0.395544 0.524235
v 0.500000 0.372937 0.601343
vn -0.257804 -0.927138 -0.271943
f 273/1/69 274/2/69 275/3/69 276/4/69
v 0.500000 0.372937 0.601343
v 0.500000 0.395544 0.524235
v 0.522500 0.401191 0.526347
v 0.522500 0.378854 0.602502
vn 0.257806 -0.927169 -0.271834
f 277/1/70 278/2/70 279/3/70 280/4/70
v 0.522500 0.378854 0.602502
v 0.522500 0.401191 0.526347
v 0.538971 0.416618 0.532117
v 0.538971 0.395017 0.605671
vn 0.705616 -0.679949 -0.199439
f 281/1/71 282/2/71 283/3/71 284/4/71
v 0.538971 0.395017 0.605671
v 0.538971 0.416618 0.532117
v 0.545000 0.437693 0.540000
v 0.545000 0.417097 0.610000
vn 0.965650 -0.249316 -0.073219
f 285/1/72 286/2/72 287/3/72 288/4/72
v 0.545000 0.437693 0.540000
v 0.545000 0.469771 0.470000
v 0.538971 0.489763 0.480324
v 0.538971 0.458767 0.547883
vn 0.965759 0.235856 0.108085
f 289/1/73 290/2/73 291/3/73 292/4/73
v 0.538971 0.458767 0.547883
v 0.538971 0.489763 0.480324
v 0.522500 0.504398 0.487882
v 0.522500 0.474194 0.553653
vn 0.706183 0.643529 0.295254
f 293/1/74 294/2/74 295/3/74 296/4/74
v 0.522500 0.474194 0.553653
v 0.522500 0.504398 0.487882
v 0.500000 0.509754 0.490648
v 0.500000 0.479841 0.555765
vn 0.258183 0.877947 0.403175
f 297/1/75 298/2/75 299/3/75 300/4/75
v 0.500000 0.479841 0.555765
v 0.500000 0.509754 0.490648
v 0.477500 0.504398 0.487882
v 0.477500 0.474194 0.553653
vn -0.258181 0.877895 0.403291
f 301/1/76 302/2/76 303/3/76 304/4/76
v 0.477500 0.474194 0.553653
v 0.477500 0.504398 0.487882
v 0.461029 0.489763 0.480324
v 0.461029 0.458767 0.547883
vn -0.706174 0.643435 0.295481
f 305/1/77 306/2/77 307/3/77 308/4/77
v 0.461029 0.458767 0.547883
v 0.461029 0.489763 0.480324
v 0.455000 0.469771 0.470000
v 0.455000 0.437693 0.540000
vn -0.965757 0.235815 0.108193
f 309/1/78 310/2/78 311/3/78 312/4/78
v 0.455000 0.437693 0.540000
v 0.455000 0.469771 0.470000
v 0.461029 0.449779 0.459676
v 0.461029 0.416618 0.532117
vn -0.965759 -0.235856 -0.108085
f 313/1/79 314/2/79 315/3/79 316/4/79
v 0.461029 0.416618 0.532117
v 0.461029 0.449779 0.459676
v 0.477500 0.435145 0.452118
v 0.477500 0.401191 0.526347
vn -0.706205 -0.643763 -0.294691
f 317/1/80 318/2/80 319/3/80 320/4/80
v 0.477500 0.401191 0.526347
v 0.477500 0.435145 0.452118
v 0.500000 0.429788 0.449352
v 0.500000 0.395544 0.524235
vn -0.258209 -0.878543 -0.401859
f 321/1/81 322/2/81 323/3/81 324/4/81
v 0.500000 0.395544 0.524235
v 0.500000 0.429788 0.449352
v 0.522500 0.435145 0.452118
v 0.522500 0.401191 0.526347
vn 0.258211 -0.878583 -0.401770
f 325/1/82 326/2/82 327/3/82 328/4/82
v 0.522500 0.401191 0.526347
v 0.522500 0.435145 0.452118
v 0.538971 0.449779 0.459676
v 0.538971 0.416618 0.532117
vn 0.706212 -0.643841 -0.294503
f 329/1/83 330/2/83 331/3/83 332/4/83
v 0.538971 0.416618 0.532117
v 0.538971 0.449779 0.459676
v 0.545000 0.469771 0.470000
v 0.545000 0.437693 0.540000
vn 0.965761 -0.235894 -0.107984
f 333/1/84 334/2/84 335/3/84 336/4/84
v 0.545000 0.469771 0.470000
v 0.545000 0.510193 0.400000
v 0.538971 0.529415 0.411694
v 0.538971 0.489763 0.480324
vn 0.965854 0.224365 0.129559
f 337/1/85 338/2/85 339/3/85 340/4/85
v 0.538971 0.489763 0.480324
v 0.538971 0.529415 0.411694
v 0.522500 0.543487 0.420254
v 0.522500 0.504398 0.487882
vn 0.706712 0.612603 0.353942
f 341/1/86 342/2/86 343/3/86 344/4/86
v 0.522500 0.504398 0.487882
v 0.522500 0.543487 0.420254
v 0.500000 0.548638 0.423388
v 0.500000 0.509754 0.490648
vn 0.258548 0.836341 0.483412
f 345/1/87 346/2/87 347/3/87 348/4/87
v 0.500000 0.509754 0.490648
v 0.500000 0.548638 0.423388
v 0.477500 0.543487 0.420254
v 0.477500 0.504398 0.487882
vn -0.258547 0.836308 0.483469
f 349/1/88 350/2/88 351/3/88 352/4/88
v 0.477500 0.504398 0.487882
v 0.477500 0.543487 0.420254
v 0.461029 0.529415 0.411694
v 0.461029 0.489763 0.480324
vn -0.706709 0.612542 0.354055
f 353/1/89 354/2/89 355/3/89 356/4/89
v 0.461029 0.489763 0.480324
v 0.461029 0.529415 0.411694
v 0.455000 0.510193 0.400000
v 0.455000 0.469771 0.470000
vn -0.965854 0.224337 0.129614
f 357/1/90 358/2/90 359/3/90 360/4/90
v 0.455000 0.469771 0.470000
v 0.455000 0.510193 0.400000
v 0.461029 0.490970 0.388306
v 0.461029 0.449779 0.459676
vn -0.965854 -0.224365 -0.129559
f 361/1/91 362/2/91 363/3/91 364/4/91
v 0.461029 0.449779 0.459676
v 0.461029 0.490970 0.388306
v 0.477500 0.476898 0.379746
v 0.477500 0.435145 0.452118
vn -0.706720 -0.612762 -0.353651
f 365/1/92 366/2/92 367/3/92 368/4/92
v 0.477500 0.435145 0.452118
v 0.477500 0.476898 0.379746
v 0.500000 0.471748 0.376612
v 0.500000 0.429788 0.449352
vn -0.258557 -0.836731 -0.482731
f 369/1/93 370/2/93 371/3/93 372/4/93
v 0.500000 0.429788 0.449352
v 0.500000 0.471748 0.376612
v 0.522500 0.476898 0.379746
v 0.522500 0.435145 0.452118
vn 0.258558 -0.836759 -0.482682
f 373/1/94 374/2/94 375/3/94 376/4/94
v 0.522500 0.435145 0.452118
v 0.522500 0.476898 0.379746
v 0.538971 0.490970 0.388306
v 0.538971 0.449779 0.459676
vn 0.706723 -0.612818 -0.353550
f 377/1/95 378/2/95 379/3/95 380/4/95
v 0.538971 0.449779 0.459676
v 0.538971 0.490970 0.388306
v 0.545000 0.510193 0.400000
v 0.545000 0.469771 0.470000
vn 0.965855 -0.224393 -0.129507
f 381/1/96 382/2/96 383/3/96 384/4/96
v 0.545000 0.510193 0.400000
v 0.545000 0.555000 0.330000
v 0.538971 0.573950 0.342130
v 0.538971 0.529415 0.411694
vn 0.965909 0.218038 0.139568
f 385/1/97 386/2/97 387/3/97 388/4/97
v 0.538971 0.529415 0.411694
v 0.538971 0.573950 0.342130
v 0.522500 0.587823 0.351010
v 0.522500 0.543487 0.420254
vn 0.707014 0.595598 0.381306
f 389/1/98 390/2/98 391/3/98 392/4/98
v 0.522500 0.543487 0.420254
v 0.522500 0.587823 0.351010
v 0.500000 0.592900 0.354260
v 0.500000 0.548638 0.423388
vn 0.258755 0.813482 0.520857
f 393/1/99 394/2/99 395/3/99 396/4/99
v 0.500000 0.548638 0.423388
v 0.500000 0.592900 0.354260
v 0.477500 0.587823 0.351010
v 0.477500 0.543487 0.420254
vn -0.258755 0.813472 0.520873
f 397/1/100 398/2/100 399/3/100 400/4/100
v 0.477500 0.543487 0.420254
v 0.477500 0.587823 0.351010
v 0.461029 0.573950 0.342130
v 0.461029 0.529415 0.411694
vn -0.707013 0.595578 0.381338
f 401/1/101 402/2/101 403/3/101 404/4/101
v 0.461029 0.529415 0.411694
v 0.461029 0.573950 0.342130
v 0.455000 0.555000 0.330000
v 0.455000 0.510193 0.400000
vn -0.965909 0.218029 0.139584
f 405/1/102 406/2/102 407/3/102 408/4/102
v 0.455000 0.510193 0.400000
v 0.455000 0.555000 0.330000
v 0.461029 0.536050 0.317870
v 0.461029 0.490970 0.388306
vn -0.965909 -0.218038 -0.139568
f 409/1/103 410/2/103 411/3/103 412/4/103
v 0.461029 0.490970 0.388306
v 0.461029 0.536050 0.317870
v 0.477500 0.522177 0.308990
v 0.477500 0.476898 0.379746
vn -0.707015 -0.595651 -0.381221
f 413/1/104 414/2/104 415/3/104 416/4/104
v 0.477500 0.476898 0.379746
v 0.477500 0.522177 0.308990
v 0.500000 0.517100 0.305740
v 0.500000 0.471748 0.376612
vn -0.258757 -0.813610 -0.520658
f 417/1/105 418/2/105 419/3/105 420/4/105
v 0.500000 0.471748 0.376612
v 0.500000 0.517100 0.305740
v 0.522500 0.522177 0.308990
v 0.522500 0.476898 0.379746
vn 0.258757 -0.813619 -0.520643
f 421/1/106 422/2/106 423/3/106 424/4/106
v 0.522500 0.476898 0.379746
v 0.522500 0.522177 0.308990
v 0.538971 0.536050 0.317870
v 0.538971 0.490970 0.388306
vn 0.707015 -0.595670 -0.381191
f 425/1/107 426/2/107 427/3/107 428/4/107
v 0.538971 0.490970 0.388306
v 0.538971 0.536050 0.317870
v 0.545000 0.555000 0.330000
v 0.545000 0.510193 0.400000
vn 0.965909 -0.218048 -0.139552
f 429/1/108 430/2/108 431/3/108 432/4/108
v 0.545000 0.555000 0.330000
v 0.545000 0.599807 0.260000
v 0.538971 0.619030 0.271694
v 0.538971 0.573950 0.342130
vn 0.965926 0.217985 0.139534
f 433/1/109 434/2/109 435/3/109 436/4/109
v 0.538971 0.573950 0.342130
v 0.538971 0.619030 0.271694
v 0.522500 0.633102 0.280254
v 0.522500 0.587823 0.351010
vn 0.707107 0.595574 0.381172
f 437/1/110 438/2/110 439/3/110 440/4/110
v 0.522500 0.587823 0.351010
v 0.522500 0.633102 0.280254
v 0.500000 0.638252 0.283388
v 0.500000 0.592900 0.354260
vn 0.258819 0.813595 0.520649
f 441/1/111 442/2/111 443/3/111 444/4/111
v 0.500000 0.592900 0.354260
v 0.500000 0.638252 0.283388
v 0.477500 0.633102 0.280254
v 0.477500 0.587823 0.351010
vn -0.258819 0.813605 0.520634
f 445/1/112 446/2/112 447/3/112 448/4/112
v 0.477500 0.587823 0.351010
v 0.477500 0.633102 0.280254
v 0.461029 0.619030 0.271694
v 0.461029 0.573950 0.342130
vn -0.707107 0.595593 0.381141
f 449/1/113 450/2/113 451/3/113 452/4/113
v 0.461029 0.573950 0.342130
v 0.461029 0.619030 0.271694
v 0.455000 0.599807 0.260000
v 0.455000 0.555000 0.330000
vn -0.965926 0.217995 0.139519
f 453/1/114 454/2/114 455/3/114 456/4/114
v 0.455000 0.555000 0.330000
v 0.455000 0.599807 0.260000
v 0.461029 0.580585 0.248306
v 0.461029 0.536050 0.317870
vn -0.965926 -0.217985 -0.139534
f 457/1/115 458/2/115 459/3/115 460/4/115
v 0.461029 0.536050 0.317870
v 0.461029 0.580585 0.248306
v 0.477500 0.566513 0.239746
v 0.477500 0.522177 0.308990
vn -0.707107 -0.595520 -0.381256
f 461/1/116 462/2/116 463/3/116 464/4/116
v 0.477500 0.522177 0.308990
v 0.477500 0.566513 0.239746
v 0.500000 0.561362 0.236612
v 0.500000 0.517100 0.305740
vn -0.258819 -0.813468 -0.520848
f 465/1/117 466/2/117 467/3/117 468/4/117
v 0.500000 0.517100 0.305740
v 0.500000 0.561362 0.236612
v 0.522500 0.566513 0.239746
v 0.522500 0.522177 0.308990
vn 0.258819 -0.813458 -0.520864
f 469/1/118 470/2/118 471/3/118 472/4/118
v 0.522500 0.522177 0.308990
v 0.522500 0.566513 0.239746
v 0.538971 0.580585 0.248306
v 0.538971 0.536050 0.317870
vn 0.707107 -0.595500 -0.381287
f 473/1/119 474/2/119 475/3/119 476/4/119
v 0.538971 0.536050 0.317870
v 0.538971 0.580585 0.248306
v 0.545000 0.599807 0.260000
v 0.545000 0.555000 0.330000
vn 0.965926 -0.217975 -0.139549
f 477/1/120 478/2/120 479/3/120 480/4/120
v 0.545000 0.599807 0.260000
v 0.545000 0.640229 0.190000
v 0.538971 0.660221 0.200324
v 0.538971 0.619030 0.271694
vn 0.965909 0.224189 0.129458
f 481/1/121 482/2/121 483/3/121 484/4/121
v 0.538971 0.619030 0.271694
v 0.538971 0.660221 0.200324
v 0.522500 0.674855 0.207882
v 0.522500 0.633102 0.280254
vn 0.707013 0.612509 0.353505
f 485/1/122 486/2/122 487/3/122 488/4/122
v 0.522500 0.633102 0.280254
v 0.522500 0.674855 0.207882
v 0.500000 0.680212 0.210648
v 0.500000 0.638252 0.283388
vn 0.258754 0.836686 0.482705
f 489/1/123 490/2/123 491/3/123 492/4/123
v 0.500000 0.638252 0.283388
v 0.500000 0.680212 0.210648
v 0.477500 0.674855 0.207882
v 0.477500 0.633102 0.280254
vn -0.258753 0.836714 0.482656
f 493/1/124 494/2/124 495/3/124 496/4/124
v 0.477500 0.633102 0.280254
v 0.477500 0.674855 0.207882
v 0.461029 0.660221 0.200324
v 0.461029 0.619030 0.271694
vn -0.707011 0.612568 0.353406
f 497/1/125 498/2/125 499/3/125 500/4/125
v 0.461029 0.619030 0.271694
v 0.461029 0.660221 0.200324
v 0.455000 0.640229 0.190000
v 0.455000 0.599807 0.260000
vn -0.965909 0.224220 0.129407
f 501/1/126 502/2/126 503/3/126 504/4/126
v 0.455000 0.599807 0.260000
v 0.455000 0.640229 0.190000
v 0.461029 0.620237 0.179676
v 0.461029 0.580585 0.248306
vn -0.965909 -0.224189 -0.129458
f 505/1/127 506/2/127 507/3/127 508/4/127
v 0.461029 0.580585 0.248306
v 0.461029 0.620237 0.179676
v 0.477500 0.605602 0.172118
v 0.477500 0.566513 0.239746
vn -0.707016 -0.612340 -0.353790
f 509/1/128 510/2/128 511/3/128 512/4/128
v 0.477500 0.566513 0.239746
v 0.477500 0.605602 0.172118
v 0.500000 0.600246 0.169352
v 0.500000 0.561362 0.236612
vn -0.258758 -0.836292 -0.483384
f 513/1/129 514/2/129 515/3/129 516/4/129
v 0.500000 0.561362 0.236612
v 0.500000 0.600246 0.169352
v 0.522500 0.605602 0.172118
v 0.522500 0.566513 0.239746
vn 0.258759 -0.836259 -0.483441
f 517/1/130 518/2/130 519/3/130 520/4/130
v 0.522500 0.566513 0.239746
v 0.522500 0.605602 0.172118
v 0.538971 0.620237 0.179676
v 0.538971 0.580585 0.248306
vn 0.707018 -0.612275 -0.353900
f 521/1/131 522/2/131 523/3/131 524/4/131
v 0.538971 0.580585 0.248306
v 0.538971 0.620237 0.179676
v 0.545000 0.640229 0.190000
v 0.545000 0.599807 0.260000
vn 0.965909 -0.224157 -0.129511
f 525/1/132 526/2/132 527/3/132 528/4/132
v 0.545000 0.640229 0.190000
v 0.545000 0.672307 0.120000
v 0.538971 0.693382 0.127883
v 0.538971 0.660221 0.200324
vn 0.965854 0.235532 0.107936
f 529/1/133 530/2/133 531/3/133 532/4/133
v 0.538971 0.660221 0.200324
v 0.538971 0.693382 0.127883
v 0.522500 0.708809 0.133653
v 0.522500 0.674855 0.207882
vn 0.706709 0.643306 0.294482
f 533/1/134 534/2/134 535/3/134 536/4/134
v 0.522500 0.674855 0.207882
v 0.522500 0.708809 0.133653
v 0.500000 0.714456 0.135765
v 0.500000 0.680212 0.210648
vn 0.258545 0.878461 0.401822
f 537/1/135 538/2/135 539/3/135 540/4/135
v 0.500000 0.680212 0.210648
v 0.500000 0.714456 0.135765
v 0.477500 0.708809 0.133653
v 0.477500 0.674855 0.207882
vn -0.258543 0.878502 0.401733
f 541/1/136 542/2/136 543/3/136 544/4/136
v 0.477500 0.674855 0.207882
v 0.477500 0.708809 0.133653
v 0.461029 0.693382 0.127883
v 0.461029 0.660221 0.200324
vn -0.706705 0.643395 0.294299
f 545/1/137 546/2/137 547/3/137 548/4/137
v 0.461029 0.660221 0.200324
v 0.461029 0.693382 0.127883
v 0.455000 0.672307 0.120000
v 0.455000 0.640229 0.190000
vn -0.965853 0.235581 0.107840
f 549/1/138 550/2/138 551/3/138 552/4/138
v 0.455000 0.640229 0.190000
v 0.455000 0.672307 0.120000
v 0.461029 0.651233 0.112117
v 0.461029 0.620237 0.179676
vn -0.965854 -0.235532 -0.107936
f 553/1/139 554/2/139 555/3/139 556/4/139
v 0.461029 0.620237 0.179676
v 0.461029 0.651233 0.112117
v 0.477500 0.635806 0.106347
v 0.477500 0.605602 0.172118
vn -0.706724 -0.643039 -0.295029
f 557/1/140 558/2/140 559/3/140 560/4/140
v 0.477500 0.605602 0.172118
v 0.477500 0.635806 0.106347
v 0.500000 0.630159 0.104235
v 0.500000 0.600246 0.169352
vn -0.258561 -0.877855 -0.403133
f 561/1/141 562/2/141 563/3/141 564/4/141
v 0.500000 0.600246 0.169352
v 0.500000 0.630159 0.104235
v 0.522500 0.635806 0.106347
v 0.522500 0.605602 0.172118
vn 0.258563 -0.877802 -0.403248
f 565/1/142 566/2/142 567/3/142 568/4/142
v 0.522500 0.605602 0.172118
v 0.522500 0.635806 0.106347
v 0.538971 0.651233 0.112117
v 0.538971 0.620237 0.179676
vn 0.706729 -0.642932 -0.295250
f 569/1/143 570/2/143 571/3/143 572/4/143
v 0.538971 0.620237 0.179676
v 0.538971 0.651233 0.112117
v 0.545000 0.672307 0.120000
v 0.545000 0.640229 0.190000
vn 0.965856 -0.235479 -0.108039
f 573/1/144 574/2/144 575/3/144 576/4/144
v 0.545000 0.672307 0.120000
v 0.545000 0.692903 0.050000
v 0.538971 0.714983 0.054329
v 0.538971 0.693382 0.127883
vn 0.965759 0.248893 0.073230
f 577/1/145 578/2/145 579/3/145 580/4/145
v 0.538971 0.693382 0.127883
v 0.538971 0.714983 0.054329
v 0.522500 0.731146 0.057498
v 0.522500 0.708809 0.133653
vn 0.706182 0.679340 0.199509
f 581/1/146 582/2/146 583/3/146 584/4/146
v 0.522500 0.708809 0.133653
v 0.522500 0.731146 0.057498
v 0.500000 0.737063 0.058657
v 0.500000 0.714456 0.135765
vn 0.258182 0.927040 0.271915
f 585/1/147 586/2/147 587/3/147 588/4/147
v 0.500000 0.714456 0.135765
v 0.500000 0.737063 0.058657
v 0.477500 0.731146 0.057498
v 0.477500 0.708809 0.133653
vn -0.258180 0.927073 0.271806
f 589/1/148 590/2/148 591/3/148 592/4/148
v 0.477500 0.708809 0.133653
v 0.477500 0.731146 0.057498
v 0.461029 0.714983 0.054329
v 0.461029 0.693382 0.127883
vn -0.706173 0.679416 0.199283
f 593/1/149 594/2/149 595/3/149 596/4/149
v 0.461029 0.693382 0.127883
v 0.461029 0.714983 0.054329
v 0.455000 0.692903 0.050000
v 0.455000 0.672307 0.120000
vn -0.965756 0.248938 0.073108
f 597/1/150 598/2/150 599/3/150 600/4/150
v 0.455000 0.672307 0.120000
v 0.455000 0.692903 0.050000
v 0.461029 0.670824 0.045671
v 0.461029 0.651233 0.112117
vn -0.965759 -0.248893 -0.073230
f 601/1/151 602/2/151 603/3/151 604/4/151
v 0.461029 0.651233 0.112117
v 0.461029 0.670824 0.045671
v 0.477500 0.654660 0.042502
v 0.477500 0.635806 0.106347
vn -0.706209 -0.679104 -0.200218
f 605/1/152 606/2/152 607/3/152 608/4/152
v 0.477500 0.635806 0.106347
v 0.477500 0.654660 0.042502
v 0.500000 0.648744 0.041343
v 0.500000 0.630159 0.104235
vn -0.258214 -0.926532 -0.273614
f 609/1/153 610/2/153 611/3/153 612/4/153
v 0.500000 0.630159 0.104235
v 0.500000 0.648744 0.041343
v 0.522500 0.654660 0.042502
v 0.522500 0.635806 0.106347
vn 0.258217 -0.926484 -0.273773
f 613/1/154 614/2/154 615/3/154 616/4/154
v 0.522500 0.635806 0.106347
v 0.522500 0.654660 0.042502
v 0.538971 0.670824 0.045671
v 0.538971 0.651233 0.112117
vn 0.706220 -0.679004 -0.200517
f 617/1/155 618/2/155 619/3/155 620/4/155
v 0.538971 0.651233 0.112117
v 0.538971 0.670824 0.045671
v 0.545000 0.692903 0.050000
v 0.545000 0.672307 0.120000
vn 0.965761 -0.248843 -0.073366
f 621/1/156 622/2/156 623/3/156 624/4/156
v 0.545000 0.692903 0.050000
v 0.545000 0.700000 -0.020000
v 0.538971 0.722455 -0.018573
v 0.538971 0.714983 0.054329
vn 0.965647 0.258531 0.026211
f 625/1/157 626/2/157 627/3/157 628/4/157
v 0.538971 0.714983 0.054329
v 0.538971 0.722455 -0.018573
v 0.522500 0.738893 -0.017529
v 0.522500 0.731146 0.057498
vn 0.705624 0.704893 0.072246
f 629/1/158 630/2/158 631/3/158 632/4/158
v 0.522500 0.731146 0.057498
v 0.522500 0.738893 -0.017529
v 0.500000 0.744909 -0.017147
v 0.500000 0.737063 0.058657
vn 0.257826 0.961082 0.099231
f 633/1/159 634/2/159 635/3/159 636/4/159
v 0.500000 0.737063 0.058657
v 0.500000 0.744909 -0.017147
v 0.477500 0.738893 -0.017529
v 0.477500 0.731146 0.057498
vn -0.257832 0.961055 0.099484
f 637/1/160 638/2/160 639/3/160 640/4/160
v 0.477500 0.731146 0.057498
v 0.477500 0.738893 -0.017529
v 0.461029 0.722455 -0.018573
v 0.461029 0.714983 0.054329
vn -0.705649 0.704815 0.072771
f 641/1/161 642/2/161 643/3/161 644/4/161
v 0.461029 0.714983 0.054329
v 0.461029 0.722455 -0.018573
v 0.455000 0.700000 -0.020000
v 0.455000 0.692903 0.050000
vn -0.965654 0.258478 0.026492
f 645/1/162 646/2/162 647/3/162 648/4/162
v 0.455000 0.692903 0.050000
v 0.455000 0.700000 -0.020000
v 0.461029 0.677545 -0.021427
v 0.461029 0.670824 0.045671
vn -0.965647 -0.258531 -0.026211
f 649/1/163 650/2/163 651/3/163 652/4/163
v 0.461029 0.670824 0.045671
v 0.461029 0.677545 -0.021427
v 0.477500 0.661107 -0.022471
v 0.477500 0.654660 0.042502
vn -0.705549 -0.705132 -0.070639
f 653/1/164 654/2/164 655/3/164 656/4/164
v 0.477500 0.654660 0.042502
v 0.477500 0.661107 -0.022471
v 0.500000 0.655091 -0.022853
v 0.500000 0.648744 0.041343
vn -0.257737 -0.961493 -0.095407
f 657/1/165 658/2/165 659/3/165 660/4/165
v 0.500000 0.648744 0.041343
v 0.500000 0.655091 -0.022853
v 0.522500 0.661107 -0.022471
v 0.522500 0.654660 0.042502
vn 0.257729 -0.961530 -0.095062
f 661/1/166 662/2/166 663/3/166 664/4/166
v 0.522500 0.654660 0.042502
v 0.522500 0.661107 -0.022471
v 0.538971 0.677545 -0.021427
v 0.538971 0.670824 0.045671
vn 0.705518 -0.705229 -0.069979
f 665/1/167 666/2/167 667/3/167 668/4/167
v 0.538971 0.670824 0.045671
v 0.538971 0.677545 -0.021427
v 0.545000 0.700000 -0.020000
v 0.545000 0.692903 0.050000
vn 0.965640 -0.258589 -0.025905
f 669/1/168 670/2/168 671/3/168 672/4/168
v 0.545000 0.700000 -0.020000
v 0.545000 0.850000 -5.820000
v 0.538971 0.872492 -5.819418
v 0.538971 0.722455 -0.018573
vn 0.965880 0.258903 0.006696
f 673/1/169 674/2/169 675/3/169 676/4/169
v 0.538971 0.722455 -0.018573
v 0.538971 0.872492 -5.819418
v 0.522500 0.888958 -5.818992
v 0.522500 0.738893 -0.017529
vn 0.706857 0.707120 0.018290
f 677/1/170 678/2/170 679/3/170 680/4/170
v 0.522500 0.738893 -0.017529
v 0.522500 0.888958 -5.818992
v 0.500000 0.894985 -5.818837
v 0.500000 0.744909 -0.017147
vn 0.258648 0.965649 0.024978
f 681/1/171 682/2/171 683/3/171 684/4/171
v 0.500000 0.744909 -0.017147
v 0.500000 0.894985 -5.818837
v 0.477500 0.888958 -5.818992
v 0.477500 0.738893 -0.017529
vn -0.258648 0.965648 0.024979
f 685/1/172 686/2/172 687/3/172 688/4/172
v 0.477500 0.738893 -0.017529
v 0.477500 0.888958 -5.818992
v 0.461029 0.872492 -5.819418
v 0.461029 0.722455 -0.018573
vn -0.706857 0.707120 0.018291
f 689/1/173 690/2/173 691/3/173 692/4/173
v 0.461029 0.722455 -0.018573
v 0.461029 0.872492 -5.819418
v 0.455000 0.850000 -5.820000
v 0.455000 0.700000 -0.020000
vn -0.965880 0.258903 0.006696
f 693/1/174 694/2/174 695/3/174 696/4/174
v 0.455000 0.700000 -0.020000
v 0.455000 0.850000 -5.820000
v 0.461029 0.827508 -5.820582
v 0.461029 0.677545 -0.021427
vn -0.965880 -0.258903 -0.006696
f 697/1/175 698/2/175 699/3/175 700/4/175
v 0.461029 0.677545 -0.021427
v 0.461029 0.827508 -5.820582
v 0.477500 0.811042 -5.821008
v 0.477500 0.661107 -0.022471
vn -0.706857 -0.707120 -0.018286
f 701/1/176 702/2/176 703/3/176 704/4/176
v 0.477500 0.661107 -0.022471
v 0.477500 0.811042 -5.821008
v 0.500000 0.805015 -5.821163
v 0.500000 0.655091 -0.022853
vn -0.258648 -0.965649 -0.024969
f 705/1/177 706/2/177 707/3/177 708/4/177
v 0.500000 0.655091 -0.022853
v 0.500000 0.805015 -5.821163
v 0.522500 0.811042 -5.821008
v 0.522500 0.661107 -0.022471
vn 0.258648 -0.965649 -0.024968
f 709/1/178 710/2/178 711/3/178 712/4/178
v 0.522500 0.661107 -0.022471
v 0.522500 0.811042 -5.821008
v 0.538971 0.827508 -5.820582
v 0.538971 0.677545 -0.021427
vn 0.706857 -0.707120 -0.018284
f 713/1/179 714/2/179 715/3/179 716/4/179
v 0.538971 0.677545 -0.021427
v 0.538971 0.827508 -5.820582
v 0.545000 0.850000 -5.820000
v 0.545000 0.700000 -0.020000
vn 0.965880 -0.258903 -0.006695
f 717/1/180 718/2/180 719/3/180 720/4/180
v 0.545000 0.850000 -5.820000
v 0.500000 0.894985 -5.818837
v 0.522500 0.888958 -5.818992
v 0.538971 0.872492 -5.819418
vn -0.000000 0.025853 -0.999666
f 721/1/181 722/2/181 723/3/181 724/4/181
v 0.545000 0.850000 -5.820000
v 0.461029 0.872492 -5.819418
v 0.477500 0.888958 -5.818992
v 0.500000 0.894985 -5.818837
vn 0.000000 0.025853 -0.999666
f 725/1/182 726/2/182 727/3/182 728/4/182
v 0.545000 0.850000 -5.820000
v 0.461029 0.827508 -5.820582
v 0.455000 0.850000 -5.820000
v 0.461029 0.872492 -5.819418
vn 0.000000 0.025853 -0.999666
f 729/1/183 730/2/183 731/3/183 732/4/183
v 0.545000 0.850000 -5.820000
v 0.500000 0.805015 -5.821163
v 0.477500 0.811042 -5.821008
v 0.461029 0.827508 -5.820582
vn 0.000000 0.025853 -0.999666
f 733/1/184 734/2/184 735/3/184 736/4/184
v 0.545000 0.850000 -5.820000
v 0.538971 0.827508 -5.820582
v 0.522500 0.811042 -5.821008
v 0.500000 0.805015 -5.821163
vn 0.000000 0.025853 -0.999666
f 737/1/185 738/2/185 739/3/185 740/4/185
v 0.534000 0.849741 -5.810000
v 0.534000 0.850000 -6.000000
v 0.529445 0.867000 -5.999977
v 0.529445 0.866741 -5.809977
vn 0.965926 0.258819 0.000352
f 741/1/186 742/2/186 743/3/186 744/4/186
v 0.529445 0.866741 -5.809977
v 0.529445 0.867000 -5.999977
v 0.517000 0.879445 -5.999960
v 0.517000 0.879186 -5.809960
vn 0.707107 0.707106 0.000962
f 745/1/187 746/2/187 747/3/187 748/4/187
v 0.517000 0.879186 -5.809960
v 0.517000 0.879445 -5.999960
v 0.500000 0.884000 -5.999954
v 0.500000 0.883741 -5.809954
vn 0.258819 0.965925 0.001315
f 749/1/188 750/2/188 751/3/188 752/4/188
v 0.500000 0.883741 -5.809954
v 0.500000 0.884000 -5.999954
v 0.483000 0.879445 -5.999960
v 0.483000 0.879186 -5.809960
vn -0.258819 0.965925 0.001315
f 753/1/189 754/2/189 755/3/189 756/4/189
v 0.483000 0.879186 -5.809960
v 0.483000 0.879445 -5.999960
v 0.470555 0.867000 -5.999977
v 0.470555 0.866741 -5.809977
vn -0.707107 0.707106 0.000962
f 757/1/190 758/2/190 759/3/190 760/4/190
v 0.470555 0.866741 -5.809977
v 0.470555 0.867000 -5.999977
v 0.466000 0.850000 -6.000000
v 0.466000 0.849741 -5.810000
vn -0.965926 0.258819 0.000352
f 761/1/191 762/2/191 763/3/191 764/4/191
v 0.466000 0.849741 -5.810000
v 0.466000 0.850000 -6.000000
v 0.470555 0.833000 -6.000023
v 0.470555 0.832741 -5.810023
vn -0.965926 -0.258819 -0.000352
f 765/1/192 766/2/192 767/3/192 768/4/192
v 0.470555 0.832741 -5.810023
v 0.470555 0.833000 -6.000023
v 0.483000 0.820555 -6.000040
v 0.483000 0.820297 -5.810040
vn -0.707107 -0.707106 -0.000962
f 769/1/193 770/2/193 771/3/193 772/4/193
v 0.483000 0.820297 -5.810040
v 0.483000 0.820555 -6.000040
v 0.500000 0.816000 -6.000046
v 0.500000 0.815741 -5.810046
vn -0.258819 -0.965925 -0.001315
f 773/1/194 774/2/194 775/3/194 776/4/194
v 0.500000 0.815741 -5.810046
v 0.500000 0.816000 -6.000046
v 0.517000 0.820555 -6.000040
v 0.517000 0.820297 -5.810040
vn 0.258819 -0.965925 -0.001315
f 777/1/195 778/2/195 779/3/195 780/4/195
v 0.517000 0.820297 -5.810040
v 0.517000 0.820555 -6.000040
v 0.529445 0.833000 -6.000023
v 0.529445 0.832741 -5.810023
vn 0.707107 -0.707106 -0.000962
f 781/1/196 782/2/196 783/3/196 784/4/196
v 0.529445 0.832741 -5.810023
v 0.529445 0.833000 -6.000023
v 0.534000 0.850000 -6.000000
v 0.534000 0.849741 -5.810000
vn 0.965926 -0.258819 -0.000352
f 785/1/197 786/2/197 787/3/197 788/4/197
v 0.534000 0.850000 -6.000000
v 0.500000 0.884000 -5.999954
v 0.517000 0.879445 -5.999960
v 0.529445 0.867000 -5.999977
vn 0.000000 0.001361 -0.999999
f 789/1/198 790/2/198 791/3/198 792/4/198
v 0.534000 0.850000 -6.000000
v 0.470555 0.867000 -5.999977
v 0.483000 0.879445 -5.999960
v 0.500000 0.884000 -5.999954
vn -0.000000 0.001361 -0.999999
f 793/1/199 794/2/199 795/3/199 796/4/199
v 0.534000 0.850000 -6.000000
v 0.470555 0.833000 -6.000023
v 0.466000 0.850000 -6.000000
v 0.470555 0.867000 -5.999977
vn 0.000000 0.001361 -0.999999
f 797/1/200 798/2/200 799/3/200 800/4/200
v 0.534000 0.850000 -6.000000
v 0.500000 0.816000 -6.000046
v 0.483000 0.820555 -6.000040
v 0.470555 0.833000 -6.000023
vn 0.000000 0.001361 -0.999999
f 801/1/201 802/2/201 803/3/201 804/4/201
v 0.534000 0.850000 -6.000000
v 0.529445 0.833000 -6.000023
v 0.517000 0.820555 -6.000040
v 0.500000 0.816000 -6.000046
vn 0.000000 0.001361 -0.999999
f 805/1/202 806/2/202 807/3/202 808/4/202
v 0.522000 0.125000 0.890000
v 0.522000 0.675069 -0.100000
v 0.515556 0.688667 -0.092444
v 0.515556 0.138598 0.897556
vn 0.923880 0.334516 0.185865
f 809/1/203 810/2/203 811/3/203 812/4/203
v 0.515556 0.138598 0.897556
v 0.515556 0.688667 -0.092444
v 0.500000 0.694300 -0.089315
v 0.500000 0.144231 0.900685
vn 0.382683 0.807592 0.448719
f 813/1/204 814/2/204 815/3/204 816/4/204
v 0.500000 0.144231 0.900685
v 0.500000 0.694300 -0.089315
v 0.484444 0.688667 -0.092444
v 0.484444 0.138598 0.897556
vn -0.382683 0.807592 0.448719
f 817/1/205 818/2/205 819/3/205 820/4/205
v 0.484444 0.138598 0.897556
v 0.484444 0.688667 -0.092444
v 0.478000 0.675069 -0.100000
v 0.478000 0.125000 0.890000
vn -0.923880 0.334516 0.185865
f 821/1/206 822/2/206 823/3/206 824/4/206
v 0.478000 0.125000 0.890000
v 0.478000 0.675069 -0.100000
v 0.484444 0.661471 -0.107556
v 0.484444 0.111402 0.882444
vn -0.923880 -0.334516 -0.185865
f 825/1/207 826/2/207 827/3/207 828/4/207
v 0.484444 0.111402 0.882444
v 0.484444 0.661471 -0.107556
v 0.500000 0.655838 -0.110685
v 0.500000 0.105769 0.879315
vn -0.382683 -0.807592 -0.448719
f 829/1/208 830/2/208 831/3/208 832/4/208
v 0.500000 0.105769 0.879315
v 0.500000 0.655838 -0.110685
v 0.515556 0.661471 -0.107556
v 0.515556 0.111402 0.882444
vn 0.382683 -0.807592 -0.448719
f 833/1/209 834/2/209 835/3/209 836/4/209
v 0.515556 0.111402 0.882444
v 0.515556 0.661471 -0.107556
v 0.522000 0.675069 -0.100000
v 0.522000 0.125000 0.890000
vn 0.923880 -0.334516 -0.185865
f 837/1/210 838/2/210 839/3/210 840/4/210
v 0.522000 0.675069 -0.100000
v 0.484444 0.688667 -0.092444
v 0.500000 0.694300 -0.089315
v 0.515556 0.688667 -0.092444
vn 0.000000 0.485689 -0.874131
f 841/1/211 842/2/211 843/3/211 844/4/211
v 0.522000 0.675069 -0.100000
v 0.484444 0.661471 -0.107556
v 0.478000 0.675069 -0.100000
v 0.484444 0.688667 -0.092444
vn 0.000000 0.485689 -0.874131
f 845/1/212 846/2/212 847/3/212 848/4/212
v 0.522000 0.675069 -0.100000
v 0.515556 0.661471 -0.107556
v 0.500000 0.655838 -0.110685
v 0.484444 0.661471 -0.107556
vn 0.000000 0.485689 -0.874131
f 849/1/213 850/2/213 851/3/213 852/4/213
