# Generated by scripts/gen_pole_light_mounts.py
mtllib pole_light_mount.mtl
o pole_light_mount_4_right_wired
vt 0 0
vt 1 0
vt 1 1
vt 0 1
usemtl clamp
v 0.312500 0.062500 1.000000
v 0.687500 0.062500 1.000000
v 0.687500 0.937500 1.000000
v 0.312500 0.937500 1.000000
vn 0.000000 0.000000 1.000000
f 1/1/1 2/2/1 3/3/1 4/4/1
v 0.687500 0.062500 0.900000
v 0.312500 0.062500 0.900000
v 0.312500 0.937500 0.900000
v 0.687500 0.937500 0.900000
vn 0.000000 0.000000 -1.000000
f 5/1/2 6/2/2 7/3/2 8/4/2
v 0.687500 0.062500 1.000000
v 0.687500 0.062500 0.900000
v 0.687500 0.937500 0.900000
v 0.687500 0.937500 1.000000
vn 1.000000 -0.000000 0.000000
f 9/1/3 10/2/3 11/3/3 12/4/3
v 0.312500 0.062500 0.900000
v 0.312500 0.062500 1.000000
v 0.312500 0.937500 1.000000
v 0.312500 0.937500 0.900000
vn -1.000000 0.000000 0.000000
f 13/1/4 14/2/4 15/3/4 16/4/4
v 0.312500 0.937500 1.000000
v 0.687500 0.937500 1.000000
v 0.687500 0.937500 0.900000
v 0.312500 0.937500 0.900000
vn -0.000000 1.000000 0.000000
f 17/1/5 18/2/5 19/3/5 20/4/5
v 0.312500 0.062500 0.900000
v 0.687500 0.062500 0.900000
v 0.687500 0.062500 1.000000
v 0.312500 0.062500 1.000000
vn 0.000000 -1.000000 0.000000
f 21/1/6 22/2/6 23/3/6 24/4/6
v 0.406250 0.312500 0.900000
v 0.593750 0.312500 0.900000
v 0.593750 0.531250 0.900000
v 0.406250 0.531250 0.900000
vn 0.000000 0.000000 1.000000
f 25/1/7 26/2/7 27/3/7 28/4/7
v 0.593750 0.312500 0.800000
v 0.406250 0.312500 0.800000
v 0.406250 0.531250 0.800000
v 0.593750 0.531250 0.800000
vn 0.000000 0.000000 -1.000000
f 29/1/8 30/2/8 31/3/8 32/4/8
v 0.593750 0.312500 0.900000
v 0.593750 0.312500 0.800000
v 0.593750 0.531250 0.800000
v 0.593750 0.531250 0.900000
vn 1.000000 -0.000000 0.000000
f 33/1/9 34/2/9 35/3/9 36/4/9
v 0.406250 0.312500 0.800000
v 0.406250 0.312500 0.900000
v 0.406250 0.531250 0.900000
v 0.406250 0.531250 0.800000
vn -1.000000 0.000000 0.000000
f 37/1/10 38/2/10 39/3/10 40/4/10
v 0.406250 0.531250 0.900000
v 0.593750 0.531250 0.900000
v 0.593750 0.531250 0.800000
v 0.406250 0.531250 0.800000
vn -0.000000 1.000000 0.000000
f 41/1/11 42/2/11 43/3/11 44/4/11
v 0.406250 0.312500 0.800000
v 0.593750 0.312500 0.800000
v 0.593750 0.312500 0.900000
v 0.406250 0.312500 0.900000
vn 0.000000 -1.000000 0.000000
f 45/1/12 46/2/12 47/3/12 48/4/12
v 0.468750 0.125000 0.900000
v 0.531250 0.125000 0.900000
v 0.531250 0.187500 0.900000
v 0.468750 0.187500 0.900000
vn 0.000000 0.000000 1.000000
f 49/1/13 50/2/13 51/3/13 52/4/13
v 0.531250 0.125000 0.880000
v 0.468750 0.125000 0.880000
v 0.468750 0.187500 0.880000
v 0.531250 0.187500 0.880000
vn 0.000000 0.000000 -1.000000
f 53/1/14 54/2/14 55/3/14 56/4/14
v 0.531250 0.125000 0.900000
v 0.531250 0.125000 0.880000
v 0.531250 0.187500 0.880000
v 0.531250 0.187500 0.900000
vn 1.000000 -0.000000 0.000000
f 57/1/15 58/2/15 59/3/15 60/4/15
v 0.468750 0.125000 0.880000
v 0.468750 0.125000 0.900000
v 0.468750 0.187500 0.900000
v 0.468750 0.187500 0.880000
vn -1.000000 0.000000 0.000000
f 61/1/16 62/2/16 63/3/16 64/4/16
v 0.468750 0.187500 0.900000
v 0.531250 0.187500 0.900000
v 0.531250 0.187500 0.880000
v 0.468750 0.187500 0.880000
vn -0.000000 1.000000 0.000000
f 65/1/17 66/2/17 67/3/17 68/4/17
v 0.468750 0.125000 0.880000
v 0.531250 0.125000 0.880000
v 0.531250 0.125000 0.900000
v 0.468750 0.125000 0.900000
vn 0.000000 -1.000000 0.000000
f 69/1/18 70/2/18 71/3/18 72/4/18
v 0.468750 0.812500 0.900000
v 0.531250 0.812500 0.900000
v 0.531250 0.875000 0.900000
v 0.468750 0.875000 0.900000
vn 0.000000 0.000000 1.000000
f 73/1/19 74/2/19 75/3/19 76/4/19
v 0.531250 0.812500 0.880000
v 0.468750 0.812500 0.880000
v 0.468750 0.875000 0.880000
v 0.531250 0.875000 0.880000
vn 0.000000 0.000000 -1.000000
f 77/1/20 78/2/20 79/3/20 80/4/20
v 0.531250 0.812500 0.900000
v 0.531250 0.812500 0.880000
v 0.531250 0.875000 0.880000
v 0.531250 0.875000 0.900000
vn 1.000000 -0.000000 0.000000
f 81/1/21 82/2/21 83/3/21 84/4/21
v 0.468750 0.812500 0.880000
v 0.468750 0.812500 0.900000
v 0.468750 0.875000 0.900000
v 0.468750 0.875000 0.880000
vn -1.000000 0.000000 0.000000
f 85/1/22 86/2/22 87/3/22 88/4/22
v 0.468750 0.875000 0.900000
v 0.531250 0.875000 0.900000
v 0.531250 0.875000 0.880000
v 0.468750 0.875000 0.880000
vn -0.000000 1.000000 0.000000
f 89/1/23 90/2/23 91/3/23 92/4/23
v 0.468750 0.812500 0.880000
v 0.531250 0.812500 0.880000
v 0.531250 0.812500 0.900000
v 0.468750 0.812500 0.900000
vn 0.000000 -1.000000 0.000000
f 93/1/24 94/2/24 95/3/24 96/4/24
usemtl metal
v 0.545000 0.410000 0.860000
v 0.541972 0.410000 0.816227
v 0.536349 0.432500 0.814053
v 0.538971 0.432500 0.860000
vn 0.963777 0.258243 -0.066659
f 97/1/25 98/2/25 99/3/25 100/4/25
v 0.538971 0.432500 0.860000
v 0.536349 0.432500 0.814053
v 0.520986 0.448971 0.808113
v 0.522500 0.448971 0.860000
vn 0.706532 0.706532 -0.040317
f 101/1/26 102/2/26 103/3/26 104/4/26
v 0.522500 0.448971 0.860000
v 0.520986 0.448971 0.808113
v 0.500000 0.455000 0.800000
v 0.500000 0.455000 0.860000
vn 0.258812 0.965898 -0.007551
f 105/1/27 106/2/27 107/3/27 108/4/27
v 0.500000 0.455000 0.860000
v 0.500000 0.455000 0.800000
v 0.479014 0.448971 0.791887
v 0.477500 0.448971 0.860000
vn -0.258819 0.965926 0.000000
f 109/1/28 110/2/28 111/3/28 112/4/28
v 0.477500 0.448971 0.860000
v 0.479014 0.448971 0.791887
v 0.463651 0.432500 0.785947
v 0.461029 0.432500 0.860000
vn -0.707019 0.707019 -0.015713
f 113/1/29 114/2/29 115/3/29 116/4/29
v 0.461029 0.432500 0.860000
v 0.463651 0.432500 0.785947
v 0.458028 0.410000 0.783773
v 0.455000 0.410000 0.860000
vn -0.965361 0.258668 -0.034179
f 117/1/30 118/2/30 119/3/30 120/4/30
v 0.455000 0.410000 0.860000
v 0.458028 0.410000 0.783773
v 0.463651 0.387500 0.785947
v 0.461029 0.387500 0.860000
vn -0.965216 -0.258629 -0.038336
f 121/1/31 122/2/31 123/3/31 124/4/31
v 0.461029 0.387500 0.860000
v 0.463651 0.387500 0.785947
v 0.479014 0.371029 0.791887
v 0.477500 0.371029 0.860000
vn -0.706885 -0.706885 -0.025028
f 125/1/32 126/2/32 127/3/32 128/4/32
v 0.477500 0.371029 0.860000
v 0.479014 0.371029 0.791887
v 0.500000 0.365000 0.800000
v 0.500000 0.365000 0.860000
vn -0.258815 -0.965910 -0.005752
f 129/1/33 130/2/33 131/3/33 132/4/33
v 0.500000 0.365000 0.860000
v 0.500000 0.365000 0.800000
v 0.520986 0.371029 0.808113
v 0.522500 0.371029 0.860000
vn 0.258819 -0.965926 0.000000
f 133/1/34 134/2/34 135/3/34 136/4/34
v 0.522500 0.371029 0.860000
v 0.520986 0.371029 0.808113
v 0.536349 0.387500 0.814053
v 0.538971 0.387500 0.860000
vn 0.706956 -0.706956 -0.020625
f 137/1/35 138/2/35 139/3/35 140/4/35
v 0.538971 0.387500 0.860000
v 0.536349 0.387500 0.814053
v 0.541972 0.410000 0.816227
v 0.545000 0.410000 0.860000
vn 0.964462 -0.258427 -0.055036
f 141/1/36 142/2/36 143/3/36 144/4/36
v 0.541972 0.410000 0.816227
v 0.614018 0.410000 0.741477
v 0.608793 0.432471 0.738263
v 0.536349 0.432500 0.814053
vn 0.699002 0.239792 0.673718
f 145/1/37 146/2/37 147/3/37 148/4/37
v 0.536349 0.432500 0.814053
v 0.608793 0.432471 0.738263
v 0.596046 0.448921 0.727798
v 0.520986 0.448971 0.808113
vn 0.531193 0.678452 0.507481
f 149/1/38 150/2/38 151/3/38 152/4/38
v 0.520986 0.448971 0.808113
v 0.596046 0.448921 0.727798
v 0.579192 0.454943 0.712889
v 0.500000 0.455000 0.800000
vn 0.202921 0.960773 0.189047
f 153/1/39 154/2/39 155/3/39 156/4/39
v 0.500000 0.455000 0.800000
v 0.579192 0.454943 0.712889
v 0.562748 0.448921 0.697528
v 0.479014 0.448971 0.791887
vn -0.204113 0.961078 -0.186190
f 157/1/40 158/2/40 159/3/40 160/4/40
v 0.479014 0.448971 0.791887
v 0.562748 0.448921 0.697528
v 0.551120 0.432471 0.685833
v 0.463651 0.432500 0.785947
vn -0.545661 0.683690 -0.484585
f 161/1/41 162/2/41 163/3/41 164/4/41
v 0.463651 0.432500 0.785947
v 0.551120 0.432471 0.685833
v 0.547423 0.410000 0.680937
v 0.458028 0.410000 0.783773
vn -0.730238 0.244154 -0.638077
f 165/1/42 166/2/42 167/3/42 168/4/42
v 0.458028 0.410000 0.783773
v 0.547423 0.410000 0.680937
v 0.552649 0.387529 0.684152
v 0.463651 0.387500 0.785947
vn -0.731823 -0.244367 -0.636176
f 169/1/43 170/2/43 171/3/43 172/4/43
v 0.463651 0.387500 0.785947
v 0.552649 0.387529 0.684152
v 0.565396 0.371079 0.694616
v 0.479014 0.371029 0.791887
vn -0.548593 -0.684705 -0.479818
f 173/1/44 174/2/44 175/3/44 176/4/44
v 0.479014 0.371029 0.791887
v 0.565396 0.371079 0.694616
v 0.582249 0.365057 0.709526
v 0.500000 0.365000 0.800000
vn -0.205461 -0.961413 -0.182953
f 177/1/45 178/2/45 179/3/45 180/4/45
v 0.500000 0.365000 0.800000
v 0.582249 0.365057 0.709526
v 0.598693 0.371079 0.724886
v 0.520986 0.371029 0.808113
vn 0.204489 -0.961172 0.185289
f 181/1/46 182/2/46 183/3/46 184/4/46
v 0.520986 0.371029 0.808113
v 0.598693 0.371079 0.724886
v 0.610321 0.387529 0.736581
v 0.536349 0.387500 0.814053
vn 0.535978 -0.680225 0.500021
f 185/1/47 186/2/47 187/3/47 188/4/47
v 0.536349 0.387500 0.814053
v 0.610321 0.387529 0.736581
v 0.614018 0.410000 0.741477
v 0.541972 0.410000 0.816227
vn 0.702116 -0.240241 0.670312
f 189/1/48 190/2/48 191/3/48 192/4/48
v 0.614018 0.410000 0.741477
v 0.661105 0.417097 0.689682
v 0.653732 0.439176 0.688829
v 0.608793 0.432471 0.738263
vn 0.697084 0.257806 0.669036
f 193/1/49 194/2/49 195/3/49 196/4/49
v 0.608793 0.432471 0.738263
v 0.653732 0.439176 0.688829
v 0.639413 0.455340 0.680094
v 0.596046 0.448921 0.727798
vn 0.475366 0.704003 0.527642
f 197/1/50 198/2/50 199/3/50 200/4/50
v 0.596046 0.448921 0.727798
v 0.639413 0.455340 0.680094
v 0.621984 0.461256 0.665817
v 0.579192 0.454943 0.712889
vn 0.126924 0.961250 0.244720
f 201/1/51 202/2/51 203/3/51 204/4/51
v 0.579192 0.454943 0.712889
v 0.621984 0.461256 0.665817
v 0.606116 0.455340 0.649824
v 0.562748 0.448921 0.697528
vn -0.255477 0.961279 -0.103317
f 205/1/52 206/2/52 207/3/52 208/4/52
v 0.562748 0.448921 0.697528
v 0.606116 0.455340 0.649824
v 0.596060 0.439176 0.636400
v 0.551120 0.432471 0.685833
vn -0.570056 0.704046 -0.423505
f 209/1/53 210/2/53 211/3/53 212/4/53
v 0.551120 0.432471 0.685833
v 0.596060 0.439176 0.636400
v 0.594511 0.417097 0.629141
v 0.547423 0.410000 0.680937
vn -0.732075 0.257820 -0.630552
f 213/1/54 214/2/54 215/3/54 216/4/54
v 0.547423 0.410000 0.680937
v 0.594511 0.417097 0.629141
v 0.601883 0.395017 0.629994
v 0.552649 0.387529 0.684152
vn -0.697084 -0.257806 -0.669036
f 217/1/55 218/2/55 219/3/55 220/4/55
v 0.552649 0.387529 0.684152
v 0.601883 0.395017 0.629994
v 0.616203 0.378854 0.638729
v 0.565396 0.371079 0.694616
vn -0.474426 -0.703900 -0.528625
f 221/1/56 222/2/56 223/3/56 224/4/56
v 0.565396 0.371079 0.694616
v 0.616203 0.378854 0.638729
v 0.633631 0.372937 0.653005
v 0.582249 0.365057 0.709526
vn -0.124728 -0.960935 -0.247075
f 225/1/57 226/2/57 227/3/57 228/4/57
v 0.582249 0.365057 0.709526
v 0.633631 0.372937 0.653005
v 0.649500 0.378854 0.668999
v 0.598693 0.371079 0.724886
vn 0.257948 -0.960914 0.100528
f 229/1/58 230/2/58 231/3/58 232/4/58
v 0.598693 0.371079 0.724886
v 0.649500 0.378854 0.668999
v 0.659556 0.395017 0.682423
v 0.610321 0.387529 0.736581
vn 0.571602 -0.703866 0.421715
f 233/1/59 234/2/59 235/3/59 236/4/59
v 0.610321 0.387529 0.736581
v 0.659556 0.395017 0.682423
v 0.661105 0.417097 0.689682
v 0.614018 0.410000 0.741477
vn 0.732406 -0.257793 0.630178
f 237/1/60 238/2/60 239/3/60 240/4/60
v 0.661105 0.417097 0.689682
v 0.708192 0.437693 0.637886
v 0.698429 0.458767 0.639663
v 0.653732 0.439176 0.688829
vn 0.665182 0.249290 0.703837
f 241/1/61 242/2/61 243/3/61 244/4/61
v 0.653732 0.439176 0.688829
v 0.698429 0.458767 0.639663
v 0.682360 0.474194 0.632853
v 0.639413 0.455340 0.680094
vn 0.387278 0.679714 0.622900
f 245/1/62 246/2/62 247/3/62 248/4/62
v 0.639413 0.455340 0.680094
v 0.682360 0.474194 0.632853
v 0.664290 0.479841 0.619281
v 0.621984 0.461256 0.665817
vn 0.006653 0.926647 0.375873
f 249/1/63 250/2/63 251/3/63 252/4/63
v 0.621984 0.461256 0.665817
v 0.664290 0.479841 0.619281
v 0.649062 0.474194 0.602583
v 0.606116 0.455340 0.649824
vn -0.374909 0.926601 0.029214
f 253/1/64 254/2/64 255/3/64 256/4/64
v 0.606116 0.455340 0.649824
v 0.649062 0.474194 0.602583
v 0.640756 0.458767 0.587233
v 0.596060 0.439176 0.636400
vn -0.657077 0.679639 -0.326099
f 257/1/65 258/2/65 259/3/65 260/4/65
v 0.596060 0.439176 0.636400
v 0.640756 0.458767 0.587233
v 0.641598 0.437693 0.577345
v 0.594511 0.417097 0.629141
vn -0.763953 0.249262 -0.595185
f 261/1/66 262/2/66 263/3/66 264/4/66
v 0.594511 0.417097 0.629141
v 0.641598 0.437693 0.577345
v 0.651361 0.416618 0.575568
v 0.601883 0.395017 0.629994
vn -0.665182 -0.249290 -0.703837
f 265/1/67 266/2/67 267/3/67 268/4/67
v 0.601883 0.395017 0.629994
v 0.651361 0.416618 0.575568
v 0.667430 0.401191 0.582378
v 0.616203 0.378854 0.638729
vn -0.387792 -0.679892 -0.622386
f 269/1/68 270/2/68 271/3/68 272/4/68
v 0.616203 0.378854 0.638729
v 0.667430 0.401191 0.582378
v 0.685500 0.395544 0.595950
v 0.633631 0.372937 0.653005
vn -0.007830 -0.927138 -0.374639
f 273/1/69 274/2/69 275/3/69 276/4/69
v 0.633631 0.372937 0.653005
v 0.685500 0.395544 0.595950
v 0.700728 0.401191 0.612648
v 0.649500 0.378854 0.668999
vn 0.373617 -0.927169 -0.027722
f 277/1/70 278/2/70 279/3/70 280/4/70
v 0.649500 0.378854 0.668999
v 0.700728 0.401191 0.612648
v 0.709034 0.416618 0.627998
v 0.659556 0.395017 0.682423
vn 0.656271 -0.679949 0.327076
f 281/1/71 282/2/71 283/3/71 284/4/71
v 0.659556 0.395017 0.682423
v 0.709034 0.416618 0.627998
v 0.708192 0.437693 0.637886
v 0.661105 0.417097 0.689682
vn 0.763776 -0.249316 0.595389
f 285/1/72 286/2/72 287/3/72 288/4/72
v 0.708192 0.437693 0.637886
v 0.755279 0.469771 0.586090
v 0.743874 0.489763 0.589674
v 0.698429 0.458767 0.639663
vn 0.641898 0.235856 0.729616
f 289/1/73 290/2/73 291/3/73 292/4/73
v 0.698429 0.458767 0.639663
v 0.743874 0.489763 0.589674
v 0.726602 0.504398 0.584186
v 0.682360 0.474194 0.632853
vn 0.323924 0.643529 0.693501
f 293/1/74 294/2/74 295/3/74 296/4/74
v 0.682360 0.474194 0.632853
v 0.726602 0.504398 0.584186
v 0.708093 0.509754 0.571098
v 0.664290 0.479841 0.619281
vn -0.080165 0.877947 0.471998
f 297/1/75 298/2/75 299/3/75 300/4/75
v 0.664290 0.479841 0.619281
v 0.708093 0.509754 0.571098
v 0.693305 0.504398 0.553916
v 0.649062 0.474194 0.602583
vn -0.462321 0.877895 0.124740
f 301/1/76 302/2/76 303/3/76 304/4/76
v 0.649062 0.474194 0.602583
v 0.693305 0.504398 0.553916
v 0.686201 0.489763 0.537244
v 0.640756 0.458767 0.587233
vn -0.721289 0.643435 -0.256386
f 305/1/77 306/2/77 307/3/77 308/4/77
v 0.640756 0.458767 0.587233
v 0.686201 0.489763 0.537244
v 0.688685 0.469771 0.525550
v 0.641598 0.437693 0.577345
vn -0.787380 0.235815 -0.569582
f 309/1/78 310/2/78 311/3/78 312/4/78
v 0.641598 0.437693 0.577345
v 0.688685 0.469771 0.525550
v 0.700090 0.449779 0.521966
v 0.651361 0.416618 0.575568
vn -0.641898 -0.235856 -0.729616
f 313/1/79 314/2/79 315/3/79 316/4/79
v 0.651361 0.416618 0.575568
v 0.700090 0.449779 0.521966
v 0.717362 0.435145 0.527453
v 0.667430 0.401191 0.582378
vn -0.324319 -0.643763 -0.693099
f 317/1/80 318/2/80 319/3/80 320/4/80
v 0.667430 0.401191 0.582378
v 0.717362 0.435145 0.527453
v 0.735871 0.429788 0.540542
v 0.685500 0.395544 0.595950
vn 0.079261 -0.878543 -0.471042
f 321/1/81 322/2/81 323/3/81 324/4/81
v 0.685500 0.395544 0.595950
v 0.735871 0.429788 0.540542
v 0.750659 0.435145 0.557724
v 0.700728 0.401191 0.612648
vn 0.461320 -0.878583 -0.123594
f 325/1/82 326/2/82 327/3/82 328/4/82
v 0.700728 0.401191 0.612648
v 0.750659 0.435145 0.557724
v 0.757763 0.449779 0.574396
v 0.709034 0.416618 0.627998
vn 0.720659 -0.643841 0.257135
f 329/1/83 330/2/83 331/3/83 332/4/83
v 0.709034 0.416618 0.627998
v 0.757763 0.449779 0.574396
v 0.755279 0.469771 0.586090
v 0.708192 0.437693 0.637886
vn 0.787243 -0.235894 0.569739
f 333/1/84 334/2/84 335/3/84 336/4/84
v 0.755279 0.469771 0.586090
v 0.802366 0.510193 0.534294
v 0.790039 0.529415 0.538892
v 0.743874 0.489763 0.589674
vn 0.627523 0.224365 0.745570
f 337/1/85 338/2/85 339/3/85 340/4/85
v 0.743874 0.489763 0.589674
v 0.790039 0.529415 0.538892
v 0.772093 0.543487 0.534146
v 0.726602 0.504398 0.584186
vn 0.284838 0.612603 0.737282
f 341/1/86 342/2/86 343/3/86 344/4/86
v 0.726602 0.504398 0.584186
v 0.772093 0.543487 0.534146
v 0.753337 0.548638 0.521329
v 0.708093 0.509754 0.571098
vn -0.133869 0.836341 0.531614
f 345/1/87 346/2/87 347/3/87 348/4/87
v 0.708093 0.509754 0.571098
v 0.753337 0.548638 0.521329
v 0.738796 0.543487 0.503876
v 0.693305 0.504398 0.553916
vn -0.516526 0.836308 0.183821
f 349/1/88 350/2/88 351/3/88 352/4/88
v 0.693305 0.504398 0.553916
v 0.738796 0.543487 0.503876
v 0.732367 0.529415 0.486462
v 0.686201 0.489763 0.537244
vn -0.761085 0.612542 -0.213405
f 353/1/89 354/2/89 355/3/89 356/4/89
v 0.686201 0.489763 0.537244
v 0.732367 0.529415 0.486462
v 0.735772 0.510193 0.473754
v 0.688685 0.469771 0.525550
vn -0.801862 0.224337 -0.553797
f 357/1/90 358/2/90 359/3/90 360/4/90
v 0.688685 0.469771 0.525550
v 0.735772 0.510193 0.473754
v 0.748099 0.490970 0.469156
v 0.700090 0.449779 0.521966
vn -0.627523 -0.224365 -0.745570
f 361/1/91 362/2/91 363/3/91 364/4/91
v 0.700090 0.449779 0.521966
v 0.748099 0.490970 0.469156
v 0.766045 0.476898 0.473902
v 0.717362 0.435145 0.527453
vn -0.285039 -0.612762 -0.737072
f 365/1/92 366/2/92 367/3/92 368/4/92
v 0.717362 0.435145 0.527453
v 0.766045 0.476898 0.473902
v 0.784801 0.471748 0.486718
v 0.735871 0.429788 0.540542
vn 0.133403 -0.836731 -0.531116
f 369/1/93 370/2/93 371/3/93 372/4/93
v 0.735871 0.429788 0.540542
v 0.784801 0.471748 0.486718
v 0.799342 0.476898 0.504172
v 0.750659 0.435145 0.557724
vn 0.516004 -0.836759 -0.183231
f 373/1/94 374/2/94 375/3/94 376/4/94
v 0.750659 0.435145 0.557724
v 0.799342 0.476898 0.504172
v 0.805772 0.490970 0.521586
v 0.757763 0.449779 0.574396
vn 0.760756 -0.612818 0.213788
f 377/1/95 378/2/95 379/3/95 380/4/95
v 0.757763 0.449779 0.574396
v 0.805772 0.490970 0.521586
v 0.802366 0.510193 0.534294
v 0.755279 0.469771 0.586090
vn 0.801790 -0.224393 0.553877
f 381/1/96 382/2/96 383/3/96 384/4/96
v 0.802366 0.510193 0.534294
v 0.849454 0.555000 0.482498
v 0.836833 0.573950 0.487419
v 0.790039 0.529415 0.538892
vn 0.620831 0.218038 0.753013
f 385/1/97 386/2/97 387/3/97 388/4/97
v 0.790039 0.529415 0.538892
v 0.836833 0.573950 0.487419
v 0.818672 0.587823 0.482909
v 0.772093 0.543487 0.534146
vn 0.266654 0.595598 0.757733
f 389/1/98 390/2/98 391/3/98 392/4/98
v 0.772093 0.543487 0.534146
v 0.818672 0.587823 0.482909
v 0.799837 0.592900 0.470179
v 0.753337 0.548638 0.521329
vn -0.158903 0.813482 0.559461
f 393/1/99 394/2/99 395/3/99 396/4/99
v 0.753337 0.548638 0.521329
v 0.799837 0.592900 0.470179
v 0.785375 0.587823 0.452639
v 0.738796 0.543487 0.503876
vn -0.541841 0.813472 0.211357
f 397/1/100 398/2/100 399/3/100 400/4/100
v 0.738796 0.543487 0.503876
v 0.785375 0.587823 0.452639
v 0.779160 0.573950 0.434989
v 0.732367 0.529415 0.486462
vn -0.779663 0.595578 -0.193422
f 401/1/101 402/2/101 403/3/101 404/4/101
v 0.732367 0.529415 0.486462
v 0.779160 0.573950 0.434989
v 0.782859 0.555000 0.421958
v 0.735772 0.510193 0.473754
vn -0.808609 0.218029 -0.546457
f 405/1/102 406/2/102 407/3/102 408/4/102
v 0.735772 0.510193 0.473754
v 0.782859 0.555000 0.421958
v 0.795480 0.536050 0.417038
v 0.748099 0.490970 0.469156
vn -0.620831 -0.218038 -0.753013
f 409/1/103 410/2/103 411/3/103 412/4/103
v 0.748099 0.490970 0.469156
v 0.795480 0.536050 0.417038
v 0.813640 0.522177 0.421547
v 0.766045 0.476898 0.473902
vn -0.266712 -0.595651 -0.757671
f 413/1/104 414/2/104 415/3/104 416/4/104
v 0.766045 0.476898 0.473902
v 0.813640 0.522177 0.421547
v 0.832475 0.517100 0.434277
v 0.784801 0.471748 0.486718
vn 0.158768 -0.813610 -0.559314
f 417/1/105 418/2/105 419/3/105 420/4/105
v 0.784801 0.471748 0.486718
v 0.832475 0.517100 0.434277
v 0.846938 0.522177 0.451817
v 0.799342 0.476898 0.504172
vn 0.541687 -0.813619 -0.211186
f 421/1/106 422/2/106 423/3/106 424/4/106
v 0.799342 0.476898 0.504172
v 0.846938 0.522177 0.451817
v 0.853152 0.536050 0.469467
v 0.805772 0.490970 0.521586
vn 0.779566 -0.595670 0.193532
f 425/1/107 426/2/107 427/3/107 428/4/107
v 0.805772 0.490970 0.521586
v 0.853152 0.536050 0.469467
v 0.849454 0.555000 0.482498
v 0.802366 0.510193 0.534294
vn 0.808588 -0.218048 0.546480
f 429/1/108 430/2/108 431/3/108 432/4/108
v 0.849454 0.555000 0.482498
v 0.896541 0.599807 0.430703
v 0.884213 0.619030 0.435300
v 0.836833 0.573950 0.487419
vn 0.620867 0.217985 0.752999
f 433/1/109 434/2/109 435/3/109 436/4/109
v 0.836833 0.573950 0.487419
v 0.884213 0.619030 0.435300
v 0.866267 0.633102 0.430554
v 0.818672 0.587823 0.482909
vn 0.266813 0.595574 0.757696
f 437/1/110 438/2/110 439/3/110 440/4/110
v 0.818672 0.587823 0.482909
v 0.866267 0.633102 0.430554
v 0.847511 0.638252 0.417738
v 0.799837 0.592900 0.470179
vn -0.158716 0.813595 0.559349
f 441/1/111 442/2/111 443/3/111 444/4/111
v 0.799837 0.592900 0.470179
v 0.847511 0.638252 0.417738
v 0.832970 0.633102 0.400284
v 0.785375 0.587823 0.452639
vn -0.541727 0.813605 0.211137
f 445/1/112 446/2/112 447/3/112 448/4/112
v 0.785375 0.587823 0.452639
v 0.832970 0.633102 0.400284
v 0.826541 0.619030 0.382870
v 0.779160 0.573950 0.434989
vn -0.779600 0.595593 -0.193630
f 449/1/113 450/2/113 451/3/113 452/4/113
v 0.779160 0.573950 0.434989
v 0.826541 0.619030 0.382870
v 0.829946 0.599807 0.370162
v 0.782859 0.555000 0.421958
vn -0.808578 0.217995 -0.546517
f 453/1/114 454/2/114 455/3/114 456/4/114
v 0.782859 0.555000 0.421958
v 0.829946 0.599807 0.370162
v 0.842273 0.580585 0.365565
v 0.795480 0.536050 0.417038
vn -0.620867 -0.217985 -0.752999
f 457/1/115 458/2/115 459/3/115 460/4/115
v 0.795480 0.536050 0.417038
v 0.842273 0.580585 0.365565
v 0.860219 0.566513 0.370310
v 0.813640 0.522177 0.421547
vn -0.266756 -0.595520 -0.757758
f 461/1/116 462/2/116 463/3/116 464/4/116
v 0.813640 0.522177 0.421547
v 0.860219 0.566513 0.370310
v 0.878976 0.561362 0.383127
v 0.832475 0.517100 0.434277
vn 0.158850 -0.813468 -0.559497
f 465/1/117 466/2/117 467/3/117 468/4/117
v 0.832475 0.517100 0.434277
v 0.878976 0.561362 0.383127
v 0.893516 0.566513 0.400581
v 0.846938 0.522177 0.451817
vn 0.541882 -0.813458 -0.211308
f 469/1/118 470/2/118 471/3/118 472/4/118
v 0.846938 0.522177 0.451817
v 0.893516 0.566513 0.400581
v 0.899946 0.580585 0.417994
v 0.853152 0.536050 0.469467
vn 0.779698 -0.595500 0.193522
f 473/1/119 474/2/119 475/3/119 476/4/119
v 0.853152 0.536050 0.469467
v 0.899946 0.580585 0.417994
v 0.896541 0.599807 0.430703
v 0.849454 0.555000 0.482498
vn 0.808598 -0.217975 0.546494
f 477/1/120 478/2/120 479/3/120 480/4/120
v 0.896541 0.599807 0.430703
v 0.943628 0.640229 0.378907
v 0.932222 0.660221 0.382490
v 0.884213 0.619030 0.435300
vn 0.627632 0.224189 0.745532
f 481/1/121 482/2/121 483/3/121 484/4/121
v 0.884213 0.619030 0.435300
v 0.932222 0.660221 0.382490
v 0.914951 0.674855 0.377003
v 0.866267 0.633102 0.430554
vn 0.285354 0.612509 0.737160
f 485/1/122 486/2/122 487/3/122 488/4/122
v 0.866267 0.633102 0.430554
v 0.914951 0.674855 0.377003
v 0.896441 0.680212 0.363915
v 0.847511 0.638252 0.417738
vn -0.133240 0.836686 0.531229
f 489/1/123 490/2/123 491/3/123 492/4/123
v 0.847511 0.638252 0.417738
v 0.896441 0.680212 0.363915
v 0.881653 0.674855 0.346733
v 0.832970 0.633102 0.400284
vn -0.516131 0.836714 0.183080
f 493/1/124 494/2/124 495/3/124 496/4/124
v 0.832970 0.633102 0.400284
v 0.881653 0.674855 0.346733
v 0.874549 0.660221 0.330061
v 0.826541 0.619030 0.382870
vn -0.760872 0.612568 -0.214088
f 497/1/125 498/2/125 499/3/125 500/4/125
v 0.826541 0.619030 0.382870
v 0.874549 0.660221 0.330061
v 0.877033 0.640229 0.318366
v 0.829946 0.599807 0.370162
vn -0.801763 0.224220 -0.553987
f 501/1/126 502/2/126 503/3/126 504/4/126
v 0.829946 0.599807 0.370162
v 0.877033 0.640229 0.318366
v 0.888439 0.620237 0.314783
v 0.842273 0.580585 0.365565
vn -0.627632 -0.224189 -0.745532
f 505/1/127 506/2/127 507/3/127 508/4/127
v 0.842273 0.580585 0.365565
v 0.888439 0.620237 0.314783
v 0.905710 0.605602 0.320270
v 0.860219 0.566513 0.370310
vn -0.285165 -0.612340 -0.737374
f 509/1/128 510/2/128 511/3/128 512/4/128
v 0.860219 0.566513 0.370310
v 0.905710 0.605602 0.320270
v 0.924220 0.600246 0.333358
v 0.878976 0.561362 0.383127
vn 0.133694 -0.836292 -0.531735
f 513/1/129 514/2/129 515/3/129 516/4/129
v 0.878976 0.561362 0.383127
v 0.924220 0.600246 0.333358
v 0.939007 0.605602 0.350540
v 0.893516 0.566513 0.400581
vn 0.516663 -0.836259 -0.183657
f 517/1/130 518/2/130 519/3/130 520/4/130
v 0.893516 0.566513 0.400581
v 0.939007 0.605602 0.350540
v 0.946111 0.620237 0.367212
v 0.899946 0.580585 0.417994
vn 0.761210 -0.612275 0.213727
f 521/1/131 522/2/131 523/3/131 524/4/131
v 0.899946 0.580585 0.417994
v 0.946111 0.620237 0.367212
v 0.943628 0.640229 0.378907
v 0.896541 0.599807 0.430703
vn 0.801833 -0.224157 0.553911
f 525/1/132 526/2/132 527/3/132 528/4/132
v 0.943628 0.640229 0.378907
v 0.990715 0.672307 0.327111
v 0.980951 0.693382 0.328888
v 0.932222 0.660221 0.382490
vn 0.642069 0.235532 0.729570
f 529/1/133 530/2/133 531/3/133 532/4/133
v 0.932222 0.660221 0.382490
v 0.980951 0.693382 0.328888
v 0.964882 0.708809 0.322078
v 0.914951 0.674855 0.377003
vn 0.324833 0.643306 0.693283
f 533/1/134 534/2/134 535/3/134 536/4/134
v 0.914951 0.674855 0.377003
v 0.964882 0.708809 0.322078
v 0.946813 0.714456 0.308506
v 0.896441 0.680212 0.363915
vn -0.078987 0.878461 0.471240
f 537/1/135 538/2/135 539/3/135 540/4/135
v 0.896441 0.680212 0.363915
v 0.946813 0.714456 0.308506
v 0.931585 0.708809 0.291808
v 0.881653 0.674855 0.346733
vn -0.461541 0.878502 0.123343
f 541/1/136 542/2/136 543/3/136 544/4/136
v 0.881653 0.674855 0.346733
v 0.931585 0.708809 0.291808
v 0.923279 0.693382 0.276459
v 0.874549 0.660221 0.330061
vn -0.720886 0.643395 -0.257617
f 545/1/137 546/2/137 547/3/137 548/4/137
v 0.874549 0.660221 0.330061
v 0.923279 0.693382 0.276459
v 0.924120 0.672307 0.266570
v 0.877033 0.640229 0.318366
vn -0.787215 0.235581 -0.569908
f 549/1/138 550/2/138 551/3/138 552/4/138
v 0.877033 0.640229 0.318366
v 0.924120 0.672307 0.266570
v 0.933884 0.651233 0.264793
v 0.888439 0.620237 0.314783
vn -0.642069 -0.235532 -0.729570
f 553/1/139 554/2/139 555/3/139 556/4/139
v 0.888439 0.620237 0.314783
v 0.933884 0.651233 0.264793
v 0.949953 0.635806 0.271603
v 0.905710 0.605602 0.320270
vn -0.324475 -0.643039 -0.693698
f 557/1/140 558/2/140 559/3/140 560/4/140
v 0.905710 0.605602 0.320270
v 0.949953 0.635806 0.271603
v 0.968022 0.630159 0.285176
v 0.924220 0.600246 0.333358
vn 0.079857 -0.877855 -0.472221
f 561/1/141 562/2/141 563/3/141 564/4/141
v 0.924220 0.600246 0.333358
v 0.968022 0.630159 0.285176
v 0.983250 0.635806 0.301874
v 0.939007 0.605602 0.350540
vn 0.462575 -0.877802 -0.124451
f 565/1/142 566/2/142 567/3/142 568/4/142
v 0.939007 0.605602 0.350540
v 0.983250 0.635806 0.301874
v 0.991556 0.651233 0.317223
v 0.946111 0.620237 0.367212
vn 0.721544 -0.642932 0.256930
f 569/1/143 570/2/143 571/3/143 572/4/143
v 0.946111 0.620237 0.367212
v 0.991556 0.651233 0.317223
v 0.990715 0.672307 0.327111
v 0.943628 0.640229 0.378907
vn 0.787350 -0.235479 0.569762
f 573/1/144 574/2/144 575/3/144 576/4/144
v 0.990715 0.672307 0.327111
v 1.037802 0.692903 0.275315
v 1.030429 0.714983 0.274463
v 0.980951 0.693382 0.328888
vn 0.665343 0.248893 0.703826
f 577/1/145 578/2/145 579/3/145 580/4/145
v 0.980951 0.693382 0.328888
v 1.030429 0.714983 0.274463
v 1.016110 0.731146 0.265728
v 0.964882 0.708809 0.322078
vn 0.388328 0.679340 0.622654
f 581/1/146 582/2/146 583/3/146 584/4/146
v 0.964882 0.708809 0.322078
v 1.016110 0.731146 0.265728
v 0.998681 0.737063 0.251451
v 0.946813 0.714456 0.308506
vn 0.008130 0.927040 0.374873
f 585/1/147 586/2/147 587/3/147 588/4/147
v 0.946813 0.714456 0.308506
v 0.998681 0.737063 0.251451
v 0.982813 0.731146 0.235458
v 0.931585 0.708809 0.291808
vn -0.373875 0.927073 0.027449
f 589/1/148 590/2/148 591/3/148 592/4/148
v 0.931585 0.708809 0.291808
v 0.982813 0.731146 0.235458
v 0.972756 0.714983 0.222033
v 0.923279 0.693382 0.276459
vn -0.656578 0.679416 -0.327566
f 593/1/149 594/2/149 595/3/149 596/4/149
v 0.923279 0.693382 0.276459
v 0.972756 0.714983 0.222033
v 0.971207 0.692903 0.214775
v 0.924120 0.672307 0.266570
vn -0.763780 0.248938 -0.595542
f 597/1/150 598/2/150 599/3/150 600/4/150
v 0.924120 0.672307 0.266570
v 0.971207 0.692903 0.214775
v 0.978580 0.670824 0.215627
v 0.933884 0.651233 0.264793
vn -0.665343 -0.248893 -0.703826
f 601/1/151 602/2/151 603/3/151 604/4/151
v 0.933884 0.651233 0.264793
v 0.978580 0.670824 0.215627
v 0.992899 0.654660 0.224362
v 0.949953 0.635806 0.271603
vn -0.387871 -0.679104 -0.623197
f 605/1/152 606/2/152 607/3/152 608/4/152
v 0.949953 0.635806 0.271603
v 0.992899 0.654660 0.224362
v 1.010328 0.648744 0.238639
v 0.968022 0.630159 0.285176
vn -0.007010 -0.926532 -0.376152
f 609/1/153 610/2/153 611/3/153 612/4/153
v 0.968022 0.630159 0.285176
v 1.010328 0.648744 0.238639
v 1.026197 0.654660 0.254632
v 0.983250 0.635806 0.301874
vn 0.375225 -0.926484 -0.028880
f 613/1/154 614/2/154 615/3/154 616/4/154
v 0.983250 0.635806 0.301874
v 1.026197 0.654660 0.254632
v 1.036253 0.670824 0.268057
v 0.991556 0.651233 0.317223
vn 0.657442 -0.679004 0.326685
f 617/1/155 618/2/155 619/3/155 620/4/155
v 0.991556 0.651233 0.317223
v 1.036253 0.670824 0.268057
v 1.037802 0.692903 0.275315
v 0.990715 0.672307 0.327111
vn 0.763956 -0.248843 0.595355
f 621/1/156 622/2/156 623/3/156 624/4/156
v 1.037802 0.692903 0.275315
v 1.084889 0.700000 0.223519
v 1.079281 0.722435 0.220725
v 1.030429 0.714983 0.274463
vn 0.696890 0.258531 0.668959
f 625/1/157 626/2/157 627/3/157 628/4/157
v 1.030429 0.714983 0.274463
v 1.079281 0.722435 0.220725
v 1.066254 0.738859 0.210569
v 1.016110 0.731146 0.265728
vn 0.473467 0.704880 0.528179
f 629/1/158 630/2/158 631/3/158 632/4/158
v 1.016110 0.731146 0.265728
v 1.066254 0.738859 0.210569
v 1.049298 0.744871 0.195772
v 0.998681 0.737063 0.251451
vn 0.123891 0.961060 0.247012
f 633/1/159 634/2/159 635/3/159 636/4/159
v 0.998681 0.737063 0.251451
v 1.049298 0.744871 0.195772
v 1.032957 0.738859 0.180299
v 0.982813 0.731146 0.235458
vn -0.257864 0.961029 -0.099652
f 637/1/160 638/2/160 639/3/160 640/4/160
v 0.982813 0.731146 0.235458
v 1.032957 0.738859 0.180299
v 1.021609 0.722435 0.168296
v 0.972756 0.714983 0.222033
vn -0.571195 0.704793 -0.420718
f 641/1/161 642/2/161 643/3/161 644/4/161
v 0.972756 0.714983 0.222033
v 1.021609 0.722435 0.168296
v 1.018294 0.700000 0.162979
v 0.971207 0.692903 0.214775
vn -0.732368 0.258472 -0.629944
f 645/1/162 646/2/162 647/3/162 648/4/162
v 0.971207 0.692903 0.214775
v 1.018294 0.700000 0.162979
v 1.023902 0.677565 0.165773
v 0.978580 0.670824 0.215627
vn -0.696890 -0.258531 -0.668959
f 649/1/163 650/2/163 651/3/163 652/4/163
v 0.978580 0.670824 0.215627
v 1.023902 0.677565 0.165773
v 1.036929 0.661141 0.175929
v 0.992899 0.654660 0.224362
vn -0.474603 -0.705144 -0.526805
f 653/1/164 654/2/164 655/3/164 656/4/164
v 0.992899 0.654660 0.224362
v 1.036929 0.661141 0.175929
v 1.053885 0.655129 0.190726
v 1.010328 0.648744 0.238639
vn -0.126667 -0.961515 -0.243812
f 657/1/165 658/2/165 659/3/165 660/4/165
v 1.010328 0.648744 0.238639
v 1.053885 0.655129 0.190726
v 1.070226 0.661141 0.206200
v 1.026197 0.654660 0.254632
vn 0.254485 -0.961555 0.103199
f 661/1/166 662/2/166 663/3/166 664/4/166
v 1.026197 0.654660 0.254632
v 1.070226 0.661141 0.206200
v 1.081575 0.677565 0.218203
v 1.036253 0.670824 0.268057
vn 0.569007 -0.705251 0.422909
f 665/1/167 666/2/167 667/3/167 668/4/167
v 1.036253 0.670824 0.268057
v 1.081575 0.677565 0.218203
v 1.084889 0.700000 0.223519
v 1.037802 0.692903 0.275315
vn 0.731919 -0.258595 0.630415
f 669/1/168 670/2/168 671/3/168 672/4/168
v 1.084889 0.700000 0.223519
v 3.075880 0.850000 -1.966570
v 3.070653 0.872471 -1.969783
v 1.079281 0.722435 0.220725
vn 0.705898 0.258564 0.659434
f 673/1/169 674/2/169 675/3/169 676/4/169
v 1.079281 0.722435 0.220725
v 3.070653 0.872471 -1.969783
v 3.057904 0.888921 -1.980246
v 1.066254 0.738859 0.210569
vn 0.499054 0.706313 0.502063
f 677/1/170 678/2/170 679/3/170 680/4/170
v 1.066254 0.738859 0.210569
v 3.057904 0.888921 -1.980246
v 3.041050 0.894942 -1.995155
v 1.049298 0.744871 0.195772
vn 0.158564 0.964708 0.210228
f 681/1/171 682/2/171 683/3/171 684/4/171
v 1.049298 0.744871 0.195772
v 3.041050 0.894942 -1.995155
v 3.024607 0.888921 -2.010516
v 1.032957 0.738859 0.180299
vn -0.224344 0.964708 -0.137870
f 685/1/172 686/2/172 687/3/172 688/4/172
v 1.032957 0.738859 0.180299
v 3.024607 0.888921 -2.010516
v 3.012980 0.872471 -2.022213
v 1.021609 0.722435 0.168296
vn -0.547214 0.706312 -0.449088
f 689/1/173 690/2/173 691/3/173 692/4/173
v 1.021609 0.722435 0.168296
v 3.012980 0.872471 -2.022213
v 3.009285 0.850000 -2.027111
v 1.018294 0.700000 0.162979
vn -0.723527 0.258564 -0.640042
f 693/1/174 694/2/174 695/3/174 696/4/174
v 1.018294 0.700000 0.162979
v 3.009285 0.850000 -2.027111
v 3.014512 0.827529 -2.023898
v 1.023902 0.677565 0.165773
vn -0.705898 -0.258564 -0.659434
f 697/1/175 698/2/175 699/3/175 700/4/175
v 1.023902 0.677565 0.165773
v 3.014512 0.827529 -2.023898
v 3.027261 0.811079 -2.013435
v 1.036929 0.661141 0.175929
vn -0.499056 -0.706313 -0.502061
f 701/1/176 702/2/176 703/3/176 704/4/176
v 1.036929 0.661141 0.175929
v 3.027261 0.811079 -2.013435
v 3.044115 0.805058 -1.998526
v 1.053885 0.655129 0.190726
vn -0.158569 -0.964709 -0.210222
f 705/1/177 706/2/177 707/3/177 708/4/177
v 1.053885 0.655129 0.190726
v 3.044115 0.805058 -1.998526
v 3.060558 0.811079 -1.983165
v 1.070226 0.661141 0.206200
vn 0.224338 -0.964709 0.137877
f 709/1/178 710/2/178 711/3/178 712/4/178
v 1.070226 0.661141 0.206200
v 3.060558 0.811079 -1.983165
v 3.072185 0.827529 -1.971469
v 1.081575 0.677565 0.218203
vn 0.547210 -0.706313 0.449092
f 713/1/179 714/2/179 715/3/179 716/4/179
v 1.081575 0.677565 0.218203
v 3.072185 0.827529 -1.971469
v 3.075880 0.850000 -1.966570
v 1.084889 0.700000 0.223519
vn 0.723526 -0.258564 0.640043
f 717/1/180 718/2/180 719/3/180 720/4/180
v 3.075880 0.850000 -1.966570
v 3.041050 0.894942 -1.995155
v 3.057904 0.888921 -1.980246
v 3.070653 0.872471 -1.969783
vn 0.671811 0.050614 -0.738992
f 721/1/181 722/2/181 723/3/181 724/4/181
v 3.075880 0.850000 -1.966570
v 3.012980 0.872471 -2.022213
v 3.024607 0.888921 -2.010516
v 3.041050 0.894942 -1.995155
vn 0.671811 0.050614 -0.738992
f 725/1/182 726/2/182 727/3/182 728/4/182
v 3.075880 0.850000 -1.966570
v 3.014512 0.827529 -2.023898
v 3.009285 0.850000 -2.027111
v 3.012980 0.872471 -2.022213
vn 0.671811 0.050614 -0.738992
f 729/1/183 730/2/183 731/3/183 732/4/183
v 3.075880 0.850000 -1.966570
v 3.044115 0.805058 -1.998526
v 3.027261 0.811079 -2.013435
v 3.014512 0.827529 -2.023898
vn 0.671811 0.050614 -0.738992
f 733/1/184 734/2/184 735/3/184 736/4/184
v 3.075880 0.850000 -1.966570
v 3.072185 0.827529 -1.971469
v 3.060558 0.811079 -1.983165
v 3.044115 0.805058 -1.998526
vn 0.671811 0.050614 -0.738992
f 737/1/185 738/2/185 739/3/185 740/4/185
v 3.061014 0.849493 -1.966570
v 3.188822 0.850000 -2.107159
v 3.185421 0.867000 -2.110190
v 3.057613 0.866493 -1.969601
vn 0.714263 0.258818 0.650263
f 741/1/186 742/2/186 743/3/186 744/4/186
v 3.057613 0.866493 -1.969601
v 3.185421 0.867000 -2.110190
v 3.176190 0.879445 -2.118536
v 3.048382 0.878938 -1.977948
vn 0.521948 0.707104 0.477047
f 745/1/187 746/2/187 747/3/187 748/4/187
v 3.048382 0.878938 -1.977948
v 3.176190 0.879445 -2.118536
v 3.163603 0.884000 -2.129963
v 3.035795 0.883493 -1.989374
vn 0.189778 0.965922 0.176007
f 749/1/188 750/2/188 751/3/188 752/4/188
v 3.035795 0.883493 -1.989374
v 3.163603 0.884000 -2.129963
v 3.151032 0.879445 -2.141407
v 3.023224 0.878938 -2.000819
vn -0.193244 0.965922 -0.172194
f 753/1/189 754/2/189 755/3/189 756/4/189
v 3.023224 0.878938 -2.000819
v 3.151032 0.879445 -2.141407
v 3.141846 0.867000 -2.149803
v 3.014038 0.866493 -2.009215
vn -0.524485 0.707104 -0.474256
f 757/1/190 758/2/190 759/3/190 760/4/190
v 3.014038 0.866493 -2.009215
v 3.141846 0.867000 -2.149803
v 3.138506 0.850000 -2.152901
v 3.010698 0.849493 -2.012312
vn -0.715192 0.258818 -0.649241
f 761/1/191 762/2/191 763/3/191 764/4/191
v 3.010698 0.849493 -2.012312
v 3.138506 0.850000 -2.152901
v 3.141907 0.833000 -2.149870
v 3.014099 0.832493 -2.009282
vn -0.714263 -0.258818 -0.650263
f 765/1/192 766/2/192 767/3/192 768/4/192
v 3.014099 0.832493 -2.009282
v 3.141907 0.833000 -2.149870
v 3.151137 0.820555 -2.141524
v 3.023330 0.820048 -2.000935
vn -0.521948 -0.707104 -0.477047
f 769/1/193 770/2/193 771/3/193 772/4/193
v 3.023330 0.820048 -2.000935
v 3.151137 0.820555 -2.141524
v 3.163725 0.816000 -2.130097
v 3.035917 0.815493 -1.989508
vn -0.189778 -0.965922 -0.176007
f 773/1/194 774/2/194 775/3/194 776/4/194
v 3.035917 0.815493 -1.989508
v 3.163725 0.816000 -2.130097
v 3.176295 0.820555 -2.118653
v 3.048488 0.820048 -1.978064
vn 0.193244 -0.965922 0.172194
f 777/1/195 778/2/195 779/3/195 780/4/195
v 3.048488 0.820048 -1.978064
v 3.176295 0.820555 -2.118653
v 3.185482 0.833000 -2.110257
v 3.057674 0.832493 -1.969668
vn 0.524485 -0.707104 0.474256
f 781/1/196 782/2/196 783/3/196 784/4/196
v 3.057674 0.832493 -1.969668
v 3.185482 0.833000 -2.110257
v 3.188822 0.850000 -2.107159
v 3.061014 0.849493 -1.966570
vn 0.715192 -0.258818 0.649241
f 785/1/197 786/2/197 787/3/197 788/4/197
v 3.188822 0.850000 -2.107159
v 3.163603 0.884000 -2.129963
v 3.176190 0.879445 -2.118536
v 3.185421 0.867000 -2.110190
vn 0.672670 0.002667 -0.739937
f 789/1/198 790/2/198 791/3/198 792/4/198
v 3.188822 0.850000 -2.107159
v 3.141846 0.867000 -2.149803
v 3.151032 0.879445 -2.141407
v 3.163603 0.884000 -2.129963
vn 0.672670 0.002667 -0.739937
f 793/1/199 794/2/199 795/3/199 796/4/199
v 3.188822 0.850000 -2.107159
v 3.141907 0.833000 -2.149870
v 3.138506 0.850000 -2.152901
v 3.141846 0.867000 -2.149803
vn 0.672670 0.002667 -0.739937
f 797/1/200 798/2/200 799/3/200 800/4/200
v 3.188822 0.850000 -2.107159
v 3.163725 0.816000 -2.130097
v 3.151137 0.820555 -2.141524
v 3.141907 0.833000 -2.149870
vn 0.672670 0.002667 -0.739937
f 801/1/201 802/2/201 803/3/201 804/4/201
v 3.188822 0.850000 -2.107159
v 3.185482 0.833000 -2.110257
v 3.176295 0.820555 -2.118653
v 3.163725 0.816000 -2.130097
vn 0.672670 0.002667 -0.739937
f 805/1/202 806/2/202 807/3/202 808/4/202
v 0.517172 0.125000 0.903752
v 1.122577 0.677054 0.147806
v 1.112732 0.690569 0.149791
v 0.507327 0.138515 0.905737
vn 0.602663 0.332464 0.725441
f 809/1/203 810/2/203 811/3/203 812/4/203
v 0.507327 0.138515 0.905737
v 1.112732 0.690569 0.149791
v 1.098595 0.696167 0.142558
v 0.493190 0.144113 0.898504
vn 0.012705 0.802640 0.596329
f 813/1/204 814/2/204 815/3/204 816/4/204
v 0.493190 0.144113 0.898504
v 1.098595 0.696167 0.142558
v 1.088448 0.690569 0.130343
v 0.483042 0.138515 0.886289
vn -0.584696 0.802640 0.117895
f 817/1/205 818/2/205 819/3/205 820/4/205
v 0.483042 0.138515 0.886289
v 1.088448 0.690569 0.130343
v 1.088234 0.677054 0.120302
v 0.482828 0.125000 0.876248
vn -0.839590 0.332464 -0.429600
f 821/1/206 822/2/206 823/3/206 824/4/206
v 0.482828 0.125000 0.876248
v 1.088234 0.677054 0.120302
v 1.098079 0.663539 0.118317
v 0.492673 0.111485 0.874263
vn -0.602663 -0.332464 -0.725441
f 825/1/207 826/2/207 827/3/207 828/4/207
v 0.492673 0.111485 0.874263
v 1.098079 0.663539 0.118317
v 1.112216 0.657941 0.125550
v 0.506810 0.105887 0.881496
vn -0.012705 -0.802640 -0.596329
f 829/1/208 830/2/208 831/3/208 832/4/208
v 0.506810 0.105887 0.881496
v 1.112216 0.657941 0.125550
v 1.122364 0.663539 0.137765
v 0.516958 0.111485 0.893711
vn 0.584696 -0.802640 -0.117895
f 833/1/209 834/2/209 835/3/209 836/4/209
v 0.516958 0.111485 0.893711
v 1.122364 0.663539 0.137765
v 1.122577 0.677054 0.147806
v 0.517172 0.125000 0.903752
vn 0.839590 -0.332464 0.429600
f 837/1/210 838/2/210 839/3/210 840/4/210
v 1.122577 0.677054 0.147806
v 1.088448 0.690569 0.130343
v 1.098595 0.696167 0.142558
v 1.112732 0.690569 0.149791
vn 0.543072 0.495214 -0.678112
f 841/1/211 842/2/211 843/3/211 844/4/211
v 1.122577 0.677054 0.147806
v 1.098079 0.663539 0.118317
v 1.088234 0.677054 0.120302
v 1.088448 0.690569 0.130343
vn 0.543072 0.495214 -0.678112
f 845/1/212 846/2/212 847/3/212 848/4/212
v 1.122577 0.677054 0.147806
v 1.122364 0.663539 0.137765
v 1.112216 0.657941 0.125550
v 1.098079 0.663539 0.118317
vn 0.543072 0.495214 -0.678112
f 849/1/213 850/2/213 851/3/213 852/4/213
usemtl clamp
v 0.468750 0.750000 0.900000
v 0.531250 0.750000 0.900000
v 0.531250 0.812500 0.900000
v 0.468750 0.812500 0.900000
vn 0.000000 0.000000 1.000000
f 853/1/214 854/2/214 855/3/214 856/4/214
v 0.531250 0.750000 0.812500
v 0.468750 0.750000 0.812500
v 0.468750 0.812500 0.812500
v 0.531250 0.812500 0.812500
vn 0.000000 0.000000 -1.000000
f 857/1/215 858/2/215 859/3/215 860/4/215
v 0.531250 0.750000 0.900000
v 0.531250 0.750000 0.812500
v 0.531250 0.812500 0.812500
v 0.531250 0.812500 0.900000
vn 1.000000 -0.000000 0.000000
f 861/1/216 862/2/216 863/3/216 864/4/216
v 0.468750 0.750000 0.812500
v 0.468750 0.750000 0.900000
v 0.468750 0.812500 0.900000
v 0.468750 0.812500 0.812500
vn -1.000000 0.000000 0.000000
f 865/1/217 866/2/217 867/3/217 868/4/217
v 0.468750 0.812500 0.900000
v 0.531250 0.812500 0.900000
v 0.531250 0.812500 0.812500
v 0.468750 0.812500 0.812500
vn -0.000000 1.000000 0.000000
f 869/1/218 870/2/218 871/3/218 872/4/218
v 0.468750 0.750000 0.812500
v 0.531250 0.750000 0.812500
v 0.531250 0.750000 0.900000
v 0.468750 0.750000 0.900000
vn 0.000000 -1.000000 0.000000
f 873/1/219 874/2/219 875/3/219 876/4/219
usemtl porcelain
v 0.437500 0.812500 0.875000
v 0.562500 0.812500 0.875000
v 0.562500 0.937500 0.875000
v 0.437500 0.937500 0.875000
vn 0.000000 0.000000 1.000000
f 877/1/220 878/2/220 879/3/220 880/4/220
v 0.562500 0.812500 0.750000
v 0.437500 0.812500 0.750000
v 0.437500 0.937500 0.750000
v 0.562500 0.937500 0.750000
vn 0.000000 0.000000 -1.000000
f 881/1/221 882/2/221 883/3/221 884/4/221
v 0.562500 0.812500 0.875000
v 0.562500 0.812500 0.750000
v 0.562500 0.937500 0.750000
v 0.562500 0.937500 0.875000
vn 1.000000 -0.000000 0.000000
f 885/1/222 886/2/222 887/3/222 888/4/222
v 0.437500 0.812500 0.750000
v 0.437500 0.812500 0.875000
v 0.437500 0.937500 0.875000
v 0.437500 0.937500 0.750000
vn -1.000000 0.000000 0.000000
f 889/1/223 890/2/223 891/3/223 892/4/223
v 0.437500 0.937500 0.875000
v 0.562500 0.937500 0.875000
v 0.562500 0.937500 0.750000
v 0.437500 0.937500 0.750000
vn -0.000000 1.000000 0.000000
f 893/1/224 894/2/224 895/3/224 896/4/224
v 0.437500 0.812500 0.750000
v 0.562500 0.812500 0.750000
v 0.562500 0.812500 0.875000
v 0.437500 0.812500 0.875000
vn 0.000000 -1.000000 0.000000
f 897/1/225 898/2/225 899/3/225 900/4/225
usemtl cable
v 0.500000 0.872468 0.766810
v 0.610986 0.392097 0.694334
v 0.625149 0.398182 0.687167
v 0.514350 0.876988 0.758895
vn 0.487483 -0.019074 0.872924
f 901/1/226 902/2/226 903/3/226 904/4/226
v 0.514350 0.876988 0.758895
v 0.625149 0.398182 0.687167
v 0.625149 0.402592 0.670749
v 0.514350 0.879521 0.742085
vn 0.974799 0.220598 0.033233
f 905/1/227 906/2/227 907/3/227 908/4/227
v 0.514350 0.879521 0.742085
v 0.625149 0.402592 0.670749
v 0.610986 0.400915 0.661497
v 0.500000 0.877532 0.733190
vn 0.487501 0.238870 -0.839812
f 909/1/228 910/2/228 911/3/228 912/4/228
v 0.500000 0.877532 0.733190
v 0.610986 0.400915 0.661497
v 0.596823 0.394830 0.668664
v 0.485650 0.873012 0.741105
vn -0.487206 0.017880 -0.873104
f 913/1/229 914/2/229 915/3/229 916/4/229
v 0.485650 0.873012 0.741105
v 0.596823 0.394830 0.668664
v 0.596823 0.390421 0.685082
v 0.485650 0.870479 0.757915
vn -0.974583 -0.221525 -0.033373
f 917/1/230 918/2/230 919/3/230 920/4/230
v 0.485650 0.870479 0.757915
v 0.596823 0.390421 0.685082
v 0.610986 0.392097 0.694334
v 0.500000 0.872468 0.766810
vn -0.487191 -0.240206 0.839610
f 921/1/231 922/2/231 923/3/231 924/4/231
v 0.610986 0.392097 0.694334
v 0.734551 0.089416 0.567266
v 0.733842 0.101578 0.555410
v 0.625149 0.398182 0.687167
vn 0.498199 -0.154770 0.853138
f 925/1/232 926/2/232 927/3/232 928/4/232
v 0.625149 0.398182 0.687167
v 0.733842 0.101578 0.555410
v 0.721263 0.101578 0.543975
v 0.625149 0.402592 0.670749
vn 0.947061 0.310066 0.083269
f 929/1/233 930/2/233 931/3/233 932/4/233
v 0.625149 0.402592 0.670749
v 0.721263 0.101578 0.543975
v 0.709393 0.089416 0.544395
v 0.610986 0.400915 0.661497
vn 0.445082 0.464541 -0.765574
f 933/1/234 934/2/234 935/3/234 936/4/234
v 0.610986 0.400915 0.661497
v 0.709393 0.089416 0.544395
v 0.710102 0.077253 0.556251
v 0.596823 0.394830 0.668664
vn -0.500033 0.161853 -0.850747
f 937/1/235 938/2/235 939/3/235 940/4/235
v 0.596823 0.394830 0.668664
v 0.710102 0.077253 0.556251
v 0.722681 0.077253 0.567687
v 0.596823 0.390421 0.685082
vn -0.947556 -0.308653 -0.082889
f 941/1/236 942/2/236 943/3/236 944/4/236
v 0.596823 0.390421 0.685082
v 0.722681 0.077253 0.567687
v 0.734551 0.089416 0.567266
v 0.610986 0.392097 0.694334
vn -0.444702 -0.465559 0.765177
f 945/1/237 946/2/237 947/3/237 948/4/237
v 0.734551 0.089416 0.567266
v 0.845537 0.069630 0.445182
v 0.839434 0.084349 0.439259
v 0.733842 0.101578 0.555410
vn 0.663897 0.541485 0.515785
f 949/1/238 950/2/238 951/3/238 952/4/238
v 0.733842 0.101578 0.555410
v 0.839434 0.084349 0.439259
v 0.826855 0.084349 0.427823
v 0.721263 0.101578 0.543975
vn 0.073390 0.994031 -0.080729
f 953/1/239 954/2/239 955/3/239 956/4/239
v 0.721263 0.101578 0.543975
v 0.826855 0.084349 0.427823
v 0.820379 0.069630 0.422311
v 0.709393 0.089416 0.544395
vn -0.579068 0.544120 -0.607136
f 957/1/240 958/2/240 959/3/240 960/4/240
v 0.709393 0.089416 0.544395
v 0.820379 0.069630 0.422311
v 0.826482 0.054910 0.428234
v 0.710102 0.077253 0.556251
vn -0.663897 -0.541485 -0.515785
f 961/1/241 962/2/241 963/3/241 964/4/241
v 0.710102 0.077253 0.556251
v 0.826482 0.054910 0.428234
v 0.839061 0.054910 0.439669
v 0.722681 0.077253 0.567687
vn -0.086155 -0.991764 0.094771
f 965/1/242 966/2/242 967/3/242 968/4/242
v 0.722681 0.077253 0.567687
v 0.839061 0.054910 0.439669
v 0.845537 0.069630 0.445182
v 0.734551 0.089416 0.567266
vn 0.574243 -0.539101 0.616129
f 969/1/243 970/2/243 971/3/243 972/4/243
v 0.845537 0.069630 0.445182
v 0.956523 0.083132 0.323097
v 0.950752 0.097835 0.316809
v 0.839434 0.084349 0.439259
vn 0.612456 0.500226 0.612105
f 973/1/244 974/2/244 975/3/244 976/4/244
v 0.839434 0.084349 0.439259
v 0.950752 0.097835 0.316809
v 0.938173 0.097835 0.305373
v 0.826855 0.084349 0.427823
vn -0.054635 0.996696 0.060098
f 977/1/245 978/2/245 979/3/245 980/4/245
v 0.826855 0.084349 0.427823
v 0.938173 0.097835 0.305373
v 0.931365 0.083132 0.300226
v 0.820379 0.069630 0.422311
vn -0.667420 0.500227 -0.551655
f 981/1/246 982/2/246 983/3/246 984/4/246
v 0.820379 0.069630 0.422311
v 0.931365 0.083132 0.300226
v 0.937136 0.068430 0.306514
v 0.826482 0.054910 0.428234
vn -0.612456 -0.500226 -0.612105
f 985/1/247 986/2/247 987/3/247 988/4/247
v 0.826482 0.054910 0.428234
v 0.937136 0.068430 0.306514
v 0.949715 0.068430 0.317950
v 0.839061 0.054910 0.439669
vn 0.055103 -0.996639 -0.060613
f 989/1/248 990/2/248 991/3/248 992/4/248
v 0.839061 0.054910 0.439669
v 0.949715 0.068430 0.317950
v 0.956523 0.083132 0.323097
v 0.845537 0.069630 0.445182
vn 0.667645 -0.500225 0.551385
f 993/1/249 994/2/249 995/3/249 996/4/249
v 0.956523 0.083132 0.323097
v 1.067509 0.052009 0.201013
v 1.063533 0.066325 0.192750
v 0.950752 0.097835 0.316809
vn 0.702122 0.494659 0.512189
f 997/1/250 998/2/250 999/3/250 1000/4/250
v 0.950752 0.097835 0.316809
v 1.063533 0.066325 0.192750
v 1.050954 0.066325 0.181315
v 0.938173 0.097835 0.305373
vn 0.124247 0.982794 -0.136672
f 1001/1/251 1002/2/251 1003/3/251 1004/4/251
v 0.938173 0.097835 0.305373
v 1.050954 0.066325 0.181315
v 1.042351 0.052009 0.178142
v 0.931365 0.083132 0.300226
vn -0.576830 0.494689 -0.650039
f 1005/1/252 1006/2/252 1007/3/252 1008/4/252
v 0.931365 0.083132 0.300226
v 1.042351 0.052009 0.178142
v 1.046327 0.037694 0.186404
v 0.937136 0.068430 0.306514
vn -0.702122 -0.494659 -0.512189
f 1009/1/253 1010/2/253 1011/3/253 1012/4/253
v 0.937136 0.068430 0.306514
v 1.046327 0.037694 0.186404
v 1.058906 0.037694 0.197839
v 0.949715 0.068430 0.317950
vn -0.125146 -0.982542 0.137661
f 1013/1/254 1014/2/254 1015/3/254 1016/4/254
v 0.949715 0.068430 0.317950
v 1.058906 0.037694 0.197839
v 1.067509 0.052009 0.201013
v 0.956523 0.083132 0.323097
vn 0.576339 -0.494629 0.650519
f 1017/1/255 1018/2/255 1019/3/255 1020/4/255
v 1.067509 0.052009 0.201013
v 1.178495 0.003658 0.078928
v 1.174733 0.017893 0.070430
v 1.063533 0.066325 0.192750
vn 0.735284 0.480259 0.478235
f 1021/1/256 1022/2/256 1023/3/256 1024/4/256
v 1.063533 0.066325 0.192750
v 1.174733 0.017893 0.070430
v 1.162154 0.017893 0.058994
v 1.050954 0.066325 0.181315
vn 0.189125 0.959662 -0.208038
f 1025/1/257 1026/2/257 1027/3/257 1028/4/257
v 1.050954 0.066325 0.181315
v 1.162154 0.017893 0.058994
v 1.153337 0.003658 0.056057
v 1.042351 0.052009 0.178142
vn -0.545964 0.480268 -0.686488
f 1029/1/258 1030/2/258 1031/3/258 1032/4/258
v 1.042351 0.052009 0.178142
v 1.153337 0.003658 0.056057
v 1.157099 -0.010577 0.064555
v 1.046327 0.037694 0.186404
vn -0.735284 -0.480259 -0.478235
f 1033/1/259 1034/2/259 1035/3/259 1036/4/259
v 1.046327 0.037694 0.186404
v 1.157099 -0.010577 0.064555
v 1.169678 -0.010577 0.075991
v 1.058906 0.037694 0.197839
vn -0.189219 -0.959621 0.208141
f 1037/1/260 1038/2/260 1039/3/260 1040/4/260
v 1.058906 0.037694 0.197839
v 1.169678 -0.010577 0.075991
v 1.178495 0.003658 0.078928
v 1.067509 0.052009 0.201013
vn 0.545915 -0.480250 0.686540
f 1041/1/261 1042/2/261 1043/3/261 1044/4/261
v 1.178495 0.003658 0.078928
v 1.289481 -0.035162 -0.043157
v 1.285207 -0.020748 -0.051091
v 1.174733 0.017893 0.070430
vn 0.717800 0.486843 0.497741
f 1045/1/262 1046/2/262 1047/3/262 1048/4/262
v 1.174733 0.017893 0.070430
v 1.285207 -0.020748 -0.051091
v 1.272628 -0.020748 -0.062527
v 1.162154 0.017893 0.058994
vn 0.154061 0.973420 -0.169467
f 1049/1/263 1050/2/263 1051/3/263 1052/4/263
v 1.162154 0.017893 0.058994
v 1.272628 -0.020748 -0.062527
v 1.264323 -0.035162 -0.066028
v 1.153337 0.003658 0.056057
vn -0.563697 0.486843 -0.667255
f 1053/1/264 1054/2/264 1055/3/264 1056/4/264
v 1.153337 0.003658 0.056057
v 1.264323 -0.035162 -0.066028
v 1.268597 -0.049576 -0.058093
v 1.157099 -0.010577 0.064555
vn -0.717800 -0.486843 -0.497741
f 1057/1/265 1058/2/265 1059/3/265 1060/4/265
v 1.157099 -0.010577 0.064555
v 1.268597 -0.049576 -0.058093
v 1.281176 -0.049576 -0.046657
v 1.169678 -0.010577 0.075991
vn -0.154063 -0.973419 0.169469
f 1061/1/266 1062/2/266 1063/3/266 1064/4/266
v 1.169678 -0.010577 0.075991
v 1.281176 -0.049576 -0.046657
v 1.289481 -0.035162 -0.043157
v 1.178495 0.003658 0.078928
vn 0.563696 -0.486843 0.667257
f 1065/1/267 1066/2/267 1067/3/267 1068/4/267
v 1.289481 -0.035162 -0.043157
v 1.400467 -0.064982 -0.165241
v 1.395687 -0.050432 -0.172620
v 1.285207 -0.020748 -0.051091
vn 0.700586 0.492155 0.516685
f 1069/1/268 1070/2/268 1071/3/268 1072/4/268
v 1.285207 -0.020748 -0.051091
v 1.395687 -0.050432 -0.172620
v 1.383108 -0.050432 -0.184055
v 1.272628 -0.020748 -0.062527
vn 0.119637 0.984057 -0.131600
f 1073/1/269 1074/2/269 1075/3/269 1076/4/269
v 1.272628 -0.020748 -0.062527
v 1.383108 -0.050432 -0.184055
v 1.375309 -0.064982 -0.188112
v 1.264323 -0.035162 -0.066028
vn -0.580918 0.492155 -0.648319
f 1077/1/270 1078/2/270 1079/3/270 1080/4/270
v 1.264323 -0.035162 -0.066028
v 1.375309 -0.064982 -0.188112
v 1.380088 -0.079532 -0.180733
v 1.268597 -0.049576 -0.058093
vn -0.700586 -0.492155 -0.516685
f 1081/1/271 1082/2/271 1083/3/271 1084/4/271
v 1.268597 -0.049576 -0.058093
v 1.380088 -0.079532 -0.180733
v 1.392667 -0.079532 -0.169298
v 1.281176 -0.049576 -0.046657
vn -0.119638 -0.984057 0.131602
f 1085/1/272 1086/2/272 1087/3/272 1088/4/272
v 1.281176 -0.049576 -0.046657
v 1.392667 -0.079532 -0.169298
v 1.400467 -0.064982 -0.165241
v 1.289481 -0.035162 -0.043157
vn 0.580918 -0.492154 0.648320
f 1089/1/273 1090/2/273 1091/3/273 1092/4/273
v 1.400467 -0.064982 -0.165241
v 1.511453 -0.086107 -0.287326
v 1.506170 -0.071461 -0.294151
v 1.395687 -0.050432 -0.172620
vn 0.683480 0.496074 0.535505
f 1093/1/274 1094/2/274 1095/3/274 1096/4/274
v 1.395687 -0.050432 -0.172620
v 1.506170 -0.071461 -0.294151
v 1.493591 -0.071461 -0.305586
v 1.383108 -0.050432 -0.184055
vn 0.085430 0.991903 -0.093974
f 1097/1/275 1098/2/275 1099/3/275 1100/4/275
v 1.383108 -0.050432 -0.184055
v 1.493591 -0.071461 -0.305586
v 1.486295 -0.086107 -0.310197
v 1.375309 -0.064982 -0.188112
vn -0.598028 0.496074 -0.629502
f 1101/1/276 1102/2/276 1103/3/276 1104/4/276
v 1.375309 -0.064982 -0.188112
v 1.486295 -0.086107 -0.310197
v 1.491578 -0.100754 -0.303372
v 1.380088 -0.079532 -0.180733
vn -0.683480 -0.496074 -0.535505
f 1105/1/277 1106/2/277 1107/3/277 1108/4/277
v 1.380088 -0.079532 -0.180733
v 1.491578 -0.100754 -0.303372
v 1.504157 -0.100754 -0.291936
v 1.392667 -0.079532 -0.169298
vn -0.085431 -0.991902 0.093974
f 1109/1/278 1110/2/278 1111/3/278 1112/4/278
v 1.392667 -0.079532 -0.169298
v 1.504157 -0.100754 -0.291936
v 1.511453 -0.086107 -0.287326
v 1.400467 -0.064982 -0.165241
vn 0.598028 -0.496074 0.629502
f 1113/1/279 1114/2/279 1115/3/279 1116/4/279
v 1.511453 -0.086107 -0.287326
v 1.622439 -0.098714 -0.409410
v 1.616652 -0.084011 -0.415681
v 1.506170 -0.071461 -0.294151
vn 0.666385 0.498669 0.554310
f 1117/1/280 1118/2/280 1119/3/280 1120/4/280
v 1.506170 -0.071461 -0.294151
v 1.616652 -0.084011 -0.415681
v 1.604073 -0.084011 -0.427117
v 1.493591 -0.071461 -0.305586
vn 0.051249 0.997094 -0.056374
f 1121/1/281 1122/2/281 1123/3/281 1124/4/281
v 1.493591 -0.071461 -0.305586
v 1.604073 -0.084011 -0.427117
v 1.597281 -0.098714 -0.432281
v 1.486295 -0.086107 -0.310197
vn -0.615124 0.498669 -0.610698
f 1125/1/282 1126/2/282 1127/3/282 1128/4/282
v 1.486295 -0.086107 -0.310197
v 1.597281 -0.098714 -0.432281
v 1.603067 -0.113418 -0.426010
v 1.491578 -0.100754 -0.303372
vn -0.666385 -0.498669 -0.554310
f 1129/1/283 1130/2/283 1131/3/283 1132/4/283
v 1.491578 -0.100754 -0.303372
v 1.603067 -0.113418 -0.426010
v 1.615646 -0.113418 -0.414575
v 1.504157 -0.100754 -0.291936
vn -0.051249 -0.997094 0.056374
f 1133/1/284 1134/2/284 1135/3/284 1136/4/284
v 1.504157 -0.100754 -0.291936
v 1.615646 -0.113418 -0.414575
v 1.622439 -0.098714 -0.409410
v 1.511453 -0.086107 -0.287326
vn 0.615124 -0.498669 0.610698
f 1137/1/285 1138/2/285 1139/3/285 1140/4/285
v 1.622439 -0.098714 -0.409410
v 1.733425 -0.102901 -0.531495
v 1.727135 -0.088179 -0.537213
v 1.616652 -0.084011 -0.415681
vn 0.649289 0.499960 0.573117
f 1141/1/286 1142/2/286 1143/3/286 1144/4/286
v 1.616652 -0.084011 -0.415681
v 1.727135 -0.088179 -0.537213
v 1.714556 -0.088179 -0.548648
v 1.604073 -0.084011 -0.427117
vn 0.017064 0.999678 -0.018770
f 1145/1/287 1146/2/287 1147/3/287 1148/4/287
v 1.604073 -0.084011 -0.427117
v 1.714556 -0.088179 -0.548648
v 1.708267 -0.102901 -0.554366
v 1.597281 -0.098714 -0.432281
vn -0.632221 0.499960 -0.591892
f 1149/1/288 1150/2/288 1151/3/288 1152/4/288
v 1.597281 -0.098714 -0.432281
v 1.708267 -0.102901 -0.554366
v 1.714556 -0.117623 -0.548648
v 1.603067 -0.113418 -0.426010
vn -0.649289 -0.499960 -0.573117
f 1153/1/289 1154/2/289 1155/3/289 1156/4/289
v 1.603067 -0.113418 -0.426010
v 1.714556 -0.117623 -0.548648
v 1.727135 -0.117623 -0.537213
v 1.615646 -0.113418 -0.414575
vn -0.017064 -0.999678 0.018771
f 1157/1/290 1158/2/290 1159/3/290 1160/4/290
v 1.615646 -0.113418 -0.414575
v 1.727135 -0.117623 -0.537213
v 1.733425 -0.102901 -0.531495
v 1.622439 -0.098714 -0.409410
vn 0.632221 -0.499960 0.591892
f 1161/1/291 1162/2/291 1163/3/291 1164/4/291
v 1.733425 -0.102901 -0.531495
v 1.844411 -0.098717 -0.653580
v 1.837620 -0.084014 -0.658746
v 1.727135 -0.088179 -0.537213
vn 0.632227 0.499960 0.591886
f 1165/1/292 1166/2/292 1167/3/292 1168/4/292
v 1.727135 -0.088179 -0.537213
v 1.837620 -0.084014 -0.658746
v 1.825041 -0.084014 -0.670182
v 1.714556 -0.088179 -0.548648
vn -0.017052 0.999679 0.018757
f 1169/1/293 1170/2/293 1171/3/293 1172/4/293
v 1.714556 -0.088179 -0.548648
v 1.825041 -0.084014 -0.670182
v 1.819253 -0.098717 -0.676450
v 1.708267 -0.102901 -0.554366
vn -0.649283 0.499960 -0.573124
f 1173/1/294 1174/2/294 1175/3/294 1176/4/294
v 1.708267 -0.102901 -0.554366
v 1.819253 -0.098717 -0.676450
v 1.826043 -0.113421 -0.671284
v 1.714556 -0.117623 -0.548648
vn -0.632227 -0.499960 -0.591886
f 1177/1/295 1178/2/295 1179/3/295 1180/4/295
v 1.714556 -0.117623 -0.548648
v 1.826043 -0.113421 -0.671284
v 1.838622 -0.113421 -0.659848
v 1.727135 -0.117623 -0.537213
vn 0.017052 -0.999679 -0.018757
f 1181/1/296 1182/2/296 1183/3/296 1184/4/296
v 1.727135 -0.117623 -0.537213
v 1.838622 -0.113421 -0.659848
v 1.844411 -0.098717 -0.653580
v 1.733425 -0.102901 -0.531495
vn 0.649283 -0.499960 0.573124
f 1185/1/297 1186/2/297 1187/3/297 1188/4/297
v 1.844411 -0.098717 -0.653580
v 1.955397 -0.086178 -0.775664
v 1.948109 -0.071530 -0.780284
v 1.837620 -0.084014 -0.658746
vn 0.615262 0.498681 0.610549
f 1189/1/298 1190/2/298 1191/3/298 1192/4/298
v 1.837620 -0.084014 -0.658746
v 1.948109 -0.071530 -0.780284
v 1.935530 -0.071530 -0.791719
v 1.825041 -0.084014 -0.670182
vn -0.050976 0.997124 0.056074
f 1193/1/299 1194/2/299 1195/3/299 1196/4/299
v 1.825041 -0.084014 -0.670182
v 1.935530 -0.071530 -0.791719
v 1.930239 -0.086178 -0.798535
v 1.819253 -0.098717 -0.676450
vn -0.666250 0.498681 -0.554462
f 1197/1/300 1198/2/300 1199/3/300 1200/4/300
v 1.819253 -0.098717 -0.676450
v 1.930239 -0.086178 -0.798535
v 1.937526 -0.100825 -0.793915
v 1.826043 -0.113421 -0.671284
vn -0.615262 -0.498681 -0.610549
f 1201/1/301 1202/2/301 1203/3/301 1204/4/301
v 1.826043 -0.113421 -0.671284
v 1.937526 -0.100825 -0.793915
v 1.950105 -0.100825 -0.782480
v 1.838622 -0.113421 -0.659848
vn 0.050976 -0.997124 -0.056073
f 1205/1/302 1206/2/302 1207/3/302 1208/4/302
v 1.838622 -0.113421 -0.659848
v 1.950105 -0.100825 -0.782480
v 1.955397 -0.086178 -0.775664
v 1.844411 -0.098717 -0.653580
vn 0.666250 -0.498681 0.554462
f 1209/1/303 1210/2/303 1211/3/303 1212/4/303
v 1.955397 -0.086178 -0.775664
v 2.066383 -0.065268 -0.897749
v 2.058604 -0.050713 -0.901828
v 1.948109 -0.071530 -0.780284
vn 0.598460 0.496150 0.629032
f 1213/1/304 1214/2/304 1215/3/304 1216/4/304
v 1.948109 -0.071530 -0.780284
v 2.058604 -0.050713 -0.901828
v 2.046025 -0.050713 -0.913263
v 1.935530 -0.071530 -0.791719
vn -0.084574 0.992065 0.093031
f 1217/1/305 1218/2/305 1219/3/305 1220/4/305
v 1.935530 -0.071530 -0.791719
v 2.046025 -0.050713 -0.913263
v 2.041225 -0.065268 -0.920620
v 1.930239 -0.086178 -0.798535
vn -0.683053 0.496150 -0.535979
f 1221/1/306 1222/2/306 1223/3/306 1224/4/306
v 1.930239 -0.086178 -0.798535
v 2.041225 -0.065268 -0.920620
v 2.049004 -0.079823 -0.916541
v 1.937526 -0.100825 -0.793915
vn -0.598460 -0.496150 -0.629032
f 1225/1/307 1226/2/307 1227/3/307 1228/4/307
v 1.937526 -0.100825 -0.793915
v 2.049004 -0.079823 -0.916541
v 2.061583 -0.079823 -0.905105
v 1.950105 -0.100825 -0.782480
vn 0.084573 -0.992065 -0.093031
f 1229/1/308 1230/2/308 1231/3/308 1232/4/308
v 1.950105 -0.100825 -0.782480
v 2.061583 -0.079823 -0.905105
v 2.066383 -0.065268 -0.897749
v 1.955397 -0.086178 -0.775664
vn 0.683053 -0.496150 0.535980
f 1233/1/309 1234/2/309 1235/3/309 1236/4/309
v 2.066383 -0.065268 -0.897749
v 2.177369 -0.035938 -1.019833
v 2.169105 -0.021511 -1.023379
v 2.058604 -0.050713 -0.901828
vn 0.581877 0.492397 0.647275
f 1237/1/310 1238/2/310 1239/3/310 1240/4/310
v 2.058604 -0.050713 -0.901828
v 2.169105 -0.021511 -1.023379
v 2.156526 -0.021511 -1.034815
v 2.046025 -0.050713 -0.913263
vn -0.117733 0.984564 0.129506
f 1241/1/311 1242/2/311 1243/3/311 1244/4/311
v 2.046025 -0.050713 -0.913263
v 2.156526 -0.021511 -1.034815
v 2.152211 -0.035938 -1.042704
v 2.041225 -0.065268 -0.920620
vn -0.699637 0.492397 -0.517738
f 1245/1/312 1246/2/312 1247/3/312 1248/4/312
v 2.041225 -0.065268 -0.920620
v 2.152211 -0.035938 -1.042704
v 2.160475 -0.050365 -1.039158
v 2.049004 -0.079823 -0.916541
vn -0.581877 -0.492397 -0.647275
f 1249/1/313 1250/2/313 1251/3/313 1252/4/313
v 2.049004 -0.079823 -0.916541
v 2.160475 -0.050365 -1.039158
v 2.173054 -0.050365 -1.027723
v 2.061583 -0.079823 -0.905105
vn 0.117733 -0.984564 -0.129506
f 1253/1/314 1254/2/314 1255/3/314 1256/4/314
v 2.061583 -0.079823 -0.905105
v 2.173054 -0.050365 -1.027723
v 2.177369 -0.035938 -1.019833
v 2.066383 -0.065268 -0.897749
vn 0.699637 -0.492397 0.517738
f 1257/1/315 1258/2/315 1259/3/315 1260/4/315
v 2.177369 -0.035938 -1.019833
v 2.288355 0.001911 -1.141918
v 2.279613 0.016175 -1.144938
v 2.169105 -0.021511 -1.023379
vn 0.565539 0.487454 0.665247
f 1261/1/316 1262/2/316 1263/3/316 1264/4/316
v 2.169105 -0.021511 -1.023379
v 2.279613 0.016175 -1.144938
v 2.267034 0.016175 -1.156374
v 2.156526 -0.021511 -1.034815
vn -0.150402 0.974684 0.165442
f 1265/1/317 1266/2/317 1267/3/317 1268/4/317
v 2.156526 -0.021511 -1.034815
v 2.267034 0.016175 -1.156374
v 2.263197 0.001911 -1.164789
v 2.152211 -0.035938 -1.042704
vn -0.715976 0.487454 -0.499767
f 1269/1/318 1270/2/318 1271/3/318 1272/4/318
v 2.152211 -0.035938 -1.042704
v 2.263197 0.001911 -1.164789
v 2.271939 -0.012353 -1.161769
v 2.160475 -0.050365 -1.039158
vn -0.565539 -0.487454 -0.665247
f 1273/1/319 1274/2/319 1275/3/319 1276/4/319
v 2.160475 -0.050365 -1.039158
v 2.271939 -0.012353 -1.161769
v 2.284517 -0.012353 -1.150333
v 2.173054 -0.050365 -1.027723
vn 0.150402 -0.974684 -0.165442
f 1277/1/320 1278/2/320 1279/3/320 1280/4/320
v 2.173054 -0.050365 -1.027723
v 2.284517 -0.012353 -1.150333
v 2.288355 0.001911 -1.141918
v 2.177369 -0.035938 -1.019833
vn 0.715976 -0.487454 0.499767
f 1281/1/321 1282/2/321 1283/3/321 1284/4/321
v 2.288355 0.001911 -1.141918
v 2.399341 0.048454 -1.264002
v 2.390126 0.062520 -1.266503
v 2.279613 0.016175 -1.144938
vn 0.549423 0.481330 0.682976
f 1285/1/322 1286/2/322 1287/3/322 1288/4/322
v 2.279613 0.016175 -1.144938
v 2.390126 0.062520 -1.266503
v 2.377547 0.062520 -1.277938
v 2.267034 0.016175 -1.156374
vn -0.182628 0.962439 0.200891
f 1289/1/323 1290/2/323 1291/3/323 1292/4/323
v 2.267034 0.016175 -1.156374
v 2.377547 0.062520 -1.277938
v 2.374183 0.048454 -1.286873
v 2.263197 0.001911 -1.164789
vn -0.732093 0.481330 -0.482039
f 1293/1/324 1294/2/324 1295/3/324 1296/4/324
v 2.263197 0.001911 -1.164789
v 2.374183 0.048454 -1.286873
v 2.383397 0.034389 -1.284373
v 2.271939 -0.012353 -1.161769
vn -0.549423 -0.481330 -0.682976
f 1297/1/325 1298/2/325 1299/3/325 1300/4/325
v 2.271939 -0.012353 -1.161769
v 2.383397 0.034389 -1.284373
v 2.395976 0.034389 -1.272938
v 2.284517 -0.012353 -1.150333
vn 0.182629 -0.962439 -0.200892
f 1301/1/326 1302/2/326 1303/3/326 1304/4/326
v 2.284517 -0.012353 -1.150333
v 2.395976 0.034389 -1.272938
v 2.399341 0.048454 -1.264002
v 2.288355 0.001911 -1.141918
vn 0.732093 -0.481330 0.482038
f 1305/1/327 1306/2/327 1307/3/327 1308/4/327
v 2.399341 0.048454 -1.264002
v 2.510327 0.103997 -1.386087
v 2.500639 0.117826 -1.388067
v 2.390126 0.062520 -1.266503
vn 0.533425 0.473979 0.700572
f 1309/1/328 1310/2/328 1311/3/328 1312/4/328
v 2.390126 0.062520 -1.266503
v 2.500639 0.117826 -1.388067
v 2.488060 0.117826 -1.399503
v 2.377547 0.062520 -1.277938
vn -0.214614 0.947739 0.236075
f 1313/1/329 1314/2/329 1315/3/329 1316/4/329
v 2.377547 0.062520 -1.277938
v 2.488060 0.117826 -1.399503
v 2.485169 0.103997 -1.408958
v 2.374183 0.048454 -1.286873
vn -0.748089 0.473980 -0.464442
f 1317/1/330 1318/2/330 1319/3/330 1320/4/330
v 2.374183 0.048454 -1.286873
v 2.485169 0.103997 -1.408958
v 2.494856 0.090169 -1.406978
v 2.383397 0.034389 -1.284373
vn -0.533425 -0.473979 -0.700572
f 1321/1/331 1322/2/331 1323/3/331 1324/4/331
v 2.383397 0.034389 -1.284373
v 2.494856 0.090169 -1.406978
v 2.507435 0.090169 -1.395542
v 2.395976 0.034389 -1.272938
vn 0.214615 -0.947738 -0.236077
f 1325/1/332 1326/2/332 1327/3/332 1328/4/332
v 2.395976 0.034389 -1.272938
v 2.507435 0.090169 -1.395542
v 2.510327 0.103997 -1.386087
v 2.399341 0.048454 -1.264002
vn 0.748090 -0.473979 0.464441
f 1329/1/333 1330/2/333 1331/3/333 1332/4/333
v 2.510327 0.103997 -1.386087
v 2.621313 0.169072 -1.508172
v 2.611143 0.182618 -1.509622
v 2.500639 0.117826 -1.388067
vn 0.517322 0.465243 0.718281
f 1333/1/334 1334/2/334 1335/3/334 1336/4/334
v 2.500639 0.117826 -1.388067
v 2.611143 0.182618 -1.509622
v 2.598564 0.182618 -1.521057
v 2.488060 0.117826 -1.399503
vn -0.246804 0.930260 0.271484
f 1337/1/335 1338/2/335 1339/3/335 1340/4/335
v 2.488060 0.117826 -1.399503
v 2.598564 0.182618 -1.521057
v 2.596155 0.169072 -1.531042
v 2.485169 0.103997 -1.408958
vn -0.764187 0.465243 -0.446729
f 1341/1/336 1342/2/336 1343/3/336 1344/4/336
v 2.485169 0.103997 -1.408958
v 2.596155 0.169072 -1.531042
v 2.606324 0.155526 -1.529593
v 2.494856 0.090169 -1.406978
vn -0.517322 -0.465243 -0.718281
f 1345/1/337 1346/2/337 1347/3/337 1348/4/337
v 2.494856 0.090169 -1.406978
v 2.606324 0.155526 -1.529593
v 2.618903 0.155526 -1.518157
v 2.507435 0.090169 -1.395542
vn 0.246807 -0.930258 -0.271488
f 1349/1/338 1350/2/338 1351/3/338 1352/4/338
v 2.507435 0.090169 -1.395542
v 2.618903 0.155526 -1.518157
v 2.621313 0.169072 -1.508172
v 2.510327 0.103997 -1.386087
vn 0.764189 -0.465242 0.446727
f 1353/1/339 1354/2/339 1355/3/339 1356/4/339
v 2.621313 0.169072 -1.508172
v 2.732299 0.244626 -1.630256
v 2.721619 0.257822 -1.631145
v 2.611143 0.182618 -1.509622
vn 0.500679 0.454726 0.736576
f 1357/1/340 1358/2/340 1359/3/340 1360/4/340
v 2.611143 0.182618 -1.509622
v 2.721619 0.257822 -1.631145
v 2.709040 0.257822 -1.642580
v 2.598564 0.182618 -1.521057
vn -0.280060 0.909209 0.308066
f 1361/1/341 1362/2/341 1363/3/341 1364/4/341
v 2.598564 0.182618 -1.521057
v 2.709040 0.257822 -1.642580
v 2.707141 0.244626 -1.653127
v 2.596155 0.169072 -1.531042
vn -0.780817 0.454728 -0.428424
f 1365/1/342 1366/2/342 1367/3/342 1368/4/342
v 2.596155 0.169072 -1.531042
v 2.707141 0.244626 -1.653127
v 2.717820 0.231429 -1.652239
v 2.606324 0.155526 -1.529593
vn -0.500679 -0.454726 -0.736576
f 1369/1/343 1370/2/343 1371/3/343 1372/4/343
v 2.606324 0.155526 -1.529593
v 2.717820 0.231429 -1.652239
v 2.730399 0.231429 -1.640803
v 2.618903 0.155526 -1.518157
vn 0.280068 -0.909204 -0.308075
f 1373/1/344 1374/2/344 1375/3/344 1376/4/344
v 2.618903 0.155526 -1.518157
v 2.730399 0.231429 -1.640803
v 2.732299 0.244626 -1.630256
v 2.621313 0.169072 -1.508172
vn 0.780821 -0.454725 0.428420
f 1377/1/345 1378/2/345 1379/3/345 1380/4/345
v 2.732299 0.244626 -1.630256
v 2.843285 0.332447 -1.752341
v 2.832027 0.345183 -1.752594
v 2.721619 0.257822 -1.631145
vn 0.482652 0.441518 0.756379
f 1381/1/346 1382/2/346 1383/3/346 1384/4/346
v 2.721619 0.257822 -1.631145
v 2.832027 0.345183 -1.752594
v 2.819448 0.345183 -1.764029
v 2.709040 0.257822 -1.642580
vn -0.316051 0.882750 0.347656
f 1385/1/347 1386/2/347 1387/3/347 1388/4/347
v 2.709040 0.257822 -1.642580
v 2.819448 0.345183 -1.764029
v 2.818127 0.332447 -1.775212
v 2.707141 0.244626 -1.653127
vn -0.798814 0.441522 -0.408601
f 1389/1/348 1390/2/348 1391/3/348 1392/4/348
v 2.707141 0.244626 -1.653127
v 2.818127 0.332447 -1.775212
v 2.829384 0.319710 -1.774958
v 2.717820 0.231429 -1.652239
vn -0.482652 -0.441518 -0.756379
f 1393/1/349 1394/2/349 1395/3/349 1396/4/349
v 2.717820 0.231429 -1.652239
v 2.829384 0.319710 -1.774958
v 2.841963 0.319710 -1.763523
v 2.730399 0.231429 -1.640803
vn 0.316071 -0.882734 -0.347678
f 1397/1/350 1398/2/350 1399/3/350 1400/4/350
v 2.730399 0.231429 -1.640803
v 2.841963 0.319710 -1.763523
v 2.843285 0.332447 -1.752341
v 2.732299 0.244626 -1.630256
vn 0.798824 -0.441515 0.408589
f 1401/1/351 1402/2/351 1403/3/351 1404/4/351
v 2.843285 0.332447 -1.752341
v 2.954271 0.436304 -1.874425
v 2.942282 0.448345 -1.873875
v 2.832027 0.345183 -1.752594
vn 0.461441 0.423357 0.779642
f 1405/1/352 1406/2/352 1407/3/352 1408/4/352
v 2.832027 0.345183 -1.752594
v 2.942282 0.448345 -1.873875
v 2.929703 0.448345 -1.885310
v 2.819448 0.345183 -1.764029
vn -0.358315 0.846321 0.394147
f 1409/1/353 1410/2/353 1411/3/353 1412/4/353
v 2.819448 0.345183 -1.764029
v 2.929703 0.448345 -1.885310
v 2.929113 0.436304 -1.897296
v 2.818127 0.332447 -1.775212
vn -0.819947 0.423369 -0.385285
f 1413/1/354 1414/2/354 1415/3/354 1416/4/354
v 2.818127 0.332447 -1.775212
v 2.929113 0.436304 -1.897296
v 2.941101 0.424263 -1.897847
v 2.829384 0.319710 -1.774958
vn -0.461441 -0.423357 -0.779642
f 1417/1/355 1418/2/355 1419/3/355 1420/4/355
v 2.829384 0.319710 -1.774958
v 2.941101 0.424263 -1.897847
v 2.953680 0.424263 -1.886412
v 2.841963 0.319710 -1.763523
vn 0.358372 -0.846268 -0.394209
f 1421/1/356 1422/2/356 1423/3/356 1424/4/356
v 2.841963 0.319710 -1.763523
v 2.953680 0.424263 -1.886412
v 2.954271 0.436304 -1.874425
v 2.843285 0.332447 -1.752341
vn 0.819976 -0.423344 0.385253
f 1425/1/357 1426/2/357 1427/3/357 1428/4/357
v 2.954271 0.436304 -1.874425
v 3.065257 0.565535 -1.996510
v 3.051754 0.575622 -1.994293
v 2.942282 0.448345 -1.873875
vn 0.432998 0.394018 0.810717
f 1429/1/358 1430/2/358 1431/3/358 1432/4/358
v 2.942282 0.448345 -1.873875
v 3.051754 0.575622 -1.994293
v 3.039175 0.575622 -2.005728
v 2.929703 0.448345 -1.885310
vn -0.414402 0.787704 0.455843
f 1433/1/359 1434/2/359 1435/3/359 1436/4/359
v 2.929703 0.448345 -1.885310
v 3.039175 0.575622 -2.005728
v 3.040099 0.565535 -2.019381
v 2.929113 0.436304 -1.897296
vn -0.848002 0.394231 -0.354225
f 1437/1/360 1438/2/360 1439/3/360 1440/4/360
v 2.929113 0.436304 -1.897296
v 3.040099 0.565535 -2.019381
v 3.053602 0.555448 -2.021598
v 2.941101 0.424263 -1.897847
vn -0.432998 -0.394018 -0.810717
f 1441/1/361 1442/2/361 1443/3/361 1444/4/361
v 2.941101 0.424263 -1.897847
v 3.053602 0.555448 -2.021598
v 3.066181 0.555448 -2.010163
v 2.953680 0.424263 -1.886412
vn 0.415157 -0.786826 -0.456673
f 1445/1/362 1446/2/362 1447/3/362 1448/4/362
v 2.953680 0.424263 -1.886412
v 3.066181 0.555448 -2.010163
v 3.065257 0.565535 -1.996510
v 2.954271 0.436304 -1.874425
vn 0.848379 -0.393812 0.353786
f 1449/1/363 1450/2/363 1451/3/363 1452/4/363
v 3.065257 0.565535 -1.996510
v 3.176243 0.805000 -2.118595
v 3.161798 0.813353 -2.115342
v 3.051754 0.575622 -1.994293
vn 0.359590 0.286140 0.888155
f 1453/1/364 1454/2/364 1455/3/364 1456/4/364
v 3.051754 0.575622 -1.994293
v 3.161798 0.813353 -2.115342
v 3.149219 0.813353 -2.126777
v 3.039175 0.575622 -2.005728
vn -0.554144 0.566889 0.609559
f 1457/1/365 1458/2/365 1459/3/365 1460/4/365
v 3.039175 0.575622 -2.005728
v 3.149219 0.813353 -2.126777
v 3.151085 0.805000 -2.141465
v 3.040099 0.565535 -2.019381
vn -0.918422 0.285917 -0.273411
f 1461/1/366 1462/2/366 1463/3/366 1464/4/366
v 3.040099 0.565535 -2.019381
v 3.151085 0.805000 -2.141465
v 3.165529 0.796647 -2.144718
v 3.053602 0.555448 -2.021598
vn -0.359590 -0.286140 -0.888155
f 1465/1/367 1466/2/367 1467/3/367 1468/4/367
v 3.053602 0.555448 -2.021598
v 3.165529 0.796647 -2.144718
v 3.178108 0.796647 -2.133283
v 3.066181 0.555448 -2.010163
vn 0.553701 -0.567844 -0.609071
f 1469/1/368 1470/2/368 1471/3/368 1472/4/368
v 3.066181 0.555448 -2.010163
v 3.178108 0.796647 -2.133283
v 3.176243 0.805000 -2.118595
v 3.065257 0.565535 -1.996510
vn 0.918190 -0.286361 0.273723
f 1473/1/369 1474/2/369 1475/3/369 1476/4/369
v 3.176243 0.805000 -2.118595
v 3.151085 0.805000 -2.141465
v 3.149219 0.813353 -2.126777
v 3.161798 0.813353 -2.115342
vn 0.381654 0.823463 -0.419820
f 1477/1/370 1478/2/370 1479/3/370 1480/4/370
v 3.176243 0.805000 -2.118595
v 3.178108 0.796647 -2.133283
v 3.165529 0.796647 -2.144718
v 3.151085 0.805000 -2.141465
vn 0.381654 0.823463 -0.419820
f 1481/1/371 1482/2/371 1483/3/371 1484/4/371
