# Generated by scripts/gen_pole_light_mounts.py
mtllib pole_light_mount.mtl
o pole_light_mount_5_right_left
vt 0 0
vt 1 0
vt 1 1
vt 0 1
usemtl clamp
v 0.312500 0.062500 1.000000
v 0.687500 0.062500 1.000000
v 0.687500 0.937500 1.000000
v 0.312500 0.937500 1.000000
vn 0.000000 0.000000 1.000000
f 1/1/1 2/2/1 3/3/1 4/4/1
v 0.687500 0.062500 0.900000
v 0.312500 0.062500 0.900000
v 0.312500 0.937500 0.900000
v 0.687500 0.937500 0.900000
vn 0.000000 0.000000 -1.000000
f 5/1/2 6/2/2 7/3/2 8/4/2
v 0.687500 0.062500 1.000000
v 0.687500 0.062500 0.900000
v 0.687500 0.937500 0.900000
v 0.687500 0.937500 1.000000
vn 1.000000 -0.000000 0.000000
f 9/1/3 10/2/3 11/3/3 12/4/3
v 0.312500 0.062500 0.900000
v 0.312500 0.062500 1.000000
v 0.312500 0.937500 1.000000
v 0.312500 0.937500 0.900000
vn -1.000000 0.000000 0.000000
f 13/1/4 14/2/4 15/3/4 16/4/4
v 0.312500 0.937500 1.000000
v 0.687500 0.937500 1.000000
v 0.687500 0.937500 0.900000
v 0.312500 0.937500 0.900000
vn -0.000000 1.000000 0.000000
f 17/1/5 18/2/5 19/3/5 20/4/5
v 0.312500 0.062500 0.900000
v 0.687500 0.062500 0.900000
v 0.687500 0.062500 1.000000
v 0.312500 0.062500 1.000000
vn 0.000000 -1.000000 0.000000
f 21/1/6 22/2/6 23/3/6 24/4/6
v 0.406250 0.010625 0.900000
v 0.593750 0.010625 0.900000
v 0.593750 0.229375 0.900000
v 0.406250 0.229375 0.900000
vn 0.000000 0.000000 1.000000
f 25/1/7 26/2/7 27/3/7 28/4/7
v 0.593750 0.010625 0.800000
v 0.406250 0.010625 0.800000
v 0.406250 0.229375 0.800000
v 0.593750 0.229375 0.800000
vn 0.000000 0.000000 -1.000000
f 29/1/8 30/2/8 31/3/8 32/4/8
v 0.593750 0.010625 0.900000
v 0.593750 0.010625 0.800000
v 0.593750 0.229375 0.800000
v 0.593750 0.229375 0.900000
vn 1.000000 -0.000000 0.000000
f 33/1/9 34/2/9 35/3/9 36/4/9
v 0.406250 0.010625 0.800000
v 0.406250 0.010625 0.900000
v 0.406250 0.229375 0.900000
v 0.406250 0.229375 0.800000
vn -1.000000 0.000000 0.000000
f 37/1/10 38/2/10 39/3/10 40/4/10
v 0.406250 0.229375 0.900000
v 0.593750 0.229375 0.900000
v 0.593750 0.229375 0.800000
v 0.406250 0.229375 0.800000
vn -0.000000 1.000000 0.000000
f 41/1/11 42/2/11 43/3/11 44/4/11
v 0.406250 0.010625 0.800000
v 0.593750 0.010625 0.800000
v 0.593750 0.010625 0.900000
v 0.406250 0.010625 0.900000
vn 0.000000 -1.000000 0.000000
f 45/1/12 46/2/12 47/3/12 48/4/12
v 0.468750 0.125000 0.900000
v 0.531250 0.125000 0.900000
v 0.531250 0.187500 0.900000
v 0.468750 0.187500 0.900000
vn 0.000000 0.000000 1.000000
f 49/1/13 50/2/13 51/3/13 52/4/13
v 0.531250 0.125000 0.880000
v 0.468750 0.125000 0.880000
v 0.468750 0.187500 0.880000
v 0.531250 0.187500 0.880000
vn 0.000000 0.000000 -1.000000
f 53/1/14 54/2/14 55/3/14 56/4/14
v 0.531250 0.125000 0.900000
v 0.531250 0.125000 0.880000
v 0.531250 0.187500 0.880000
v 0.531250 0.187500 0.900000
vn 1.000000 -0.000000 0.000000
f 57/1/15 58/2/15 59/3/15 60/4/15
v 0.468750 0.125000 0.880000
v 0.468750 0.125000 0.900000
v 0.468750 0.187500 0.900000
v 0.468750 0.187500 0.880000
vn -1.000000 0.000000 0.000000
f 61/1/16 62/2/16 63/3/16 64/4/16
v 0.468750 0.187500 0.900000
v 0.531250 0.187500 0.900000
v 0.531250 0.187500 0.880000
v 0.468750 0.187500 0.880000
vn -0.000000 1.000000 0.000000
f 65/1/17 66/2/17 67/3/17 68/4/17
v 0.468750 0.125000 0.880000
v 0.531250 0.125000 0.880000
v 0.531250 0.125000 0.900000
v 0.468750 0.125000 0.900000
vn 0.000000 -1.000000 0.000000
f 69/1/18 70/2/18 71/3/18 72/4/18
v 0.468750 0.812500 0.900000
v 0.531250 0.812500 0.900000
v 0.531250 0.875000 0.900000
v 0.468750 0.875000 0.900000
vn 0.000000 0.000000 1.000000
f 73/1/19 74/2/19 75/3/19 76/4/19
v 0.531250 0.812500 0.880000
v 0.468750 0.812500 0.880000
v 0.468750 0.875000 0.880000
v 0.531250 0.875000 0.880000
vn 0.000000 0.000000 -1.000000
f 77/1/20 78/2/20 79/3/20 80/4/20
v 0.531250 0.812500 0.900000
v 0.531250 0.812500 0.880000
v 0.531250 0.875000 0.880000
v 0.531250 0.875000 0.900000
vn 1.000000 -0.000000 0.000000
f 81/1/21 82/2/21 83/3/21 84/4/21
v 0.468750 0.812500 0.880000
v 0.468750 0.812500 0.900000
v 0.468750 0.875000 0.900000
v 0.468750 0.875000 0.880000
vn -1.000000 0.000000 0.000000
f 85/1/22 86/2/22 87/3/22 88/4/22
v 0.468750 0.875000 0.900000
v 0.531250 0.875000 0.900000
v 0.531250 0.875000 0.880000
v 0.468750 0.875000 0.880000
vn -0.000000 1.000000 0.000000
f 89/1/23 90/2/23 91/3/23 92/4/23
v 0.468750 0.812500 0.880000
v 0.531250 0.812500 0.880000
v 0.531250 0.812500 0.900000
v 0.468750 0.812500 0.900000
vn 0.000000 -1.000000 0.000000
f 93/1/24 94/2/24 95/3/24 96/4/24
usemtl metal
v 0.545000 0.120000 0.860000
v 0.540887 0.120000 0.818795
v 0.533923 0.142217 0.819510
v 0.538971 0.142500 0.860000
vn 0.961467 0.257624 -0.095969
f 97/1/25 98/2/25 99/3/25 100/4/25
v 0.538971 0.142500 0.860000
v 0.533923 0.142217 0.819510
v 0.517870 0.158481 0.814997
v 0.522500 0.158971 0.860000
vn 0.704062 0.704062 -0.092698
f 101/1/26 102/2/26 103/3/26 104/4/26
v 0.522500 0.158971 0.860000
v 0.517870 0.158481 0.814997
v 0.497028 0.164434 0.806466
v 0.500000 0.165000 0.860000
vn 0.258641 0.965260 -0.037128
f 105/1/27 106/2/27 107/3/27 108/4/27
v 0.500000 0.165000 0.860000
v 0.497028 0.164434 0.806466
v 0.476983 0.158481 0.796202
v 0.477500 0.158971 0.860000
vn -0.258817 0.965917 0.004153
f 109/1/28 110/2/28 111/3/28 112/4/28
v 0.477500 0.158971 0.860000
v 0.476983 0.158481 0.796202
v 0.463105 0.142217 0.786956
v 0.461029 0.142500 0.860000
vn -0.707107 0.707107 0.000300
f 113/1/29 114/2/29 115/3/29 116/4/29
v 0.461029 0.142500 0.860000
v 0.463105 0.142217 0.786956
v 0.459113 0.120000 0.781205
v 0.455000 0.120000 0.860000
vn -0.965535 0.258714 -0.028442
f 117/1/30 118/2/30 119/3/30 120/4/30
v 0.455000 0.120000 0.860000
v 0.459113 0.120000 0.781205
v 0.466077 0.097783 0.780490
v 0.461029 0.097500 0.860000
vn -0.964700 -0.258491 -0.050355
f 121/1/31 122/2/31 123/3/31 124/4/31
v 0.461029 0.097500 0.860000
v 0.466077 0.097783 0.780490
v 0.482130 0.081519 0.785003
v 0.477500 0.081029 0.860000
vn -0.706313 -0.706313 -0.047357
f 125/1/32 126/2/32 127/3/32 128/4/32
v 0.477500 0.081029 0.860000
v 0.482130 0.081519 0.785003
v 0.502972 0.075566 0.793534
v 0.500000 0.075000 0.860000
vn -0.258755 -0.965686 -0.022289
f 129/1/33 130/2/33 131/3/33 132/4/33
v 0.500000 0.075000 0.860000
v 0.502972 0.075566 0.793534
v 0.523017 0.081519 0.803798
v 0.522500 0.081029 0.860000
vn 0.258818 -0.965920 0.003345
f 133/1/34 134/2/34 135/3/34 136/4/34
v 0.522500 0.081029 0.860000
v 0.523017 0.081519 0.803798
v 0.536895 0.097783 0.813044
v 0.538971 0.097500 0.860000
vn 0.707107 -0.707107 0.000341
f 137/1/35 138/2/35 139/3/35 140/4/35
v 0.538971 0.097500 0.860000
v 0.536895 0.097783 0.813044
v 0.540887 0.120000 0.818795
v 0.545000 0.120000 0.860000
vn 0.964981 -0.258566 -0.044219
f 141/1/36 142/2/36 143/3/36 144/4/36
v 0.540887 0.120000 0.818795
v 0.567204 0.134795 0.802929
v 0.558393 0.156351 0.802378
v 0.533923 0.142217 0.819510
vn 0.463649 0.117076 0.878250
f 145/1/37 146/2/37 147/3/37 148/4/37
v 0.533923 0.142217 0.819510
v 0.558393 0.156351 0.802378
v 0.544274 0.172131 0.792670
v 0.517870 0.158481 0.814997
vn 0.280841 0.503865 0.816853
f 149/1/38 150/2/38 151/3/38 152/4/38
v 0.517870 0.158481 0.814997
v 0.544274 0.172131 0.792670
v 0.528631 0.177907 0.776406
v 0.497028 0.164434 0.806466
vn 0.020075 0.842268 0.538685
f 153/1/39 154/2/39 155/3/39 156/4/39
v 0.497028 0.164434 0.806466
v 0.528631 0.177907 0.776406
v 0.515655 0.172131 0.757943
v 0.476983 0.158481 0.796202
vn -0.322672 0.942834 0.083341
f 157/1/40 158/2/40 159/3/40 160/4/40
v 0.476983 0.158481 0.796202
v 0.515655 0.172131 0.757943
v 0.508824 0.156351 0.742229
v 0.463105 0.142217 0.786956
vn -0.602562 0.715331 -0.353864
f 161/1/41 162/2/41 163/3/41 164/4/41
v 0.463105 0.142217 0.786956
v 0.508824 0.156351 0.742229
v 0.509967 0.134795 0.733474
v 0.459113 0.120000 0.781205
vn -0.713367 0.292961 -0.636617
f 165/1/42 166/2/42 167/3/42 168/4/42
v 0.459113 0.120000 0.781205
v 0.509967 0.134795 0.733474
v 0.518779 0.113240 0.734025
v 0.466077 0.097783 0.780490
vn -0.645295 -0.178370 -0.742818
f 169/1/43 170/2/43 171/3/43 172/4/43
v 0.466077 0.097783 0.780490
v 0.518779 0.113240 0.734025
v 0.532898 0.097460 0.743733
v 0.482130 0.081519 0.785003
vn -0.420588 -0.603191 -0.677692
f 173/1/44 174/2/44 175/3/44 176/4/44
v 0.482130 0.081519 0.785003
v 0.532898 0.097460 0.743733
v 0.548541 0.091684 0.759998
v 0.502972 0.075566 0.793534
vn -0.075927 -0.895191 -0.439167
f 177/1/45 178/2/45 179/3/45 180/4/45
v 0.502972 0.075566 0.793534
v 0.548541 0.091684 0.759998
v 0.561517 0.097460 0.778460
v 0.523017 0.081519 0.803798
vn 0.304705 -0.951465 -0.043244
f 181/1/46 182/2/46 183/3/46 184/4/46
v 0.523017 0.081519 0.803798
v 0.561517 0.097460 0.778460
v 0.568348 0.113240 0.794174
v 0.536895 0.097783 0.813044
vn 0.565828 -0.715630 0.409527
f 185/1/47 186/2/47 187/3/47 188/4/47
v 0.536895 0.097783 0.813044
v 0.568348 0.113240 0.794174
v 0.567204 0.134795 0.802929
v 0.540887 0.120000 0.818795
vn 0.594827 -0.299925 0.745805
f 189/1/48 190/2/48 191/3/48 192/4/48
v 0.567204 0.134795 0.802929
v 0.605790 0.149923 0.771131
v 0.596937 0.171463 0.770614
v 0.558393 0.156351 0.802378
vn 0.556452 0.247730 0.793089
f 193/1/49 194/2/49 195/3/49 196/4/49
v 0.558393 0.156351 0.802378
v 0.596937 0.171463 0.770614
v 0.582788 0.187231 0.760931
v 0.544274 0.172131 0.792670
vn 0.291665 0.676808 0.675916
f 197/1/50 198/2/50 199/3/50 200/4/50
v 0.544274 0.172131 0.792670
v 0.582788 0.187231 0.760931
v 0.567134 0.193002 0.744675
v 0.528631 0.177907 0.776406
vn -0.051274 0.924535 0.377633
f 201/1/51 202/2/51 203/3/51 204/4/51
v 0.528631 0.177907 0.776406
v 0.567134 0.193002 0.744675
v 0.554170 0.187231 0.726203
v 0.515655 0.172131 0.757943
vn -0.380472 0.924534 -0.021835
f 205/1/52 206/2/52 207/3/52 208/4/52
v 0.515655 0.172131 0.757943
v 0.554170 0.187231 0.726203
v 0.547369 0.171463 0.710465
v 0.508824 0.156351 0.742229
vn -0.607724 0.676808 -0.415454
f 209/1/53 210/2/53 211/3/53 212/4/53
v 0.508824 0.156351 0.742229
v 0.547369 0.171463 0.710465
v 0.548553 0.149923 0.701676
v 0.509967 0.134795 0.733474
vn -0.672138 0.247729 -0.697754
f 213/1/54 214/2/54 215/3/54 216/4/54
v 0.509967 0.134795 0.733474
v 0.548553 0.149923 0.701676
v 0.557406 0.128384 0.702193
v 0.518779 0.113240 0.734025
vn -0.556452 -0.247730 -0.793089
f 217/1/55 218/2/55 219/3/55 220/4/55
v 0.518779 0.113240 0.734025
v 0.557406 0.128384 0.702193
v 0.571555 0.112615 0.711876
v 0.532898 0.097460 0.743733
vn -0.291667 -0.676809 -0.675915
f 221/1/56 222/2/56 223/3/56 224/4/56
v 0.532898 0.097460 0.743733
v 0.571555 0.112615 0.711876
v 0.587209 0.106844 0.728132
v 0.548541 0.091684 0.759998
vn 0.051269 -0.924536 -0.377629
f 225/1/57 226/2/57 227/3/57 228/4/57
v 0.548541 0.091684 0.759998
v 0.587209 0.106844 0.728132
v 0.600174 0.112615 0.746604
v 0.561517 0.097460 0.778460
vn 0.380467 -0.924537 0.021840
f 229/1/58 230/2/58 231/3/58 232/4/58
v 0.561517 0.097460 0.778460
v 0.600174 0.112615 0.746604
v 0.606975 0.128384 0.762342
v 0.568348 0.113240 0.794174
vn 0.607721 -0.676809 0.415457
f 233/1/59 234/2/59 235/3/59 236/4/59
v 0.568348 0.113240 0.794174
v 0.606975 0.128384 0.762342
v 0.605790 0.149923 0.771131
v 0.567204 0.134795 0.802929
vn 0.672137 -0.247730 0.697755
f 237/1/60 238/2/60 239/3/60 240/4/60
v 0.605790 0.149923 0.771131
v 0.644376 0.164988 0.739333
v 0.635603 0.186558 0.738750
v 0.596937 0.171463 0.770614
vn 0.556676 0.247816 0.792906
f 241/1/61 242/2/61 243/3/61 244/4/61
v 0.596937 0.171463 0.770614
v 0.635603 0.186558 0.738750
v 0.621513 0.202349 0.729018
v 0.582788 0.187231 0.760931
vn 0.292278 0.677046 0.675413
f 245/1/62 246/2/62 247/3/62 248/4/62
v 0.582788 0.187231 0.760931
v 0.621513 0.202349 0.729018
v 0.605880 0.208129 0.712745
v 0.567134 0.193002 0.744675
vn -0.050434 0.924863 0.376942
f 249/1/63 250/2/63 251/3/63 252/4/63
v 0.567134 0.193002 0.744675
v 0.605880 0.208129 0.712745
v 0.592894 0.202349 0.694291
v 0.554170 0.187231 0.726203
vn -0.379633 0.924863 -0.022529
f 253/1/64 254/2/64 255/3/64 256/4/64
v 0.554170 0.187231 0.726203
v 0.592894 0.202349 0.694291
v 0.586035 0.186558 0.678600
v 0.547369 0.171463 0.710465
vn -0.607111 0.677047 -0.415962
f 257/1/65 258/2/65 259/3/65 260/4/65
v 0.547369 0.171463 0.710465
v 0.586035 0.186558 0.678600
v 0.587139 0.164988 0.669878
v 0.548553 0.149923 0.701676
vn -0.671914 0.247816 -0.697939
f 261/1/66 262/2/66 263/3/66 264/4/66
v 0.548553 0.149923 0.701676
v 0.587139 0.164988 0.669878
v 0.595912 0.143417 0.670461
v 0.557406 0.128384 0.702193
vn -0.556676 -0.247816 -0.792906
f 265/1/67 266/2/67 267/3/67 268/4/67
v 0.557406 0.128384 0.702193
v 0.595912 0.143417 0.670461
v 0.610003 0.127626 0.680192
v 0.571555 0.112615 0.711876
vn -0.292274 -0.677044 -0.675416
f 269/1/68 270/2/68 271/3/68 272/4/68
v 0.571555 0.112615 0.711876
v 0.610003 0.127626 0.680192
v 0.625635 0.121846 0.696465
v 0.587209 0.106844 0.728132
vn 0.050443 -0.924859 -0.376950
f 273/1/69 274/2/69 275/3/69 276/4/69
v 0.587209 0.106844 0.728132
v 0.625635 0.121846 0.696465
v 0.638621 0.127626 0.714920
v 0.600174 0.112615 0.746604
vn 0.379644 -0.924859 0.022520
f 277/1/70 278/2/70 279/3/70 280/4/70
v 0.600174 0.112615 0.746604
v 0.638621 0.127626 0.714920
v 0.645481 0.143417 0.730610
v 0.606975 0.128384 0.762342
vn 0.607118 -0.677044 0.415957
f 281/1/71 282/2/71 283/3/71 284/4/71
v 0.606975 0.128384 0.762342
v 0.645481 0.143417 0.730610
v 0.644376 0.164988 0.739333
v 0.605790 0.149923 0.771131
vn 0.671915 -0.247815 0.697938
f 285/1/72 286/2/72 287/3/72 288/4/72
v 0.644376 0.164988 0.739333
v 0.682962 0.179592 0.707534
v 0.674392 0.201239 0.706785
v 0.635603 0.186558 0.738750
vn 0.558294 0.248440 0.791571
f 289/1/73 290/2/73 291/3/73 292/4/73
v 0.635603 0.186558 0.738750
v 0.674392 0.201239 0.706785
v 0.660450 0.217085 0.696931
v 0.621513 0.202349 0.729018
vn 0.296703 0.678751 0.671762
f 293/1/74 294/2/74 295/3/74 296/4/74
v 0.621513 0.202349 0.729018
v 0.660450 0.217085 0.696931
v 0.644872 0.222886 0.680613
v 0.605880 0.208129 0.712745
vn -0.044385 0.927189 0.371955
f 297/1/75 298/2/75 299/3/75 300/4/75
v 0.605880 0.208129 0.712745
v 0.644872 0.222886 0.680613
v 0.631831 0.217085 0.662203
v 0.592894 0.202349 0.694291
vn -0.373580 0.927190 -0.027514
f 301/1/76 302/2/76 303/3/76 304/4/76
v 0.592894 0.202349 0.694291
v 0.631831 0.217085 0.662203
v 0.624823 0.201239 0.646635
v 0.586035 0.186558 0.678600
vn -0.602680 0.678752 -0.419609
f 305/1/77 306/2/77 307/3/77 308/4/77
v 0.586035 0.186558 0.678600
v 0.624823 0.201239 0.646635
v 0.625725 0.179592 0.638080
v 0.587139 0.164988 0.669878
vn -0.670293 0.248441 -0.699274
f 309/1/78 310/2/78 311/3/78 312/4/78
v 0.587139 0.164988 0.669878
v 0.625725 0.179592 0.638080
v 0.634295 0.157945 0.638829
v 0.595912 0.143417 0.670461
vn -0.558294 -0.248440 -0.791571
f 313/1/79 314/2/79 315/3/79 316/4/79
v 0.595912 0.143417 0.670461
v 0.634295 0.157945 0.638829
v 0.648237 0.142098 0.648683
v 0.610003 0.127626 0.680192
vn -0.296693 -0.678747 -0.671771
f 317/1/80 318/2/80 319/3/80 320/4/80
v 0.610003 0.127626 0.680192
v 0.648237 0.142098 0.648683
v 0.663816 0.136298 0.665001
v 0.625635 0.121846 0.696465
vn 0.044409 -0.927180 -0.371974
f 321/1/81 322/2/81 323/3/81 324/4/81
v 0.625635 0.121846 0.696465
v 0.663816 0.136298 0.665001
v 0.676856 0.142098 0.683411
v 0.638621 0.127626 0.714920
vn 0.373608 -0.927179 0.027491
f 325/1/82 326/2/82 327/3/82 328/4/82
v 0.638621 0.127626 0.714920
v 0.676856 0.142098 0.683411
v 0.683864 0.157945 0.698979
v 0.645481 0.143417 0.730610
vn 0.602698 -0.678746 0.419595
f 329/1/83 330/2/83 331/3/83 332/4/83
v 0.645481 0.143417 0.730610
v 0.683864 0.157945 0.698979
v 0.682962 0.179592 0.707534
v 0.644376 0.164988 0.739333
vn 0.670297 -0.248440 0.699271
f 333/1/84 334/2/84 335/3/84 336/4/84
v 0.682962 0.179592 0.707534
v 0.721590 0.193340 0.675701
v 0.713320 0.215094 0.674713
v 0.674392 0.201239 0.706785
vn 0.561393 0.249585 0.789016
f 337/1/85 338/2/85 339/3/85 340/4/85
v 0.674392 0.201239 0.706785
v 0.713320 0.215094 0.674713
v 0.699587 0.231019 0.664694
v 0.660450 0.217085 0.696931
vn 0.305075 0.681836 0.664852
f 341/1/86 342/2/86 343/3/86 344/4/86
v 0.660450 0.217085 0.696931
v 0.699587 0.231019 0.664694
v 0.684070 0.236848 0.648328
v 0.644872 0.222886 0.680613
vn -0.032965 0.931386 0.362537
f 345/1/87 346/2/87 347/3/87 348/4/87
v 0.644872 0.222886 0.680613
v 0.684070 0.236848 0.648328
v 0.670926 0.231019 0.630001
v 0.631831 0.217085 0.662203
vn -0.362157 0.931386 -0.036920
f 349/1/88 350/2/88 351/3/88 352/4/88
v 0.631831 0.217085 0.662203
v 0.670926 0.231019 0.630001
v 0.663679 0.215094 0.614624
v 0.624823 0.201239 0.646635
vn -0.594306 0.681835 -0.426500
f 353/1/89 354/2/89 355/3/89 356/4/89
v 0.624823 0.201239 0.646635
v 0.663679 0.215094 0.614624
v 0.664269 0.193340 0.606316
v 0.625725 0.179592 0.638080
vn -0.667197 0.249584 -0.701823
f 357/1/90 358/2/90 359/3/90 360/4/90
v 0.625725 0.179592 0.638080
v 0.664269 0.193340 0.606316
v 0.672539 0.171586 0.607304
v 0.634295 0.157945 0.638829
vn -0.561285 -0.249545 -0.789105
f 361/1/91 362/2/91 363/3/91 364/4/91
v 0.634295 0.157945 0.638829
v 0.672539 0.171586 0.607304
v 0.686272 0.155661 0.617324
v 0.648237 0.142098 0.648683
vn -0.304953 -0.681792 -0.664953
f 365/1/92 366/2/92 367/3/92 368/4/92
v 0.648237 0.142098 0.648683
v 0.686272 0.155661 0.617324
v 0.701789 0.149832 0.633689
v 0.663816 0.136298 0.665001
vn 0.033097 -0.931339 -0.362646
f 369/1/93 370/2/93 371/3/93 372/4/93
v 0.663816 0.136298 0.665001
v 0.701789 0.149832 0.633689
v 0.714932 0.155661 0.652016
v 0.676856 0.142098 0.683411
vn 0.362285 -0.931340 0.036815
f 373/1/94 374/2/94 375/3/94 376/4/94
v 0.676856 0.142098 0.683411
v 0.714932 0.155661 0.652016
v 0.722180 0.171586 0.667394
v 0.683864 0.157945 0.698979
vn 0.594419 -0.681794 0.426407
f 377/1/95 378/2/95 379/3/95 380/4/95
v 0.683864 0.157945 0.698979
v 0.722180 0.171586 0.667394
v 0.721590 0.193340 0.675701
v 0.682962 0.179592 0.707534
vn 0.667301 -0.249546 0.701738
f 381/1/96 382/2/96 383/3/96 384/4/96
v 0.721590 0.193340 0.675701
v 0.760146 0.206008 0.643771
v 0.752077 0.227830 0.642627
v 0.713320 0.215094 0.674713
vn 0.567076 0.251209 0.784423
f 385/1/97 386/2/97 387/3/97 388/4/97
v 0.713320 0.215094 0.674713
v 0.752077 0.227830 0.642627
v 0.738478 0.243804 0.632504
v 0.699587 0.231019 0.664694
vn 0.317100 0.685684 0.655198
f 389/1/98 390/2/98 391/3/98 392/4/98
v 0.699587 0.231019 0.664694
v 0.738478 0.243804 0.632504
v 0.722993 0.249651 0.616114
v 0.684070 0.236848 0.648328
vn -0.017817 0.936424 0.350417
f 393/1/99 394/2/99 395/3/99 396/4/99
v 0.684070 0.236848 0.648328
v 0.722993 0.249651 0.616114
v 0.709770 0.243804 0.597850
v 0.670926 0.231019 0.630001
vn -0.347935 0.936275 -0.048263
f 397/1/100 398/2/100 399/3/100 400/4/100
v 0.670926 0.231019 0.630001
v 0.709770 0.243804 0.597850
v 0.702354 0.227830 0.582605
v 0.663679 0.215094 0.614624
vn -0.584817 0.685271 -0.434042
f 401/1/101 402/2/101 403/3/101 404/4/101
v 0.663679 0.215094 0.614624
v 0.702354 0.227830 0.582605
v 0.702731 0.206008 0.574464
v 0.664269 0.193340 0.606316
vn -0.664990 0.250635 -0.703541
f 405/1/102 406/2/102 407/3/102 408/4/102
v 0.664269 0.193340 0.606316
v 0.702731 0.206008 0.574464
v 0.710800 0.184187 0.575608
v 0.672539 0.171586 0.607304
vn -0.566964 -0.251170 -0.784516
f 409/1/103 410/2/103 411/3/103 412/4/103
v 0.672539 0.171586 0.607304
v 0.710800 0.184187 0.575608
v 0.724399 0.168212 0.585731
v 0.686272 0.155661 0.617324
vn -0.317015 -0.685656 -0.655269
f 413/1/104 414/2/104 415/3/104 416/4/104
v 0.686272 0.155661 0.617324
v 0.724399 0.168212 0.585731
v 0.739884 0.162365 0.602121
v 0.701789 0.149832 0.633689
vn 0.017873 -0.936406 -0.350464
f 417/1/105 418/2/105 419/3/105 420/4/105
v 0.701789 0.149832 0.633689
v 0.739884 0.162365 0.602121
v 0.753107 0.168212 0.620385
v 0.714932 0.155661 0.652016
vn 0.347991 -0.936257 0.048218
f 421/1/106 422/2/106 423/3/106 424/4/106
v 0.714932 0.155661 0.652016
v 0.753107 0.168212 0.620385
v 0.760523 0.184187 0.635630
v 0.722180 0.171586 0.667394
vn 0.584900 -0.685243 0.433974
f 425/1/107 426/2/107 427/3/107 428/4/107
v 0.722180 0.171586 0.667394
v 0.760523 0.184187 0.635630
v 0.760146 0.206008 0.643771
v 0.721590 0.193340 0.675701
vn 0.665101 -0.250597 0.703450
f 429/1/108 430/2/108 431/3/108 432/4/108
v 0.760146 0.206008 0.643771
v 0.798651 0.218470 0.611863
v 0.790618 0.240303 0.610689
v 0.752077 0.227830 0.642627
vn 0.568131 0.251176 0.783669
f 433/1/109 434/2/109 435/3/109 436/4/109
v 0.752077 0.227830 0.642627
v 0.790618 0.240303 0.610689
v 0.777044 0.256286 0.600546
v 0.738478 0.243804 0.632504
vn 0.319502 0.686148 0.653544
f 437/1/110 438/2/110 439/3/110 440/4/110
v 0.738478 0.243804 0.632504
v 0.777044 0.256286 0.600546
v 0.761566 0.262137 0.584151
v 0.722993 0.249651 0.616114
vn -0.014735 0.937267 0.348301
f 441/1/111 442/2/111 443/3/111 444/4/111
v 0.722993 0.249651 0.616114
v 0.761566 0.262137 0.584151
v 0.748331 0.256286 0.565897
v 0.709770 0.243804 0.597850
vn -0.345022 0.937247 -0.050270
f 445/1/112 446/2/112 447/3/112 448/4/112
v 0.709770 0.243804 0.597850
v 0.748331 0.256286 0.565897
v 0.740885 0.240303 0.550676
v 0.702354 0.227830 0.582605
vn -0.582859 0.686094 -0.435374
f 449/1/113 450/2/113 451/3/113 452/4/113
v 0.702354 0.227830 0.582605
v 0.740885 0.240303 0.550676
v 0.741224 0.218470 0.542565
v 0.702731 0.206008 0.574464
vn -0.664518 0.251102 -0.703821
f 453/1/114 454/2/114 455/3/114 456/4/114
v 0.702731 0.206008 0.574464
v 0.741224 0.218470 0.542565
v 0.749257 0.196637 0.543738
v 0.710800 0.184187 0.575608
vn -0.568118 -0.251172 -0.783680
f 457/1/115 458/2/115 459/3/115 460/4/115
v 0.710800 0.184187 0.575608
v 0.749257 0.196637 0.543738
v 0.762831 0.180653 0.553881
v 0.724399 0.168212 0.585731
vn -0.319490 -0.686144 -0.653554
f 461/1/116 462/2/116 463/3/116 464/4/116
v 0.724399 0.168212 0.585731
v 0.762831 0.180653 0.553881
v 0.778309 0.174803 0.570276
v 0.739884 0.162365 0.602121
vn 0.014747 -0.937263 -0.348310
f 465/1/117 466/2/117 467/3/117 468/4/117
v 0.739884 0.162365 0.602121
v 0.778309 0.174803 0.570276
v 0.791544 0.180653 0.588530
v 0.753107 0.168212 0.620385
vn 0.345033 -0.937244 0.050261
f 469/1/118 470/2/118 471/3/118 472/4/118
v 0.753107 0.168212 0.620385
v 0.791544 0.180653 0.588530
v 0.798990 0.196637 0.603752
v 0.760523 0.184187 0.635630
vn 0.582871 -0.686090 0.435364
f 473/1/119 474/2/119 475/3/119 476/4/119
v 0.760523 0.184187 0.635630
v 0.798990 0.196637 0.603752
v 0.798651 0.218470 0.611863
v 0.760146 0.206008 0.643771
vn 0.664531 -0.251098 0.703810
f 477/1/120 478/2/120 479/3/120 480/4/120
v 0.798651 0.218470 0.611863
v 0.837149 0.230907 0.579959
v 0.829125 0.252743 0.578779
v 0.790618 0.240303 0.610689
vn 0.568227 0.251165 0.783603
f 481/1/121 482/2/121 483/3/121 484/4/121
v 0.790618 0.240303 0.610689
v 0.829125 0.252743 0.578779
v 0.815556 0.268728 0.568631
v 0.777044 0.256286 0.600546
vn 0.319761 0.686197 0.653366
f 485/1/122 486/2/122 487/3/122 488/4/122
v 0.777044 0.256286 0.600546
v 0.815556 0.268728 0.568631
v 0.800080 0.274579 0.552235
v 0.761566 0.262137 0.584151
vn -0.014385 0.937362 0.348060
f 489/1/123 490/2/123 491/3/123 492/4/123
v 0.761566 0.262137 0.584151
v 0.800080 0.274579 0.552235
v 0.786843 0.268728 0.533983
v 0.748331 0.256286 0.565897
vn -0.344676 0.937362 -0.050509
f 493/1/124 494/2/124 495/3/124 496/4/124
v 0.748331 0.256286 0.565897
v 0.786843 0.268728 0.533983
v 0.779392 0.252743 0.518766
v 0.740885 0.240303 0.550676
vn -0.582611 0.686197 -0.435544
f 497/1/125 498/2/125 499/3/125 500/4/125
v 0.740885 0.240303 0.550676
v 0.779392 0.252743 0.518766
v 0.779723 0.230907 0.510661
v 0.741224 0.218470 0.542565
vn -0.664437 0.251165 -0.703875
f 501/1/126 502/2/126 503/3/126 504/4/126
v 0.741224 0.218470 0.542565
v 0.779723 0.230907 0.510661
v 0.787748 0.209071 0.511841
v 0.749257 0.196637 0.543738
vn -0.568227 -0.251165 -0.783603
f 505/1/127 506/2/127 507/3/127 508/4/127
v 0.749257 0.196637 0.543738
v 0.787748 0.209071 0.511841
v 0.801316 0.193086 0.521989
v 0.762831 0.180653 0.553881
vn -0.319761 -0.686197 -0.653366
f 509/1/128 510/2/128 511/3/128 512/4/128
v 0.762831 0.180653 0.553881
v 0.801316 0.193086 0.521989
v 0.816792 0.187235 0.538386
v 0.778309 0.174803 0.570276
vn 0.014385 -0.937362 -0.348060
f 513/1/129 514/2/129 515/3/129 516/4/129
v 0.778309 0.174803 0.570276
v 0.816792 0.187235 0.538386
v 0.830029 0.193086 0.556638
v 0.791544 0.180653 0.588530
vn 0.344676 -0.937362 0.050509
f 517/1/130 518/2/130 519/3/130 520/4/130
v 0.791544 0.180653 0.588530
v 0.830029 0.193086 0.556638
v 0.837480 0.209071 0.571855
v 0.798990 0.196637 0.603752
vn 0.582611 -0.686197 0.435544
f 521/1/131 522/2/131 523/3/131 524/4/131
v 0.798990 0.196637 0.603752
v 0.837480 0.209071 0.571855
v 0.837149 0.230907 0.579959
v 0.798651 0.218470 0.611863
vn 0.664437 -0.251165 0.703875
f 525/1/132 526/2/132 527/3/132 528/4/132
v 0.837149 0.230907 0.579959
v 0.875648 0.243319 0.548055
v 0.867631 0.265158 0.546869
v 0.829125 0.252743 0.578779
vn 0.568318 0.251195 0.783528
f 529/1/133 530/2/133 531/3/133 532/4/133
v 0.829125 0.252743 0.578779
v 0.867631 0.265158 0.546869
v 0.854069 0.281145 0.536716
v 0.815556 0.268728 0.568631
vn 0.320011 0.686277 0.653159
f 533/1/134 534/2/134 535/3/134 536/4/134
v 0.815556 0.268728 0.568631
v 0.854069 0.281145 0.536716
v 0.838595 0.286996 0.520318
v 0.800080 0.274579 0.552235
vn -0.014043 0.937472 0.347777
f 537/1/135 538/2/135 539/3/135 540/4/135
v 0.800080 0.274579 0.552235
v 0.838595 0.286996 0.520318
v 0.825356 0.281145 0.502067
v 0.786843 0.268728 0.533983
vn -0.344334 0.937472 -0.050792
f 541/1/136 542/2/136 543/3/136 544/4/136
v 0.786843 0.268728 0.533983
v 0.825356 0.281145 0.502067
v 0.817899 0.265158 0.486855
v 0.779392 0.252743 0.518766
vn -0.582361 0.686277 -0.435751
f 545/1/137 546/2/137 547/3/137 548/4/137
v 0.779392 0.252743 0.518766
v 0.817899 0.265158 0.486855
v 0.818222 0.243319 0.478758
v 0.779723 0.230907 0.510661
vn -0.664345 0.251195 -0.703951
f 549/1/138 550/2/138 551/3/138 552/4/138
v 0.779723 0.230907 0.510661
v 0.818222 0.243319 0.478758
v 0.826238 0.221481 0.479944
v 0.787748 0.209071 0.511841
vn -0.568318 -0.251195 -0.783528
f 553/1/139 554/2/139 555/3/139 556/4/139
v 0.787748 0.209071 0.511841
v 0.826238 0.221481 0.479944
v 0.839801 0.205494 0.490097
v 0.801316 0.193086 0.521989
vn -0.320011 -0.686277 -0.653159
f 557/1/140 558/2/140 559/3/140 560/4/140
v 0.801316 0.193086 0.521989
v 0.839801 0.205494 0.490097
v 0.855275 0.199642 0.506495
v 0.816792 0.187235 0.538386
vn 0.014043 -0.937472 -0.347777
f 561/1/141 562/2/141 563/3/141 564/4/141
v 0.816792 0.187235 0.538386
v 0.855275 0.199642 0.506495
v 0.868514 0.205494 0.524746
v 0.830029 0.193086 0.556638
vn 0.344334 -0.937472 0.050792
f 565/1/142 566/2/142 567/3/142 568/4/142
v 0.830029 0.193086 0.556638
v 0.868514 0.205494 0.524746
v 0.875971 0.221481 0.539958
v 0.837480 0.209071 0.571855
vn 0.582361 -0.686277 0.435751
f 569/1/143 570/2/143 571/3/143 572/4/143
v 0.837480 0.209071 0.571855
v 0.875971 0.221481 0.539958
v 0.875648 0.243319 0.548055
v 0.837149 0.230907 0.579959
vn 0.664345 -0.251195 0.703951
f 573/1/144 574/2/144 575/3/144 576/4/144
v 0.875648 0.243319 0.548055
v 0.914191 0.255705 0.516115
v 0.906181 0.277547 0.514932
v 0.867631 0.265158 0.546869
vn 0.568465 0.251242 0.783406
f 577/1/145 578/2/145 579/3/145 580/4/145
v 0.867631 0.265158 0.546869
v 0.906181 0.277547 0.514932
v 0.892612 0.293535 0.504791
v 0.854069 0.281145 0.536716
vn 0.320322 0.686377 0.652901
f 581/1/146 582/2/146 583/3/146 584/4/146
v 0.854069 0.281145 0.536716
v 0.892612 0.293535 0.504791
v 0.877119 0.299388 0.488411
v 0.838595 0.286996 0.520318
vn -0.013638 0.937603 0.347441
f 585/1/147 586/2/147 587/3/147 588/4/147
v 0.838595 0.286996 0.520318
v 0.877119 0.299388 0.488411
v 0.863855 0.293535 0.470179
v 0.825356 0.281145 0.502067
vn -0.343929 0.937603 -0.051128
f 589/1/148 590/2/148 591/3/148 592/4/148
v 0.825356 0.281145 0.502067
v 0.863855 0.293535 0.470179
v 0.856372 0.277547 0.454981
v 0.817899 0.265158 0.486855
vn -0.582051 0.686377 -0.436008
f 593/1/149 594/2/149 595/3/149 596/4/149
v 0.817899 0.265158 0.486855
v 0.856372 0.277547 0.454981
v 0.856677 0.255705 0.446890
v 0.818222 0.243319 0.478758
vn -0.664199 0.251242 -0.704072
f 597/1/150 598/2/150 599/3/150 600/4/150
v 0.818222 0.243319 0.478758
v 0.856677 0.255705 0.446890
v 0.864686 0.233864 0.448074
v 0.826238 0.221481 0.479944
vn -0.568361 -0.251209 -0.783492
f 601/1/151 602/2/151 603/3/151 604/4/151
v 0.826238 0.221481 0.479944
v 0.864686 0.233864 0.448074
v 0.878255 0.217875 0.458214
v 0.839801 0.205494 0.490097
vn -0.320218 -0.686344 -0.652987
f 605/1/152 606/2/152 607/3/152 608/4/152
v 0.839801 0.205494 0.490097
v 0.878255 0.217875 0.458214
v 0.893748 0.212023 0.474595
v 0.855275 0.199642 0.506495
vn 0.013741 -0.937570 -0.347526
f 609/1/153 610/2/153 611/3/153 612/4/153
v 0.855275 0.199642 0.506495
v 0.893748 0.212023 0.474595
v 0.907013 0.217875 0.492827
v 0.868514 0.205494 0.524746
vn 0.344032 -0.937570 0.051043
f 613/1/154 614/2/154 615/3/154 616/4/154
v 0.868514 0.205494 0.524746
v 0.907013 0.217875 0.492827
v 0.914495 0.233864 0.508024
v 0.875971 0.221481 0.539958
vn 0.582154 -0.686344 0.435923
f 617/1/155 618/2/155 619/3/155 620/4/155
v 0.875971 0.221481 0.539958
v 0.914495 0.233864 0.508024
v 0.914191 0.255705 0.516115
v 0.875648 0.243319 0.548055
vn 0.664302 -0.251209 0.703987
f 621/1/156 622/2/156 623/3/156 624/4/156
v 0.914191 0.255705 0.516115
v 0.952658 0.268065 0.484073
v 0.944655 0.289909 0.482894
v 0.906181 0.277547 0.514932
vn 0.570442 0.251560 0.781865
f 625/1/157 626/2/157 627/3/157 628/4/157
v 0.906181 0.277547 0.514932
v 0.944655 0.289909 0.482894
v 0.931078 0.305899 0.472768
v 0.892612 0.293535 0.504791
vn 0.322067 0.686673 0.651731
f 629/1/158 630/2/158 631/3/158 632/4/158
v 0.892612 0.293535 0.504791
v 0.931078 0.305899 0.472768
v 0.915565 0.311753 0.456407
v 0.877119 0.299388 0.488411
vn -0.012590 0.937798 0.346952
f 633/1/159 634/2/159 635/3/159 636/4/159
v 0.877119 0.299388 0.488411
v 0.915565 0.311753 0.456407
v 0.902272 0.305899 0.438196
v 0.863855 0.293535 0.470179
vn -0.343859 0.937646 -0.050805
f 637/1/160 638/2/160 639/3/160 640/4/160
v 0.863855 0.293535 0.470179
v 0.902272 0.305899 0.438196
v 0.894761 0.289909 0.423015
v 0.856372 0.277547 0.454981
vn -0.582975 0.686257 -0.434961
f 641/1/161 642/2/161 643/3/161 644/4/161
v 0.856372 0.277547 0.454981
v 0.894761 0.289909 0.423015
v 0.895045 0.268065 0.414931
v 0.856677 0.255705 0.446890
vn -0.665868 0.250991 -0.702583
f 645/1/162 646/2/162 647/3/162 648/4/162
v 0.856677 0.255705 0.446890
v 0.895045 0.268065 0.414931
v 0.903048 0.246220 0.416110
v 0.864686 0.233864 0.448074
vn -0.570327 -0.251523 -0.781961
f 649/1/163 650/2/163 651/3/163 652/4/163
v 0.864686 0.233864 0.448074
v 0.903048 0.246220 0.416110
v 0.916625 0.230230 0.426236
v 0.878255 0.217875 0.458214
vn -0.321952 -0.686636 -0.651827
f 653/1/164 654/2/164 655/3/164 656/4/164
v 0.878255 0.217875 0.458214
v 0.916625 0.230230 0.426236
v 0.932139 0.224376 0.442597
v 0.893748 0.212023 0.474595
vn 0.012706 -0.937761 -0.347049
f 657/1/165 658/2/165 659/3/165 660/4/165
v 0.893748 0.212023 0.474595
v 0.932139 0.224376 0.442597
v 0.945432 0.230230 0.460808
v 0.907013 0.217875 0.492827
vn 0.343975 -0.937609 0.050708
f 661/1/166 662/2/166 663/3/166 664/4/166
v 0.907013 0.217875 0.492827
v 0.945432 0.230230 0.460808
v 0.952942 0.246220 0.475989
v 0.914495 0.233864 0.508024
vn 0.583091 -0.686219 0.434865
f 665/1/167 666/2/167 667/3/167 668/4/167
v 0.914495 0.233864 0.508024
v 0.952942 0.246220 0.475989
v 0.952658 0.268065 0.484073
v 0.914191 0.255705 0.516115
vn 0.665984 -0.250954 0.702487
f 669/1/168 670/2/168 671/3/168 672/4/168
v 0.952658 0.268065 0.484073
v 0.991087 0.280396 0.452042
v 0.983100 0.302245 0.450853
v 0.944655 0.289909 0.482894
vn 0.570867 0.251336 0.781627
f 673/1/169 674/2/169 675/3/169 676/4/169
v 0.944655 0.289909 0.482894
v 0.983100 0.302245 0.450853
v 0.969529 0.318240 0.440725
v 0.931078 0.305899 0.472768
vn 0.322685 0.686571 0.651532
f 677/1/170 678/2/170 679/3/170 680/4/170
v 0.931078 0.305899 0.472768
v 0.969529 0.318240 0.440725
v 0.954009 0.324095 0.424371
v 0.915565 0.311753 0.456407
vn -0.011954 0.937843 0.346854
f 681/1/171 682/2/171 683/3/171 684/4/171
v 0.915565 0.311753 0.456407
v 0.954009 0.324095 0.424371
v 0.940701 0.318240 0.406172
v 0.902272 0.305899 0.438196
vn -0.343383 0.937822 -0.050769
f 685/1/172 686/2/172 687/3/172 688/4/172
v 0.902272 0.305899 0.438196
v 0.940701 0.318240 0.406172
v 0.933168 0.302245 0.391005
v 0.894761 0.289909 0.423015
vn -0.582796 0.686515 -0.434794
f 689/1/173 690/2/173 691/3/173 692/4/173
v 0.894761 0.289909 0.423015
v 0.933168 0.302245 0.391005
v 0.933431 0.280396 0.382935
v 0.895045 0.268065 0.414931
vn -0.666042 0.251259 -0.702322
f 693/1/174 694/2/174 695/3/174 696/4/174
v 0.895045 0.268065 0.414931
v 0.933431 0.280396 0.382935
v 0.941418 0.258547 0.384123
v 0.903048 0.246220 0.416110
vn -0.570817 -0.251320 -0.781669
f 697/1/175 698/2/175 699/3/175 700/4/175
v 0.903048 0.246220 0.416110
v 0.941418 0.258547 0.384123
v 0.954989 0.242552 0.394251
v 0.916625 0.230230 0.426236
vn -0.322634 -0.686555 -0.651574
f 701/1/176 702/2/176 703/3/176 704/4/176
v 0.916625 0.230230 0.426236
v 0.954989 0.242552 0.394251
v 0.970508 0.236697 0.410606
v 0.932139 0.224376 0.442597
vn 0.012004 -0.937827 -0.346896
f 705/1/177 706/2/177 707/3/177 708/4/177
v 0.932139 0.224376 0.442597
v 0.970508 0.236697 0.410606
v 0.983817 0.242552 0.428804
v 0.945432 0.230230 0.460808
vn 0.343433 -0.937806 0.050727
f 709/1/178 710/2/178 711/3/178 712/4/178
v 0.945432 0.230230 0.460808
v 0.983817 0.242552 0.428804
v 0.991349 0.258547 0.443971
v 0.952942 0.246220 0.475989
vn 0.582846 -0.686499 0.434752
f 713/1/179 714/2/179 715/3/179 716/4/179
v 0.952942 0.246220 0.475989
v 0.991349 0.258547 0.443971
v 0.991087 0.280396 0.452042
v 0.952658 0.268065 0.484073
vn 0.666092 -0.251243 0.702280
f 717/1/180 718/2/180 719/3/180 720/4/180
v 0.991087 0.280396 0.452042
v 1.155292 0.332804 0.314920
v 1.147337 0.354665 0.313717
v 0.983100 0.302245 0.450853
vn 0.571821 0.251486 0.780881
f 721/1/181 722/2/181 723/3/181 724/4/181
v 0.983100 0.302245 0.450853
v 1.147337 0.354665 0.313717
v 1.133772 0.370668 0.303592
v 0.969529 0.318240 0.440725
vn 0.323997 0.686862 0.650574
f 725/1/182 726/2/182 727/3/182 728/4/182
v 0.969529 0.318240 0.440725
v 1.133772 0.370668 0.303592
v 1.118233 0.376525 0.287258
v 0.954009 0.324095 0.424371
vn -0.010637 0.938196 0.345942
f 729/1/183 730/2/183 731/3/183 732/4/183
v 0.954009 0.324095 0.424371
v 1.118233 0.376525 0.287258
v 1.104882 0.370668 0.269091
v 0.940701 0.318240 0.406172
vn -0.342417 0.938142 -0.051388
f 733/1/184 734/2/184 735/3/184 736/4/184
v 0.940701 0.318240 0.406172
v 1.104882 0.370668 0.269091
v 1.097298 0.354665 0.253959
v 0.933168 0.302245 0.391005
vn -0.582442 0.686715 -0.434953
f 737/1/185 738/2/185 739/3/185 740/4/185
v 0.933168 0.302245 0.391005
v 1.097298 0.354665 0.253959
v 1.097512 0.332804 0.245916
v 0.933431 0.280396 0.382935
vn -0.666397 0.251285 -0.701976
f 741/1/186 742/2/186 743/3/186 744/4/186
v 0.933431 0.280396 0.382935
v 1.097512 0.332804 0.245916
v 1.105467 0.310944 0.247119
v 0.941418 0.258547 0.384123
vn -0.571787 -0.251475 -0.780909
f 745/1/187 746/2/187 747/3/187 748/4/187
v 0.941418 0.258547 0.384123
v 1.105467 0.310944 0.247119
v 1.119031 0.294941 0.257243
v 0.954989 0.242552 0.394251
vn -0.323963 -0.686851 -0.650602
f 749/1/188 750/2/188 751/3/188 752/4/188
v 0.954989 0.242552 0.394251
v 1.119031 0.294941 0.257243
v 1.134571 0.289084 0.273578
v 0.970508 0.236697 0.410606
vn 0.010671 -0.938185 -0.345971
f 753/1/189 754/2/189 755/3/189 756/4/189
v 0.970508 0.236697 0.410606
v 1.134571 0.289084 0.273578
v 1.147921 0.294941 0.291745
v 0.983817 0.242552 0.428804
vn 0.342451 -0.938131 0.051360
f 757/1/190 758/2/190 759/3/190 760/4/190
v 0.983817 0.242552 0.428804
v 1.147921 0.294941 0.291745
v 1.155506 0.310944 0.306877
v 0.991349 0.258547 0.443971
vn 0.582475 -0.686704 0.434925
f 761/1/191 762/2/191 763/3/191 764/4/191
v 0.991349 0.258547 0.443971
v 1.155506 0.310944 0.306877
v 1.155292 0.332804 0.314920
v 0.991087 0.280396 0.452042
vn 0.666431 -0.251274 0.701948
f 765/1/192 766/2/192 767/3/192 768/4/192
v 1.155292 0.332804 0.314920
v 1.319161 0.384623 0.177326
v 1.311249 0.406498 0.176108
v 1.147337 0.354665 0.313717
vn 0.574363 0.251847 0.778897
f 769/1/193 770/2/193 771/3/193 772/4/193
v 1.147337 0.354665 0.313717
v 1.311249 0.406498 0.176108
v 1.297690 0.422511 0.165992
v 1.133772 0.370668 0.303592
vn 0.327006 0.687446 0.648448
f 773/1/194 774/2/194 775/3/194 776/4/194
v 1.133772 0.370668 0.303592
v 1.297690 0.422511 0.165992
v 1.282117 0.428373 0.149691
v 1.118233 0.376525 0.287258
vn -0.007964 0.938847 0.344243
f 777/1/195 778/2/195 779/3/195 780/4/195
v 1.118233 0.376525 0.287258
v 1.282117 0.428373 0.149691
v 1.268703 0.422511 0.131572
v 1.104882 0.370668 0.269091
vn -0.340794 0.938687 -0.052208
f 781/1/196 782/2/196 783/3/196 784/4/196
v 1.104882 0.370668 0.269091
v 1.268703 0.422511 0.131572
v 1.261043 0.406498 0.116489
v 1.097298 0.354665 0.253959
vn -0.582302 0.687009 -0.434676
f 785/1/197 786/2/197 787/3/197 788/4/197
v 1.097298 0.354665 0.253959
v 1.261043 0.406498 0.116489
v 1.261188 0.384623 0.108485
v 1.097512 0.332804 0.245916
vn -0.667775 0.251249 -0.700679
f 789/1/198 790/2/198 791/3/198 792/4/198
v 1.097512 0.332804 0.245916
v 1.261188 0.384623 0.108485
v 1.269100 0.362748 0.109704
v 1.105467 0.310944 0.247119
vn -0.574311 -0.251831 -0.778940
f 793/1/199 794/2/199 795/3/199 796/4/199
v 1.105467 0.310944 0.247119
v 1.269100 0.362748 0.109704
v 1.282659 0.346735 0.119819
v 1.119031 0.294941 0.257243
vn -0.326954 -0.687430 -0.648492
f 797/1/200 798/2/200 799/3/200 800/4/200
v 1.119031 0.294941 0.257243
v 1.282659 0.346735 0.119819
v 1.298232 0.340873 0.136120
v 1.134571 0.289084 0.273578
vn 0.008016 -0.938830 -0.344287
f 801/1/201 802/2/201 803/3/201 804/4/201
v 1.134571 0.289084 0.273578
v 1.298232 0.340873 0.136120
v 1.311646 0.346735 0.154240
v 1.147921 0.294941 0.291745
vn 0.340846 -0.938671 0.052164
f 805/1/202 806/2/202 807/3/202 808/4/202
v 1.147921 0.294941 0.291745
v 1.311646 0.346735 0.154240
v 1.319307 0.362748 0.169322
v 1.155506 0.310944 0.306877
vn 0.582354 -0.686992 0.434633
f 809/1/203 810/2/203 811/3/203 812/4/203
v 1.155506 0.310944 0.306877
v 1.319307 0.362748 0.169322
v 1.319161 0.384623 0.177326
v 1.155292 0.332804 0.314920
vn 0.667827 -0.251232 0.700635
f 813/1/204 814/2/204 815/3/204 816/4/204
v 1.319161 0.384623 0.177326
v 1.482638 0.435784 0.039251
v 1.474773 0.457675 0.038013
v 1.311249 0.406498 0.176108
vn 0.577178 0.252044 0.776749
f 817/1/205 818/2/205 819/3/205 820/4/205
v 1.311249 0.406498 0.176108
v 1.474773 0.457675 0.038013
v 1.461221 0.473700 0.027907
v 1.297690 0.422511 0.165992
vn 0.330406 0.687942 0.646195
f 821/1/206 822/2/206 823/3/206 824/4/206
v 1.297690 0.422511 0.165992
v 1.461221 0.473700 0.027907
v 1.445612 0.479566 0.011641
v 1.282117 0.428373 0.149691
vn -0.004891 0.939509 0.342488
f 825/1/207 826/2/207 827/3/207 828/4/207
v 1.282117 0.428373 0.149691
v 1.445612 0.479566 0.011641
v 1.432130 0.473700 -0.006426
v 1.268703 0.422511 0.131572
vn -0.338871 0.939339 -0.052995
f 829/1/208 830/2/208 831/3/208 832/4/208
v 1.268703 0.422511 0.131572
v 1.432130 0.473700 -0.006426
v 1.424387 0.457675 -0.021453
v 1.261043 0.406498 0.116489
vn -0.582043 0.687476 -0.434285
f 833/1/209 834/2/209 835/3/209 836/4/209
v 1.261043 0.406498 0.116489
v 1.424387 0.457675 -0.021453
v 1.424457 0.435784 -0.029415
v 1.261188 0.384623 0.108485
vn -0.669249 0.251405 -0.699215
f 837/1/210 838/2/210 839/3/210 840/4/210
v 1.261188 0.384623 0.108485
v 1.424457 0.435784 -0.029415
v 1.432321 0.413893 -0.028176
v 1.269100 0.362748 0.109704
vn -0.577123 -0.252026 -0.776796
f 841/1/211 842/2/211 843/3/211 844/4/211
v 1.269100 0.362748 0.109704
v 1.432321 0.413893 -0.028176
v 1.445874 0.397868 -0.018071
v 1.282659 0.346735 0.119819
vn -0.330350 -0.687924 -0.646242
f 845/1/212 846/2/212 847/3/212 848/4/212
v 1.282659 0.346735 0.119819
v 1.445874 0.397868 -0.018071
v 1.461482 0.392002 -0.001805
v 1.298232 0.340873 0.136120
vn 0.004947 -0.939492 -0.342535
f 849/1/213 850/2/213 851/3/213 852/4/213
v 1.298232 0.340873 0.136120
v 1.461482 0.392002 -0.001805
v 1.474964 0.397868 0.016262
v 1.311646 0.346735 0.154240
vn 0.338926 -0.939322 0.052948
f 853/1/214 854/2/214 855/3/214 856/4/214
v 1.311646 0.346735 0.154240
v 1.474964 0.397868 0.016262
v 1.482708 0.413893 0.031290
v 1.319307 0.362748 0.169322
vn 0.582098 -0.687458 0.434238
f 857/1/215 858/2/215 859/3/215 860/4/215
v 1.319307 0.362748 0.169322
v 1.482708 0.413893 0.031290
v 1.482638 0.435784 0.039251
v 1.319161 0.384623 0.177326
vn 0.669305 -0.251388 0.699168
f 861/1/216 862/2/216 863/3/216 864/4/216
v 1.482638 0.435784 0.039251
v 1.645688 0.486221 -0.099344
v 1.637876 0.508129 -0.100605
v 1.474773 0.457675 0.038013
vn 0.580225 0.252258 0.774406
f 865/1/217 866/2/217 867/3/217 868/4/217
v 1.474773 0.457675 0.038013
v 1.637876 0.508129 -0.100605
v 1.624331 0.524167 -0.110701
v 1.461221 0.473700 0.027907
vn 0.334104 0.688482 0.643714
f 869/1/218 870/2/218 871/3/218 872/4/218
v 1.461221 0.473700 0.027907
v 1.624331 0.524167 -0.110701
v 1.608685 0.530037 -0.126928
v 1.445612 0.479566 0.011641
vn -0.001532 0.940231 0.340533
f 873/1/219 874/2/219 875/3/219 876/4/219
v 1.445612 0.479566 0.011641
v 1.608685 0.530037 -0.126928
v 1.595129 0.524167 -0.144938
v 1.432130 0.473700 -0.006426
vn -0.336751 0.940050 -0.053901
f 877/1/220 878/2/220 879/3/220 880/4/220
v 1.432130 0.473700 -0.006426
v 1.595129 0.524167 -0.144938
v 1.587295 0.508129 -0.159905
v 1.424387 0.457675 -0.021453
vn -0.581729 0.687984 -0.433899
f 881/1/221 882/2/221 883/3/221 884/4/221
v 1.424387 0.457675 -0.021453
v 1.587295 0.508129 -0.159905
v 1.587283 0.486221 -0.167819
v 1.424457 0.435784 -0.029415
vn -0.670825 0.251576 -0.697641
f 885/1/222 886/2/222 887/3/222 888/4/222
v 1.424457 0.435784 -0.029415
v 1.587283 0.486221 -0.167819
v 1.595096 0.464313 -0.166559
v 1.432321 0.413893 -0.028176
vn -0.580166 -0.252239 -0.774456
f 889/1/223 890/2/223 891/3/223 892/4/223
v 1.432321 0.413893 -0.028176
v 1.595096 0.464313 -0.166559
v 1.608640 0.448275 -0.156463
v 1.445874 0.397868 -0.018071
vn -0.334044 -0.688464 -0.643764
f 893/1/224 894/2/224 895/3/224 896/4/224
v 1.445874 0.397868 -0.018071
v 1.608640 0.448275 -0.156463
v 1.624287 0.442405 -0.140236
v 1.461482 0.392002 -0.001805
vn 0.001592 -0.940213 -0.340583
f 897/1/225 898/2/225 899/3/225 900/4/225
v 1.461482 0.392002 -0.001805
v 1.624287 0.442405 -0.140236
v 1.637843 0.448275 -0.122225
v 1.474964 0.397868 0.016262
vn 0.336810 -0.940032 0.053851
f 901/1/226 902/2/226 903/3/226 904/4/226
v 1.474964 0.397868 0.016262
v 1.637843 0.448275 -0.122225
v 1.645676 0.464313 -0.107258
v 1.482708 0.413893 0.031290
vn 0.581788 -0.687966 0.433849
f 905/1/227 906/2/227 907/3/227 908/4/227
v 1.482708 0.413893 0.031290
v 1.645676 0.464313 -0.107258
v 1.645688 0.486221 -0.099344
v 1.482638 0.435784 0.039251
vn 0.670884 -0.251557 0.697591
f 909/1/228 910/2/228 911/3/228 912/4/228
v 1.645688 0.486221 -0.099344
v 1.808276 0.535866 -0.238501
v 1.800520 0.557793 -0.239786
v 1.637876 0.508129 -0.100605
vn 0.583521 0.252488 0.771850
f 913/1/229 914/2/229 915/3/229 916/4/229
v 1.637876 0.508129 -0.100605
v 1.800520 0.557793 -0.239786
v 1.786984 0.573844 -0.249873
v 1.624331 0.524167 -0.110701
vn 0.338115 0.689065 0.640990
f 917/1/230 918/2/230 919/3/230 920/4/230
v 1.624331 0.524167 -0.110701
v 1.786984 0.573844 -0.249873
v 1.771297 0.579720 -0.266058
v 1.608685 0.530037 -0.126928
vn 0.002119 0.941011 0.338371
f 921/1/231 922/2/231 923/3/231 924/4/231
v 1.608685 0.530037 -0.126928
v 1.771297 0.579720 -0.266058
v 1.757661 0.573844 -0.284006
v 1.595129 0.524167 -0.144938
vn -0.334436 0.940817 -0.054922
f 925/1/232 926/2/232 927/3/232 928/4/232
v 1.595129 0.524167 -0.144938
v 1.757661 0.573844 -0.284006
v 1.749729 0.557793 -0.298907
v 1.587295 0.508129 -0.159905
vn -0.581372 0.688534 -0.433507
f 929/1/233 930/2/233 931/3/233 932/4/233
v 1.587295 0.508129 -0.159905
v 1.749729 0.557793 -0.298907
v 1.749628 0.535866 -0.306769
v 1.587283 0.486221 -0.167819
vn -0.672520 0.251760 -0.695941
f 933/1/234 934/2/234 935/3/234 936/4/234
v 1.587283 0.486221 -0.167819
v 1.749628 0.535866 -0.306769
v 1.757385 0.513939 -0.305484
v 1.595096 0.464313 -0.166559
vn -0.583458 -0.252469 -0.771904
f 937/1/235 938/2/235 939/3/235 940/4/235
v 1.595096 0.464313 -0.166559
v 1.757385 0.513939 -0.305484
v 1.770920 0.497888 -0.295398
v 1.608640 0.448275 -0.156463
vn -0.338052 -0.689046 -0.641044
f 941/1/236 942/2/236 943/3/236 944/4/236
v 1.608640 0.448275 -0.156463
v 1.770920 0.497888 -0.295398
v 1.786608 0.492012 -0.279212
v 1.624287 0.442405 -0.140236
vn -0.002056 -0.940991 -0.338425
f 945/1/237 946/2/237 947/3/237 948/4/237
v 1.624287 0.442405 -0.140236
v 1.786608 0.492012 -0.279212
v 1.800244 0.497888 -0.261264
v 1.637843 0.448275 -0.122225
vn 0.334499 -0.940797 0.054869
f 949/1/238 950/2/238 951/3/238 952/4/238
v 1.637843 0.448275 -0.122225
v 1.800244 0.497888 -0.261264
v 1.808175 0.513939 -0.246363
v 1.645676 0.464313 -0.107258
vn 0.581435 -0.688514 0.433453
f 953/1/239 954/2/239 955/3/239 956/4/239
v 1.645676 0.464313 -0.107258
v 1.808175 0.513939 -0.246363
v 1.808276 0.535866 -0.238501
v 1.645688 0.486221 -0.099344
vn 0.672583 -0.251741 0.695887
f 957/1/240 958/2/240 959/3/240 960/4/240
v 1.808276 0.535866 -0.238501
v 1.970360 0.584652 -0.378266
v 1.962665 0.606599 -0.379578
v 1.800520 0.557793 -0.239786
vn 0.587087 0.252735 0.769060
f 961/1/241 962/2/241 963/3/241 964/4/241
v 1.800520 0.557793 -0.239786
v 1.962665 0.606599 -0.379578
v 1.949139 0.622665 -0.389654
v 1.786984 0.573844 -0.249873
vn 0.342455 0.689688 0.638008
f 965/1/242 966/2/242 967/3/242 968/4/242
v 1.786984 0.573844 -0.249873
v 1.949139 0.622665 -0.389654
v 1.933407 0.628545 -0.405794
v 1.771297 0.579720 -0.266058
vn 0.006072 0.941844 0.335996
f 969/1/243 970/2/243 971/3/243 972/4/243
v 1.771297 0.579720 -0.266058
v 1.933407 0.628545 -0.405794
v 1.919684 0.622665 -0.423674
v 1.757661 0.573844 -0.284006
vn -0.331930 0.941637 -0.056055
f 973/1/244 974/2/244 975/3/244 976/4/244
v 1.757661 0.573844 -0.284006
v 1.919684 0.622665 -0.423674
v 1.911647 0.606599 -0.438503
v 1.749729 0.557793 -0.298907
vn -0.580983 0.689121 -0.433094
f 977/1/245 978/2/245 979/3/245 980/4/245
v 1.749729 0.557793 -0.298907
v 1.911647 0.606599 -0.438503
v 1.911450 0.584652 -0.446307
v 1.749628 0.535866 -0.306769
vn -0.674353 0.251957 -0.694094
f 981/1/246 982/2/246 983/3/246 984/4/246
v 1.749628 0.535866 -0.306769
v 1.911450 0.584652 -0.446307
v 1.919145 0.562705 -0.444995
v 1.757385 0.513939 -0.305484
vn -0.587020 -0.252715 -0.769118
f 985/1/247 986/2/247 987/3/247 988/4/247
v 1.757385 0.513939 -0.305484
v 1.919145 0.562705 -0.444995
v 1.932671 0.546639 -0.434919
v 1.770920 0.497888 -0.295398
vn -0.342388 -0.689668 -0.638066
f 989/1/248 990/2/248 991/3/248 992/4/248
v 1.770920 0.497888 -0.295398
v 1.932671 0.546639 -0.434919
v 1.948404 0.540759 -0.418779
v 1.786608 0.492012 -0.279212
vn -0.006004 -0.941824 -0.336054
f 993/1/249 994/2/249 995/3/249 996/4/249
v 1.786608 0.492012 -0.279212
v 1.948404 0.540759 -0.418779
v 1.962126 0.546639 -0.400899
v 1.800244 0.497888 -0.261264
vn 0.331998 -0.941617 0.055997
f 997/1/250 998/2/250 999/3/250 1000/4/250
v 1.800244 0.497888 -0.261264
v 1.962126 0.546639 -0.400899
v 1.970163 0.562705 -0.386070
v 1.808175 0.513939 -0.246363
vn 0.581051 -0.689100 0.433037
f 1001/1/251 1002/2/251 1003/3/251 1004/4/251
v 1.808175 0.513939 -0.246363
v 1.970163 0.562705 -0.386070
v 1.970360 0.584652 -0.378266
v 1.808276 0.535866 -0.238501
vn 0.674420 -0.251937 0.694036
f 1005/1/252 1006/2/252 1007/3/252 1008/4/252
v 1.970360 0.584652 -0.378266
v 2.131894 0.632512 -0.518689
v 2.124264 0.654480 -0.520031
v 1.962665 0.606599 -0.379578
vn 0.590946 0.252998 0.766012
f 1009/1/253 1010/2/253 1011/3/253 1012/4/253
v 1.962665 0.606599 -0.379578
v 2.124264 0.654480 -0.520031
v 2.110747 0.670561 -0.530095
v 1.949139 0.622665 -0.389654
vn 0.347143 0.690351 0.634750
f 1013/1/254 1014/2/254 1015/3/254 1016/4/254
v 1.949139 0.622665 -0.389654
v 2.110747 0.670561 -0.530095
v 2.094967 0.676447 -0.546186
v 1.933407 0.628545 -0.405794
vn 0.010333 0.942729 0.333400
f 1017/1/255 1018/2/255 1019/3/255 1020/4/255
v 1.933407 0.628545 -0.405794
v 2.094967 0.676447 -0.546186
v 2.081150 0.670561 -0.563992
v 1.919684 0.622665 -0.423674
vn -0.329237 0.942508 -0.057293
f 1021/1/256 1022/2/256 1023/3/256 1024/4/256
v 1.919684 0.622665 -0.423674
v 2.081150 0.670561 -0.563992
v 2.072999 0.654480 -0.578742
v 1.911647 0.606599 -0.438503
vn -0.580579 0.689744 -0.432645
f 1025/1/257 1026/2/257 1027/3/257 1028/4/257
v 1.911647 0.606599 -0.438503
v 2.072999 0.654480 -0.578742
v 2.072699 0.632512 -0.586483
v 1.911450 0.584652 -0.446307
vn -0.676345 0.252166 -0.692077
f 1029/1/258 1030/2/258 1031/3/258 1032/4/258
v 1.911450 0.584652 -0.446307
v 2.072699 0.632512 -0.586483
v 2.080329 0.610544 -0.585142
v 1.919145 0.562705 -0.444995
vn -0.590874 -0.252976 -0.766075
f 1033/1/259 1034/2/259 1035/3/259 1036/4/259
v 1.919145 0.562705 -0.444995
v 2.080329 0.610544 -0.585142
v 2.093846 0.594463 -0.575077
v 1.932671 0.546639 -0.434919
vn -0.347071 -0.690329 -0.634813
f 1037/1/260 1038/2/260 1039/3/260 1040/4/260
v 1.932671 0.546639 -0.434919
v 2.093846 0.594463 -0.575077
v 2.109626 0.588577 -0.558986
v 1.948404 0.540759 -0.418779
vn -0.010261 -0.942708 -0.333463
f 1041/1/261 1042/2/261 1043/3/261 1044/4/261
v 1.948404 0.540759 -0.418779
v 2.109626 0.588577 -0.558986
v 2.123443 0.594463 -0.541181
v 1.962126 0.546639 -0.400899
vn 0.329309 -0.942486 0.057231
f 1045/1/262 1046/2/262 1047/3/262 1048/4/262
v 1.962126 0.546639 -0.400899
v 2.123443 0.594463 -0.541181
v 2.131593 0.610544 -0.526431
v 1.970163 0.562705 -0.386070
vn 0.580651 -0.689723 0.432583
f 1049/1/263 1050/2/263 1051/3/263 1052/4/263
v 1.970163 0.562705 -0.386070
v 2.131593 0.610544 -0.526431
v 2.131894 0.632512 -0.518689
v 1.970360 0.584652 -0.378266
vn 0.676416 -0.252144 0.692015
f 1053/1/264 1054/2/264 1055/3/264 1056/4/264
v 2.131894 0.632512 -0.518689
v 2.292825 0.679379 -0.659829
v 2.285264 0.701368 -0.661202
v 2.124264 0.654480 -0.520031
vn 0.595123 0.253275 0.762680
f 1057/1/265 1058/2/265 1059/3/265 1060/4/265
v 2.124264 0.654480 -0.520031
v 2.285264 0.701368 -0.661202
v 2.271758 0.717466 -0.671253
v 2.110747 0.670561 -0.530095
vn 0.352198 0.691049 0.631195
f 1061/1/266 1062/2/266 1063/3/266 1064/4/266
v 2.110747 0.670561 -0.530095
v 2.271758 0.717466 -0.671253
v 2.255924 0.723358 -0.687290
v 2.094967 0.676447 -0.546186
vn 0.014912 0.943662 0.330575
f 1065/1/267 1066/2/267 1067/3/267 1068/4/267
v 2.094967 0.676447 -0.546186
v 2.255924 0.723358 -0.687290
v 2.242005 0.717466 -0.705014
v 2.081150 0.670561 -0.563992
vn -0.326360 0.943425 -0.058632
f 1069/1/268 1070/2/268 1071/3/268 1072/4/268
v 2.081150 0.670561 -0.563992
v 2.242005 0.717466 -0.705014
v 2.233732 0.701368 -0.719678
v 2.072999 0.654480 -0.578742
vn -0.580175 0.690400 -0.432139
f 1073/1/269 1074/2/269 1075/3/269 1076/4/269
v 2.072999 0.654480 -0.578742
v 2.233732 0.701368 -0.719678
v 2.233321 0.679379 -0.727351
v 2.072699 0.632512 -0.586483
vn -0.678521 0.252385 -0.689864
f 1077/1/270 1078/2/270 1079/3/270 1080/4/270
v 2.072699 0.632512 -0.586483
v 2.233321 0.679379 -0.727351
v 2.240882 0.657389 -0.725978
v 2.080329 0.610544 -0.585142
vn -0.595046 -0.253253 -0.762747
f 1081/1/271 1082/2/271 1083/3/271 1084/4/271
v 2.080329 0.610544 -0.585142
v 2.240882 0.657389 -0.725978
v 2.254389 0.641291 -0.715927
v 2.093846 0.594463 -0.575077
vn -0.352121 -0.691027 -0.631263
f 1085/1/272 1086/2/272 1087/3/272 1088/4/272
v 2.093846 0.594463 -0.575077
v 2.254389 0.641291 -0.715927
v 2.270222 0.635399 -0.699890
v 2.109626 0.588577 -0.558986
vn -0.014835 -0.943640 -0.330642
f 1089/1/273 1090/2/273 1091/3/273 1092/4/273
v 2.109626 0.588577 -0.558986
v 2.270222 0.635399 -0.699890
v 2.284141 0.641291 -0.682166
v 2.123443 0.594463 -0.541181
vn 0.326437 -0.943403 0.058565
f 1093/1/274 1094/2/274 1095/3/274 1096/4/274
v 2.123443 0.594463 -0.541181
v 2.284141 0.641291 -0.682166
v 2.292414 0.657389 -0.667502
v 2.131593 0.610544 -0.526431
vn 0.580251 -0.690378 0.432072
f 1097/1/275 1098/2/275 1099/3/275 1100/4/275
v 2.131593 0.610544 -0.526431
v 2.292414 0.657389 -0.667502
v 2.292825 0.679379 -0.659829
v 2.131894 0.632512 -0.518689
vn 0.678597 -0.252362 0.689796
f 1101/1/276 1102/2/276 1103/3/276 1104/4/276
v 2.292825 0.679379 -0.659829
v 2.453095 0.725185 -0.801748
v 2.445608 0.747197 -0.803154
v 2.285264 0.701368 -0.661202
vn 0.599649 0.253567 0.759029
f 1105/1/277 1106/2/277 1107/3/277 1108/4/277
v 2.285264 0.701368 -0.661202
v 2.445608 0.747197 -0.803154
v 2.432110 0.763312 -0.813190
v 2.271758 0.717466 -0.671253
vn 0.357643 0.691782 0.627319
f 1109/1/278 1110/2/278 1111/3/278 1112/4/278
v 2.271758 0.717466 -0.671253
v 2.432110 0.763312 -0.813190
v 2.416218 0.769210 -0.829167
v 2.255924 0.723358 -0.687290
vn 0.019819 0.944640 0.327511
f 1113/1/279 1114/2/279 1115/3/279 1116/4/279
v 2.255924 0.723358 -0.687290
v 2.416218 0.769210 -0.829167
v 2.402189 0.763312 -0.846802
v 2.242005 0.717466 -0.705014
vn -0.323305 0.944387 -0.060065
f 1117/1/280 1118/2/280 1119/3/280 1120/4/280
v 2.242005 0.717466 -0.705014
v 2.402189 0.763312 -0.846802
v 2.393784 0.747197 -0.861372
v 2.233732 0.701368 -0.719678
vn -0.579791 0.691087 -0.431557
f 1121/1/281 1122/2/281 1123/3/281 1124/4/281
v 2.233732 0.701368 -0.719678
v 2.393784 0.747197 -0.861372
v 2.393254 0.725185 -0.868971
v 2.233321 0.679379 -0.727351
vn -0.680909 0.252613 -0.687422
f 1125/1/282 1126/2/282 1127/3/282 1128/4/282
v 2.233321 0.679379 -0.727351
v 2.393254 0.725185 -0.868971
v 2.400741 0.703172 -0.867565
v 2.240882 0.657389 -0.725978
vn -0.599567 -0.253543 -0.759102
f 1129/1/283 1130/2/283 1131/3/283 1132/4/283
v 2.240882 0.657389 -0.725978
v 2.400741 0.703172 -0.867565
v 2.414239 0.687057 -0.857529
v 2.254389 0.641291 -0.715927
vn -0.357561 -0.691759 -0.627391
f 1133/1/284 1134/2/284 1135/3/284 1136/4/284
v 2.254389 0.641291 -0.715927
v 2.414239 0.687057 -0.857529
v 2.430131 0.681159 -0.841552
v 2.270222 0.635399 -0.699890
vn -0.019737 -0.944616 -0.327583
f 1137/1/285 1138/2/285 1139/3/285 1140/4/285
v 2.270222 0.635399 -0.699890
v 2.430131 0.681159 -0.841552
v 2.444160 0.687057 -0.823917
v 2.284141 0.641291 -0.682166
vn 0.323387 -0.944363 0.059992
f 1141/1/286 1142/2/286 1143/3/286 1144/4/286
v 2.284141 0.641291 -0.682166
v 2.444160 0.687057 -0.823917
v 2.452565 0.703172 -0.809347
v 2.292414 0.657389 -0.667502
vn 0.579872 -0.691064 0.431484
f 1145/1/287 1146/2/287 1147/3/287 1148/4/287
v 2.292414 0.657389 -0.667502
v 2.452565 0.703172 -0.809347
v 2.453095 0.725185 -0.801748
v 2.292825 0.679379 -0.659829
vn 0.680991 -0.252590 0.687350
f 1149/1/288 1150/2/288 1151/3/288 1152/4/288
v 2.453095 0.725185 -0.801748
v 2.612637 0.769863 -0.944517
v 2.605227 0.791900 -0.945959
v 2.445608 0.747197 -0.803154
vn 0.604556 0.253872 0.755024
f 1153/1/289 1154/2/289 1155/3/289 1156/4/289
v 2.445608 0.747197 -0.803154
v 2.605227 0.791900 -0.945959
v 2.591737 0.808032 -0.955977
v 2.432110 0.763312 -0.813190
vn 0.363505 0.692546 0.623092
f 1157/1/290 1158/2/290 1159/3/290 1160/4/290
v 2.432110 0.763312 -0.813190
v 2.591737 0.808032 -0.955977
v 2.575780 0.813936 -0.971887
v 2.416218 0.769210 -0.829167
vn 0.025067 0.945658 0.324194
f 1161/1/291 1162/2/291 1163/3/291 1164/4/291
v 2.416218 0.769210 -0.829167
v 2.575780 0.813936 -0.971887
v 2.561632 0.808032 -0.989425
v 2.402189 0.763312 -0.846802
vn -0.320079 0.945387 -0.061583
f 1165/1/292 1166/2/292 1167/3/292 1168/4/292
v 2.402189 0.763312 -0.846802
v 2.561632 0.808032 -0.989425
v 2.553085 0.791900 -1.003892
v 2.393784 0.747197 -0.861372
vn -0.579448 0.691802 -0.430871
f 1169/1/293 1170/2/293 1171/3/293 1172/4/293
v 2.393784 0.747197 -0.861372
v 2.553085 0.791900 -1.003892
v 2.552428 0.769863 -1.011412
v 2.393254 0.725185 -0.868971
vn -0.683542 0.252850 -0.684717
f 1173/1/294 1174/2/294 1175/3/294 1176/4/294
v 2.393254 0.725185 -0.868971
v 2.552428 0.769863 -1.011412
v 2.559837 0.747826 -1.009969
v 2.400741 0.703172 -0.867565
vn -0.604468 -0.253847 -0.755102
f 1177/1/295 1178/2/295 1179/3/295 1180/4/295
v 2.400741 0.703172 -0.867565
v 2.559837 0.747826 -1.009969
v 2.573328 0.731694 -0.999951
v 2.414239 0.687057 -0.857529
vn -0.363418 -0.692522 -0.623170
f 1181/1/296 1182/2/296 1183/3/296 1184/4/296
v 2.414239 0.687057 -0.857529
v 2.573328 0.731694 -0.999951
v 2.589285 0.725789 -0.984042
v 2.430131 0.681159 -0.841552
vn -0.024979 -0.945634 -0.324273
f 1185/1/297 1186/2/297 1187/3/297 1188/4/297
v 2.430131 0.681159 -0.841552
v 2.589285 0.725789 -0.984042
v 2.603432 0.731694 -0.966504
v 2.444160 0.687057 -0.823917
vn 0.320166 -0.945363 0.061505
f 1189/1/298 1190/2/298 1191/3/298 1192/4/298
v 2.444160 0.687057 -0.823917
v 2.603432 0.731694 -0.966504
v 2.611980 0.747826 -0.952037
v 2.452565 0.703172 -0.809347
vn 0.579536 -0.691777 0.430793
f 1193/1/299 1194/2/299 1195/3/299 1196/4/299
v 2.452565 0.703172 -0.809347
v 2.611980 0.747826 -0.952037
v 2.612637 0.769863 -0.944517
v 2.453095 0.725185 -0.801748
vn 0.683630 -0.252825 0.684639
f 1197/1/300 1198/2/300 1199/3/300 1200/4/300
v 2.612637 0.769863 -0.944517
v 2.771374 0.813346 -1.088217
v 2.764046 0.835407 -1.089697
v 2.605227 0.791900 -0.945959
vn 0.609884 0.254190 0.750619
f 1201/1/301 1202/2/301 1203/3/301 1204/4/301
v 2.605227 0.791900 -0.945959
v 2.764046 0.835407 -1.089697
v 2.750561 0.851557 -1.099693
v 2.591737 0.808032 -0.955977
vn 0.369814 0.693339 0.618481
f 1205/1/302 1206/2/302 1207/3/302 1208/4/302
v 2.591737 0.808032 -0.955977
v 2.750561 0.851557 -1.099693
v 2.734532 0.857469 -1.115528
v 2.575780 0.813936 -0.971887
vn 0.030666 0.946714 0.320612
f 1209/1/303 1210/2/303 1211/3/303 1212/4/303
v 2.575780 0.813936 -0.971887
v 2.734532 0.857469 -1.115528
v 2.720255 0.851557 -1.132958
v 2.561632 0.808032 -0.989425
vn -0.316688 0.946424 -0.063177
f 1213/1/304 1214/2/304 1215/3/304 1216/4/304
v 2.561632 0.808032 -0.989425
v 2.720255 0.851557 -1.132958
v 2.711554 0.835407 -1.147313
v 2.553085 0.791900 -1.003892
vn -0.579174 0.692541 -0.430051
f 1217/1/305 1218/2/305 1219/3/305 1220/4/305
v 2.553085 0.791900 -1.003892
v 2.711554 0.835407 -1.147313
v 2.710762 0.813346 -1.154747
v 2.552428 0.769863 -1.011412
vn -0.686457 0.253094 -0.681704
f 1221/1/306 1222/2/306 1223/3/306 1224/4/306
v 2.552428 0.769863 -1.011412
v 2.710762 0.813346 -1.154747
v 2.718090 0.791284 -1.153268
v 2.559837 0.747826 -1.009969
vn -0.609790 -0.254164 -0.750704
f 1225/1/307 1226/2/307 1227/3/307 1228/4/307
v 2.559837 0.747826 -1.009969
v 2.718090 0.791284 -1.153268
v 2.731575 0.775134 -1.143271
v 2.573328 0.731694 -0.999951
vn -0.369720 -0.693313 -0.618566
f 1229/1/308 1230/2/308 1231/3/308 1232/4/308
v 2.573328 0.731694 -0.999951
v 2.731575 0.775134 -1.143271
v 2.747604 0.769223 -1.127437
v 2.589285 0.725789 -0.984042
vn -0.030572 -0.946688 -0.320697
f 1233/1/309 1234/2/309 1235/3/309 1236/4/309
v 2.589285 0.725789 -0.984042
v 2.747604 0.769223 -1.127437
v 2.761881 0.775134 -1.110006
v 2.603432 0.731694 -0.966504
vn 0.316782 -0.946398 0.063093
f 1237/1/310 1238/2/310 1239/3/310 1240/4/310
v 2.603432 0.731694 -0.966504
v 2.761881 0.775134 -1.110006
v 2.770581 0.791284 -1.095651
v 2.611980 0.747826 -0.952037
vn 0.579268 -0.692515 0.429967
f 1241/1/311 1242/2/311 1243/3/311 1244/4/311
v 2.611980 0.747826 -0.952037
v 2.770581 0.791284 -1.095651
v 2.771374 0.813346 -1.088217
v 2.612637 0.769863 -0.944517
vn 0.686551 -0.253068 0.681619
f 1245/1/312 1246/2/312 1247/3/312 1248/4/312
v 2.771374 0.813346 -1.088217
v 2.929219 0.855566 -1.232938
v 2.921975 0.877653 -1.234456
v 2.764046 0.835407 -1.089697
vn 0.615677 0.254519 0.745763
f 1249/1/313 1250/2/313 1251/3/313 1252/4/313
v 2.764046 0.835407 -1.089697
v 2.921975 0.877653 -1.234456
v 2.908493 0.893822 -1.244426
v 2.750561 0.851557 -1.099693
vn 0.376603 0.694157 0.613447
f 1253/1/314 1254/2/314 1255/3/314 1256/4/314
v 2.750561 0.851557 -1.099693
v 2.908493 0.893822 -1.244426
v 2.892385 0.899740 -1.260177
v 2.734532 0.857469 -1.115528
vn 0.036633 0.947802 0.316748
f 1257/1/315 1258/2/315 1259/3/315 1260/4/315
v 2.734532 0.857469 -1.115528
v 2.892385 0.899740 -1.260177
v 2.877966 0.893822 -1.277489
v 2.720255 0.851557 -1.132958
vn -0.313142 0.947491 -0.064836
f 1261/1/316 1262/2/316 1263/3/316 1264/4/316
v 2.720255 0.851557 -1.132958
v 2.877966 0.893822 -1.277489
v 2.869101 0.877653 -1.291722
v 2.711554 0.835407 -1.147313
vn -0.578998 0.693301 -0.429063
f 1265/1/317 1266/2/317 1267/3/317 1268/4/317
v 2.711554 0.835407 -1.147313
v 2.869101 0.877653 -1.291722
v 2.868165 0.855566 -1.299063
v 2.710762 0.813346 -1.154747
vn -0.689697 0.253343 -0.678333
f 1269/1/318 1270/2/318 1271/3/318 1272/4/318
v 2.710762 0.813346 -1.154747
v 2.868165 0.855566 -1.299063
v 2.875408 0.833480 -1.297545
v 2.718090 0.791284 -1.153268
vn -0.615577 -0.254492 -0.745855
f 1273/1/319 1274/2/319 1275/3/319 1276/4/319
v 2.718090 0.791284 -1.153268
v 2.875408 0.833480 -1.297545
v 2.888890 0.817311 -1.287575
v 2.731575 0.775134 -1.143271
vn -0.376502 -0.694130 -0.613539
f 1277/1/320 1278/2/320 1279/3/320 1280/4/320
v 2.731575 0.775134 -1.143271
v 2.888890 0.817311 -1.287575
v 2.904999 0.811393 -1.271824
v 2.747604 0.769223 -1.127437
vn -0.036532 -0.947775 -0.316840
f 1281/1/321 1282/2/321 1283/3/321 1284/4/321
v 2.747604 0.769223 -1.127437
v 2.904999 0.811393 -1.271824
v 2.919417 0.817311 -1.254512
v 2.761881 0.775134 -1.110006
vn 0.313242 -0.947464 0.064745
f 1285/1/322 1286/2/322 1287/3/322 1288/4/322
v 2.761881 0.775134 -1.110006
v 2.919417 0.817311 -1.254512
v 2.928282 0.833480 -1.240279
v 2.770581 0.791284 -1.095651
vn 0.579098 -0.693274 0.428972
f 1289/1/323 1290/2/323 1291/3/323 1292/4/323
v 2.770581 0.791284 -1.095651
v 2.928282 0.833480 -1.240279
v 2.929219 0.855566 -1.232938
v 2.771374 0.813346 -1.088217
vn 0.689797 -0.253315 0.678242
f 1293/1/324 1294/2/324 1295/3/324 1296/4/324
v 2.929219 0.855566 -1.232938
v 3.086095 0.896458 -1.378805
v 3.078939 0.918570 -1.380357
v 2.921975 0.877653 -1.234456
vn 0.621991 0.254861 0.740387
f 1297/1/325 1298/2/325 1299/3/325 1300/4/325
v 2.921975 0.877653 -1.234456
v 3.078939 0.918570 -1.380357
v 3.065449 0.934758 -1.390285
v 2.908493 0.893822 -1.244426
vn 0.383916 0.694998 0.607936
f 1301/1/326 1302/2/326 1303/3/326 1304/4/326
v 2.908493 0.893822 -1.244426
v 3.065449 0.934758 -1.390285
v 3.049240 0.940683 -1.405930
v 2.892385 0.899740 -1.260177
vn 0.042987 0.948919 0.312577
f 1305/1/327 1306/2/327 1307/3/327 1308/4/327
v 2.892385 0.899740 -1.260177
v 3.049240 0.940683 -1.405930
v 3.034655 0.934758 -1.423098
v 2.877966 0.893822 -1.277489
vn -0.309446 0.948585 -0.066553
f 1309/1/328 1310/2/328 1311/3/328 1312/4/328
v 2.877966 0.893822 -1.277489
v 3.034655 0.934758 -1.423098
v 3.025602 0.918570 -1.437191
v 2.869101 0.877653 -1.291722
vn -0.578950 0.694079 -0.427868
f 1313/1/329 1314/2/329 1315/3/329 1316/4/329
v 2.869101 0.877653 -1.291722
v 3.025602 0.918570 -1.437191
v 3.024507 0.896458 -1.444431
v 2.868165 0.855566 -1.299063
vn -0.693305 0.253597 -0.674549
f 1317/1/330 1318/2/330 1319/3/330 1320/4/330
v 2.868165 0.855566 -1.299063
v 3.024507 0.896458 -1.444431
v 3.031663 0.874345 -1.442879
v 2.875408 0.833480 -1.297545
vn -0.621872 -0.254829 -0.740498
f 1321/1/331 1322/2/331 1323/3/331 1324/4/331
v 2.875408 0.833480 -1.297545
v 3.031663 0.874345 -1.442879
v 3.045153 0.858157 -1.432951
v 2.888890 0.817311 -1.287575
vn -0.383797 -0.694967 -0.608047
f 1325/1/332 1326/2/332 1327/3/332 1328/4/332
v 2.888890 0.817311 -1.287575
v 3.045153 0.858157 -1.432951
v 3.061362 0.852232 -1.417306
v 2.904999 0.811393 -1.271824
vn -0.042869 -0.948888 -0.312687
f 1329/1/333 1330/2/333 1331/3/333 1332/4/333
v 2.904999 0.811393 -1.271824
v 3.061362 0.852232 -1.417306
v 3.075947 0.858157 -1.400137
v 2.919417 0.817311 -1.254512
vn 0.309564 -0.948554 0.066444
f 1333/1/334 1334/2/334 1335/3/334 1336/4/334
v 2.919417 0.817311 -1.254512
v 3.075947 0.858157 -1.400137
v 3.085000 0.874345 -1.386045
v 2.928282 0.833480 -1.240279
vn 0.579068 -0.694048 0.427760
f 1337/1/335 1338/2/335 1339/3/335 1340/4/335
v 2.928282 0.833480 -1.240279
v 3.085000 0.874345 -1.386045
v 3.086095 0.896458 -1.378805
v 2.929219 0.855566 -1.232938
vn 0.693423 -0.253565 0.674440
f 1341/1/336 1342/2/336 1343/3/336 1344/4/336
v 3.086095 0.896458 -1.378805
v 3.241655 0.935952 -1.526150
v 3.234588 0.958091 -1.527735
v 3.078939 0.918570 -1.380357
vn 0.629926 0.255340 0.733482
f 1345/1/337 1346/2/337 1347/3/337 1348/4/337
v 3.078939 0.918570 -1.380357
v 3.234588 0.958091 -1.527735
v 3.221082 0.974298 -1.537610
v 3.065449 0.934758 -1.390285
vn 0.392604 0.695950 0.601262
f 1349/1/338 1350/2/338 1351/3/338 1352/4/338
v 3.065449 0.934758 -1.390285
v 3.221082 0.974298 -1.537610
v 3.204756 0.980230 -1.553130
v 3.049240 0.940683 -1.405930
vn 0.050103 0.950092 0.307920
f 1353/1/339 1354/2/339 1355/3/339 1356/4/339
v 3.049240 0.940683 -1.405930
v 3.204756 0.980230 -1.553130
v 3.189985 0.974298 -1.570136
v 3.034655 0.934758 -1.423098
vn -0.305810 0.949665 -0.067948
f 1357/1/340 1358/2/340 1359/3/340 1360/4/340
v 3.034655 0.934758 -1.423098
v 3.189985 0.974298 -1.570136
v 3.180726 0.958091 -1.584072
v 3.025602 0.918570 -1.437191
vn -0.579766 0.694774 -0.425629
f 1361/1/341 1362/2/341 1363/3/341 1364/4/341
v 3.025602 0.918570 -1.437191
v 3.180726 0.958091 -1.584072
v 3.179460 0.935952 -1.591203
v 3.024507 0.896458 -1.444431
vn -0.698352 0.253721 -0.669276
f 1365/1/342 1366/2/342 1367/3/342 1368/4/342
v 3.024507 0.896458 -1.444431
v 3.179460 0.935952 -1.591203
v 3.186527 0.913813 -1.589618
v 3.031663 0.874345 -1.442879
vn -0.629796 -0.255306 -0.733604
f 1369/1/343 1370/2/343 1371/3/343 1372/4/343
v 3.031663 0.874345 -1.442879
v 3.186527 0.913813 -1.589618
v 3.200033 0.897606 -1.579743
v 3.045153 0.858157 -1.432951
vn -0.392475 -0.695917 -0.601384
f 1373/1/344 1374/2/344 1375/3/344 1376/4/344
v 3.045153 0.858157 -1.432951
v 3.200033 0.897606 -1.579743
v 3.216359 0.891673 -1.564223
v 3.061362 0.852232 -1.417306
vn -0.049973 -0.950059 -0.308042
f 1377/1/345 1378/2/345 1379/3/345 1380/4/345
v 3.061362 0.852232 -1.417306
v 3.216359 0.891673 -1.564223
v 3.231130 0.897606 -1.547216
v 3.075947 0.858157 -1.400137
vn 0.305940 -0.949632 0.067827
f 1381/1/346 1382/2/346 1383/3/346 1384/4/346
v 3.075947 0.858157 -1.400137
v 3.231130 0.897606 -1.547216
v 3.240389 0.913813 -1.533281
v 3.085000 0.874345 -1.386045
vn 0.579896 -0.694740 0.425508
f 1385/1/347 1386/2/347 1387/3/347 1388/4/347
v 3.085000 0.874345 -1.386045
v 3.240389 0.913813 -1.533281
v 3.241655 0.935952 -1.526150
v 3.086095 0.896458 -1.378805
vn 0.698481 -0.253687 0.669154
f 1389/1/348 1390/2/348 1391/3/348 1392/4/348
v 3.241655 0.935952 -1.526150
v 3.395869 0.973982 -1.674965
v 3.388894 0.996148 -1.676582
v 3.234588 0.958091 -1.527735
vn 0.637946 0.255623 0.726417
f 1393/1/349 1394/2/349 1395/3/349 1396/4/349
v 3.234588 0.958091 -1.527735
v 3.388894 0.996148 -1.676582
v 3.375366 1.012375 -1.686395
v 3.221082 0.974298 -1.537610
vn 0.401515 0.696770 0.594388
f 1397/1/350 1398/2/350 1399/3/350 1400/4/350
v 3.221082 0.974298 -1.537610
v 3.375366 1.012375 -1.686395
v 3.358911 1.018314 -1.701776
v 3.204756 0.980230 -1.553130
vn 0.057519 0.951228 0.303079
f 1401/1/351 1402/2/351 1403/3/351 1404/4/351
v 3.204756 0.980230 -1.553130
v 3.358911 1.018314 -1.701776
v 3.343938 1.012375 -1.718602
v 3.189985 0.974298 -1.570136
vn -0.301876 0.950813 -0.069462
f 1405/1/352 1406/2/352 1407/3/352 1408/4/352
v 3.189985 0.974298 -1.570136
v 3.343938 1.012375 -1.718602
v 3.334458 0.996148 -1.732365
v 3.180726 0.958091 -1.584072
vn -0.580366 0.695627 -0.423412
f 1409/1/353 1410/2/353 1411/3/353 1412/4/353
v 3.180726 0.958091 -1.584072
v 3.334458 0.996148 -1.732365
v 3.333012 0.973982 -1.739378
v 3.179460 0.935952 -1.591203
vn -0.703324 0.254050 -0.663923
f 1413/1/354 1414/2/354 1415/3/354 1416/4/354
v 3.179460 0.935952 -1.591203
v 3.333012 0.973982 -1.739378
v 3.339987 0.951816 -1.737760
v 3.186527 0.913813 -1.589618
vn -0.637808 -0.255589 -0.726550
f 1417/1/355 1418/2/355 1419/3/355 1420/4/355
v 3.186527 0.913813 -1.589618
v 3.339987 0.951816 -1.737760
v 3.353514 0.935589 -1.727947
v 3.200033 0.897606 -1.579743
vn -0.401377 -0.696736 -0.594521
f 1421/1/356 1422/2/356 1423/3/356 1424/4/356
v 3.200033 0.897606 -1.579743
v 3.353514 0.935589 -1.727947
v 3.369969 0.929650 -1.712567
v 3.216359 0.891673 -1.564223
vn -0.057381 -0.951194 -0.303211
f 1425/1/357 1426/2/357 1427/3/357 1428/4/357
v 3.216359 0.891673 -1.564223
v 3.369969 0.929650 -1.712567
v 3.384943 0.935589 -1.695740
v 3.231130 0.897606 -1.547216
vn 0.302013 -0.950779 0.069331
f 1429/1/358 1430/2/358 1431/3/358 1432/4/358
v 3.231130 0.897606 -1.547216
v 3.384943 0.935589 -1.695740
v 3.394423 0.951816 -1.681977
v 3.240389 0.913813 -1.533281
vn 0.580503 -0.695593 0.423281
f 1433/1/359 1434/2/359 1435/3/359 1436/4/359
v 3.240389 0.913813 -1.533281
v 3.394423 0.951816 -1.681977
v 3.395869 0.973982 -1.674965
v 3.241655 0.935952 -1.526150
vn 0.703462 -0.254016 0.663790
f 1437/1/360 1438/2/360 1439/3/360 1440/4/360
v 3.395869 0.973982 -1.674965
v 3.548484 1.010481 -1.825567
v 3.541601 1.032674 -1.827208
v 3.388894 0.996148 -1.676582
vn 0.647263 0.256059 0.717972
f 1441/1/361 1442/2/361 1443/3/361 1444/4/361
v 3.388894 0.996148 -1.676582
v 3.541601 1.032674 -1.827208
v 3.528033 1.048920 -1.836932
v 3.375366 1.012375 -1.686395
vn 0.411521 0.697704 0.586395
f 1445/1/362 1446/2/362 1447/3/362 1448/4/362
v 3.375366 1.012375 -1.686395
v 3.528033 1.048920 -1.836932
v 3.511416 1.054867 -1.852134
v 3.358911 1.018314 -1.701776
vn 0.065534 0.952415 0.297677
f 1449/1/363 1450/2/363 1451/3/363 1452/4/363
v 3.358911 1.018314 -1.701776
v 3.511416 1.054867 -1.852134
v 3.496202 1.048920 -1.868741
v 3.343938 1.012375 -1.718602
vn -0.297998 0.951935 -0.070832
f 1453/1/364 1454/2/364 1455/3/364 1456/4/364
v 3.343938 1.012375 -1.718602
v 3.496202 1.048920 -1.868741
v 3.486468 1.032674 -1.882302
v 3.334458 0.996148 -1.732365
vn -0.581660 0.696382 -0.420386
f 1457/1/365 1458/2/365 1459/3/365 1460/4/365
v 3.334458 0.996148 -1.732365
v 3.486468 1.032674 -1.882302
v 3.484822 1.010481 -1.889184
v 3.333012 0.973982 -1.739378
vn -0.709439 0.254236 -0.657313
f 1461/1/366 1462/2/366 1463/3/366 1464/4/366
v 3.333012 0.973982 -1.739378
v 3.484822 1.010481 -1.889184
v 3.491706 0.988288 -1.887543
v 3.339987 0.951816 -1.737760
vn -0.647101 -0.256019 -0.718133
f 1465/1/367 1466/2/367 1467/3/367 1468/4/367
v 3.339987 0.951816 -1.737760
v 3.491706 0.988288 -1.887543
v 3.505274 0.972042 -1.877819
v 3.353514 0.935589 -1.727947
vn -0.411358 -0.697666 -0.586555
f 1469/1/368 1470/2/368 1471/3/368 1472/4/368
v 3.353514 0.935589 -1.727947
v 3.505274 0.972042 -1.877819
v 3.521891 0.966095 -1.862617
v 3.369969 0.929650 -1.712567
vn -0.065372 -0.952377 -0.297835
f 1473/1/369 1474/2/369 1475/3/369 1476/4/369
v 3.369969 0.929650 -1.712567
v 3.521891 0.966095 -1.862617
v 3.537105 0.972042 -1.846011
v 3.384943 0.935589 -1.695740
vn 0.298159 -0.951896 0.070675
f 1477/1/370 1478/2/370 1479/3/370 1480/4/370
v 3.384943 0.935589 -1.695740
v 3.537105 0.972042 -1.846011
v 3.546839 0.988288 -1.832449
v 3.394423 0.951816 -1.681977
vn 0.581821 -0.696342 0.420228
f 1481/1/371 1482/2/371 1483/3/371 1484/4/371
v 3.394423 0.951816 -1.681977
v 3.546839 0.988288 -1.832449
v 3.548484 1.010481 -1.825567
v 3.395869 0.973982 -1.674965
vn 0.709600 -0.254196 0.657155
f 1485/1/372 1486/2/372 1487/3/372 1488/4/372
v 3.548484 1.010481 -1.825567
v 3.699068 1.045381 -1.978380
v 3.692275 1.067601 -1.980033
v 3.541601 1.032674 -1.827208
vn 0.658508 0.256553 0.707494
f 1489/1/373 1490/2/373 1491/3/373 1492/4/373
v 3.541601 1.032674 -1.827208
v 3.692275 1.067601 -1.980033
v 3.678642 1.083867 -1.989634
v 3.528033 1.048920 -1.836932
vn 0.423152 0.698683 0.576875
f 1493/1/374 1494/2/374 1495/3/374 1496/4/374
v 3.528033 1.048920 -1.836932
v 3.678642 1.083867 -1.989634
v 3.661824 1.089821 -2.004610
v 3.511416 1.054867 -1.852134
vn 0.074437 0.953621 0.291661
f 1497/1/375 1498/2/375 1499/3/375 1500/4/375
v 3.511416 1.054867 -1.852134
v 3.661824 1.089821 -2.004610
v 3.646325 1.083867 -2.020949
v 3.496202 1.048920 -1.868741
vn -0.294208 0.953045 -0.071738
f 1501/1/376 1502/2/376 1503/3/376 1504/4/376
v 3.496202 1.048920 -1.868741
v 3.646325 1.083867 -2.020949
v 3.636300 1.067601 -2.034272
v 3.486468 1.032674 -1.882302
vn -0.583994 0.697095 -0.415943
f 1505/1/377 1506/2/377 1507/3/377 1508/4/377
v 3.486468 1.032674 -1.882302
v 3.636300 1.067601 -2.034272
v 3.634433 1.045381 -2.041009
v 3.484822 1.010481 -1.889184
vn -0.717265 0.254362 -0.648715
f 1509/1/378 1510/2/378 1511/3/378 1512/4/378
v 3.484822 1.010481 -1.889184
v 3.634433 1.045381 -2.041009
v 3.641226 1.023162 -2.039356
v 3.491706 0.988288 -1.887543
vn -0.658320 -0.256509 -0.707685
f 1513/1/379 1514/2/379 1515/3/379 1516/4/379
v 3.491706 0.988288 -1.887543
v 3.641226 1.023162 -2.039356
v 3.654858 1.006896 -2.029755
v 3.505274 0.972042 -1.877819
vn -0.422963 -0.698640 -0.577065
f 1517/1/380 1518/2/380 1519/3/380 1520/4/380
v 3.505274 0.972042 -1.877819
v 3.654858 1.006896 -2.029755
v 3.671677 1.000942 -2.014779
v 3.521891 0.966095 -1.862617
vn -0.074249 -0.953578 -0.291849
f 1521/1/381 1522/2/381 1523/3/381 1524/4/381
v 3.521891 0.966095 -1.862617
v 3.671677 1.000942 -2.014779
v 3.687176 1.006896 -1.998440
v 3.537105 0.972042 -1.846011
vn 0.294394 -0.953002 0.071551
f 1525/1/382 1526/2/382 1527/3/382 1528/4/382
v 3.537105 0.972042 -1.846011
v 3.687176 1.006896 -1.998440
v 3.697201 1.023162 -1.985118
v 3.546839 0.988288 -1.832449
vn 0.584181 -0.697051 0.415756
f 1529/1/383 1530/2/383 1531/3/383 1532/4/383
v 3.546839 0.988288 -1.832449
v 3.697201 1.023162 -1.985118
v 3.699068 1.045381 -1.978380
v 3.548484 1.010481 -1.825567
vn 0.717453 -0.254317 0.648525
f 1533/1/384 1534/2/384 1535/3/384 1536/4/384
v 3.699068 1.045381 -1.978380
v 3.847166 1.078616 -2.133812
v 3.840532 1.100878 -2.135540
v 3.692275 1.067601 -1.980033
vn 0.671617 0.257026 0.694887
f 1537/1/385 1538/2/385 1539/3/385 1540/4/385
v 3.692275 1.067601 -1.980033
v 3.840532 1.100878 -2.135540
v 3.826860 1.117175 -2.145030
v 3.678642 1.083867 -1.989634
vn 0.436374 0.699646 0.565751
f 1541/1/386 1542/2/386 1543/3/386 1544/4/386
v 3.678642 1.083867 -1.989634
v 3.826860 1.117175 -2.145030
v 3.809813 1.123140 -2.159741
v 3.661824 1.089821 -2.004610
vn 0.084230 0.954820 0.284998
f 1545/1/387 1546/2/387 1547/3/387 1548/4/387
v 3.661824 1.089821 -2.004610
v 3.809813 1.123140 -2.159741
v 3.793959 1.117175 -2.175731
v 3.646325 1.083867 -2.020949
vn -0.290470 0.954159 -0.072161
f 1549/1/388 1550/2/388 1551/3/388 1552/4/388
v 3.646325 1.083867 -2.020949
v 3.793959 1.117175 -2.175731
v 3.783545 1.100878 -2.188714
v 3.636300 1.067601 -2.034272
vn -0.587308 0.697821 -0.410018
f 1553/1/389 1554/2/389 1555/3/389 1556/4/389
v 3.636300 1.067601 -2.034272
v 3.783545 1.100878 -2.188714
v 3.781363 1.078616 -2.195212
v 3.634433 1.045381 -2.041009
vn -0.726733 0.254508 -0.638032
f 1557/1/390 1558/2/390 1559/3/390 1560/4/390
v 3.634433 1.045381 -2.041009
v 3.781363 1.078616 -2.195212
v 3.787997 1.056354 -2.193485
v 3.641226 1.023162 -2.039356
vn -0.671399 -0.256976 -0.695116
f 1561/1/391 1562/2/391 1563/3/391 1564/4/391
v 3.641226 1.023162 -2.039356
v 3.787997 1.056354 -2.193485
v 3.801669 1.040057 -2.183994
v 3.654858 1.006896 -2.029755
vn -0.436148 -0.699596 -0.565987
f 1565/1/392 1566/2/392 1567/3/392 1568/4/392
v 3.654858 1.006896 -2.029755
v 3.801669 1.040057 -2.183994
v 3.818716 1.034092 -2.169283
v 3.671677 1.000942 -2.014779
vn -0.084003 -0.954770 -0.285232
f 1569/1/393 1570/2/393 1571/3/393 1572/4/393
v 3.671677 1.000942 -2.014779
v 3.818716 1.034092 -2.169283
v 3.834571 1.040057 -2.153294
v 3.687176 1.006896 -1.998440
vn 0.290689 -0.954110 0.071935
f 1573/1/394 1574/2/394 1575/3/394 1576/4/394
v 3.687176 1.006896 -1.998440
v 3.834571 1.040057 -2.153294
v 3.844984 1.056354 -2.140311
v 3.697201 1.023162 -1.985118
vn 0.587520 -0.697772 0.409798
f 1577/1/395 1578/2/395 1579/3/395 1580/4/395
v 3.697201 1.023162 -1.985118
v 3.844984 1.056354 -2.140311
v 3.847166 1.078616 -2.133812
v 3.699068 1.045381 -1.978380
vn 0.726944 -0.254458 0.637811
f 1581/1/396 1582/2/396 1583/3/396 1584/4/396
v 3.847166 1.078616 -2.133812
v 3.992161 1.108062 -2.292489
v 3.985931 1.130412 -2.294554
v 3.840532 1.100878 -2.135540
vn 0.688947 0.257863 0.677391
f 1585/1/397 1586/2/397 1587/3/397 1588/4/397
v 3.840532 1.100878 -2.135540
v 3.985931 1.130412 -2.294554
v 3.972355 1.146773 -2.304072
v 3.826860 1.117175 -2.145030
vn 0.456214 0.701547 0.547450
f 1589/1/398 1590/2/398 1591/3/398 1592/4/398
v 3.826860 1.117175 -2.145030
v 3.972355 1.146773 -2.304072
v 3.955070 1.152762 -2.318493
v 3.809813 1.123140 -2.159741
vn 0.101280 0.957290 0.270809
f 1593/1/399 1594/2/399 1595/3/399 1596/4/399
v 3.809813 1.123140 -2.159741
v 3.955070 1.152762 -2.318493
v 3.938709 1.146773 -2.333954
v 3.793959 1.117175 -2.175731
vn -0.280795 0.956557 -0.078440
f 1597/1/400 1598/2/400 1599/3/400 1600/4/400
v 3.793959 1.117175 -2.175731
v 3.938709 1.146773 -2.333954
v 3.927654 1.130412 -2.346312
v 3.783545 1.100878 -2.188714
vn -0.587613 0.699490 -0.406724
f 1601/1/401 1602/2/401 1603/3/401 1604/4/401
v 3.783545 1.100878 -2.188714
v 3.927654 1.130412 -2.346312
v 3.924869 1.108062 -2.352255
v 3.781363 1.078616 -2.195212
vn -0.736912 0.254981 -0.626056
f 1605/1/402 1606/2/402 1607/3/402 1608/4/402
v 3.781363 1.078616 -2.195212
v 3.924869 1.108062 -2.352255
v 3.931099 1.085712 -2.350190
v 3.787997 1.056354 -2.193485
vn -0.688693 -0.257808 -0.677671
f 1609/1/403 1610/2/403 1611/3/403 1612/4/403
v 3.787997 1.056354 -2.193485
v 3.931099 1.085712 -2.350190
v 3.944675 1.069351 -2.340672
v 3.801669 1.040057 -2.183994
vn -0.455923 -0.701488 -0.547767
f 1613/1/404 1614/2/404 1615/3/404 1616/4/404
v 3.801669 1.040057 -2.183994
v 3.944675 1.069351 -2.340672
v 3.961960 1.063362 -2.326251
v 3.818716 1.034092 -2.169283
vn -0.100976 -0.957230 -0.271137
f 1617/1/405 1618/2/405 1619/3/405 1620/4/405
v 3.818716 1.034092 -2.169283
v 3.961960 1.063362 -2.326251
v 3.978321 1.069351 -2.310790
v 3.834571 1.040057 -2.153294
vn 0.281077 -0.956499 0.078138
f 1621/1/406 1622/2/406 1623/3/406 1624/4/406
v 3.834571 1.040057 -2.153294
v 3.978321 1.069351 -2.310790
v 3.989375 1.085712 -2.298432
v 3.844984 1.056354 -2.140311
vn 0.587860 -0.699437 0.406460
f 1625/1/407 1626/2/407 1627/3/407 1628/4/407
v 3.844984 1.056354 -2.140311
v 3.989375 1.085712 -2.298432
v 3.992161 1.108062 -2.292489
v 3.847166 1.078616 -2.133812
vn 0.737145 -0.254930 0.625802
f 1629/1/408 1630/2/408 1631/3/408 1632/4/408
v 3.992161 1.108062 -2.292489
v 4.132885 1.128266 -2.455508
v 4.127092 1.150694 -2.457967
v 3.985931 1.130412 -2.294554
vn 0.714961 0.259265 0.649317
f 1633/1/409 1634/2/409 1635/3/409 1636/4/409
v 3.985931 1.130412 -2.294554
v 4.127092 1.150694 -2.457967
v 4.113571 1.167112 -2.467466
v 3.972355 1.146773 -2.304072
vn 0.491006 0.705070 0.511653
f 1637/1/410 1638/2/410 1639/3/410 1640/4/410
v 3.972355 1.146773 -2.304072
v 4.113571 1.167112 -2.467466
v 4.095944 1.173121 -2.481458
v 3.955070 1.152762 -2.318493
vn 0.135611 0.962011 0.236950
f 1641/1/411 1642/2/411 1643/3/411 1644/4/411
v 3.955070 1.152762 -2.318493
v 4.095944 1.173121 -2.481458
v 4.078935 1.167112 -2.496194
v 3.938709 1.146773 -2.333954
vn -0.256130 0.961319 -0.101313
f 1645/1/412 1646/2/412 1647/3/412 1648/4/412
v 3.938709 1.146773 -2.333954
v 4.078935 1.167112 -2.496194
v 4.067100 1.150694 -2.507727
v 3.927654 1.130412 -2.346312
vn -0.579297 0.702997 -0.412565
f 1649/1/413 1650/2/413 1651/3/413 1652/4/413
v 3.927654 1.130412 -2.346312
v 4.067100 1.150694 -2.507727
v 4.063612 1.128266 -2.512965
v 3.924869 1.108062 -2.352255
vn -0.747164 0.256183 -0.613284
f 1653/1/414 1654/2/414 1655/3/414 1656/4/414
v 3.924869 1.108062 -2.352255
v 4.063612 1.128266 -2.512965
v 4.069405 1.105839 -2.510505
v 3.931099 1.085712 -2.350190
vn -0.714712 -0.259222 -0.649608
f 1657/1/415 1658/2/415 1659/3/415 1660/4/415
v 3.931099 1.085712 -2.350190
v 4.069405 1.105839 -2.510505
v 4.082926 1.089421 -2.501007
v 3.944675 1.069351 -2.340672
vn -0.490780 -0.705036 -0.511916
f 1661/1/416 1662/2/416 1663/3/416 1664/4/416
v 3.944675 1.069351 -2.340672
v 4.082926 1.089421 -2.501007
v 4.100553 1.083411 -2.487015
v 3.961960 1.063362 -2.326251
vn -0.135412 -0.961983 -0.237177
f 1665/1/417 1666/2/417 1667/3/417 1668/4/417
v 3.961960 1.063362 -2.326251
v 4.100553 1.083411 -2.487015
v 4.117563 1.089421 -2.472279
v 3.978321 1.069351 -2.310790
vn 0.256327 -0.961289 0.101093
f 1669/1/418 1670/2/418 1671/3/418 1672/4/418
v 3.978321 1.069351 -2.310790
v 4.117563 1.089421 -2.472279
v 4.129397 1.105839 -2.460746
v 3.989375 1.085712 -2.298432
vn 0.579518 -0.702960 0.412318
f 1673/1/419 1674/2/419 1675/3/419 1676/4/419
v 3.989375 1.085712 -2.298432
v 4.129397 1.105839 -2.460746
v 4.132885 1.128266 -2.455508
v 3.992161 1.108062 -2.292489
vn 0.747411 -0.256138 0.613001
f 1677/1/420 1678/2/420 1679/3/420 1680/4/420
v 4.132885 1.128266 -2.455508
v 4.267527 1.142482 -2.624517
v 4.261938 1.164946 -2.627110
v 4.127092 1.150694 -2.457967
vn 0.744532 0.259747 0.614983
f 1681/1/421 1682/2/421 1683/3/421 1684/4/421
v 4.127092 1.150694 -2.457967
v 4.261938 1.164946 -2.627110
v 4.248190 1.181391 -2.636230
v 4.113571 1.167112 -2.467466
vn 0.523125 0.706546 0.476585
f 1685/1/422 1686/2/422 1687/3/422 1688/4/422
v 4.113571 1.167112 -2.467466
v 4.248190 1.181391 -2.636230
v 4.229968 1.187410 -2.649433
v 4.095944 1.173121 -2.481458
vn 0.161615 0.964144 0.210491
f 1689/1/423 1690/2/423 1691/3/423 1692/4/423
v 4.095944 1.173121 -2.481458
v 4.229968 1.187410 -2.649433
v 4.212154 1.181391 -2.663182
v 4.078935 1.167112 -2.496194
vn -0.243247 0.963462 -0.112127
f 1693/1/424 1694/2/424 1695/3/424 1696/4/424
v 4.078935 1.167112 -2.496194
v 4.212154 1.181391 -2.663182
v 4.199521 1.164946 -2.673792
v 4.067100 1.150694 -2.507727
vn -0.582920 0.704513 -0.404802
f 1697/1/425 1698/2/425 1699/3/425 1700/4/425
v 4.067100 1.150694 -2.507727
v 4.199521 1.164946 -2.673792
v 4.195455 1.142482 -2.678420
v 4.063612 1.128266 -2.512965
vn -0.766271 0.256741 -0.588993
f 1701/1/426 1702/2/426 1703/3/426 1704/4/426
v 4.063612 1.128266 -2.512965
v 4.195455 1.142482 -2.678420
v 4.201044 1.120018 -2.675828
v 4.069405 1.105839 -2.510505
vn -0.744237 -0.259711 -0.615355
f 1705/1/427 1706/2/427 1707/3/427 1708/4/427
v 4.069405 1.105839 -2.510505
v 4.201044 1.120018 -2.675828
v 4.214792 1.103573 -2.666708
v 4.082926 1.089421 -2.501007
vn -0.522856 -0.706518 -0.476921
f 1709/1/428 1710/2/428 1711/3/428 1712/4/428
v 4.082926 1.089421 -2.501007
v 4.214792 1.103573 -2.666708
v 4.233014 1.097554 -2.653505
v 4.100553 1.083411 -2.487015
vn -0.161383 -0.964122 -0.210772
f 1713/1/429 1714/2/429 1715/3/429 1716/4/429
v 4.100553 1.083411 -2.487015
v 4.233014 1.097554 -2.653505
v 4.250828 1.103573 -2.639756
v 4.117563 1.089421 -2.472279
vn 0.243466 -0.963437 0.111865
f 1717/1/430 1718/2/430 1719/3/430 1720/4/430
v 4.117563 1.089421 -2.472279
v 4.250828 1.103573 -2.639756
v 4.263461 1.120018 -2.629146
v 4.129397 1.105839 -2.460746
vn 0.583165 -0.704481 0.404505
f 1721/1/431 1722/2/431 1723/3/431 1724/4/431
v 4.129397 1.105839 -2.460746
v 4.263461 1.120018 -2.629146
v 4.267527 1.142482 -2.624517
v 4.132885 1.128266 -2.455508
vn 0.766554 -0.256703 0.588642
f 1725/1/432 1726/2/432 1727/3/432 1728/4/432
v 4.267527 1.142482 -2.624517
v 4.392471 1.152454 -2.802766
v 4.386966 1.174943 -2.805329
v 4.261938 1.164946 -2.627110
vn 0.783781 0.260104 0.563944
f 1729/1/433 1730/2/433 1731/3/433 1732/4/433
v 4.261938 1.164946 -2.627110
v 4.386966 1.174943 -2.805329
v 4.372691 1.191405 -2.813564
v 4.248190 1.181391 -2.636230
vn 0.559427 0.707318 0.432137
f 1733/1/434 1734/2/434 1735/3/434 1736/4/434
v 4.248190 1.181391 -2.636230
v 4.372691 1.191405 -2.813564
v 4.353472 1.197431 -2.825265
v 4.229968 1.187410 -2.649433
vn 0.185158 0.965233 0.184503
f 1737/1/435 1738/2/435 1739/3/435 1740/4/435
v 4.229968 1.187410 -2.649433
v 4.353472 1.197431 -2.825265
v 4.334458 1.191405 -2.837296
v 4.212154 1.181391 -2.663182
vn -0.238840 0.964486 -0.112792
f 1741/1/436 1742/2/436 1743/3/436 1744/4/436
v 4.212154 1.181391 -2.663182
v 4.334458 1.191405 -2.837296
v 4.320743 1.174943 -2.846433
v 4.199521 1.164946 -2.673792
vn -0.598705 0.705094 -0.379994
f 1745/1/437 1746/2/437 1747/3/437 1748/4/437
v 4.199521 1.164946 -2.673792
v 4.320743 1.174943 -2.846433
v 4.316003 1.152454 -2.850229
v 4.195455 1.142482 -2.678420
vn -0.797884 0.256814 -0.545370
f 1749/1/438 1750/2/438 1751/3/438 1752/4/438
v 4.195455 1.142482 -2.678420
v 4.316003 1.152454 -2.850229
v 4.321508 1.129966 -2.847666
v 4.201044 1.120018 -2.675828
vn -0.783270 -0.260061 -0.564673
f 1753/1/439 1754/2/439 1755/3/439 1756/4/439
v 4.201044 1.120018 -2.675828
v 4.321508 1.129966 -2.847666
v 4.335783 1.113503 -2.839431
v 4.214792 1.103573 -2.666708
vn -0.558956 -0.707289 -0.432794
f 1757/1/440 1758/2/440 1759/3/440 1760/4/440
v 4.214792 1.103573 -2.666708
v 4.335783 1.113503 -2.839431
v 4.355002 1.107478 -2.827730
v 4.233014 1.097554 -2.653505
vn -0.184819 -0.965211 -0.184959
f 1761/1/441 1762/2/441 1763/3/441 1764/4/441
v 4.233014 1.097554 -2.653505
v 4.355002 1.107478 -2.827730
v 4.374016 1.113503 -2.815699
v 4.250828 1.103573 -2.639756
vn 0.239085 -0.964464 0.112465
f 1765/1/442 1766/2/442 1767/3/442 1768/4/442
v 4.250828 1.103573 -2.639756
v 4.374016 1.113503 -2.815699
v 4.387731 1.129966 -2.806562
v 4.263461 1.120018 -2.629146
vn 0.598994 -0.705061 0.379598
f 1769/1/443 1770/2/443 1771/3/443 1772/4/443
v 4.263461 1.120018 -2.629146
v 4.387731 1.129966 -2.806562
v 4.392471 1.152454 -2.802766
v 4.267527 1.142482 -2.624517
vn 0.798306 -0.256767 0.544773
f 1773/1/444 1774/2/444 1775/3/444 1776/4/444
v 4.392471 1.152454 -2.802766
v 4.496043 1.156250 -2.992453
v 4.490560 1.178746 -2.994990
v 4.386966 1.174943 -2.805329
vn 0.845277 0.260111 0.466742
f 1777/1/445 1778/2/445 1779/3/445 1780/4/445
v 4.386966 1.174943 -2.805329
v 4.490560 1.178746 -2.994990
v 4.475960 1.195215 -3.002622
v 4.372691 1.191405 -2.813564
vn 0.614187 0.707468 0.349661
f 1781/1/446 1782/2/446 1783/3/446 1784/4/446
v 4.372691 1.191405 -2.813564
v 4.475960 1.195215 -3.002622
v 4.456158 1.201243 -3.013304
v 4.353472 1.197431 -2.825265
vn 0.218378 0.965950 0.138750
f 1785/1/447 1786/2/447 1787/3/447 1788/4/447
v 4.353472 1.197431 -2.825265
v 4.456158 1.201243 -3.013304
v 4.436457 1.195215 -3.024174
v 4.334458 1.191405 -2.837296
vn -0.236580 0.965408 -0.109623
f 1789/1/448 1790/2/448 1791/3/448 1792/4/448
v 4.334458 1.191405 -2.837296
v 4.436457 1.195215 -3.024174
v 4.422138 1.178746 -3.032320
v 4.320743 1.174943 -2.846433
vn -0.628043 0.705485 -0.328409
f 1793/1/449 1794/2/449 1795/3/449 1796/4/449
v 4.320743 1.174943 -2.846433
v 4.422138 1.178746 -3.032320
v 4.417037 1.156250 -3.035558
v 4.316003 1.152454 -2.850229
vn -0.850666 0.256725 -0.458758
f 1797/1/450 1798/2/450 1799/3/450 1800/4/450
v 4.316003 1.152454 -2.850229
v 4.417037 1.156250 -3.035558
v 4.422521 1.133754 -3.033022
v 4.321508 1.129966 -2.847666
vn -0.845531 -0.260120 -0.466277
f 1801/1/451 1802/2/451 1803/3/451 1804/4/451
v 4.321508 1.129966 -2.847666
v 4.422521 1.133754 -3.033022
v 4.437121 1.117285 -3.025390
v 4.335783 1.113503 -2.839431
vn -0.614402 -0.707467 -0.349286
f 1805/1/452 1806/2/452 1807/3/452 1808/4/452
v 4.335783 1.113503 -2.839431
v 4.437121 1.117285 -3.025390
v 4.456923 1.111257 -3.014707
v 4.355002 1.107478 -2.827730
vn -0.218425 -0.965950 -0.138673
f 1809/1/453 1810/2/453 1811/3/453 1812/4/453
v 4.355002 1.107478 -2.827730
v 4.456923 1.111257 -3.014707
v 4.476624 1.117285 -3.003837
v 4.374016 1.113503 -2.815699
vn 0.236662 -0.965403 0.109491
f 1813/1/454 1814/2/454 1815/3/454 1816/4/454
v 4.374016 1.113503 -2.815699
v 4.476624 1.117285 -3.003837
v 4.490943 1.133754 -2.995691
v 4.387731 1.129966 -2.806562
vn 0.628072 -0.705482 0.328359
f 1817/1/455 1818/2/455 1819/3/455 1820/4/455
v 4.387731 1.129966 -2.806562
v 4.490943 1.133754 -2.995691
v 4.496043 1.156250 -2.992453
v 4.392471 1.152454 -2.802766
vn 0.850528 -0.256738 0.459007
f 1821/1/456 1822/2/456 1823/3/456 1824/4/456
v 4.496043 1.156250 -2.992453
v 4.456158 1.201243 -3.013304
v 4.475960 1.195215 -3.002622
v 4.490560 1.178746 -2.994990
vn 0.478871 0.017767 -0.877705
f 1825/1/457 1826/2/457 1827/3/457 1828/4/457
v 4.496043 1.156250 -2.992453
v 4.422138 1.178746 -3.032320
v 4.436457 1.195215 -3.024174
v 4.456158 1.201243 -3.013304
vn 0.478871 0.017767 -0.877705
f 1829/1/458 1830/2/458 1831/3/458 1832/4/458
v 4.496043 1.156250 -2.992453
v 4.422521 1.133754 -3.033022
v 4.417037 1.156250 -3.035558
v 4.422138 1.178746 -3.032320
vn 0.478871 0.017767 -0.877705
f 1833/1/459 1834/2/459 1835/3/459 1836/4/459
v 4.496043 1.156250 -2.992453
v 4.456923 1.111257 -3.014707
v 4.437121 1.117285 -3.025390
v 4.422521 1.133754 -3.033022
vn 0.478871 0.017767 -0.877705
f 1837/1/460 1838/2/460 1839/3/460 1840/4/460
v 4.496043 1.156250 -2.992453
v 4.490943 1.133754 -2.995691
v 4.476624 1.117285 -3.003837
v 4.456923 1.111257 -3.014707
vn 0.478871 0.017767 -0.877705
f 1841/1/461 1842/2/461 1843/3/461 1844/4/461
v 4.483980 1.156010 -2.992287
v 4.508128 1.156250 -3.052881
v 4.503799 1.173250 -3.054299
v 4.479726 1.173010 -2.993917
vn 0.896942 0.258820 0.358480
f 1845/1/462 1846/2/462 1847/3/462 1848/4/462
v 4.479726 1.173010 -2.993917
v 4.503799 1.173250 -3.054299
v 4.491992 1.185695 -3.058232
v 4.468152 1.185455 -2.998490
vn 0.655861 0.707104 0.264293
f 1849/1/463 1850/2/463 1851/3/463 1852/4/463
v 4.468152 1.185455 -2.998490
v 4.491992 1.185695 -3.058232
v 4.475871 1.190250 -3.063627
v 4.452358 1.190010 -3.004781
vn 0.239047 0.965919 0.099277
f 1853/1/464 1854/2/464 1855/3/464 1856/4/464
v 4.452358 1.190010 -3.004781
v 4.475871 1.190250 -3.063627
v 4.459756 1.185695 -3.069039
v 4.436578 1.185455 -3.011103
vn -0.241702 0.965919 -0.092632
f 1857/1/465 1858/2/465 1859/3/465 1860/4/465
v 4.436578 1.185455 -3.011103
v 4.459756 1.185695 -3.069039
v 4.447964 1.173250 -3.073017
v 4.425039 1.173010 -3.015764
vn -0.657529 0.707103 -0.260119
f 1861/1/466 1862/2/466 1863/3/466 1864/4/466
v 4.425039 1.173010 -3.015764
v 4.447964 1.173250 -3.073017
v 4.443655 1.156250 -3.074496
v 4.420833 1.156010 -3.017514
vn -0.897085 0.258820 -0.358121
f 1865/1/467 1866/2/467 1867/3/467 1868/4/467
v 4.420833 1.156010 -3.017514
v 4.443655 1.156250 -3.074496
v 4.447984 1.139250 -3.073078
v 4.425086 1.139010 -3.015884
vn -0.896303 -0.258814 -0.360079
f 1869/1/468 1870/2/468 1871/3/468 1872/4/468
v 4.425086 1.139010 -3.015884
v 4.447984 1.139250 -3.073078
v 4.459791 1.126805 -3.069145
v 4.436661 1.126565 -3.011311
vn -0.655432 -0.707099 -0.265366
f 1873/1/469 1874/2/469 1875/3/469 1876/4/469
v 4.436661 1.126565 -3.011311
v 4.459791 1.126805 -3.069145
v 4.475912 1.122250 -3.063750
v 4.452454 1.122010 -3.005020
vn -0.238933 -0.965918 -0.099565
f 1877/1/470 1878/2/470 1879/3/470 1880/4/470
v 4.452454 1.122010 -3.005020
v 4.475912 1.122250 -3.063750
v 4.492028 1.126805 -3.058338
v 4.468234 1.126565 -2.998697
vn 0.241714 -0.965919 0.092603
f 1881/1/471 1882/2/471 1883/3/471 1884/4/471
v 4.468234 1.126565 -2.998697
v 4.492028 1.126805 -3.058338
v 4.503820 1.139250 -3.054360
v 4.479774 1.139010 -2.994036
vn 0.657751 -0.707101 0.259563
f 1885/1/472 1886/2/472 1887/3/472 1888/4/472
v 4.479774 1.139010 -2.994036
v 4.503820 1.139250 -3.054360
v 4.508128 1.156250 -3.052881
v 4.483980 1.156010 -2.992287
vn 0.897621 -0.258814 0.356780
f 1889/1/473 1890/2/473 1891/3/473 1892/4/473
v 4.508128 1.156250 -3.052881
v 4.525948 1.156250 -3.118214
v 4.521477 1.173250 -3.119084
v 4.503799 1.173250 -3.054299
vn 0.931961 0.258522 0.254193
f 1893/1/474 1894/2/474 1895/3/474 1896/4/474
v 4.503799 1.173250 -3.054299
v 4.521477 1.173250 -3.119084
v 4.509261 1.185695 -3.121463
v 4.491992 1.185695 -3.058232
vn 0.682686 0.706569 0.186278
f 1897/1/475 1898/2/475 1899/3/475 1900/4/475
v 4.491992 1.185695 -3.058232
v 4.509261 1.185695 -3.121463
v 4.492575 1.190250 -3.124711
v 4.475871 1.190250 -3.063627
vn 0.250045 0.965823 0.068290
f 1901/1/476 1902/2/476 1903/3/476 1904/4/476
v 4.475871 1.190250 -3.063627
v 4.492575 1.190250 -3.124711
v 4.475888 1.185695 -3.127960
v 4.459756 1.185695 -3.069039
vn -0.250033 0.965820 -0.068370
f 1905/1/477 1906/2/477 1907/3/477 1908/4/477
v 4.459756 1.185695 -3.069039
v 4.475888 1.185695 -3.127960
v 4.463672 1.173250 -3.130338
v 4.447964 1.173250 -3.073017
vn -0.682581 0.706510 -0.186886
f 1909/1/478 1910/2/478 1911/3/478 1912/4/478
v 4.447964 1.173250 -3.073017
v 4.463672 1.173250 -3.130338
v 4.459201 1.156250 -3.131209
v 4.443655 1.156250 -3.074496
vn -0.931700 0.258345 -0.255329
f 1913/1/479 1914/2/479 1915/3/479 1916/4/479
v 4.443655 1.156250 -3.074496
v 4.459201 1.156250 -3.131209
v 4.463672 1.139250 -3.130338
v 4.447984 1.139250 -3.073078
vn -0.931633 -0.258538 -0.255378
f 1917/1/480 1918/2/480 1919/3/480 1920/4/480
v 4.447984 1.139250 -3.073078
v 4.463672 1.139250 -3.130338
v 4.475888 1.126805 -3.127960
v 4.459791 1.126805 -3.069145
vn -0.682472 -0.706589 -0.186984
f 1921/1/481 1922/2/481 1923/3/481 1924/4/481
v 4.459791 1.126805 -3.069145
v 4.475888 1.126805 -3.127960
v 4.492575 1.122250 -3.124711
v 4.475912 1.122250 -3.063750
vn -0.250002 -0.965825 -0.068420
f 1925/1/482 1926/2/482 1927/3/482 1928/4/482
v 4.475912 1.122250 -3.063750
v 4.492575 1.122250 -3.124711
v 4.509261 1.126805 -3.121463
v 4.492028 1.126805 -3.058338
vn 0.250042 -0.965820 0.068343
f 1929/1/483 1930/2/483 1931/3/483 1932/4/483
v 4.492028 1.126805 -3.058338
v 4.509261 1.126805 -3.121463
v 4.521477 1.139250 -3.119084
v 4.503820 1.139250 -3.054360
vn 0.682732 -0.706495 0.186390
f 1933/1/484 1934/2/484 1935/3/484 1936/4/484
v 4.503820 1.139250 -3.054360
v 4.521477 1.139250 -3.119084
v 4.525948 1.156250 -3.118214
v 4.508128 1.156250 -3.052881
vn 0.932000 -0.258327 0.254251
f 1937/1/485 1938/2/485 1939/3/485 1940/4/485
v 4.525948 1.156250 -3.118214
v 4.533765 1.156250 -3.183507
v 4.529241 1.173250 -3.184042
v 4.521477 1.173250 -3.119084
vn 0.959249 0.258173 0.114839
f 1941/1/486 1942/2/486 1943/3/486 1944/4/486
v 4.521477 1.173250 -3.119084
v 4.529241 1.173250 -3.184042
v 4.516882 1.185695 -3.185503
v 4.509261 1.185695 -3.121463
vn 0.703053 0.706155 0.084035
f 1945/1/487 1946/2/487 1947/3/487 1948/4/487
v 4.509261 1.185695 -3.121463
v 4.516882 1.185695 -3.185503
v 4.500000 1.190250 -3.187500
v 4.492575 1.190250 -3.124711
vn 0.257661 0.965749 0.030663
f 1949/1/488 1950/2/488 1951/3/488 1952/4/488
v 4.492575 1.190250 -3.124711
v 4.500000 1.190250 -3.187500
v 4.483118 1.185695 -3.189497
v 4.475888 1.185695 -3.127960
vn -0.257696 0.965745 -0.030475
f 1953/1/489 1954/2/489 1955/3/489 1956/4/489
v 4.475888 1.185695 -3.127960
v 4.483118 1.185695 -3.189497
v 4.470759 1.173250 -3.190958
v 4.463672 1.173250 -3.130338
vn -0.703273 0.706102 -0.082626
f 1957/1/490 1958/2/490 1959/3/490 1960/4/490
v 4.463672 1.173250 -3.130338
v 4.470759 1.173250 -3.190958
v 4.466235 1.156250 -3.191493
v 4.459201 1.156250 -3.131209
vn -0.959577 0.258123 -0.112176
f 1961/1/491 1962/2/491 1963/3/491 1964/4/491
v 4.459201 1.156250 -3.131209
v 4.466235 1.156250 -3.191493
v 4.470759 1.139250 -3.190958
v 4.463672 1.139250 -3.130338
vn -0.959603 -0.258119 -0.111968
f 1965/1/492 1966/2/492 1967/3/492 1968/4/492
v 4.463672 1.139250 -3.130338
v 4.470759 1.139250 -3.190958
v 4.483118 1.126805 -3.189497
v 4.475888 1.126805 -3.127960
vn -0.703336 -0.706086 -0.082221
f 1969/1/493 1970/2/493 1971/3/493 1972/4/493
v 4.475888 1.126805 -3.127960
v 4.483118 1.126805 -3.189497
v 4.500000 1.122250 -3.187500
v 4.492575 1.122250 -3.124711
vn -0.257733 -0.965742 -0.030280
f 1973/1/494 1974/2/494 1975/3/494 1976/4/494
v 4.492575 1.122250 -3.124711
v 4.500000 1.122250 -3.187500
v 4.516882 1.126805 -3.185503
v 4.509261 1.126805 -3.121463
vn 0.257696 -0.965745 0.030475
f 1977/1/495 1978/2/495 1979/3/495 1980/4/495
v 4.509261 1.126805 -3.121463
v 4.516882 1.126805 -3.185503
v 4.529241 1.139250 -3.184042
v 4.521477 1.139250 -3.119084
vn 0.703110 -0.706141 0.083673
f 1981/1/496 1982/2/496 1983/3/496 1984/4/496
v 4.521477 1.139250 -3.119084
v 4.529241 1.139250 -3.184042
v 4.533765 1.156250 -3.183507
v 4.525948 1.156250 -3.118214
vn 0.959271 -0.258170 0.114661
f 1985/1/497 1986/2/497 1987/3/497 1988/4/497
v 4.533765 1.156250 -3.183507
v 4.500000 1.190250 -3.187500
v 4.516882 1.185695 -3.185503
v 4.529241 1.173250 -3.184042
vn 0.117442 0.000000 -0.993080
f 1989/1/498 1990/2/498 1991/3/498 1992/4/498
v 4.533765 1.156250 -3.183507
v 4.470759 1.173250 -3.190958
v 4.483118 1.185695 -3.189497
v 4.500000 1.190250 -3.187500
vn 0.117442 0.000000 -0.993080
f 1993/1/499 1994/2/499 1995/3/499 1996/4/499
v 4.533765 1.156250 -3.183507
v 4.470759 1.139250 -3.190958
v 4.466235 1.156250 -3.191493
v 4.470759 1.173250 -3.190958
vn 0.117442 0.000000 -0.993080
f 1997/1/500 1998/2/500 1999/3/500 2000/4/500
v 4.533765 1.156250 -3.183507
v 4.500000 1.122250 -3.187500
v 4.483118 1.126805 -3.189497
v 4.470759 1.139250 -3.190958
vn 0.117442 -0.000000 -0.993080
f 2001/1/501 2002/2/501 2003/3/501 2004/4/501
v 4.533765 1.156250 -3.183507
v 4.529241 1.139250 -3.184042
v 4.516882 1.126805 -3.185503
v 4.500000 1.122250 -3.187500
vn 0.117442 -0.000000 -0.993080
f 2005/1/502 2006/2/502 2007/3/502 2008/4/502
usemtl clamp
v 4.347933 1.152766 -2.883857
v 4.261108 1.152766 -2.938803
v 4.244397 1.184016 -2.912396
v 4.331222 1.184016 -2.857451
vn 0.378123 0.707107 -0.597514
f 2009/1/503 2010/2/503 2011/3/503 2012/4/503
v 4.331222 1.184016 -2.857451
v 4.244397 1.184016 -2.912396
v 4.227686 1.152766 -2.885989
v 4.314511 1.152766 -2.831044
vn -0.378123 0.707107 0.597514
f 2013/1/504 2014/2/504 2015/3/504 2016/4/504
v 4.314511 1.152766 -2.831044
v 4.227686 1.152766 -2.885989
v 4.244397 1.121516 -2.912396
v 4.331222 1.121516 -2.857451
vn -0.378123 -0.707107 0.597514
f 2017/1/505 2018/2/505 2019/3/505 2020/4/505
v 4.331222 1.121516 -2.857451
v 4.244397 1.121516 -2.912396
v 4.261108 1.152766 -2.938803
v 4.347933 1.152766 -2.883857
vn 0.378123 -0.707107 -0.597514
f 2021/1/506 2022/2/506 2023/3/506 2024/4/506
v 4.261108 1.152766 -2.938803
v 4.244397 1.121516 -2.912396
v 4.227686 1.152766 -2.885989
v 4.244397 1.184016 -2.912396
vn -0.845012 0.000000 -0.534747
f 2025/1/507 2026/2/507 2027/3/507 2028/4/507
usemtl porcelain_black
v 4.071427 1.059016 -2.868778
v 4.258927 1.059016 -2.868778
v 4.258927 1.246516 -2.868778
v 4.071427 1.246516 -2.868778
vn 0.000000 0.000000 1.000000
f 2029/1/508 2030/2/508 2031/3/508 2032/4/508
v 4.258927 1.059016 -3.056278
v 4.071427 1.059016 -3.056278
v 4.071427 1.246516 -3.056278
v 4.258927 1.246516 -3.056278
vn 0.000000 0.000000 -1.000000
f 2033/1/509 2034/2/509 2035/3/509 2036/4/509
v 4.258927 1.059016 -2.868778
v 4.258927 1.059016 -3.056278
v 4.258927 1.246516 -3.056278
v 4.258927 1.246516 -2.868778
vn 1.000000 -0.000000 0.000000
f 2037/1/510 2038/2/510 2039/3/510 2040/4/510
v 4.071427 1.059016 -3.056278
v 4.071427 1.059016 -2.868778
v 4.071427 1.246516 -2.868778
v 4.071427 1.246516 -3.056278
vn -1.000000 0.000000 0.000000
f 2041/1/511 2042/2/511 2043/3/511 2044/4/511
v 4.071427 1.246516 -2.868778
v 4.258927 1.246516 -2.868778
v 4.258927 1.246516 -3.056278
v 4.071427 1.246516 -3.056278
vn -0.000000 1.000000 0.000000
f 2045/1/512 2046/2/512 2047/3/512 2048/4/512
v 4.071427 1.059016 -3.056278
v 4.258927 1.059016 -3.056278
v 4.258927 1.059016 -2.868778
v 4.071427 1.059016 -2.868778
vn 0.000000 -1.000000 0.000000
f 2049/1/513 2050/2/513 2051/3/513 2052/4/513
