# Generated by scripts/gen_pole_light_mounts.py
mtllib pole_light_mount.mtl
o pole_light_mount_3_right_wired
vt 0 0
vt 1 0
vt 1 1
vt 0 1
usemtl clamp
v 0.312500 0.062500 1.000000
v 0.687500 0.062500 1.000000
v 0.687500 0.937500 1.000000
v 0.312500 0.937500 1.000000
vn 0.000000 0.000000 1.000000
f 1/1/1 2/2/1 3/3/1 4/4/1
v 0.687500 0.062500 0.900000
v 0.312500 0.062500 0.900000
v 0.312500 0.937500 0.900000
v 0.687500 0.937500 0.900000
vn 0.000000 0.000000 -1.000000
f 5/1/2 6/2/2 7/3/2 8/4/2
v 0.687500 0.062500 1.000000
v 0.687500 0.062500 0.900000
v 0.687500 0.937500 0.900000
v 0.687500 0.937500 1.000000
vn 1.000000 -0.000000 0.000000
f 9/1/3 10/2/3 11/3/3 12/4/3
v 0.312500 0.062500 0.900000
v 0.312500 0.062500 1.000000
v 0.312500 0.937500 1.000000
v 0.312500 0.937500 0.900000
vn -1.000000 0.000000 0.000000
f 13/1/4 14/2/4 15/3/4 16/4/4
v 0.312500 0.937500 1.000000
v 0.687500 0.937500 1.000000
v 0.687500 0.937500 0.900000
v 0.312500 0.937500 0.900000
vn -0.000000 1.000000 0.000000
f 17/1/5 18/2/5 19/3/5 20/4/5
v 0.312500 0.062500 0.900000
v 0.687500 0.062500 0.900000
v 0.687500 0.062500 1.000000
v 0.312500 0.062500 1.000000
vn 0.000000 -1.000000 0.000000
f 21/1/6 22/2/6 23/3/6 24/4/6
v 0.406250 0.312500 0.900000
v 0.593750 0.312500 0.900000
v 0.593750 0.531250 0.900000
v 0.406250 0.531250 0.900000
vn 0.000000 0.000000 1.000000
f 25/1/7 26/2/7 27/3/7 28/4/7
v 0.593750 0.312500 0.800000
v 0.406250 0.312500 0.800000
v 0.406250 0.531250 0.800000
v 0.593750 0.531250 0.800000
vn 0.000000 0.000000 -1.000000
f 29/1/8 30/2/8 31/3/8 32/4/8
v 0.593750 0.312500 0.900000
v 0.593750 0.312500 0.800000
v 0.593750 0.531250 0.800000
v 0.593750 0.531250 0.900000
vn 1.000000 -0.000000 0.000000
f 33/1/9 34/2/9 35/3/9 36/4/9
v 0.406250 0.312500 0.800000
v 0.406250 0.312500 0.900000
v 0.406250 0.531250 0.900000
v 0.406250 0.531250 0.800000
vn -1.000000 0.000000 0.000000
f 37/1/10 38/2/10 39/3/10 40/4/10
v 0.406250 0.531250 0.900000
v 0.593750 0.531250 0.900000
v 0.593750 0.531250 0.800000
v 0.406250 0.531250 0.800000
vn -0.000000 1.000000 0.000000
f 41/1/11 42/2/11 43/3/11 44/4/11
v 0.406250 0.312500 0.800000
v 0.593750 0.312500 0.800000
v 0.593750 0.312500 0.900000
v 0.406250 0.312500 0.900000
vn 0.000000 -1.000000 0.000000
f 45/1/12 46/2/12 47/3/12 48/4/12
v 0.468750 0.125000 0.900000
v 0.531250 0.125000 0.900000
v 0.531250 0.187500 0.900000
v 0.468750 0.187500 0.900000
vn 0.000000 0.000000 1.000000
f 49/1/13 50/2/13 51/3/13 52/4/13
v 0.531250 0.125000 0.880000
v 0.468750 0.125000 0.880000
v 0.468750 0.187500 0.880000
v 0.531250 0.187500 0.880000
vn 0.000000 0.000000 -1.000000
f 53/1/14 54/2/14 55/3/14 56/4/14
v 0.531250 0.125000 0.900000
v 0.531250 0.125000 0.880000
v 0.531250 0.187500 0.880000
v 0.531250 0.187500 0.900000
vn 1.000000 -0.000000 0.000000
f 57/1/15 58/2/15 59/3/15 60/4/15
v 0.468750 0.125000 0.880000
v 0.468750 0.125000 0.900000
v 0.468750 0.187500 0.900000
v 0.468750 0.187500 0.880000
vn -1.000000 0.000000 0.000000
f 61/1/16 62/2/16 63/3/16 64/4/16
v 0.468750 0.187500 0.900000
v 0.531250 0.187500 0.900000
v 0.531250 0.187500 0.880000
v 0.468750 0.187500 0.880000
vn -0.000000 1.000000 0.000000
f 65/1/17 66/2/17 67/3/17 68/4/17
v 0.468750 0.125000 0.880000
v 0.531250 0.125000 0.880000
v 0.531250 0.125000 0.900000
v 0.468750 0.125000 0.900000
vn 0.000000 -1.000000 0.000000
f 69/1/18 70/2/18 71/3/18 72/4/18
v 0.468750 0.812500 0.900000
v 0.531250 0.812500 0.900000
v 0.531250 0.875000 0.900000
v 0.468750 0.875000 0.900000
vn 0.000000 0.000000 1.000000
f 73/1/19 74/2/19 75/3/19 76/4/19
v 0.531250 0.812500 0.880000
v 0.468750 0.812500 0.880000
v 0.468750 0.875000 0.880000
v 0.531250 0.875000 0.880000
vn 0.000000 0.000000 -1.000000
f 77/1/20 78/2/20 79/3/20 80/4/20
v 0.531250 0.812500 0.900000
v 0.531250 0.812500 0.880000
v 0.531250 0.875000 0.880000
v 0.531250 0.875000 0.900000
vn 1.000000 -0.000000 0.000000
f 81/1/21 82/2/21 83/3/21 84/4/21
v 0.468750 0.812500 0.880000
v 0.468750 0.812500 0.900000
v 0.468750 0.875000 0.900000
v 0.468750 0.875000 0.880000
vn -1.000000 0.000000 0.000000
f 85/1/22 86/2/22 87/3/22 88/4/22
v 0.468750 0.875000 0.900000
v 0.531250 0.875000 0.900000
v 0.531250 0.875000 0.880000
v 0.468750 0.875000 0.880000
vn -0.000000 1.000000 0.000000
f 89/1/23 90/2/23 91/3/23 92/4/23
v 0.468750 0.812500 0.880000
v 0.531250 0.812500 0.880000
v 0.531250 0.812500 0.900000
v 0.468750 0.812500 0.900000
vn 0.000000 -1.000000 0.000000
f 93/1/24 94/2/24 95/3/24 96/4/24
usemtl metal
v 0.545000 0.410000 0.860000
v 0.539539 0.410000 0.821487
v 0.534242 0.432500 0.818608
v 0.538971 0.432500 0.860000
vn 0.956991 0.256425 -0.135701
f 97/1/25 98/2/25 99/3/25 100/4/25
v 0.538971 0.432500 0.860000
v 0.534242 0.432500 0.818608
v 0.519769 0.448971 0.810743
v 0.522500 0.448971 0.860000
vn 0.704810 0.704810 -0.080533
f 101/1/26 102/2/26 103/3/26 104/4/26
v 0.522500 0.448971 0.860000
v 0.519769 0.448971 0.810743
v 0.500000 0.455000 0.800000
v 0.500000 0.455000 0.860000
vn 0.258792 0.965826 -0.014346
f 105/1/27 106/2/27 107/3/27 108/4/27
v 0.500000 0.455000 0.860000
v 0.500000 0.455000 0.800000
v 0.480231 0.448971 0.789257
v 0.477500 0.448971 0.860000
vn -0.258819 0.965926 0.000000
f 109/1/28 110/2/28 111/3/28 112/4/28
v 0.477500 0.448971 0.860000
v 0.480231 0.448971 0.789257
v 0.465758 0.432500 0.781392
v 0.461029 0.432500 0.860000
vn -0.706844 0.706844 -0.027283
f 113/1/29 114/2/29 115/3/29 116/4/29
v 0.461029 0.432500 0.860000
v 0.465758 0.432500 0.781392
v 0.460461 0.410000 0.778513
v 0.455000 0.410000 0.860000
vn -0.964299 0.258383 -0.058018
f 117/1/30 118/2/30 119/3/30 120/4/30
v 0.455000 0.410000 0.860000
v 0.460461 0.410000 0.778513
v 0.465758 0.387500 0.781392
v 0.461029 0.387500 0.860000
vn -0.963908 -0.258278 -0.064600
f 121/1/31 122/2/31 123/3/31 124/4/31
v 0.461029 0.387500 0.860000
v 0.465758 0.387500 0.781392
v 0.480231 0.371029 0.789257
v 0.477500 0.371029 0.860000
vn -0.706468 -0.706468 -0.042505
f 125/1/32 126/2/32 127/3/32 128/4/32
v 0.477500 0.371029 0.860000
v 0.480231 0.371029 0.789257
v 0.500000 0.365000 0.800000
v 0.500000 0.365000 0.860000
vn -0.258806 -0.965878 -0.009990
f 129/1/33 130/2/33 131/3/33 132/4/33
v 0.500000 0.365000 0.860000
v 0.500000 0.365000 0.800000
v 0.519769 0.371029 0.810743
v 0.522500 0.371029 0.860000
vn 0.258819 -0.965926 0.000000
f 133/1/34 134/2/34 135/3/34 136/4/34
v 0.522500 0.371029 0.860000
v 0.519769 0.371029 0.810743
v 0.534242 0.387500 0.818608
v 0.538971 0.387500 0.860000
vn 0.706564 -0.706564 -0.039169
f 137/1/35 138/2/35 139/3/35 140/4/35
v 0.538971 0.387500 0.860000
v 0.534242 0.387500 0.818608
v 0.539539 0.410000 0.821487
v 0.545000 0.410000 0.860000
vn 0.960096 -0.257257 -0.109702
f 141/1/36 142/2/36 143/3/36 144/4/36
v 0.539539 0.410000 0.821487
v 0.625289 0.410000 0.772399
v 0.621041 0.432471 0.767971
v 0.534242 0.432500 0.818608
vn 0.484382 0.222295 0.846143
f 145/1/37 146/2/37 147/3/37 148/4/37
v 0.534242 0.432500 0.818608
v 0.621041 0.432471 0.767971
v 0.611341 0.448921 0.754634
v 0.519769 0.448971 0.810743
vn 0.383095 0.649985 0.656321
f 149/1/38 150/2/38 151/3/38 152/4/38
v 0.519769 0.448971 0.810743
v 0.611341 0.448921 0.754634
v 0.598786 0.454943 0.735960
v 0.500000 0.455000 0.800000
vn 0.154656 0.955407 0.251555
f 153/1/39 154/2/39 155/3/39 156/4/39
v 0.500000 0.455000 0.800000
v 0.598786 0.454943 0.735960
v 0.586741 0.448921 0.716953
v 0.480231 0.448971 0.789257
vn -0.158413 0.956437 -0.245220
f 157/1/40 158/2/40 159/3/40 160/4/40
v 0.480231 0.448971 0.789257
v 0.586741 0.448921 0.716953
v 0.578433 0.432471 0.702706
v 0.465758 0.432500 0.781392
vn -0.419677 0.664156 -0.618683
f 161/1/41 162/2/41 163/3/41 164/4/41
v 0.465758 0.432500 0.781392
v 0.578433 0.432471 0.702706
v 0.576089 0.410000 0.697037
v 0.460461 0.410000 0.778513
vn -0.556740 0.233084 -0.797316
f 165/1/42 166/2/42 167/3/42 168/4/42
v 0.460461 0.410000 0.778513
v 0.576089 0.410000 0.697037
v 0.580336 0.387529 0.701464
v 0.465758 0.387500 0.781392
vn -0.560078 -0.233552 -0.794837
f 169/1/43 170/2/43 171/3/43 172/4/43
v 0.465758 0.387500 0.781392
v 0.580336 0.387529 0.701464
v 0.590037 0.371079 0.714802
v 0.480231 0.371029 0.789257
vn -0.426373 -0.666585 -0.611450
f 173/1/44 174/2/44 175/3/44 176/4/44
v 0.480231 0.371029 0.789257
v 0.590037 0.371079 0.714802
v 0.602591 0.365057 0.733475
v 0.500000 0.365000 0.800000
vn -0.161870 -0.957341 -0.239365
f 177/1/45 178/2/45 179/3/45 180/4/45
v 0.500000 0.365000 0.800000
v 0.602591 0.365057 0.733475
v 0.614637 0.371079 0.752482
v 0.519769 0.371029 0.810743
vn 0.158954 -0.956582 0.244306
f 181/1/46 182/2/46 183/3/46 184/4/46
v 0.519769 0.371029 0.810743
v 0.614637 0.371079 0.752482
v 0.622944 0.387529 0.766729
v 0.534242 0.387500 0.818608
vn 0.395676 -0.655025 0.643725
f 185/1/47 186/2/47 187/3/47 188/4/47
v 0.534242 0.387500 0.818608
v 0.622944 0.387529 0.766729
v 0.625289 0.410000 0.772399
v 0.539539 0.410000 0.821487
vn 0.492139 -0.223506 0.841335
f 189/1/48 190/2/48 191/3/48 192/4/48
v 0.625289 0.410000 0.772399
v 0.683949 0.417097 0.733836
v 0.677017 0.439176 0.731185
v 0.621041 0.432471 0.767971
vn 0.508739 0.257973 0.821361
f 193/1/49 194/2/49 195/3/49 196/4/49
v 0.621041 0.432471 0.767971
v 0.677017 0.439176 0.731185
v 0.665306 0.455340 0.719177
v 0.611341 0.448921 0.754634
vn 0.329113 0.704176 0.629143
f 197/1/50 198/2/50 199/3/50 200/4/50
v 0.611341 0.448921 0.754634
v 0.665306 0.455340 0.719177
v 0.651953 0.461256 0.701030
v 0.598786 0.454943 0.735960
vn 0.061953 0.961336 0.268317
f 201/1/51 202/2/51 203/3/51 204/4/51
v 0.598786 0.454943 0.735960
v 0.651953 0.461256 0.701030
v 0.640538 0.455340 0.681607
v 0.586741 0.448921 0.716953
vn -0.221833 0.961208 -0.163920
f 205/1/52 206/2/52 207/3/52 208/4/52
v 0.586741 0.448921 0.716953
v 0.640538 0.455340 0.681607
v 0.634118 0.439176 0.666111
v 0.578433 0.432471 0.702706
vn -0.446795 0.703882 -0.552200
f 209/1/53 210/2/53 211/3/53 212/4/53
v 0.578433 0.432471 0.702706
v 0.634118 0.439176 0.666111
v 0.634414 0.417097 0.658695
v 0.576089 0.410000 0.697037
vn -0.552140 0.257658 -0.792940
f 213/1/54 214/2/54 215/3/54 216/4/54
v 0.576089 0.410000 0.697037
v 0.634414 0.417097 0.658695
v 0.641346 0.395017 0.661346
v 0.580336 0.387529 0.701464
vn -0.508618 -0.257965 -0.821439
f 217/1/55 218/2/55 219/3/55 220/4/55
v 0.580336 0.387529 0.701464
v 0.641346 0.395017 0.661346
v 0.653058 0.378854 0.673353
v 0.590037 0.371079 0.714802
vn -0.327817 -0.704062 -0.629946
f 221/1/56 222/2/56 223/3/56 224/4/56
v 0.590037 0.371079 0.714802
v 0.653058 0.378854 0.673353
v 0.666410 0.372937 0.691500
v 0.602591 0.365057 0.733475
vn -0.059099 -0.961008 -0.270130
f 225/1/57 226/2/57 227/3/57 228/4/57
v 0.602591 0.365057 0.733475
v 0.666410 0.372937 0.691500
v 0.677825 0.378854 0.710924
v 0.614637 0.371079 0.752482
vn 0.225039 -0.960827 0.161768
f 229/1/58 230/2/58 231/3/58 232/4/58
v 0.614637 0.371079 0.752482
v 0.677825 0.378854 0.710924
v 0.684245 0.395017 0.726420
v 0.622944 0.387529 0.766729
vn 0.448833 -0.703690 0.550790
f 233/1/59 234/2/59 235/3/59 236/4/59
v 0.622944 0.387529 0.766729
v 0.684245 0.395017 0.726420
v 0.683949 0.417097 0.733836
v 0.625289 0.410000 0.772399
vn 0.552651 -0.257624 0.792595
f 237/1/60 238/2/60 239/3/60 240/4/60
v 0.683949 0.417097 0.733836
v 0.742466 0.437693 0.695148
v 0.732565 0.458767 0.694486
v 0.677017 0.439176 0.731185
vn 0.471399 0.249566 0.845872
f 241/1/61 242/2/61 243/3/61 244/4/61
v 0.677017 0.439176 0.731185
v 0.732565 0.458767 0.694486
v 0.718646 0.474194 0.683957
v 0.665306 0.455340 0.719177
vn 0.221911 0.679965 0.698858
f 245/1/62 246/2/62 247/3/62 248/4/62
v 0.665306 0.455340 0.719177
v 0.718646 0.474194 0.683957
v 0.704440 0.479841 0.666381
v 0.651953 0.461256 0.701030
vn -0.086200 0.926783 0.365571
f 249/1/63 250/2/63 251/3/63 252/4/63
v 0.651953 0.461256 0.701030
v 0.704440 0.479841 0.666381
v 0.693753 0.474194 0.646469
v 0.640538 0.455340 0.681607
vn -0.370599 0.926557 -0.064415
f 253/1/64 254/2/64 255/3/64 256/4/64
v 0.640538 0.455340 0.681607
v 0.693753 0.474194 0.646469
v 0.689449 0.458767 0.629555
v 0.634118 0.439176 0.666111
vn -0.556475 0.679465 -0.478188
f 257/1/65 258/2/65 259/3/65 260/4/65
v 0.634118 0.439176 0.666111
v 0.689449 0.458767 0.629555
v 0.692680 0.437693 0.620173
v 0.634414 0.417097 0.658695
vn -0.593702 0.249048 -0.765175
f 261/1/66 262/2/66 263/3/66 264/4/66
v 0.634414 0.417097 0.658695
v 0.692680 0.437693 0.620173
v 0.702582 0.416618 0.620835
v 0.641346 0.395017 0.661346
vn -0.471146 -0.249505 -0.846031
f 265/1/67 266/2/67 267/3/67 268/4/67
v 0.641346 0.395017 0.661346
v 0.702582 0.416618 0.620835
v 0.716501 0.401191 0.631364
v 0.653058 0.378854 0.673353
vn -0.222287 -0.680072 -0.698635
f 269/1/68 270/2/68 271/3/68 272/4/68
v 0.653058 0.378854 0.673353
v 0.716501 0.401191 0.631364
v 0.730707 0.395544 0.648940
v 0.666410 0.372937 0.691500
vn 0.084999 -0.927190 -0.364820
f 273/1/69 274/2/69 275/3/69 276/4/69
v 0.666410 0.372937 0.691500
v 0.730707 0.395544 0.648940
v 0.741394 0.401191 0.668852
v 0.677825 0.378854 0.710924
vn 0.369221 -0.927039 0.065372
f 277/1/70 278/2/70 279/3/70 280/4/70
v 0.677825 0.378854 0.710924
v 0.741394 0.401191 0.668852
v 0.745698 0.416618 0.685765
v 0.684245 0.395017 0.726420
vn 0.555700 -0.679700 0.478754
f 281/1/71 282/2/71 283/3/71 284/4/71
v 0.684245 0.395017 0.726420
v 0.745698 0.416618 0.685765
v 0.742466 0.437693 0.695148
v 0.683949 0.417097 0.733836
vn 0.593733 -0.249041 0.765153
f 285/1/72 286/2/72 287/3/72 288/4/72
v 0.742466 0.437693 0.695148
v 0.800878 0.469771 0.656183
v 0.788946 0.489763 0.656929
v 0.732565 0.458767 0.694486
vn 0.445903 0.236625 0.863238
f 289/1/73 290/2/73 291/3/73 292/4/73
v 0.732565 0.458767 0.694486
v 0.788946 0.489763 0.656929
v 0.773493 0.504398 0.647462
v 0.718646 0.474194 0.683957
vn 0.146005 0.644175 0.750814
f 293/1/74 294/2/74 295/3/74 296/4/74
v 0.718646 0.474194 0.683957
v 0.773493 0.504398 0.647462
v 0.758660 0.509754 0.630319
v 0.704440 0.479841 0.666381
vn -0.192416 0.878287 0.437707
f 297/1/75 298/2/75 299/3/75 300/4/75
v 0.704440 0.479841 0.666381
v 0.758660 0.509754 0.630319
v 0.748421 0.504398 0.610093
v 0.693753 0.474194 0.646469
vn -0.478920 0.877821 0.008101
f 301/1/76 302/2/76 303/3/76 304/4/76
v 0.693753 0.474194 0.646469
v 0.748421 0.504398 0.610093
v 0.745519 0.489763 0.592205
v 0.689449 0.458767 0.629555
vn -0.637580 0.643031 -0.424267
f 305/1/77 306/2/77 307/3/77 308/4/77
v 0.689449 0.458767 0.629555
v 0.745519 0.489763 0.592205
v 0.750733 0.469771 0.581446
v 0.692680 0.437693 0.620173
vn -0.625562 0.235262 -0.743858
f 309/1/78 310/2/78 311/3/78 312/4/78
v 0.692680 0.437693 0.620173
v 0.750733 0.469771 0.581446
v 0.762666 0.449779 0.580701
v 0.702582 0.416618 0.620835
vn -0.445422 -0.236409 -0.863545
f 313/1/79 314/2/79 315/3/79 316/4/79
v 0.702582 0.416618 0.620835
v 0.762666 0.449779 0.580701
v 0.778119 0.435145 0.590168
v 0.716501 0.401191 0.631364
vn -0.145996 -0.644170 -0.750820
f 317/1/80 318/2/80 319/3/80 320/4/80
v 0.716501 0.401191 0.631364
v 0.778119 0.435145 0.590168
v 0.792952 0.429788 0.607310
v 0.730707 0.395544 0.648940
vn 0.191780 -0.878628 -0.437302
f 321/1/81 322/2/81 323/3/81 324/4/81
v 0.730707 0.395544 0.648940
v 0.792952 0.429788 0.607310
v 0.803191 0.435145 0.627536
v 0.741394 0.401191 0.668852
vn 0.478119 -0.878263 -0.007546
f 325/1/82 326/2/82 327/3/82 328/4/82
v 0.741394 0.401191 0.668852
v 0.803191 0.435145 0.627536
v 0.806092 0.449779 0.645424
v 0.745698 0.416618 0.685765
vn 0.637227 -0.643212 0.424522
f 329/1/83 330/2/83 331/3/83 332/4/83
v 0.745698 0.416618 0.685765
v 0.806092 0.449779 0.645424
v 0.800878 0.469771 0.656183
v 0.742466 0.437693 0.695148
vn 0.625845 -0.235131 0.743661
f 333/1/84 334/2/84 335/3/84 336/4/84
v 0.800878 0.469771 0.656183
v 0.859057 0.510193 0.616910
v 0.845994 0.529415 0.618476
v 0.788946 0.489763 0.656929
vn 0.432525 0.225592 0.872943
f 337/1/85 338/2/85 339/3/85 340/4/85
v 0.788946 0.489763 0.656929
v 0.845994 0.529415 0.618476
v 0.829670 0.543487 0.609638
v 0.773493 0.504398 0.647462
vn 0.101359 0.613585 0.783096
f 341/1/86 342/2/86 343/3/86 344/4/86
v 0.773493 0.504398 0.647462
v 0.829670 0.543487 0.609638
v 0.814459 0.548637 0.592765
v 0.758660 0.509754 0.630319
vn -0.256677 0.836818 0.483584
f 345/1/87 346/2/87 347/3/87 348/4/87
v 0.758660 0.509754 0.630319
v 0.814459 0.548637 0.592765
v 0.804437 0.543487 0.572378
v 0.748421 0.504398 0.610093
vn -0.545755 0.836149 0.054830
f 349/1/88 350/2/88 351/3/88 352/4/88
v 0.748421 0.504398 0.610093
v 0.804437 0.543487 0.572378
v 0.802289 0.529415 0.553940
v 0.745519 0.489763 0.592205
vn -0.688781 0.611856 -0.388862
f 353/1/89 354/2/89 355/3/89 356/4/89
v 0.745519 0.489763 0.592205
v 0.802289 0.529415 0.553940
v 0.808591 0.510193 0.542391
v 0.750733 0.469771 0.581446
vn -0.647268 0.223387 -0.728795
f 357/1/90 358/2/90 359/3/90 360/4/90
v 0.750733 0.469771 0.581446
v 0.808591 0.510193 0.542391
v 0.821654 0.490970 0.540825
v 0.762666 0.449779 0.580701
vn -0.432063 -0.225305 -0.873247
f 361/1/91 362/2/91 363/3/91 364/4/91
v 0.762666 0.449779 0.580701
v 0.821654 0.490970 0.540825
v 0.837978 0.476898 0.549663
v 0.778119 0.435145 0.590168
vn -0.101117 -0.613429 -0.783249
f 365/1/92 366/2/92 367/3/92 368/4/92
v 0.778119 0.435145 0.590168
v 0.837978 0.476898 0.549663
v 0.853189 0.471748 0.566536
v 0.792952 0.429788 0.607310
vn 0.256576 -0.836886 -0.483518
f 369/1/93 370/2/93 371/3/93 372/4/93
v 0.792952 0.429788 0.607310
v 0.853189 0.471748 0.566536
v 0.863211 0.476898 0.586923
v 0.803191 0.435145 0.627536
vn 0.545536 -0.836302 -0.054678
f 373/1/94 374/2/94 375/3/94 376/4/94
v 0.803191 0.435145 0.627536
v 0.863211 0.476898 0.586923
v 0.865359 0.490970 0.605361
v 0.806092 0.449779 0.645424
vn 0.688773 -0.611861 0.388867
f 377/1/95 378/2/95 379/3/95 380/4/95
v 0.806092 0.449779 0.645424
v 0.865359 0.490970 0.605361
v 0.859057 0.510193 0.616910
v 0.800878 0.469771 0.656183
vn 0.647600 -0.223177 0.728565
f 381/1/96 382/2/96 383/3/96 384/4/96
v 0.859057 0.510193 0.616910
v 0.917123 0.555000 0.577455
v 0.903706 0.573950 0.579325
v 0.845994 0.529415 0.618476
vn 0.427203 0.218874 0.877264
f 385/1/97 386/2/97 387/3/97 388/4/97
v 0.845994 0.529415 0.618476
v 0.903706 0.573950 0.579325
v 0.887079 0.587823 0.570741
v 0.829670 0.543487 0.609638
vn 0.081635 0.596271 0.798621
f 389/1/98 390/2/98 391/3/98 392/4/98
v 0.829670 0.543487 0.609638
v 0.887079 0.587823 0.570741
v 0.871696 0.592900 0.554003
v 0.814459 0.548637 0.592765
vn -0.285691 0.813850 0.505993
f 393/1/99 394/2/99 395/3/99 396/4/99
v 0.814459 0.548637 0.592765
v 0.871696 0.592900 0.554003
v 0.861679 0.587823 0.533595
v 0.804437 0.543487 0.572378
vn -0.576373 0.813472 0.077828
f 397/1/100 398/2/100 399/3/100 400/4/100
v 0.804437 0.543487 0.572378
v 0.861679 0.587823 0.533595
v 0.859712 0.573950 0.514986
v 0.802289 0.529415 0.553940
vn -0.712608 0.595265 -0.371282
f 401/1/101 402/2/101 403/3/101 404/4/101
v 0.802289 0.529415 0.553940
v 0.859712 0.573950 0.514986
v 0.866322 0.555000 0.503163
v 0.808591 0.510193 0.542391
vn -0.657852 0.217545 -0.721045
f 405/1/102 406/2/102 407/3/102 408/4/102
v 0.808591 0.510193 0.542391
v 0.866322 0.555000 0.503163
v 0.879738 0.536050 0.501293
v 0.821654 0.490970 0.540825
vn -0.426717 -0.218518 -0.877589
f 409/1/103 410/2/103 411/3/103 412/4/103
v 0.821654 0.490970 0.540825
v 0.879738 0.536050 0.501293
v 0.896365 0.522177 0.509877
v 0.837978 0.476898 0.549663
vn -0.081214 -0.595957 -0.798899
f 413/1/104 414/2/104 415/3/104 416/4/104
v 0.837978 0.476898 0.549663
v 0.896365 0.522177 0.509877
v 0.911748 0.517100 0.526615
v 0.853189 0.471748 0.566536
vn 0.286008 -0.813607 -0.506205
f 417/1/105 418/2/105 419/3/105 420/4/105
v 0.853189 0.471748 0.566536
v 0.911748 0.517100 0.526615
v 0.921765 0.522177 0.547023
v 0.863211 0.476898 0.586923
vn 0.576651 -0.813257 -0.078019
f 421/1/106 422/2/106 423/3/106 424/4/106
v 0.863211 0.476898 0.586923
v 0.921765 0.522177 0.547023
v 0.923733 0.536050 0.565631
v 0.865359 0.490970 0.605361
vn 0.712948 -0.595006 0.371044
f 425/1/107 426/2/107 427/3/107 428/4/107
v 0.865359 0.490970 0.605361
v 0.923733 0.536050 0.565631
v 0.917123 0.555000 0.577455
v 0.859057 0.510193 0.616910
vn 0.658295 -0.217216 0.720739
f 429/1/108 430/2/108 431/3/108 432/4/108
v 0.917123 0.555000 0.577455
v 0.974994 0.599807 0.537632
v 0.961947 0.619030 0.539329
v 0.903706 0.573950 0.579325
vn 0.431989 0.219498 0.874761
f 433/1/109 434/2/109 435/3/109 436/4/109
v 0.903706 0.573950 0.579325
v 0.961947 0.619030 0.539329
v 0.945535 0.633102 0.530655
v 0.887079 0.587823 0.570741
vn 0.085995 0.596744 0.797810
f 437/1/110 438/2/110 439/3/110 440/4/110
v 0.887079 0.587823 0.570741
v 0.945535 0.633102 0.530655
v 0.930156 0.638252 0.513936
v 0.871696 0.592900 0.554003
vn -0.282950 0.814166 0.507024
f 441/1/111 442/2/111 443/3/111 444/4/111
v 0.871696 0.592900 0.554003
v 0.930156 0.638252 0.513936
v 0.919930 0.633102 0.493650
v 0.861679 0.587823 0.533595
vn -0.576019 0.813479 0.080338
f 445/1/112 446/2/112 447/3/112 448/4/112
v 0.861679 0.587823 0.533595
v 0.919930 0.633102 0.493650
v 0.917597 0.619030 0.475235
v 0.859712 0.573950 0.514986
vn -0.714685 0.594865 -0.367914
f 449/1/113 450/2/113 451/3/113 452/4/113
v 0.859712 0.573950 0.514986
v 0.917597 0.619030 0.475235
v 0.923783 0.599807 0.463623
v 0.866322 0.555000 0.503163
vn -0.661765 0.216925 -0.717643
f 453/1/114 454/2/114 455/3/114 456/4/114
v 0.866322 0.555000 0.503163
v 0.923783 0.599807 0.463623
v 0.936830 0.580585 0.461927
v 0.879738 0.536050 0.501293
vn -0.431405 -0.219045 -0.875162
f 457/1/115 458/2/115 459/3/115 460/4/115
v 0.879738 0.536050 0.501293
v 0.936830 0.580585 0.461927
v 0.953242 0.566513 0.470600
v 0.896365 0.522177 0.509877
vn -0.085328 -0.596227 -0.798268
f 461/1/116 462/2/116 463/3/116 464/4/116
v 0.896365 0.522177 0.509877
v 0.953242 0.566513 0.470600
v 0.968621 0.561363 0.487320
v 0.911748 0.517100 0.526615
vn 0.283708 -0.813579 -0.507542
f 465/1/117 466/2/117 467/3/117 468/4/117
v 0.911748 0.517100 0.526615
v 0.968621 0.561363 0.487320
v 0.978847 0.566513 0.507605
v 0.921765 0.522177 0.547023
vn 0.576783 -0.812886 -0.080861
f 469/1/118 470/2/118 471/3/118 472/4/118
v 0.921765 0.522177 0.547023
v 0.978847 0.566513 0.507605
v 0.981180 0.580585 0.526021
v 0.923733 0.536050 0.565631
vn 0.715366 -0.594335 0.367447
f 473/1/119 474/2/119 475/3/119 476/4/119
v 0.923733 0.536050 0.565631
v 0.981180 0.580585 0.526021
v 0.974994 0.599807 0.537632
v 0.917123 0.555000 0.577455
vn 0.662355 -0.216466 0.717237
f 477/1/120 478/2/120 479/3/120 480/4/120
v 0.974994 0.599807 0.537632
v 1.032623 0.640229 0.497540
v 1.020707 0.660221 0.498511
v 0.961947 0.619030 0.539329
vn 0.444863 0.225453 0.866757
f 481/1/121 482/2/121 483/3/121 484/4/121
v 0.961947 0.619030 0.539329
v 1.020707 0.660221 0.498511
v 1.005078 0.674855 0.489337
v 0.945535 0.633102 0.530655
vn 0.112912 0.613462 0.781611
f 485/1/122 486/2/122 487/3/122 488/4/122
v 0.945535 0.633102 0.530655
v 1.005078 0.674855 0.489337
v 0.989924 0.680212 0.472477
v 0.930156 0.638252 0.513936
vn -0.249083 0.837127 0.487007
f 489/1/123 490/2/123 491/3/123 492/4/123
v 0.930156 0.638252 0.513936
v 0.989924 0.680212 0.472477
v 0.979306 0.674855 0.452449
v 0.919930 0.633102 0.493650
vn -0.544322 0.836583 0.061984
f 493/1/124 494/2/124 495/3/124 496/4/124
v 0.919930 0.633102 0.493650
v 0.979306 0.674855 0.452449
v 0.976068 0.660221 0.434618
v 0.917597 0.619030 0.475235
vn -0.693802 0.611933 -0.379706
f 497/1/125 498/2/125 499/3/125 500/4/125
v 0.917597 0.619030 0.475235
v 0.976068 0.660221 0.434618
v 0.981078 0.640229 0.423763
v 0.923783 0.599807 0.463623
vn -0.657301 0.223285 -0.719791
f 501/1/126 502/2/126 503/3/126 504/4/126
v 0.923783 0.599807 0.463623
v 0.981078 0.640229 0.423763
v 0.992994 0.620237 0.422792
v 0.936830 0.580585 0.461927
vn -0.444406 -0.225114 -0.867079
f 505/1/127 506/2/127 507/3/127 508/4/127
v 0.936830 0.580585 0.461927
v 0.992994 0.620237 0.422792
v 1.008623 0.605602 0.431966
v 0.953242 0.566513 0.470600
vn -0.112212 -0.612953 -0.782110
f 509/1/128 510/2/128 511/3/128 512/4/128
v 0.953242 0.566513 0.470600
v 1.008623 0.605602 0.431966
v 1.023776 0.600246 0.448826
v 0.968621 0.561363 0.487320
vn 0.250109 -0.836401 -0.487727
f 513/1/129 514/2/129 515/3/129 516/4/129
v 0.968621 0.561363 0.487320
v 1.023776 0.600246 0.448826
v 1.034395 0.605602 0.468855
v 0.978847 0.566513 0.507605
vn 0.545431 -0.835804 -0.062740
f 517/1/130 518/2/130 519/3/130 520/4/130
v 0.978847 0.566513 0.507605
v 1.034395 0.605602 0.468855
v 1.037633 0.620237 0.486686
v 0.981180 0.580585 0.526021
vn 0.694662 -0.611317 0.379126
f 521/1/131 522/2/131 523/3/131 524/4/131
v 0.981180 0.580585 0.526021
v 1.037633 0.620237 0.486686
v 1.032623 0.640229 0.497540
v 0.974994 0.599807 0.537632
vn 0.657835 -0.222892 0.719425
f 525/1/132 526/2/132 527/3/132 528/4/132
v 1.032623 0.640229 0.497540
v 1.090127 0.672307 0.457202
v 1.080210 0.693381 0.456828
v 1.020707 0.660221 0.498511
vn 0.466137 0.236448 0.852531
f 529/1/133 530/2/133 531/3/133 532/4/133
v 1.020707 0.660221 0.498511
v 1.080210 0.693381 0.456828
v 1.065992 0.708809 0.446707
v 1.005078 0.674855 0.489337
vn 0.164488 0.643996 0.747137
f 533/1/134 534/2/134 535/3/134 536/4/134
v 1.005078 0.674855 0.489337
v 1.065992 0.708809 0.446707
v 1.051282 0.714456 0.429551
v 0.989924 0.680212 0.472477
vn -0.180742 0.878789 0.441659
f 537/1/135 538/2/135 539/3/135 540/4/135
v 0.989924 0.680212 0.472477
v 1.051282 0.714456 0.429551
v 1.040021 0.708809 0.409957
v 0.979306 0.674855 0.452449
vn -0.477508 0.878439 0.018218
f 541/1/136 542/2/136 543/3/136 544/4/136
v 0.979306 0.674855 0.452449
v 1.040021 0.708809 0.409957
v 1.035228 0.693381 0.393176
v 0.976068 0.660221 0.434618
vn -0.646710 0.642979 -0.410298
f 545/1/137 546/2/137 547/3/137 548/4/137
v 0.976068 0.660221 0.434618
v 1.035228 0.693381 0.393176
v 1.038186 0.672307 0.383703
v 0.981078 0.640229 0.423763
vn -0.642582 0.234952 -0.729305
f 549/1/138 550/2/138 551/3/138 552/4/138
v 0.981078 0.640229 0.423763
v 1.038186 0.672307 0.383703
v 1.048102 0.651233 0.384077
v 0.992994 0.620237 0.422792
vn -0.465641 -0.236135 -0.852888
f 553/1/139 554/2/139 555/3/139 556/4/139
v 0.992994 0.620237 0.422792
v 1.048102 0.651233 0.384077
v 1.062321 0.635806 0.394198
v 1.008623 0.605602 0.431966
vn -0.163506 -0.643402 -0.747864
f 557/1/140 558/2/140 559/3/140 560/4/140
v 1.008623 0.605602 0.431966
v 1.062321 0.635806 0.394198
v 1.077031 0.630159 0.411354
v 1.023776 0.600246 0.448826
vn 0.182341 -0.877880 -0.442808
f 561/1/141 562/2/141 563/3/141 564/4/141
v 1.023776 0.600246 0.448826
v 1.077031 0.630159 0.411354
v 1.088292 0.635806 0.430948
v 1.034395 0.605602 0.468855
vn 0.479239 -0.877470 -0.019395
f 565/1/142 566/2/142 567/3/142 568/4/142
v 1.034395 0.605602 0.468855
v 1.088292 0.635806 0.430948
v 1.093085 0.651233 0.447729
v 1.037633 0.620237 0.486686
vn 0.647933 -0.642263 0.409488
f 569/1/143 570/2/143 571/3/143 572/4/143
v 1.037633 0.620237 0.486686
v 1.093085 0.651233 0.447729
v 1.090127 0.672307 0.457202
v 1.032623 0.640229 0.497540
vn 0.643186 -0.234577 0.728893
f 573/1/144 574/2/144 575/3/144 576/4/144
v 1.090127 0.672307 0.457202
v 1.147390 0.692903 0.416450
v 1.140360 0.714983 0.414069
v 1.080210 0.693381 0.456828
vn 0.500091 0.250050 0.829086
f 577/1/145 578/2/145 579/3/145 580/4/145
v 1.080210 0.693381 0.456828
v 1.140360 0.714983 0.414069
v 1.128194 0.731146 0.402523
v 1.065992 0.708809 0.446707
vn 0.246523 0.680134 0.690394
f 581/1/146 582/2/146 583/3/146 584/4/146
v 1.065992 0.708809 0.446707
v 1.128194 0.731146 0.402523
v 1.114150 0.737063 0.384906
v 1.051282 0.714456 0.429551
vn -0.072221 0.927350 0.367160
f 585/1/147 586/2/147 587/3/147 588/4/147
v 1.051282 0.714456 0.429551
v 1.114150 0.737063 0.384906
v 1.101992 0.731146 0.365938
v 1.040021 0.708809 0.409957
vn -0.371425 0.926910 -0.053672
f 589/1/148 590/2/148 591/3/148 592/4/148
v 1.040021 0.708809 0.409957
v 1.101992 0.731146 0.365938
v 1.094978 0.714983 0.350702
v 1.035228 0.693381 0.393176
vn -0.571883 0.678784 -0.460654
f 593/1/149 594/2/149 595/3/149 596/4/149
v 1.035228 0.693381 0.393176
v 1.094978 0.714983 0.350702
v 1.094987 0.692903 0.343280
v 1.038186 0.672307 0.383703
vn -0.619247 0.247965 -0.745014
f 597/1/150 598/2/150 599/3/150 600/4/150
v 1.038186 0.672307 0.383703
v 1.094987 0.692903 0.343280
v 1.102017 0.670824 0.345661
v 1.048102 0.651233 0.384077
vn -0.499661 -0.249853 -0.829405
f 601/1/151 602/2/151 603/3/151 604/4/151
v 1.048102 0.651233 0.384077
v 1.102017 0.670824 0.345661
v 1.114183 0.654660 0.357207
v 1.062321 0.635806 0.394198
vn -0.245513 -0.679712 -0.691169
f 605/1/152 606/2/152 607/3/152 608/4/152
v 1.062321 0.635806 0.394198
v 1.114183 0.654660 0.357207
v 1.128227 0.648744 0.374824
v 1.077031 0.630159 0.411354
vn 0.074043 -0.926674 -0.368501
f 609/1/153 610/2/153 611/3/153 612/4/153
v 1.077031 0.630159 0.411354
v 1.128227 0.648744 0.374824
v 1.140385 0.654660 0.393792
v 1.088292 0.635806 0.430948
vn 0.373495 -0.926159 0.052266
f 613/1/154 614/2/154 615/3/154 616/4/154
v 1.088292 0.635806 0.430948
v 1.140385 0.654660 0.393792
v 1.147399 0.670824 0.409028
v 1.093085 0.651233 0.447729
vn 0.573341 -0.678200 0.459701
f 617/1/155 618/2/155 619/3/155 620/4/155
v 1.093085 0.651233 0.447729
v 1.147399 0.670824 0.409028
v 1.147390 0.692903 0.416450
v 1.090127 0.672307 0.457202
vn 0.619880 -0.247683 0.744582
f 621/1/156 622/2/156 623/3/156 624/4/156
v 1.147390 0.692903 0.416450
v 1.204504 0.700000 0.375296
v 1.197898 0.722180 0.372653
v 1.140360 0.714983 0.414069
vn 0.543245 0.259077 0.798601
f 625/1/157 626/2/157 627/3/157 628/4/157
v 1.140360 0.714983 0.414069
v 1.197898 0.722180 0.372653
v 1.185956 0.738418 0.360977
v 1.128194 0.731146 0.402523
vn 0.353951 0.705239 0.614293
f 629/1/158 630/2/158 631/3/158 632/4/158
v 1.128194 0.731146 0.402523
v 1.185956 0.738418 0.360977
v 1.171876 0.744361 0.343398
v 1.114150 0.737063 0.384906
vn 0.070660 0.961247 0.266479
f 633/1/159 634/2/159 635/3/159 636/4/159
v 1.114150 0.737063 0.384906
v 1.171876 0.744361 0.343398
v 1.159432 0.738418 0.324625
v 1.101992 0.731146 0.365938
vn -0.230725 0.961092 -0.151885
f 637/1/160 638/2/160 639/3/160 640/4/160
v 1.101992 0.731146 0.365938
v 1.159432 0.738418 0.324625
v 1.151959 0.722180 0.309688
v 1.094978 0.714983 0.350702
vn -0.470932 0.704654 -0.530741
f 641/1/161 642/2/161 643/3/161 644/4/161
v 1.094978 0.714983 0.350702
v 1.151959 0.722180 0.309688
v 1.151457 0.700000 0.302591
v 1.094987 0.692903 0.343280
vn -0.585660 0.258049 -0.768384
f 645/1/162 646/2/162 647/3/162 648/4/162
v 1.094987 0.692903 0.343280
v 1.151457 0.700000 0.302591
v 1.158063 0.677820 0.305234
v 1.102017 0.670824 0.345661
vn -0.542999 -0.259019 -0.798788
f 649/1/163 650/2/163 651/3/163 652/4/163
v 1.102017 0.670824 0.345661
v 1.158063 0.677820 0.305234
v 1.170006 0.661582 0.316910
v 1.114183 0.654660 0.357207
vn -0.354646 -0.705369 -0.613744
f 653/1/164 654/2/164 655/3/164 656/4/164
v 1.114183 0.654660 0.357207
v 1.170006 0.661582 0.316910
v 1.184085 0.655639 0.334490
v 1.128227 0.648744 0.374824
vn -0.072266 -0.961462 -0.265270
f 657/1/165 658/2/165 659/3/165 660/4/165
v 1.128227 0.648744 0.374824
v 1.184085 0.655639 0.334490
v 1.196529 0.661582 0.353263
v 1.140385 0.654660 0.393792
vn 0.229125 -0.961301 0.152976
f 661/1/166 662/2/166 663/3/166 664/4/166
v 1.140385 0.654660 0.393792
v 1.196529 0.661582 0.353263
v 1.204003 0.677820 0.368199
v 1.147399 0.670824 0.409028
vn 0.470313 -0.704765 0.531143
f 665/1/167 666/2/167 667/3/167 668/4/167
v 1.147399 0.670824 0.409028
v 1.204003 0.677820 0.368199
v 1.204504 0.700000 0.375296
v 1.147390 0.692903 0.416450
vn 0.585975 -0.257976 0.768167
f 669/1/168 670/2/168 671/3/168 672/4/168
v 1.204504 0.700000 0.375296
v 1.374339 0.750694 0.249791
v 1.366500 0.772569 0.248157
v 1.197898 0.722180 0.372653
vn 0.524937 0.253178 0.812614
f 673/1/169 674/2/169 675/3/169 676/4/169
v 1.197898 0.722180 0.372653
v 1.366500 0.772569 0.248157
v 1.353493 0.788582 0.237340
v 1.185956 0.738418 0.360977
vn 0.285803 0.689076 0.665951
f 677/1/170 678/2/170 679/3/170 680/4/170
v 1.185956 0.738418 0.360977
v 1.353493 0.788582 0.237340
v 1.338804 0.794443 0.220239
v 1.171876 0.744361 0.343398
vn -0.029483 0.939514 0.341240
f 681/1/171 682/2/171 683/3/171 684/4/171
v 1.171876 0.744361 0.343398
v 1.338804 0.794443 0.220239
v 1.326368 0.788582 0.201435
v 1.159432 0.738418 0.324625
vn -0.336410 0.938787 -0.074214
f 685/1/172 686/2/172 687/3/172 688/4/172
v 1.159432 0.738418 0.324625
v 1.326368 0.788582 0.201435
v 1.319518 0.772569 0.185967
v 1.151959 0.722180 0.309688
vn -0.553557 0.687352 -0.470235
f 689/1/173 690/2/173 691/3/173 692/4/173
v 1.151959 0.722180 0.309688
v 1.319518 0.772569 0.185967
v 1.320088 0.750694 0.177980
v 1.151457 0.700000 0.302591
vn -0.622705 0.251188 -0.741042
f 693/1/174 694/2/174 695/3/174 696/4/174
v 1.151457 0.700000 0.302591
v 1.320088 0.750694 0.177980
v 1.327928 0.728820 0.179613
v 1.158063 0.677820 0.305234
vn -0.524585 -0.253103 -0.812865
f 697/1/175 698/2/175 699/3/175 700/4/175
v 1.158063 0.677820 0.305234
v 1.327928 0.728820 0.179613
v 1.340934 0.712807 0.190430
v 1.170006 0.661582 0.316910
vn -0.285677 -0.689046 -0.666037
f 701/1/176 702/2/176 703/3/176 704/4/176
v 1.170006 0.661582 0.316910
v 1.340934 0.712807 0.190430
v 1.355624 0.706946 0.207532
v 1.184085 0.655639 0.334490
vn 0.029218 -0.939590 -0.341053
f 705/1/177 706/2/177 707/3/177 708/4/177
v 1.184085 0.655639 0.334490
v 1.355624 0.706946 0.207532
v 1.368060 0.712807 0.226336
v 1.196529 0.661582 0.353263
vn 0.335991 -0.938912 0.074532
f 709/1/178 710/2/178 711/3/178 712/4/178
v 1.196529 0.661582 0.353263
v 1.368060 0.712807 0.226336
v 1.374910 0.728820 0.241804
v 1.204003 0.677820 0.368199
vn 0.553358 -0.687405 0.470392
f 713/1/179 714/2/179 715/3/179 716/4/179
v 1.204003 0.677820 0.368199
v 1.374910 0.728820 0.241804
v 1.374339 0.750694 0.249791
v 1.204504 0.700000 0.375296
vn 0.622885 -0.251148 0.740904
f 717/1/180 718/2/180 719/3/180 720/4/180
v 1.374339 0.750694 0.249791
v 1.541733 0.801389 0.120522
v 1.533857 0.823263 0.119076
v 1.366500 0.772569 0.248157
vn 0.541800 0.254006 0.801207
f 721/1/181 722/2/181 723/3/181 724/4/181
v 1.366500 0.772569 0.248157
v 1.533857 0.823263 0.119076
v 1.520597 0.839276 0.108572
v 1.353493 0.788582 0.237340
vn 0.299960 0.689193 0.659573
f 725/1/182 726/2/182 727/3/182 728/4/182
v 1.353493 0.788582 0.237340
v 1.520597 0.839276 0.108572
v 1.505504 0.845137 0.091824
v 1.338804 0.794443 0.220239
vn -0.022205 0.939747 0.341149
f 729/1/183 730/2/183 731/3/183 732/4/183
v 1.338804 0.794443 0.220239
v 1.505504 0.845137 0.091824
v 1.492624 0.839276 0.073322
v 1.326368 0.788582 0.201435
vn -0.338363 0.938501 -0.068751
f 733/1/184 734/2/184 735/3/184 736/4/184
v 1.326368 0.788582 0.201435
v 1.492624 0.839276 0.073322
v 1.485408 0.823263 0.058021
v 1.319518 0.772569 0.185967
vn -0.563780 0.685787 -0.460270
f 737/1/185 738/2/185 739/3/185 740/4/185
v 1.319518 0.772569 0.185967
v 1.485408 0.823263 0.058021
v 1.485789 0.801389 0.050023
v 1.320088 0.750694 0.177980
vn -0.638061 0.249352 -0.728493
f 741/1/186 742/2/186 743/3/186 744/4/186
v 1.320088 0.750694 0.177980
v 1.485789 0.801389 0.050023
v 1.493665 0.779515 0.051469
v 1.327928 0.728820 0.179613
vn -0.541324 -0.253863 -0.801574
f 745/1/187 746/2/187 747/3/187 748/4/187
v 1.327928 0.728820 0.179613
v 1.493665 0.779515 0.051469
v 1.506925 0.763502 0.061973
v 1.340934 0.712807 0.190430
vn -0.299485 -0.689052 -0.659936
f 749/1/188 750/2/188 751/3/188 752/4/188
v 1.340934 0.712807 0.190430
v 1.506925 0.763502 0.061973
v 1.522018 0.757641 0.078720
v 1.355624 0.706946 0.207532
vn 0.022677 -0.939606 -0.341506
f 753/1/189 754/2/189 755/3/189 756/4/189
v 1.355624 0.706946 0.207532
v 1.522018 0.757641 0.078720
v 1.534898 0.763502 0.097223
v 1.368060 0.712807 0.226336
vn 0.338833 -0.938357 0.068396
f 757/1/190 758/2/190 759/3/190 760/4/190
v 1.368060 0.712807 0.226336
v 1.534898 0.763502 0.097223
v 1.542114 0.779515 0.112524
v 1.374910 0.728820 0.241804
vn 0.564251 -0.685641 0.459910
f 761/1/191 762/2/191 763/3/191 764/4/191
v 1.374910 0.728820 0.241804
v 1.542114 0.779515 0.112524
v 1.541733 0.801389 0.120522
v 1.374339 0.750694 0.249791
vn 0.638535 -0.249206 0.728127
f 765/1/192 766/2/192 767/3/192 768/4/192
v 1.541733 0.801389 0.120522
v 1.705817 0.852083 -0.013259
v 1.697903 0.873957 -0.014480
v 1.533857 0.823263 0.119076
vn 0.562623 0.254591 0.786536
f 769/1/193 770/2/193 771/3/193 772/4/193
v 1.533857 0.823263 0.119076
v 1.697903 0.873957 -0.014480
v 1.684347 0.889970 -0.024600
v 1.520597 0.839276 0.108572
vn 0.316984 0.689618 0.651113
f 773/1/194 774/2/194 775/3/194 776/4/194
v 1.520597 0.839276 0.108572
v 1.684347 0.889970 -0.024600
v 1.668783 0.895831 -0.040909
v 1.505504 0.845137 0.091824
vn -0.013537 0.939912 0.341149
f 777/1/195 778/2/195 779/3/195 780/4/195
v 1.505504 0.845137 0.091824
v 1.668783 0.895831 -0.040909
v 1.655379 0.889970 -0.059036
v 1.492624 0.839276 0.073322
vn -0.340368 0.938356 -0.060311
f 781/1/196 782/2/196 783/3/196 784/4/196
v 1.492624 0.839276 0.073322
v 1.655379 0.889970 -0.059036
v 1.647729 0.873957 -0.074125
v 1.485408 0.823263 0.058021
vn -0.575901 0.685367 -0.445657
f 785/1/197 786/2/197 787/3/197 788/4/197
v 1.485408 0.823263 0.058021
v 1.647729 0.873957 -0.074125
v 1.647881 0.852083 -0.082131
v 1.485789 0.801389 0.050023
vn -0.657035 0.248781 -0.711627
f 789/1/198 790/2/198 791/3/198 792/4/198
v 1.485789 0.801389 0.050023
v 1.647881 0.852083 -0.082131
v 1.655795 0.830209 -0.080910
v 1.493665 0.779515 0.051469
vn -0.562064 -0.254420 -0.786991
f 793/1/199 794/2/199 795/3/199 796/4/199
v 1.493665 0.779515 0.051469
v 1.655795 0.830209 -0.080910
v 1.669351 0.814196 -0.070789
v 1.506925 0.763502 0.061973
vn -0.316425 -0.689450 -0.651562
f 797/1/200 798/2/200 799/3/200 800/4/200
v 1.506925 0.763502 0.061973
v 1.669351 0.814196 -0.070789
v 1.684915 0.808335 -0.054481
v 1.522018 0.757641 0.078720
vn 0.014094 -0.939743 -0.341592
f 801/1/201 802/2/201 803/3/201 804/4/201
v 1.522018 0.757641 0.078720
v 1.684915 0.808335 -0.054481
v 1.698319 0.814196 -0.036353
v 1.534898 0.763502 0.097223
vn 0.340922 -0.938183 0.059870
f 805/1/202 806/2/202 807/3/202 808/4/202
v 1.534898 0.763502 0.097223
v 1.698319 0.814196 -0.036353
v 1.705969 0.830209 -0.021265
v 1.542114 0.779515 0.112524
vn 0.576456 -0.685191 0.445210
f 809/1/203 810/2/203 811/3/203 812/4/203
v 1.542114 0.779515 0.112524
v 1.705969 0.830209 -0.021265
v 1.705817 0.852083 -0.013259
v 1.541733 0.801389 0.120522
vn 0.657592 -0.248605 0.711173
f 813/1/204 814/2/204 815/3/204 816/4/204
v 1.705817 0.852083 -0.013259
v 1.865949 0.902778 -0.152227
v 1.857996 0.924652 -0.153165
v 1.697903 0.873957 -0.014480
vn 0.586429 0.255080 0.768788
f 817/1/205 818/2/205 819/3/205 820/4/205
v 1.697903 0.873957 -0.014480
v 1.857996 0.924652 -0.153165
v 1.844088 0.940664 -0.162796
v 1.684347 0.889970 -0.024600
vn 0.336623 0.689975 0.640796
f 821/1/206 822/2/206 823/3/206 824/4/206
v 1.684347 0.889970 -0.024600
v 1.844088 0.940664 -0.162796
v 1.827952 0.946526 -0.178539
v 1.668783 0.895831 -0.040909
vn -0.003319 0.940055 0.341005
f 825/1/207 826/2/207 827/3/207 828/4/207
v 1.668783 0.895831 -0.040909
v 1.827952 0.946526 -0.178539
v 1.813911 0.940664 -0.196177
v 1.655379 0.889970 -0.059036
vn -0.342294 0.938247 -0.050271
f 829/1/208 830/2/208 831/3/208 832/4/208
v 1.655379 0.889970 -0.059036
v 1.813911 0.940664 -0.196177
v 1.805728 0.924652 -0.210983
v 1.647729 0.873957 -0.074125
vn -0.589428 0.685033 -0.428142
f 833/1/209 834/2/209 835/3/209 836/4/209
v 1.647729 0.873957 -0.074125
v 1.805728 0.924652 -0.210983
v 1.805595 0.902778 -0.218991
v 1.647881 0.852083 -0.082131
vn -0.678515 0.248325 -0.691341
f 837/1/210 838/2/210 839/3/210 840/4/210
v 1.647881 0.852083 -0.082131
v 1.805595 0.902778 -0.218991
v 1.813548 0.880904 -0.218053
v 1.655795 0.830209 -0.080910
vn -0.585733 -0.254862 -0.769390
f 841/1/211 842/2/211 843/3/211 844/4/211
v 1.655795 0.830209 -0.080910
v 1.813548 0.880904 -0.218053
v 1.827456 0.864891 -0.208422
v 1.669351 0.814196 -0.070789
vn -0.335932 -0.689763 -0.641387
f 845/1/212 846/2/212 847/3/212 848/4/212
v 1.669351 0.814196 -0.070789
v 1.827456 0.864891 -0.208422
v 1.843592 0.859030 -0.192678
v 1.684915 0.808335 -0.054481
vn 0.004001 -0.939844 -0.341580
f 849/1/213 850/2/213 851/3/213 852/4/213
v 1.684915 0.808335 -0.054481
v 1.843592 0.859030 -0.192678
v 1.857633 0.864891 -0.175040
v 1.698319 0.814196 -0.036353
vn 0.342972 -0.938030 0.049700
f 853/1/214 854/2/214 855/3/214 856/4/214
v 1.698319 0.814196 -0.036353
v 1.857633 0.864891 -0.175040
v 1.865816 0.880904 -0.160234
v 1.705969 0.830209 -0.021265
vn 0.590110 -0.684809 0.427558
f 857/1/215 858/2/215 859/3/215 860/4/215
v 1.705969 0.830209 -0.021265
v 1.865816 0.880904 -0.160234
v 1.865949 0.902778 -0.152227
v 1.705817 0.852083 -0.013259
vn 0.679207 -0.248101 0.690742
f 861/1/216 862/2/216 863/3/216 864/4/216
v 1.865949 0.902778 -0.152227
v 2.020647 0.953472 -0.297890
v 2.012659 0.975346 -0.298460
v 1.857996 0.924652 -0.153165
vn 0.616830 0.256172 0.744243
f 865/1/217 866/2/217 867/3/217 868/4/217
v 1.857996 0.924652 -0.153165
v 2.012659 0.975346 -0.298460
v 1.998322 0.991359 -0.307441
v 1.844088 0.940664 -0.162796
vn 0.361753 0.690763 0.626084
f 869/1/218 870/2/218 871/3/218 872/4/218
v 1.844088 0.940664 -0.162796
v 1.998322 0.991359 -0.307441
v 1.981478 0.997220 -0.322426
v 1.827952 0.946526 -0.178539
vn 0.009807 0.940364 0.340028
f 873/1/219 874/2/219 875/3/219 876/4/219
v 1.827952 0.946526 -0.178539
v 1.981478 0.997220 -0.322426
v 1.966641 0.991359 -0.339400
v 1.813911 0.940664 -0.196177
vn -0.344680 0.937979 -0.037305
f 877/1/220 878/2/220 879/3/220 880/4/220
v 1.813911 0.940664 -0.196177
v 1.966641 0.991359 -0.339400
v 1.957786 0.975346 -0.353814
v 1.805728 0.924652 -0.210983
vn -0.606639 0.684243 -0.404723
f 881/1/221 882/2/221 883/3/221 884/4/221
v 1.805728 0.924652 -0.210983
v 1.957786 0.975346 -0.353814
v 1.957286 0.953472 -0.361807
v 1.805595 0.902778 -0.218991
vn -0.705902 0.247257 -0.663751
f 885/1/222 886/2/222 887/3/222 888/4/222
v 1.805595 0.902778 -0.218991
v 1.957286 0.953472 -0.361807
v 1.965274 0.931599 -0.361237
v 1.813548 0.880904 -0.218053
vn -0.615957 -0.255890 -0.745062
f 889/1/223 890/2/223 891/3/223 892/4/223
v 1.813548 0.880904 -0.218053
v 1.965274 0.931599 -0.361237
v 1.979611 0.915586 -0.352257
v 1.827456 0.864891 -0.208422
vn -0.360885 -0.690491 -0.626885
f 893/1/224 894/2/224 895/3/224 896/4/224
v 1.827456 0.864891 -0.208422
v 1.979611 0.915586 -0.352257
v 1.996455 0.909725 -0.337272
v 1.843592 0.859030 -0.192678
vn -0.008950 -0.940091 -0.340805
f 897/1/225 898/2/225 899/3/225 900/4/225
v 1.843592 0.859030 -0.192678
v 1.996455 0.909725 -0.337272
v 2.011292 0.915586 -0.320298
v 1.857633 0.864891 -0.175040
vn 0.345531 -0.937696 0.036533
f 901/1/226 902/2/226 903/3/226 904/4/226
v 1.857633 0.864891 -0.175040
v 2.011292 0.915586 -0.320298
v 2.020147 0.931599 -0.305883
v 1.865816 0.880904 -0.160234
vn 0.607496 -0.683950 0.403932
f 905/1/227 906/2/227 907/3/227 908/4/227
v 1.865816 0.880904 -0.160234
v 2.020147 0.931599 -0.305883
v 2.020647 0.953472 -0.297890
v 1.865949 0.902778 -0.152227
vn 0.706770 -0.246964 0.662937
f 909/1/228 910/2/228 911/3/228 912/4/228
v 2.020647 0.953472 -0.297890
v 2.168126 1.004167 -0.451829
v 2.160116 1.026040 -0.451902
v 2.012659 0.975346 -0.298460
vn 0.654020 0.257395 0.711341
f 913/1/229 914/2/229 915/3/229 916/4/229
v 2.012659 0.975346 -0.298460
v 2.160116 1.026040 -0.451902
v 2.145250 1.042052 -0.459977
v 1.998322 0.991359 -0.307441
vn 0.392862 0.691642 0.606045
f 917/1/230 918/2/230 919/3/230 920/4/230
v 1.998322 0.991359 -0.307441
v 2.145250 1.042052 -0.459977
v 2.127512 1.047913 -0.473891
v 1.981478 0.997220 -0.322426
vn 0.026498 0.940716 0.338159
f 921/1/231 922/2/231 923/3/231 924/4/231
v 1.981478 0.997220 -0.322426
v 2.127512 1.047913 -0.473891
v 2.111654 1.042052 -0.489915
v 1.966641 0.991359 -0.339400
vn -0.346860 0.937691 -0.020588
f 925/1/232 926/2/232 927/3/232 928/4/232
v 1.966641 0.991359 -0.339400
v 2.111654 1.042052 -0.489915
v 2.101925 1.026040 -0.503756
v 1.957786 0.975346 -0.353814
vn -0.627030 0.683374 -0.373944
f 929/1/233 930/2/233 931/3/233 932/4/233
v 1.957786 0.975346 -0.353814
v 2.101925 1.026040 -0.503756
v 2.100933 1.004167 -0.511704
v 1.957286 0.953472 -0.361807
vn -0.738977 0.246088 -0.627179
f 933/1/234 934/2/234 935/3/234 936/4/234
v 1.957286 0.953472 -0.361807
v 2.100933 1.004167 -0.511704
v 2.108943 0.982294 -0.511631
v 1.965274 0.931599 -0.361237
vn -0.652856 -0.257001 -0.712551
f 937/1/235 938/2/235 939/3/235 940/4/235
v 1.965274 0.931599 -0.361237
v 2.108943 0.982294 -0.511631
v 2.123809 0.966281 -0.503556
v 1.979611 0.915586 -0.352257
vn -0.391715 -0.691270 -0.607212
f 941/1/236 942/2/236 943/3/236 944/4/236
v 1.979611 0.915586 -0.352257
v 2.123809 0.966281 -0.503556
v 2.141547 0.960420 -0.489642
v 1.996455 0.909725 -0.337272
vn -0.025382 -0.940347 -0.339270
f 945/1/237 946/2/237 947/3/237 948/4/237
v 1.996455 0.909725 -0.337272
v 2.141547 0.960420 -0.489642
v 2.157405 0.966281 -0.473618
v 2.011292 0.915586 -0.320298
vn 0.347964 -0.937305 0.019490
f 949/1/238 950/2/238 951/3/238 952/4/238
v 2.011292 0.915586 -0.320298
v 2.157405 0.966281 -0.473618
v 2.167134 0.982294 -0.459777
v 2.020147 0.931599 -0.305883
vn 0.628151 -0.682967 0.372803
f 953/1/239 954/2/239 955/3/239 956/4/239
v 2.020147 0.931599 -0.305883
v 2.167134 0.982294 -0.459777
v 2.168126 1.004167 -0.451829
v 2.020647 0.953472 -0.297890
vn 0.740128 -0.245677 0.625982
f 957/1/240 958/2/240 959/3/240 960/4/240
v 2.168126 1.004167 -0.451829
v 2.304820 1.054861 -0.616923
v 2.296832 1.076733 -0.616285
v 2.160116 1.026040 -0.451902
vn 0.703140 0.259707 0.661927
f 961/1/241 962/2/241 963/3/241 964/4/241
v 2.160116 1.026040 -0.451902
v 2.296832 1.076733 -0.616285
v 2.281309 1.092744 -0.623013
v 2.145250 1.042052 -0.459977
vn 0.434364 0.693283 0.575054
f 965/1/242 966/2/242 967/3/242 968/4/242
v 2.145250 1.042052 -0.459977
v 2.281309 1.092744 -0.623013
v 2.262410 1.098605 -0.635305
v 2.127512 1.047913 -0.473891
vn 0.049223 0.941367 0.333775
f 969/1/243 970/2/243 971/3/243 972/4/243
v 2.127512 1.047913 -0.473891
v 2.262410 1.098605 -0.635305
v 2.245200 1.092744 -0.649868
v 2.111654 1.042052 -0.489915
vn -0.349002 0.937118 0.002630
f 973/1/244 974/2/244 975/3/244 976/4/244
v 2.111654 1.042052 -0.489915
v 2.245200 1.092744 -0.649868
v 2.234289 1.076733 -0.662798
v 2.101925 1.026040 -0.503756
vn -0.653307 0.681669 -0.329418
f 977/1/245 978/2/245 979/3/245 980/4/245
v 2.101925 1.026040 -0.503756
v 2.234289 1.076733 -0.662798
v 2.232602 1.054861 -0.670632
v 2.100933 1.004167 -0.511704
vn -0.782227 0.243818 -0.573300
f 981/1/246 982/2/246 983/3/246 984/4/246
v 2.100933 1.004167 -0.511704
v 2.232602 1.054861 -0.670632
v 2.240590 1.032989 -0.671270
v 2.108943 0.982294 -0.511631
vn -0.701529 -0.259123 -0.663862
f 985/1/247 986/2/247 987/3/247 988/4/247
v 2.108943 0.982294 -0.511631
v 2.240590 1.032989 -0.671270
v 2.256113 1.016978 -0.664542
v 2.123809 0.966281 -0.503556
vn -0.432786 -0.692744 -0.576890
f 989/1/248 990/2/248 991/3/248 992/4/248
v 2.123809 0.966281 -0.503556
v 2.256113 1.016978 -0.664542
v 2.275012 1.011117 -0.652250
v 2.141547 0.960420 -0.489642
vn -0.047705 -0.940836 -0.335487
f 993/1/249 994/2/249 995/3/249 996/4/249
v 2.141547 0.960420 -0.489642
v 2.275012 1.011117 -0.652250
v 2.292222 1.016978 -0.637688
v 2.157405 0.966281 -0.473618
vn 0.350495 -0.936554 -0.004314
f 997/1/250 998/2/250 999/3/250 1000/4/250
v 2.157405 0.966281 -0.473618
v 2.292222 1.016978 -0.637688
v 2.303132 1.032989 -0.624757
v 2.167134 0.982294 -0.459777
vn 0.654836 -0.681060 0.327639
f 1001/1/251 1002/2/251 1003/3/251 1004/4/251
v 2.167134 0.982294 -0.459777
v 2.303132 1.032989 -0.624757
v 2.304820 1.054861 -0.616923
v 2.168126 1.004167 -0.451829
vn 0.783813 -0.243198 0.571395
f 1005/1/252 1006/2/252 1007/3/252 1008/4/252
v 2.304820 1.054861 -0.616923
v 2.424619 1.105556 -0.797103
v 2.416784 1.127424 -0.795377
v 2.296832 1.076733 -0.616285
vn 0.767559 0.263274 0.584414
f 1009/1/253 1010/2/253 1011/3/253 1012/4/253
v 2.296832 1.076733 -0.616285
v 2.416784 1.127424 -0.795377
v 2.400488 1.143433 -0.799933
v 2.281309 1.092744 -0.623013
vn 0.490032 0.695765 0.525146
f 1013/1/254 1014/2/254 1015/3/254 1016/4/254
v 2.281309 1.092744 -0.623013
v 2.400488 1.143433 -0.799933
v 2.380098 1.149292 -0.809551
v 2.262410 1.098605 -0.635305
vn 0.081092 0.942363 0.324618
f 1017/1/255 1018/2/255 1019/3/255 1020/4/255
v 2.262410 1.098605 -0.635305
v 2.380098 1.149292 -0.809551
v 2.361077 1.143433 -0.821653
v 2.245200 1.092744 -0.649868
vn -0.349511 0.936229 0.036281
f 1021/1/256 1022/2/256 1023/3/256 1024/4/256
v 2.245200 1.092744 -0.649868
v 2.361077 1.143433 -0.821653
v 2.348522 1.127424 -0.832997
v 2.234289 1.076733 -0.662798
vn -0.685717 0.679004 -0.262195
f 1025/1/257 1026/2/257 1027/3/257 1028/4/257
v 2.234289 1.076733 -0.662798
v 2.348522 1.127424 -0.832997
v 2.345797 1.105556 -0.840544
v 2.232602 1.054861 -0.670632
vn -0.837594 0.240328 -0.490590
f 1029/1/258 1030/2/258 1031/3/258 1032/4/258
v 2.232602 1.054861 -0.670632
v 2.345797 1.105556 -0.840544
v 2.353633 1.083687 -0.842270
v 2.240590 1.032989 -0.671270
vn -0.765153 -0.262291 -0.588000
f 1033/1/259 1034/2/259 1035/3/259 1036/4/259
v 2.240590 1.032989 -0.671270
v 2.353633 1.083687 -0.842270
v 2.369929 1.067679 -0.837715
v 2.256113 1.016978 -0.664542
vn -0.487716 -0.694902 -0.528436
f 1037/1/260 1038/2/260 1039/3/260 1040/4/260
v 2.256113 1.016978 -0.664542
v 2.369929 1.067679 -0.837715
v 2.390319 1.061819 -0.828097
v 2.275012 1.011117 -0.652250
vn -0.078936 -0.941535 -0.327538
f 1041/1/261 1042/2/261 1043/3/261 1044/4/261
v 2.275012 1.011117 -0.652250
v 2.390319 1.061819 -0.828097
v 2.409340 1.067679 -0.815994
v 2.292222 1.016978 -0.637688
vn 0.351610 -0.935329 -0.039123
f 1045/1/262 1046/2/262 1047/3/262 1048/4/262
v 2.292222 1.016978 -0.637688
v 2.409340 1.067679 -0.815994
v 2.421895 1.083687 -0.804650
v 2.303132 1.032989 -0.624757
vn 0.687918 -0.677977 0.259067
f 1049/1/263 1050/2/263 1051/3/263 1052/4/263
v 2.303132 1.032989 -0.624757
v 2.421895 1.083687 -0.804650
v 2.424619 1.105556 -0.797103
v 2.304820 1.054861 -0.616923
vn 0.839942 -0.239255 0.487087
f 1053/1/264 1054/2/264 1055/3/264 1056/4/264
v 2.424619 1.105556 -0.797103
v 2.511962 1.156250 -0.992203
v 2.504304 1.178122 -0.989842
v 2.416784 1.127424 -0.795377
vn 0.850963 0.269296 0.450934
f 1057/1/265 1058/2/265 1059/3/265 1060/4/265
v 2.416784 1.127424 -0.795377
v 2.504304 1.178122 -0.989842
v 2.487689 1.194133 -0.993032
v 2.400488 1.143433 -0.799933
vn 0.565278 0.699743 0.436831
f 1061/1/266 1062/2/266 1063/3/266 1064/4/266
v 2.400488 1.143433 -0.799933
v 2.487689 1.194133 -0.993032
v 2.466569 1.199994 -1.000919
v 2.380098 1.149292 -0.809551
vn 0.127226 0.943738 0.305242
f 1065/1/267 1066/2/267 1067/3/267 1068/4/267
v 2.380098 1.149292 -0.809551
v 2.466569 1.199994 -1.000919
v 2.446603 1.194133 -1.011390
v 2.361077 1.143433 -0.821653
vn -0.345729 0.933891 0.091206
f 1069/1/268 1070/2/268 1071/3/268 1072/4/268
v 2.361077 1.143433 -0.821653
v 2.446603 1.194133 -1.011390
v 2.433141 1.178122 -1.021638
v 2.348522 1.127424 -0.832997
vn -0.725049 0.672817 -0.147039
f 1073/1/269 1074/2/269 1075/3/269 1076/4/269
v 2.348522 1.127424 -0.832997
v 2.433141 1.178122 -1.021638
v 2.429791 1.156250 -1.028917
v 2.345797 1.105556 -0.840544
vn -0.909216 0.232473 -0.345375
f 1077/1/270 1078/2/270 1079/3/270 1080/4/270
v 2.345797 1.105556 -0.840544
v 2.429791 1.156250 -1.028917
v 2.437449 1.134378 -1.031278
v 2.353633 1.083687 -0.842270
vn -0.850615 -0.269110 -0.451702
f 1081/1/271 1082/2/271 1083/3/271 1084/4/271
v 2.353633 1.083687 -0.842270
v 2.437449 1.134378 -1.031278
v 2.454064 1.118367 -1.028088
v 2.369929 1.067679 -0.837715
vn -0.564689 -0.699480 -0.438011
f 1085/1/272 1086/2/272 1087/3/272 1088/4/272
v 2.369929 1.067679 -0.837715
v 2.454064 1.118367 -1.028088
v 2.475184 1.112506 -1.020201
v 2.390319 1.061819 -0.828097
vn -0.126285 -0.943303 -0.306973
f 1089/1/273 1090/2/273 1091/3/273 1092/4/273
v 2.390319 1.061819 -0.828097
v 2.475184 1.112506 -1.020201
v 2.495150 1.118367 -1.009731
v 2.409340 1.067679 -0.815994
vn 0.346748 -0.933328 -0.093081
f 1093/1/274 1094/2/274 1095/3/274 1096/4/274
v 2.409340 1.067679 -0.815994
v 2.495150 1.118367 -1.009731
v 2.508611 1.134378 -0.999483
v 2.421895 1.083687 -0.804650
vn 0.725787 -0.672345 0.145556
f 1097/1/275 1098/2/275 1099/3/275 1100/4/275
v 2.421895 1.083687 -0.804650
v 2.508611 1.134378 -0.999483
v 2.511962 1.156250 -0.992203
v 2.424619 1.105556 -0.797103
vn 0.909635 -0.232205 0.344448
f 1101/1/276 1102/2/276 1103/3/276 1104/4/276
v 2.511962 1.156250 -0.992203
v 2.466569 1.199994 -1.000919
v 2.487689 1.194133 -0.993032
v 2.504304 1.178122 -0.989842
vn 0.396544 0.234656 -0.887519
f 1105/1/277 1106/2/277 1107/3/277 1108/4/277
v 2.511962 1.156250 -0.992203
v 2.433141 1.178122 -1.021638
v 2.446603 1.194133 -1.011390
v 2.466569 1.199994 -1.000919
vn 0.396544 0.234656 -0.887519
f 1109/1/278 1110/2/278 1111/3/278 1112/4/278
v 2.511962 1.156250 -0.992203
v 2.437449 1.134378 -1.031278
v 2.429791 1.156250 -1.028917
v 2.433141 1.178122 -1.021638
vn 0.396544 0.234656 -0.887519
f 1113/1/279 1114/2/279 1115/3/279 1116/4/279
v 2.511962 1.156250 -0.992203
v 2.475184 1.112506 -1.020201
v 2.454064 1.118367 -1.028088
v 2.437449 1.134378 -1.031278
vn 0.396544 0.234656 -0.887519
f 1117/1/280 1118/2/280 1119/3/280 1120/4/280
v 2.511962 1.156250 -0.992203
v 2.508611 1.134378 -0.999483
v 2.495150 1.118367 -1.009731
v 2.475184 1.112506 -1.020201
vn 0.396544 0.234656 -0.887519
f 1121/1/281 1122/2/281 1123/3/281 1124/4/281
v 2.500713 1.153841 -0.991972
v 2.517914 1.156250 -1.054527
v 2.513400 1.173247 -1.055217
v 2.496150 1.170829 -0.992559
vn 0.928804 0.258661 0.265364
f 1125/1/282 1126/2/282 1127/3/282 1128/4/282
v 2.496150 1.170829 -0.992559
v 2.513400 1.173247 -1.055217
v 2.501210 1.185690 -1.057735
v 2.484026 1.183264 -0.995409
vn 0.674756 0.706625 0.213039
f 1129/1/283 1130/2/283 1131/3/283 1132/4/283
v 2.484026 1.183264 -0.995409
v 2.501210 1.185690 -1.057735
v 2.484611 1.190244 -1.061404
v 2.467591 1.187816 -0.999759
vn 0.239890 0.965246 0.103698
f 1133/1/284 1134/2/284 1135/3/284 1136/4/284
v 2.467591 1.187816 -0.999759
v 2.484611 1.190244 -1.061404
v 2.468049 1.185690 -1.065243
v 2.451248 1.183264 -1.004443
vn -0.259220 0.965235 -0.033557
f 1137/1/285 1138/2/285 1139/3/285 1140/4/285
v 2.451248 1.183264 -1.004443
v 2.468049 1.185690 -1.065243
v 2.455964 1.173247 -1.068222
v 2.439376 1.170829 -1.008205
vn -0.688780 0.706604 -0.162151
f 1141/1/286 1142/2/286 1143/3/286 1144/4/286
v 2.439376 1.170829 -1.008205
v 2.455964 1.173247 -1.068222
v 2.451593 1.156250 -1.069544
v 2.435157 1.153841 -1.010039
vn -0.933689 0.258651 -0.247636
f 1145/1/287 1146/2/287 1147/3/287 1148/4/287
v 2.435157 1.153841 -1.010039
v 2.451593 1.156250 -1.069544
v 2.456107 1.139253 -1.068853
v 2.439720 1.136853 -1.009452
vn -0.928379 -0.258601 -0.266903
f 1149/1/288 1150/2/288 1151/3/288 1152/4/288
v 2.439720 1.136853 -1.009452
v 2.456107 1.139253 -1.068853
v 2.468297 1.126810 -1.066336
v 2.451843 1.124417 -1.006602
vn -0.674333 -0.706564 -0.214575
f 1153/1/289 1154/2/289 1155/3/289 1156/4/289
v 2.451843 1.124417 -1.006602
v 2.468297 1.126810 -1.066336
v 2.484896 1.122256 -1.062667
v 2.468278 1.119866 -1.002252
vn -0.239622 -0.965207 -0.104672
f 1157/1/290 1158/2/290 1159/3/290 1160/4/290
v 2.468278 1.119866 -1.002252
v 2.484896 1.122256 -1.062667
v 2.501458 1.126810 -1.058828
v 2.484621 1.124417 -0.997568
vn 0.259334 -0.965219 0.033141
f 1161/1/291 1162/2/291 1163/3/291 1164/4/291
v 2.484621 1.124417 -0.997568
v 2.501458 1.126810 -1.058828
v 2.513543 1.139253 -1.055849
v 2.496493 1.136853 -0.993806
vn 0.688896 -0.706587 0.161731
f 1165/1/292 1166/2/292 1167/3/292 1168/4/292
v 2.496493 1.136853 -0.993806
v 2.513543 1.139253 -1.055849
v 2.517914 1.156250 -1.054527
v 2.500713 1.153841 -0.991972
vn 0.933960 -0.258613 0.246655
f 1169/1/293 1170/2/293 1171/3/293 1172/4/293
v 2.517914 1.156250 -1.054527
v 2.529615 1.156250 -1.120237
v 2.525093 1.173250 -1.120786
v 2.513400 1.173247 -1.055217
vn 0.950814 0.259399 0.169305
f 1173/1/294 1174/2/294 1175/3/294 1176/4/294
v 2.513400 1.173247 -1.055217
v 2.525093 1.173250 -1.120786
v 2.512739 1.185695 -1.122287
v 2.501210 1.185690 -1.057735
vn 0.696121 0.707105 0.124171
f 1177/1/295 1178/2/295 1179/3/295 1180/4/295
v 2.501210 1.185690 -1.057735
v 2.512739 1.185695 -1.122287
v 2.495863 1.190250 -1.124338
v 2.484611 1.190244 -1.061404
vn 0.254923 0.965885 0.045607
f 1181/1/296 1182/2/296 1183/3/296 1184/4/296
v 2.484611 1.190244 -1.061404
v 2.495863 1.190250 -1.124338
v 2.478987 1.185695 -1.126389
v 2.468049 1.185690 -1.065243
vn -0.255061 0.965853 -0.045509
f 1185/1/297 1186/2/297 1187/3/297 1188/4/297
v 2.468049 1.185690 -1.065243
v 2.478987 1.185695 -1.126389
v 2.466633 1.173250 -1.127890
v 2.455964 1.173247 -1.068222
vn -0.696674 0.706492 -0.124557
f 1189/1/298 1190/2/298 1191/3/298 1192/4/298
v 2.455964 1.173247 -1.068222
v 2.466633 1.173250 -1.127890
v 2.462111 1.156250 -1.128440
v 2.451593 1.156250 -1.069544
vn -0.951110 0.257825 -0.170049
f 1193/1/299 1194/2/299 1195/3/299 1196/4/299
v 2.451593 1.156250 -1.069544
v 2.462111 1.156250 -1.128440
v 2.466633 1.139250 -1.127890
v 2.456107 1.139253 -1.068853
vn -0.950729 -0.259396 -0.169791
f 1197/1/300 1198/2/300 1199/3/300 1200/4/300
v 2.456107 1.139253 -1.068853
v 2.466633 1.139250 -1.127890
v 2.478987 1.126805 -1.126389
v 2.468297 1.126810 -1.066336
vn -0.696138 -0.707104 -0.124081
f 1201/1/301 1202/2/301 1203/3/301 1204/4/301
v 2.468297 1.126810 -1.066336
v 2.478987 1.126805 -1.126389
v 2.495863 1.122250 -1.124338
v 2.484896 1.122256 -1.062667
vn -0.254989 -0.965882 -0.045305
f 1205/1/302 1206/2/302 1207/3/302 1208/4/302
v 2.484896 1.122256 -1.062667
v 2.495863 1.122250 -1.124338
v 2.512739 1.126805 -1.122287
v 2.501458 1.126810 -1.058828
vn 0.255073 -0.965853 0.045454
f 1209/1/303 1210/2/303 1211/3/303 1212/4/303
v 2.501458 1.126810 -1.058828
v 2.512739 1.126805 -1.122287
v 2.525093 1.139250 -1.120786
v 2.513543 1.139253 -1.055849
vn 0.696807 -0.706471 0.123930
f 1213/1/304 1214/2/304 1215/3/304 1216/4/304
v 2.513543 1.139253 -1.055849
v 2.525093 1.139250 -1.120786
v 2.529615 1.156250 -1.120237
v 2.517914 1.156250 -1.054527
vn 0.951267 -0.257800 0.169205
f 1217/1/305 1218/2/305 1219/3/305 1220/4/305
v 2.529615 1.156250 -1.120237
v 2.533927 1.156250 -1.185278
v 2.529382 1.173250 -1.185575
v 2.525093 1.173250 -1.120786
vn 0.963906 0.258458 0.063914
f 1221/1/306 1222/2/306 1223/3/306 1224/4/306
v 2.525093 1.173250 -1.120786
v 2.529382 1.173250 -1.185575
v 2.516964 1.185695 -1.186389
v 2.512739 1.185695 -1.122287
vn 0.706093 0.706575 0.046745
f 1225/1/307 1226/2/307 1227/3/307 1228/4/307
v 2.512739 1.185695 -1.122287
v 2.516964 1.185695 -1.186389
v 2.500000 1.190250 -1.187500
v 2.495863 1.190250 -1.124338
vn 0.258625 0.965827 0.017046
f 1229/1/308 1230/2/308 1231/3/308 1232/4/308
v 2.495863 1.190250 -1.124338
v 2.500000 1.190250 -1.187500
v 2.483036 1.185695 -1.188611
v 2.478987 1.185695 -1.126389
vn -0.258637 0.965826 -0.016941
f 1233/1/309 1234/2/309 1235/3/309 1236/4/309
v 2.478987 1.185695 -1.126389
v 2.483036 1.185695 -1.188611
v 2.470618 1.173250 -1.189425
v 2.466633 1.173250 -1.127890
vn -0.706166 0.706553 -0.045956
f 1237/1/310 1238/2/310 1239/3/310 1240/4/310
v 2.466633 1.173250 -1.127890
v 2.470618 1.173250 -1.189425
v 2.466073 1.156250 -1.189722
v 2.462111 1.156250 -1.128440
vn -0.964009 0.258437 -0.062431
f 1241/1/311 1242/2/311 1243/3/311 1244/4/311
v 2.462111 1.156250 -1.128440
v 2.466073 1.156250 -1.189722
v 2.470618 1.139250 -1.189425
v 2.466633 1.139250 -1.127890
vn -0.964016 -0.258435 -0.062317
f 1245/1/312 1246/2/312 1247/3/312 1248/4/312
v 2.466633 1.139250 -1.127890
v 2.470618 1.139250 -1.189425
v 2.483036 1.126805 -1.188611
v 2.478987 1.126805 -1.126389
vn -0.706187 -0.706547 -0.045734
f 1249/1/313 1250/2/313 1251/3/313 1252/4/313
v 2.478987 1.126805 -1.126389
v 2.483036 1.126805 -1.188611
v 2.500000 1.122250 -1.187500
v 2.495863 1.122250 -1.124338
vn -0.258650 -0.965824 -0.016833
f 1253/1/314 1254/2/314 1255/3/314 1256/4/314
v 2.495863 1.122250 -1.124338
v 2.500000 1.122250 -1.187500
v 2.516964 1.126805 -1.186389
v 2.512739 1.126805 -1.122287
vn 0.258637 -0.965826 0.016941
f 1257/1/315 1258/2/315 1259/3/315 1260/4/315
v 2.512739 1.126805 -1.122287
v 2.516964 1.126805 -1.186389
v 2.529382 1.139250 -1.185575
v 2.525093 1.139250 -1.120786
vn 0.706112 -0.706569 0.046540
f 1261/1/316 1262/2/316 1263/3/316 1264/4/316
v 2.525093 1.139250 -1.120786
v 2.529382 1.139250 -1.185575
v 2.533927 1.156250 -1.185278
v 2.529615 1.156250 -1.120237
vn 0.963913 -0.258456 0.063813
f 1265/1/317 1266/2/317 1267/3/317 1268/4/317
v 2.533927 1.156250 -1.185278
v 2.500000 1.190250 -1.187500
v 2.516964 1.185695 -1.186389
v 2.529382 1.173250 -1.185575
vn 0.065360 0.000000 -0.997862
f 1269/1/318 1270/2/318 1271/3/318 1272/4/318
v 2.533927 1.156250 -1.185278
v 2.470618 1.173250 -1.189425
v 2.483036 1.185695 -1.188611
v 2.500000 1.190250 -1.187500
vn 0.065360 0.000000 -0.997862
f 1273/1/319 1274/2/319 1275/3/319 1276/4/319
v 2.533927 1.156250 -1.185278
v 2.470618 1.139250 -1.189425
v 2.466073 1.156250 -1.189722
v 2.470618 1.173250 -1.189425
vn 0.065360 0.000000 -0.997862
f 1277/1/320 1278/2/320 1279/3/320 1280/4/320
v 2.533927 1.156250 -1.185278
v 2.500000 1.122250 -1.187500
v 2.483036 1.126805 -1.188611
v 2.470618 1.139250 -1.189425
vn 0.065360 -0.000000 -0.997862
f 1281/1/321 1282/2/321 1283/3/321 1284/4/321
v 2.533927 1.156250 -1.185278
v 2.529382 1.139250 -1.185575
v 2.516964 1.126805 -1.186389
v 2.500000 1.122250 -1.187500
vn 0.065360 -0.000000 -0.997862
f 1285/1/322 1286/2/322 1287/3/322 1288/4/322
v 0.513801 0.125000 0.907133
v 1.256417 0.692273 0.308937
v 1.246181 0.705642 0.308909
v 0.503565 0.138370 0.907104
vn 0.427197 0.328888 0.842221
f 1289/1/323 1290/2/323 1291/3/323 1292/4/323
v 0.503565 0.138370 0.907104
v 1.246181 0.705642 0.308909
v 1.233857 0.711180 0.298860
v 0.491241 0.143907 0.897056
vn -0.127782 0.794006 0.594329
f 1293/1/324 1294/2/324 1295/3/324 1296/4/324
v 0.491241 0.143907 0.897056
v 1.233857 0.711180 0.298860
v 1.226664 0.705642 0.284679
v 0.484047 0.138370 0.882874
vn -0.607908 0.794006 -0.001713
f 1297/1/325 1298/2/325 1299/3/325 1300/4/325
v 0.484047 0.138370 0.882874
v 1.226664 0.705642 0.284679
v 1.228816 0.692273 0.274672
v 0.486199 0.125000 0.872867
vn -0.731929 0.328888 -0.596751
f 1301/1/326 1302/2/326 1303/3/326 1304/4/326
v 0.486199 0.125000 0.872867
v 1.228816 0.692273 0.274672
v 1.239052 0.678903 0.274701
v 0.496435 0.111630 0.872896
vn -0.427197 -0.328888 -0.842221
f 1305/1/327 1306/2/327 1307/3/327 1308/4/327
v 0.496435 0.111630 0.872896
v 1.239052 0.678903 0.274701
v 1.251376 0.673365 0.284749
v 0.508759 0.106093 0.882944
vn 0.127782 -0.794006 -0.594329
f 1309/1/328 1310/2/328 1311/3/328 1312/4/328
v 0.508759 0.106093 0.882944
v 1.251376 0.673365 0.284749
v 1.258569 0.678903 0.298930
v 0.515953 0.111630 0.897126
vn 0.607908 -0.794006 0.001713
f 1313/1/329 1314/2/329 1315/3/329 1316/4/329
v 0.515953 0.111630 0.897126
v 1.258569 0.678903 0.298930
v 1.256417 0.692273 0.308937
v 0.513801 0.125000 0.907133
vn 0.731929 -0.328888 0.596751
f 1317/1/330 1318/2/330 1319/3/330 1320/4/330
v 1.256417 0.692273 0.308937
v 1.226664 0.705642 0.284679
v 1.233857 0.711180 0.298860
v 1.246181 0.705642 0.308909
vn 0.669291 0.511261 -0.539130
f 1321/1/331 1322/2/331 1323/3/331 1324/4/331
v 1.256417 0.692273 0.308937
v 1.239052 0.678903 0.274701
v 1.228816 0.692273 0.274672
v 1.226664 0.705642 0.284679
vn 0.669291 0.511261 -0.539130
f 1325/1/332 1326/2/332 1327/3/332 1328/4/332
v 1.256417 0.692273 0.308937
v 1.258569 0.678903 0.298930
v 1.251376 0.673365 0.284749
v 1.239052 0.678903 0.274701
vn 0.669291 0.511261 -0.539130
f 1329/1/333 1330/2/333 1331/3/333 1332/4/333
usemtl clamp
v 0.468750 0.750000 0.900000
v 0.531250 0.750000 0.900000
v 0.531250 0.812500 0.900000
v 0.468750 0.812500 0.900000
vn 0.000000 0.000000 1.000000
f 1333/1/334 1334/2/334 1335/3/334 1336/4/334
v 0.531250 0.750000 0.812500
v 0.468750 0.750000 0.812500
v 0.468750 0.812500 0.812500
v 0.531250 0.812500 0.812500
vn 0.000000 0.000000 -1.000000
f 1337/1/335 1338/2/335 1339/3/335 1340/4/335
v 0.531250 0.750000 0.900000
v 0.531250 0.750000 0.812500
v 0.531250 0.812500 0.812500
v 0.531250 0.812500 0.900000
vn 1.000000 -0.000000 0.000000
f 1341/1/336 1342/2/336 1343/3/336 1344/4/336
v 0.468750 0.750000 0.812500
v 0.468750 0.750000 0.900000
v 0.468750 0.812500 0.900000
v 0.468750 0.812500 0.812500
vn -1.000000 0.000000 0.000000
f 1345/1/337 1346/2/337 1347/3/337 1348/4/337
v 0.468750 0.812500 0.900000
v 0.531250 0.812500 0.900000
v 0.531250 0.812500 0.812500
v 0.468750 0.812500 0.812500
vn -0.000000 1.000000 0.000000
f 1349/1/338 1350/2/338 1351/3/338 1352/4/338
v 0.468750 0.750000 0.812500
v 0.531250 0.750000 0.812500
v 0.531250 0.750000 0.900000
v 0.468750 0.750000 0.900000
vn 0.000000 -1.000000 0.000000
f 1353/1/339 1354/2/339 1355/3/339 1356/4/339
usemtl porcelain
v 0.437500 0.812500 0.875000
v 0.562500 0.812500 0.875000
v 0.562500 0.937500 0.875000
v 0.437500 0.937500 0.875000
vn 0.000000 0.000000 1.000000
f 1357/1/340 1358/2/340 1359/3/340 1360/4/340
v 0.562500 0.812500 0.750000
v 0.437500 0.812500 0.750000
v 0.437500 0.937500 0.750000
v 0.562500 0.937500 0.750000
vn 0.000000 0.000000 -1.000000
f 1361/1/341 1362/2/341 1363/3/341 1364/4/341
v 0.562500 0.812500 0.875000
v 0.562500 0.812500 0.750000
v 0.562500 0.937500 0.750000
v 0.562500 0.937500 0.875000
vn 1.000000 -0.000000 0.000000
f 1365/1/342 1366/2/342 1367/3/342 1368/4/342
v 0.437500 0.812500 0.750000
v 0.437500 0.812500 0.875000
v 0.437500 0.937500 0.875000
v 0.437500 0.937500 0.750000
vn -1.000000 0.000000 0.000000
f 1369/1/343 1370/2/343 1371/3/343 1372/4/343
v 0.437500 0.937500 0.875000
v 0.562500 0.937500 0.875000
v 0.562500 0.937500 0.750000
v 0.437500 0.937500 0.750000
vn -0.000000 1.000000 0.000000
f 1373/1/344 1374/2/344 1375/3/344 1376/4/344
v 0.437500 0.812500 0.750000
v 0.562500 0.812500 0.750000
v 0.562500 0.812500 0.875000
v 0.437500 0.812500 0.875000
vn 0.000000 -1.000000 0.000000
f 1377/1/345 1378/2/345 1379/3/345 1380/4/345
usemtl cable
v 0.500000 0.874362 0.766988
v 0.601172 0.457589 0.751251
v 0.615290 0.462851 0.743377
v 0.514304 0.878162 0.758625
vn 0.485945 0.085119 0.869835
f 1381/1/346 1382/2/346 1383/3/346 1384/4/346
v 0.514304 0.878162 0.758625
v 0.615290 0.462851 0.743377
v 0.615290 0.465096 0.726526
v 0.514304 0.878800 0.741637
vn 0.971723 0.235956 0.008866
f 1385/1/347 1386/2/347 1387/3/347 1388/4/347
v 0.514304 0.878800 0.741637
v 0.615290 0.465096 0.726526
v 0.601172 0.462081 0.717549
v 0.500000 0.875638 0.733012
vn 0.485965 0.150073 -0.860997
f 1389/1/348 1390/2/348 1391/3/348 1392/4/348
v 0.500000 0.875638 0.733012
v 0.601172 0.462081 0.717549
v 0.587054 0.456819 0.725423
v 0.485696 0.871838 0.741375
vn -0.485660 -0.086286 -0.869879
f 1393/1/349 1394/2/349 1395/3/349 1396/4/349
v 0.485696 0.871838 0.741375
v 0.587054 0.456819 0.725423
v 0.587054 0.454574 0.742274
v 0.485696 0.871200 0.758363
vn -0.971488 -0.236921 -0.008902
f 1397/1/350 1398/2/350 1399/3/350 1400/4/350
v 0.485696 0.871200 0.758363
v 0.587054 0.454574 0.742274
v 0.601172 0.457589 0.751251
v 0.500000 0.874362 0.766988
vn -0.485642 -0.151397 0.860948
f 1401/1/351 1402/2/351 1403/3/351 1404/4/351
v 0.601172 0.457589 0.751251
v 0.711302 0.176914 0.682279
v 0.717463 0.183749 0.667985
v 0.615290 0.462851 0.743377
vn 0.492779 -0.020414 0.869915
f 1405/1/352 1406/2/352 1407/3/352 1408/4/352
v 0.615290 0.462851 0.743377
v 0.717463 0.183749 0.667985
v 0.708059 0.183749 0.653823
v 0.615290 0.465096 0.726526
vn 0.941939 0.332841 0.044360
f 1409/1/353 1410/2/353 1411/3/353 1412/4/353
v 0.615290 0.465096 0.726526
v 0.708059 0.183749 0.653823
v 0.692494 0.176914 0.653955
v 0.601172 0.462081 0.717549
vn 0.445075 0.358776 -0.820480
f 1413/1/354 1414/2/354 1415/3/354 1416/4/354
v 0.601172 0.462081 0.717549
v 0.692494 0.176914 0.653955
v 0.686333 0.170080 0.668250
v 0.587054 0.456819 0.725423
vn -0.496549 0.034404 -0.867327
f 1417/1/355 1418/2/355 1419/3/355 1420/4/355
v 0.587054 0.456819 0.725423
v 0.686333 0.170080 0.668250
v 0.695737 0.170080 0.682412
v 0.587054 0.454574 0.742274
vn -0.946700 -0.319294 -0.042554
f 1421/1/356 1422/2/356 1423/3/356 1424/4/356
v 0.587054 0.454574 0.742274
v 0.695737 0.170080 0.682412
v 0.711302 0.176914 0.682279
v 0.601172 0.457589 0.751251
vn -0.449974 -0.345204 0.823625
f 1425/1/357 1426/2/357 1427/3/357 1428/4/357
v 0.711302 0.176914 0.682279
v 0.811661 -0.014305 0.615194
v 0.812959 -0.001526 0.604058
v 0.717463 0.183749 0.667985
vn 0.832347 0.266316 0.486080
f 1429/1/358 1430/2/358 1431/3/358 1432/4/358
v 0.717463 0.183749 0.667985
v 0.812959 -0.001526 0.604058
v 0.803440 -0.001526 0.589973
v 0.708059 0.183749 0.653823
vn 0.707943 0.527093 -0.470096
f 1433/1/359 1434/2/359 1435/3/359 1436/4/359
v 0.708059 0.183749 0.653823
v 0.803440 -0.001526 0.589973
v 0.792624 -0.014305 0.587023
v 0.692494 0.176914 0.653955
vn -0.124632 0.265321 -0.956071
f 1437/1/360 1438/2/360 1439/3/360 1440/4/360
v 0.692494 0.176914 0.653955
v 0.792624 -0.014305 0.587023
v 0.791327 -0.027084 0.598159
v 0.686333 0.170080 0.668250
vn -0.832563 -0.265866 -0.485958
f 1441/1/361 1442/2/361 1443/3/361 1444/4/361
v 0.686333 0.170080 0.668250
v 0.791327 -0.027084 0.598159
v 0.800845 -0.027084 0.612244
v 0.695737 0.170080 0.682412
vn -0.701577 -0.539217 0.465870
f 1445/1/362 1446/2/362 1447/3/362 1448/4/362
v 0.695737 0.170080 0.682412
v 0.800845 -0.027084 0.612244
v 0.811661 -0.014305 0.615194
v 0.711302 0.176914 0.682279
vn 0.127368 -0.271593 0.953947
f 1449/1/363 1450/2/363 1451/3/363 1452/4/363
v 0.811661 -0.014305 0.615194
v 0.911481 -0.018041 0.547348
v 0.906548 -0.003319 0.540425
v 0.812959 -0.001526 0.604058
vn 0.484792 0.546095 0.683196
f 1453/1/364 1454/2/364 1455/3/364 1456/4/364
v 0.812959 -0.001526 0.604058
v 0.906548 -0.003319 0.540425
v 0.896934 -0.003319 0.526404
v 0.803440 -0.001526 0.589973
vn 0.013128 0.999874 -0.008871
f 1457/1/365 1458/2/365 1459/3/365 1460/4/365
v 0.803440 -0.001526 0.589973
v 0.896934 -0.003319 0.526404
v 0.892252 -0.018041 0.519308
v 0.792624 -0.014305 0.587023
vn -0.461856 0.551278 -0.694825
f 1461/1/366 1462/2/366 1463/3/366 1464/4/366
v 0.792624 -0.014305 0.587023
v 0.892252 -0.018041 0.519308
v 0.897186 -0.032762 0.526232
v 0.791327 -0.027084 0.598159
vn -0.484822 -0.546082 -0.683185
f 1465/1/367 1466/2/367 1467/3/367 1468/4/367
v 0.791327 -0.027084 0.598159
v 0.897186 -0.032762 0.526232
v 0.906800 -0.032762 0.540252
v 0.800845 -0.027084 0.612244
vn -0.036721 -0.999017 0.024815
f 1469/1/368 1470/2/368 1471/3/368 1472/4/368
v 0.800845 -0.027084 0.612244
v 0.906800 -0.032762 0.540252
v 0.911481 -0.018041 0.547348
v 0.811661 -0.014305 0.615194
vn 0.451065 -0.544916 0.706829
f 1473/1/369 1474/2/369 1475/3/369 1476/4/369
v 0.911481 -0.018041 0.547348
v 1.010761 -0.011798 0.478663
v 1.005909 0.002925 0.471684
v 0.906548 -0.003319 0.540425
vn 0.471344 0.499723 0.726713
f 1477/1/370 1478/2/370 1479/3/370 1480/4/370
v 0.906548 -0.003319 0.540425
v 1.005909 0.002925 0.471684
v 0.996175 0.002925 0.457746
v 0.896934 -0.003319 0.526404
vn -0.042562 0.998667 0.029186
f 1481/1/371 1482/2/371 1483/3/371 1484/4/371
v 0.896934 -0.003319 0.526404
v 0.996175 0.002925 0.457746
v 0.991293 -0.011798 0.450788
v 0.892252 -0.018041 0.519308
vn -0.513897 0.499575 -0.697377
f 1485/1/372 1486/2/372 1487/3/372 1488/4/372
v 0.892252 -0.018041 0.519308
v 0.991293 -0.011798 0.450788
v 0.996144 -0.026520 0.457768
v 0.897186 -0.032762 0.526232
vn -0.471292 -0.499722 -0.726748
f 1489/1/373 1490/2/373 1491/3/373 1492/4/373
v 0.897186 -0.032762 0.526232
v 0.996144 -0.026520 0.457768
v 1.005878 -0.026520 0.471705
v 0.906800 -0.032762 0.540252
vn 0.042724 -0.998657 -0.029297
f 1493/1/374 1494/2/374 1495/3/374 1496/4/374
v 0.906800 -0.032762 0.540252
v 1.005878 -0.026520 0.471705
v 1.010761 -0.011798 0.478663
v 0.911481 -0.018041 0.547348
vn 0.513932 -0.499574 0.697352
f 1497/1/375 1498/2/375 1499/3/375 1500/4/375
v 1.010761 -0.011798 0.478663
v 1.109435 -0.018350 0.409095
v 1.106193 -0.003774 0.400969
v 1.005909 0.002925 0.471684
vn 0.521029 0.499731 0.691952
f 1501/1/376 1502/2/376 1503/3/376 1504/4/376
v 1.005909 0.002925 0.471684
v 1.106193 -0.003774 0.400969
v 1.096332 -0.003774 0.387121
v 0.996175 0.002925 0.457746
vn 0.044692 0.998513 -0.031214
f 1505/1/377 1506/2/377 1507/3/377 1508/4/377
v 0.996175 0.002925 0.457746
v 1.096332 -0.003774 0.387121
v 1.089713 -0.018350 0.381399
v 0.991293 -0.011798 0.450788
vn -0.476549 0.499841 -0.723229
f 1509/1/378 1510/2/378 1511/3/378 1512/4/378
v 0.991293 -0.011798 0.450788
v 1.089713 -0.018350 0.381399
v 1.092956 -0.032926 0.389525
v 0.996144 -0.026520 0.457768
vn -0.521085 -0.499730 -0.691910
f 1513/1/379 1514/2/379 1515/3/379 1516/4/379
v 0.996144 -0.026520 0.457768
v 1.092956 -0.032926 0.389525
v 1.102817 -0.032926 0.403373
v 1.005878 -0.026520 0.471705
vn -0.044276 -0.998541 0.030923
f 1517/1/380 1518/2/380 1519/3/380 1520/4/380
v 1.005878 -0.026520 0.471705
v 1.102817 -0.032926 0.403373
v 1.109435 -0.018350 0.409095
v 1.010761 -0.011798 0.478663
vn 0.476702 -0.499843 0.723127
f 1521/1/381 1522/2/381 1523/3/381 1524/4/381
v 1.109435 -0.018350 0.409095
v 1.207455 -0.046343 0.338582
v 1.204257 -0.031790 0.330398
v 1.106193 -0.003774 0.400969
vn 0.597285 0.487790 0.636640
f 1525/1/382 1526/2/382 1527/3/382 1528/4/382
v 1.106193 -0.003774 0.400969
v 1.204257 -0.031790 0.330398
v 1.194258 -0.031790 0.316649
v 1.096332 -0.003774 0.387121
vn 0.184007 0.974152 -0.131029
f 1529/1/383 1530/2/383 1531/3/383 1532/4/383
v 1.096332 -0.003774 0.387121
v 1.194258 -0.031790 0.316649
v 1.187457 -0.046343 0.311085
v 1.089713 -0.018350 0.381399
vn -0.412956 0.489105 -0.768273
f 1533/1/384 1534/2/384 1535/3/384 1536/4/384
v 1.089713 -0.018350 0.381399
v 1.187457 -0.046343 0.311085
v 1.190656 -0.060896 0.319269
v 1.092956 -0.032926 0.389525
vn -0.597528 -0.487739 -0.636452
f 1537/1/385 1538/2/385 1539/3/385 1540/4/385
v 1.092956 -0.032926 0.389525
v 1.190656 -0.060896 0.319269
v 1.200654 -0.060896 0.333018
v 1.102817 -0.032926 0.403373
vn -0.184417 -0.974036 0.131320
f 1541/1/386 1542/2/386 1543/3/386 1544/4/386
v 1.102817 -0.032926 0.403373
v 1.200654 -0.060896 0.333018
v 1.207455 -0.046343 0.338582
v 1.109435 -0.018350 0.409095
vn 0.412751 -0.489066 0.768409
f 1545/1/387 1546/2/387 1547/3/387 1548/4/387
v 1.207455 -0.046343 0.338582
v 1.304767 -0.055476 0.267055
v 1.300158 -0.040765 0.259890
v 1.204257 -0.031790 0.330398
vn 0.543140 0.499085 0.675214
f 1549/1/388 1550/2/388 1551/3/388 1552/4/388
v 1.204257 -0.031790 0.330398
v 1.300158 -0.040765 0.259890
v 1.290003 -0.040765 0.246256
v 1.194258 -0.031790 0.316649
vn 0.060811 0.997169 -0.044225
f 1553/1/389 1554/2/389 1555/3/389 1556/4/389
v 1.194258 -0.031790 0.316649
v 1.290003 -0.040765 0.246256
v 1.284458 -0.055476 0.239788
v 1.187457 -0.046343 0.311085
vn -0.481969 0.500263 -0.719335
f 1557/1/390 1558/2/390 1559/3/390 1560/4/390
v 1.187457 -0.046343 0.311085
v 1.284458 -0.055476 0.239788
v 1.289067 -0.070187 0.246953
v 1.190656 -0.060896 0.319269
vn -0.543238 -0.499069 -0.675147
f 1561/1/391 1562/2/391 1563/3/391 1564/4/391
v 1.190656 -0.060896 0.319269
v 1.289067 -0.070187 0.246953
v 1.299222 -0.070187 0.260587
v 1.200654 -0.060896 0.333018
vn -0.061352 -0.997118 0.044619
f 1565/1/392 1566/2/392 1567/3/392 1568/4/392
v 1.200654 -0.060896 0.333018
v 1.299222 -0.070187 0.260587
v 1.304767 -0.055476 0.267055
v 1.207455 -0.046343 0.338582
vn 0.481634 -0.500207 0.719598
f 1569/1/393 1570/2/393 1571/3/393 1572/4/393
v 1.304767 -0.055476 0.267055
v 1.401184 -0.055915 0.194290
v 1.395650 -0.041200 0.187820
v 1.300158 -0.040765 0.259890
vn 0.523120 0.500064 0.690131
f 1573/1/394 1574/2/394 1575/3/394 1576/4/394
v 1.300158 -0.040765 0.259890
v 1.395650 -0.041200 0.187820
v 1.385323 -0.041200 0.174317
v 1.290003 -0.040765 0.246256
vn 0.002914 0.999993 -0.002170
f 1577/1/395 1578/2/395 1579/3/395 1580/4/395
v 1.290003 -0.040765 0.246256
v 1.385323 -0.041200 0.174317
v 1.380530 -0.055915 0.167282
v 1.284458 -0.055476 0.239788
vn -0.520104 0.500400 -0.692165
f 1581/1/396 1582/2/396 1583/3/396 1584/4/396
v 1.284458 -0.055476 0.239788
v 1.380530 -0.055915 0.167282
v 1.386063 -0.070630 0.173751
v 1.289067 -0.070187 0.246953
vn -0.523126 -0.500064 -0.690127
f 1585/1/397 1586/2/397 1587/3/397 1588/4/397
v 1.289067 -0.070187 0.246953
v 1.386063 -0.070630 0.173751
v 1.396390 -0.070630 0.187255
v 1.299222 -0.070187 0.260587
vn -0.002924 -0.999993 0.002178
f 1589/1/398 1590/2/398 1591/3/398 1592/4/398
v 1.299222 -0.070187 0.260587
v 1.396390 -0.070630 0.187255
v 1.401184 -0.055915 0.194290
v 1.304767 -0.055476 0.267055
vn 0.520096 -0.500399 0.692171
f 1593/1/399 1594/2/399 1595/3/399 1596/4/399
v 1.401184 -0.055915 0.194290
v 1.496671 -0.047835 0.120300
v 1.490247 -0.033189 0.114537
v 1.395650 -0.041200 0.187820
vn 0.503886 0.499331 0.704817
f 1597/1/400 1598/2/400 1599/3/400 1600/4/400
v 1.395650 -0.041200 0.187820
v 1.490247 -0.033189 0.114537
v 1.479745 -0.033189 0.101169
v 1.385323 -0.041200 0.174317
vn -0.053064 0.997766 0.040579
f 1601/1/401 1602/2/401 1603/3/401 1604/4/401
v 1.385323 -0.041200 0.174317
v 1.479745 -0.033189 0.101169
v 1.475667 -0.047835 0.093563
v 1.380530 -0.055915 0.167282
vn -0.556821 0.498887 -0.664126
f 1605/1/402 1606/2/402 1607/3/402 1608/4/402
v 1.380530 -0.055915 0.167282
v 1.475667 -0.047835 0.093563
v 1.482091 -0.062482 0.099326
v 1.386063 -0.070630 0.173751
vn -0.503788 -0.499327 -0.704891
f 1609/1/403 1610/2/403 1611/3/403 1612/4/403
v 1.386063 -0.070630 0.173751
v 1.482091 -0.062482 0.099326
v 1.492592 -0.062482 0.112695
v 1.396390 -0.070630 0.187255
vn 0.053156 -0.997759 -0.040650
f 1613/1/404 1614/2/404 1615/3/404 1616/4/404
v 1.396390 -0.070630 0.187255
v 1.492592 -0.062482 0.112695
v 1.496671 -0.047835 0.120300
v 1.401184 -0.055915 0.194290
vn 0.556915 -0.498881 0.664051
f 1617/1/405 1618/2/405 1619/3/405 1620/4/405
v 1.496671 -0.047835 0.120300
v 1.591190 -0.031336 0.045021
v 1.583907 -0.016825 0.039983
v 1.490247 -0.033189 0.114537
vn 0.486218 0.496243 0.719260
f 1621/1/406 1622/2/406 1623/3/406 1624/4/406
v 1.490247 -0.033189 0.114537
v 1.583907 -0.016825 0.039983
v 1.573204 -0.016825 0.026774
v 1.479745 -0.033189 0.101169
vn -0.106508 0.990786 0.083667
f 1625/1/407 1626/2/407 1627/3/407 1628/4/407
v 1.479745 -0.033189 0.101169
v 1.573204 -0.016825 0.026774
v 1.569785 -0.031336 0.018605
v 1.475667 -0.047835 0.093563
vn -0.592546 0.494983 -0.635517
f 1629/1/408 1630/2/408 1631/3/408 1632/4/408
v 1.475667 -0.047835 0.093563
v 1.569785 -0.031336 0.018605
v 1.577068 -0.045847 0.023644
v 1.482091 -0.062482 0.099326
vn -0.485990 -0.496212 -0.719436
f 1633/1/409 1634/2/409 1635/3/409 1636/4/409
v 1.482091 -0.062482 0.099326
v 1.577068 -0.045847 0.023644
v 1.587771 -0.045847 0.036852
v 1.492592 -0.062482 0.112695
vn 0.106726 -0.990748 -0.083839
f 1637/1/410 1638/2/410 1639/3/410 1640/4/410
v 1.492592 -0.062482 0.112695
v 1.587771 -0.045847 0.036852
v 1.591190 -0.031336 0.045021
v 1.496671 -0.047835 0.120300
vn 0.592773 -0.494949 0.635331
f 1641/1/411 1642/2/411 1643/3/411 1644/4/411
v 1.591190 -0.031336 0.045021
v 1.684448 -0.006465 -0.031867
v 1.676346 0.007849 -0.036165
v 1.583907 -0.016825 0.039983
vn 0.472376 0.491208 0.731831
f 1645/1/412 1646/2/412 1647/3/412 1648/4/412
v 1.583907 -0.016825 0.039983
v 1.676346 0.007849 -0.036165
v 1.665419 0.007849 -0.049187
v 1.573204 -0.016825 0.026774
vn -0.156779 0.979430 0.127034
f 1649/1/413 1650/2/413 1651/3/413 1652/4/413
v 1.573204 -0.016825 0.026774
v 1.665419 0.007849 -0.049187
v 1.662594 -0.006465 -0.057913
v 1.569785 -0.031336 0.018605
vn -0.628900 0.488651 -0.604736
f 1653/1/414 1654/2/414 1655/3/414 1656/4/414
v 1.569785 -0.031336 0.018605
v 1.662594 -0.006465 -0.057913
v 1.670696 -0.020779 -0.053616
v 1.577068 -0.045847 0.023644
vn -0.472006 -0.491124 -0.732125
f 1657/1/415 1658/2/415 1659/3/415 1660/4/415
v 1.577068 -0.045847 0.023644
v 1.670696 -0.020779 -0.053616
v 1.681623 -0.020779 -0.040593
v 1.587771 -0.045847 0.036852
vn 0.157138 -0.979334 -0.127325
f 1661/1/416 1662/2/416 1663/3/416 1664/4/416
v 1.587771 -0.045847 0.036852
v 1.681623 -0.020779 -0.040593
v 1.684448 -0.006465 -0.031867
v 1.591190 -0.031336 0.045021
vn 0.629256 -0.488565 0.604434
f 1665/1/417 1666/2/417 1667/3/417 1668/4/417
v 1.684448 -0.006465 -0.031867
v 1.776378 0.026761 -0.110387
v 1.767506 0.040823 -0.113929
v 1.676346 0.007849 -0.036165
vn 0.460541 0.484067 0.744030
f 1669/1/418 1670/2/418 1671/3/418 1672/4/418
v 1.676346 0.007849 -0.036165
v 1.767506 0.040823 -0.113929
v 1.756334 0.040823 -0.126743
v 1.665419 0.007849 -0.049187
vn -0.203264 0.964155 0.170553
f 1673/1/419 1674/2/419 1675/3/419 1676/4/419
v 1.665419 0.007849 -0.049187
v 1.756334 0.040823 -0.126743
v 1.754034 0.026761 -0.136014
v 1.662594 -0.006465 -0.057913
vn -0.663487 0.480528 -0.573479
f 1677/1/420 1678/2/420 1679/3/420 1680/4/420
v 1.662594 -0.006465 -0.057913
v 1.754034 0.026761 -0.136014
v 1.762905 0.012698 -0.132471
v 1.670696 -0.020779 -0.053616
vn -0.460024 -0.483902 -0.744457
f 1681/1/421 1682/2/421 1683/3/421 1684/4/421
v 1.670696 -0.020779 -0.053616
v 1.762905 0.012698 -0.132471
v 1.774077 0.012698 -0.119658
v 1.681623 -0.020779 -0.040593
vn 0.203766 -0.963975 -0.170974
f 1685/1/422 1686/2/422 1687/3/422 1688/4/422
v 1.681623 -0.020779 -0.040593
v 1.774077 0.012698 -0.119658
v 1.776378 0.026761 -0.110387
v 1.684448 -0.006465 -0.031867
vn 0.663991 -0.480358 0.573038
f 1689/1/423 1690/2/423 1691/3/423 1692/4/423
v 1.776378 0.026761 -0.110387
v 1.866705 0.068357 -0.190810
v 1.857119 0.082122 -0.193577
v 1.767506 0.040823 -0.113929
vn 0.452617 0.475546 0.754317
f 1693/1/424 1694/2/424 1695/3/424 1696/4/424
v 1.767506 0.040823 -0.113929
v 1.857119 0.082122 -0.193577
v 1.845673 0.082122 -0.206146
v 1.756334 0.040823 -0.126743
vn -0.245488 0.945475 0.214041
f 1697/1/425 1698/2/425 1699/3/425 1700/4/425
v 1.756334 0.040823 -0.126743
v 1.845673 0.082122 -0.206146
v 1.843812 0.068357 -0.215948
v 1.754034 0.026761 -0.136014
vn -0.697693 0.470385 -0.540335
f 1701/1/426 1702/2/426 1703/3/426 1704/4/426
v 1.754034 0.026761 -0.136014
v 1.843812 0.068357 -0.215948
v 1.853398 0.054593 -0.213181
v 1.762905 0.012698 -0.132471
vn -0.451932 -0.475262 -0.754906
f 1705/1/427 1706/2/427 1707/3/427 1708/4/427
v 1.762905 0.012698 -0.132471
v 1.853398 0.054593 -0.213181
v 1.864844 0.054593 -0.200612
v 1.774077 0.012698 -0.119658
vn 0.246156 -0.945169 -0.214623
f 1709/1/428 1710/2/428 1711/3/428 1712/4/428
v 1.774077 0.012698 -0.119658
v 1.864844 0.054593 -0.200612
v 1.866705 0.068357 -0.190810
v 1.776378 0.026761 -0.110387
vn 0.698356 -0.470095 0.539731
f 1713/1/429 1714/2/429 1715/3/429 1716/4/429
v 1.866705 0.068357 -0.190810
v 1.955233 0.118374 -0.273308
v 1.944992 0.131801 -0.275266
v 1.857119 0.082122 -0.193577
vn 0.448168 0.465532 0.763168
f 1717/1/430 1718/2/430 1719/3/430 1720/4/430
v 1.857119 0.082122 -0.193577
v 1.944992 0.131801 -0.275266
v 1.933229 0.131801 -0.287539
v 1.845673 0.082122 -0.206146
vn -0.282871 0.923919 0.257599
f 1721/1/431 1722/2/431 1723/3/431 1724/4/431
v 1.845673 0.082122 -0.206146
v 1.933229 0.131801 -0.287539
v 1.931706 0.118374 -0.297853
v 1.843812 0.068357 -0.215948
vn -0.730512 0.458895 -0.505734
f 1725/1/432 1726/2/432 1727/3/432 1728/4/432
v 1.843812 0.068357 -0.215948
v 1.931706 0.118374 -0.297853
v 1.941947 0.104947 -0.295896
v 1.853398 0.054593 -0.213181
vn -0.447271 -0.465070 -0.763976
f 1729/1/433 1730/2/433 1731/3/433 1732/4/433
v 1.853398 0.054593 -0.213181
v 1.941947 0.104947 -0.295896
v 1.953711 0.104947 -0.283623
v 1.864844 0.054593 -0.200612
vn 0.283745 -0.923429 -0.258395
f 1733/1/434 1734/2/434 1735/3/434 1736/4/434
v 1.864844 0.054593 -0.200612
v 1.953711 0.104947 -0.283623
v 1.955233 0.118374 -0.273308
v 1.866705 0.068357 -0.190810
vn 0.731386 -0.458420 0.504902
f 1737/1/435 1738/2/435 1739/3/435 1740/4/435
v 1.955233 0.118374 -0.273308
v 2.041422 0.176909 -0.358349
v 2.030591 0.189966 -0.359455
v 1.944992 0.131801 -0.275266
vn 0.449522 0.454945 0.768736
f 1741/1/436 1742/2/436 1743/3/436 1744/4/436
v 1.944992 0.131801 -0.275266
v 2.030591 0.189966 -0.359455
v 2.018466 0.189966 -0.371370
v 1.933229 0.131801 -0.287539
vn -0.314764 0.899940 0.301714
f 1745/1/437 1746/2/437 1747/3/437 1748/4/437
v 1.933229 0.131801 -0.287539
v 2.018466 0.189966 -0.371370
v 2.017172 0.176909 -0.382180
v 1.931706 0.118374 -0.297853
vn -0.763621 0.445564 -0.467285
f 1749/1/438 1750/2/438 1751/3/438 1752/4/438
v 1.931706 0.118374 -0.297853
v 2.017172 0.176909 -0.382180
v 2.028003 0.163853 -0.381075
v 1.941947 0.104947 -0.295896
vn -0.448415 -0.454255 -0.769790
f 1753/1/439 1754/2/439 1755/3/439 1756/4/439
v 1.941947 0.104947 -0.295896
v 2.028003 0.163853 -0.381075
v 2.040128 0.163853 -0.369160
v 1.953711 0.104947 -0.283623
vn 0.315849 -0.899211 -0.302753
f 1757/1/440 1758/2/440 1759/3/440 1760/4/440
v 1.953711 0.104947 -0.283623
v 2.040128 0.163853 -0.369160
v 2.041422 0.176909 -0.358349
v 1.955233 0.118374 -0.273308
vn 0.764690 -0.444858 0.466208
f 1761/1/441 1762/2/441 1763/3/441 1764/4/441
v 2.041422 0.176909 -0.358349
v 2.124959 0.244139 -0.446106
v 2.113610 0.256794 -0.446303
v 2.030591 0.189966 -0.359455
vn 0.455064 0.442907 0.772496
f 1765/1/442 1766/2/442 1767/3/442 1768/4/442
v 2.030591 0.189966 -0.359455
v 2.113610 0.256794 -0.446303
v 2.101078 0.256794 -0.457790
v 2.018466 0.189966 -0.371370
vn -0.340735 0.873885 0.346733
f 1769/1/443 1770/2/443 1771/3/443 1772/4/443
v 2.018466 0.189966 -0.371370
v 2.101078 0.256794 -0.457790
v 2.099896 0.244139 -0.469080
v 2.017172 0.176909 -0.382180
vn -0.795011 0.431662 -0.426175
f 1773/1/444 1774/2/444 1775/3/444 1776/4/444
v 2.017172 0.176909 -0.382180
v 2.099896 0.244139 -0.469080
v 2.111245 0.231484 -0.468882
v 2.028003 0.163853 -0.381075
vn -0.453743 -0.441923 -0.773835
f 1777/1/445 1778/2/445 1779/3/445 1780/4/445
v 2.028003 0.163853 -0.381075
v 2.111245 0.231484 -0.468882
v 2.123777 0.231484 -0.457395
v 2.040128 0.163853 -0.369160
vn 0.342028 -0.872857 -0.348049
f 1781/1/446 1782/2/446 1783/3/446 1784/4/446
v 2.040128 0.163853 -0.369160
v 2.123777 0.231484 -0.457395
v 2.124959 0.244139 -0.446106
v 2.041422 0.176909 -0.358349
vn 0.796289 -0.430655 0.424806
f 1785/1/447 1786/2/447 1787/3/447 1788/4/447
v 2.124959 0.244139 -0.446106
v 2.205158 0.320369 -0.537099
v 2.193372 0.332593 -0.536289
v 2.113610 0.256794 -0.446303
vn 0.466855 0.430749 0.772335
f 1789/1/448 1790/2/448 1791/3/448 1792/4/448
v 2.113610 0.256794 -0.446303
v 2.193372 0.332593 -0.536289
v 2.180360 0.332593 -0.547230
v 2.101078 0.256794 -0.457790
vn -0.360359 0.845923 0.393137
f 1793/1/449 1794/2/449 1795/3/449 1796/4/449
v 2.101078 0.256794 -0.457790
v 2.180360 0.332593 -0.547230
v 2.179136 0.320369 -0.558981
v 2.099896 0.244139 -0.469080
vn -0.826230 0.416031 -0.379818
f 1797/1/450 1798/2/450 1799/3/450 1800/4/450
v 2.099896 0.244139 -0.469080
v 2.179136 0.320369 -0.558981
v 2.190923 0.308145 -0.559791
v 2.111245 0.231484 -0.468882
vn -0.465237 -0.429326 -0.774102
f 1801/1/451 1802/2/451 1803/3/451 1804/4/451
v 2.111245 0.231484 -0.468882
v 2.190923 0.308145 -0.559791
v 2.203934 0.308145 -0.548849
v 2.123777 0.231484 -0.457395
vn 0.361944 -0.844439 -0.394867
f 1805/1/452 1806/2/452 1807/3/452 1808/4/452
v 2.123777 0.231484 -0.457395
v 2.203934 0.308145 -0.548849
v 2.205158 0.320369 -0.537099
v 2.124959 0.244139 -0.446106
vn 0.827788 -0.414571 0.378018
f 1809/1/453 1810/2/453 1811/3/453 1812/4/453
v 2.205158 0.320369 -0.537099
v 2.281064 0.406130 -0.631919
v 2.268940 0.417884 -0.629959
v 2.193372 0.332593 -0.536289
vn 0.486241 0.418033 0.767345
f 1813/1/454 1814/2/454 1815/3/454 1816/4/454
v 2.193372 0.332593 -0.536289
v 2.268940 0.417884 -0.629959
v 2.255367 0.417884 -0.640195
v 2.180360 0.332593 -0.547230
vn -0.372186 0.815834 0.442599
f 1817/1/455 1818/2/455 1819/3/455 1820/4/455
v 2.180360 0.332593 -0.547230
v 2.255367 0.417884 -0.640195
v 2.253919 0.406130 -0.652392
v 2.179136 0.320369 -0.558981
vn -0.857220 0.398914 -0.325642
f 1821/1/456 1822/2/456 1823/3/456 1824/4/456
v 2.179136 0.320369 -0.558981
v 2.253919 0.406130 -0.652392
v 2.266044 0.394376 -0.654352
v 2.190923 0.308145 -0.559791
vn -0.484302 -0.416010 -0.769667
f 1825/1/457 1826/2/457 1827/3/457 1828/4/457
v 2.190923 0.308145 -0.559791
v 2.266044 0.394376 -0.654352
v 2.279617 0.394376 -0.644115
v 2.203934 0.308145 -0.548849
vn 0.374089 -0.813729 -0.444862
f 1829/1/458 1830/2/458 1831/3/458 1832/4/458
v 2.203934 0.308145 -0.548849
v 2.279617 0.394376 -0.644115
v 2.281064 0.406130 -0.631919
v 2.205158 0.320369 -0.537099
vn 0.859076 -0.396833 0.323284
f 1833/1/459 1834/2/459 1835/3/459 1836/4/459
v 2.281064 0.406130 -0.631919
v 2.351372 0.502370 -0.731227
v 2.339042 0.513596 -0.727915
v 2.268940 0.417884 -0.629959
vn 0.514366 0.404516 0.756171
f 1837/1/460 1838/2/460 1839/3/460 1840/4/460
v 2.268940 0.417884 -0.629959
v 2.339042 0.513596 -0.727915
v 2.324820 0.513596 -0.737229
v 2.255367 0.417884 -0.640195
vn -0.374674 0.782841 0.496769
f 1841/1/461 1842/2/461 1843/3/461 1844/4/461
v 2.255367 0.417884 -0.640195
v 2.324820 0.513596 -0.737229
v 2.322929 0.502370 -0.749855
v 2.253919 0.406130 -0.652392
vn -0.887581 0.379808 -0.260664
f 1845/1/462 1846/2/462 1847/3/462 1848/4/462
v 2.253919 0.406130 -0.652392
v 2.322929 0.502370 -0.749855
v 2.335258 0.491145 -0.753167
v 2.266044 0.394376 -0.654352
vn -0.512099 -0.401668 -0.759222
f 1849/1/463 1850/2/463 1851/3/463 1852/4/463
v 2.266044 0.394376 -0.654352
v 2.335258 0.491145 -0.753167
v 2.349480 0.491145 -0.743853
v 2.279617 0.394376 -0.644115
vn 0.376906 -0.779881 -0.499728
f 1853/1/464 1854/2/464 1855/3/464 1856/4/464
v 2.279617 0.394376 -0.644115
v 2.349480 0.491145 -0.743853
v 2.351372 0.502370 -0.731227
v 2.281064 0.406130 -0.631919
vn 0.889732 -0.376870 0.257578
f 1857/1/465 1858/2/465 1859/3/465 1860/4/465
v 2.351372 0.502370 -0.731227
v 2.414286 0.610878 -0.835799
v 2.401965 0.621467 -0.830792
v 2.339042 0.513596 -0.727915
vn 0.552621 0.389615 0.736756
f 1861/1/466 1862/2/466 1863/3/466 1864/4/466
v 2.339042 0.513596 -0.727915
v 2.401965 0.621467 -0.830792
v 2.386977 0.621467 -0.838815
v 2.324820 0.513596 -0.737229
vn -0.365363 0.745173 0.557877
f 1865/1/467 1866/2/467 1867/3/467 1868/4/467
v 2.324820 0.513596 -0.737229
v 2.386977 0.621467 -0.838815
v 2.384310 0.610878 -0.851844
v 2.322929 0.502370 -0.749855
vn -0.916178 0.357699 -0.180748
f 1869/1/468 1870/2/468 1871/3/468 1872/4/468
v 2.322929 0.502370 -0.749855
v 2.384310 0.610878 -0.851844
v 2.396631 0.600289 -0.856850
v 2.335258 0.491145 -0.753167
vn -0.549915 -0.385393 -0.740990
f 1873/1/469 1874/2/469 1875/3/469 1876/4/469
v 2.335258 0.491145 -0.753167
v 2.396631 0.600289 -0.856850
v 2.411619 0.600289 -0.848828
v 2.349480 0.491145 -0.743853
vn 0.368032 -0.740785 -0.561952
f 1877/1/470 1878/2/470 1879/3/470 1880/4/470
v 2.349480 0.491145 -0.743853
v 2.411619 0.600289 -0.848828
v 2.414286 0.610878 -0.835799
v 2.351372 0.502370 -0.731227
vn 0.918708 -0.353317 0.176473
f 1881/1/471 1882/2/471 1883/3/471 1884/4/471
v 2.414286 0.610878 -0.835799
v 2.466219 0.735422 -0.946800
v 2.454372 0.745404 -0.939799
v 2.401965 0.621467 -0.830792
vn 0.606163 0.373205 0.702342
f 1885/1/472 1886/2/472 1887/3/472 1888/4/472
v 2.401965 0.621467 -0.830792
v 2.454372 0.745404 -0.939799
v 2.438531 0.745404 -0.945967
v 2.386977 0.621467 -0.838815
vn -0.337879 0.698095 0.631269
f 1889/1/473 1890/2/473 1891/3/473 1892/4/473
v 2.386977 0.621467 -0.838815
v 2.438531 0.745404 -0.945967
v 2.434536 0.735422 -0.959135
v 2.384310 0.610878 -0.851844
vn -0.941799 0.327986 -0.073758
f 1893/1/474 1894/2/474 1895/3/474 1896/4/474
v 2.384310 0.610878 -0.851844
v 2.434536 0.735422 -0.959135
v 2.446383 0.725441 -0.966136
v 2.396631 0.600289 -0.856850
vn -0.603141 -0.366898 -0.708242
f 1897/1/475 1898/2/475 1899/3/475 1900/4/475
v 2.396631 0.600289 -0.856850
v 2.446383 0.725441 -0.966136
v 2.462225 0.725441 -0.959969
v 2.411619 0.600289 -0.848828
vn 0.340848 -0.691583 -0.636817
f 1901/1/476 1902/2/476 1903/3/476 1904/4/476
v 2.411619 0.600289 -0.848828
v 2.462225 0.725441 -0.959969
v 2.466219 0.735422 -0.946800
v 2.414286 0.610878 -0.835799
vn 0.944455 -0.321535 0.067971
f 1905/1/477 1906/2/477 1907/3/477 1908/4/477
v 2.466219 0.735422 -0.946800
v 2.502701 0.871785 -1.064150
v 2.491677 0.880008 -1.054157
v 2.454372 0.745404 -0.939799
vn 0.681680 0.363875 0.634750
f 1909/1/478 1910/2/478 1911/3/478 1912/4/478
v 2.454372 0.745404 -0.939799
v 2.491677 0.880008 -1.054157
v 2.475111 0.880008 -1.057972
v 2.438531 0.745404 -0.945967
vn -0.270705 0.665763 0.695326
f 1913/1/479 1914/2/479 1915/3/479 1916/4/479
v 2.438531 0.745404 -0.945967
v 2.475111 0.880008 -1.057972
v 2.469568 0.871785 -1.071780
v 2.434536 0.735422 -0.959135
vn -0.950492 0.305525 0.056746
f 1917/1/480 1918/2/480 1919/3/480 1920/4/480
v 2.434536 0.735422 -0.959135
v 2.469568 0.871785 -1.071780
v 2.480592 0.863562 -1.081773
v 2.446383 0.725441 -0.966136
vn -0.679165 -0.355827 -0.641967
f 1921/1/481 1922/2/481 1923/3/481 1924/4/481
v 2.446383 0.725441 -0.966136
v 2.480592 0.863562 -1.081773
v 2.497158 0.863562 -1.077958
v 2.462225 0.725441 -0.959969
vn 0.273706 -0.656376 -0.703033
f 1925/1/482 1926/2/482 1927/3/482 1928/4/482
v 2.462225 0.725441 -0.959969
v 2.497158 0.863562 -1.077958
v 2.502701 0.871785 -1.064150
v 2.466219 0.735422 -0.946800
vn 0.952947 -0.296180 -0.064575
f 1929/1/483 1930/2/483 1931/3/483 1932/4/483
v 2.502701 0.871785 -1.064150
v 2.516887 1.111250 -1.185541
v 2.506928 1.117861 -1.173453
v 2.491677 0.880008 -1.054157
vn 0.748446 0.264057 0.608361
f 1933/1/484 1934/2/484 1935/3/484 1936/4/484
v 2.491677 0.880008 -1.054157
v 2.506928 1.117861 -1.173453
v 2.490041 1.117861 -1.175412
v 2.475111 0.880008 -1.057972
vn -0.200469 0.449466 0.870513
f 1937/1/485 1938/2/485 1939/3/485 1940/4/485
v 2.475111 0.880008 -1.057972
v 2.490041 1.117861 -1.175412
v 2.483113 1.111250 -1.189459
v 2.469568 0.871785 -1.071780
vn -0.944994 0.190575 0.265835
f 1941/1/486 1942/2/486 1943/3/486 1944/4/486
v 2.469568 0.871785 -1.071780
v 2.483113 1.111250 -1.189459
v 2.493072 1.104639 -1.201547
v 2.480592 0.863562 -1.081773
vn -0.747493 -0.258438 -0.611934
f 1945/1/487 1946/2/487 1947/3/487 1948/4/487
v 2.480592 0.863562 -1.081773
v 2.493072 1.104639 -1.201547
v 2.509959 1.104639 -1.199588
v 2.497158 0.863562 -1.077958
vn 0.201062 -0.444181 -0.873085
f 1949/1/488 1950/2/488 1951/3/488 1952/4/488
v 2.497158 0.863562 -1.077958
v 2.509959 1.104639 -1.199588
v 2.516887 1.111250 -1.185541
v 2.502701 0.871785 -1.064150
vn 0.945126 -0.185775 -0.268747
f 1953/1/489 1954/2/489 1955/3/489 1956/4/489
v 2.516887 1.111250 -1.185541
v 2.483113 1.111250 -1.189459
v 2.490041 1.117861 -1.175412
v 2.506928 1.117861 -1.173453
vn 0.051737 0.893524 -0.446026
f 1957/1/490 1958/2/490 1959/3/490 1960/4/490
v 2.516887 1.111250 -1.185541
v 2.509959 1.104639 -1.199588
v 2.493072 1.104639 -1.201547
v 2.483113 1.111250 -1.189459
vn 0.051737 0.893524 -0.446026
f 1961/1/491 1962/2/491 1963/3/491 1964/4/491
