# Generated by scripts/gen_pole_light_mounts.py
mtllib pole_light_mount.mtl
o pole_light_mount_8_right_wired
vt 0 0
vt 1 0
vt 1 1
vt 0 1
usemtl clamp
v 0.312500 0.062500 1.000000
v 0.687500 0.062500 1.000000
v 0.687500 0.937500 1.000000
v 0.312500 0.937500 1.000000
vn 0.000000 0.000000 1.000000
f 1/1/1 2/2/1 3/3/1 4/4/1
v 0.687500 0.062500 0.900000
v 0.312500 0.062500 0.900000
v 0.312500 0.937500 0.900000
v 0.687500 0.937500 0.900000
vn 0.000000 0.000000 -1.000000
f 5/1/2 6/2/2 7/3/2 8/4/2
v 0.687500 0.062500 1.000000
v 0.687500 0.062500 0.900000
v 0.687500 0.937500 0.900000
v 0.687500 0.937500 1.000000
vn 1.000000 -0.000000 0.000000
f 9/1/3 10/2/3 11/3/3 12/4/3
v 0.312500 0.062500 0.900000
v 0.312500 0.062500 1.000000
v 0.312500 0.937500 1.000000
v 0.312500 0.937500 0.900000
vn -1.000000 0.000000 0.000000
f 13/1/4 14/2/4 15/3/4 16/4/4
v 0.312500 0.937500 1.000000
v 0.687500 0.937500 1.000000
v 0.687500 0.937500 0.900000
v 0.312500 0.937500 0.900000
vn -0.000000 1.000000 0.000000
f 17/1/5 18/2/5 19/3/5 20/4/5
v 0.312500 0.062500 0.900000
v 0.687500 0.062500 0.900000
v 0.687500 0.062500 1.000000
v 0.312500 0.062500 1.000000
vn 0.000000 -1.000000 0.000000
f 21/1/6 22/2/6 23/3/6 24/4/6
v 0.406250 0.312500 0.900000
v 0.593750 0.312500 0.900000
v 0.593750 0.531250 0.900000
v 0.406250 0.531250 0.900000
vn 0.000000 0.000000 1.000000
f 25/1/7 26/2/7 27/3/7 28/4/7
v 0.593750 0.312500 0.800000
v 0.406250 0.312500 0.800000
v 0.406250 0.531250 0.800000
v 0.593750 0.531250 0.800000
vn 0.000000 0.000000 -1.000000
f 29/1/8 30/2/8 31/3/8 32/4/8
v 0.593750 0.312500 0.900000
v 0.593750 0.312500 0.800000
v 0.593750 0.531250 0.800000
v 0.593750 0.531250 0.900000
vn 1.000000 -0.000000 0.000000
f 33/1/9 34/2/9 35/3/9 36/4/9
v 0.406250 0.312500 0.800000
v 0.406250 0.312500 0.900000
v 0.406250 0.531250 0.900000
v 0.406250 0.531250 0.800000
vn -1.000000 0.000000 0.000000
f 37/1/10 38/2/10 39/3/10 40/4/10
v 0.406250 0.531250 0.900000
v 0.593750 0.531250 0.900000
v 0.593750 0.531250 0.800000
v 0.406250 0.531250 0.800000
vn -0.000000 1.000000 0.000000
f 41/1/11 42/2/11 43/3/11 44/4/11
v 0.406250 0.312500 0.800000
v 0.593750 0.312500 0.800000
v 0.593750 0.312500 0.900000
v 0.406250 0.312500 0.900000
vn 0.000000 -1.000000 0.000000
f 45/1/12 46/2/12 47/3/12 48/4/12
v 0.468750 0.125000 0.900000
v 0.531250 0.125000 0.900000
v 0.531250 0.187500 0.900000
v 0.468750 0.187500 0.900000
vn 0.000000 0.000000 1.000000
f 49/1/13 50/2/13 51/3/13 52/4/13
v 0.531250 0.125000 0.880000
v 0.468750 0.125000 0.880000
v 0.468750 0.187500 0.880000
v 0.531250 0.187500 0.880000
vn 0.000000 0.000000 -1.000000
f 53/1/14 54/2/14 55/3/14 56/4/14
v 0.531250 0.125000 0.900000
v 0.531250 0.125000 0.880000
v 0.531250 0.187500 0.880000
v 0.531250 0.187500 0.900000
vn 1.000000 -0.000000 0.000000
f 57/1/15 58/2/15 59/3/15 60/4/15
v 0.468750 0.125000 0.880000
v 0.468750 0.125000 0.900000
v 0.468750 0.187500 0.900000
v 0.468750 0.187500 0.880000
vn -1.000000 0.000000 0.000000
f 61/1/16 62/2/16 63/3/16 64/4/16
v 0.468750 0.187500 0.900000
v 0.531250 0.187500 0.900000
v 0.531250 0.187500 0.880000
v 0.468750 0.187500 0.880000
vn -0.000000 1.000000 0.000000
f 65/1/17 66/2/17 67/3/17 68/4/17
v 0.468750 0.125000 0.880000
v 0.531250 0.125000 0.880000
v 0.531250 0.125000 0.900000
v 0.468750 0.125000 0.900000
vn 0.000000 -1.000000 0.000000
f 69/1/18 70/2/18 71/3/18 72/4/18
v 0.468750 0.812500 0.900000
v 0.531250 0.812500 0.900000
v 0.531250 0.875000 0.900000
v 0.468750 0.875000 0.900000
vn 0.000000 0.000000 1.000000
f 73/1/19 74/2/19 75/3/19 76/4/19
v 0.531250 0.812500 0.880000
v 0.468750 0.812500 0.880000
v 0.468750 0.875000 0.880000
v 0.531250 0.875000 0.880000
vn 0.000000 0.000000 -1.000000
f 77/1/20 78/2/20 79/3/20 80/4/20
v 0.531250 0.812500 0.900000
v 0.531250 0.812500 0.880000
v 0.531250 0.875000 0.880000
v 0.531250 0.875000 0.900000
vn 1.000000 -0.000000 0.000000
f 81/1/21 82/2/21 83/3/21 84/4/21
v 0.468750 0.812500 0.880000
v 0.468750 0.812500 0.900000
v 0.468750 0.875000 0.900000
v 0.468750 0.875000 0.880000
vn -1.000000 0.000000 0.000000
f 85/1/22 86/2/22 87/3/22 88/4/22
v 0.468750 0.875000 0.900000
v 0.531250 0.875000 0.900000
v 0.531250 0.875000 0.880000
v 0.468750 0.875000 0.880000
vn -0.000000 1.000000 0.000000
f 89/1/23 90/2/23 91/3/23 92/4/23
v 0.468750 0.812500 0.880000
v 0.531250 0.812500 0.880000
v 0.531250 0.812500 0.900000
v 0.468750 0.812500 0.900000
vn 0.000000 -1.000000 0.000000
f 93/1/24 94/2/24 95/3/24 96/4/24
usemtl metal
v 0.545000 0.410000 0.860000
v 0.541781 0.410000 0.816713
v 0.536184 0.432500 0.814474
v 0.538971 0.432500 0.860000
vn 0.963444 0.258154 -0.071635
f 97/1/25 98/2/25 99/3/25 100/4/25
v 0.538971 0.432500 0.860000
v 0.536184 0.432500 0.814474
v 0.520891 0.448971 0.808356
v 0.522500 0.448971 0.860000
vn 0.706445 0.706445 -0.043252
f 101/1/26 102/2/26 103/3/26 104/4/26
v 0.522500 0.448971 0.860000
v 0.520891 0.448971 0.808356
v 0.500000 0.455000 0.800000
v 0.500000 0.455000 0.860000
vn 0.258811 0.965894 -0.008065
f 105/1/27 106/2/27 107/3/27 108/4/27
v 0.500000 0.455000 0.860000
v 0.500000 0.455000 0.800000
v 0.479109 0.448971 0.791644
v 0.477500 0.448971 0.860000
vn -0.258819 0.965926 0.000000
f 109/1/28 110/2/28 111/3/28 112/4/28
v 0.477500 0.448971 0.860000
v 0.479109 0.448971 0.791644
v 0.463816 0.432500 0.785526
v 0.461029 0.432500 0.860000
vn -0.707009 0.707009 -0.016645
f 113/1/29 114/2/29 115/3/29 116/4/29
v 0.461029 0.432500 0.860000
v 0.463816 0.432500 0.785526
v 0.458219 0.410000 0.783287
v 0.455000 0.410000 0.860000
vn -0.965295 0.258650 -0.036128
f 117/1/30 118/2/30 119/3/30 120/4/30
v 0.455000 0.410000 0.860000
v 0.458219 0.410000 0.783287
v 0.463816 0.387500 0.785526
v 0.461029 0.387500 0.860000
vn -0.965134 -0.258607 -0.040493
f 121/1/31 122/2/31 123/3/31 124/4/31
v 0.461029 0.387500 0.860000
v 0.463816 0.387500 0.785526
v 0.479109 0.371029 0.791644
v 0.477500 0.371029 0.860000
vn -0.706859 -0.706859 -0.026456
f 125/1/32 126/2/32 127/3/32 128/4/32
v 0.477500 0.371029 0.860000
v 0.479109 0.371029 0.791644
v 0.500000 0.365000 0.800000
v 0.500000 0.365000 0.860000
vn -0.258814 -0.965908 -0.006093
f 129/1/33 130/2/33 131/3/33 132/4/33
v 0.500000 0.365000 0.860000
v 0.500000 0.365000 0.800000
v 0.520891 0.371029 0.808356
v 0.522500 0.371029 0.860000
vn 0.258819 -0.965926 0.000000
f 133/1/34 134/2/34 135/3/34 136/4/34
v 0.522500 0.371029 0.860000
v 0.520891 0.371029 0.808356
v 0.536184 0.387500 0.814474
v 0.538971 0.387500 0.860000
vn 0.706935 -0.706935 -0.022029
f 137/1/35 138/2/35 139/3/35 140/4/35
v 0.538971 0.387500 0.860000
v 0.536184 0.387500 0.814474
v 0.541781 0.410000 0.816713
v 0.545000 0.410000 0.860000
vn 0.964241 -0.258368 -0.059035
f 141/1/36 142/2/36 143/3/36 144/4/36
v 0.541781 0.410000 0.816713
v 0.615345 0.410000 0.744138
v 0.610196 0.432471 0.740803
v 0.536184 0.432500 0.814474
vn 0.682043 0.238479 0.691335
f 145/1/37 146/2/37 147/3/37 148/4/37
v 0.536184 0.432500 0.814474
v 0.610196 0.432471 0.740803
v 0.597695 0.448921 0.730046
v 0.520891 0.448971 0.808356
vn 0.519742 0.676391 0.521884
f 149/1/38 150/2/38 151/3/38 152/4/38
v 0.520891 0.448971 0.808356
v 0.597695 0.448921 0.730046
v 0.581191 0.454943 0.714749
v 0.500000 0.455000 0.800000
vn 0.199241 0.960394 0.194798
f 153/1/39 154/2/39 155/3/39 156/4/39
v 0.500000 0.455000 0.800000
v 0.581191 0.454943 0.714749
v 0.565108 0.448921 0.699011
v 0.479109 0.448971 0.791644
vn -0.200587 0.960741 -0.191682
f 157/1/40 158/2/40 159/3/40 160/4/40
v 0.479109 0.448971 0.791644
v 0.565108 0.448921 0.699011
v 0.553755 0.432471 0.687050
v 0.463816 0.432500 0.785526
vn -0.535668 0.682187 -0.497675
f 161/1/41 162/2/41 163/3/41 164/4/41
v 0.463816 0.432500 0.785526
v 0.553755 0.432471 0.687050
v 0.550172 0.410000 0.682069
v 0.458219 0.410000 0.783287
vn -0.716176 0.243270 -0.654150
f 165/1/42 166/2/42 167/3/42 168/4/42
v 0.458219 0.410000 0.783287
v 0.550172 0.410000 0.682069
v 0.555322 0.387529 0.685404
v 0.463816 0.387500 0.785526
vn -0.717890 -0.243501 -0.652181
f 169/1/43 170/2/43 171/3/43 172/4/43
v 0.463816 0.387500 0.785526
v 0.555322 0.387529 0.685404
v 0.567823 0.371079 0.696161
v 0.479109 0.371029 0.791644
vn -0.538861 -0.683297 -0.492681
f 173/1/44 174/2/44 175/3/44 176/4/44
v 0.479109 0.371029 0.791644
v 0.567823 0.371079 0.696161
v 0.584326 0.365057 0.711458
v 0.500000 0.365000 0.800000
vn -0.202069 -0.961110 -0.188244
f 177/1/45 178/2/45 179/3/45 180/4/45
v 0.500000 0.365000 0.800000
v 0.584326 0.365057 0.711458
v 0.600409 0.371079 0.727196
v 0.520891 0.371029 0.808356
vn 0.200976 -0.960839 0.190782
f 181/1/46 182/2/46 183/3/46 184/4/46
v 0.520891 0.371029 0.808356
v 0.600409 0.371079 0.727196
v 0.611763 0.387529 0.739157
v 0.536184 0.387500 0.814474
vn 0.525023 -0.678360 0.513983
f 185/1/47 186/2/47 187/3/47 188/4/47
v 0.536184 0.387500 0.814474
v 0.611763 0.387529 0.739157
v 0.615345 0.410000 0.744138
v 0.541781 0.410000 0.816713
vn 0.685468 -0.238976 0.687768
f 189/1/48 190/2/48 191/3/48 192/4/48
v 0.615345 0.410000 0.744138
v 0.663621 0.417097 0.693448
v 0.656270 0.439176 0.692425
v 0.610196 0.432471 0.740803
vn 0.681378 0.257806 0.685026
f 193/1/49 194/2/49 195/3/49 196/4/49
v 0.610196 0.432471 0.740803
v 0.656270 0.439176 0.692425
v 0.642157 0.455340 0.683360
v 0.597695 0.448921 0.730046
vn 0.462999 0.704003 0.538527
f 197/1/50 198/2/50 199/3/50 200/4/50
v 0.597695 0.448921 0.730046
v 0.642157 0.455340 0.683360
v 0.625064 0.461256 0.668683
v 0.581191 0.454943 0.714749
vn 0.121213 0.961250 0.247598
f 201/1/51 202/2/51 203/3/51 204/4/51
v 0.581191 0.454943 0.714749
v 0.625064 0.461256 0.668683
v 0.609571 0.455340 0.652326
v 0.565108 0.448921 0.699011
vn -0.253012 0.961279 -0.109215
f 205/1/52 206/2/52 207/3/52 208/4/52
v 0.565108 0.448921 0.699011
v 0.609571 0.455340 0.652326
v 0.599829 0.439176 0.638672
v 0.553755 0.432471 0.687050
vn -0.560079 0.704046 -0.436613
f 209/1/53 210/2/53 211/3/53 212/4/53
v 0.553755 0.432471 0.687050
v 0.599829 0.439176 0.638672
v 0.598448 0.417097 0.631379
v 0.550172 0.410000 0.682069
vn -0.717252 0.257820 -0.647363
f 213/1/54 214/2/54 215/3/54 216/4/54
v 0.550172 0.410000 0.682069
v 0.598448 0.417097 0.631379
v 0.605799 0.395017 0.632403
v 0.555322 0.387529 0.685404
vn -0.681378 -0.257806 -0.685026
f 217/1/55 218/2/55 219/3/55 220/4/55
v 0.555322 0.387529 0.685404
v 0.605799 0.395017 0.632403
v 0.619912 0.378854 0.641467
v 0.567823 0.371079 0.696161
vn -0.462037 -0.703900 -0.539487
f 221/1/56 222/2/56 223/3/56 224/4/56
v 0.567823 0.371079 0.696161
v 0.619912 0.378854 0.641467
v 0.637005 0.372937 0.656145
v 0.584326 0.365057 0.711458
vn -0.118963 -0.960935 -0.249902
f 225/1/57 226/2/57 227/3/57 228/4/57
v 0.584326 0.365057 0.711458
v 0.637005 0.372937 0.656145
v 0.652498 0.378854 0.672502
v 0.600409 0.371079 0.727196
vn 0.255547 -0.960914 0.106485
f 229/1/58 230/2/58 231/3/58 232/4/58
v 0.600409 0.371079 0.727196
v 0.652498 0.378854 0.672502
v 0.662240 0.395017 0.686156
v 0.611763 0.387529 0.739157
vn 0.561666 -0.703866 0.434860
f 233/1/59 234/2/59 235/3/59 236/4/59
v 0.611763 0.387529 0.739157
v 0.662240 0.395017 0.686156
v 0.663621 0.417097 0.693448
v 0.615345 0.410000 0.744138
vn 0.717591 -0.257793 0.646997
f 237/1/60 238/2/60 239/3/60 240/4/60
v 0.663621 0.417097 0.693448
v 0.711897 0.437693 0.642759
v 0.702095 0.458767 0.644309
v 0.656270 0.439176 0.692425
vn 0.648677 0.249290 0.719077
f 241/1/61 242/2/61 243/3/61 244/4/61
v 0.656270 0.439176 0.692425
v 0.702095 0.458767 0.644309
v 0.686188 0.474194 0.637128
v 0.642157 0.455340 0.683360
vn 0.372725 0.679714 0.631716
f 245/1/62 246/2/62 247/3/62 248/4/62
v 0.642157 0.455340 0.683360
v 0.686188 0.474194 0.637128
v 0.668438 0.479841 0.623140
v 0.625064 0.461256 0.668683
vn -0.002067 0.926647 0.375926
f 249/1/63 250/2/63 251/3/63 252/4/63
v 0.625064 0.461256 0.668683
v 0.668438 0.479841 0.623140
v 0.653601 0.474194 0.606094
v 0.609571 0.455340 0.652326
vn -0.375486 0.926601 0.020510
f 253/1/64 254/2/64 255/3/64 256/4/64
v 0.609571 0.455340 0.652326
v 0.653601 0.474194 0.606094
v 0.645654 0.458767 0.590556
v 0.599829 0.439176 0.638672
vn -0.649336 0.679639 -0.341253
f 257/1/65 258/2/65 259/3/65 260/4/65
v 0.599829 0.439176 0.638672
v 0.645654 0.458767 0.590556
v 0.646724 0.437693 0.580690
v 0.598448 0.417097 0.631379
vn -0.749941 0.249262 -0.612745
f 261/1/66 262/2/66 263/3/66 264/4/66
v 0.598448 0.417097 0.631379
v 0.646724 0.437693 0.580690
v 0.656526 0.416618 0.579139
v 0.605799 0.395017 0.632403
vn -0.648677 -0.249290 -0.719077
f 265/1/67 266/2/67 267/3/67 268/4/67
v 0.605799 0.395017 0.632403
v 0.656526 0.416618 0.579139
v 0.672433 0.401191 0.586320
v 0.619912 0.378854 0.641467
vn -0.373251 -0.679892 -0.631214
f 269/1/68 270/2/68 271/3/68 272/4/68
v 0.619912 0.378854 0.641467
v 0.672433 0.401191 0.586320
v 0.690183 0.395544 0.600308
v 0.637005 0.372937 0.656145
vn 0.000862 -0.927138 -0.374720
f 273/1/69 274/2/69 275/3/69 276/4/69
v 0.637005 0.372937 0.656145
v 0.690183 0.395544 0.600308
v 0.705019 0.401191 0.617355
v 0.652498 0.378854 0.672502
vn 0.374159 -0.927169 -0.019048
f 277/1/70 278/2/70 279/3/70 280/4/70
v 0.652498 0.378854 0.672502
v 0.705019 0.401191 0.617355
v 0.712967 0.416618 0.632893
v 0.662240 0.395017 0.686156
vn 0.648508 -0.679949 0.342210
f 281/1/71 282/2/71 283/3/71 284/4/71
v 0.662240 0.395017 0.686156
v 0.712967 0.416618 0.632893
v 0.711897 0.437693 0.642759
v 0.663621 0.417097 0.693448
vn 0.749760 -0.249316 0.612945
f 285/1/72 286/2/72 287/3/72 288/4/72
v 0.711897 0.437693 0.642759
v 0.760172 0.469771 0.592069
v 0.748687 0.489763 0.595387
v 0.702095 0.458767 0.644309
vn 0.624801 0.235856 0.744309
f 289/1/73 290/2/73 291/3/73 292/4/73
v 0.702095 0.458767 0.644309
v 0.748687 0.489763 0.595387
v 0.731547 0.504398 0.589500
v 0.686188 0.474194 0.637128
vn 0.307750 0.643529 0.700828
f 293/1/74 294/2/74 295/3/74 296/4/74
v 0.686188 0.474194 0.637128
v 0.731547 0.504398 0.589500
v 0.713346 0.509754 0.575986
v 0.668438 0.479841 0.623140
vn -0.091092 0.877947 0.470012
f 297/1/75 298/2/75 299/3/75 300/4/75
v 0.668438 0.479841 0.623140
v 0.713346 0.509754 0.575986
v 0.698961 0.504398 0.558466
v 0.653601 0.474194 0.606094
vn -0.465090 0.877895 0.113982
f 301/1/76 302/2/76 303/3/76 304/4/76
v 0.653601 0.474194 0.606094
v 0.698961 0.504398 0.558466
v 0.692246 0.489763 0.541634
v 0.645654 0.458767 0.590556
vn -0.715148 0.643435 -0.273048
f 305/1/77 306/2/77 307/3/77 308/4/77
v 0.645654 0.458767 0.590556
v 0.692246 0.489763 0.541634
v 0.695000 0.469771 0.530000
v 0.646724 0.437693 0.580690
vn -0.773957 0.235815 -0.587692
f 309/1/78 310/2/78 311/3/78 312/4/78
v 0.646724 0.437693 0.580690
v 0.695000 0.469771 0.530000
v 0.706486 0.449779 0.526682
v 0.656526 0.416618 0.579139
vn -0.624801 -0.235856 -0.744309
f 313/1/79 314/2/79 315/3/79 316/4/79
v 0.656526 0.416618 0.579139
v 0.706486 0.449779 0.526682
v 0.723625 0.435145 0.532569
v 0.672433 0.401191 0.586320
vn -0.308155 -0.643763 -0.700435
f 317/1/80 318/2/80 319/3/80 320/4/80
v 0.672433 0.401191 0.586320
v 0.723625 0.435145 0.532569
v 0.741826 0.429788 0.546083
v 0.690183 0.395544 0.600308
vn 0.090165 -0.878543 -0.469077
f 321/1/81 322/2/81 323/3/81 324/4/81
v 0.690183 0.395544 0.600308
v 0.741826 0.429788 0.546083
v 0.756211 0.435145 0.563603
v 0.705019 0.401191 0.617355
vn 0.464063 -0.878583 -0.112860
f 325/1/82 326/2/82 327/3/82 328/4/82
v 0.705019 0.401191 0.617355
v 0.756211 0.435145 0.563603
v 0.762927 0.449779 0.580435
v 0.712967 0.416618 0.632893
vn 0.714501 -0.643841 0.273782
f 329/1/83 330/2/83 331/3/83 332/4/83
v 0.712967 0.416618 0.632893
v 0.762927 0.449779 0.580435
v 0.760172 0.469771 0.592069
v 0.711897 0.437693 0.642759
vn 0.773815 -0.235894 0.587847
f 333/1/84 334/2/84 335/3/84 336/4/84
v 0.760172 0.469771 0.592069
v 0.808448 0.510193 0.541379
v 0.796018 0.529415 0.545689
v 0.748687 0.489763 0.595387
vn 0.610060 0.224365 0.759925
f 337/1/85 338/2/85 339/3/85 340/4/85
v 0.748687 0.489763 0.595387
v 0.796018 0.529415 0.545689
v 0.778187 0.543487 0.540529
v 0.731547 0.504398 0.589500
vn 0.267659 0.612603 0.743691
f 341/1/86 342/2/86 343/3/86 344/4/86
v 0.731547 0.504398 0.589500
v 0.778187 0.543487 0.540529
v 0.759733 0.548638 0.527281
v 0.713346 0.509754 0.575986
vn -0.146164 0.836341 0.528366
f 345/1/87 346/2/87 347/3/87 348/4/87
v 0.713346 0.509754 0.575986
v 0.759733 0.548638 0.527281
v 0.745600 0.543487 0.509495
v 0.698961 0.504398 0.558466
vn -0.520651 0.836308 0.171790
f 349/1/88 350/2/88 351/3/88 352/4/88
v 0.698961 0.504398 0.558466
v 0.745600 0.543487 0.509495
v 0.739577 0.529415 0.491936
v 0.692246 0.489763 0.541634
vn -0.755931 0.612542 -0.231001
f 353/1/89 354/2/89 355/3/89 356/4/89
v 0.692246 0.489763 0.541634
v 0.739577 0.529415 0.491936
v 0.743276 0.510193 0.479310
v 0.695000 0.469771 0.530000
vn -0.788800 0.224337 -0.572247
f 357/1/90 358/2/90 359/3/90 360/4/90
v 0.695000 0.469771 0.530000
v 0.743276 0.510193 0.479310
v 0.755706 0.490970 0.475000
v 0.706486 0.449779 0.526682
vn -0.610060 -0.224365 -0.759925
f 361/1/91 362/2/91 363/3/91 364/4/91
v 0.706486 0.449779 0.526682
v 0.755706 0.490970 0.475000
v 0.773537 0.476898 0.480161
v 0.723625 0.435145 0.532569
vn -0.267866 -0.612762 -0.743485
f 365/1/92 366/2/92 367/3/92 368/4/92
v 0.723625 0.435145 0.532569
v 0.773537 0.476898 0.480161
v 0.791992 0.471748 0.493409
v 0.741826 0.429788 0.546083
vn 0.145687 -0.836731 -0.527879
f 369/1/93 370/2/93 371/3/93 372/4/93
v 0.741826 0.429788 0.546083
v 0.791992 0.471748 0.493409
v 0.806124 0.476898 0.511195
v 0.756211 0.435145 0.563603
vn 0.520115 -0.836759 -0.171213
f 373/1/94 374/2/94 375/3/94 376/4/94
v 0.756211 0.435145 0.563603
v 0.806124 0.476898 0.511195
v 0.812147 0.490970 0.528754
v 0.762927 0.449779 0.580435
vn 0.755592 -0.612818 0.231376
f 377/1/95 378/2/95 379/3/95 380/4/95
v 0.762927 0.449779 0.580435
v 0.812147 0.490970 0.528754
v 0.808448 0.510193 0.541379
v 0.760172 0.469771 0.592069
vn 0.788727 -0.224393 0.572326
f 381/1/96 382/2/96 383/3/96 384/4/96
v 0.808448 0.510193 0.541379
v 0.856724 0.555000 0.490690
v 0.843993 0.573950 0.495316
v 0.796018 0.529415 0.545689
vn 0.603198 0.218038 0.767210
f 385/1/97 386/2/97 387/3/97 388/4/97
v 0.796018 0.529415 0.545689
v 0.843993 0.573950 0.495316
v 0.825941 0.587823 0.490387
v 0.778187 0.543487 0.540529
vn 0.249006 0.595598 0.763714
f 389/1/98 390/2/98 391/3/98 392/4/98
v 0.778187 0.543487 0.540529
v 0.825941 0.587823 0.490387
v 0.807407 0.592900 0.477223
v 0.759733 0.548638 0.527281
vn -0.171837 0.813482 0.555624
f 393/1/99 394/2/99 395/3/99 396/4/99
v 0.759733 0.548638 0.527281
v 0.807407 0.592900 0.477223
v 0.793355 0.587823 0.459352
v 0.745600 0.543487 0.509495
vn -0.546597 0.813472 0.198732
f 397/1/100 398/2/100 399/3/100 400/4/100
v 0.745600 0.543487 0.509495
v 0.793355 0.587823 0.459352
v 0.787552 0.573950 0.441562
v 0.739577 0.529415 0.491936
vn -0.774967 0.595578 -0.211454
f 401/1/101 402/2/101 403/3/101 404/4/101
v 0.739577 0.529415 0.491936
v 0.787552 0.573950 0.441562
v 0.791552 0.555000 0.428621
v 0.743276 0.510193 0.479310
vn -0.795716 0.218029 -0.565066
f 405/1/102 406/2/102 407/3/102 408/4/102
v 0.743276 0.510193 0.479310
v 0.791552 0.555000 0.428621
v 0.804283 0.536050 0.423995
v 0.755706 0.490970 0.475000
vn -0.603198 -0.218038 -0.767210
f 409/1/103 410/2/103 411/3/103 412/4/103
v 0.755706 0.490970 0.475000
v 0.804283 0.536050 0.423995
v 0.822334 0.522177 0.428924
v 0.773537 0.476898 0.480161
vn -0.249065 -0.595651 -0.763653
f 413/1/104 414/2/104 415/3/104 416/4/104
v 0.773537 0.476898 0.480161
v 0.822334 0.522177 0.428924
v 0.840869 0.517100 0.442087
v 0.791992 0.471748 0.493409
vn 0.171699 -0.813610 -0.555481
f 417/1/105 418/2/105 419/3/105 420/4/105
v 0.791992 0.471748 0.493409
v 0.840869 0.517100 0.442087
v 0.854921 0.522177 0.459958
v 0.806124 0.476898 0.511195
vn 0.546440 -0.813619 -0.198564
f 421/1/106 422/2/106 423/3/106 424/4/106
v 0.806124 0.476898 0.511195
v 0.854921 0.522177 0.459958
v 0.860724 0.536050 0.477748
v 0.812147 0.490970 0.528754
vn 0.774867 -0.595670 0.211562
f 425/1/107 426/2/107 427/3/107 428/4/107
v 0.812147 0.490970 0.528754
v 0.860724 0.536050 0.477748
v 0.856724 0.555000 0.490690
v 0.808448 0.510193 0.541379
vn 0.795694 -0.218048 0.565089
f 429/1/108 430/2/108 431/3/108 432/4/108
v 0.856724 0.555000 0.490690
v 0.905000 0.599807 0.440000
v 0.892570 0.619030 0.444310
v 0.843993 0.573950 0.495316
vn 0.603233 0.217985 0.767197
f 433/1/109 434/2/109 435/3/109 436/4/109
v 0.843993 0.573950 0.495316
v 0.892570 0.619030 0.444310
v 0.874738 0.633102 0.439150
v 0.825941 0.587823 0.490387
vn 0.249166 0.595574 0.763681
f 437/1/110 438/2/110 439/3/110 440/4/110
v 0.825941 0.587823 0.490387
v 0.874738 0.633102 0.439150
v 0.856284 0.638252 0.425901
v 0.807407 0.592900 0.477223
vn -0.171647 0.813595 0.555517
f 441/1/111 442/2/111 443/3/111 444/4/111
v 0.807407 0.592900 0.477223
v 0.856284 0.638252 0.425901
v 0.842152 0.633102 0.408115
v 0.793355 0.587823 0.459352
vn -0.546478 0.813605 0.198515
f 445/1/112 446/2/112 447/3/112 448/4/112
v 0.793355 0.587823 0.459352
v 0.842152 0.633102 0.408115
v 0.836129 0.619030 0.390557
v 0.787552 0.573950 0.441562
vn -0.774899 0.595593 -0.211661
f 449/1/113 450/2/113 451/3/113 452/4/113
v 0.787552 0.573950 0.441562
v 0.836129 0.619030 0.390557
v 0.839828 0.599807 0.377931
v 0.791552 0.555000 0.428621
vn -0.795683 0.217995 -0.565125
f 453/1/114 454/2/114 455/3/114 456/4/114
v 0.791552 0.555000 0.428621
v 0.839828 0.599807 0.377931
v 0.852258 0.580585 0.373621
v 0.804283 0.536050 0.423995
vn -0.603233 -0.217985 -0.767197
f 457/1/115 458/2/115 459/3/115 460/4/115
v 0.804283 0.536050 0.423995
v 0.852258 0.580585 0.373621
v 0.870089 0.566513 0.378781
v 0.822334 0.522177 0.428924
vn -0.249108 -0.595520 -0.763742
f 461/1/116 462/2/116 463/3/116 464/4/116
v 0.822334 0.522177 0.428924
v 0.870089 0.566513 0.378781
v 0.888543 0.561362 0.392030
v 0.840869 0.517100 0.442087
vn 0.171785 -0.813468 -0.555662
f 465/1/117 466/2/117 467/3/117 468/4/117
v 0.840869 0.517100 0.442087
v 0.888543 0.561362 0.392030
v 0.902675 0.566513 0.409816
v 0.854921 0.522177 0.459958
vn 0.546637 -0.813458 -0.198681
f 469/1/118 470/2/118 471/3/118 472/4/118
v 0.854921 0.522177 0.459958
v 0.902675 0.566513 0.409816
v 0.908699 0.580585 0.427374
v 0.860724 0.536050 0.477748
vn 0.775000 -0.595500 0.211555
f 473/1/119 474/2/119 475/3/119 476/4/119
v 0.860724 0.536050 0.477748
v 0.908699 0.580585 0.427374
v 0.905000 0.599807 0.440000
v 0.856724 0.555000 0.490690
vn 0.795704 -0.217975 0.565103
f 477/1/120 478/2/120 479/3/120 480/4/120
v 0.905000 0.599807 0.440000
v 0.953276 0.640229 0.389310
v 0.941790 0.660221 0.392628
v 0.892570 0.619030 0.444310
vn 0.610170 0.224189 0.759889
f 481/1/121 482/2/121 483/3/121 484/4/121
v 0.892570 0.619030 0.444310
v 0.941790 0.660221 0.392628
v 0.924651 0.674855 0.386742
v 0.874738 0.633102 0.439150
vn 0.268178 0.612509 0.743581
f 485/1/122 486/2/122 487/3/122 488/4/122
v 0.874738 0.633102 0.439150
v 0.924651 0.674855 0.386742
v 0.906450 0.680212 0.373228
v 0.856284 0.638252 0.425901
vn -0.145526 0.836686 0.527996
f 489/1/123 490/2/123 491/3/123 492/4/123
v 0.856284 0.638252 0.425901
v 0.906450 0.680212 0.373228
v 0.892064 0.674855 0.355707
v 0.842152 0.633102 0.408115
vn -0.520239 0.836714 0.171059
f 493/1/124 494/2/124 495/3/124 496/4/124
v 0.842152 0.633102 0.408115
v 0.892064 0.674855 0.355707
v 0.885349 0.660221 0.338875
v 0.836129 0.619030 0.390557
vn -0.755702 0.612568 -0.231679
f 497/1/125 498/2/125 499/3/125 500/4/125
v 0.836129 0.619030 0.390557
v 0.885349 0.660221 0.338875
v 0.888103 0.640229 0.327241
v 0.839828 0.599807 0.377931
vn -0.788697 0.224220 -0.572436
f 501/1/126 502/2/126 503/3/126 504/4/126
v 0.839828 0.599807 0.377931
v 0.888103 0.640229 0.327241
v 0.899589 0.620237 0.323923
v 0.852258 0.580585 0.373621
vn -0.610170 -0.224189 -0.759889
f 505/1/127 506/2/127 507/3/127 508/4/127
v 0.852258 0.580585 0.373621
v 0.899589 0.620237 0.323923
v 0.916729 0.605602 0.329810
v 0.870089 0.566513 0.378781
vn -0.267984 -0.612340 -0.743790
f 509/1/128 510/2/128 511/3/128 512/4/128
v 0.870089 0.566513 0.378781
v 0.916729 0.605602 0.329810
v 0.934930 0.600246 0.343324
v 0.888543 0.561362 0.392030
vn 0.145992 -0.836292 -0.528491
f 513/1/129 514/2/129 515/3/129 516/4/129
v 0.888543 0.561362 0.392030
v 0.934930 0.600246 0.343324
v 0.949315 0.605602 0.360844
v 0.902675 0.566513 0.409816
vn 0.520784 -0.836259 -0.171624
f 517/1/130 518/2/130 519/3/130 520/4/130
v 0.902675 0.566513 0.409816
v 0.949315 0.605602 0.360844
v 0.956030 0.620237 0.377677
v 0.908699 0.580585 0.427374
vn 0.756048 -0.612275 0.231326
f 521/1/131 522/2/131 523/3/131 524/4/131
v 0.908699 0.580585 0.427374
v 0.956030 0.620237 0.377677
v 0.953276 0.640229 0.389310
v 0.905000 0.599807 0.440000
vn 0.788769 -0.224157 0.572361
f 525/1/132 526/2/132 527/3/132 528/4/132
v 0.953276 0.640229 0.389310
v 1.001552 0.672307 0.338621
v 0.991750 0.693382 0.340171
v 0.941790 0.660221 0.392628
vn 0.624973 0.235532 0.744267
f 529/1/133 530/2/133 531/3/133 532/4/133
v 0.941790 0.660221 0.392628
v 0.991750 0.693382 0.340171
v 0.975843 0.708809 0.332990
v 0.924651 0.674855 0.386742
vn 0.308664 0.643306 0.700631
f 533/1/134 534/2/134 535/3/134 536/4/134
v 0.924651 0.674855 0.386742
v 0.975843 0.708809 0.332990
v 0.958093 0.714456 0.319002
v 0.906450 0.680212 0.373228
vn -0.089897 0.878461 0.469281
f 537/1/135 538/2/135 539/3/135 540/4/135
v 0.906450 0.680212 0.373228
v 0.958093 0.714456 0.319002
v 0.943257 0.708809 0.301956
v 0.892064 0.674855 0.355707
vn -0.464278 0.878502 0.112604
f 541/1/136 542/2/136 543/3/136 544/4/136
v 0.892064 0.674855 0.355707
v 0.943257 0.708809 0.301956
v 0.935309 0.693382 0.286418
v 0.885349 0.660221 0.338875
vn -0.714716 0.643395 -0.274269
f 545/1/137 546/2/137 547/3/137 548/4/137
v 0.885349 0.660221 0.338875
v 0.935309 0.693382 0.286418
v 0.936379 0.672307 0.276552
v 0.888103 0.640229 0.327241
vn -0.773783 0.235581 -0.588014
f 549/1/138 550/2/138 551/3/138 552/4/138
v 0.888103 0.640229 0.327241
v 0.936379 0.672307 0.276552
v 0.946181 0.651233 0.275002
v 0.899589 0.620237 0.323923
vn -0.624973 -0.235532 -0.744267
f 553/1/139 554/2/139 555/3/139 556/4/139
v 0.899589 0.620237 0.323923
v 0.946181 0.651233 0.275002
v 0.962088 0.635806 0.282182
v 0.916729 0.605602 0.329810
vn -0.308297 -0.643039 -0.701038
f 557/1/140 558/2/140 559/3/140 560/4/140
v 0.916729 0.605602 0.329810
v 0.962088 0.635806 0.282182
v 0.979838 0.630159 0.296170
v 0.934930 0.600246 0.343324
vn 0.090789 -0.877855 -0.470242
f 561/1/141 562/2/141 563/3/141 564/4/141
v 0.934930 0.600246 0.343324
v 0.979838 0.630159 0.296170
v 0.994674 0.635806 0.313217
v 0.949315 0.605602 0.360844
vn 0.465338 -0.877802 -0.113688
f 565/1/142 566/2/142 567/3/142 568/4/142
v 0.949315 0.605602 0.360844
v 0.994674 0.635806 0.313217
v 1.002622 0.651233 0.328755
v 0.956030 0.620237 0.377677
vn 0.715390 -0.642932 0.273598
f 569/1/143 570/2/143 571/3/143 572/4/143
v 0.956030 0.620237 0.377677
v 1.002622 0.651233 0.328755
v 1.001552 0.672307 0.338621
v 0.953276 0.640229 0.389310
vn 0.773922 -0.235479 0.587872
f 573/1/144 574/2/144 575/3/144 576/4/144
v 1.001552 0.672307 0.338621
v 1.049828 0.692903 0.287931
v 1.042477 0.714983 0.286908
v 0.991750 0.693382 0.340171
vn 0.648839 0.248893 0.719069
f 577/1/145 578/2/145 579/3/145 580/4/145
v 0.991750 0.693382 0.340171
v 1.042477 0.714983 0.286908
v 1.028364 0.731146 0.277843
v 0.975843 0.708809 0.332990
vn 0.373780 0.679340 0.631494
f 581/1/146 582/2/146 583/3/146 584/4/146
v 0.975843 0.708809 0.332990
v 1.028364 0.731146 0.277843
v 1.011271 0.737063 0.263166
v 0.958093 0.714456 0.319002
vn -0.000568 0.927040 0.374961
f 585/1/147 586/2/147 587/3/147 588/4/147
v 0.958093 0.714456 0.319002
v 1.011271 0.737063 0.263166
v 0.995778 0.731146 0.246809
v 0.943257 0.708809 0.301956
vn -0.374411 0.927073 0.018770
f 589/1/148 590/2/148 591/3/148 592/4/148
v 0.943257 0.708809 0.301956
v 0.995778 0.731146 0.246809
v 0.986036 0.714983 0.233154
v 0.935309 0.693382 0.286418
vn -0.648803 0.679416 -0.342708
f 593/1/149 594/2/149 595/3/149 596/4/149
v 0.935309 0.693382 0.286418
v 0.986036 0.714983 0.233154
v 0.984655 0.692903 0.225862
v 0.936379 0.672307 0.276552
vn -0.749760 0.248938 -0.613098
f 597/1/150 598/2/150 599/3/150 600/4/150
v 0.936379 0.672307 0.276552
v 0.984655 0.692903 0.225862
v 0.992006 0.670824 0.226885
v 0.946181 0.651233 0.275002
vn -0.648839 -0.248893 -0.719069
f 601/1/151 602/2/151 603/3/151 604/4/151
v 0.946181 0.651233 0.275002
v 0.992006 0.670824 0.226885
v 1.006119 0.654660 0.235950
v 0.962088 0.635806 0.282182
vn -0.373311 -0.679104 -0.632026
f 605/1/152 606/2/152 607/3/152 608/4/152
v 0.962088 0.635806 0.282182
v 1.006119 0.654660 0.235950
v 1.023212 0.648744 0.250627
v 0.979838 0.630159 0.296170
vn 0.001716 -0.926532 -0.376213
f 609/1/153 610/2/153 611/3/153 612/4/153
v 0.979838 0.630159 0.296170
v 1.023212 0.648744 0.250627
v 1.038705 0.654660 0.266985
v 0.994674 0.635806 0.313217
vn 0.375794 -0.926484 -0.020168
f 613/1/154 614/2/154 615/3/154 616/4/154
v 0.994674 0.635806 0.313217
v 1.038705 0.654660 0.266985
v 1.048447 0.670824 0.280639
v 1.002622 0.651233 0.328755
vn 0.649688 -0.679004 0.341847
f 617/1/155 618/2/155 619/3/155 620/4/155
v 1.002622 0.651233 0.328755
v 1.048447 0.670824 0.280639
v 1.049828 0.692903 0.287931
v 1.001552 0.672307 0.338621
vn 0.749941 -0.248843 0.612915
f 621/1/156 622/2/156 623/3/156 624/4/156
v 1.049828 0.692903 0.287931
v 1.098103 0.700000 0.237241
v 1.092793 0.722458 0.234076
v 1.042477 0.714983 0.286908
vn 0.681185 0.258531 0.684944
f 625/1/157 626/2/157 627/3/157 628/4/157
v 1.042477 0.714983 0.286908
v 1.092793 0.722458 0.234076
v 1.080174 0.738899 0.223443
v 1.028364 0.731146 0.277843
vn 0.461159 0.704897 0.538937
f 629/1/158 630/2/158 631/3/158 632/4/158
v 1.028364 0.731146 0.277843
v 1.080174 0.738899 0.223443
v 1.063627 0.744916 0.208191
v 1.011271 0.737063 0.263166
vn 0.118301 0.961088 0.249630
f 633/1/159 634/2/159 635/3/159 636/4/159
v 1.011271 0.737063 0.263166
v 1.063627 0.744916 0.208191
v 1.047587 0.738899 0.192408
v 0.995778 0.731146 0.246809
vn -0.255274 0.961061 -0.105816
f 637/1/160 638/2/160 639/3/160 640/4/160
v 0.995778 0.731146 0.246809
v 1.047587 0.738899 0.192408
v 1.036352 0.722458 0.180322
v 0.986036 0.714983 0.233154
vn -0.561147 0.704821 -0.433983
f 641/1/161 642/2/161 643/3/161 644/4/161
v 0.986036 0.714983 0.233154
v 1.036352 0.722458 0.180322
v 1.032931 0.700000 0.175172
v 0.984655 0.692903 0.225862
vn -0.717531 0.258480 -0.646790
f 645/1/162 646/2/162 647/3/162 648/4/162
v 0.984655 0.692903 0.225862
v 1.032931 0.700000 0.175172
v 1.038242 0.677542 0.178338
v 0.992006 0.670824 0.226885
vn -0.681185 -0.258531 -0.684944
f 649/1/163 650/2/163 651/3/163 652/4/163
v 0.992006 0.670824 0.226885
v 1.038242 0.677542 0.178338
v 1.050861 0.661101 0.188971
v 1.006119 0.654660 0.235950
vn -0.462184 -0.705128 -0.537755
f 653/1/164 654/2/164 655/3/164 656/4/164
v 1.006119 0.654660 0.235950
v 1.050861 0.661101 0.188971
v 1.067407 0.655084 0.204223
v 1.023212 0.648744 0.250627
vn -0.120803 -0.961488 -0.246877
f 657/1/165 658/2/165 659/3/165 660/4/165
v 1.023212 0.648744 0.250627
v 1.067407 0.655084 0.204223
v 1.083447 0.661101 0.220006
v 1.038705 0.654660 0.266985
vn 0.252234 -0.961523 0.108863
f 661/1/166 662/2/166 663/3/166 664/4/166
v 1.038705 0.654660 0.266985
v 1.083447 0.661101 0.220006
v 1.094683 0.677542 0.232091
v 1.048447 0.670824 0.280639
vn 0.559181 -0.705223 0.435863
f 665/1/167 666/2/167 667/3/167 668/4/167
v 1.048447 0.670824 0.280639
v 1.094683 0.677542 0.232091
v 1.098103 0.700000 0.237241
v 1.049828 0.692903 0.287931
vn 0.717128 -0.258588 0.647194
f 669/1/168 670/2/168 671/3/168 672/4/168
v 1.098103 0.700000 0.237241
v 6.063621 0.850000 -4.976552
v 6.058932 0.872495 -4.980370
v 1.092793 0.722458 0.234076
vn 0.695705 0.258957 0.670027
f 673/1/169 674/2/169 675/3/169 676/4/169
v 1.092793 0.722458 0.234076
v 6.058932 0.872495 -4.980370
v 6.046768 0.888963 -4.991481
v 1.080174 0.738899 0.223443
vn 0.501674 0.707238 0.498135
f 677/1/170 678/2/170 679/3/170 680/4/170
v 1.080174 0.738899 0.223443
v 6.046768 0.888963 -4.991481
v 6.030388 0.894990 -5.006907
v 1.063627 0.744916 0.208191
vn 0.173401 0.965768 0.192935
f 681/1/171 682/2/171 683/3/171 684/4/171
v 1.063627 0.744916 0.208191
v 6.030388 0.894990 -5.006907
v 6.014182 0.888963 -5.022516
v 1.047587 0.738899 0.192408
vn -0.201159 0.965768 -0.163789
f 685/1/172 686/2/172 687/3/172 688/4/172
v 1.047587 0.738899 0.192408
v 6.014182 0.888963 -5.022516
v 6.002491 0.872495 -5.034123
v 1.036352 0.722458 0.180322
vn -0.522000 0.707238 -0.476792
f 689/1/173 690/2/173 691/3/173 692/4/173
v 1.036352 0.722458 0.180322
v 6.002491 0.872495 -5.034123
v 5.998448 0.850000 -5.038621
v 1.032931 0.700000 0.175172
vn -0.703147 0.258957 -0.662213
f 693/1/174 694/2/174 695/3/174 696/4/174
v 1.032931 0.700000 0.175172
v 5.998448 0.850000 -5.038621
v 6.003137 0.827505 -5.034802
v 1.038242 0.677542 0.178338
vn -0.695705 -0.258957 -0.670027
f 697/1/175 698/2/175 699/3/175 700/4/175
v 1.038242 0.677542 0.178338
v 6.003137 0.827505 -5.034802
v 6.015301 0.811037 -5.023691
v 1.050861 0.661101 0.188971
vn -0.501677 -0.707238 -0.498132
f 701/1/176 702/2/176 703/3/176 704/4/176
v 1.050861 0.661101 0.188971
v 6.015301 0.811037 -5.023691
v 6.031681 0.805010 -5.008265
v 1.067407 0.655084 0.204223
vn -0.173407 -0.965768 -0.192929
f 705/1/177 706/2/177 707/3/177 708/4/177
v 1.067407 0.655084 0.204223
v 6.031681 0.805010 -5.008265
v 6.047887 0.811037 -4.992657
v 1.083447 0.661101 0.220006
vn 0.201153 -0.965768 0.163796
f 709/1/178 710/2/178 711/3/178 712/4/178
v 1.083447 0.661101 0.220006
v 6.047887 0.811037 -4.992657
v 6.059578 0.827505 -4.981049
v 1.094683 0.677542 0.232091
vn 0.521996 -0.707238 0.476796
f 713/1/179 714/2/179 715/3/179 716/4/179
v 1.094683 0.677542 0.232091
v 6.059578 0.827505 -4.981049
v 6.063621 0.850000 -4.976552
v 1.098103 0.700000 0.237241
vn 0.703146 -0.258957 0.662214
f 717/1/180 718/2/180 719/3/180 720/4/180
v 6.063621 0.850000 -4.976552
v 6.030388 0.894990 -5.006907
v 6.046768 0.888963 -4.991481
v 6.058932 0.872495 -4.980370
vn 0.689506 0.020829 -0.723981
f 721/1/181 722/2/181 723/3/181 724/4/181
v 6.063621 0.850000 -4.976552
v 6.002491 0.872495 -5.034123
v 6.014182 0.888963 -5.022516
v 6.030388 0.894990 -5.006907
vn 0.689506 0.020829 -0.723981
f 725/1/182 726/2/182 727/3/182 728/4/182
v 6.063621 0.850000 -4.976552
v 6.003137 0.827505 -5.034802
v 5.998448 0.850000 -5.038621
v 6.002491 0.872495 -5.034123
vn 0.689506 0.020829 -0.723981
f 729/1/183 730/2/183 731/3/183 732/4/183
v 6.063621 0.850000 -4.976552
v 6.031681 0.805010 -5.008265
v 6.015301 0.811037 -5.023691
v 6.003137 0.827505 -5.034802
vn 0.689506 0.020829 -0.723981
f 733/1/184 734/2/184 735/3/184 736/4/184
v 6.063621 0.850000 -4.976552
v 6.059578 0.827505 -4.981049
v 6.047887 0.811037 -4.992657
v 6.031681 0.805010 -5.008265
vn 0.689506 0.020829 -0.723981
f 737/1/185 738/2/185 739/3/185 740/4/185
v 6.048759 0.849792 -4.976897
v 6.179793 0.850000 -5.114483
v 6.176482 0.867000 -5.117611
v 6.045447 0.866792 -4.980025
vn 0.699268 0.258819 0.666361
f 741/1/186 742/2/186 743/3/186 744/4/186
v 6.045447 0.866792 -4.980025
v 6.176482 0.867000 -5.117611
v 6.167460 0.879445 -5.126184
v 6.036426 0.879237 -4.988597
vn 0.511508 0.707106 0.488221
f 745/1/187 746/2/187 747/3/187 748/4/187
v 6.036426 0.879237 -4.988597
v 6.167460 0.879445 -5.126184
v 6.155147 0.884000 -5.137904
v 6.024112 0.883792 -5.000318
vn 0.186690 0.965925 0.179263
f 749/1/188 750/2/188 751/3/188 752/4/188
v 6.024112 0.883792 -5.000318
v 6.155147 0.884000 -5.137904
v 6.142840 0.879445 -5.149632
v 6.011805 0.879237 -5.012046
vn -0.188151 0.965925 -0.177729
f 753/1/189 754/2/189 755/3/189 756/4/189
v 6.011805 0.879237 -5.012046
v 6.142840 0.879445 -5.149632
v 6.133837 0.867000 -5.158224
v 6.002803 0.866792 -5.020638
vn -0.512578 0.707106 -0.487098
f 757/1/190 758/2/190 759/3/190 760/4/190
v 6.002803 0.866792 -5.020638
v 6.133837 0.867000 -5.158224
v 6.130552 0.850000 -5.161379
v 5.999517 0.849792 -5.023793
vn -0.699659 0.258819 -0.665950
f 761/1/191 762/2/191 763/3/191 764/4/191
v 5.999517 0.849792 -5.023793
v 6.130552 0.850000 -5.161379
v 6.133863 0.833000 -5.158251
v 6.002829 0.832792 -5.020665
vn -0.699268 -0.258819 -0.666361
f 765/1/192 766/2/192 767/3/192 768/4/192
v 6.002829 0.832792 -5.020665
v 6.133863 0.833000 -5.158251
v 6.142884 0.820555 -5.149679
v 6.011850 0.820347 -5.012092
vn -0.511508 -0.707106 -0.488221
f 769/1/193 770/2/193 771/3/193 772/4/193
v 6.011850 0.820347 -5.012092
v 6.142884 0.820555 -5.149679
v 6.155198 0.816000 -5.137958
v 6.024164 0.815792 -5.000372
vn -0.186690 -0.965925 -0.179263
f 773/1/194 774/2/194 775/3/194 776/4/194
v 6.024164 0.815792 -5.000372
v 6.155198 0.816000 -5.137958
v 6.167505 0.820555 -5.126230
v 6.036471 0.820347 -4.988644
vn 0.188151 -0.965925 0.177729
f 777/1/195 778/2/195 779/3/195 780/4/195
v 6.036471 0.820347 -4.988644
v 6.167505 0.820555 -5.126230
v 6.176507 0.833000 -5.117638
v 6.045473 0.832792 -4.980052
vn 0.512578 -0.707106 0.487098
f 781/1/196 782/2/196 783/3/196 784/4/196
v 6.045473 0.832792 -4.980052
v 6.176507 0.833000 -5.117638
v 6.179793 0.850000 -5.114483
v 6.048759 0.849792 -4.976897
vn 0.699659 -0.258819 0.665950
f 785/1/197 786/2/197 787/3/197 788/4/197
v 6.179793 0.850000 -5.114483
v 6.155147 0.884000 -5.137904
v 6.167460 0.879445 -5.126184
v 6.176482 0.867000 -5.117611
vn 0.689655 0.001096 -0.724137
f 789/1/198 790/2/198 791/3/198 792/4/198
v 6.179793 0.850000 -5.114483
v 6.133837 0.867000 -5.158224
v 6.142840 0.879445 -5.149632
v 6.155147 0.884000 -5.137904
vn 0.689655 0.001096 -0.724137
f 793/1/199 794/2/199 795/3/199 796/4/199
v 6.179793 0.850000 -5.114483
v 6.133863 0.833000 -5.158251
v 6.130552 0.850000 -5.161379
v 6.133837 0.867000 -5.158224
vn 0.689655 0.001096 -0.724137
f 797/1/200 798/2/200 799/3/200 800/4/200
v 6.179793 0.850000 -5.114483
v 6.155198 0.816000 -5.137958
v 6.142884 0.820555 -5.149679
v 6.133863 0.833000 -5.158251
vn 0.689655 0.001096 -0.724137
f 801/1/201 802/2/201 803/3/201 804/4/201
v 6.179793 0.850000 -5.114483
v 6.176507 0.833000 -5.117638
v 6.167505 0.820555 -5.126230
v 6.155198 0.816000 -5.137958
vn 0.689655 0.001096 -0.724137
f 805/1/202 806/2/202 807/3/202 808/4/202
v 0.516872 0.125000 0.904119
v 1.137562 0.674667 0.162395
v 1.127687 0.688191 0.164154
v 0.506997 0.138525 0.905878
vn 0.587180 0.332706 0.737921
f 809/1/203 810/2/203 811/3/203 812/4/203
v 0.506997 0.138525 0.905878
v 1.127687 0.688191 0.164154
v 1.113714 0.693794 0.156612
v 0.493024 0.144127 0.898336
vn 0.000522 0.803223 0.595678
f 813/1/204 814/2/204 815/3/204 816/4/204
v 0.493024 0.144127 0.898336
v 1.113714 0.693794 0.156612
v 1.103827 0.688191 0.144187
v 0.483137 0.138525 0.885911
vn -0.586441 0.803223 0.104495
f 817/1/205 818/2/205 819/3/205 820/4/205
v 0.483137 0.138525 0.885911
v 1.103827 0.688191 0.144187
v 1.103818 0.674667 0.134157
v 0.483128 0.125000 0.875881
vn -0.829875 0.332706 -0.447899
f 821/1/206 822/2/206 823/3/206 824/4/206
v 0.483128 0.125000 0.875881
v 1.103818 0.674667 0.134157
v 1.113692 0.661142 0.132398
v 0.493003 0.111475 0.874122
vn -0.587180 -0.332706 -0.737921
f 825/1/207 826/2/207 827/3/207 828/4/207
v 0.493003 0.111475 0.874122
v 1.113692 0.661142 0.132398
v 1.127666 0.655540 0.139939
v 0.506976 0.105873 0.881664
vn -0.000522 -0.803223 -0.595678
f 829/1/208 830/2/208 831/3/208 832/4/208
v 0.506976 0.105873 0.881664
v 1.127666 0.655540 0.139939
v 1.137553 0.661142 0.152365
v 0.516863 0.111475 0.894089
vn 0.586441 -0.803223 -0.104495
f 833/1/209 834/2/209 835/3/209 836/4/209
v 0.516863 0.111475 0.894089
v 1.137553 0.661142 0.152365
v 1.137562 0.674667 0.162395
v 0.516872 0.125000 0.904119
vn 0.829875 -0.332706 0.447899
f 837/1/210 838/2/210 839/3/210 840/4/210
v 1.137562 0.674667 0.162395
v 1.103827 0.688191 0.144187
v 1.113714 0.693794 0.156612
v 1.127687 0.688191 0.164154
vn 0.557949 0.494105 -0.666749
f 841/1/211 842/2/211 843/3/211 844/4/211
v 1.137562 0.674667 0.162395
v 1.113692 0.661142 0.132398
v 1.103818 0.674667 0.134157
v 1.103827 0.688191 0.144187
vn 0.557949 0.494105 -0.666749
f 845/1/212 846/2/212 847/3/212 848/4/212
v 1.137562 0.674667 0.162395
v 1.137553 0.661142 0.152365
v 1.127666 0.655540 0.139939
v 1.113692 0.661142 0.132398
vn 0.557949 0.494105 -0.666749
f 849/1/213 850/2/213 851/3/213 852/4/213
usemtl clamp
v 0.468750 0.750000 0.900000
v 0.531250 0.750000 0.900000
v 0.531250 0.812500 0.900000
v 0.468750 0.812500 0.900000
vn 0.000000 0.000000 1.000000
f 853/1/214 854/2/214 855/3/214 856/4/214
v 0.531250 0.750000 0.812500
v 0.468750 0.750000 0.812500
v 0.468750 0.812500 0.812500
v 0.531250 0.812500 0.812500
vn 0.000000 0.000000 -1.000000
f 857/1/215 858/2/215 859/3/215 860/4/215
v 0.531250 0.750000 0.900000
v 0.531250 0.750000 0.812500
v 0.531250 0.812500 0.812500
v 0.531250 0.812500 0.900000
vn 1.000000 -0.000000 0.000000
f 861/1/216 862/2/216 863/3/216 864/4/216
v 0.468750 0.750000 0.812500
v 0.468750 0.750000 0.900000
v 0.468750 0.812500 0.900000
v 0.468750 0.812500 0.812500
vn -1.000000 0.000000 0.000000
f 865/1/217 866/2/217 867/3/217 868/4/217
v 0.468750 0.812500 0.900000
v 0.531250 0.812500 0.900000
v 0.531250 0.812500 0.812500
v 0.468750 0.812500 0.812500
vn -0.000000 1.000000 0.000000
f 869/1/218 870/2/218 871/3/218 872/4/218
v 0.468750 0.750000 0.812500
v 0.531250 0.750000 0.812500
v 0.531250 0.750000 0.900000
v 0.468750 0.750000 0.900000
vn 0.000000 -1.000000 0.000000
f 873/1/219 874/2/219 875/3/219 876/4/219
usemtl porcelain
v 0.437500 0.812500 0.875000
v 0.562500 0.812500 0.875000
v 0.562500 0.937500 0.875000
v 0.437500 0.937500 0.875000
vn 0.000000 0.000000 1.000000
f 877/1/220 878/2/220 879/3/220 880/4/220
v 0.562500 0.812500 0.750000
v 0.437500 0.812500 0.750000
v 0.437500 0.937500 0.750000
v 0.562500 0.937500 0.750000
vn 0.000000 0.000000 -1.000000
f 881/1/221 882/2/221 883/3/221 884/4/221
v 0.562500 0.812500 0.875000
v 0.562500 0.812500 0.750000
v 0.562500 0.937500 0.750000
v 0.562500 0.937500 0.875000
vn 1.000000 -0.000000 0.000000
f 885/1/222 886/2/222 887/3/222 888/4/222
v 0.437500 0.812500 0.750000
v 0.437500 0.812500 0.875000
v 0.437500 0.937500 0.875000
v 0.437500 0.937500 0.750000
vn -1.000000 0.000000 0.000000
f 889/1/223 890/2/223 891/3/223 892/4/223
v 0.437500 0.937500 0.875000
v 0.562500 0.937500 0.875000
v 0.562500 0.937500 0.750000
v 0.437500 0.937500 0.750000
vn -0.000000 1.000000 0.000000
f 893/1/224 894/2/224 895/3/224 896/4/224
v 0.437500 0.812500 0.750000
v 0.562500 0.812500 0.750000
v 0.562500 0.812500 0.875000
v 0.437500 0.812500 0.875000
vn 0.000000 -1.000000 0.000000
f 897/1/225 898/2/225 899/3/225 900/4/225
usemtl cable
v 0.500000 0.870214 0.766312
v 0.747544 0.202133 0.564715
v 0.746412 0.215211 0.553913
v 0.513956 0.877107 0.759476
vn 0.473291 -0.089087 0.876390
f 901/1/226 902/2/226 903/3/226 904/4/226
v 0.513956 0.877107 0.759476
v 0.746412 0.215211 0.553913
v 0.734500 0.215211 0.541784
v 0.513956 0.881893 0.743164
vn 0.948083 0.305160 0.089531
f 905/1/227 906/2/227 907/3/227 908/4/227
v 0.513956 0.881893 0.743164
v 0.734500 0.215211 0.541784
v 0.723720 0.202133 0.540458
v 0.500000 0.879786 0.733688
vn 0.474645 0.394661 -0.786737
f 909/1/228 910/2/228 911/3/228 912/4/228
v 0.500000 0.879786 0.733688
v 0.723720 0.202133 0.540458
v 0.724852 0.189055 0.551260
v 0.486044 0.872893 0.740524
vn -0.474622 0.092889 -0.875274
f 913/1/229 914/2/229 915/3/229 916/4/229
v 0.486044 0.872893 0.740524
v 0.724852 0.189055 0.551260
v 0.736764 0.189055 0.563389
v 0.486044 0.868107 0.756836
vn -0.947749 -0.306113 -0.089811
f 917/1/230 918/2/230 919/3/230 920/4/230
v 0.486044 0.868107 0.756836
v 0.736764 0.189055 0.563389
v 0.747544 0.202133 0.564715
v 0.500000 0.870214 0.766312
vn -0.473285 -0.398546 0.785597
f 921/1/231 922/2/231 923/3/231 924/4/231
v 0.747544 0.202133 0.564715
v 0.983575 0.267475 0.316897
v 0.977412 0.282197 0.311043
v 0.746412 0.215211 0.553913
vn 0.512933 0.572638 0.639520
f 925/1/232 926/2/232 927/3/232 928/4/232
v 0.746412 0.215211 0.553913
v 0.977412 0.282197 0.311043
v 0.965101 0.282197 0.299319
v 0.734500 0.215211 0.541784
vn -0.139897 0.980587 0.137397
f 929/1/233 930/2/233 931/3/233 932/4/233
v 0.734500 0.215211 0.541784
v 0.965101 0.282197 0.299319
v 0.958954 0.267475 0.293448
v 0.723720 0.202133 0.540458
vn -0.659766 0.590935 -0.464225
f 933/1/234 934/2/234 935/3/234 936/4/234
v 0.723720 0.202133 0.540458
v 0.958954 0.267475 0.293448
v 0.965117 0.252752 0.299302
v 0.724852 0.189055 0.551260
vn -0.512611 -0.572745 -0.639682
f 937/1/235 938/2/235 939/3/235 940/4/235
v 0.724852 0.189055 0.551260
v 0.965117 0.252752 0.299302
v 0.977427 0.252752 0.311026
v 0.736764 0.189055 0.563389
vn 0.128466 -0.983655 -0.126171
f 941/1/236 942/2/236 943/3/236 944/4/236
v 0.736764 0.189055 0.563389
v 0.977427 0.252752 0.311026
v 0.983575 0.267475 0.316897
v 0.747544 0.202133 0.564715
vn 0.654424 -0.587700 0.475750
f 945/1/237 946/2/237 947/3/237 948/4/237
v 0.983575 0.267475 0.316897
v 1.219207 0.202680 0.069483
v 1.215049 0.217115 0.061523
v 0.977412 0.282197 0.311043
vn 0.689407 0.497822 0.526205
f 949/1/238 950/2/238 951/3/238 952/4/238
v 0.977412 0.282197 0.311043
v 1.215049 0.217115 0.061523
v 1.202739 0.217115 0.049799
v 0.965101 0.282197 0.299319
vn 0.127997 0.982626 -0.134397
f 953/1/239 954/2/239 955/3/239 956/4/239
v 0.965101 0.282197 0.299319
v 1.202739 0.217115 0.049799
v 1.194586 0.202680 0.046034
v 0.958954 0.267475 0.293448
vn -0.559472 0.497839 -0.662682
f 957/1/240 958/2/240 959/3/240 960/4/240
v 0.958954 0.267475 0.293448
v 1.194586 0.202680 0.046034
v 1.198744 0.188245 0.053994
v 0.965117 0.252752 0.299302
vn -0.689407 -0.497822 -0.526205
f 961/1/241 962/2/241 963/3/241 964/4/241
v 0.965117 0.252752 0.299302
v 1.198744 0.188245 0.053994
v 1.211054 0.188245 0.065718
v 0.977427 0.252752 0.311026
vn -0.129007 -0.982348 0.135457
f 965/1/242 966/2/242 967/3/242 968/4/242
v 0.977427 0.252752 0.311026
v 1.211054 0.188245 0.065718
v 1.219207 0.202680 0.069483
v 0.983575 0.267475 0.316897
vn 0.558901 -0.497804 0.663190
f 969/1/243 970/2/243 971/3/243 972/4/243
v 1.219207 0.202680 0.069483
v 1.454839 0.130339 -0.177931
v 1.450615 0.144793 -0.185821
v 1.215049 0.217115 0.061523
vn 0.698543 0.489177 0.522249
f 973/1/244 974/2/244 975/3/244 976/4/244
v 1.215049 0.217115 0.061523
v 1.450615 0.144793 -0.185821
v 1.438305 0.144793 -0.197545
v 1.202739 0.217115 0.049799
vn 0.142857 0.978311 -0.150000
f 977/1/245 978/2/245 979/3/245 980/4/245
v 1.202739 0.217115 0.049799
v 1.438305 0.144793 -0.197545
v 1.430218 0.130339 -0.201379
v 1.194586 0.202680 0.046034
vn -0.555682 0.489176 -0.672253
f 981/1/246 982/2/246 983/3/246 984/4/246
v 1.194586 0.202680 0.046034
v 1.430218 0.130339 -0.201379
v 1.434443 0.115885 -0.193490
v 1.198744 0.188245 0.053994
vn -0.698543 -0.489177 -0.522249
f 985/1/247 986/2/247 987/3/247 988/4/247
v 1.198744 0.188245 0.053994
v 1.434443 0.115885 -0.193490
v 1.446753 0.115885 -0.181766
v 1.211054 0.188245 0.065718
vn -0.142851 -0.978312 0.149994
f 989/1/248 990/2/248 991/3/248 992/4/248
v 1.211054 0.188245 0.065718
v 1.446753 0.115885 -0.181766
v 1.454839 0.130339 -0.177931
v 1.219207 0.202680 0.069483
vn 0.555684 -0.489177 0.672251
f 993/1/249 994/2/249 995/3/249 996/4/249
v 1.454839 0.130339 -0.177931
v 1.690471 0.070265 -0.425345
v 1.685925 0.084801 -0.432896
v 1.450615 0.144793 -0.185821
vn 0.686819 0.492501 0.534530
f 997/1/250 998/2/250 999/3/250 1000/4/250
v 1.450615 0.144793 -0.185821
v 1.685925 0.084801 -0.432896
v 1.673614 0.084801 -0.444620
v 1.438305 0.144793 -0.197545
vn 0.119426 0.984892 -0.125398
f 1001/1/251 1002/2/251 1003/3/251 1004/4/251
v 1.438305 0.144793 -0.197545
v 1.673614 0.084801 -0.444620
v 1.665851 0.070265 -0.448793
v 1.430218 0.130339 -0.201379
vn -0.567378 0.492501 -0.659942
f 1005/1/252 1006/2/252 1007/3/252 1008/4/252
v 1.430218 0.130339 -0.201379
v 1.665851 0.070265 -0.448793
v 1.670397 0.055728 -0.441242
v 1.434443 0.115885 -0.193490
vn -0.686819 -0.492501 -0.534530
f 1009/1/253 1010/2/253 1011/3/253 1012/4/253
v 1.434443 0.115885 -0.193490
v 1.670397 0.055728 -0.441242
v 1.682708 0.055728 -0.429518
v 1.446753 0.115885 -0.181766
vn -0.119429 -0.984892 0.125400
f 1013/1/254 1014/2/254 1015/3/254 1016/4/254
v 1.446753 0.115885 -0.181766
v 1.682708 0.055728 -0.429518
v 1.690471 0.070265 -0.425345
v 1.454839 0.130339 -0.177931
vn 0.567377 -0.492501 0.659944
f 1017/1/255 1018/2/255 1019/3/255 1020/4/255
v 1.690471 0.070265 -0.425345
v 1.926103 0.020670 -0.672759
v 1.921269 0.035267 -0.680007
v 1.685925 0.084801 -0.432896
vn 0.676643 0.494856 0.545227
f 1021/1/256 1022/2/256 1023/3/256 1024/4/256
v 1.685925 0.084801 -0.432896
v 1.921269 0.035267 -0.680007
v 1.908959 0.035267 -0.691731
v 1.673614 0.084801 -0.444620
vn 0.099069 0.989629 -0.104022
f 1025/1/257 1026/2/257 1027/3/257 1028/4/257
v 1.673614 0.084801 -0.444620
v 1.908959 0.035267 -0.691731
v 1.901483 0.020670 -0.696207
v 1.665851 0.070265 -0.448793
vn -0.577566 0.494856 -0.649258
f 1029/1/258 1030/2/258 1031/3/258 1032/4/258
v 1.665851 0.070265 -0.448793
v 1.901483 0.020670 -0.696207
v 1.906317 0.006073 -0.688958
v 1.670397 0.055728 -0.441242
vn -0.676643 -0.494856 -0.545227
f 1033/1/259 1034/2/259 1035/3/259 1036/4/259
v 1.670397 0.055728 -0.441242
v 1.906317 0.006073 -0.688958
v 1.918628 0.006073 -0.677234
v 1.682708 0.055728 -0.429518
vn -0.099070 -0.989628 0.104023
f 1037/1/260 1038/2/260 1039/3/260 1040/4/260
v 1.682708 0.055728 -0.429518
v 1.918628 0.006073 -0.677234
v 1.926103 0.020670 -0.672759
v 1.690471 0.070265 -0.425345
vn 0.577565 -0.494856 0.649258
f 1041/1/261 1042/2/261 1043/3/261 1044/4/261
v 1.926103 0.020670 -0.672759
v 2.161736 -0.019394 -0.920172
v 2.156631 -0.004750 -0.927138
v 1.921269 0.035267 -0.680007
vn 0.667269 0.496633 0.555075
f 1045/1/262 1046/2/262 1047/3/262 1048/4/262
v 1.921269 0.035267 -0.680007
v 2.156631 -0.004750 -0.927138
v 2.144321 -0.004750 -0.938862
v 1.908959 0.035267 -0.691731
vn 0.080318 0.993195 -0.084334
f 1049/1/263 1050/2/263 1051/3/263 1052/4/263
v 1.908959 0.035267 -0.691731
v 2.144321 -0.004750 -0.938862
v 2.137115 -0.019394 -0.943621
v 1.901483 0.020670 -0.696207
vn -0.586945 0.496633 -0.639415
f 1053/1/264 1054/2/264 1055/3/264 1056/4/264
v 1.901483 0.020670 -0.696207
v 2.137115 -0.019394 -0.943621
v 2.142219 -0.034037 -0.936655
v 1.906317 0.006073 -0.688958
vn -0.667269 -0.496633 -0.555075
f 1057/1/265 1058/2/265 1059/3/265 1060/4/265
v 1.906317 0.006073 -0.688958
v 2.142219 -0.034037 -0.936655
v 2.154529 -0.034037 -0.924931
v 1.918628 0.006073 -0.677234
vn -0.080318 -0.993195 0.084334
f 1061/1/266 1062/2/266 1063/3/266 1064/4/266
v 1.918628 0.006073 -0.677234
v 2.154529 -0.034037 -0.924931
v 2.161736 -0.019394 -0.920172
v 1.926103 0.020670 -0.672759
vn 0.586945 -0.496633 0.639415
f 1065/1/267 1066/2/267 1067/3/267 1068/4/267
v 2.161736 -0.019394 -0.920172
v 2.397368 -0.050457 -1.167586
v 2.392004 -0.035779 -1.174279
v 2.156631 -0.004750 -0.927138
vn 0.658333 0.497978 0.564461
f 1069/1/268 1070/2/268 1071/3/268 1072/4/268
v 2.156631 -0.004750 -0.927138
v 2.392004 -0.035779 -1.174279
v 2.379694 -0.035779 -1.186003
v 2.144321 -0.004750 -0.938862
vn 0.062444 0.995892 -0.065566
f 1073/1/269 1074/2/269 1075/3/269 1076/4/269
v 2.144321 -0.004750 -0.938862
v 2.379694 -0.035779 -1.186003
v 2.372747 -0.050457 -1.191034
v 2.137115 -0.019394 -0.943621
vn -0.595885 0.497978 -0.630031
f 1077/1/270 1078/2/270 1079/3/270 1080/4/270
v 2.137115 -0.019394 -0.943621
v 2.372747 -0.050457 -1.191034
v 2.378111 -0.065135 -1.184341
v 2.142219 -0.034037 -0.936655
vn -0.658333 -0.497978 -0.564461
f 1081/1/271 1082/2/271 1083/3/271 1084/4/271
v 2.142219 -0.034037 -0.936655
v 2.378111 -0.065135 -1.184341
v 2.390421 -0.065135 -1.172617
v 2.154529 -0.034037 -0.924931
vn -0.062444 -0.995892 0.065567
f 1085/1/272 1086/2/272 1087/3/272 1088/4/272
v 2.154529 -0.034037 -0.924931
v 2.390421 -0.065135 -1.172617
v 2.397368 -0.050457 -1.167586
v 2.161736 -0.019394 -0.920172
vn 0.595884 -0.497978 0.630032
f 1089/1/273 1090/2/273 1091/3/273 1092/4/273
v 2.397368 -0.050457 -1.167586
v 2.633000 -0.072826 -1.415000
v 2.627382 -0.058124 -1.421426
v 2.392004 -0.035779 -1.174279
vn 0.649638 0.498962 0.573591
f 1093/1/274 1094/2/274 1095/3/274 1096/4/274
v 2.392004 -0.035779 -1.174279
v 2.627382 -0.058124 -1.421426
v 2.615072 -0.058124 -1.433150
v 2.379694 -0.035779 -1.186003
vn 0.045055 0.997864 -0.047308
f 1097/1/275 1098/2/275 1099/3/275 1100/4/275
v 2.379694 -0.035779 -1.186003
v 2.615072 -0.058124 -1.433150
v 2.608379 -0.072826 -1.438448
v 2.372747 -0.050457 -1.191034
vn -0.604580 0.498962 -0.620902
f 1101/1/276 1102/2/276 1103/3/276 1104/4/276
v 2.372747 -0.050457 -1.191034
v 2.608379 -0.072826 -1.438448
v 2.613997 -0.087528 -1.432022
v 2.378111 -0.065135 -1.184341
vn -0.649638 -0.498962 -0.573591
f 1105/1/277 1106/2/277 1107/3/277 1108/4/277
v 2.378111 -0.065135 -1.184341
v 2.613997 -0.087528 -1.432022
v 2.626307 -0.087528 -1.420298
v 2.390421 -0.065135 -1.172617
vn -0.045056 -0.997864 0.047308
f 1109/1/278 1110/2/278 1111/3/278 1112/4/278
v 2.390421 -0.065135 -1.172617
v 2.626307 -0.087528 -1.420298
v 2.633000 -0.072826 -1.415000
v 2.397368 -0.050457 -1.167586
vn 0.604580 -0.498962 0.620903
f 1113/1/279 1114/2/279 1115/3/279 1116/4/279
v 2.633000 -0.072826 -1.415000
v 2.868632 -0.086677 -1.662414
v 2.862763 -0.071960 -1.668577
v 2.627382 -0.058124 -1.421426
vn 0.641078 0.499619 0.582581
f 1117/1/280 1118/2/280 1119/3/280 1120/4/280
v 2.627382 -0.058124 -1.421426
v 2.862763 -0.071960 -1.668577
v 2.850453 -0.071960 -1.680301
v 2.615072 -0.058124 -1.433150
vn 0.027934 0.999179 -0.029331
f 1121/1/281 1122/2/281 1123/3/281 1124/4/281
v 2.615072 -0.058124 -1.433150
v 2.850453 -0.071960 -1.680301
v 2.844011 -0.086677 -1.685862
v 2.608379 -0.072826 -1.438448
vn -0.613142 0.499619 -0.611914
f 1125/1/282 1126/2/282 1127/3/282 1128/4/282
v 2.608379 -0.072826 -1.438448
v 2.844011 -0.086677 -1.685862
v 2.849880 -0.101393 -1.679699
v 2.613997 -0.087528 -1.432022
vn -0.641078 -0.499619 -0.582581
f 1129/1/283 1130/2/283 1131/3/283 1132/4/283
v 2.613997 -0.087528 -1.432022
v 2.849880 -0.101393 -1.679699
v 2.862191 -0.101393 -1.667975
v 2.626307 -0.087528 -1.420298
vn -0.027934 -0.999179 0.029331
f 1133/1/284 1134/2/284 1135/3/284 1136/4/284
v 2.626307 -0.087528 -1.420298
v 2.862191 -0.101393 -1.667975
v 2.868632 -0.086677 -1.662414
v 2.633000 -0.072826 -1.415000
vn 0.613142 -0.499619 0.611914
f 1137/1/285 1138/2/285 1139/3/285 1140/4/285
v 2.868632 -0.086677 -1.662414
v 3.104264 -0.092107 -1.909828
v 3.098146 -0.077385 -1.915728
v 2.862763 -0.071960 -1.668577
vn 0.632590 0.499965 0.591493
f 1141/1/286 1142/2/286 1143/3/286 1144/4/286
v 2.862763 -0.071960 -1.668577
v 3.098146 -0.077385 -1.915728
v 3.085836 -0.077385 -1.927453
v 2.850453 -0.071960 -1.680301
vn 0.010960 0.999874 -0.011508
f 1145/1/287 1146/2/287 1147/3/287 1148/4/287
v 2.850453 -0.071960 -1.680301
v 3.085836 -0.077385 -1.927453
v 3.079644 -0.092107 -1.933276
v 2.844011 -0.086677 -1.685862
vn -0.621630 0.499965 -0.603002
f 1149/1/288 1150/2/288 1151/3/288 1152/4/288
v 2.844011 -0.086677 -1.685862
v 3.079644 -0.092107 -1.933276
v 3.085762 -0.106829 -1.927375
v 2.849880 -0.101393 -1.679699
vn -0.632590 -0.499965 -0.591493
f 1153/1/289 1154/2/289 1155/3/289 1156/4/289
v 2.849880 -0.101393 -1.679699
v 3.085762 -0.106829 -1.927375
v 3.098072 -0.106829 -1.915651
v 2.862191 -0.101393 -1.667975
vn -0.010960 -0.999874 0.011508
f 1157/1/290 1158/2/290 1159/3/290 1160/4/290
v 2.862191 -0.101393 -1.667975
v 3.098072 -0.106829 -1.915651
v 3.104264 -0.092107 -1.909828
v 2.868632 -0.086677 -1.662414
vn 0.621630 -0.499965 0.603002
f 1161/1/291 1162/2/291 1163/3/291 1164/4/291
v 3.104264 -0.092107 -1.909828
v 3.339897 -0.089167 -2.157241
v 3.333530 -0.074447 -2.162881
v 3.098146 -0.077385 -1.915728
vn 0.624143 0.500010 0.600364
f 1165/1/292 1166/2/292 1167/3/292 1168/4/292
v 3.098146 -0.077385 -1.915728
v 3.333530 -0.074447 -2.162881
v 3.321220 -0.074447 -2.174606
v 3.085836 -0.077385 -1.927453
vn -0.005935 0.999963 0.006231
f 1169/1/293 1170/2/293 1171/3/293 1172/4/293
v 3.085836 -0.077385 -1.927453
v 3.321220 -0.074447 -2.174606
v 3.315276 -0.089167 -2.180690
v 3.079644 -0.092107 -1.933276
vn -0.630078 0.500010 -0.594132
f 1173/1/294 1174/2/294 1175/3/294 1176/4/294
v 3.079644 -0.092107 -1.933276
v 3.315276 -0.089167 -2.180690
v 3.321642 -0.103886 -2.175050
v 3.085762 -0.106829 -1.927375
vn -0.624143 -0.500010 -0.600364
f 1177/1/295 1178/2/295 1179/3/295 1180/4/295
v 3.085762 -0.106829 -1.927375
v 3.321642 -0.103886 -2.175050
v 3.333953 -0.103886 -2.163325
v 3.098072 -0.106829 -1.915651
vn 0.005935 -0.999963 -0.006231
f 1181/1/296 1182/2/296 1183/3/296 1184/4/296
v 3.098072 -0.106829 -1.915651
v 3.333953 -0.103886 -2.163325
v 3.339897 -0.089167 -2.157241
v 3.104264 -0.092107 -1.909828
vn 0.630078 -0.500010 0.594132
f 1185/1/297 1186/2/297 1187/3/297 1188/4/297
v 3.339897 -0.089167 -2.157241
v 3.575529 -0.077871 -2.404655
v 3.568914 -0.063163 -2.410035
v 3.333530 -0.074447 -2.162881
vn 0.615715 0.499755 0.609212
f 1189/1/298 1190/2/298 1191/3/298 1192/4/298
v 3.333530 -0.074447 -2.162881
v 3.568914 -0.063163 -2.410035
v 3.556604 -0.063163 -2.421759
v 3.321220 -0.074447 -2.174606
vn -0.022788 0.999454 0.023928
f 1193/1/299 1194/2/299 1195/3/299 1196/4/299
v 3.321220 -0.074447 -2.174606
v 3.556604 -0.063163 -2.421759
v 3.550908 -0.077871 -2.428103
v 3.315276 -0.089167 -2.180690
vn -0.638505 0.499755 -0.585283
f 1197/1/300 1198/2/300 1199/3/300 1200/4/300
v 3.315276 -0.089167 -2.180690
v 3.550908 -0.077871 -2.428103
v 3.557523 -0.092578 -2.422724
v 3.321642 -0.103886 -2.175050
vn -0.615715 -0.499755 -0.609212
f 1201/1/301 1202/2/301 1203/3/301 1204/4/301
v 3.321642 -0.103886 -2.175050
v 3.557523 -0.092578 -2.422724
v 3.569833 -0.092578 -2.411000
v 3.333953 -0.103886 -2.163325
vn 0.022788 -0.999454 -0.023928
f 1205/1/302 1206/2/302 1207/3/302 1208/4/302
v 3.333953 -0.103886 -2.163325
v 3.569833 -0.092578 -2.411000
v 3.575529 -0.077871 -2.404655
v 3.339897 -0.089167 -2.157241
vn 0.638505 -0.499755 0.585283
f 1209/1/303 1210/2/303 1211/3/303 1212/4/303
v 3.575529 -0.077871 -2.404655
v 3.811161 -0.058204 -2.652069
v 3.804298 -0.043518 -2.657188
v 3.568914 -0.063163 -2.410035
vn 0.607293 0.499202 0.618055
f 1213/1/304 1214/2/304 1215/3/304 1216/4/304
v 3.568914 -0.063163 -2.410035
v 3.804298 -0.043518 -2.657188
v 3.791988 -0.043518 -2.668912
v 3.556604 -0.063163 -2.421759
vn -0.039631 0.998348 0.041613
f 1217/1/305 1218/2/305 1219/3/305 1220/4/305
v 3.556604 -0.063163 -2.421759
v 3.791988 -0.043518 -2.668912
v 3.786540 -0.058204 -2.675517
v 3.550908 -0.077871 -2.428103
vn -0.646927 0.499202 -0.576440
f 1221/1/306 1222/2/306 1223/3/306 1224/4/306
v 3.550908 -0.077871 -2.428103
v 3.786540 -0.058204 -2.675517
v 3.793403 -0.072891 -2.670398
v 3.557523 -0.092578 -2.422724
vn -0.607293 -0.499202 -0.618055
f 1225/1/307 1226/2/307 1227/3/307 1228/4/307
v 3.557523 -0.092578 -2.422724
v 3.793403 -0.072891 -2.670398
v 3.805713 -0.072891 -2.658674
v 3.569833 -0.092578 -2.411000
vn 0.039631 -0.998348 -0.041613
f 1229/1/308 1230/2/308 1231/3/308 1232/4/308
v 3.569833 -0.092578 -2.411000
v 3.805713 -0.072891 -2.658674
v 3.811161 -0.058204 -2.652069
v 3.575529 -0.077871 -2.404655
vn 0.646927 -0.499202 0.576440
f 1233/1/309 1234/2/309 1235/3/309 1236/4/309
v 3.811161 -0.058204 -2.652069
v 4.046793 -0.030118 -2.899483
v 4.039681 -0.015461 -2.904340
v 3.804298 -0.043518 -2.657188
vn 0.598857 0.498347 0.626913
f 1237/1/310 1238/2/310 1239/3/310 1240/4/310
v 3.804298 -0.043518 -2.657188
v 4.039681 -0.015461 -2.904340
v 4.027371 -0.015461 -2.916064
v 3.791988 -0.043518 -2.668912
vn -0.056502 0.996638 0.059327
f 1241/1/311 1242/2/311 1243/3/311 1244/4/311
v 3.791988 -0.043518 -2.668912
v 4.027371 -0.015461 -2.916064
v 4.022172 -0.030118 -2.922931
v 3.786540 -0.058204 -2.675517
vn -0.655363 0.498347 -0.567582
f 1245/1/312 1246/2/312 1247/3/312 1248/4/312
v 3.786540 -0.058204 -2.675517
v 4.022172 -0.030118 -2.922931
v 4.029284 -0.044775 -2.918074
v 3.793403 -0.072891 -2.670398
vn -0.598857 -0.498347 -0.626913
f 1249/1/313 1250/2/313 1251/3/313 1252/4/313
v 3.793403 -0.072891 -2.670398
v 4.029284 -0.044775 -2.918074
v 4.041595 -0.044775 -2.906349
v 3.805713 -0.072891 -2.658674
vn 0.056502 -0.996638 -0.059327
f 1253/1/314 1254/2/314 1255/3/314 1256/4/314
v 3.805713 -0.072891 -2.658674
v 4.041595 -0.044775 -2.906349
v 4.046793 -0.030118 -2.899483
v 3.811161 -0.058204 -2.652069
vn 0.655363 -0.498347 0.567582
f 1257/1/315 1258/2/315 1259/3/315 1260/4/315
v 4.046793 -0.030118 -2.899483
v 4.282425 0.006487 -3.146897
v 4.275062 0.021105 -3.151490
v 4.039681 -0.015461 -2.904340
vn 0.590374 0.497183 0.635820
f 1261/1/316 1262/2/316 1263/3/316 1264/4/316
v 4.039681 -0.015461 -2.904340
v 4.275062 0.021105 -3.151490
v 4.262752 0.021105 -3.163214
v 4.027371 -0.015461 -2.916064
vn -0.073467 0.994310 0.077140
f 1265/1/317 1266/2/317 1267/3/317 1268/4/317
v 4.027371 -0.015461 -2.916064
v 4.262752 0.021105 -3.163214
v 4.257805 0.006487 -3.170345
v 4.022172 -0.030118 -2.922931
vn -0.663845 0.497183 -0.558675
f 1269/1/318 1270/2/318 1271/3/318 1272/4/318
v 4.022172 -0.030118 -2.922931
v 4.257805 0.006487 -3.170345
v 4.265168 -0.008131 -3.165751
v 4.029284 -0.044775 -2.918074
vn -0.590374 -0.497183 -0.635820
f 1273/1/319 1274/2/319 1275/3/319 1276/4/319
v 4.029284 -0.044775 -2.918074
v 4.265168 -0.008131 -3.165751
v 4.277478 -0.008131 -3.154027
v 4.041595 -0.044775 -2.906349
vn 0.073467 -0.994310 -0.077141
f 1277/1/320 1278/2/320 1279/3/320 1280/4/320
v 4.041595 -0.044775 -2.906349
v 4.277478 -0.008131 -3.154027
v 4.282425 0.006487 -3.146897
v 4.046793 -0.030118 -2.899483
vn 0.663846 -0.497183 0.558675
f 1281/1/321 1282/2/321 1283/3/321 1284/4/321
v 4.282425 0.006487 -3.146897
v 4.518057 0.051787 -3.394310
v 4.510438 0.066355 -3.398635
v 4.275062 0.021105 -3.151490
vn 0.581785 0.495692 0.644838
f 1285/1/322 1286/2/322 1287/3/322 1288/4/322
v 4.275062 0.021105 -3.151490
v 4.510438 0.066355 -3.398635
v 4.498128 0.066355 -3.410359
v 4.262752 0.021105 -3.163214
vn -0.090644 0.991325 0.095176
f 1289/1/323 1290/2/323 1291/3/323 1292/4/323
v 4.262752 0.021105 -3.163214
v 4.498128 0.066355 -3.410359
v 4.493437 0.051787 -3.417759
v 4.257805 0.006487 -3.170345
vn -0.672434 0.495692 -0.549656
f 1293/1/324 1294/2/324 1295/3/324 1296/4/324
v 4.257805 0.006487 -3.170345
v 4.493437 0.051787 -3.417759
v 4.501056 0.037218 -3.413434
v 4.265168 -0.008131 -3.165751
vn -0.581785 -0.495692 -0.644838
f 1297/1/325 1298/2/325 1299/3/325 1300/4/325
v 4.265168 -0.008131 -3.165751
v 4.501056 0.037218 -3.413434
v 4.513366 0.037218 -3.401710
v 4.277478 -0.008131 -3.154027
vn 0.090644 -0.991325 -0.095177
f 1301/1/326 1302/2/326 1303/3/326 1304/4/326
v 4.277478 -0.008131 -3.154027
v 4.513366 0.037218 -3.401710
v 4.518057 0.051787 -3.394310
v 4.282425 0.006487 -3.146897
vn 0.672434 -0.495692 0.549656
f 1305/1/327 1306/2/327 1307/3/327 1308/4/327
v 4.518057 0.051787 -3.394310
v 4.753690 0.106087 -3.641724
v 4.745805 0.120594 -3.645770
v 4.510438 0.066355 -3.398635
vn 0.572983 0.493834 0.654079
f 1309/1/328 1310/2/328 1311/3/328 1312/4/328
v 4.510438 0.066355 -3.398635
v 4.745805 0.120594 -3.645770
v 4.733495 0.120594 -3.657495
v 4.498128 0.066355 -3.410359
vn -0.108245 0.987606 0.113658
f 1313/1/329 1314/2/329 1315/3/329 1316/4/329
v 4.498128 0.066355 -3.410359
v 4.733495 0.120594 -3.657495
v 4.729069 0.106087 -3.665172
v 4.493437 0.051787 -3.417759
vn -0.681235 0.493834 -0.540414
f 1317/1/330 1318/2/330 1319/3/330 1320/4/330
v 4.493437 0.051787 -3.417759
v 4.729069 0.106087 -3.665172
v 4.736953 0.091579 -3.661126
v 4.501056 0.037218 -3.413434
vn -0.572983 -0.493834 -0.654079
f 1321/1/331 1322/2/331 1323/3/331 1324/4/331
v 4.501056 0.037218 -3.413434
v 4.736953 0.091579 -3.661126
v 4.749264 0.091579 -3.649402
v 4.513366 0.037218 -3.401710
vn 0.108246 -0.987606 -0.113658
f 1325/1/332 1326/2/332 1327/3/332 1328/4/332
v 4.513366 0.037218 -3.401710
v 4.749264 0.091579 -3.649402
v 4.753690 0.106087 -3.641724
v 4.518057 0.051787 -3.394310
vn 0.681235 -0.493834 0.540414
f 1329/1/333 1330/2/333 1331/3/333 1332/4/333
v 4.753690 0.106087 -3.641724
v 4.989322 0.169918 -3.889138
v 4.981155 0.184348 -3.892888
v 4.745805 0.120594 -3.645770
vn 0.563777 0.491530 0.663742
f 1333/1/334 1334/2/334 1335/3/334 1336/4/334
v 4.745805 0.120594 -3.645770
v 4.981155 0.184348 -3.892888
v 4.968845 0.184348 -3.904612
v 4.733495 0.120594 -3.657495
vn -0.126651 0.982993 0.132984
f 1337/1/335 1338/2/335 1339/3/335 1340/4/335
v 4.733495 0.120594 -3.657495
v 4.968845 0.184348 -3.904612
v 4.964701 0.169918 -3.912586
v 4.729069 0.106087 -3.665172
vn -0.690437 0.491530 -0.530749
f 1341/1/336 1342/2/336 1343/3/336 1344/4/336
v 4.729069 0.106087 -3.665172
v 4.964701 0.169918 -3.912586
v 4.972868 0.155487 -3.908836
v 4.736953 0.091579 -3.661126
vn -0.563777 -0.491530 -0.663742
f 1345/1/337 1346/2/337 1347/3/337 1348/4/337
v 4.736953 0.091579 -3.661126
v 4.972868 0.155487 -3.908836
v 4.985178 0.155487 -3.897112
v 4.749264 0.091579 -3.649402
vn 0.126652 -0.982992 -0.132985
f 1349/1/338 1350/2/338 1351/3/338 1352/4/338
v 4.749264 0.091579 -3.649402
v 4.985178 0.155487 -3.897112
v 4.989322 0.169918 -3.889138
v 4.753690 0.106087 -3.641724
vn 0.690438 -0.491530 0.530748
f 1353/1/339 1354/2/339 1355/3/339 1356/4/339
v 4.989322 0.169918 -3.889138
v 5.224954 0.244228 -4.136552
v 5.216473 0.258559 -4.139971
v 4.981155 0.184348 -3.892888
vn 0.553815 0.488618 0.674197
f 1357/1/340 1358/2/340 1359/3/340 1360/4/340
v 4.981155 0.184348 -3.892888
v 5.216473 0.258559 -4.139971
v 5.204162 0.258559 -4.151695
v 4.968845 0.184348 -3.904612
vn -0.146568 0.977156 0.153896
f 1361/1/341 1362/2/341 1363/3/341 1364/4/341
v 4.968845 0.184348 -3.904612
v 5.204162 0.258559 -4.151695
v 5.200333 0.244228 -4.160000
v 4.964701 0.169918 -3.912586
vn -0.700395 0.488618 -0.520288
f 1365/1/342 1366/2/342 1367/3/342 1368/4/342
v 4.964701 0.169918 -3.912586
v 5.200333 0.244228 -4.160000
v 5.208815 0.229897 -4.156581
v 4.972868 0.155487 -3.908836
vn -0.553815 -0.488618 -0.674197
f 1369/1/343 1370/2/343 1371/3/343 1372/4/343
v 4.972868 0.155487 -3.908836
v 5.208815 0.229897 -4.156581
v 5.221125 0.229897 -4.144856
v 4.985178 0.155487 -3.897112
vn 0.146570 -0.977155 -0.153898
f 1373/1/344 1374/2/344 1375/3/344 1376/4/344
v 4.985178 0.155487 -3.897112
v 5.221125 0.229897 -4.144856
v 5.224954 0.244228 -4.136552
v 4.989322 0.169918 -3.889138
vn 0.700396 -0.488617 0.520287
f 1377/1/345 1378/2/345 1379/3/345 1380/4/345
v 5.224954 0.244228 -4.136552
v 5.460586 0.330805 -4.383966
v 5.451723 0.344994 -4.386984
v 5.216473 0.258559 -4.139971
vn 0.542389 0.484734 0.686183
f 1381/1/346 1382/2/346 1383/3/346 1384/4/346
v 5.216473 0.258559 -4.139971
v 5.451723 0.344994 -4.386984
v 5.439413 0.344994 -4.398708
v 5.204162 0.258559 -4.151695
vn -0.169400 0.969364 0.177870
f 1385/1/347 1386/2/347 1387/3/347 1388/4/347
v 5.204162 0.258559 -4.151695
v 5.439413 0.344994 -4.398708
v 5.435966 0.330805 -4.407414
v 5.200333 0.244228 -4.160000
vn -0.711808 0.484734 -0.508293
f 1389/1/348 1390/2/348 1391/3/348 1392/4/348
v 5.200333 0.244228 -4.160000
v 5.435966 0.330805 -4.407414
v 5.444829 0.316616 -4.404395
v 5.208815 0.229897 -4.156581
vn -0.542389 -0.484734 -0.686183
f 1393/1/349 1394/2/349 1395/3/349 1396/4/349
v 5.208815 0.229897 -4.156581
v 5.444829 0.316616 -4.404395
v 5.457139 0.316616 -4.392671
v 5.221125 0.229897 -4.144856
vn 0.169405 -0.969362 -0.177875
f 1397/1/350 1398/2/350 1399/3/350 1400/4/350
v 5.221125 0.229897 -4.144856
v 5.457139 0.316616 -4.392671
v 5.460586 0.330805 -4.383966
v 5.224954 0.244228 -4.136552
vn 0.711811 -0.484733 0.508290
f 1401/1/351 1402/2/351 1403/3/351 1404/4/351
v 5.460586 0.330805 -4.383966
v 5.696218 0.433419 -4.631379
v 5.686811 0.447366 -4.633826
v 5.451723 0.344994 -4.386984
vn 0.527880 0.478954 0.701388
f 1405/1/352 1406/2/352 1407/3/352 1408/4/352
v 5.451723 0.344994 -4.386984
v 5.686811 0.447366 -4.633826
v 5.674501 0.447366 -4.645551
v 5.439413 0.344994 -4.398708
vn -0.198364 0.957742 0.208282
f 1409/1/353 1410/2/353 1411/3/353 1412/4/353
v 5.439413 0.344994 -4.398708
v 5.674501 0.447366 -4.645551
v 5.671598 0.433419 -4.654828
v 5.435966 0.330805 -4.407414
vn -0.726284 0.478956 -0.493064
f 1413/1/354 1414/2/354 1415/3/354 1416/4/354
v 5.435966 0.330805 -4.407414
v 5.671598 0.433419 -4.654828
v 5.681005 0.419472 -4.652380
v 5.444829 0.316616 -4.404395
vn -0.527880 -0.478954 -0.701388
f 1417/1/355 1418/2/355 1419/3/355 1420/4/355
v 5.444829 0.316616 -4.404395
v 5.681005 0.419472 -4.652380
v 5.693316 0.419472 -4.640656
v 5.457139 0.316616 -4.392671
vn 0.198383 -0.957734 -0.208302
f 1421/1/356 1422/2/356 1423/3/356 1424/4/356
v 5.457139 0.316616 -4.392671
v 5.693316 0.419472 -4.640656
v 5.696218 0.433419 -4.631379
v 5.460586 0.330805 -4.383966
vn 0.726294 -0.478952 0.493054
f 1425/1/357 1426/2/357 1427/3/357 1428/4/357
v 5.696218 0.433419 -4.631379
v 5.931851 0.562167 -4.878793
v 5.920925 0.575163 -4.879646
v 5.686811 0.447366 -4.633826
vn 0.505383 0.468090 0.724900
f 1429/1/358 1430/2/358 1431/3/358 1432/4/358
v 5.686811 0.447366 -4.633826
v 5.920925 0.575163 -4.879646
v 5.908614 0.575163 -4.891370
v 5.674501 0.447366 -4.645551
vn -0.242984 0.935877 0.255133
f 1433/1/359 1434/2/359 1435/3/359 1436/4/359
v 5.674501 0.447366 -4.645551
v 5.908614 0.575163 -4.891370
v 5.907230 0.562167 -4.902241
v 5.671598 0.433419 -4.654828
vn -0.748576 0.468141 -0.469551
f 1437/1/360 1438/2/360 1439/3/360 1440/4/360
v 5.671598 0.433419 -4.654828
v 5.907230 0.562167 -4.902241
v 5.918156 0.549171 -4.901388
v 5.681005 0.419472 -4.652380
vn -0.505383 -0.468090 -0.724900
f 1441/1/361 1442/2/361 1443/3/361 1444/4/361
v 5.681005 0.419472 -4.652380
v 5.918156 0.549171 -4.901388
v 5.930466 0.549171 -4.889664
v 5.693316 0.419472 -4.640656
vn 0.243384 -0.935659 -0.255553
f 1445/1/362 1446/2/362 1447/3/362 1448/4/362
v 5.693316 0.419472 -4.640656
v 5.930466 0.549171 -4.889664
v 5.931851 0.562167 -4.878793
v 5.696218 0.433419 -4.631379
vn 0.748775 -0.468039 0.469335
f 1449/1/363 1450/2/363 1451/3/363 1452/4/363
v 5.931851 0.562167 -4.878793
v 6.167483 0.805000 -5.126207
v 6.155446 0.817000 -5.125893
v 5.920925 0.575163 -4.879646
vn 0.424800 0.410094 0.807073
f 1453/1/364 1454/2/364 1455/3/364 1456/4/364
v 5.920925 0.575163 -4.879646
v 6.155446 0.817000 -5.125893
v 6.143135 0.817000 -5.137617
v 5.908614 0.575163 -4.891370
vn -0.399694 0.814932 0.419678
f 1457/1/365 1458/2/365 1459/3/365 1460/4/365
v 5.908614 0.575163 -4.891370
v 6.143135 0.817000 -5.137617
v 6.142862 0.805000 -5.149655
v 5.907230 0.562167 -4.902241
vn -0.826906 0.410021 -0.384851
f 1461/1/366 1462/2/366 1463/3/366 1464/4/366
v 5.907230 0.562167 -4.902241
v 6.142862 0.805000 -5.149655
v 6.154899 0.793000 -5.149969
v 5.918156 0.549171 -4.901388
vn -0.424800 -0.410094 -0.807073
f 1465/1/367 1466/2/367 1467/3/367 1468/4/367
v 5.918156 0.549171 -4.901388
v 6.154899 0.793000 -5.149969
v 6.167210 0.793000 -5.138245
v 5.930466 0.549171 -4.889664
vn 0.399367 -0.815269 -0.419335
f 1469/1/368 1470/2/368 1471/3/368 1472/4/368
v 5.930466 0.549171 -4.889664
v 6.167210 0.793000 -5.138245
v 6.167483 0.805000 -5.126207
v 5.931851 0.562167 -4.878793
vn 0.826742 -0.410167 0.385047
f 1473/1/369 1474/2/369 1475/3/369 1476/4/369
v 6.167483 0.805000 -5.126207
v 6.142862 0.805000 -5.149655
v 6.143135 0.817000 -5.137617
v 6.155446 0.817000 -5.125893
vn 0.562139 0.579318 -0.590246
f 1477/1/370 1478/2/370 1479/3/370 1480/4/370
v 6.167483 0.805000 -5.126207
v 6.167210 0.793000 -5.138245
v 6.154899 0.793000 -5.149969
v 6.142862 0.805000 -5.149655
vn 0.562139 0.579318 -0.590246
f 1481/1/371 1482/2/371 1483/3/371 1484/4/371
