# Generated by scripts/gen_pole_light_mounts.py
mtllib pole_light_mount.mtl
o pole_light_mount_7_left
vt 0 0
vt 1 0
vt 1 1
vt 0 1
usemtl clamp
v 0.312500 0.062500 1.000000
v 0.687500 0.062500 1.000000
v 0.687500 0.937500 1.000000
v 0.312500 0.937500 1.000000
vn 0.000000 0.000000 1.000000
f 1/1/1 2/2/1 3/3/1 4/4/1
v 0.687500 0.062500 0.900000
v 0.312500 0.062500 0.900000
v 0.312500 0.937500 0.900000
v 0.687500 0.937500 0.900000
vn 0.000000 0.000000 -1.000000
f 5/1/2 6/2/2 7/3/2 8/4/2
v 0.687500 0.062500 1.000000
v 0.687500 0.062500 0.900000
v 0.687500 0.937500 0.900000
v 0.687500 0.937500 1.000000
vn 1.000000 -0.000000 0.000000
f 9/1/3 10/2/3 11/3/3 12/4/3
v 0.312500 0.062500 0.900000
v 0.312500 0.062500 1.000000
v 0.312500 0.937500 1.000000
v 0.312500 0.937500 0.900000
vn -1.000000 0.000000 0.000000
f 13/1/4 14/2/4 15/3/4 16/4/4
v 0.312500 0.937500 1.000000
v 0.687500 0.937500 1.000000
v 0.687500 0.937500 0.900000
v 0.312500 0.937500 0.900000
vn -0.000000 1.000000 0.000000
f 17/1/5 18/2/5 19/3/5 20/4/5
v 0.312500 0.062500 0.900000
v 0.687500 0.062500 0.900000
v 0.687500 0.062500 1.000000
v 0.312500 0.062500 1.000000
vn 0.000000 -1.000000 0.000000
f 21/1/6 22/2/6 23/3/6 24/4/6
v 0.406250 0.312500 0.900000
v 0.593750 0.312500 0.900000
v 0.593750 0.531250 0.900000
v 0.406250 0.531250 0.900000
vn 0.000000 0.000000 1.000000
f 25/1/7 26/2/7 27/3/7 28/4/7
v 0.593750 0.312500 0.800000
v 0.406250 0.312500 0.800000
v 0.406250 0.531250 0.800000
v 0.593750 0.531250 0.800000
vn 0.000000 0.000000 -1.000000
f 29/1/8 30/2/8 31/3/8 32/4/8
v 0.593750 0.312500 0.900000
v 0.593750 0.312500 0.800000
v 0.593750 0.531250 0.800000
v 0.593750 0.531250 0.900000
vn 1.000000 -0.000000 0.000000
f 33/1/9 34/2/9 35/3/9 36/4/9
v 0.406250 0.312500 0.800000
v 0.406250 0.312500 0.900000
v 0.406250 0.531250 0.900000
v 0.406250 0.531250 0.800000
vn -1.000000 0.000000 0.000000
f 37/1/10 38/2/10 39/3/10 40/4/10
v 0.406250 0.531250 0.900000
v 0.593750 0.531250 0.900000
v 0.593750 0.531250 0.800000
v 0.406250 0.531250 0.800000
vn -0.000000 1.000000 0.000000
f 41/1/11 42/2/11 43/3/11 44/4/11
v 0.406250 0.312500 0.800000
v 0.593750 0.312500 0.800000
v 0.593750 0.312500 0.900000
v 0.406250 0.312500 0.900000
vn 0.000000 -1.000000 0.000000
f 45/1/12 46/2/12 47/3/12 48/4/12
v 0.468750 0.125000 0.900000
v 0.531250 0.125000 0.900000
v 0.531250 0.187500 0.900000
v 0.468750 0.187500 0.900000
vn 0.000000 0.000000 1.000000
f 49/1/13 50/2/13 51/3/13 52/4/13
v 0.531250 0.125000 0.880000
v 0.468750 0.125000 0.880000
v 0.468750 0.187500 0.880000
v 0.531250 0.187500 0.880000
vn 0.000000 0.000000 -1.000000
f 53/1/14 54/2/14 55/3/14 56/4/14
v 0.531250 0.125000 0.900000
v 0.531250 0.125000 0.880000
v 0.531250 0.187500 0.880000
v 0.531250 0.187500 0.900000
vn 1.000000 -0.000000 0.000000
f 57/1/15 58/2/15 59/3/15 60/4/15
v 0.468750 0.125000 0.880000
v 0.468750 0.125000 0.900000
v 0.468750 0.187500 0.900000
v 0.468750 0.187500 0.880000
vn -1.000000 0.000000 0.000000
f 61/1/16 62/2/16 63/3/16 64/4/16
v 0.468750 0.187500 0.900000
v 0.531250 0.187500 0.900000
v 0.531250 0.187500 0.880000
v 0.468750 0.187500 0.880000
vn -0.000000 1.000000 0.000000
f 65/1/17 66/2/17 67/3/17 68/4/17
v 0.468750 0.125000 0.880000
v 0.531250 0.125000 0.880000
v 0.531250 0.125000 0.900000
v 0.468750 0.125000 0.900000
vn 0.000000 -1.000000 0.000000
f 69/1/18 70/2/18 71/3/18 72/4/18
v 0.468750 0.812500 0.900000
v 0.531250 0.812500 0.900000
v 0.531250 0.875000 0.900000
v 0.468750 0.875000 0.900000
vn 0.000000 0.000000 1.000000
f 73/1/19 74/2/19 75/3/19 76/4/19
v 0.531250 0.812500 0.880000
v 0.468750 0.812500 0.880000
v 0.468750 0.875000 0.880000
v 0.531250 0.875000 0.880000
vn 0.000000 0.000000 -1.000000
f 77/1/20 78/2/20 79/3/20 80/4/20
v 0.531250 0.812500 0.900000
v 0.531250 0.812500 0.880000
v 0.531250 0.875000 0.880000
v 0.531250 0.875000 0.900000
vn 1.000000 -0.000000 0.000000
f 81/1/21 82/2/21 83/3/21 84/4/21
v 0.468750 0.812500 0.880000
v 0.468750 0.812500 0.900000
v 0.468750 0.875000 0.900000
v 0.468750 0.875000 0.880000
vn -1.000000 0.000000 0.000000
f 85/1/22 86/2/22 87/3/22 88/4/22
v 0.468750 0.875000 0.900000
v 0.531250 0.875000 0.900000
v 0.531250 0.875000 0.880000
v 0.468750 0.875000 0.880000
vn -0.000000 1.000000 0.000000
f 89/1/23 90/2/23 91/3/23 92/4/23
v 0.468750 0.812500 0.880000
v 0.531250 0.812500 0.880000
v 0.531250 0.812500 0.900000
v 0.468750 0.812500 0.900000
vn 0.000000 -1.000000 0.000000
f 93/1/24 94/2/24 95/3/24 96/4/24
usemtl metal
v 0.545000 0.410000 0.860000
v 0.540895 0.410000 0.781222
v 0.535416 0.432500 0.783737
v 0.538971 0.432500 0.860000
vn 0.964704 0.258492 -0.050274
f 97/1/25 98/2/25 99/3/25 100/4/25
v 0.538971 0.432500 0.860000
v 0.535416 0.432500 0.783737
v 0.520447 0.448971 0.790611
v 0.522500 0.448971 0.860000
vn 0.706723 0.706723 -0.032948
f 101/1/26 102/2/26 103/3/26 104/4/26
v 0.522500 0.448971 0.860000
v 0.520447 0.448971 0.790611
v 0.500000 0.455000 0.800000
v 0.500000 0.455000 0.860000
vn 0.258811 0.965898 -0.007656
f 105/1/27 106/2/27 107/3/27 108/4/27
v 0.500000 0.455000 0.860000
v 0.500000 0.455000 0.800000
v 0.479553 0.448971 0.809389
v 0.477500 0.448971 0.860000
vn -0.258819 0.965926 0.000000
f 109/1/28 110/2/28 111/3/28 112/4/28
v 0.477500 0.448971 0.860000
v 0.479553 0.448971 0.809389
v 0.464584 0.432500 0.816263
v 0.461029 0.432500 0.860000
vn -0.706816 0.706816 -0.028667
f 113/1/29 114/2/29 115/3/29 116/4/29
v 0.461029 0.432500 0.860000
v 0.464584 0.432500 0.816263
v 0.459105 0.410000 0.818778
v 0.455000 0.410000 0.860000
vn -0.962962 0.258025 -0.078279
f 117/1/30 118/2/30 119/3/30 120/4/30
v 0.455000 0.410000 0.860000
v 0.459105 0.410000 0.818778
v 0.464584 0.387500 0.816263
v 0.461029 0.387500 0.860000
vn -0.961487 -0.257630 -0.095758
f 121/1/31 122/2/31 123/3/31 124/4/31
v 0.461029 0.387500 0.860000
v 0.464584 0.387500 0.816263
v 0.479553 0.371029 0.809389
v 0.477500 0.371029 0.860000
vn -0.705942 -0.705942 -0.057386
f 125/1/32 126/2/32 127/3/32 128/4/32
v 0.477500 0.371029 0.860000
v 0.479553 0.371029 0.809389
v 0.500000 0.365000 0.800000
v 0.500000 0.365000 0.860000
vn -0.258805 -0.965873 -0.010497
f 129/1/33 130/2/33 131/3/33 132/4/33
v 0.500000 0.365000 0.860000
v 0.500000 0.365000 0.800000
v 0.520447 0.371029 0.790611
v 0.522500 0.371029 0.860000
vn 0.258819 -0.965926 0.000000
f 133/1/34 134/2/34 135/3/34 136/4/34
v 0.522500 0.371029 0.860000
v 0.520447 0.371029 0.790611
v 0.535416 0.387500 0.783737
v 0.538971 0.387500 0.860000
vn 0.706952 -0.706952 -0.020913
f 137/1/35 138/2/35 139/3/35 140/4/35
v 0.538971 0.387500 0.860000
v 0.535416 0.387500 0.783737
v 0.540895 0.410000 0.781222
v 0.545000 0.410000 0.860000
vn 0.964948 -0.258557 -0.044986
f 141/1/36 142/2/36 143/3/36 144/4/36
v 0.540895 0.410000 0.781222
v 0.438313 0.410000 0.687663
v 0.435245 0.432471 0.692976
v 0.535416 0.432500 0.783737
vn 0.654248 0.239522 -0.717348
f 145/1/37 146/2/37 147/3/37 148/4/37
v 0.535416 0.432500 0.783737
v 0.435245 0.432471 0.692976
v 0.425141 0.448921 0.706011
v 0.520447 0.448971 0.790611
vn 0.494190 0.676799 -0.545637
f 149/1/38 150/2/38 151/3/38 152/4/38
v 0.520447 0.448971 0.790611
v 0.425141 0.448921 0.706011
v 0.410709 0.454943 0.723274
v 0.500000 0.455000 0.800000
vn 0.186319 0.959683 -0.210461
f 153/1/39 154/2/39 155/3/39 156/4/39
v 0.500000 0.455000 0.800000
v 0.410709 0.454943 0.723274
v 0.395814 0.448921 0.740141
v 0.479553 0.448971 0.809389
vn -0.184540 0.959234 0.214046
f 157/1/40 158/2/40 159/3/40 160/4/40
v 0.479553 0.448971 0.809389
v 0.395814 0.448921 0.740141
v 0.384448 0.432471 0.752092
v 0.464584 0.432500 0.816263
vn -0.473708 0.669335 0.572356
f 161/1/41 162/2/41 163/3/41 164/4/41
v 0.464584 0.432500 0.816263
v 0.384448 0.432471 0.752092
v 0.379658 0.410000 0.755924
v 0.459105 0.410000 0.818778
vn -0.607925 0.232907 0.759066
f 165/1/42 166/2/42 167/3/42 168/4/42
v 0.459105 0.410000 0.818778
v 0.379658 0.410000 0.755924
v 0.382725 0.387529 0.750611
v 0.464584 0.387500 0.816263
vn -0.603485 -0.232244 0.762803
f 169/1/43 170/2/43 171/3/43 172/4/43
v 0.464584 0.387500 0.816263
v 0.382725 0.387529 0.750611
v 0.392829 0.371079 0.737576
v 0.479553 0.371029 0.809389
vn -0.466522 -0.666580 0.581402
f 173/1/44 174/2/44 175/3/44 176/4/44
v 0.479553 0.371029 0.809389
v 0.392829 0.371079 0.737576
v 0.407262 0.365057 0.720312
v 0.500000 0.365000 0.800000
vn -0.182007 -0.958568 0.219135
f 177/1/45 178/2/45 179/3/45 180/4/45
v 0.500000 0.365000 0.800000
v 0.407262 0.365057 0.720312
v 0.422156 0.371079 0.703446
v 0.520447 0.371029 0.790611
vn 0.184097 -0.959119 -0.214938
f 181/1/46 182/2/46 183/3/46 184/4/46
v 0.520447 0.371029 0.790611
v 0.422156 0.371079 0.703446
v 0.433522 0.387529 0.691495
v 0.535416 0.387500 0.783737
vn 0.489302 -0.675072 -0.552143
f 185/1/47 186/2/47 187/3/47 188/4/47
v 0.535416 0.387500 0.783737
v 0.433522 0.387529 0.691495
v 0.438313 0.410000 0.687663
v 0.540895 0.410000 0.781222
vn 0.651610 -0.239161 -0.719865
f 189/1/48 190/2/48 191/3/48 192/4/48
v 0.438313 0.410000 0.687663
v 0.385220 0.417097 0.642042
v 0.384574 0.439176 0.649436
v 0.435245 0.432471 0.692976
vn 0.649285 0.257806 -0.715517
f 193/1/49 194/2/49 195/3/49 196/4/49
v 0.435245 0.432471 0.692976
v 0.384574 0.439176 0.649436
v 0.376243 0.455340 0.663994
v 0.425141 0.448921 0.706011
vn 0.514145 0.704003 -0.489933
f 197/1/50 198/2/50 199/3/50 200/4/50
v 0.425141 0.448921 0.706011
v 0.376243 0.455340 0.663994
v 0.362459 0.461256 0.681815
v 0.410709 0.454943 0.723274
vn 0.241076 0.961250 -0.133717
f 201/1/51 202/2/51 203/3/51 204/4/51
v 0.410709 0.454943 0.723274
v 0.362459 0.461256 0.681815
v 0.346916 0.455340 0.698124
v 0.395814 0.448921 0.740141
vn -0.096134 0.961279 0.258266
f 205/1/52 206/2/52 207/3/52 208/4/52
v 0.395814 0.448921 0.740141
v 0.346916 0.455340 0.698124
v 0.333778 0.439176 0.708552
v 0.384448 0.432471 0.752092
vn -0.407401 0.704046 0.581674
f 209/1/53 210/2/53 211/3/53 212/4/53
v 0.384448 0.432471 0.752092
v 0.333778 0.439176 0.708552
v 0.326565 0.417097 0.710303
v 0.379658 0.410000 0.755924
vn -0.609837 0.257820 0.749418
f 213/1/54 214/2/54 215/3/54 216/4/54
v 0.379658 0.410000 0.755924
v 0.326565 0.417097 0.710303
v 0.327211 0.395017 0.702910
v 0.382725 0.387529 0.750611
vn -0.649285 -0.257806 0.715517
f 217/1/55 218/2/55 219/3/55 220/4/55
v 0.382725 0.387529 0.750611
v 0.327211 0.395017 0.702910
v 0.335543 0.378854 0.688352
v 0.392829 0.371079 0.737576
vn -0.515154 -0.703900 0.489021
f 221/1/56 222/2/56 223/3/56 224/4/56
v 0.392829 0.371079 0.737576
v 0.335543 0.378854 0.688352
v 0.349327 0.372937 0.670531
v 0.407262 0.365057 0.720312
vn -0.243491 -0.960935 0.131587
f 225/1/57 226/2/57 227/3/57 228/4/57
v 0.407262 0.365057 0.720312
v 0.349327 0.372937 0.670531
v 0.364870 0.378854 0.654221
v 0.422156 0.371079 0.703446
vn 0.093277 -0.960914 -0.260658
f 229/1/58 230/2/58 231/3/58 232/4/58
v 0.422156 0.371079 0.703446
v 0.364870 0.378854 0.654221
v 0.378008 0.395017 0.643794
v 0.433522 0.387529 0.691495
vn 0.405569 -0.703866 -0.583169
f 233/1/59 234/2/59 235/3/59 236/4/59
v 0.433522 0.387529 0.691495
v 0.378008 0.395017 0.643794
v 0.385220 0.417097 0.642042
v 0.438313 0.410000 0.687663
vn 0.609455 -0.257793 -0.749738
f 237/1/60 238/2/60 239/3/60 240/4/60
v 0.385220 0.417097 0.642042
v 0.332131 0.437693 0.596424
v 0.334179 0.458767 0.606134
v 0.384574 0.439176 0.649436
vn 0.684966 0.249290 -0.684599
f 241/1/61 242/2/61 243/3/61 244/4/61
v 0.384574 0.439176 0.649436
v 0.334179 0.458767 0.606134
v 0.327820 0.474194 0.622387
v 0.376243 0.455340 0.663994
vn 0.611830 0.679714 -0.404540
f 245/1/62 246/2/62 247/3/62 248/4/62
v 0.376243 0.455340 0.663994
v 0.327820 0.474194 0.622387
v 0.314757 0.479841 0.640828
v 0.362459 0.461256 0.681815
vn 0.375542 0.926647 -0.017158
f 249/1/63 250/2/63 251/3/63 252/4/63
v 0.362459 0.461256 0.681815
v 0.314757 0.479841 0.640828
v 0.298491 0.474194 0.656515
v 0.346916 0.455340 0.698124
vn 0.039688 0.926600 0.373948
f 253/1/64 254/2/64 255/3/64 256/4/64
v 0.346916 0.455340 0.698124
v 0.298491 0.474194 0.656515
v 0.283379 0.458767 0.665246
v 0.333778 0.439176 0.708552
vn -0.307597 0.679638 0.665941
f 257/1/65 258/2/65 259/3/65 260/4/65
v 0.333778 0.439176 0.708552
v 0.283379 0.458767 0.665246
v 0.273471 0.437693 0.664681
v 0.326565 0.417097 0.710303
vn -0.573589 0.249261 0.780298
f 261/1/66 262/2/66 263/3/66 264/4/66
v 0.326565 0.417097 0.710303
v 0.273471 0.437693 0.664681
v 0.271422 0.416618 0.654971
v 0.327211 0.395017 0.702910
vn -0.684962 -0.249291 0.684603
f 265/1/67 266/2/67 267/3/67 268/4/67
v 0.327211 0.395017 0.702910
v 0.271422 0.416618 0.654971
v 0.277781 0.401191 0.638718
v 0.335543 0.378854 0.688352
vn -0.611299 -0.679892 0.405043
f 269/1/68 270/2/68 271/3/68 272/4/68
v 0.335543 0.378854 0.688352
v 0.277781 0.401191 0.638718
v 0.290844 0.395544 0.620277
v 0.349327 0.372937 0.670531
vn -0.374272 -0.927138 0.018303
f 273/1/69 274/2/69 275/3/69 276/4/69
v 0.349327 0.372937 0.670531
v 0.290844 0.395544 0.620277
v 0.307111 0.401191 0.604589
v 0.364870 0.378854 0.654221
vn -0.038154 -0.927170 -0.372693
f 277/1/70 278/2/70 279/3/70 280/4/70
v 0.364870 0.378854 0.654221
v 0.307111 0.401191 0.604589
v 0.322223 0.416618 0.595858
v 0.378008 0.395017 0.643794
vn 0.308602 -0.679950 -0.665156
f 281/1/71 282/2/71 283/3/71 284/4/71
v 0.378008 0.395017 0.643794
v 0.322223 0.416618 0.595858
v 0.332131 0.437693 0.596424
v 0.385220 0.417097 0.642042
vn 0.573805 -0.249317 -0.780121
f 285/1/72 286/2/72 287/3/72 288/4/72
v 0.332131 0.437693 0.596424
v 0.279080 0.469771 0.550826
v 0.282969 0.489763 0.562132
v 0.334179 0.458767 0.606134
vn 0.711516 0.235811 -0.661920
f 289/1/73 290/2/73 291/3/73 292/4/73
v 0.334179 0.458767 0.606134
v 0.282969 0.489763 0.562132
v 0.277947 0.504398 0.579544
v 0.327820 0.474194 0.622387
vn 0.684267 0.643489 -0.343075
f 293/1/74 294/2/74 295/3/74 296/4/74
v 0.327820 0.474194 0.622387
v 0.277947 0.504398 0.579544
v 0.265361 0.509754 0.598398
v 0.314757 0.479841 0.640828
vn 0.474106 0.877914 0.067018
f 297/1/75 298/2/75 299/3/75 300/4/75
v 0.314757 0.479841 0.640828
v 0.265361 0.509754 0.598398
v 0.248582 0.504398 0.613642
v 0.298491 0.474194 0.656515
vn 0.137628 0.877870 0.458697
f 301/1/76 302/2/76 303/3/76 304/4/76
v 0.298491 0.474194 0.656515
v 0.248582 0.504398 0.613642
v 0.232107 0.489763 0.621191
v 0.283379 0.458767 0.665246
vn -0.236140 0.643421 0.728181
f 305/1/77 306/2/77 307/3/77 308/4/77
v 0.283379 0.458767 0.665246
v 0.232107 0.489763 0.621191
v 0.220350 0.469771 0.619023
v 0.273471 0.437693 0.664681
vn -0.547386 0.235809 0.802971
f 309/1/78 310/2/78 311/3/78 312/4/78
v 0.273471 0.437693 0.664681
v 0.220350 0.469771 0.619023
v 0.216461 0.449779 0.607718
v 0.271422 0.416618 0.654971
vn -0.711425 -0.235857 0.662001
f 313/1/79 314/2/79 315/3/79 316/4/79
v 0.271422 0.416618 0.654971
v 0.216461 0.449779 0.607718
v 0.221483 0.435145 0.590305
v 0.277781 0.401191 0.638718
vn -0.683776 -0.643768 0.343532
f 317/1/80 318/2/80 319/3/80 320/4/80
v 0.277781 0.401191 0.638718
v 0.221483 0.435145 0.590305
v 0.234069 0.429788 0.571451
v 0.290844 0.395544 0.620277
vn -0.473042 -0.878559 -0.066066
f 321/1/81 322/2/81 323/3/81 324/4/81
v 0.290844 0.395544 0.620277
v 0.234069 0.429788 0.571451
v 0.250848 0.435145 0.556207
v 0.307111 0.401191 0.604589
vn -0.136356 -0.878617 -0.457646
f 325/1/82 326/2/82 327/3/82 328/4/82
v 0.307111 0.401191 0.604589
v 0.250848 0.435145 0.556207
v 0.267323 0.449779 0.548658
v 0.322223 0.416618 0.595858
vn 0.237019 -0.643887 -0.727483
f 329/1/83 330/2/83 331/3/83 332/4/83
v 0.322223 0.416618 0.595858
v 0.267323 0.449779 0.548658
v 0.279080 0.469771 0.550826
v 0.332131 0.437693 0.596424
vn 0.547656 -0.235942 -0.802748
f 333/1/84 334/2/84 335/3/84 336/4/84
v 0.279080 0.469771 0.550826
v 0.226119 0.510193 0.505123
v 0.231034 0.529415 0.517328
v 0.282969 0.489763 0.562132
vn 0.729059 0.223940 -0.646779
f 337/1/85 338/2/85 339/3/85 340/4/85
v 0.282969 0.489763 0.562132
v 0.231034 0.529415 0.517328
v 0.226753 0.543487 0.535390
v 0.277947 0.504398 0.579544
vn 0.729823 0.612266 -0.304121
f 341/1/86 342/2/86 343/3/86 344/4/86
v 0.277947 0.504398 0.579544
v 0.226753 0.543487 0.535390
v 0.214426 0.548638 0.554472
v 0.265361 0.509754 0.598398
vn 0.535218 0.836187 0.119719
f 345/1/87 346/2/87 347/3/87 348/4/87
v 0.265361 0.509754 0.598398
v 0.214426 0.548638 0.554472
v 0.197354 0.543487 0.569459
v 0.248582 0.504398 0.613642
vn 0.197523 0.836386 0.511315
f 349/1/88 350/2/88 351/3/88 352/4/88
v 0.248582 0.504398 0.613642
v 0.197354 0.543487 0.569459
v 0.180112 0.529415 0.576336
v 0.232107 0.489763 0.621191
vn -0.193267 0.612810 0.766232
f 353/1/89 354/2/89 355/3/89 356/4/89
v 0.232107 0.489763 0.621191
v 0.180112 0.529415 0.576336
v 0.167320 0.510193 0.573260
v 0.220350 0.469771 0.619023
vn -0.532594 0.224699 0.815999
f 357/1/90 358/2/90 359/3/90 360/4/90
v 0.220350 0.469771 0.619023
v 0.167320 0.510193 0.573260
v 0.162406 0.490970 0.561056
v 0.216461 0.449779 0.607718
vn -0.728962 -0.224007 0.646866
f 361/1/91 362/2/91 363/3/91 364/4/91
v 0.216461 0.449779 0.607718
v 0.162406 0.490970 0.561056
v 0.166686 0.476898 0.542993
v 0.221483 0.435145 0.590305
vn -0.729502 -0.612503 0.304414
f 365/1/92 366/2/92 367/3/92 368/4/92
v 0.221483 0.435145 0.590305
v 0.166686 0.476898 0.542993
v 0.179013 0.471748 0.523912
v 0.234069 0.429788 0.571451
vn -0.534606 -0.836656 -0.119178
f 369/1/93 370/2/93 371/3/93 372/4/93
v 0.234069 0.429788 0.571451
v 0.179013 0.471748 0.523912
v 0.196085 0.476898 0.508925
v 0.250848 0.435145 0.556207
vn -0.196830 -0.836904 -0.510735
f 373/1/94 374/2/94 375/3/94 376/4/94
v 0.250848 0.435145 0.556207
v 0.196085 0.476898 0.508925
v 0.213327 0.490970 0.502048
v 0.267323 0.449779 0.548658
vn 0.193739 -0.613142 -0.765847
f 377/1/95 378/2/95 379/3/95 380/4/95
v 0.267323 0.449779 0.548658
v 0.213327 0.490970 0.502048
v 0.226119 0.510193 0.505123
v 0.279080 0.469771 0.550826
vn 0.532761 -0.224812 -0.815859
f 381/1/96 382/2/96 383/3/96 384/4/96
v 0.226119 0.510193 0.505123
v 0.173124 0.555000 0.459391
v 0.178368 0.573950 0.471880
v 0.231034 0.529415 0.517328
vn 0.736715 0.218038 -0.640086
f 385/1/97 386/2/97 387/3/97 388/4/97
v 0.231034 0.529415 0.517328
v 0.178368 0.573950 0.471880
v 0.174330 0.587823 0.490151
v 0.226753 0.543487 0.535390
vn 0.750588 0.595598 -0.286148
f 389/1/98 390/2/98 391/3/98 392/4/98
v 0.226753 0.543487 0.535390
v 0.174330 0.587823 0.490151
v 0.162091 0.592900 0.509309
v 0.214426 0.548638 0.554472
vn 0.563381 0.813482 0.144391
f 393/1/99 394/2/99 395/3/99 396/4/99
v 0.214426 0.548638 0.554472
v 0.162091 0.592900 0.509309
v 0.144931 0.587823 0.524220
v 0.197354 0.543487 0.569459
vn 0.225291 0.813472 0.536197
f 397/1/100 398/2/100 399/3/100 400/4/100
v 0.197354 0.543487 0.569459
v 0.144931 0.587823 0.524220
v 0.127447 0.573950 0.530888
v 0.180112 0.529415 0.576336
vn -0.173206 0.595578 0.784402
f 401/1/101 402/2/101 403/3/101 404/4/101
v 0.180112 0.529415 0.576336
v 0.127447 0.573950 0.530888
v 0.114325 0.555000 0.527528
v 0.167320 0.510193 0.573260
vn -0.525376 0.218029 0.822462
f 405/1/102 406/2/102 407/3/102 408/4/102
v 0.167320 0.510193 0.573260
v 0.114325 0.555000 0.527528
v 0.109080 0.536050 0.515038
v 0.162406 0.490970 0.561056
vn -0.736715 -0.218038 0.640086
f 409/1/103 410/2/103 411/3/103 412/4/103
v 0.162406 0.490970 0.561056
v 0.109080 0.536050 0.515038
v 0.113118 0.522177 0.496767
v 0.166686 0.476898 0.542993
vn -0.750524 -0.595651 0.286205
f 413/1/104 414/2/104 415/3/104 416/4/104
v 0.166686 0.476898 0.542993
v 0.113118 0.522177 0.496767
v 0.125357 0.517100 0.477609
v 0.179013 0.471748 0.523912
vn -0.563231 -0.813610 -0.144259
f 417/1/105 418/2/105 419/3/105 420/4/105
v 0.179013 0.471748 0.523912
v 0.125357 0.517100 0.477609
v 0.142518 0.522177 0.462699
v 0.196085 0.476898 0.508925
vn -0.225115 -0.813619 -0.536048
f 421/1/106 422/2/106 423/3/106 424/4/106
v 0.196085 0.476898 0.508925
v 0.142518 0.522177 0.462699
v 0.160001 0.536050 0.456030
v 0.213327 0.490970 0.502048
vn 0.173319 -0.595670 -0.784307
f 425/1/107 426/2/107 427/3/107 428/4/107
v 0.213327 0.490970 0.502048
v 0.160001 0.536050 0.456030
v 0.173124 0.555000 0.459391
v 0.226119 0.510193 0.505123
vn 0.525400 -0.218048 -0.822442
f 429/1/108 430/2/108 431/3/108 432/4/108
v 0.173124 0.555000 0.459391
v 0.120128 0.599807 0.413658
v 0.125043 0.619030 0.425862
v 0.178368 0.573950 0.471880
vn 0.736701 0.217985 -0.640121
f 433/1/109 434/2/109 435/3/109 436/4/109
v 0.178368 0.573950 0.471880
v 0.125043 0.619030 0.425862
v 0.120763 0.633102 0.443925
v 0.174330 0.587823 0.490151
vn 0.750547 0.595574 -0.286307
f 437/1/110 438/2/110 439/3/110 440/4/110
v 0.174330 0.587823 0.490151
v 0.120763 0.633102 0.443925
v 0.108435 0.638252 0.463006
v 0.162091 0.592900 0.509309
vn 0.563265 0.813595 0.144206
f 441/1/111 442/2/111 443/3/111 444/4/111
v 0.162091 0.592900 0.509309
v 0.108435 0.638252 0.463006
v 0.091363 0.633102 0.477993
v 0.144931 0.587823 0.524220
vn 0.225068 0.813605 0.536089
f 445/1/112 446/2/112 447/3/112 448/4/112
v 0.144931 0.587823 0.524220
v 0.091363 0.633102 0.477993
v 0.074121 0.619030 0.484871
v 0.127447 0.573950 0.530888
vn -0.173416 0.595593 0.784344
f 449/1/113 450/2/113 451/3/113 452/4/113
v 0.127447 0.573950 0.530888
v 0.074121 0.619030 0.484871
v 0.061329 0.599807 0.481795
v 0.114325 0.555000 0.527528
vn -0.525436 0.217995 0.822432
f 453/1/114 454/2/114 455/3/114 456/4/114
v 0.114325 0.555000 0.527528
v 0.061329 0.599807 0.481795
v 0.056415 0.580585 0.469591
v 0.109080 0.536050 0.515038
vn -0.736701 -0.217985 0.640121
f 457/1/115 458/2/115 459/3/115 460/4/115
v 0.109080 0.536050 0.515038
v 0.056415 0.580585 0.469591
v 0.060695 0.566513 0.451528
v 0.113118 0.522177 0.496767
vn -0.750611 -0.595520 0.286251
f 461/1/116 462/2/116 463/3/116 464/4/116
v 0.113118 0.522177 0.496767
v 0.060695 0.566513 0.451528
v 0.073022 0.561362 0.432447
v 0.125357 0.517100 0.477609
vn -0.563416 -0.813468 -0.144336
f 465/1/117 466/2/117 467/3/117 468/4/117
v 0.125357 0.517100 0.477609
v 0.073022 0.561362 0.432447
v 0.090094 0.566513 0.417460
v 0.142518 0.522177 0.462699
vn -0.225242 -0.813458 -0.536239
f 469/1/118 470/2/118 471/3/118 472/4/118
v 0.142518 0.522177 0.462699
v 0.090094 0.566513 0.417460
v 0.107336 0.580585 0.410582
v 0.160001 0.536050 0.456030
vn 0.173306 -0.595500 -0.784439
f 473/1/119 474/2/119 475/3/119 476/4/119
v 0.160001 0.536050 0.456030
v 0.107336 0.580585 0.410582
v 0.120128 0.599807 0.413658
v 0.173124 0.555000 0.459391
vn 0.525413 -0.217975 -0.822452
f 477/1/120 478/2/120 479/3/120 480/4/120
v 0.120128 0.599807 0.413658
v 0.067153 0.640229 0.367943
v 0.071023 0.660221 0.379254
v 0.125043 0.619030 0.425862
vn 0.729089 0.224167 -0.646667
f 481/1/121 482/2/121 483/3/121 484/4/121
v 0.125043 0.619030 0.425862
v 0.071023 0.660221 0.379254
v 0.065974 0.674855 0.396659
v 0.120763 0.633102 0.443925
vn 0.729570 0.612485 -0.304285
f 485/1/122 486/2/122 487/3/122 488/4/122
v 0.120763 0.633102 0.443925
v 0.065974 0.674855 0.396659
v 0.053357 0.680212 0.415493
v 0.108435 0.638252 0.463006
vn 0.534525 0.836663 0.119491
f 489/1/123 490/2/123 491/3/123 492/4/123
v 0.108435 0.638252 0.463006
v 0.053357 0.680212 0.415493
v 0.036554 0.674855 0.430710
v 0.091363 0.633102 0.477993
vn 0.196383 0.836695 0.511249
f 493/1/124 494/2/124 495/3/124 496/4/124
v 0.091363 0.633102 0.477993
v 0.036554 0.674855 0.430710
v 0.020067 0.660221 0.438232
v 0.074121 0.619030 0.484871
vn -0.194330 0.612551 0.766170
f 497/1/125 498/2/125 499/3/125 500/4/125
v 0.074121 0.619030 0.484871
v 0.020067 0.660221 0.438232
v 0.008313 0.640229 0.436045
v 0.061329 0.599807 0.481795
vn -0.533058 0.224201 0.815833
f 501/1/126 502/2/126 503/3/126 504/4/126
v 0.061329 0.599807 0.481795
v 0.008313 0.640229 0.436045
v 0.004443 0.620237 0.424733
v 0.056415 0.580585 0.469591
vn -0.729033 -0.224211 0.646715
f 505/1/127 506/2/127 507/3/127 508/4/127
v 0.056415 0.580585 0.469591
v 0.004443 0.620237 0.424733
v 0.009492 0.605602 0.407329
v 0.060695 0.566513 0.451528
vn -0.729726 -0.612365 0.304154
f 509/1/128 510/2/128 511/3/128 512/4/128
v 0.060695 0.566513 0.451528
v 0.009492 0.605602 0.407329
v 0.022109 0.600246 0.388495
v 0.073022 0.561362 0.432447
vn -0.534981 -0.836316 -0.119880
f 513/1/129 514/2/129 515/3/129 516/4/129
v 0.073022 0.561362 0.432447
v 0.022109 0.600246 0.388495
v 0.038912 0.605602 0.373278
v 0.090094 0.566513 0.417460
vn -0.196923 -0.836280 -0.511721
f 517/1/130 518/2/130 519/3/130 520/4/130
v 0.090094 0.566513 0.417460
v 0.038912 0.605602 0.373278
v 0.055399 0.620237 0.365755
v 0.107336 0.580585 0.410582
vn 0.194004 -0.612293 -0.766459
f 521/1/131 522/2/131 523/3/131 524/4/131
v 0.107336 0.580585 0.410582
v 0.055399 0.620237 0.365755
v 0.067153 0.640229 0.367943
v 0.120128 0.599807 0.413658
vn 0.533026 -0.224176 -0.815861
f 525/1/132 526/2/132 527/3/132 528/4/132
v 0.067153 0.640229 0.367943
v 0.014249 0.672307 0.322181
v 0.016261 0.693382 0.331899
v 0.071023 0.660221 0.379254
vn 0.713512 0.235272 -0.659960
f 529/1/133 530/2/133 531/3/133 532/4/133
v 0.071023 0.660221 0.379254
v 0.016261 0.693382 0.331899
v 0.009841 0.708809 0.348128
v 0.065974 0.674855 0.396659
vn 0.685162 0.643116 -0.341987
f 533/1/134 534/2/134 535/3/134 536/4/134
v 0.065974 0.674855 0.396659
v 0.009841 0.708809 0.348128
v -0.003291 0.714456 0.366520
v 0.053357 0.680212 0.415493
vn 0.473224 0.878377 0.067181
f 537/1/135 538/2/135 539/3/135 540/4/135
v 0.053357 0.680212 0.415493
v -0.003291 0.714456 0.366520
v -0.019617 0.708809 0.382146
v 0.036554 0.674855 0.430710
vn 0.134911 0.878531 0.458238
f 541/1/136 542/2/136 543/3/136 544/4/136
v 0.036554 0.674855 0.430710
v -0.019617 0.708809 0.382146
v -0.034761 0.693382 0.390820
v 0.020067 0.660221 0.438232
vn -0.239534 0.643527 0.726978
f 545/1/137 546/2/137 547/3/137 548/4/137
v 0.020067 0.660221 0.438232
v -0.034761 0.693382 0.390820
v -0.044667 0.672307 0.390218
v 0.008313 0.640229 0.436045
vn -0.550138 0.235779 0.801097
f 549/1/138 550/2/138 551/3/138 552/4/138
v 0.008313 0.640229 0.436045
v -0.044667 0.672307 0.390218
v -0.046679 0.651233 0.380500
v 0.004443 0.620237 0.424733
vn -0.713417 -0.235336 0.660040
f 553/1/139 554/2/139 555/3/139 556/4/139
v 0.004443 0.620237 0.424733
v -0.046679 0.651233 0.380500
v -0.040259 0.635806 0.364271
v 0.009492 0.605602 0.407329
vn -0.685485 -0.642912 0.341722
f 557/1/140 558/2/140 559/3/140 560/4/140
v 0.009492 0.605602 0.407329
v -0.040259 0.635806 0.364271
v -0.027127 0.630159 0.345880
v 0.022109 0.600246 0.388495
vn -0.474127 -0.877831 -0.067941
f 561/1/141 562/2/141 563/3/141 564/4/141
v 0.022109 0.600246 0.388495
v -0.027127 0.630159 0.345880
v -0.010801 0.635806 0.330253
v 0.038912 0.605602 0.373278
vn -0.135952 -0.877888 -0.459161
f 565/1/142 566/2/142 567/3/142 568/4/142
v 0.038912 0.605602 0.373278
v -0.010801 0.635806 0.330253
v 0.004343 0.651233 0.321579
v 0.055399 0.620237 0.365755
vn 0.238918 -0.643121 -0.727539
f 569/1/143 570/2/143 571/3/143 572/4/143
v 0.055399 0.620237 0.365755
v 0.004343 0.651233 0.321579
v 0.014249 0.672307 0.322181
v 0.067153 0.640229 0.367943
vn 0.550078 -0.235738 -0.801151
f 573/1/144 574/2/144 575/3/144 576/4/144
v 0.014249 0.672307 0.322181
v -0.038628 0.692903 0.276346
v -0.039306 0.714983 0.283737
v 0.016261 0.693382 0.331899
vn 0.687920 0.248720 -0.681840
f 577/1/145 578/2/145 579/3/145 580/4/145
v 0.016261 0.693382 0.331899
v -0.039306 0.714983 0.283737
v -0.047700 0.731146 0.298259
v 0.009841 0.708809 0.348128
vn 0.613367 0.679225 -0.403030
f 581/1/146 582/2/146 583/3/146 584/4/146
v 0.009841 0.708809 0.348128
v -0.047700 0.731146 0.298259
v -0.061561 0.737063 0.316020
v -0.003291 0.714456 0.366520
vn 0.374674 0.926999 -0.017089
f 585/1/147 586/2/147 587/3/147 588/4/147
v -0.003291 0.714456 0.366520
v -0.061561 0.737063 0.316020
v -0.077175 0.731146 0.332262
v -0.019617 0.708809 0.382146
vn 0.036395 0.927102 0.373038
f 589/1/148 590/2/148 591/3/148 592/4/148
v -0.019617 0.708809 0.382146
v -0.077175 0.731146 0.332262
v -0.090358 0.714983 0.342632
v -0.034761 0.693382 0.390820
vn -0.311839 0.679515 0.664090
f 593/1/149 594/2/149 595/3/149 596/4/149
v -0.034761 0.693382 0.390820
v -0.090358 0.714983 0.342632
v -0.097578 0.692903 0.344353
v -0.044667 0.672307 0.390218
vn -0.577241 0.249092 0.777654
f 597/1/150 598/2/150 599/3/150 600/4/150
v -0.044667 0.672307 0.390218
v -0.097578 0.692903 0.344353
v -0.096900 0.670824 0.336962
v -0.046679 0.651233 0.380500
vn -0.687886 -0.248736 0.681868
f 601/1/151 602/2/151 603/3/151 604/4/151
v -0.046679 0.651233 0.380500
v -0.096900 0.670824 0.336962
v -0.088506 0.654660 0.322440
v -0.040259 0.635806 0.364271
vn -0.613897 -0.678999 0.402605
f 605/1/152 606/2/152 607/3/152 608/4/152
v -0.040259 0.635806 0.364271
v -0.088506 0.654660 0.322440
v -0.074645 0.648744 0.304679
v -0.027127 0.630159 0.345880
vn -0.375951 -0.926501 0.016023
f 609/1/153 610/2/153 611/3/153 612/4/153
v -0.027127 0.630159 0.345880
v -0.074645 0.648744 0.304679
v -0.059031 0.654660 0.288437
v -0.010801 0.635806 0.330253
vn -0.037816 -0.926530 -0.374316
f 613/1/154 614/2/154 615/3/154 616/4/154
v -0.010801 0.635806 0.330253
v -0.059031 0.654660 0.288437
v -0.045848 0.670824 0.278066
v 0.004343 0.651233 0.321579
vn 0.310987 -0.679127 -0.664886
f 617/1/155 618/2/155 619/3/155 620/4/155
v 0.004343 0.651233 0.321579
v -0.045848 0.670824 0.278066
v -0.038628 0.692903 0.276346
v 0.014249 0.672307 0.322181
vn 0.577097 -0.249020 -0.777784
f 621/1/156 622/2/156 623/3/156 624/4/156
v -0.038628 0.692903 0.276346
v -0.091500 0.700000 0.230515
v -0.093962 0.722413 0.236361
v -0.039306 0.714983 0.283737
vn 0.652315 0.258529 -0.712494
f 625/1/157 626/2/157 627/3/157 628/4/157
v -0.039306 0.714983 0.283737
v -0.093962 0.722413 0.236361
v -0.103668 0.738821 0.249747
v -0.047700 0.731146 0.298259
vn 0.516896 0.704871 -0.485773
f 629/1/158 630/2/158 631/3/158 632/4/158
v -0.047700 0.731146 0.298259
v -0.103668 0.738821 0.249747
v -0.118017 0.744827 0.267086
v -0.061561 0.737063 0.316020
vn 0.244124 0.961044 -0.129604
f 633/1/159 634/2/159 635/3/159 636/4/159
v -0.061561 0.737063 0.316020
v -0.118017 0.744827 0.267086
v -0.133164 0.738821 0.283732
v -0.077175 0.731146 0.332262
vn -0.093416 0.961011 0.260252
f 637/1/160 638/2/160 639/3/160 640/4/160
v -0.077175 0.731146 0.332262
v -0.133164 0.738821 0.283732
v -0.145052 0.722413 0.295224
v -0.090358 0.714983 0.342632
vn -0.407032 0.704778 0.581045
f 641/1/161 642/2/161 643/3/161 644/4/161
v -0.090358 0.714983 0.342632
v -0.145052 0.722413 0.295224
v -0.150493 0.700000 0.298484
v -0.097578 0.692903 0.344353
vn -0.612444 0.258467 0.747065
f 645/1/162 646/2/162 647/3/162 648/4/162
v -0.097578 0.692903 0.344353
v -0.150493 0.700000 0.298484
v -0.148032 0.677587 0.292637
v -0.096900 0.670824 0.336962
vn -0.652299 -0.258533 0.712507
f 649/1/163 650/2/163 651/3/163 652/4/163
v -0.096900 0.670824 0.336962
v -0.148032 0.677587 0.292637
v -0.138326 0.661179 0.279251
v -0.088506 0.654660 0.322440
vn -0.515396 -0.705154 0.486956
f 653/1/164 654/2/164 655/3/164 656/4/164
v -0.088506 0.654660 0.322440
v -0.138326 0.661179 0.279251
v -0.123977 0.655173 0.261913
v -0.074645 0.648744 0.304679
vn -0.240654 -0.961528 0.132472
f 657/1/165 658/2/165 659/3/165 660/4/165
v -0.074645 0.648744 0.304679
v -0.123977 0.655173 0.261913
v -0.108830 0.661179 0.245267
v -0.059031 0.654660 0.288437
vn 0.097261 -0.961569 -0.256758
f 661/1/166 662/2/166 663/3/166 664/4/166
v -0.059031 0.654660 0.288437
v -0.108830 0.661179 0.245267
v -0.096942 0.677587 0.233774
v -0.045848 0.670824 0.278066
vn 0.409413 -0.705265 -0.578777
f 665/1/167 666/2/167 667/3/167 668/4/167
v -0.045848 0.670824 0.278066
v -0.096942 0.677587 0.233774
v -0.091500 0.700000 0.230515
v -0.038628 0.692903 0.276346
vn 0.612965 -0.258600 -0.746592
f 669/1/168 670/2/168 671/3/168 672/4/168
v -0.091500 0.700000 0.230515
v -0.310935 0.721726 0.039816
v -0.313631 0.744164 0.045463
v -0.093962 0.722413 0.236361
vn 0.648166 0.258068 -0.716437
f 673/1/169 674/2/169 675/3/169 676/4/169
v -0.093962 0.722413 0.236361
v -0.313631 0.744164 0.045463
v -0.323525 0.760589 0.058689
v -0.103668 0.738821 0.249747
vn 0.503605 0.705136 -0.499165
f 677/1/170 678/2/170 679/3/170 680/4/170
v -0.103668 0.738821 0.249747
v -0.323525 0.760589 0.058689
v -0.337964 0.766601 0.075950
v -0.118017 0.744827 0.267086
vn 0.224121 0.963233 -0.148159
f 681/1/171 682/2/171 683/3/171 684/4/171
v -0.118017 0.744827 0.267086
v -0.337964 0.766601 0.075950
v -0.353082 0.760589 0.092621
v -0.133164 0.738821 0.283732
vn -0.115395 0.963258 0.242525
f 685/1/172 686/2/172 687/3/172 688/4/172
v -0.133164 0.738821 0.283732
v -0.353082 0.760589 0.092621
v -0.364826 0.744164 0.104235
v -0.145052 0.722413 0.295224
vn -0.424007 0.705207 0.568244
f 689/1/173 690/2/173 691/3/173 692/4/173
v -0.145052 0.722413 0.295224
v -0.364826 0.744164 0.104235
v -0.370049 0.721726 0.107680
v -0.150493 0.700000 0.298484
vn -0.619026 0.258173 0.741723
f 693/1/174 694/2/174 695/3/174 696/4/174
v -0.150493 0.700000 0.298484
v -0.370049 0.721726 0.107680
v -0.367354 0.699289 0.102033
v -0.148032 0.677587 0.292637
vn -0.648158 -0.258069 0.716443
f 697/1/175 698/2/175 699/3/175 700/4/175
v -0.148032 0.677587 0.292637
v -0.367354 0.699289 0.102033
v -0.357460 0.682863 0.088807
v -0.138326 0.661179 0.279251
vn -0.503591 -0.705137 0.499177
f 701/1/176 702/2/176 703/3/176 704/4/176
v -0.138326 0.661179 0.279251
v -0.357460 0.682863 0.088807
v -0.343021 0.676851 0.071546
v -0.123977 0.655173 0.261913
vn -0.224097 -0.963236 0.148180
f 705/1/177 706/2/177 707/3/177 708/4/177
v -0.123977 0.655173 0.261913
v -0.343021 0.676851 0.071546
v -0.327903 0.682863 0.054875
v -0.108830 0.661179 0.245267
vn 0.115423 -0.963261 -0.242501
f 709/1/178 710/2/178 711/3/178 712/4/178
v -0.108830 0.661179 0.245267
v -0.327903 0.682863 0.054875
v -0.316159 0.699289 0.043261
v -0.096942 0.677587 0.233774
vn 0.424028 -0.705209 -0.568225
f 713/1/179 714/2/179 715/3/179 716/4/179
v -0.096942 0.677587 0.233774
v -0.316159 0.699289 0.043261
v -0.310935 0.721726 0.039816
v -0.091500 0.700000 0.230515
vn 0.619037 -0.258174 -0.741714
f 717/1/180 718/2/180 719/3/180 720/4/180
v -0.310935 0.721726 0.039816
v -0.529911 0.743452 -0.151369
v -0.532620 0.765890 -0.145728
v -0.313631 0.744164 0.045463
vn 0.649819 0.258017 -0.714957
f 721/1/181 722/2/181 723/3/181 724/4/181
v -0.313631 0.744164 0.045463
v -0.532620 0.765890 -0.145728
v -0.542545 0.782315 -0.132526
v -0.323525 0.760589 0.058689
vn 0.504782 0.705080 -0.498053
f 725/1/182 726/2/182 727/3/182 728/4/182
v -0.323525 0.760589 0.058689
v -0.542545 0.782315 -0.132526
v -0.557026 0.788327 -0.115299
v -0.337964 0.766601 0.075950
vn 0.224492 0.963219 -0.147694
f 729/1/183 730/2/183 731/3/183 732/4/183
v -0.337964 0.766601 0.075950
v -0.557026 0.788327 -0.115299
v -0.572183 0.782315 -0.098664
v -0.353082 0.760589 0.092621
vn -0.115950 0.963263 0.242240
f 733/1/184 734/2/184 735/3/184 736/4/184
v -0.353082 0.760589 0.092621
v -0.572183 0.782315 -0.098664
v -0.583955 0.765890 -0.087079
v -0.364826 0.744164 0.104235
vn -0.425322 0.705201 0.567268
f 737/1/185 738/2/185 739/3/185 740/4/185
v -0.364826 0.744164 0.104235
v -0.583955 0.765890 -0.087079
v -0.589187 0.743452 -0.083646
v -0.370049 0.721726 0.107680
vn -0.620727 0.258181 0.740297
f 741/1/186 742/2/186 743/3/186 744/4/186
v -0.370049 0.721726 0.107680
v -0.589187 0.743452 -0.083646
v -0.586478 0.721015 -0.089287
v -0.367354 0.699289 0.102033
vn -0.649808 -0.258018 0.714966
f 745/1/187 746/2/187 747/3/187 748/4/187
v -0.367354 0.699289 0.102033
v -0.586478 0.721015 -0.089287
v -0.576553 0.704590 -0.102489
v -0.357460 0.682863 0.088807
vn -0.504772 -0.705081 0.498062
f 749/1/188 750/2/188 751/3/188 752/4/188
v -0.357460 0.682863 0.088807
v -0.576553 0.704590 -0.102489
v -0.562072 0.698577 -0.119716
v -0.343021 0.676851 0.071546
vn -0.224481 -0.963220 0.147703
f 753/1/189 754/2/189 755/3/189 756/4/189
v -0.343021 0.676851 0.071546
v -0.562072 0.698577 -0.119716
v -0.546915 0.704590 -0.136350
v -0.327903 0.682863 0.054875
vn 0.115961 -0.963264 -0.242231
f 757/1/190 758/2/190 759/3/190 760/4/190
v -0.327903 0.682863 0.054875
v -0.546915 0.704590 -0.136350
v -0.535143 0.721015 -0.147936
v -0.316159 0.699289 0.043261
vn 0.425332 -0.705202 -0.567258
f 761/1/191 762/2/191 763/3/191 764/4/191
v -0.316159 0.699289 0.043261
v -0.535143 0.721015 -0.147936
v -0.529911 0.743452 -0.151369
v -0.310935 0.721726 0.039816
vn 0.620738 -0.258183 -0.740288
f 765/1/192 766/2/192 767/3/192 768/4/192
v -0.529911 0.743452 -0.151369
v -0.748405 0.765179 -0.343090
v -0.751129 0.787616 -0.337457
v -0.532620 0.765890 -0.145728
vn 0.651592 0.258010 -0.713343
f 769/1/193 770/2/193 771/3/193 772/4/193
v -0.532620 0.765890 -0.145728
v -0.751129 0.787616 -0.337457
v -0.761088 0.804041 -0.324280
v -0.542545 0.782315 -0.132526
vn 0.506020 0.705075 -0.496802
f 773/1/194 774/2/194 775/3/194 776/4/194
v -0.542545 0.782315 -0.132526
v -0.761088 0.804041 -0.324280
v -0.775613 0.810054 -0.307091
v -0.557026 0.788327 -0.115299
vn 0.224862 0.963217 -0.147141
f 777/1/195 778/2/195 779/3/195 780/4/195
v -0.557026 0.788327 -0.115299
v -0.775613 0.810054 -0.307091
v -0.790813 0.804041 -0.290496
v -0.572183 0.782315 -0.098664
vn -0.116546 0.963264 0.241947
f 781/1/196 782/2/196 783/3/196 784/4/196
v -0.572183 0.782315 -0.098664
v -0.790813 0.804041 -0.290496
v -0.802615 0.787616 -0.278940
v -0.583955 0.765890 -0.087079
vn -0.426724 0.705206 0.566207
f 785/1/197 786/2/197 787/3/197 788/4/197
v -0.583955 0.765890 -0.087079
v -0.802615 0.787616 -0.278940
v -0.807856 0.765179 -0.275521
v -0.589187 0.743452 -0.083646
vn -0.622561 0.258188 0.738754
f 789/1/198 790/2/198 791/3/198 792/4/198
v -0.589187 0.743452 -0.083646
v -0.807856 0.765179 -0.275521
v -0.805132 0.742741 -0.281155
v -0.586478 0.721015 -0.089287
vn -0.651581 -0.258011 0.713353
f 793/1/199 794/2/199 795/3/199 796/4/199
v -0.586478 0.721015 -0.089287
v -0.805132 0.742741 -0.281155
v -0.795173 0.726316 -0.294331
v -0.576553 0.704590 -0.102489
vn -0.506009 -0.705077 0.496812
f 797/1/200 798/2/200 799/3/200 800/4/200
v -0.576553 0.704590 -0.102489
v -0.795173 0.726316 -0.294331
v -0.780648 0.720304 -0.311520
v -0.562072 0.698577 -0.119716
vn -0.224851 -0.963218 0.147151
f 801/1/201 802/2/201 803/3/201 804/4/201
v -0.562072 0.698577 -0.119716
v -0.780648 0.720304 -0.311520
v -0.765448 0.726316 -0.328116
v -0.546915 0.704590 -0.136350
vn 0.116558 -0.963266 -0.241937
f 805/1/202 806/2/202 807/3/202 808/4/202
v -0.546915 0.704590 -0.136350
v -0.765448 0.726316 -0.328116
v -0.753646 0.742741 -0.339672
v -0.535143 0.721015 -0.147936
vn 0.426736 -0.705207 -0.566197
f 809/1/203 810/2/203 811/3/203 812/4/203
v -0.535143 0.721015 -0.147936
v -0.753646 0.742741 -0.339672
v -0.748405 0.765179 -0.343090
v -0.529911 0.743452 -0.151369
vn 0.622572 -0.258189 -0.738744
f 813/1/204 814/2/204 815/3/204 816/4/204
v -0.748405 0.765179 -0.343090
v -0.966376 0.786905 -0.535392
v -0.969116 0.809342 -0.529766
v -0.751129 0.787616 -0.337457
vn 0.653507 0.258002 -0.711592
f 817/1/205 818/2/205 819/3/205 820/4/205
v -0.751129 0.787616 -0.337457
v -0.969116 0.809342 -0.529766
v -0.979111 0.825768 -0.516617
v -0.761088 0.804041 -0.324280
vn 0.507357 0.705070 -0.495445
f 821/1/206 822/2/206 823/3/206 824/4/206
v -0.761088 0.804041 -0.324280
v -0.979111 0.825768 -0.516617
v -0.993685 0.831780 -0.499469
v -0.775613 0.810054 -0.307091
vn 0.225262 0.963215 -0.146542
f 825/1/207 826/2/207 827/3/207 828/4/207
v -0.775613 0.810054 -0.307091
v -0.993685 0.831780 -0.499469
v -1.008931 0.825768 -0.482916
v -0.790813 0.804041 -0.290496
vn -0.117190 0.963266 0.241629
f 829/1/208 830/2/208 831/3/208 832/4/208
v -0.790813 0.804041 -0.290496
v -1.008931 0.825768 -0.482916
v -1.020765 0.809342 -0.471393
v -0.802615 0.787616 -0.278940
vn -0.428239 0.705211 0.565056
f 833/1/209 834/2/209 835/3/209 836/4/209
v -0.802615 0.787616 -0.278940
v -1.020765 0.809342 -0.471393
v -1.026016 0.786905 -0.467989
v -0.807856 0.765179 -0.275521
vn -0.624540 0.258195 0.737078
f 837/1/210 838/2/210 839/3/210 840/4/210
v -0.807856 0.765179 -0.275521
v -1.026016 0.786905 -0.467989
v -1.023276 0.764467 -0.473615
v -0.805132 0.742741 -0.281155
vn -0.653495 -0.258004 0.711603
f 841/1/211 842/2/211 843/3/211 844/4/211
v -0.805132 0.742741 -0.281155
v -1.023276 0.764467 -0.473615
v -1.013280 0.748042 -0.486764
v -0.795173 0.726316 -0.294331
vn -0.507344 -0.705071 0.495456
f 845/1/212 846/2/212 847/3/212 848/4/212
v -0.795173 0.726316 -0.294331
v -1.013280 0.748042 -0.486764
v -0.998707 0.742030 -0.503912
v -0.780648 0.720304 -0.311520
vn -0.225249 -0.963216 0.146553
f 849/1/213 850/2/213 851/3/213 852/4/213
v -0.780648 0.720304 -0.311520
v -0.998707 0.742030 -0.503912
v -0.983460 0.748042 -0.520465
v -0.765448 0.726316 -0.328116
vn 0.117203 -0.963268 -0.241618
f 853/1/214 854/2/214 855/3/214 856/4/214
v -0.765448 0.726316 -0.328116
v -0.983460 0.748042 -0.520465
v -0.971627 0.764467 -0.531988
v -0.753646 0.742741 -0.339672
vn 0.428252 -0.705212 -0.565045
f 857/1/215 858/2/215 859/3/215 860/4/215
v -0.753646 0.742741 -0.339672
v -0.971627 0.764467 -0.531988
v -0.966376 0.786905 -0.535392
v -0.748405 0.765179 -0.343090
vn 0.624553 -0.258196 -0.737068
f 861/1/216 862/2/216 863/3/216 864/4/216
v -0.966376 0.786905 -0.535392
v -1.183778 0.808631 -0.728320
v -1.186535 0.831068 -0.722702
v -0.969116 0.809342 -0.529766
vn 0.655578 0.257994 -0.709687
f 865/1/217 866/2/217 867/3/217 868/4/217
v -0.969116 0.809342 -0.529766
v -1.186535 0.831068 -0.722702
v -1.196570 0.847494 -0.709584
v -0.979111 0.825768 -0.516617
vn 0.508802 0.705064 -0.493969
f 869/1/218 870/2/218 871/3/218 872/4/218
v -0.979111 0.825768 -0.516617
v -1.196570 0.847494 -0.709584
v -1.211196 0.853506 -0.692480
v -0.993685 0.831780 -0.499469
vn 0.225694 0.963212 -0.145891
f 873/1/219 874/2/219 875/3/219 876/4/219
v -0.993685 0.831780 -0.499469
v -1.211196 0.853506 -0.692480
v -1.226492 0.847494 -0.675974
v -1.008931 0.825768 -0.482916
vn -0.117887 0.963268 0.241281
f 877/1/220 878/2/220 879/3/220 880/4/220
v -1.008931 0.825768 -0.482916
v -1.226492 0.847494 -0.675974
v -1.238361 0.831068 -0.664487
v -1.020765 0.809342 -0.471393
vn -0.429878 0.705217 0.563803
f 881/1/221 882/2/221 883/3/221 884/4/221
v -1.020765 0.809342 -0.471393
v -1.238361 0.831068 -0.664487
v -1.243622 0.808631 -0.661099
v -1.026016 0.786905 -0.467989
vn -0.626682 0.258203 0.735256
f 885/1/222 886/2/222 887/3/222 888/4/222
v -1.026016 0.786905 -0.467989
v -1.243622 0.808631 -0.661099
v -1.240865 0.786193 -0.666717
v -1.023276 0.764467 -0.473615
vn -0.655565 -0.257996 0.709699
f 889/1/223 890/2/223 891/3/223 892/4/223
v -1.023276 0.764467 -0.473615
v -1.240865 0.786193 -0.666717
v -1.230830 0.769768 -0.679835
v -1.013280 0.748042 -0.486764
vn -0.508788 -0.705065 0.493981
f 893/1/224 894/2/224 895/3/224 896/4/224
v -1.013280 0.748042 -0.486764
v -1.230830 0.769768 -0.679835
v -1.216204 0.763756 -0.696939
v -0.998707 0.742030 -0.503912
vn -0.225680 -0.963214 0.145903
f 897/1/225 898/2/225 899/3/225 900/4/225
v -0.998707 0.742030 -0.503912
v -1.216204 0.763756 -0.696939
v -1.200907 0.769768 -0.713445
v -0.983460 0.748042 -0.520465
vn 0.117901 -0.963270 -0.241269
f 901/1/226 902/2/226 903/3/226 904/4/226
v -0.983460 0.748042 -0.520465
v -1.200907 0.769768 -0.713445
v -1.189039 0.786193 -0.724932
v -0.971627 0.764467 -0.531988
vn 0.429892 -0.705218 -0.563791
f 905/1/227 906/2/227 907/3/227 908/4/227
v -0.971627 0.764467 -0.531988
v -1.189039 0.786193 -0.724932
v -1.183778 0.808631 -0.728320
v -0.966376 0.786905 -0.535392
vn 0.626695 -0.258205 -0.735244
f 909/1/228 910/2/228 911/3/228 912/4/228
v -1.183778 0.808631 -0.728320
v -1.400559 0.830357 -0.921927
v -1.403334 0.852795 -0.916319
v -1.186535 0.831068 -0.722702
vn 0.657823 0.257985 -0.707610
f 913/1/229 914/2/229 915/3/229 916/4/229
v -1.186535 0.831068 -0.722702
v -1.403334 0.852795 -0.916319
v -1.413413 0.869220 -0.903234
v -1.196570 0.847494 -0.709584
vn 0.510367 0.705057 -0.492361
f 917/1/230 918/2/230 919/3/230 920/4/230
v -1.196570 0.847494 -0.709584
v -1.413413 0.869220 -0.903234
v -1.428095 0.875232 -0.886178
v -1.211196 0.853506 -0.692480
vn 0.226161 0.963210 -0.145182
f 921/1/231 922/2/231 923/3/231 924/4/231
v -1.211196 0.853506 -0.692480
v -1.428095 0.875232 -0.886178
v -1.443446 0.869220 -0.869722
v -1.226492 0.847494 -0.675974
vn -0.118644 0.963271 0.240900
f 925/1/232 926/2/232 927/3/232 928/4/232
v -1.226492 0.847494 -0.675974
v -1.443446 0.869220 -0.869722
v -1.455353 0.852795 -0.858275
v -1.238361 0.831068 -0.664487
vn -0.431656 0.705223 0.562435
f 929/1/233 930/2/233 931/3/233 932/4/233
v -1.238361 0.831068 -0.664487
v -1.455353 0.852795 -0.858275
v -1.460625 0.830357 -0.854905
v -1.243622 0.808631 -0.661099
vn -0.629004 0.258212 0.733267
f 933/1/234 934/2/234 935/3/234 936/4/234
v -1.243622 0.808631 -0.661099
v -1.460625 0.830357 -0.854905
v -1.457850 0.807920 -0.860513
v -1.240865 0.786193 -0.666717
vn -0.657809 -0.257987 0.707623
f 937/1/235 938/2/235 939/3/235 940/4/235
v -1.240865 0.786193 -0.666717
v -1.457850 0.807920 -0.860513
v -1.447771 0.791494 -0.873598
v -1.230830 0.769768 -0.679835
vn -0.510353 -0.705059 0.492374
f 941/1/236 942/2/236 943/3/236 944/4/236
v -1.230830 0.769768 -0.679835
v -1.447771 0.791494 -0.873598
v -1.433089 0.785482 -0.890654
v -1.216204 0.763756 -0.696939
vn -0.226146 -0.963211 0.145195
f 945/1/237 946/2/237 947/3/237 948/4/237
v -1.216204 0.763756 -0.696939
v -1.433089 0.785482 -0.890654
v -1.417738 0.791494 -0.907110
v -1.200907 0.769768 -0.713445
vn 0.118658 -0.963272 -0.240887
f 949/1/238 950/2/238 951/3/238 952/4/238
v -1.200907 0.769768 -0.713445
v -1.417738 0.791494 -0.907110
v -1.405831 0.807920 -0.918557
v -1.189039 0.786193 -0.724932
vn 0.431670 -0.705225 -0.562422
f 953/1/239 954/2/239 955/3/239 956/4/239
v -1.189039 0.786193 -0.724932
v -1.405831 0.807920 -0.918557
v -1.400559 0.830357 -0.921927
v -1.183778 0.808631 -0.728320
vn 0.629018 -0.258214 -0.733254
f 957/1/240 958/2/240 959/3/240 960/4/240
v -1.400559 0.830357 -0.921927
v -1.616661 0.852083 -1.116272
v -1.619456 0.874521 -1.110674
v -1.403334 0.852795 -0.916319
vn 0.660262 0.257975 -0.705339
f 961/1/241 962/2/241 963/3/241 964/4/241
v -1.403334 0.852795 -0.916319
v -1.619456 0.874521 -1.110674
v -1.629582 0.890946 -1.097625
v -1.413413 0.869220 -0.903234
vn 0.512068 0.705050 -0.490603
f 965/1/242 966/2/242 967/3/242 968/4/242
v -1.413413 0.869220 -0.903234
v -1.629582 0.890946 -1.097625
v -1.644326 0.896958 -1.080623
v -1.428095 0.875232 -0.886178
vn 0.226668 0.963207 -0.144408
f 969/1/243 970/2/243 971/3/243 972/4/243
v -1.428095 0.875232 -0.886178
v -1.644326 0.896958 -1.080623
v -1.659736 0.890946 -1.064222
v -1.443446 0.869220 -0.869722
vn -0.119466 0.963273 0.240483
f 973/1/244 974/2/244 975/3/244 976/4/244
v -1.443446 0.869220 -0.869722
v -1.659736 0.890946 -1.064222
v -1.671684 0.874521 -1.052818
v -1.455353 0.852795 -0.858275
vn -0.433587 0.705231 0.560939
f 977/1/245 978/2/245 979/3/245 980/4/245
v -1.455353 0.852795 -0.858275
v -1.671684 0.874521 -1.052818
v -1.676968 0.852083 -1.049466
v -1.460625 0.830357 -0.854905
vn -0.631525 0.258222 0.731093
f 981/1/246 982/2/246 983/3/246 984/4/246
v -1.460625 0.830357 -0.854905
v -1.676968 0.852083 -1.049466
v -1.674173 0.829646 -1.055065
v -1.457850 0.807920 -0.860513
vn -0.660246 -0.257976 0.705354
f 985/1/247 986/2/247 987/3/247 988/4/247
v -1.457850 0.807920 -0.860513
v -1.674173 0.829646 -1.055065
v -1.664047 0.813221 -1.068114
v -1.447771 0.791494 -0.873598
vn -0.512052 -0.705051 0.490618
f 989/1/248 990/2/248 991/3/248 992/4/248
v -1.447771 0.791494 -0.873598
v -1.664047 0.813221 -1.068114
v -1.649303 0.807208 -1.085116
v -1.433089 0.785482 -0.890654
vn -0.226652 -0.963209 0.144423
f 993/1/249 994/2/249 995/3/249 996/4/249
v -1.433089 0.785482 -0.890654
v -1.649303 0.807208 -1.085116
v -1.633893 0.813221 -1.101516
v -1.417738 0.791494 -0.907110
vn 0.119482 -0.963275 -0.240469
f 997/1/250 998/2/250 999/3/250 1000/4/250
v -1.417738 0.791494 -0.907110
v -1.633893 0.813221 -1.101516
v -1.621945 0.829646 -1.112920
v -1.405831 0.807920 -0.918557
vn 0.433603 -0.705232 -0.560924
f 1001/1/251 1002/2/251 1003/3/251 1004/4/251
v -1.405831 0.807920 -0.918557
v -1.621945 0.829646 -1.112920
v -1.616661 0.852083 -1.116272
v -1.400559 0.830357 -0.921927
vn 0.631541 -0.258224 -0.731079
f 1005/1/252 1006/2/252 1007/3/252 1008/4/252
v -1.616661 0.852083 -1.116272
v -1.832010 0.873810 -1.311412
v -1.834829 0.896247 -1.305825
v -1.619456 0.874521 -1.110674
vn 0.662916 0.257963 -0.702849
f 1009/1/253 1010/2/253 1011/3/253 1012/4/253
v -1.619456 0.874521 -1.110674
v -1.834829 0.896247 -1.305825
v -1.845010 0.912672 -1.292819
v -1.629582 0.890946 -1.097625
vn 0.513918 0.705041 -0.488677
f 1013/1/254 1014/2/254 1015/3/254 1016/4/254
v -1.629582 0.890946 -1.097625
v -1.845010 0.912672 -1.292819
v -1.859824 0.918684 -1.275879
v -1.644326 0.896958 -1.080623
vn 0.227219 0.963204 -0.143561
f 1017/1/255 1018/2/255 1019/3/255 1020/4/255
v -1.644326 0.896958 -1.080623
v -1.859824 0.918684 -1.275879
v -1.875303 0.912672 -1.259543
v -1.659736 0.890946 -1.064222
vn -0.120362 0.963276 0.240024
f 1021/1/256 1022/2/256 1023/3/256 1024/4/256
v -1.659736 0.890946 -1.064222
v -1.875303 0.912672 -1.259543
v -1.887299 0.896247 -1.248189
v -1.671684 0.874521 -1.052818
vn -0.435689 0.705239 0.559297
f 1025/1/257 1026/2/257 1027/3/257 1028/4/257
v -1.671684 0.874521 -1.052818
v -1.887299 0.896247 -1.248189
v -1.892597 0.873810 -1.244859
v -1.676968 0.852083 -1.049466
vn -0.634271 0.258234 0.728709
f 1029/1/258 1030/2/258 1031/3/258 1032/4/258
v -1.676968 0.852083 -1.049466
v -1.892597 0.873810 -1.244859
v -1.889778 0.851372 -1.250446
v -1.674173 0.829646 -1.055065
vn -0.662898 -0.257965 0.702866
f 1033/1/259 1034/2/259 1035/3/259 1036/4/259
v -1.674173 0.829646 -1.055065
v -1.889778 0.851372 -1.250446
v -1.879597 0.834947 -1.263452
v -1.664047 0.813221 -1.068114
vn -0.513900 -0.705043 0.488694
f 1037/1/260 1038/2/260 1039/3/260 1040/4/260
v -1.664047 0.813221 -1.068114
v -1.879597 0.834947 -1.263452
v -1.864783 0.828935 -1.280393
v -1.649303 0.807208 -1.085116
vn -0.227200 -0.963206 0.143578
f 1041/1/261 1042/2/261 1043/3/261 1044/4/261
v -1.649303 0.807208 -1.085116
v -1.864783 0.828935 -1.280393
v -1.849304 0.834947 -1.296728
v -1.633893 0.813221 -1.101516
vn 0.120380 -0.963278 -0.240007
f 1045/1/262 1046/2/262 1047/3/262 1048/4/262
v -1.633893 0.813221 -1.101516
v -1.849304 0.834947 -1.296728
v -1.837308 0.851372 -1.308082
v -1.621945 0.829646 -1.112920
vn 0.435707 -0.705241 -0.559280
f 1049/1/263 1050/2/263 1051/3/263 1052/4/263
v -1.621945 0.829646 -1.112920
v -1.837308 0.851372 -1.308082
v -1.832010 0.873810 -1.311412
v -1.616661 0.852083 -1.116272
vn 0.634289 -0.258235 -0.728692
f 1053/1/264 1054/2/264 1055/3/264 1056/4/264
v -1.832010 0.873810 -1.311412
v -2.046438 0.895536 -1.507526
v -2.049284 0.917973 -1.501952
v -1.834829 0.896247 -1.305825
vn 0.666156 0.257933 -0.699791
f 1057/1/265 1058/2/265 1059/3/265 1060/4/265
v -1.834829 0.896247 -1.305825
v -2.049284 0.917973 -1.501952
v -2.059526 0.934399 -1.488995
v -1.845010 0.912672 -1.292819
vn 0.516182 0.705018 -0.486318
f 1061/1/266 1062/2/266 1063/3/266 1064/4/266
v -1.845010 0.912672 -1.292819
v -2.059526 0.934399 -1.488995
v -2.074421 0.940411 -1.472125
v -1.859824 0.918684 -1.275879
vn 0.227900 0.963196 -0.142534
f 1065/1/267 1066/2/267 1067/3/267 1068/4/267
v -1.859824 0.918684 -1.275879
v -2.074421 0.940411 -1.472125
v -2.089977 0.934399 -1.455863
v -1.875303 0.912672 -1.259543
vn -0.121446 0.963284 0.239446
f 1069/1/268 1070/2/268 1071/3/268 1072/4/268
v -1.875303 0.912672 -1.259543
v -2.089977 0.934399 -1.455863
v -2.102027 0.917973 -1.444566
v -1.887299 0.896247 -1.248189
vn -0.438247 0.705261 0.557268
f 1073/1/269 1074/2/269 1075/3/269 1076/4/269
v -1.887299 0.896247 -1.248189
v -2.102027 0.917973 -1.444566
v -2.107340 0.895536 -1.441262
v -1.892597 0.873810 -1.244859
vn -0.637616 0.258264 0.725772
f 1077/1/270 1078/2/270 1079/3/270 1080/4/270
v -1.892597 0.873810 -1.244859
v -2.107340 0.895536 -1.441262
v -2.104495 0.873098 -1.446835
v -1.889778 0.851372 -1.250446
vn -0.666135 -0.257935 0.699810
f 1081/1/271 1082/2/271 1083/3/271 1084/4/271
v -1.889778 0.851372 -1.250446
v -2.104495 0.873098 -1.446835
v -2.094253 0.856673 -1.459793
v -1.879597 0.834947 -1.263452
vn -0.516161 -0.705020 0.486337
f 1085/1/272 1086/2/272 1087/3/272 1088/4/272
v -1.879597 0.834947 -1.263452
v -2.094253 0.856673 -1.459793
v -2.079358 0.850661 -1.476662
v -1.864783 0.828935 -1.280393
vn -0.227879 -0.963198 0.142553
f 1089/1/273 1090/2/273 1091/3/273 1092/4/273
v -1.864783 0.828935 -1.280393
v -2.079358 0.850661 -1.476662
v -2.063801 0.856673 -1.492924
v -1.849304 0.834947 -1.296728
vn 0.121466 -0.963286 -0.239427
f 1093/1/274 1094/2/274 1095/3/274 1096/4/274
v -1.849304 0.834947 -1.296728
v -2.063801 0.856673 -1.492924
v -2.051752 0.873098 -1.504221
v -1.837308 0.851372 -1.308082
vn 0.438267 -0.705263 -0.557249
f 1097/1/275 1098/2/275 1099/3/275 1100/4/275
v -1.837308 0.851372 -1.308082
v -2.051752 0.873098 -1.504221
v -2.046438 0.895536 -1.507526
v -1.832010 0.873810 -1.311412
vn 0.637637 -0.258266 -0.725753
f 1101/1/276 1102/2/276 1103/3/276 1104/4/276
v -2.046438 0.895536 -1.507526
v -2.259895 0.917262 -1.704676
v -2.262769 0.939699 -1.699117
v -2.049284 0.917973 -1.501952
vn 0.669570 0.257922 -0.696529
f 1105/1/277 1106/2/277 1107/3/277 1108/4/277
v -2.049284 0.917973 -1.501952
v -2.262769 0.939699 -1.699117
v -2.273076 0.956125 -1.686211
v -2.059526 0.934399 -1.488995
vn 0.518558 0.705011 -0.483795
f 1109/1/278 1110/2/278 1111/3/278 1112/4/278
v -2.059526 0.934399 -1.488995
v -2.273076 0.956125 -1.686211
v -2.288056 0.962137 -1.669417
v -2.074421 0.940411 -1.472125
vn 0.228601 0.963193 -0.141425
f 1113/1/279 1114/2/279 1115/3/279 1116/4/279
v -2.074421 0.940411 -1.472125
v -2.288056 0.962137 -1.669417
v -2.303695 0.956125 -1.653234
v -2.089977 0.934399 -1.455863
vn -0.122607 0.963287 0.238843
f 1117/1/280 1118/2/280 1119/3/280 1120/4/280
v -2.089977 0.934399 -1.455863
v -2.303695 0.956125 -1.653234
v -2.315801 0.939699 -1.641998
v -2.102027 0.917973 -1.444566
vn -0.440959 0.705268 0.555115
f 1121/1/281 1122/2/281 1123/3/281 1124/4/281
v -2.102027 0.917973 -1.444566
v -2.315801 0.939699 -1.641998
v -2.321132 0.917262 -1.638720
v -2.107340 0.895536 -1.441262
vn -0.641153 0.258273 0.722647
f 1125/1/282 1126/2/282 1127/3/282 1128/4/282
v -2.107340 0.895536 -1.441262
v -2.321132 0.917262 -1.638720
v -2.318258 0.894824 -1.644279
v -2.104495 0.873098 -1.446835
vn -0.669548 -0.257925 0.696549
f 1129/1/283 1130/2/283 1131/3/283 1132/4/283
v -2.104495 0.873098 -1.446835
v -2.318258 0.894824 -1.644279
v -2.307950 0.878399 -1.657185
v -2.094253 0.856673 -1.459793
vn -0.518536 -0.705013 0.483815
f 1133/1/284 1134/2/284 1135/3/284 1136/4/284
v -2.094253 0.856673 -1.459793
v -2.307950 0.878399 -1.657185
v -2.292970 0.872387 -1.673979
v -2.079358 0.850661 -1.476662
vn -0.228579 -0.963195 0.141445
f 1137/1/285 1138/2/285 1139/3/285 1140/4/285
v -2.079358 0.850661 -1.476662
v -2.292970 0.872387 -1.673979
v -2.277332 0.878399 -1.690162
v -2.063801 0.856673 -1.492924
vn 0.122629 -0.963289 -0.238823
f 1141/1/286 1142/2/286 1143/3/286 1144/4/286
v -2.063801 0.856673 -1.492924
v -2.277332 0.878399 -1.690162
v -2.265226 0.894824 -1.701398
v -2.051752 0.873098 -1.504221
vn 0.440981 -0.705270 -0.555095
f 1145/1/287 1146/2/287 1147/3/287 1148/4/287
v -2.051752 0.873098 -1.504221
v -2.265226 0.894824 -1.701398
v -2.259895 0.917262 -1.704676
v -2.046438 0.895536 -1.507526
vn 0.641175 -0.258275 -0.722626
f 1149/1/288 1150/2/288 1151/3/288 1152/4/288
v -2.259895 0.917262 -1.704676
v -2.472299 0.938988 -1.902918
v -2.475204 0.961426 -1.897376
v -2.262769 0.939699 -1.699117
vn 0.673200 0.257910 -0.693025
f 1153/1/289 1154/2/289 1155/3/289 1156/4/289
v -2.262769 0.939699 -1.699117
v -2.475204 0.961426 -1.897376
v -2.485585 0.977851 -1.884529
v -2.273076 0.956125 -1.686211
vn 0.521083 0.705002 -0.481087
f 1157/1/290 1158/2/290 1159/3/290 1160/4/290
v -2.273076 0.956125 -1.686211
v -2.485585 0.977851 -1.884529
v -2.500660 0.983863 -1.867820
v -2.288056 0.962137 -1.669417
vn 0.229346 0.963190 -0.140237
f 1161/1/291 1162/2/291 1163/3/291 1164/4/291
v -2.288056 0.962137 -1.669417
v -2.500660 0.983863 -1.867820
v -2.516390 0.977851 -1.851726
v -2.303695 0.956125 -1.653234
vn -0.123843 0.963290 0.238192
f 1165/1/292 1166/2/292 1167/3/292 1168/4/292
v -2.303695 0.956125 -1.653234
v -2.516390 0.977851 -1.851726
v -2.528560 0.961426 -1.840559
v -2.315801 0.939699 -1.641998
vn -0.443843 0.705276 0.552801
f 1169/1/293 1170/2/293 1171/3/293 1172/4/293
v -2.315801 0.939699 -1.641998
v -2.528560 0.961426 -1.840559
v -2.533909 0.938988 -1.837312
v -2.321132 0.917262 -1.638720
vn -0.644913 0.258285 0.719289
f 1173/1/294 1174/2/294 1175/3/294 1176/4/294
v -2.321132 0.917262 -1.638720
v -2.533909 0.938988 -1.837312
v -2.531004 0.916551 -1.842854
v -2.318258 0.894824 -1.644279
vn -0.673176 -0.257913 0.693048
f 1177/1/295 1178/2/295 1179/3/295 1180/4/295
v -2.318258 0.894824 -1.644279
v -2.531004 0.916551 -1.842854
v -2.520623 0.900125 -1.855701
v -2.307950 0.878399 -1.657185
vn -0.521059 -0.705004 0.481109
f 1181/1/296 1182/2/296 1183/3/296 1184/4/296
v -2.307950 0.878399 -1.657185
v -2.520623 0.900125 -1.855701
v -2.505548 0.894113 -1.872410
v -2.292970 0.872387 -1.673979
vn -0.229321 -0.963192 0.140260
f 1185/1/297 1186/2/297 1187/3/297 1188/4/297
v -2.292970 0.872387 -1.673979
v -2.505548 0.894113 -1.872410
v -2.489818 0.900125 -1.888504
v -2.277332 0.878399 -1.690162
vn 0.123867 -0.963292 -0.238169
f 1189/1/298 1190/2/298 1191/3/298 1192/4/298
v -2.277332 0.878399 -1.690162
v -2.489818 0.900125 -1.888504
v -2.477648 0.916551 -1.899671
v -2.265226 0.894824 -1.701398
vn 0.443868 -0.705279 -0.552778
f 1193/1/299 1194/2/299 1195/3/299 1196/4/299
v -2.265226 0.894824 -1.701398
v -2.477648 0.916551 -1.899671
v -2.472299 0.938988 -1.902918
v -2.259895 0.917262 -1.704676
vn 0.644937 -0.258287 -0.719266
f 1197/1/300 1198/2/300 1199/3/300 1200/4/300
v -2.472299 0.938988 -1.902918
v -2.683440 0.960714 -2.102421
v -2.686384 0.983152 -2.096899
v -2.475204 0.961426 -1.897376
vn 0.677449 0.257877 -0.688885
f 1201/1/301 1202/2/301 1203/3/301 1204/4/301
v -2.475204 0.961426 -1.897376
v -2.686384 0.983152 -2.096899
v -2.696854 0.999577 -2.084125
v -2.485585 0.977851 -1.884529
vn 0.524046 0.704977 -0.477895
f 1205/1/302 1206/2/302 1207/3/302 1208/4/302
v -2.485585 0.977851 -1.884529
v -2.696854 0.999577 -2.084125
v -2.712045 1.005589 -2.067521
v -2.500660 0.983863 -1.867820
vn 0.230228 0.963180 -0.138849
f 1209/1/303 1210/2/303 1211/3/303 1212/4/303
v -2.500660 0.983863 -1.867820
v -2.712045 1.005589 -2.067521
v -2.727886 0.999577 -2.051537
v -2.516390 0.977851 -1.851726
vn -0.125277 0.963298 0.237407
f 1213/1/304 1214/2/304 1215/3/304 1216/4/304
v -2.516390 0.977851 -1.851726
v -2.727886 0.999577 -2.051537
v -2.740134 0.983152 -2.040455
v -2.528560 0.961426 -1.840559
vn -0.447209 0.705300 0.550052
f 1217/1/305 1218/2/305 1219/3/305 1220/4/305
v -2.528560 0.961426 -1.840559
v -2.740134 0.983152 -2.040455
v -2.745505 0.960714 -2.037245
v -2.533909 0.938988 -1.837312
vn -0.649306 0.258317 0.715314
f 1221/1/306 1222/2/306 1223/3/306 1224/4/306
v -2.533909 0.938988 -1.837312
v -2.745505 0.960714 -2.037245
v -2.742562 0.938277 -2.042767
v -2.531004 0.916551 -1.842854
vn -0.677420 -0.257880 0.688913
f 1225/1/307 1226/2/307 1227/3/307 1228/4/307
v -2.531004 0.916551 -1.842854
v -2.742562 0.938277 -2.042767
v -2.732092 0.921851 -2.055541
v -2.520623 0.900125 -1.855701
vn -0.524016 -0.704980 0.477923
f 1229/1/308 1230/2/308 1231/3/308 1232/4/308
v -2.520623 0.900125 -1.855701
v -2.732092 0.921851 -2.055541
v -2.716901 0.915839 -2.072145
v -2.505548 0.894113 -1.872410
vn -0.230198 -0.963183 0.138877
f 1233/1/309 1234/2/309 1235/3/309 1236/4/309
v -2.505548 0.894113 -1.872410
v -2.716901 0.915839 -2.072145
v -2.701059 0.921851 -2.088129
v -2.489818 0.900125 -1.888504
vn 0.125307 -0.963301 -0.237378
f 1237/1/310 1238/2/310 1239/3/310 1240/4/310
v -2.489818 0.900125 -1.888504
v -2.701059 0.921851 -2.088129
v -2.688812 0.938277 -2.099211
v -2.477648 0.916551 -1.899671
vn 0.447239 -0.705303 -0.550024
f 1241/1/311 1242/2/311 1243/3/311 1244/4/311
v -2.477648 0.916551 -1.899671
v -2.688812 0.938277 -2.099211
v -2.683440 0.960714 -2.102421
v -2.472299 0.938988 -1.902918
vn 0.649336 -0.258320 -0.715286
f 1245/1/312 1246/2/312 1247/3/312 1248/4/312
v -2.683440 0.960714 -2.102421
v -2.892994 0.982440 -2.303531
v -2.895981 1.004878 -2.298033
v -2.686384 0.983152 -2.096899
vn 0.682794 0.257817 -0.683610
f 1249/1/313 1250/2/313 1251/3/313 1252/4/313
v -2.686384 0.983152 -2.096899
v -2.895981 1.004878 -2.298033
v -2.906551 1.021303 -2.285341
v -2.696854 0.999577 -2.084125
vn 0.527775 0.704933 -0.473839
f 1253/1/314 1254/2/314 1255/3/314 1256/4/314
v -2.696854 0.999577 -2.084125
v -2.906551 1.021303 -2.285341
v -2.921872 1.027315 -2.268857
v -2.712045 1.005589 -2.067521
vn 0.231342 0.963164 -0.137097
f 1257/1/315 1258/2/315 1259/3/315 1260/4/315
v -2.712045 1.005589 -2.067521
v -2.921872 1.027315 -2.268857
v -2.937839 1.021303 -2.252998
v -2.727886 0.999577 -2.051537
vn -0.127076 0.963314 0.236386
f 1261/1/316 1262/2/316 1263/3/316 1264/4/316
v -2.727886 0.999577 -2.051537
v -2.937839 1.021303 -2.252998
v -2.950173 1.004878 -2.242013
v -2.740134 0.983152 -2.040455
vn -0.451438 0.705341 0.546532
f 1265/1/317 1266/2/317 1267/3/317 1268/4/317
v -2.740134 0.983152 -2.040455
v -2.950173 1.004878 -2.242013
v -2.955570 0.982440 -2.238845
v -2.745505 0.960714 -2.037245
vn -0.654832 0.258375 0.710238
f 1269/1/318 1270/2/318 1271/3/318 1272/4/318
v -2.745505 0.960714 -2.037245
v -2.955570 0.982440 -2.238845
v -2.952583 0.960003 -2.244344
v -2.742562 0.938277 -2.042767
vn -0.682760 -0.257821 0.683642
f 1273/1/319 1274/2/319 1275/3/319 1276/4/319
v -2.742562 0.938277 -2.042767
v -2.952583 0.960003 -2.244344
v -2.942013 0.943578 -2.257036
v -2.732092 0.921851 -2.055541
vn -0.527742 -0.704936 0.473871
f 1277/1/320 1278/2/320 1279/3/320 1280/4/320
v -2.732092 0.921851 -2.055541
v -2.942013 0.943578 -2.257036
v -2.926692 0.937566 -2.273519
v -2.716901 0.915839 -2.072145
vn -0.231309 -0.963168 0.137129
f 1281/1/321 1282/2/321 1283/3/321 1284/4/321
v -2.716901 0.915839 -2.072145
v -2.926692 0.937566 -2.273519
v -2.910725 0.943578 -2.289379
v -2.701059 0.921851 -2.088129
vn 0.127109 -0.963317 -0.236354
f 1285/1/322 1286/2/322 1287/3/322 1288/4/322
v -2.701059 0.921851 -2.088129
v -2.910725 0.943578 -2.289379
v -2.898391 0.960003 -2.300364
v -2.688812 0.938277 -2.099211
vn 0.451472 -0.705345 -0.546500
f 1289/1/323 1290/2/323 1291/3/323 1292/4/323
v -2.688812 0.938277 -2.099211
v -2.898391 0.960003 -2.300364
v -2.892994 0.982440 -2.303531
v -2.683440 0.960714 -2.102421
vn 0.654865 -0.258379 -0.710206
f 1293/1/324 1294/2/324 1295/3/324 1296/4/324
v -2.892994 0.982440 -2.303531
v -3.100892 1.004167 -2.506251
v -3.103930 1.026604 -2.500781
v -2.895981 1.004878 -2.298033
vn 0.688211 0.257810 -0.678158
f 1297/1/325 1298/2/325 1299/3/325 1300/4/325
v -2.895981 1.004878 -2.298033
v -3.103930 1.026604 -2.500781
v -3.114620 1.043029 -2.488190
v -2.906551 1.021303 -2.285341
vn 0.531532 0.704928 -0.469628
f 1301/1/326 1302/2/326 1303/3/326 1304/4/326
v -2.906551 1.021303 -2.285341
v -3.114620 1.043029 -2.488190
v -3.130096 1.049042 -2.471851
v -2.921872 1.027315 -2.268857
vn 0.232433 0.963162 -0.135254
f 1305/1/327 1306/2/327 1307/3/327 1308/4/327
v -2.921872 1.027315 -2.268857
v -3.130096 1.049042 -2.471851
v -3.146212 1.043029 -2.456144
v -2.937839 1.021303 -2.252998
vn -0.128943 0.963315 0.235367
f 1309/1/328 1310/2/328 1311/3/328 1312/4/328
v -2.937839 1.021303 -2.252998
v -3.146212 1.043029 -2.456144
v -3.158649 1.026604 -2.445275
v -2.950173 1.004878 -2.242013
vn -0.455763 0.705346 0.542926
f 1313/1/329 1314/2/329 1315/3/329 1316/4/329
v -2.950173 1.004878 -2.242013
v -3.158649 1.026604 -2.445275
v -3.164076 1.004167 -2.442159
v -2.955570 0.982440 -2.238845
vn -0.660454 0.258381 0.705011
f 1317/1/330 1318/2/330 1319/3/330 1320/4/330
v -2.955570 0.982440 -2.238845
v -3.164076 1.004167 -2.442159
v -3.161037 0.981729 -2.447629
v -2.952583 0.960003 -2.244344
vn -0.688173 -0.257815 0.678196
f 1321/1/331 1322/2/331 1323/3/331 1324/4/331
v -2.952583 0.960003 -2.244344
v -3.161037 0.981729 -2.447629
v -3.150347 0.965304 -2.460220
v -2.942013 0.943578 -2.257036
vn -0.531493 -0.704932 0.469666
f 1325/1/332 1326/2/332 1327/3/332 1328/4/332
v -2.942013 0.943578 -2.257036
v -3.150347 0.965304 -2.460220
v -3.134871 0.959292 -2.476559
v -2.926692 0.937566 -2.273519
vn -0.232393 -0.963166 0.135293
f 1329/1/333 1330/2/333 1331/3/333 1332/4/333
v -2.926692 0.937566 -2.273519
v -3.134871 0.959292 -2.476559
v -3.118755 0.965304 -2.492266
v -2.910725 0.943578 -2.289379
vn 0.128983 -0.963319 -0.235328
f 1333/1/334 1334/2/334 1335/3/334 1336/4/334
v -2.910725 0.943578 -2.289379
v -3.118755 0.965304 -2.492266
v -3.106318 0.981729 -2.503135
v -2.898391 0.960003 -2.300364
vn 0.455802 -0.705350 -0.542887
f 1337/1/335 1338/2/335 1339/3/335 1340/4/335
v -2.898391 0.960003 -2.300364
v -3.106318 0.981729 -2.503135
v -3.100892 1.004167 -2.506251
v -2.892994 0.982440 -2.303531
vn 0.660493 -0.258385 -0.704973
f 1341/1/336 1342/2/336 1343/3/336 1344/4/336
v -3.100892 1.004167 -2.506251
v -3.306482 1.025893 -2.711159
v -3.309585 1.048330 -2.705725
v -3.103930 1.026604 -2.500781
vn 0.695615 0.257701 -0.670605
f 1345/1/337 1346/2/337 1347/3/337 1348/4/337
v -3.103930 1.026604 -2.500781
v -3.309585 1.048330 -2.705725
v -3.320422 1.064756 -2.693261
v -3.114620 1.043029 -2.488190
vn 0.536700 0.704846 -0.463838
f 1349/1/338 1350/2/338 1351/3/338 1352/4/338
v -3.114620 1.043029 -2.488190
v -3.320422 1.064756 -2.693261
v -3.336090 1.070768 -2.677107
v -3.130096 1.049042 -2.471851
vn 0.233981 0.963132 -0.132776
f 1353/1/339 1354/2/339 1355/3/339 1356/4/339
v -3.130096 1.049042 -2.471851
v -3.336090 1.070768 -2.677107
v -3.352390 1.064756 -2.661591
v -3.146212 1.043029 -2.456144
vn -0.131431 0.963343 0.233873
f 1357/1/340 1358/2/340 1359/3/340 1360/4/340
v -3.146212 1.043029 -2.456144
v -3.352390 1.064756 -2.661591
v -3.364955 1.048330 -2.650870
v -3.158649 1.026604 -2.445275
vn -0.461616 0.705421 0.537858
f 1361/1/341 1362/2/341 1363/3/341 1364/4/341
v -3.158649 1.026604 -2.445275
v -3.364955 1.048330 -2.650870
v -3.370418 1.025893 -2.647818
v -3.164076 1.004167 -2.442159
vn -0.668102 0.258486 0.697728
f 1365/1/342 1366/2/342 1367/3/342 1368/4/342
v -3.164076 1.004167 -2.442159
v -3.370418 1.025893 -2.647818
v -3.367315 1.003455 -2.653252
v -3.161037 0.981729 -2.447629
vn -0.695566 -0.257706 0.670653
f 1369/1/343 1370/2/343 1371/3/343 1372/4/343
v -3.161037 0.981729 -2.447629
v -3.367315 1.003455 -2.653252
v -3.356478 0.987030 -2.665716
v -3.150347 0.965304 -2.460220
vn -0.536651 -0.704851 0.463886
f 1373/1/344 1374/2/344 1375/3/344 1376/4/344
v -3.150347 0.965304 -2.460220
v -3.356478 0.987030 -2.665716
v -3.340810 0.981018 -2.681871
v -3.134871 0.959292 -2.476559
vn -0.233931 -0.963138 0.132825
f 1377/1/345 1378/2/345 1379/3/345 1380/4/345
v -3.134871 0.959292 -2.476559
v -3.340810 0.981018 -2.681871
v -3.324509 0.987030 -2.697387
v -3.118755 0.965304 -2.492266
vn 0.131481 -0.963348 -0.233824
f 1381/1/346 1382/2/346 1383/3/346 1384/4/346
v -3.118755 0.965304 -2.492266
v -3.324509 0.987030 -2.697387
v -3.311944 1.003455 -2.708107
v -3.106318 0.981729 -2.503135
vn 0.461665 -0.705426 -0.537809
f 1385/1/347 1386/2/347 1387/3/347 1388/4/347
v -3.106318 0.981729 -2.503135
v -3.311944 1.003455 -2.708107
v -3.306482 1.025893 -2.711159
v -3.100892 1.004167 -2.506251
vn 0.668150 -0.258491 -0.697680
f 1389/1/348 1390/2/348 1391/3/348 1392/4/348
v -3.306482 1.025893 -2.711159
v -3.509374 1.047619 -2.918569
v -3.512555 1.070057 -2.913180
v -3.309585 1.048330 -2.705725
vn 0.704070 0.257637 -0.661747
f 1393/1/349 1394/2/349 1395/3/349 1396/4/349
v -3.309585 1.048330 -2.705725
v -3.512555 1.070057 -2.913180
v -3.523572 1.086482 -2.900874
v -3.320422 1.064756 -2.693261
vn 0.542571 0.704798 -0.457030
f 1397/1/350 1398/2/350 1399/3/350 1400/4/350
v -3.320422 1.064756 -2.693261
v -3.523572 1.086482 -2.900874
v -3.539472 1.092494 -2.884948
v -3.336090 1.070768 -2.677107
vn 0.235694 0.963115 -0.129840
f 1401/1/351 1402/2/351 1403/3/351 1404/4/351
v -3.336090 1.070768 -2.677107
v -3.539472 1.092494 -2.884948
v -3.555995 1.086482 -2.869670
v -3.352390 1.064756 -2.661591
vn -0.134333 0.963358 0.232153
f 1405/1/352 1406/2/352 1407/3/352 1408/4/352
v -3.352390 1.064756 -2.661591
v -3.555995 1.086482 -2.869670
v -3.568714 1.070057 -2.859132
v -3.364955 1.048330 -2.650870
vn -0.468355 0.705464 0.531943
f 1409/1/353 1410/2/353 1411/3/353 1412/4/353
v -3.364955 1.048330 -2.650870
v -3.568714 1.070057 -2.859132
v -3.574220 1.047619 -2.856160
v -3.370418 1.025893 -2.647818
vn -0.676869 0.258547 0.689204
f 1413/1/354 1414/2/354 1415/3/354 1416/4/354
v -3.370418 1.025893 -2.647818
v -3.574220 1.047619 -2.856160
v -3.571039 1.025182 -2.861548
v -3.367315 1.003455 -2.653252
vn -0.704012 -0.257643 0.661806
f 1417/1/355 1418/2/355 1419/3/355 1420/4/355
v -3.367315 1.003455 -2.653252
v -3.571039 1.025182 -2.861548
v -3.560022 1.008756 -2.873854
v -3.356478 0.987030 -2.665716
vn -0.542512 -0.704805 0.457089
f 1421/1/356 1422/2/356 1423/3/356 1424/4/356
v -3.356478 0.987030 -2.665716
v -3.560022 1.008756 -2.873854
v -3.544122 1.002744 -2.889780
v -3.340810 0.981018 -2.681871
vn -0.235634 -0.963121 0.129900
f 1425/1/357 1426/2/357 1427/3/357 1428/4/357
v -3.340810 0.981018 -2.681871
v -3.544122 1.002744 -2.889780
v -3.527599 1.008756 -2.905059
v -3.324509 0.987030 -2.697387
vn 0.134394 -0.963365 -0.232092
f 1429/1/358 1430/2/358 1431/3/358 1432/4/358
v -3.324509 0.987030 -2.697387
v -3.527599 1.008756 -2.905059
v -3.514880 1.025182 -2.915596
v -3.311944 1.003455 -2.708107
vn 0.468414 -0.705470 -0.531883
f 1433/1/359 1434/2/359 1435/3/359 1436/4/359
v -3.311944 1.003455 -2.708107
v -3.514880 1.025182 -2.915596
v -3.509374 1.047619 -2.918569
v -3.306482 1.025893 -2.711159
vn 0.676927 -0.258553 -0.689145
f 1437/1/360 1438/2/360 1439/3/360 1440/4/360
v -3.509374 1.047619 -2.918569
v -3.708716 1.069345 -3.129097
v -3.712000 1.091783 -3.123771
v -3.512555 1.070057 -2.913180
vn 0.714774 0.257504 -0.650223
f 1441/1/361 1442/2/361 1443/3/361 1444/4/361
v -3.512555 1.070057 -2.913180
v -3.712000 1.091783 -3.123771
v -3.723251 1.108208 -3.111678
v -3.523572 1.086482 -2.900874
vn 0.550013 0.704698 -0.448203
f 1445/1/362 1446/2/362 1447/3/362 1448/4/362
v -3.523572 1.086482 -2.900874
v -3.723251 1.108208 -3.111678
v -3.739453 1.114220 -3.096060
v -3.539472 1.092494 -2.884948
vn 0.237881 0.963078 -0.126069
f 1449/1/363 1450/2/363 1451/3/363 1452/4/363
v -3.539472 1.092494 -2.884948
v -3.739453 1.114220 -3.096060
v -3.756266 1.108208 -3.081101
v -3.555995 1.086482 -2.869670
vn -0.137990 0.963391 0.229861
f 1453/1/364 1454/2/364 1455/3/364 1456/4/364
v -3.555995 1.086482 -2.869670
v -3.756266 1.108208 -3.081101
v -3.769185 1.091783 -3.070809
v -3.568714 1.070057 -2.859132
vn -0.476871 0.705553 0.524203
f 1457/1/365 1458/2/365 1459/3/365 1460/4/365
v -3.568714 1.070057 -2.859132
v -3.769185 1.091783 -3.070809
v -3.774747 1.069345 -3.067942
v -3.574220 1.047619 -2.856160
vn -0.687957 0.258672 0.678088
f 1461/1/366 1462/2/366 1463/3/366 1464/4/366
v -3.574220 1.047619 -2.856160
v -3.774747 1.069345 -3.067942
v -3.771463 1.046908 -3.073269
v -3.571039 1.025182 -2.861548
vn -0.714702 -0.257512 0.650300
f 1465/1/367 1466/2/367 1467/3/367 1468/4/367
v -3.571039 1.025182 -2.861548
v -3.771463 1.046908 -3.073269
v -3.760213 1.030482 -3.085362
v -3.560022 1.008756 -2.873854
vn -0.549939 -0.704706 0.448282
f 1469/1/368 1470/2/368 1471/3/368 1472/4/368
v -3.560022 1.008756 -2.873854
v -3.760213 1.030482 -3.085362
v -3.744010 1.024470 -3.100980
v -3.544122 1.002744 -2.889780
vn -0.237803 -0.963087 0.126150
f 1473/1/369 1474/2/369 1475/3/369 1476/4/369
v -3.544122 1.002744 -2.889780
v -3.744010 1.024470 -3.100980
v -3.727197 1.030482 -3.115939
v -3.527599 1.008756 -2.905059
vn 0.138069 -0.963399 -0.229779
f 1477/1/370 1478/2/370 1479/3/370 1480/4/370
v -3.527599 1.008756 -2.905059
v -3.727197 1.030482 -3.115939
v -3.714279 1.046908 -3.126231
v -3.514880 1.025182 -2.915596
vn 0.476947 -0.705561 -0.524123
f 1481/1/371 1482/2/371 1483/3/371 1484/4/371
v -3.514880 1.025182 -2.915596
v -3.714279 1.046908 -3.126231
v -3.708716 1.069345 -3.129097
v -3.509374 1.047619 -2.918569
vn 0.688030 -0.258680 -0.678011
f 1485/1/372 1486/2/372 1487/3/372 1488/4/372
v -3.708716 1.069345 -3.129097
v -3.903138 1.091071 -3.343718
v -3.906562 1.113509 -3.338481
v -3.712000 1.091783 -3.123771
vn 0.728989 0.257288 -0.634333
f 1489/1/373 1490/2/373 1491/3/373 1492/4/373
v -3.712000 1.091783 -3.123771
v -3.906562 1.113509 -3.338481
v -3.918131 1.129934 -3.326692
v -3.723251 1.108208 -3.111678
vn 0.559893 0.704534 -0.436063
f 1493/1/374 1494/2/374 1495/3/374 1496/4/374
v -3.723251 1.108208 -3.111678
v -3.918131 1.129934 -3.326692
v -3.934744 1.135946 -3.311511
v -3.739453 1.114220 -3.096060
vn 0.240776 0.963019 -0.120921
f 1497/1/375 1498/2/375 1499/3/375 1500/4/375
v -3.739453 1.114220 -3.096060
v -3.934744 1.135946 -3.311511
v -3.951950 1.129934 -3.297006
v -3.756266 1.108208 -3.081101
vn -0.142860 0.963443 0.226645
f 1501/1/376 1502/2/376 1503/3/376 1504/4/376
v -3.756266 1.108208 -3.081101
v -3.951950 1.129934 -3.297006
v -3.965138 1.113509 -3.287062
v -3.769185 1.091783 -3.070809
vn -0.488193 0.705694 0.513482
f 1505/1/377 1506/2/377 1507/3/377 1508/4/377
v -3.769185 1.091783 -3.070809
v -3.965138 1.113509 -3.287062
v -3.970775 1.091071 -3.284345
v -3.774747 1.069345 -3.067942
vn -0.702687 0.258872 0.662734
f 1509/1/378 1510/2/378 1511/3/378 1512/4/378
v -3.774747 1.069345 -3.067942
v -3.970775 1.091071 -3.284345
v -3.967351 1.068634 -3.289582
v -3.771463 1.046908 -3.073269
vn -0.728895 -0.257299 0.634436
f 1513/1/379 1514/2/379 1515/3/379 1516/4/379
v -3.771463 1.046908 -3.073269
v -3.967351 1.068634 -3.289582
v -3.955782 1.052209 -3.301371
v -3.760213 1.030482 -3.085362
vn -0.559795 -0.704546 0.436171
f 1517/1/380 1518/2/380 1519/3/380 1520/4/380
v -3.760213 1.030482 -3.085362
v -3.955782 1.052209 -3.301371
v -3.939169 1.046197 -3.316552
v -3.744010 1.024470 -3.100980
vn -0.240671 -0.963031 0.121035
f 1521/1/381 1522/2/381 1523/3/381 1524/4/381
v -3.744010 1.024470 -3.100980
v -3.939169 1.046197 -3.316552
v -3.921963 1.052209 -3.331057
v -3.727197 1.030482 -3.115939
vn 0.142967 -0.963455 -0.226530
f 1525/1/382 1526/2/382 1527/3/382 1528/4/382
v -3.727197 1.030482 -3.115939
v -3.921963 1.052209 -3.331057
v -3.908774 1.068634 -3.341001
v -3.714279 1.046908 -3.126231
vn 0.488295 -0.705705 -0.513370
f 1529/1/383 1530/2/383 1531/3/383 1532/4/383
v -3.714279 1.046908 -3.126231
v -3.908774 1.068634 -3.341001
v -3.903138 1.091071 -3.343718
v -3.708716 1.069345 -3.129097
vn 0.702783 -0.258882 -0.662629
f 1533/1/384 1534/2/384 1535/3/384 1536/4/384
v -3.903138 1.091071 -3.343718
v -4.090308 1.112798 -3.563775
v -4.093950 1.135235 -3.558685
v -3.906562 1.113509 -3.338481
vn 0.748529 0.256941 -0.611299
f 1537/1/385 1538/2/385 1539/3/385 1540/4/385
v -3.906562 1.113509 -3.338481
v -4.093950 1.135235 -3.558685
v -4.106003 1.151660 -3.547392
v -3.918131 1.129934 -3.326692
vn 0.573459 0.704268 -0.418510
f 1541/1/386 1542/2/386 1543/3/386 1544/4/386
v -3.918131 1.129934 -3.326692
v -4.106003 1.151660 -3.547392
v -4.123238 1.157672 -3.532922
v -3.934744 1.135946 -3.311511
vn 0.244727 0.962922 -0.113532
f 1545/1/387 1546/2/387 1547/3/387 1548/4/387
v -3.934744 1.135946 -3.311511
v -4.123238 1.157672 -3.532922
v -4.141037 1.151660 -3.519151
v -3.951950 1.129934 -3.297006
vn -0.149598 0.963524 0.221904
f 1549/1/388 1550/2/388 1551/3/388 1552/4/388
v -3.951950 1.129934 -3.297006
v -4.141037 1.151660 -3.519151
v -4.154631 1.135235 -3.509770
v -3.965138 1.113509 -3.287062
vn -0.503801 0.705912 0.497868
f 1553/1/389 1554/2/389 1555/3/389 1556/4/389
v -3.965138 1.113509 -3.287062
v -4.154631 1.135235 -3.509770
v -4.160378 1.112798 -3.507292
v -3.970775 1.091071 -3.284345
vn -0.722964 0.259185 0.640426
f 1557/1/390 1558/2/390 1559/3/390 1560/4/390
v -3.970775 1.091071 -3.284345
v -4.160378 1.112798 -3.507292
v -4.156736 1.090360 -3.512381
v -3.967351 1.068634 -3.289582
vn -0.748411 -0.256955 0.611437
f 1561/1/391 1562/2/391 1563/3/391 1564/4/391
v -3.967351 1.068634 -3.289582
v -4.156736 1.090360 -3.512381
v -4.144683 1.073935 -3.523674
v -3.955782 1.052209 -3.301371
vn -0.573325 -0.704285 0.418666
f 1565/1/392 1566/2/392 1567/3/392 1568/4/392
v -3.955782 1.052209 -3.301371
v -4.144683 1.073935 -3.523674
v -4.127448 1.067923 -3.538145
v -3.939169 1.046197 -3.316552
vn -0.244570 -0.962941 0.113712
f 1569/1/393 1570/2/393 1571/3/393 1572/4/393
v -3.939169 1.046197 -3.316552
v -4.127448 1.067923 -3.538145
v -4.109649 1.073935 -3.551915
v -3.921963 1.052209 -3.331057
vn 0.149761 -0.963542 -0.221718
f 1573/1/394 1574/2/394 1575/3/394 1576/4/394
v -3.921963 1.052209 -3.331057
v -4.109649 1.073935 -3.551915
v -4.096055 1.090360 -3.561297
v -3.908774 1.068634 -3.341001
vn 0.503947 -0.705927 -0.497699
f 1577/1/395 1578/2/395 1579/3/395 1580/4/395
v -3.908774 1.068634 -3.341001
v -4.096055 1.090360 -3.561297
v -4.090308 1.112798 -3.563775
v -3.903138 1.091071 -3.343718
vn 0.723088 -0.259199 -0.640281
f 1581/1/396 1582/2/396 1583/3/396 1584/4/396
v -4.090308 1.112798 -3.563775
v -4.264574 1.134524 -3.791919
v -4.268615 1.156961 -3.787140
v -4.093950 1.135235 -3.558685
vn 0.779794 0.256120 -0.571248
f 1585/1/397 1586/2/397 1587/3/397 1588/4/397
v -4.093950 1.135235 -3.558685
v -4.268615 1.156961 -3.787140
v -4.281545 1.173386 -3.776862
v -4.106003 1.151660 -3.547392
vn 0.595197 0.703622 -0.388145
f 1589/1/398 1590/2/398 1591/3/398 1592/4/398
v -4.106003 1.151660 -3.547392
v -4.281545 1.173386 -3.776862
v -4.299898 1.179398 -3.763839
v -4.123238 1.157672 -3.532922
vn 0.251075 0.962692 -0.100924
f 1593/1/399 1594/2/399 1595/3/399 1596/4/399
v -4.123238 1.157672 -3.532922
v -4.299898 1.179398 -3.763839
v -4.318758 1.173386 -3.751560
v -4.141037 1.151660 -3.519151
vn -0.160415 0.963707 0.213394
f 1597/1/400 1598/2/400 1599/3/400 1600/4/400
v -4.141037 1.151660 -3.519151
v -4.318758 1.173386 -3.751560
v -4.333071 1.156961 -3.743317
v -4.154631 1.135235 -3.509770
vn -0.528859 0.706391 0.470447
f 1601/1/401 1602/2/401 1603/3/401 1604/4/401
v -4.154631 1.135235 -3.509770
v -4.333071 1.156961 -3.743317
v -4.339001 1.134524 -3.741316
v -4.160378 1.112798 -3.507292
vn -0.755490 0.259900 0.601404
f 1605/1/402 1606/2/402 1607/3/402 1608/4/402
v -4.160378 1.112798 -3.507292
v -4.339001 1.134524 -3.741316
v -4.334960 1.112087 -3.746095
v -4.156736 1.090360 -3.512381
vn -0.779713 -0.256131 0.571353
f 1609/1/403 1610/2/403 1611/3/403 1612/4/403
v -4.156736 1.090360 -3.512381
v -4.334960 1.112087 -3.746095
v -4.322031 1.095661 -3.756373
v -4.144683 1.073935 -3.523674
vn -0.595038 -0.703645 0.388347
f 1613/1/404 1614/2/404 1615/3/404 1616/4/404
v -4.144683 1.073935 -3.523674
v -4.322031 1.095661 -3.756373
v -4.303677 1.089649 -3.769396
v -4.127448 1.067923 -3.538145
vn -0.250806 -0.962727 0.101260
f 1617/1/405 1618/2/405 1619/3/405 1620/4/405
v -4.127448 1.067923 -3.538145
v -4.303677 1.089649 -3.769396
v -4.284817 1.095661 -3.781675
v -4.109649 1.073935 -3.551915
vn 0.160714 -0.963739 -0.213021
f 1621/1/406 1622/2/406 1623/3/406 1624/4/406
v -4.109649 1.073935 -3.551915
v -4.284817 1.095661 -3.781675
v -4.270505 1.112087 -3.789918
v -4.096055 1.090360 -3.561297
vn 0.529077 -0.706413 -0.470168
f 1625/1/407 1626/2/407 1627/3/407 1628/4/407
v -4.096055 1.090360 -3.561297
v -4.270505 1.112087 -3.789918
v -4.264574 1.134524 -3.791919
v -4.090308 1.112798 -3.563775
vn 0.755600 -0.259913 -0.601261
f 1629/1/408 1630/2/408 1631/3/408 1632/4/408
v -4.264574 1.134524 -3.791919
v -4.413090 1.156250 -4.038638
v -4.417388 1.178687 -4.034090
v -4.268615 1.156961 -3.787140
vn 0.838421 0.253744 -0.482352
f 1633/1/409 1634/2/409 1635/3/409 1636/4/409
v -4.268615 1.156961 -3.787140
v -4.417388 1.178687 -4.034090
v -4.430864 1.195113 -4.024539
v -4.281545 1.173386 -3.776862
vn 0.635910 0.701671 -0.321367
f 1637/1/410 1638/2/410 1639/3/410 1640/4/410
v -4.281545 1.173386 -3.776862
v -4.430864 1.195113 -4.024539
v -4.449906 1.201125 -4.012546
v -4.299898 1.179398 -3.763839
vn 0.262657 0.962051 -0.073959
f 1641/1/411 1642/2/411 1643/3/411 1644/4/411
v -4.299898 1.179398 -3.763839
v -4.449906 1.201125 -4.012546
v -4.469412 1.195113 -4.001322
v -4.318758 1.173386 -3.751560
vn -0.181321 0.964181 0.193592
f 1645/1/412 1646/2/412 1647/3/412 1648/4/412
v -4.318758 1.173386 -3.751560
v -4.469412 1.195113 -4.001322
v -4.484156 1.178687 -3.993877
v -4.333071 1.156961 -3.743317
vn -0.576256 0.707486 0.409136
f 1649/1/413 1650/2/413 1651/3/413 1652/4/413
v -4.333071 1.156961 -3.743317
v -4.484156 1.178687 -3.993877
v -4.490186 1.156250 -3.992204
v -4.339001 1.134524 -3.741316
vn -0.816324 0.261667 0.514923
f 1653/1/414 1654/2/414 1655/3/414 1656/4/414
v -4.339001 1.134524 -3.741316
v -4.490186 1.156250 -3.992204
v -4.485888 1.133813 -3.996752
v -4.334960 1.112087 -3.746095
vn -0.838021 -0.253812 0.483012
f 1657/1/415 1658/2/415 1659/3/415 1660/4/415
v -4.334960 1.112087 -3.746095
v -4.485888 1.133813 -3.996752
v -4.472412 1.117387 -4.006303
v -4.322031 1.095661 -3.756373
vn -0.635583 -0.701733 0.321878
f 1661/1/416 1662/2/416 1663/3/416 1664/4/416
v -4.322031 1.095661 -3.756373
v -4.472412 1.117387 -4.006303
v -4.453370 1.111375 -4.018297
v -4.303677 1.089649 -3.769396
vn -0.262442 -0.962085 0.074278
f 1665/1/417 1666/2/417 1667/3/417 1668/4/417
v -4.303677 1.089649 -3.769396
v -4.453370 1.111375 -4.018297
v -4.433864 1.117387 -4.029520
v -4.284817 1.095661 -3.781675
vn 0.181503 -0.964201 -0.193322
f 1669/1/418 1670/2/418 1671/3/418 1672/4/418
v -4.284817 1.095661 -3.781675
v -4.433864 1.117387 -4.029520
v -4.419120 1.133813 -4.036965
v -4.270505 1.112087 -3.789918
vn 0.576521 -0.707509 -0.408722
f 1673/1/419 1674/2/419 1675/3/419 1676/4/419
v -4.270505 1.112087 -3.789918
v -4.419120 1.133813 -4.036965
v -4.413090 1.156250 -4.038638
v -4.264574 1.134524 -3.791919
vn 0.816694 -0.261710 -0.514313
f 1677/1/420 1678/2/420 1679/3/420 1680/4/420
v -4.413090 1.156250 -4.038638
v -4.449906 1.201125 -4.012546
v -4.430864 1.195113 -4.024539
v -4.417388 1.178687 -4.034090
vn -0.514496 0.074595 -0.854242
f 1681/1/421 1682/2/421 1683/3/421 1684/4/421
v -4.413090 1.156250 -4.038638
v -4.484156 1.178687 -3.993877
v -4.469412 1.195113 -4.001322
v -4.449906 1.201125 -4.012546
vn -0.514496 0.074595 -0.854242
f 1685/1/422 1686/2/422 1687/3/422 1688/4/422
v -4.413090 1.156250 -4.038638
v -4.485888 1.133813 -3.996752
v -4.490186 1.156250 -3.992204
v -4.484156 1.178687 -3.993877
vn -0.514496 0.074595 -0.854242
f 1689/1/423 1690/2/423 1691/3/423 1692/4/423
v -4.413090 1.156250 -4.038638
v -4.453370 1.111375 -4.018297
v -4.472412 1.117387 -4.006303
v -4.485888 1.133813 -3.996752
vn -0.514496 0.074595 -0.854242
f 1693/1/424 1694/2/424 1695/3/424 1696/4/424
v -4.413090 1.156250 -4.038638
v -4.419120 1.133813 -4.036965
v -4.433864 1.117387 -4.029520
v -4.453370 1.111375 -4.018297
vn -0.514496 0.074595 -0.854242
f 1697/1/425 1698/2/425 1699/3/425 1700/4/425
v -4.416160 1.155503 -4.019964
v -4.440709 1.156250 -4.076251
v -4.444946 1.173250 -4.074577
v -4.420256 1.172502 -4.017963
vn 0.886638 0.258810 -0.383263
f 1701/1/426 1702/2/426 1703/3/426 1704/4/426
v -4.420256 1.172502 -4.017963
v -4.444946 1.173250 -4.074577
v -4.456593 1.185694 -4.070190
v -4.431609 1.184946 -4.012863
vn 0.651569 0.707062 -0.274811
f 1705/1/427 1706/2/427 1707/3/427 1708/4/427
v -4.431609 1.184946 -4.012863
v -4.456593 1.185694 -4.070190
v -4.472527 1.190249 -4.064267
v -4.447176 1.189501 -4.006031
vn 0.241880 0.965858 -0.092798
f 1709/1/428 1710/2/428 1711/3/428 1712/4/428
v -4.447176 1.189501 -4.006031
v -4.472527 1.190249 -4.064267
v -4.488481 1.185694 -4.058395
v -4.462786 1.184946 -3.999298
vn -0.232765 0.965858 0.113747
f 1713/1/429 1714/2/429 1715/3/429 1716/4/429
v -4.462786 1.184946 -3.999298
v -4.488481 1.185694 -4.058395
v -4.500178 1.173250 -4.054146
v -4.474256 1.172502 -3.994467
vn -0.645187 0.707061 0.289478
f 1717/1/430 1718/2/430 1719/3/430 1720/4/430
v -4.474256 1.172502 -3.994467
v -4.500178 1.173250 -4.054146
v -4.504485 1.156250 -4.052660
v -4.478513 1.155503 -3.992834
vn -0.884771 0.258809 0.387553
f 1721/1/431 1722/2/431 1723/3/431 1724/4/431
v -4.478513 1.155503 -3.992834
v -4.504485 1.156250 -4.052660
v -4.500248 1.139250 -4.054335
v -4.474416 1.138504 -3.994835
vn -0.887216 -0.258793 0.381934
f 1725/1/432 1726/2/432 1727/3/432 1728/4/432
v -4.474416 1.138504 -3.994835
v -4.500248 1.139250 -4.054335
v -4.488602 1.126806 -4.058721
v -4.463063 1.126060 -3.999935
vn -0.651862 -0.707053 0.274139
f 1729/1/433 1730/2/433 1731/3/433 1732/4/433
v -4.463063 1.126060 -3.999935
v -4.488602 1.126806 -4.058721
v -4.472667 1.122251 -4.064644
v -4.447496 1.121505 -4.006767
vn -0.241869 -0.965859 0.092824
f 1733/1/434 1734/2/434 1735/3/434 1736/4/434
v -4.447496 1.121505 -4.006767
v -4.472667 1.122251 -4.064644
v -4.456713 1.126806 -4.070517
v -4.431887 1.126060 -4.013500
vn 0.232795 -0.965859 -0.113679
f 1737/1/435 1738/2/435 1739/3/435 1740/4/435
v -4.431887 1.126060 -4.013500
v -4.456713 1.126806 -4.070517
v -4.445016 1.139250 -4.074765
v -4.420417 1.138504 -4.018331
vn 0.644931 -0.707054 -0.290067
f 1741/1/436 1742/2/436 1743/3/436 1744/4/436
v -4.420417 1.138504 -4.018331
v -4.445016 1.139250 -4.074765
v -4.440709 1.156250 -4.076251
v -4.416160 1.155503 -4.019964
vn 0.884211 -0.258792 -0.388841
f 1745/1/437 1746/2/437 1747/3/437 1748/4/437
v -4.440709 1.156250 -4.076251
v -4.457997 1.156250 -4.132318
v -4.462443 1.173250 -4.131328
v -4.444946 1.173250 -4.074577
vn 0.923209 0.258161 -0.284670
f 1749/1/438 1750/2/438 1751/3/438 1752/4/438
v -4.444946 1.173250 -4.074577
v -4.462443 1.173250 -4.131328
v -4.474591 1.185695 -4.128624
v -4.456593 1.185694 -4.070190
vn 0.676341 0.706457 -0.208519
f 1753/1/439 1754/2/439 1755/3/439 1756/4/439
v -4.456593 1.185694 -4.070190
v -4.474591 1.185695 -4.128624
v -4.491184 1.190250 -4.124929
v -4.472527 1.190249 -4.064267
vn 0.247727 0.965821 -0.076294
f 1757/1/440 1758/2/440 1759/3/440 1760/4/440
v -4.472527 1.190249 -4.064267
v -4.491184 1.190250 -4.124929
v -4.507778 1.185695 -4.121234
v -4.488481 1.185694 -4.058395
vn -0.247717 0.965831 0.076196
f 1761/1/441 1762/2/441 1763/3/441 1764/4/441
v -4.488481 1.185694 -4.058395
v -4.507778 1.185695 -4.121234
v -4.519925 1.173250 -4.118530
v -4.500178 1.173250 -4.054146
vn -0.676370 0.706669 0.207708
f 1765/1/442 1766/2/442 1767/3/442 1768/4/442
v -4.500178 1.173250 -4.054146
v -4.519925 1.173250 -4.118530
v -4.524371 1.156250 -4.117540
v -4.504485 1.156250 -4.052660
vn -0.923487 0.258737 0.283243
f 1769/1/443 1770/2/443 1771/3/443 1772/4/443
v -4.504485 1.156250 -4.052660
v -4.524371 1.156250 -4.117540
v -4.519925 1.139250 -4.118530
v -4.500248 1.139250 -4.054335
vn -0.923694 -0.258130 0.283121
f 1773/1/444 1774/2/444 1775/3/444 1776/4/444
v -4.500248 1.139250 -4.054335
v -4.519925 1.139250 -4.118530
v -4.507778 1.126805 -4.121234
v -4.488602 1.126806 -4.058721
vn -0.676713 -0.706422 0.207432
f 1777/1/445 1778/2/445 1779/3/445 1780/4/445
v -4.488602 1.126806 -4.058721
v -4.507778 1.126805 -4.121234
v -4.491184 1.122250 -4.124929
v -4.472667 1.122251 -4.064644
vn -0.247824 -0.965817 0.076029
f 1781/1/446 1782/2/446 1783/3/446 1784/4/446
v -4.472667 1.122251 -4.064644
v -4.491184 1.122250 -4.124929
v -4.474591 1.126805 -4.128624
v -4.456713 1.126806 -4.070517
vn 0.247755 -0.965830 -0.076092
f 1785/1/447 1786/2/447 1787/3/447 1788/4/447
v -4.456713 1.126806 -4.070517
v -4.474591 1.126805 -4.128624
v -4.462443 1.139250 -4.131328
v -4.445016 1.139250 -4.074765
vn 0.676255 -0.706678 -0.208052
f 1789/1/448 1790/2/448 1791/3/448 1792/4/448
v -4.445016 1.139250 -4.074765
v -4.462443 1.139250 -4.131328
v -4.457997 1.156250 -4.132318
v -4.440709 1.156250 -4.076251
vn 0.923123 -0.258747 -0.284417
f 1793/1/449 1794/2/449 1795/3/449 1796/4/449
v -4.457997 1.156250 -4.132318
v -4.466333 1.156250 -4.192244
v -4.470843 1.173250 -4.191608
v -4.462443 1.173250 -4.131328
vn 0.956924 0.258030 -0.133109
f 1797/1/450 1798/2/450 1799/3/450 1800/4/450
v -4.462443 1.173250 -4.131328
v -4.470843 1.173250 -4.191608
v -4.483166 1.185695 -4.189872
v -4.474591 1.185695 -4.128624
vn 0.701478 0.705955 -0.097751
f 1801/1/451 1802/2/451 1803/3/451 1804/4/451
v -4.474591 1.185695 -4.128624
v -4.483166 1.185695 -4.189872
v -4.500000 1.190250 -4.187500
v -4.491184 1.190250 -4.124929
vn 0.257085 0.965718 -0.035996
f 1805/1/452 1806/2/452 1807/3/452 1808/4/452
v -4.491184 1.190250 -4.124929
v -4.500000 1.190250 -4.187500
v -4.516834 1.185695 -4.185128
v -4.507778 1.185695 -4.121234
vn -0.257038 0.965723 0.036215
f 1809/1/453 1810/2/453 1811/3/453 1812/4/453
v -4.507778 1.185695 -4.121234
v -4.516834 1.185695 -4.185128
v -4.529157 1.173250 -4.183392
v -4.519925 1.173250 -4.118530
vn -0.701183 0.706021 0.099381
f 1813/1/454 1814/2/454 1815/3/454 1816/4/454
v -4.519925 1.173250 -4.118530
v -4.529157 1.173250 -4.183392
v -4.533667 1.156250 -4.182756
v -4.524371 1.156250 -4.117540
vn -0.956482 0.258090 0.136133
f 1817/1/455 1818/2/455 1819/3/455 1820/4/455
v -4.524371 1.156250 -4.117540
v -4.533667 1.156250 -4.182756
v -4.529157 1.139250 -4.183392
v -4.519925 1.139250 -4.118530
vn -0.956452 -0.258094 0.136332
f 1821/1/456 1822/2/456 1823/3/456 1824/4/456
v -4.519925 1.139250 -4.118530
v -4.529157 1.139250 -4.183392
v -4.516834 1.126805 -4.185128
v -4.507778 1.126805 -4.121234
vn -0.701109 -0.706037 0.099787
f 1825/1/457 1826/2/457 1827/3/457 1828/4/457
v -4.507778 1.126805 -4.121234
v -4.516834 1.126805 -4.185128
v -4.500000 1.122250 -4.187500
v -4.491184 1.122250 -4.124929
vn -0.256992 -0.965727 0.036424
f 1829/1/458 1830/2/458 1831/3/458 1832/4/458
v -4.491184 1.122250 -4.124929
v -4.500000 1.122250 -4.187500
v -4.483166 1.126805 -4.189872
v -4.474591 1.126805 -4.128624
vn 0.257038 -0.965723 -0.036215
f 1833/1/459 1834/2/459 1835/3/459 1836/4/459
v -4.474591 1.126805 -4.128624
v -4.483166 1.126805 -4.189872
v -4.470843 1.139250 -4.191608
v -4.462443 1.139250 -4.131328
vn 0.701396 -0.705974 -0.098207
f 1837/1/460 1838/2/460 1839/3/460 1840/4/460
v -4.462443 1.139250 -4.131328
v -4.470843 1.139250 -4.191608
v -4.466333 1.156250 -4.192244
v -4.457997 1.156250 -4.132318
vn 0.956890 -0.258034 -0.133342
f 1841/1/461 1842/2/461 1843/3/461 1844/4/461
v -4.466333 1.156250 -4.192244
v -4.500000 1.190250 -4.187500
v -4.483166 1.185695 -4.189872
v -4.470843 1.173250 -4.191608
vn -0.139515 0.000000 -0.990220
f 1845/1/462 1846/2/462 1847/3/462 1848/4/462
v -4.466333 1.156250 -4.192244
v -4.529157 1.173250 -4.183392
v -4.516834 1.185695 -4.185128
v -4.500000 1.190250 -4.187500
vn -0.139515 0.000000 -0.990220
f 1849/1/463 1850/2/463 1851/3/463 1852/4/463
v -4.466333 1.156250 -4.192244
v -4.529157 1.139250 -4.183392
v -4.533667 1.156250 -4.182756
v -4.529157 1.173250 -4.183392
vn -0.139515 0.000000 -0.990220
f 1853/1/464 1854/2/464 1855/3/464 1856/4/464
v -4.466333 1.156250 -4.192244
v -4.500000 1.122250 -4.187500
v -4.516834 1.126805 -4.185128
v -4.529157 1.139250 -4.183392
vn -0.139515 -0.000000 -0.990220
f 1857/1/465 1858/2/465 1859/3/465 1860/4/465
v -4.466333 1.156250 -4.192244
v -4.470843 1.139250 -4.191608
v -4.483166 1.126805 -4.189872
v -4.500000 1.122250 -4.187500
vn -0.139515 -0.000000 -0.990220
f 1861/1/466 1862/2/466 1863/3/466 1864/4/466
v 0.515516 0.125000 0.874403
v -0.165931 0.678977 0.196502
v -0.164969 0.692455 0.206549
v 0.516478 0.138478 0.884450
vn 0.787047 0.331559 -0.520216
f 1865/1/467 1866/2/467 1867/3/467 1868/4/467
v 0.516478 0.138478 0.884450
v -0.164969 0.692455 0.206549
v -0.173659 0.698038 0.219847
v 0.507788 0.144061 0.897748
vn 0.596951 0.800455 0.054054
f 1869/1/468 1870/2/468 1871/3/468 1872/4/468
v 0.507788 0.144061 0.897748
v -0.173659 0.698038 0.219847
v -0.186911 0.692455 0.228606
v 0.494536 0.138478 0.906507
vn 0.057168 0.800455 0.596660
f 1873/1/469 1874/2/469 1875/3/469 1876/4/469
v 0.494536 0.138478 0.906507
v -0.186911 0.692455 0.228606
v -0.196963 0.678977 0.227696
v 0.484484 0.125000 0.905597
vn -0.516103 0.331559 0.789751
f 1877/1/470 1878/2/470 1879/3/470 1880/4/470
v 0.484484 0.125000 0.905597
v -0.196963 0.678977 0.227696
v -0.197925 0.665499 0.217649
v 0.483522 0.111522 0.895550
vn -0.787047 -0.331559 0.520216
f 1881/1/471 1882/2/471 1883/3/471 1884/4/471
v 0.483522 0.111522 0.895550
v -0.197925 0.665499 0.217649
v -0.189235 0.659916 0.204351
v 0.492212 0.105939 0.882252
vn -0.596951 -0.800455 -0.054054
f 1885/1/472 1886/2/472 1887/3/472 1888/4/472
v 0.492212 0.105939 0.882252
v -0.189235 0.659916 0.204351
v -0.175983 0.665499 0.195592
v 0.505464 0.111522 0.873493
vn -0.057168 -0.800455 -0.596660
f 1889/1/473 1890/2/473 1891/3/473 1892/4/473
v 0.505464 0.111522 0.873493
v -0.175983 0.665499 0.195592
v -0.165931 0.678977 0.196502
v 0.515516 0.125000 0.874403
vn 0.516103 -0.331559 -0.789751
f 1893/1/474 1894/2/474 1895/3/474 1896/4/474
v -0.165931 0.678977 0.196502
v -0.186911 0.692455 0.228606
v -0.173659 0.698038 0.219847
v -0.164969 0.692455 0.206549
vn -0.614238 0.499340 -0.611042
f 1897/1/475 1898/2/475 1899/3/475 1900/4/475
v -0.165931 0.678977 0.196502
v -0.197925 0.665499 0.217649
v -0.196963 0.678977 0.227696
v -0.186911 0.692455 0.228606
vn -0.614238 0.499340 -0.611042
f 1901/1/476 1902/2/476 1903/3/476 1904/4/476
v -0.165931 0.678977 0.196502
v -0.175983 0.665499 0.195592
v -0.189235 0.659916 0.204351
v -0.197925 0.665499 0.217649
vn -0.614238 0.499340 -0.611042
f 1905/1/477 1906/2/477 1907/3/477 1908/4/477
