# Generated by scripts/gen_pole_light_mounts.py
mtllib pole_light_mount.mtl
o pole_light_mount_2_right_wired
vt 0 0
vt 1 0
vt 1 1
vt 0 1
usemtl clamp
v 0.312500 0.062500 1.000000
v 0.687500 0.062500 1.000000
v 0.687500 0.937500 1.000000
v 0.312500 0.937500 1.000000
vn 0.000000 0.000000 1.000000
f 1/1/1 2/2/1 3/3/1 4/4/1
v 0.687500 0.062500 0.900000
v 0.312500 0.062500 0.900000
v 0.312500 0.937500 0.900000
v 0.687500 0.937500 0.900000
vn 0.000000 0.000000 -1.000000
f 5/1/2 6/2/2 7/3/2 8/4/2
v 0.687500 0.062500 1.000000
v 0.687500 0.062500 0.900000
v 0.687500 0.937500 0.900000
v 0.687500 0.937500 1.000000
vn 1.000000 -0.000000 0.000000
f 9/1/3 10/2/3 11/3/3 12/4/3
v 0.312500 0.062500 0.900000
v 0.312500 0.062500 1.000000
v 0.312500 0.937500 1.000000
v 0.312500 0.937500 0.900000
vn -1.000000 0.000000 0.000000
f 13/1/4 14/2/4 15/3/4 16/4/4
v 0.312500 0.937500 1.000000
v 0.687500 0.937500 1.000000
v 0.687500 0.937500 0.900000
v 0.312500 0.937500 0.900000
vn -0.000000 1.000000 0.000000
f 17/1/5 18/2/5 19/3/5 20/4/5
v 0.312500 0.062500 0.900000
v 0.687500 0.062500 0.900000
v 0.687500 0.062500 1.000000
v 0.312500 0.062500 1.000000
vn 0.000000 -1.000000 0.000000
f 21/1/6 22/2/6 23/3/6 24/4/6
v 0.406250 0.312500 0.900000
v 0.593750 0.312500 0.900000
v 0.593750 0.531250 0.900000
v 0.406250 0.531250 0.900000
vn 0.000000 0.000000 1.000000
f 25/1/7 26/2/7 27/3/7 28/4/7
v 0.593750 0.312500 0.800000
v 0.406250 0.312500 0.800000
v 0.406250 0.531250 0.800000
v 0.593750 0.531250 0.800000
vn 0.000000 0.000000 -1.000000
f 29/1/8 30/2/8 31/3/8 32/4/8
v 0.593750 0.312500 0.900000
v 0.593750 0.312500 0.800000
v 0.593750 0.531250 0.800000
v 0.593750 0.531250 0.900000
vn 1.000000 -0.000000 0.000000
f 33/1/9 34/2/9 35/3/9 36/4/9
v 0.406250 0.312500 0.800000
v 0.406250 0.312500 0.900000
v 0.406250 0.531250 0.900000
v 0.406250 0.531250 0.800000
vn -1.000000 0.000000 0.000000
f 37/1/10 38/2/10 39/3/10 40/4/10
v 0.406250 0.531250 0.900000
v 0.593750 0.531250 0.900000
v 0.593750 0.531250 0.800000
v 0.406250 0.531250 0.800000
vn -0.000000 1.000000 0.000000
f 41/1/11 42/2/11 43/3/11 44/4/11
v 0.406250 0.312500 0.800000
v 0.593750 0.312500 0.800000
v 0.593750 0.312500 0.900000
v 0.406250 0.312500 0.900000
vn 0.000000 -1.000000 0.000000
f 45/1/12 46/2/12 47/3/12 48/4/12
v 0.468750 0.125000 0.900000
v 0.531250 0.125000 0.900000
v 0.531250 0.187500 0.900000
v 0.468750 0.187500 0.900000
vn 0.000000 0.000000 1.000000
f 49/1/13 50/2/13 51/3/13 52/4/13
v 0.531250 0.125000 0.880000
v 0.468750 0.125000 0.880000
v 0.468750 0.187500 0.880000
v 0.531250 0.187500 0.880000
vn 0.000000 0.000000 -1.000000
f 53/1/14 54/2/14 55/3/14 56/4/14
v 0.531250 0.125000 0.900000
v 0.531250 0.125000 0.880000
v 0.531250 0.187500 0.880000
v 0.531250 0.187500 0.900000
vn 1.000000 -0.000000 0.000000
f 57/1/15 58/2/15 59/3/15 60/4/15
v 0.468750 0.125000 0.880000
v 0.468750 0.125000 0.900000
v 0.468750 0.187500 0.900000
v 0.468750 0.187500 0.880000
vn -1.000000 0.000000 0.000000
f 61/1/16 62/2/16 63/3/16 64/4/16
v 0.468750 0.187500 0.900000
v 0.531250 0.187500 0.900000
v 0.531250 0.187500 0.880000
v 0.468750 0.187500 0.880000
vn -0.000000 1.000000 0.000000
f 65/1/17 66/2/17 67/3/17 68/4/17
v 0.468750 0.125000 0.880000
v 0.531250 0.125000 0.880000
v 0.531250 0.125000 0.900000
v 0.468750 0.125000 0.900000
vn 0.000000 -1.000000 0.000000
f 69/1/18 70/2/18 71/3/18 72/4/18
v 0.468750 0.812500 0.900000
v 0.531250 0.812500 0.900000
v 0.531250 0.875000 0.900000
v 0.468750 0.875000 0.900000
vn 0.000000 0.000000 1.000000
f 73/1/19 74/2/19 75/3/19 76/4/19
v 0.531250 0.812500 0.880000
v 0.468750 0.812500 0.880000
v 0.468750 0.875000 0.880000
v 0.531250 0.875000 0.880000
vn 0.000000 0.000000 -1.000000
f 77/1/20 78/2/20 79/3/20 80/4/20
v 0.531250 0.812500 0.900000
v 0.531250 0.812500 0.880000
v 0.531250 0.875000 0.880000
v 0.531250 0.875000 0.900000
vn 1.000000 -0.000000 0.000000
f 81/1/21 82/2/21 83/3/21 84/4/21
v 0.468750 0.812500 0.880000
v 0.468750 0.812500 0.900000
v 0.468750 0.875000 0.900000
v 0.468750 0.875000 0.880000
vn -1.000000 0.000000 0.000000
f 85/1/22 86/2/22 87/3/22 88/4/22
v 0.468750 0.875000 0.900000
v 0.531250 0.875000 0.900000
v 0.531250 0.875000 0.880000
v 0.468750 0.875000 0.880000
vn -0.000000 1.000000 0.000000
f 89/1/23 90/2/23 91/3/23 92/4/23
v 0.468750 0.812500 0.880000
v 0.531250 0.812500 0.880000
v 0.531250 0.812500 0.900000
v 0.468750 0.812500 0.900000
vn 0.000000 -1.000000 0.000000
f 93/1/24 94/2/24 95/3/24 96/4/24
usemtl metal
v 0.545000 0.410000 0.860000
v 0.542603 0.410000 0.814490
v 0.536895 0.432500 0.812549
v 0.538971 0.432500 0.860000
vn 0.964678 0.258485 -0.050806
f 97/1/25 98/2/25 99/3/25 100/4/25
v 0.538971 0.432500 0.860000
v 0.536895 0.432500 0.812549
v 0.521302 0.448971 0.807245
v 0.522500 0.448971 0.860000
vn 0.706769 0.706769 -0.030917
f 101/1/26 102/2/26 103/3/26 104/4/26
v 0.522500 0.448971 0.860000
v 0.521302 0.448971 0.807245
v 0.500000 0.455000 0.800000
v 0.500000 0.455000 0.860000
vn 0.258815 0.965909 -0.005879
f 105/1/27 106/2/27 107/3/27 108/4/27
v 0.500000 0.455000 0.860000
v 0.500000 0.455000 0.800000
v 0.478698 0.448971 0.792755
v 0.477500 0.448971 0.860000
vn -0.258819 0.965926 0.000000
f 109/1/28 110/2/28 111/3/28 112/4/28
v 0.477500 0.448971 0.860000
v 0.478698 0.448971 0.792755
v 0.463105 0.432500 0.787451
v 0.461029 0.432500 0.860000
vn -0.707051 0.707051 -0.012601
f 113/1/29 114/2/29 115/3/29 116/4/29
v 0.461029 0.432500 0.860000
v 0.463105 0.432500 0.787451
v 0.457397 0.410000 0.785510
v 0.455000 0.410000 0.860000
vn -0.965557 0.258720 -0.027626
f 117/1/30 118/2/30 119/3/30 120/4/30
v 0.455000 0.410000 0.860000
v 0.457397 0.410000 0.785510
v 0.463105 0.387500 0.787451
v 0.461029 0.387500 0.860000
vn -0.965460 -0.258694 -0.031065
f 121/1/31 122/2/31 123/3/31 124/4/31
v 0.461029 0.387500 0.860000
v 0.463105 0.387500 0.787451
v 0.478698 0.371029 0.792755
v 0.477500 0.371029 0.860000
vn -0.706962 -0.706962 -0.020227
f 125/1/32 126/2/32 127/3/32 128/4/32
v 0.477500 0.371029 0.860000
v 0.478698 0.371029 0.792755
v 0.500000 0.365000 0.800000
v 0.500000 0.365000 0.860000
vn -0.258816 -0.965916 -0.004612
f 129/1/33 130/2/33 131/3/33 132/4/33
v 0.500000 0.365000 0.860000
v 0.500000 0.365000 0.800000
v 0.521302 0.371029 0.807245
v 0.522500 0.371029 0.860000
vn 0.258819 -0.965926 0.000000
f 133/1/34 134/2/34 135/3/34 136/4/34
v 0.522500 0.371029 0.860000
v 0.521302 0.371029 0.807245
v 0.536895 0.387500 0.812549
v 0.538971 0.387500 0.860000
vn 0.707016 -0.707016 -0.016061
f 137/1/35 138/2/35 139/3/35 140/4/35
v 0.538971 0.387500 0.860000
v 0.536895 0.387500 0.812549
v 0.542603 0.410000 0.814490
v 0.545000 0.410000 0.860000
vn 0.965065 -0.258588 -0.042216
f 141/1/36 142/2/36 143/3/36 144/4/36
v 0.542603 0.410000 0.814490
v 0.605183 0.410000 0.737068
v 0.599462 0.432447 0.734617
v 0.536895 0.432500 0.812549
vn 0.754222 0.243929 0.609629
f 145/1/37 146/2/37 147/3/37 148/4/37
v 0.536895 0.432500 0.812549
v 0.599462 0.432447 0.734617
v 0.585717 0.448879 0.725471
v 0.521302 0.448971 0.807245
vn 0.568400 0.684916 0.455864
f 149/1/38 150/2/38 151/3/38 152/4/38
v 0.521302 0.448971 0.807245
v 0.585717 0.448879 0.725471
v 0.567630 0.454894 0.712081
v 0.500000 0.455000 0.800000
vn 0.215026 0.961998 0.168298
f 153/1/39 154/2/39 155/3/39 156/4/39
v 0.500000 0.455000 0.800000
v 0.567630 0.454894 0.712081
v 0.550049 0.448879 0.698034
v 0.478698 0.448971 0.792755
vn -0.215521 0.962122 -0.166948
f 157/1/40 158/2/40 159/3/40 160/4/40
v 0.478698 0.448971 0.792755
v 0.550049 0.448879 0.698034
v 0.537683 0.432447 0.687095
v 0.463105 0.432500 0.787451
vn -0.578851 0.688640 -0.436699
f 161/1/41 162/2/41 163/3/41 164/4/41
v 0.463105 0.432500 0.787451
v 0.537683 0.432447 0.687095
v 0.533846 0.410000 0.682194
v 0.457397 0.410000 0.785510
vn -0.777673 0.247153 -0.578048
f 165/1/42 166/2/42 167/3/42 168/4/42
v 0.457397 0.410000 0.785510
v 0.533846 0.410000 0.682194
v 0.539567 0.387553 0.684645
v 0.463105 0.387500 0.787451
vn -0.778885 -0.247313 -0.576346
f 169/1/43 170/2/43 171/3/43 172/4/43
v 0.463105 0.387500 0.787451
v 0.539567 0.387553 0.684645
v 0.553312 0.371121 0.693791
v 0.478698 0.371029 0.792755
vn -0.581071 -0.689400 -0.432532
f 173/1/44 174/2/44 175/3/44 176/4/44
v 0.478698 0.371029 0.792755
v 0.553312 0.371121 0.693791
v 0.571399 0.365106 0.707182
v 0.500000 0.365000 0.800000
vn -0.216541 -0.962373 -0.164157
f 177/1/45 178/2/45 179/3/45 180/4/45
v 0.500000 0.365000 0.800000
v 0.571399 0.365106 0.707182
v 0.588980 0.371121 0.721228
v 0.521302 0.371029 0.807245
vn 0.216167 -0.962282 0.165181
f 181/1/46 182/2/46 183/3/46 184/4/46
v 0.521302 0.371029 0.807245
v 0.588980 0.371121 0.721228
v 0.601346 0.387553 0.732168
v 0.536895 0.387500 0.812549
vn 0.572009 -0.686229 0.449328
f 185/1/47 186/2/47 187/3/47 188/4/47
v 0.536895 0.387500 0.812549
v 0.601346 0.387553 0.732168
v 0.605183 0.410000 0.737068
v 0.542603 0.410000 0.814490
vn 0.756625 -0.244269 0.606508
f 189/1/48 190/2/48 191/3/48 192/4/48
v 0.605183 0.410000 0.737068
v 0.636464 0.417097 0.696402
v 0.628164 0.438843 0.697304
v 0.599462 0.432447 0.734617
vn 0.743824 0.256944 0.617013
f 193/1/49 194/2/49 195/3/49 196/4/49
v 0.599462 0.432447 0.734617
v 0.628164 0.438843 0.697304
v 0.612531 0.454762 0.690613
v 0.585717 0.448879 0.725471
vn 0.501745 0.701440 0.506196
f 197/1/50 198/2/50 199/3/50 200/4/50
v 0.585717 0.448879 0.725471
v 0.612531 0.454762 0.690613
v 0.593753 0.460589 0.678121
v 0.567630 0.454894 0.712081
vn 0.126653 0.957530 0.259028
f 201/1/51 202/2/51 203/3/51 204/4/51
v 0.567630 0.454894 0.712081
v 0.593753 0.460589 0.678121
v 0.576863 0.454762 0.663176
v 0.550049 0.448879 0.698034
vn -0.282375 0.957632 -0.056611
f 205/1/52 206/2/52 207/3/52 208/4/52
v 0.550049 0.448879 0.698034
v 0.576863 0.454762 0.663176
v 0.566385 0.438843 0.649782
v 0.537683 0.432447 0.687095
vn -0.617113 0.701587 -0.356296
f 209/1/53 210/2/53 211/3/53 212/4/53
v 0.537683 0.432447 0.687095
v 0.566385 0.438843 0.649782
v 0.565128 0.417097 0.641528
v 0.533846 0.410000 0.682194
vn -0.786792 0.256990 -0.561172
f 213/1/54 214/2/54 215/3/54 216/4/54
v 0.533846 0.410000 0.682194
v 0.565128 0.417097 0.641528
v 0.573428 0.395351 0.640626
v 0.539567 0.387553 0.684645
vn -0.743824 -0.256944 -0.617013
f 217/1/55 218/2/55 219/3/55 220/4/55
v 0.539567 0.387553 0.684645
v 0.573428 0.395351 0.640626
v 0.589061 0.379431 0.647318
v 0.553312 0.371121 0.693791
vn -0.499747 -0.701115 -0.508617
f 221/1/56 222/2/56 223/3/56 224/4/56
v 0.553312 0.371121 0.693791
v 0.589061 0.379431 0.647318
v 0.607839 0.373605 0.659810
v 0.571399 0.365106 0.707182
vn -0.121985 -0.956533 -0.264885
f 225/1/57 226/2/57 227/3/57 228/4/57
v 0.571399 0.365106 0.707182
v 0.607839 0.373605 0.659810
v 0.624729 0.379431 0.674755
v 0.588980 0.371121 0.721228
vn 0.287566 -0.956475 0.049618
f 229/1/58 230/2/58 231/3/58 232/4/58
v 0.588980 0.371121 0.721228
v 0.624729 0.379431 0.674755
v 0.635207 0.395351 0.688149
v 0.601346 0.387553 0.732168
vn 0.620323 -0.701019 0.351813
f 233/1/59 234/2/59 235/3/59 236/4/59
v 0.601346 0.387553 0.732168
v 0.635207 0.395351 0.688149
v 0.636464 0.417097 0.696402
v 0.605183 0.410000 0.737068
vn 0.787480 -0.256905 0.560246
f 237/1/60 238/2/60 239/3/60 240/4/60
v 0.636464 0.417097 0.696402
v 0.667746 0.437693 0.655736
v 0.656751 0.457750 0.660141
v 0.628164 0.438843 0.697304
vn 0.706030 0.241869 0.665598
f 241/1/61 242/2/61 243/3/61 244/4/61
v 0.628164 0.438843 0.697304
v 0.656751 0.457750 0.660141
v 0.639145 0.472433 0.656014
v 0.612531 0.454762 0.690613
vn 0.396457 0.658303 0.639890
f 245/1/62 246/2/62 247/3/62 248/4/62
v 0.612531 0.454762 0.690613
v 0.639145 0.472433 0.656014
v 0.619645 0.477808 0.644461
v 0.593753 0.460589 0.678121
vn -0.017464 0.895806 0.444101
f 249/1/63 250/2/63 251/3/63 252/4/63
v 0.593753 0.460589 0.678121
v 0.619645 0.477808 0.644461
v 0.603477 0.472433 0.628577
v 0.576863 0.454762 0.663176
vn -0.425050 0.895612 0.131193
f 253/1/64 254/2/64 255/3/64 256/4/64
v 0.576863 0.454762 0.663176
v 0.603477 0.472433 0.628577
v 0.594972 0.457750 0.612619
v 0.566385 0.438843 0.649782
vn -0.720683 0.657999 -0.218297
f 257/1/65 258/2/65 259/3/65 260/4/65
v 0.566385 0.438843 0.649782
v 0.594972 0.457750 0.612619
v 0.596409 0.437693 0.600862
v 0.565128 0.417097 0.641528
vn -0.824662 0.241760 -0.511356
f 261/1/66 262/2/66 263/3/66 264/4/66
v 0.565128 0.417097 0.641528
v 0.596409 0.437693 0.600862
v 0.607404 0.417635 0.596457
v 0.573428 0.395351 0.640626
vn -0.706030 -0.241869 -0.665598
f 265/1/67 266/2/67 267/3/67 268/4/67
v 0.573428 0.395351 0.640626
v 0.607404 0.417635 0.596457
v 0.625010 0.402952 0.600584
v 0.589061 0.379431 0.647318
vn -0.397749 -0.658953 -0.638417
f 269/1/68 270/2/68 271/3/68 272/4/68
v 0.589061 0.379431 0.647318
v 0.625010 0.402952 0.600584
v 0.644510 0.397577 0.612137
v 0.607839 0.373605 0.659810
vn 0.014549 -0.897606 -0.440559
f 273/1/69 274/2/69 275/3/69 276/4/69
v 0.607839 0.373605 0.659810
v 0.644510 0.397577 0.612137
v 0.660678 0.402952 0.628021
v 0.624729 0.379431 0.674755
vn 0.421937 -0.897706 -0.126858
f 277/1/70 278/2/70 279/3/70 280/4/70
v 0.624729 0.379431 0.674755
v 0.660678 0.402952 0.628021
v 0.669183 0.417635 0.643979
v 0.635207 0.395351 0.688149
vn 0.718763 -0.659142 0.221159
f 281/1/71 282/2/71 283/3/71 284/4/71
v 0.635207 0.395351 0.688149
v 0.669183 0.417635 0.643979
v 0.667746 0.437693 0.655736
v 0.636464 0.417097 0.696402
vn 0.824233 -0.241961 0.511951
f 285/1/72 286/2/72 287/3/72 288/4/72
v 0.667746 0.437693 0.655736
v 0.699027 0.469771 0.615070
v 0.686355 0.488174 0.621655
v 0.656751 0.457750 0.660141
vn 0.681447 0.220258 0.697937
f 289/1/73 290/2/73 291/3/73 292/4/73
v 0.656751 0.457750 0.660141
v 0.686355 0.488174 0.621655
v 0.667522 0.501646 0.619124
v 0.639145 0.472433 0.656014
vn 0.329973 0.600399 0.728450
f 293/1/74 294/2/74 295/3/74 296/4/74
v 0.639145 0.472433 0.656014
v 0.667522 0.501646 0.619124
v 0.647573 0.506577 0.608155
v 0.619645 0.477808 0.644461
vn -0.108807 0.818347 0.564331
f 297/1/75 298/2/75 299/3/75 300/4/75
v 0.619645 0.477808 0.644461
v 0.647573 0.506577 0.608155
v 0.631854 0.501646 0.591687
v 0.603477 0.472433 0.628577
vn -0.517686 0.818194 0.250120
f 301/1/76 302/2/76 303/3/76 304/4/76
v 0.603477 0.472433 0.628577
v 0.631854 0.501646 0.591687
v 0.624577 0.488174 0.574133
v 0.594972 0.457750 0.612619
vn -0.788990 0.600128 -0.131688
f 305/1/77 306/2/77 307/3/77 308/4/77
v 0.594972 0.457750 0.612619
v 0.624577 0.488174 0.574133
v 0.627691 0.469771 0.560196
v 0.596409 0.437693 0.600862
vn -0.849512 0.220144 -0.479444
f 309/1/78 310/2/78 311/3/78 312/4/78
v 0.596409 0.437693 0.600862
v 0.627691 0.469771 0.560196
v 0.640362 0.451368 0.553611
v 0.607404 0.417635 0.596457
vn -0.681447 -0.220258 -0.697937
f 313/1/79 314/2/79 315/3/79 316/4/79
v 0.607404 0.417635 0.596457
v 0.640362 0.451368 0.553611
v 0.659196 0.437896 0.556143
v 0.625010 0.402952 0.600584
vn -0.330704 -0.601035 -0.727593
f 317/1/80 318/2/80 319/3/80 320/4/80
v 0.625010 0.402952 0.600584
v 0.659196 0.437896 0.556143
v 0.679145 0.432965 0.567112
v 0.644510 0.397577 0.612137
vn 0.107162 -0.819958 -0.562304
f 321/1/81 322/2/81 323/3/81 324/4/81
v 0.644510 0.397577 0.612137
v 0.679145 0.432965 0.567112
v 0.694864 0.437896 0.583579
v 0.660678 0.402952 0.628021
vn 0.515906 -0.820060 -0.247677
f 325/1/82 326/2/82 327/3/82 328/4/82
v 0.660678 0.402952 0.628021
v 0.694864 0.437896 0.583579
v 0.702141 0.451368 0.601134
v 0.669183 0.417635 0.643979
vn 0.787874 -0.601236 0.133302
f 329/1/83 330/2/83 331/3/83 332/4/83
v 0.669183 0.417635 0.643979
v 0.702141 0.451368 0.601134
v 0.699027 0.469771 0.615070
v 0.667746 0.437693 0.655736
vn 0.849263 -0.220361 0.479785
f 333/1/84 334/2/84 335/3/84 336/4/84
v 0.699027 0.469771 0.615070
v 0.730309 0.510193 0.574404
v 0.716770 0.527508 0.582116
v 0.686355 0.488174 0.621655
vn 0.667747 0.203582 0.716009
f 337/1/85 338/2/85 339/3/85 340/4/85
v 0.686355 0.488174 0.621655
v 0.716770 0.527508 0.582116
v 0.697302 0.540184 0.580410
v 0.667522 0.501646 0.619124
vn 0.292903 0.555669 0.778100
f 341/1/86 342/2/86 343/3/86 344/4/86
v 0.667522 0.501646 0.619124
v 0.697302 0.540184 0.580410
v 0.677121 0.544824 0.569743
v 0.647573 0.506577 0.608155
vn -0.159983 0.758380 0.631874
f 345/1/87 346/2/87 347/3/87 348/4/87
v 0.647573 0.506577 0.608155
v 0.677121 0.544824 0.569743
v 0.661634 0.540184 0.552973
v 0.631854 0.501646 0.591687
vn -0.569751 0.758310 0.316782
f 349/1/88 350/2/88 351/3/88 352/4/88
v 0.631854 0.501646 0.591687
v 0.661634 0.540184 0.552973
v 0.654991 0.527508 0.534594
v 0.624577 0.488174 0.574133
vn -0.827302 0.555536 -0.083371
f 353/1/89 354/2/89 355/3/89 356/4/89
v 0.624577 0.488174 0.574133
v 0.654991 0.527508 0.534594
v 0.658972 0.510193 0.519530
v 0.627691 0.469771 0.560196
vn -0.863385 0.203521 -0.461676
f 357/1/90 358/2/90 359/3/90 360/4/90
v 0.627691 0.469771 0.560196
v 0.658972 0.510193 0.519530
v 0.672511 0.492877 0.511819
v 0.640362 0.451368 0.553611
vn -0.667747 -0.203582 -0.716009
f 361/1/91 362/2/91 363/3/91 364/4/91
v 0.640362 0.451368 0.553611
v 0.672511 0.492877 0.511819
v 0.691979 0.480201 0.513525
v 0.659196 0.437896 0.556143
vn -0.293190 -0.556004 -0.777752
f 365/1/92 366/2/92 367/3/92 368/4/92
v 0.659196 0.437896 0.556143
v 0.691979 0.480201 0.513525
v 0.712160 0.475561 0.524192
v 0.679145 0.432965 0.567112
vn 0.159330 -0.759200 -0.631055
f 369/1/93 370/2/93 371/3/93 372/4/93
v 0.679145 0.432965 0.567112
v 0.712160 0.475561 0.524192
v 0.727647 0.480201 0.540962
v 0.694864 0.437896 0.583579
vn 0.569029 -0.759257 -0.315809
f 373/1/94 374/2/94 375/3/94 376/4/94
v 0.694864 0.437896 0.583579
v 0.727647 0.480201 0.540962
v 0.734290 0.492877 0.559341
v 0.702141 0.451368 0.601134
vn 0.826846 -0.556118 0.084007
f 377/1/95 378/2/95 379/3/95 380/4/95
v 0.702141 0.451368 0.601134
v 0.734290 0.492877 0.559341
v 0.730309 0.510193 0.574404
v 0.699027 0.469771 0.615070
vn 0.863285 -0.203640 0.461811
f 381/1/96 382/2/96 383/3/96 384/4/96
v 0.730309 0.510193 0.574404
v 0.761590 0.555000 0.533738
v 0.747787 0.571947 0.541794
v 0.716770 0.527508 0.582116
vn 0.661765 0.194999 0.723908
f 385/1/97 386/2/97 387/3/97 388/4/97
v 0.716770 0.527508 0.582116
v 0.747787 0.571947 0.541794
v 0.728126 0.584353 0.540339
v 0.697302 0.540184 0.580410
vn 0.276702 0.532625 0.799842
f 389/1/98 390/2/98 391/3/98 392/4/98
v 0.697302 0.540184 0.580410
v 0.728126 0.584353 0.540339
v 0.707874 0.588894 0.529764
v 0.677121 0.544824 0.569743
vn -0.182408 0.727427 0.661496
f 393/1/99 394/2/99 395/3/99 396/4/99
v 0.677121 0.544824 0.569743
v 0.707874 0.588894 0.529764
v 0.692458 0.584353 0.512902
v 0.661634 0.540184 0.552973
vn -0.592589 0.727408 0.345999
f 397/1/100 398/2/100 399/3/100 400/4/100
v 0.661634 0.540184 0.552973
v 0.692458 0.584353 0.512902
v 0.686009 0.571947 0.494271
v 0.654991 0.527508 0.534594
vn -0.844082 0.532588 -0.062246
f 401/1/101 402/2/101 403/3/101 404/4/101
v 0.654991 0.527508 0.534594
v 0.686009 0.571947 0.494271
v 0.690254 0.555000 0.478864
v 0.658972 0.510193 0.519530
vn -0.869447 0.194981 -0.453921
f 405/1/102 406/2/102 407/3/102 408/4/102
v 0.658972 0.510193 0.519530
v 0.690254 0.555000 0.478864
v 0.704057 0.538053 0.470809
v 0.672511 0.492877 0.511819
vn -0.661765 -0.194999 -0.723908
f 409/1/103 410/2/103 411/3/103 412/4/103
v 0.672511 0.492877 0.511819
v 0.704057 0.538053 0.470809
v 0.723718 0.525647 0.472264
v 0.691979 0.480201 0.513525
vn -0.276773 -0.532722 -0.799753
f 413/1/104 414/2/104 415/3/104 416/4/104
v 0.691979 0.480201 0.513525
v 0.723718 0.525647 0.472264
v 0.743970 0.521106 0.482839
v 0.712160 0.475561 0.524192
vn 0.182243 -0.727659 -0.661286
f 417/1/105 418/2/105 419/3/105 420/4/105
v 0.712160 0.475561 0.524192
v 0.743970 0.521106 0.482839
v 0.759386 0.525647 0.499701
v 0.727647 0.480201 0.540962
vn 0.592403 -0.727677 -0.345754
f 421/1/106 422/2/106 423/3/106 424/4/106
v 0.727647 0.480201 0.540962
v 0.759386 0.525647 0.499701
v 0.765835 0.538053 0.518331
v 0.734290 0.492877 0.559341
vn 0.843965 -0.532756 0.062404
f 425/1/107 426/2/107 427/3/107 428/4/107
v 0.734290 0.492877 0.559341
v 0.765835 0.538053 0.518331
v 0.761590 0.555000 0.533738
v 0.730309 0.510193 0.574404
vn 0.869422 -0.195016 0.453954
f 429/1/108 430/2/108 431/3/108 432/4/108
v 0.761590 0.555000 0.533738
v 0.792872 0.599807 0.493072
v 0.779333 0.617123 0.500784
v 0.747787 0.571947 0.541794
vn 0.661812 0.194941 0.723880
f 433/1/109 434/2/109 435/3/109 436/4/109
v 0.747787 0.571947 0.541794
v 0.779333 0.617123 0.500784
v 0.759865 0.629799 0.499078
v 0.728126 0.584353 0.540339
vn 0.276907 0.532637 0.799763
f 437/1/110 438/2/110 439/3/110 440/4/110
v 0.728126 0.584353 0.540339
v 0.759865 0.629799 0.499078
v 0.739684 0.634439 0.488411
v 0.707874 0.588894 0.529764
vn -0.182175 0.727644 0.661322
f 441/1/111 442/2/111 443/3/111 444/4/111
v 0.707874 0.588894 0.529764
v 0.739684 0.634439 0.488411
v 0.724197 0.629799 0.471641
v 0.692458 0.584353 0.512902
vn -0.592455 0.727661 0.345697
f 445/1/112 446/2/112 447/3/112 448/4/112
v 0.692458 0.584353 0.512902
v 0.724197 0.629799 0.471641
v 0.717554 0.617123 0.453262
v 0.686009 0.571947 0.494271
vn -0.844008 0.532672 -0.062530
f 449/1/113 450/2/113 451/3/113 452/4/113
v 0.686009 0.571947 0.494271
v 0.717554 0.617123 0.453262
v 0.721535 0.599807 0.438198
v 0.690254 0.555000 0.478864
vn -0.869407 0.194959 -0.454007
f 453/1/114 454/2/114 455/3/114 456/4/114
v 0.690254 0.555000 0.478864
v 0.721535 0.599807 0.438198
v 0.735074 0.582492 0.430487
v 0.704057 0.538053 0.470809
vn -0.661812 -0.194941 -0.723880
f 457/1/115 458/2/115 459/3/115 460/4/115
v 0.704057 0.538053 0.470809
v 0.735074 0.582492 0.430487
v 0.754542 0.569816 0.432193
v 0.723718 0.525647 0.472264
vn -0.276838 -0.532539 -0.799852
f 461/1/116 462/2/116 463/3/116 464/4/116
v 0.723718 0.525647 0.472264
v 0.754542 0.569816 0.432193
v 0.774723 0.565176 0.442860
v 0.743970 0.521106 0.482839
vn 0.182337 -0.727411 -0.661533
f 465/1/117 466/2/117 467/3/117 468/4/117
v 0.743970 0.521106 0.482839
v 0.774723 0.565176 0.442860
v 0.790210 0.569816 0.459630
v 0.759386 0.525647 0.499701
vn 0.592643 -0.727393 -0.345941
f 469/1/118 470/2/118 471/3/118 472/4/118
v 0.759386 0.525647 0.499701
v 0.790210 0.569816 0.459630
v 0.796853 0.582492 0.478009
v 0.765835 0.538053 0.518331
vn 0.844127 -0.532502 0.062376
f 473/1/119 474/2/119 475/3/119 476/4/119
v 0.765835 0.538053 0.518331
v 0.796853 0.582492 0.478009
v 0.792872 0.599807 0.493072
v 0.761590 0.555000 0.533738
vn 0.869432 -0.194923 0.453974
f 477/1/120 478/2/120 479/3/120 480/4/120
v 0.792872 0.599807 0.493072
v 0.824153 0.640229 0.452406
v 0.811482 0.658632 0.458991
v 0.779333 0.617123 0.500784
vn 0.667911 0.203363 0.715918
f 481/1/121 482/2/121 483/3/121 484/4/121
v 0.779333 0.617123 0.500784
v 0.811482 0.658632 0.458991
v 0.792648 0.672104 0.456460
v 0.759865 0.629799 0.499078
vn 0.293654 0.555693 0.777800
f 485/1/122 486/2/122 487/3/122 488/4/122
v 0.759865 0.629799 0.499078
v 0.792648 0.672104 0.456460
v 0.772699 0.677035 0.445491
v 0.739684 0.634439 0.488411
vn -0.159093 0.759144 0.631182
f 489/1/123 490/2/123 491/3/123 492/4/123
v 0.739684 0.634439 0.488411
v 0.772699 0.677035 0.445491
v 0.756980 0.672104 0.429023
v 0.724197 0.629799 0.471641
vn -0.569211 0.759201 0.315614
f 493/1/124 494/2/124 495/3/124 496/4/124
v 0.724197 0.629799 0.471641
v 0.756980 0.672104 0.429023
v 0.749703 0.658632 0.411469
v 0.717554 0.617123 0.453262
vn -0.827008 0.555813 -0.084435
f 497/1/125 498/2/125 499/3/125 500/4/125
v 0.717554 0.617123 0.453262
v 0.749703 0.658632 0.411469
v 0.752817 0.640229 0.397532
v 0.721535 0.599807 0.438198
vn -0.863241 0.203427 -0.461988
f 501/1/126 502/2/126 503/3/126 504/4/126
v 0.721535 0.599807 0.438198
v 0.752817 0.640229 0.397532
v 0.765489 0.621826 0.390947
v 0.735074 0.582492 0.430487
vn -0.667911 -0.203363 -0.715918
f 505/1/127 506/2/127 507/3/127 508/4/127
v 0.735074 0.582492 0.430487
v 0.765489 0.621826 0.390947
v 0.784322 0.608354 0.393479
v 0.754542 0.569816 0.432193
vn -0.293393 -0.555340 -0.778150
f 509/1/128 510/2/128 511/3/128 512/4/128
v 0.754542 0.569816 0.432193
v 0.784322 0.608354 0.393479
v 0.804271 0.603423 0.404448
v 0.774723 0.565176 0.442860
vn 0.159722 -0.758319 -0.632014
f 513/1/129 514/2/129 515/3/129 516/4/129
v 0.774723 0.565176 0.442860
v 0.804271 0.603423 0.404448
v 0.819990 0.608354 0.420916
v 0.790210 0.569816 0.459630
vn 0.569954 -0.758248 -0.316564
f 517/1/130 518/2/130 519/3/130 520/4/130
v 0.790210 0.569816 0.459630
v 0.819990 0.608354 0.420916
v 0.827267 0.621826 0.438470
v 0.796853 0.582492 0.478009
vn 0.827480 -0.555200 0.083842
f 521/1/131 522/2/131 523/3/131 524/4/131
v 0.796853 0.582492 0.478009
v 0.827267 0.621826 0.438470
v 0.824153 0.640229 0.452406
v 0.792872 0.599807 0.493072
vn 0.863338 -0.203296 0.461864
f 525/1/132 526/2/132 527/3/132 528/4/132
v 0.824153 0.640229 0.452406
v 0.855435 0.672307 0.411741
v 0.844440 0.692365 0.416146
v 0.811482 0.658632 0.458991
vn 0.681765 0.219755 0.697785
f 529/1/133 530/2/133 531/3/133 532/4/133
v 0.811482 0.658632 0.458991
v 0.844440 0.692365 0.416146
v 0.826834 0.707048 0.412019
v 0.792648 0.672104 0.456460
vn 0.331622 0.600338 0.727751
f 533/1/134 534/2/134 535/3/134 536/4/134
v 0.792648 0.672104 0.456460
v 0.826834 0.707048 0.412019
v 0.807334 0.712423 0.400465
v 0.772699 0.677035 0.445491
vn -0.106687 0.819835 0.562573
f 537/1/135 538/2/135 539/3/135 540/4/135
v 0.772699 0.677035 0.445491
v 0.807334 0.712423 0.400465
v 0.791166 0.707048 0.384582
v 0.756980 0.672104 0.429023
vn -0.516283 0.819938 0.247291
f 541/1/136 542/2/136 543/3/136 544/4/136
v 0.756980 0.672104 0.429023
v 0.791166 0.707048 0.384582
v 0.782661 0.692365 0.368623
v 0.749703 0.658632 0.411469
vn -0.788248 0.600564 -0.134118
f 545/1/137 546/2/137 547/3/137 548/4/137
v 0.749703 0.658632 0.411469
v 0.782661 0.692365 0.368623
v 0.784098 0.672307 0.356867
v 0.752817 0.640229 0.397532
vn -0.849201 0.219884 -0.480113
f 549/1/138 550/2/138 551/3/138 552/4/138
v 0.752817 0.640229 0.397532
v 0.784098 0.672307 0.356867
v 0.795093 0.652250 0.352461
v 0.765489 0.621826 0.390947
vn -0.681765 -0.219755 -0.697785
f 553/1/139 554/2/139 555/3/139 556/4/139
v 0.765489 0.621826 0.390947
v 0.795093 0.652250 0.352461
v 0.812699 0.637567 0.356588
v 0.784322 0.608354 0.393479
vn -0.330994 -0.599624 -0.728624
f 557/1/140 558/2/140 559/3/140 560/4/140
v 0.784322 0.608354 0.393479
v 0.812699 0.637567 0.356588
v 0.832199 0.632192 0.368142
v 0.804271 0.603423 0.404448
vn 0.108235 -0.818199 -0.564655
f 561/1/141 562/2/141 563/3/141 564/4/141
v 0.804271 0.603423 0.404448
v 0.832199 0.632192 0.368142
v 0.848367 0.637567 0.384025
v 0.819990 0.608354 0.420916
vn 0.518152 -0.818044 -0.249643
f 565/1/142 566/2/142 567/3/142 568/4/142
v 0.819990 0.608354 0.420916
v 0.848367 0.637567 0.384025
v 0.856872 0.652250 0.399984
v 0.827267 0.621826 0.438470
vn 0.789438 -0.599321 0.132672
f 569/1/143 570/2/143 571/3/143 572/4/143
v 0.827267 0.621826 0.438470
v 0.856872 0.652250 0.399984
v 0.855435 0.672307 0.411741
v 0.824153 0.640229 0.452406
vn 0.849443 -0.219613 0.479810
f 573/1/144 574/2/144 575/3/144 576/4/144
v 0.855435 0.672307 0.411741
v 0.886716 0.692903 0.371075
v 0.878416 0.714649 0.371977
v 0.844440 0.692365 0.416146
vn 0.706410 0.241069 0.665485
f 577/1/145 578/2/145 579/3/145 580/4/145
v 0.844440 0.692365 0.416146
v 0.878416 0.714649 0.371977
v 0.862783 0.730569 0.365285
v 0.826834 0.707048 0.412019
vn 0.398931 0.657881 0.638785
f 581/1/146 582/2/146 583/3/146 584/4/146
v 0.826834 0.707048 0.412019
v 0.862783 0.730569 0.365285
v 0.844005 0.736395 0.352793
v 0.807334 0.712423 0.400465
vn -0.013914 0.897421 0.440955
f 585/1/147 586/2/147 587/3/147 588/4/147
v 0.807334 0.712423 0.400465
v 0.844005 0.736395 0.352793
v 0.827115 0.730569 0.337848
v 0.791166 0.707048 0.384582
vn -0.422471 0.897525 0.126356
f 589/1/148 590/2/148 591/3/148 592/4/148
v 0.791166 0.707048 0.384582
v 0.827115 0.730569 0.337848
v 0.816637 0.714649 0.324454
v 0.782661 0.692365 0.368623
vn -0.719387 0.658128 -0.222149
f 593/1/149 594/2/149 595/3/149 596/4/149
v 0.782661 0.692365 0.368623
v 0.816637 0.714649 0.324454
v 0.815380 0.692903 0.316201
v 0.784098 0.672307 0.356867
vn -0.824223 0.241224 -0.512316
f 597/1/150 598/2/150 599/3/150 600/4/150
v 0.784098 0.672307 0.356867
v 0.815380 0.692903 0.316201
v 0.823680 0.671157 0.315299
v 0.795093 0.652250 0.352461
vn -0.706410 -0.241069 -0.665485
f 601/1/151 602/2/151 603/3/151 604/4/151
v 0.795093 0.652250 0.352461
v 0.823680 0.671157 0.315299
v 0.839313 0.655238 0.321990
v 0.812699 0.637567 0.356588
vn -0.397862 -0.657032 -0.640324
f 605/1/152 606/2/152 607/3/152 608/4/152
v 0.812699 0.637567 0.356588
v 0.839313 0.655238 0.321990
v 0.858091 0.649411 0.334482
v 0.832199 0.632192 0.368142
vn 0.016607 -0.895559 -0.444634
f 609/1/153 610/2/153 611/3/153 612/4/153
v 0.832199 0.632192 0.368142
v 0.858091 0.649411 0.334482
v 0.874981 0.655238 0.349427
v 0.848367 0.637567 0.384025
vn 0.425804 -0.895358 -0.130482
f 613/1/154 614/2/154 615/3/154 616/4/154
v 0.848367 0.637567 0.384025
v 0.874981 0.655238 0.349427
v 0.885459 0.671157 0.362821
v 0.856872 0.652250 0.399984
vn 0.721519 -0.656635 0.219637
f 617/1/155 618/2/155 619/3/155 620/4/155
v 0.856872 0.652250 0.399984
v 0.885459 0.671157 0.362821
v 0.886716 0.692903 0.371075
v 0.855435 0.672307 0.411741
vn 0.824648 -0.240885 0.511790
f 621/1/156 622/2/156 623/3/156 624/4/156
v 0.886716 0.692903 0.371075
v 0.917998 0.700000 0.330409
v 0.909424 0.721622 0.331667
v 0.878416 0.714649 0.371977
vn 0.743456 0.258172 0.616944
f 625/1/157 626/2/157 627/3/157 628/4/157
v 0.878416 0.714649 0.371977
v 0.909424 0.721622 0.331667
v 0.893590 0.737450 0.325236
v 0.862783 0.730569 0.365285
vn 0.499545 0.703219 0.505903
f 629/1/158 630/2/158 631/3/158 632/4/158
v 0.862783 0.730569 0.365285
v 0.893590 0.737450 0.325236
v 0.874739 0.743244 0.312839
v 0.844005 0.736395 0.352793
vn 0.124153 0.957583 0.260041
f 633/1/159 634/2/159 635/3/159 636/4/159
v 0.844005 0.736395 0.352793
v 0.874739 0.743244 0.312839
v 0.857922 0.737450 0.297799
v 0.827115 0.730569 0.337848
vn -0.282986 0.957628 -0.053541
f 637/1/160 638/2/160 639/3/160 640/4/160
v 0.827115 0.730569 0.337848
v 0.857922 0.737450 0.297799
v 0.847645 0.721622 0.284144
v 0.816637 0.714649 0.324454
vn -0.616702 0.703344 -0.353533
f 641/1/161 642/2/161 643/3/161 644/4/161
v 0.816637 0.714649 0.324454
v 0.847645 0.721622 0.284144
v 0.846661 0.700000 0.275535
v 0.815380 0.692903 0.316201
vn -0.786810 0.258250 -0.560568
f 645/1/162 646/2/162 647/3/162 648/4/162
v 0.815380 0.692903 0.316201
v 0.846661 0.700000 0.275535
v 0.855235 0.678378 0.274277
v 0.823680 0.671157 0.315299
vn -0.743456 -0.258172 -0.616944
f 649/1/163 650/2/163 651/3/163 652/4/163
v 0.823680 0.671157 0.315299
v 0.855235 0.678378 0.274277
v 0.871069 0.662550 0.280707
v 0.839313 0.655238 0.321990
vn -0.498616 -0.702886 -0.507280
f 653/1/164 654/2/164 655/3/164 656/4/164
v 0.839313 0.655238 0.321990
v 0.871069 0.662550 0.280707
v 0.889920 0.656756 0.293104
v 0.858091 0.649411 0.334482
vn -0.121848 -0.957006 -0.263236
f 657/1/165 658/2/165 659/3/165 660/4/165
v 0.858091 0.649411 0.334482
v 0.889920 0.656756 0.293104
v 0.906737 0.662550 0.308144
v 0.874981 0.655238 0.349427
vn 0.285871 -0.956962 0.050022
f 661/1/166 662/2/166 663/3/166 664/4/166
v 0.874981 0.655238 0.349427
v 0.906737 0.662550 0.308144
v 0.917014 0.678378 0.321799
v 0.885459 0.671157 0.362821
vn 0.618595 -0.702767 0.351367
f 665/1/167 666/2/167 667/3/167 668/4/167
v 0.885459 0.671157 0.362821
v 0.917014 0.678378 0.321799
v 0.917998 0.700000 0.330409
v 0.886716 0.692903 0.371075
vn 0.787194 -0.258095 0.560101
f 669/1/168 670/2/168 671/3/168 672/4/168
v 0.917998 0.700000 0.330409
v 1.121065 0.850000 0.066421
v 1.110653 0.870515 0.070069
v 0.909424 0.721622 0.331667
vn 0.699662 0.238253 0.673579
f 673/1/169 674/2/169 675/3/169 676/4/169
v 0.909424 0.721622 0.331667
v 1.110653 0.870515 0.070069
v 1.093473 0.885534 0.065388
v 0.893590 0.737450 0.325236
vn 0.379362 0.647872 0.660566
f 677/1/170 678/2/170 679/3/170 680/4/170
v 0.893590 0.737450 0.325236
v 1.093473 0.885534 0.065388
v 1.074130 0.891031 0.053631
v 0.874739 0.743244 0.312839
vn -0.039442 0.880894 0.471668
f 681/1/171 682/2/171 683/3/171 684/4/171
v 0.874739 0.743244 0.312839
v 1.074130 0.891031 0.053631
v 1.057805 0.885534 0.037951
v 0.857922 0.737450 0.297799
vn -0.445859 0.880826 0.159233
f 685/1/172 686/2/172 687/3/172 688/4/172
v 0.857922 0.737450 0.297799
v 1.057805 0.885534 0.037951
v 1.048874 0.870515 0.022547
v 0.847645 0.721622 0.284144
vn -0.735946 0.647756 -0.196966
f 689/1/173 690/2/173 691/3/173 692/4/173
v 0.847645 0.721622 0.284144
v 1.048874 0.870515 0.022547
v 1.049729 0.850000 0.011547
v 0.846661 0.700000 0.275535
vn -0.830603 0.238205 -0.503346
f 693/1/174 694/2/174 695/3/174 696/4/174
v 0.846661 0.700000 0.275535
v 1.049729 0.850000 0.011547
v 1.060141 0.829485 0.007900
v 0.855235 0.678378 0.274277
vn -0.699662 -0.238253 -0.673579
f 697/1/175 698/2/175 699/3/175 700/4/175
v 0.855235 0.678378 0.274277
v 1.060141 0.829485 0.007900
v 1.077320 0.814466 0.012581
v 0.871069 0.662550 0.280707
vn -0.379924 -0.648180 -0.659940
f 701/1/176 702/2/176 703/3/176 704/4/176
v 0.871069 0.662550 0.280707
v 1.077320 0.814466 0.012581
v 1.096664 0.808969 0.024337
v 0.889920 0.656756 0.293104
vn 0.038209 -0.881739 -0.470188
f 705/1/177 706/2/177 707/3/177 708/4/177
v 0.889920 0.656756 0.293104
v 1.096664 0.808969 0.024337
v 1.112988 0.814466 0.040018
v 0.906737 0.662550 0.308144
vn 0.444573 -0.881802 -0.157419
f 709/1/178 710/2/178 711/3/178 712/4/178
v 0.906737 0.662550 0.308144
v 1.112988 0.814466 0.040018
v 1.121920 0.829485 0.055422
v 0.917014 0.678378 0.321799
vn 0.735148 -0.648290 0.198186
f 713/1/179 714/2/179 715/3/179 716/4/179
v 0.917014 0.678378 0.321799
v 1.121920 0.829485 0.055422
v 1.121065 0.850000 0.066421
v 0.917998 0.700000 0.330409
vn 0.830419 -0.238300 0.503604
f 717/1/180 718/2/180 719/3/180 720/4/180
v 1.121065 0.850000 0.066421
v 1.074130 0.891031 0.053631
v 1.093473 0.885534 0.065388
v 1.110653 0.870515 0.070069
vn 0.555930 0.410650 -0.722709
f 721/1/181 722/2/181 723/3/181 724/4/181
v 1.121065 0.850000 0.066421
v 1.048874 0.870515 0.022547
v 1.057805 0.885534 0.037951
v 1.074130 0.891031 0.053631
vn 0.555930 0.410650 -0.722709
f 725/1/182 726/2/182 727/3/182 728/4/182
v 1.121065 0.850000 0.066421
v 1.060141 0.829485 0.007900
v 1.049729 0.850000 0.011547
v 1.048874 0.870515 0.022547
vn 0.555930 0.410650 -0.722709
f 729/1/183 730/2/183 731/3/183 732/4/183
v 1.121065 0.850000 0.066421
v 1.096664 0.808969 0.024337
v 1.077320 0.814466 0.012581
v 1.060141 0.829485 0.007900
vn 0.555930 0.410650 -0.722709
f 733/1/184 734/2/184 735/3/184 736/4/184
v 1.121065 0.850000 0.066421
v 1.121920 0.829485 0.055422
v 1.112988 0.814466 0.040018
v 1.096664 0.808969 0.024337
vn 0.555930 0.410650 -0.722709
f 737/1/185 738/2/185 739/3/185 740/4/185
v 1.106249 0.845496 0.067641
v 1.222094 0.850000 -0.082958
v 1.218238 0.866995 -0.085416
v 1.102393 0.862491 0.065183
vn 0.761876 0.258746 0.593797
f 741/1/186 742/2/186 743/3/186 744/4/186
v 1.102393 0.862491 0.065183
v 1.218238 0.866995 -0.085416
v 1.208194 0.879437 -0.092770
v 1.092349 0.874933 0.057829
vn 0.550253 0.706908 0.444412
f 745/1/187 746/2/187 747/3/187 748/4/187
v 1.092349 0.874933 0.057829
v 1.208194 0.879437 -0.092770
v 1.194653 0.883990 -0.103049
v 1.078808 0.879487 0.047549
vn 0.191190 0.965655 0.175948
f 749/1/188 750/2/188 751/3/188 752/4/188
v 1.078808 0.879487 0.047549
v 1.194653 0.883990 -0.103049
v 1.181245 0.879437 -0.113500
v 1.065400 0.874933 0.037099
vn -0.219102 0.965655 -0.139662
f 753/1/189 754/2/189 755/3/189 756/4/189
v 1.065400 0.874933 0.037099
v 1.181245 0.879437 -0.113500
v 1.171560 0.866995 -0.121322
v 1.055715 0.862491 0.029277
vn -0.570686 0.706908 -0.417849
f 757/1/190 758/2/190 759/3/190 760/4/190
v 1.055715 0.862491 0.029277
v 1.171560 0.866995 -0.121322
v 1.168195 0.850000 -0.124418
v 1.052350 0.845496 0.026180
vn -0.769356 0.258746 -0.584074
f 761/1/191 762/2/191 763/3/191 764/4/191
v 1.052350 0.845496 0.026180
v 1.168195 0.850000 -0.124418
v 1.172052 0.833005 -0.121960
v 1.056206 0.828501 0.028638
vn -0.761876 -0.258746 -0.593797
f 765/1/192 766/2/192 767/3/192 768/4/192
v 1.056206 0.828501 0.028638
v 1.172052 0.833005 -0.121960
v 1.182095 0.820563 -0.114606
v 1.066250 0.816060 0.035992
vn -0.550253 -0.706908 -0.444412
f 769/1/193 770/2/193 771/3/193 772/4/193
v 1.066250 0.816060 0.035992
v 1.182095 0.820563 -0.114606
v 1.195636 0.816010 -0.104327
v 1.079791 0.811506 0.046272
vn -0.191190 -0.965655 -0.175948
f 773/1/194 774/2/194 775/3/194 776/4/194
v 1.079791 0.811506 0.046272
v 1.195636 0.816010 -0.104327
v 1.209045 0.820563 -0.093876
v 1.093200 0.816060 0.056723
vn 0.219102 -0.965655 0.139662
f 777/1/195 778/2/195 779/3/195 780/4/195
v 1.093200 0.816060 0.056723
v 1.209045 0.820563 -0.093876
v 1.218729 0.833005 -0.086054
v 1.102884 0.828501 0.064544
vn 0.570686 -0.706908 0.417849
f 781/1/196 782/2/196 783/3/196 784/4/196
v 1.102884 0.828501 0.064544
v 1.218729 0.833005 -0.086054
v 1.222094 0.850000 -0.082958
v 1.106249 0.845496 0.067641
vn 0.769356 -0.258746 0.584074
f 785/1/197 786/2/197 787/3/197 788/4/197
v 1.222094 0.850000 -0.082958
v 1.194653 0.883990 -0.103049
v 1.208194 0.879437 -0.092770
v 1.218238 0.866995 -0.085416
vn 0.609540 0.023697 -0.792401
f 789/1/198 790/2/198 791/3/198 792/4/198
v 1.222094 0.850000 -0.082958
v 1.171560 0.866995 -0.121322
v 1.181245 0.879437 -0.113500
v 1.194653 0.883990 -0.103049
vn 0.609540 0.023697 -0.792401
f 793/1/199 794/2/199 795/3/199 796/4/199
v 1.222094 0.850000 -0.082958
v 1.172052 0.833005 -0.121960
v 1.168195 0.850000 -0.124418
v 1.171560 0.866995 -0.121322
vn 0.609540 0.023697 -0.792401
f 797/1/200 798/2/200 799/3/200 800/4/200
v 1.222094 0.850000 -0.082958
v 1.195636 0.816010 -0.104327
v 1.182095 0.820563 -0.114606
v 1.172052 0.833005 -0.121960
vn 0.609540 0.023697 -0.792401
f 801/1/201 802/2/201 803/3/201 804/4/201
v 1.222094 0.850000 -0.082958
v 1.218729 0.833005 -0.086054
v 1.209045 0.820563 -0.093876
v 1.195636 0.816010 -0.104327
vn 0.609540 0.023697 -0.792401
f 805/1/202 806/2/202 807/3/202 808/4/202
v 0.518435 0.125000 0.902007
v 0.900764 0.673000 0.314978
v 0.890134 0.685253 0.319493
v 0.507805 0.137253 0.906521
vn 0.645484 0.301420 0.701781
f 809/1/203 810/2/203 811/3/203 812/4/203
v 0.507805 0.137253 0.906521
v 0.890134 0.685253 0.319493
v 0.874932 0.690328 0.314330
v 0.492602 0.142328 0.901358
vn 0.010012 0.727691 0.685832
f 813/1/204 814/2/204 815/3/204 816/4/204
v 0.492602 0.142328 0.901358
v 0.874932 0.690328 0.314330
v 0.864063 0.685253 0.302513
v 0.481734 0.137253 0.889542
vn -0.631325 0.727691 0.268131
f 817/1/205 818/2/205 819/3/205 820/4/205
v 0.481734 0.137253 0.889542
v 0.864063 0.685253 0.302513
v 0.863895 0.673000 0.290965
v 0.481565 0.125000 0.877993
vn -0.902840 0.301420 -0.306637
f 821/1/206 822/2/206 823/3/206 824/4/206
v 0.481565 0.125000 0.877993
v 0.863895 0.673000 0.290965
v 0.874525 0.660747 0.286450
v 0.492195 0.112747 0.873479
vn -0.645484 -0.301420 -0.701781
f 825/1/207 826/2/207 827/3/207 828/4/207
v 0.492195 0.112747 0.873479
v 0.874525 0.660747 0.286450
v 0.889727 0.655672 0.291613
v 0.507398 0.107672 0.878642
vn -0.010012 -0.727691 -0.685832
f 829/1/208 830/2/208 831/3/208 832/4/208
v 0.507398 0.107672 0.878642
v 0.889727 0.655672 0.291613
v 0.900596 0.660747 0.303430
v 0.518266 0.112747 0.890458
vn 0.631325 -0.727691 -0.268131
f 833/1/209 834/2/209 835/3/209 836/4/209
v 0.518266 0.112747 0.890458
v 0.900596 0.660747 0.303430
v 0.900764 0.673000 0.314978
v 0.518435 0.125000 0.902007
vn 0.902840 -0.301420 0.306637
f 837/1/210 838/2/210 839/3/210 840/4/210
v 0.900764 0.673000 0.314978
v 0.864063 0.685253 0.302513
v 0.874932 0.690328 0.314330
v 0.890134 0.685253 0.319493
vn 0.429860 0.616126 -0.660007
f 841/1/211 842/2/211 843/3/211 844/4/211
v 0.900764 0.673000 0.314978
v 0.874525 0.660747 0.286450
v 0.863895 0.673000 0.290965
v 0.864063 0.685253 0.302513
vn 0.429860 0.616126 -0.660007
f 845/1/212 846/2/212 847/3/212 848/4/212
v 0.900764 0.673000 0.314978
v 0.900596 0.660747 0.303430
v 0.889727 0.655672 0.291613
v 0.874525 0.660747 0.286450
vn 0.429860 0.616126 -0.660007
f 849/1/213 850/2/213 851/3/213 852/4/213
usemtl clamp
v 0.468750 0.750000 0.900000
v 0.531250 0.750000 0.900000
v 0.531250 0.812500 0.900000
v 0.468750 0.812500 0.900000
vn 0.000000 0.000000 1.000000
f 853/1/214 854/2/214 855/3/214 856/4/214
v 0.531250 0.750000 0.812500
v 0.468750 0.750000 0.812500
v 0.468750 0.812500 0.812500
v 0.531250 0.812500 0.812500
vn 0.000000 0.000000 -1.000000
f 857/1/215 858/2/215 859/3/215 860/4/215
v 0.531250 0.750000 0.900000
v 0.531250 0.750000 0.812500
v 0.531250 0.812500 0.812500
v 0.531250 0.812500 0.900000
vn 1.000000 -0.000000 0.000000
f 861/1/216 862/2/216 863/3/216 864/4/216
v 0.468750 0.750000 0.812500
v 0.468750 0.750000 0.900000
v 0.468750 0.812500 0.900000
v 0.468750 0.812500 0.812500
vn -1.000000 0.000000 0.000000
f 865/1/217 866/2/217 867/3/217 868/4/217
v 0.468750 0.812500 0.900000
v 0.531250 0.812500 0.900000
v 0.531250 0.812500 0.812500
v 0.468750 0.812500 0.812500
vn -0.000000 1.000000 0.000000
f 869/1/218 870/2/218 871/3/218 872/4/218
v 0.468750 0.750000 0.812500
v 0.531250 0.750000 0.812500
v 0.531250 0.750000 0.900000
v 0.468750 0.750000 0.900000
vn 0.000000 -1.000000 0.000000
f 873/1/219 874/2/219 875/3/219 876/4/219
usemtl porcelain
v 0.437500 0.812500 0.875000
v 0.562500 0.812500 0.875000
v 0.562500 0.937500 0.875000
v 0.437500 0.937500 0.875000
vn 0.000000 0.000000 1.000000
f 877/1/220 878/2/220 879/3/220 880/4/220
v 0.562500 0.812500 0.750000
v 0.437500 0.812500 0.750000
v 0.437500 0.937500 0.750000
v 0.562500 0.937500 0.750000
vn 0.000000 0.000000 -1.000000
f 881/1/221 882/2/221 883/3/221 884/4/221
v 0.562500 0.812500 0.875000
v 0.562500 0.812500 0.750000
v 0.562500 0.937500 0.750000
v 0.562500 0.937500 0.875000
vn 1.000000 -0.000000 0.000000
f 885/1/222 886/2/222 887/3/222 888/4/222
v 0.437500 0.812500 0.750000
v 0.437500 0.812500 0.875000
v 0.437500 0.937500 0.875000
v 0.437500 0.937500 0.750000
vn -1.000000 0.000000 0.000000
f 889/1/223 890/2/223 891/3/223 892/4/223
v 0.437500 0.937500 0.875000
v 0.562500 0.937500 0.875000
v 0.562500 0.937500 0.750000
v 0.437500 0.937500 0.750000
vn -0.000000 1.000000 0.000000
f 893/1/224 894/2/224 895/3/224 896/4/224
v 0.437500 0.812500 0.750000
v 0.562500 0.812500 0.750000
v 0.562500 0.812500 0.875000
v 0.437500 0.812500 0.875000
vn 0.000000 -1.000000 0.000000
f 897/1/225 898/2/225 899/3/225 900/4/225
usemtl cable
v 0.500000 0.875679 0.766986
v 0.528964 0.565005 0.779296
v 0.543578 0.567438 0.770958
v 0.514658 0.876713 0.758438
vn 0.497875 0.080630 0.863493
f 901/1/226 902/2/226 903/3/226 904/4/226
v 0.514658 0.876713 0.758438
v 0.543578 0.567438 0.770958
v 0.543578 0.568746 0.754009
v 0.514658 0.876033 0.741452
vn 0.995664 0.092954 -0.003718
f 905/1/227 906/2/227 907/3/227 908/4/227
v 0.514658 0.876033 0.741452
v 0.543578 0.568746 0.754009
v 0.528964 0.567621 0.745397
v 0.500000 0.874321 0.733014
vn 0.497873 0.011421 -0.867174
f 909/1/228 910/2/228 911/3/228 912/4/228
v 0.500000 0.874321 0.733014
v 0.528964 0.567621 0.745397
v 0.514350 0.565189 0.753734
v 0.485342 0.873287 0.741562
vn -0.497758 -0.081870 -0.863443
f 913/1/229 914/2/229 915/3/229 916/4/229
v 0.485342 0.873287 0.741562
v 0.514350 0.565189 0.753734
v 0.514350 0.563881 0.770684
v 0.485342 0.873967 0.758548
vn -0.995604 -0.093592 0.003743
f 917/1/230 918/2/230 919/3/230 920/4/230
v 0.485342 0.873967 0.758548
v 0.514350 0.563881 0.770684
v 0.528964 0.565005 0.779296
v 0.500000 0.875679 0.766986
vn -0.497760 -0.012625 0.867223
f 921/1/231 922/2/231 923/3/231 924/4/231
v 0.528964 0.565005 0.779296
v 0.557929 0.371913 0.741318
v 0.572465 0.375970 0.733493
v 0.543578 0.567438 0.770958
vn 0.505031 -0.093012 0.858075
f 925/1/232 926/2/232 927/3/232 928/4/232
v 0.543578 0.567438 0.770958
v 0.572465 0.375970 0.733493
v 0.572465 0.379520 0.716867
v 0.543578 0.568746 0.754009
vn 0.989071 0.147001 0.011344
f 929/1/233 930/2/233 931/3/233 932/4/233
v 0.543578 0.568746 0.754009
v 0.572465 0.379520 0.716867
v 0.557929 0.379011 0.708067
v 0.528964 0.567621 0.745397
vn 0.479287 0.238927 -0.844511
f 933/1/234 934/2/234 935/3/234 936/4/234
v 0.528964 0.567621 0.745397
v 0.557929 0.379011 0.708067
v 0.543393 0.374953 0.715893
v 0.514350 0.565189 0.753734
vn -0.504976 0.092303 -0.858184
f 937/1/235 938/2/235 939/3/235 940/4/235
v 0.514350 0.565189 0.753734
v 0.543393 0.374953 0.715893
v 0.543393 0.371404 0.732518
v 0.514350 0.563881 0.770684
vn -0.988820 -0.148675 -0.011474
f 941/1/236 942/2/236 943/3/236 944/4/236
v 0.514350 0.563881 0.770684
v 0.543393 0.371404 0.732518
v 0.557929 0.371913 0.741318
v 0.528964 0.565005 0.779296
vn -0.479141 -0.239725 0.844367
f 945/1/237 946/2/237 947/3/237 948/4/237
v 0.557929 0.371913 0.741318
v 0.586893 0.207547 0.703539
v 0.601369 0.212197 0.695935
v 0.572465 0.375970 0.733493
vn 0.494909 -0.110882 0.861841
f 949/1/238 950/2/238 951/3/238 952/4/238
v 0.572465 0.375970 0.733493
v 0.601369 0.212197 0.695935
v 0.601369 0.216291 0.679435
v 0.572465 0.379520 0.716867
vn 0.985521 0.165816 0.035399
f 953/1/239 954/2/239 955/3/239 956/4/239
v 0.572465 0.379520 0.716867
v 0.601369 0.216291 0.679435
v 0.586893 0.215735 0.670539
v 0.557929 0.379011 0.708067
vn 0.490617 0.276387 -0.826380
f 957/1/240 958/2/240 959/3/240 960/4/240
v 0.557929 0.379011 0.708067
v 0.586893 0.215735 0.670539
v 0.572417 0.211085 0.678143
v 0.543393 0.374953 0.715893
vn -0.494821 0.110337 -0.861961
f 961/1/241 962/2/241 963/3/241 964/4/241
v 0.543393 0.374953 0.715893
v 0.572417 0.211085 0.678143
v 0.572417 0.206991 0.694643
v 0.543393 0.371404 0.732518
vn -0.985426 -0.166358 -0.035515
f 965/1/242 966/2/242 967/3/242 968/4/242
v 0.543393 0.371404 0.732518
v 0.572417 0.206991 0.694643
v 0.586893 0.207547 0.703539
v 0.557929 0.371913 0.741318
vn -0.490522 -0.276933 0.826254
f 969/1/243 970/2/243 971/3/243 972/4/243
v 0.586893 0.207547 0.703539
v 0.615857 0.065662 0.665701
v 0.630248 0.071033 0.658416
v 0.601369 0.212197 0.695935
vn 0.493251 -0.128733 0.860309
f 973/1/244 974/2/244 975/3/244 976/4/244
v 0.601369 0.212197 0.695935
v 0.630248 0.071033 0.658416
v 0.630248 0.075808 0.642101
v 0.601369 0.216291 0.679435
vn 0.981005 0.188273 0.046717
f 977/1/245 978/2/245 979/3/245 980/4/245
v 0.601369 0.216291 0.679435
v 0.630248 0.075808 0.642101
v 0.615857 0.075211 0.633070
v 0.586893 0.215735 0.670539
vn 0.487793 0.316485 -0.813569
f 981/1/246 982/2/246 983/3/246 984/4/246
v 0.586893 0.215735 0.670539
v 0.615857 0.075211 0.633070
v 0.601467 0.069840 0.640354
v 0.572417 0.211085 0.678143
vn -0.493082 0.127825 -0.860541
f 985/1/247 986/2/247 987/3/247 988/4/247
v 0.572417 0.211085 0.678143
v 0.601467 0.069840 0.640354
v 0.601467 0.065065 0.656670
v 0.572417 0.206991 0.694643
vn -0.980822 -0.189169 -0.046939
f 989/1/248 990/2/248 991/3/248 992/4/248
v 0.572417 0.206991 0.694643
v 0.601467 0.065065 0.656670
v 0.615857 0.065662 0.665701
v 0.586893 0.207547 0.703539
vn -0.487604 -0.317414 0.813321
f 993/1/249 994/2/249 995/3/249 996/4/249
v 0.615857 0.065662 0.665701
v 0.644822 -0.053277 0.627728
v 0.659069 -0.046910 0.620985
v 0.630248 0.071033 0.658416
vn 0.491410 -0.154003 0.857204
f 997/1/250 998/2/250 999/3/250 1000/4/250
v 0.630248 0.071033 0.658416
v 0.659069 -0.046910 0.620985
v 0.659069 -0.041156 0.604989
v 0.630248 0.075808 0.642101
vn 0.973918 0.217768 0.063730
f 1001/1/251 1002/2/251 1003/3/251 1004/4/251
v 0.630248 0.075808 0.642101
v 0.659069 -0.041156 0.604989
v 0.644822 -0.041770 0.595735
v 0.615857 0.075211 0.633070
vn 0.482622 0.370700 -0.793510
f 1005/1/252 1006/2/252 1007/3/252 1008/4/252
v 0.615857 0.075211 0.633070
v 0.644822 -0.041770 0.595735
v 0.630574 -0.048137 0.602478
v 0.601467 0.069840 0.640354
vn -0.491010 0.152182 -0.857758
f 1009/1/253 1010/2/253 1011/3/253 1012/4/253
v 0.601467 0.069840 0.640354
v 0.630574 -0.048137 0.602478
v 0.630574 -0.053890 0.618475
v 0.601467 0.065065 0.656670
vn -0.973483 -0.219550 -0.064252
f 1013/1/254 1014/2/254 1015/3/254 1016/4/254
v 0.601467 0.065065 0.656670
v 0.630574 -0.053890 0.618475
v 0.644822 -0.053277 0.627728
v 0.615857 0.065662 0.665701
vn -0.482167 -0.372575 0.792908
f 1017/1/255 1018/2/255 1019/3/255 1020/4/255
v 0.644822 -0.053277 0.627728
v 0.687261 -0.141243 0.584443
v 0.688248 -0.133743 0.569219
v 0.659069 -0.046910 0.620985
vn 0.486785 -0.185211 0.853661
f 1021/1/256 1022/2/256 1023/3/256 1024/4/256
v 0.659069 -0.046910 0.620985
v 0.688248 -0.133743 0.569219
v 0.674773 -0.133743 0.558854
v 0.659069 -0.041156 0.604989
vn 0.959383 0.265458 0.095480
f 1025/1/257 1026/2/257 1027/3/257 1028/4/257
v 0.659069 -0.041156 0.604989
v 0.674773 -0.133743 0.558854
v 0.660312 -0.141243 0.563713
v 0.644822 -0.041770 0.595735
vn 0.470830 0.456140 -0.755152
f 1029/1/258 1030/2/258 1031/3/258 1032/4/258
v 0.644822 -0.041770 0.595735
v 0.660312 -0.141243 0.563713
v 0.659325 -0.148743 0.578937
v 0.630574 -0.048137 0.602478
vn -0.489962 0.197067 -0.849177
f 1033/1/259 1034/2/259 1035/3/259 1036/4/259
v 0.630574 -0.048137 0.602478
v 0.659325 -0.148743 0.578937
v 0.672799 -0.148743 0.589302
v 0.630574 -0.053890 0.618475
vn -0.962935 -0.253816 -0.091292
f 1037/1/260 1038/2/260 1039/3/260 1040/4/260
v 0.630574 -0.053890 0.618475
v 0.672799 -0.148743 0.589302
v 0.687261 -0.141243 0.584443
v 0.644822 -0.053277 0.627728
vn -0.474295 -0.444799 0.759736
f 1041/1/261 1042/2/261 1043/3/261 1044/4/261
v 0.687261 -0.141243 0.584443
v 0.716225 -0.210695 0.546789
v 0.714918 -0.198972 0.534548
v 0.688248 -0.133743 0.569219
vn 0.938092 0.282737 0.200107
f 1045/1/262 1046/2/262 1047/3/262 1048/4/262
v 0.688248 -0.133743 0.569219
v 0.714918 -0.198972 0.534548
v 0.701443 -0.198972 0.524182
v 0.674773 -0.133743 0.558854
vn 0.506388 0.556963 -0.658304
f 1049/1/263 1050/2/263 1051/3/263 1052/4/263
v 0.674773 -0.133743 0.558854
v 0.701443 -0.198972 0.524182
v 0.689276 -0.210695 0.526059
v 0.660312 -0.141243 0.563713
vn -0.432667 0.278812 -0.857358
f 1053/1/264 1054/2/264 1055/3/264 1056/4/264
v 0.660312 -0.141243 0.563713
v 0.689276 -0.210695 0.526059
v 0.690583 -0.222417 0.538301
v 0.659325 -0.148743 0.578937
vn -0.938092 -0.282737 -0.200107
f 1057/1/265 1058/2/265 1059/3/265 1060/4/265
v 0.659325 -0.148743 0.578937
v 0.690583 -0.222417 0.538301
v 0.704058 -0.222417 0.548666
v 0.672799 -0.148743 0.589302
vn -0.500464 -0.571184 0.650603
f 1061/1/266 1062/2/266 1063/3/266 1064/4/266
v 0.672799 -0.148743 0.589302
v 0.704058 -0.222417 0.548666
v 0.716225 -0.210695 0.546789
v 0.687261 -0.141243 0.584443
vn 0.435230 -0.286170 0.853628
f 1065/1/267 1066/2/267 1067/3/267 1068/4/267
v 0.716225 -0.210695 0.546789
v 0.745189 -0.226887 0.509136
v 0.738845 -0.212179 0.503443
v 0.714918 -0.198972 0.534548
vn 0.779380 0.492007 0.387938
f 1069/1/268 1070/2/268 1071/3/268 1072/4/268
v 0.714918 -0.198972 0.534548
v 0.738845 -0.212179 0.503443
v 0.725370 -0.212179 0.493078
v 0.701443 -0.198972 0.524182
vn 0.194482 0.947763 -0.252826
f 1073/1/269 1074/2/269 1075/3/269 1076/4/269
v 0.701443 -0.198972 0.524182
v 0.725370 -0.212179 0.493078
v 0.718240 -0.226887 0.488406
v 0.689276 -0.210695 0.526059
vn -0.575702 0.493117 -0.652229
f 1077/1/270 1078/2/270 1079/3/270 1080/4/270
v 0.689276 -0.210695 0.526059
v 0.718240 -0.226887 0.488406
v 0.724585 -0.241596 0.494099
v 0.690583 -0.222417 0.538301
vn -0.779380 -0.492007 -0.387938
f 1081/1/271 1082/2/271 1083/3/271 1084/4/271
v 0.690583 -0.222417 0.538301
v 0.724585 -0.241596 0.494099
v 0.738059 -0.241596 0.504464
v 0.704058 -0.222417 0.548666
vn -0.198280 -0.945644 0.257763
f 1085/1/272 1086/2/272 1087/3/272 1088/4/272
v 0.704058 -0.222417 0.548666
v 0.738059 -0.241596 0.504464
v 0.745189 -0.226887 0.509136
v 0.716225 -0.210695 0.546789
vn 0.574293 -0.491227 0.654892
f 1089/1/273 1090/2/273 1091/3/273 1092/4/273
v 0.745189 -0.226887 0.509136
v 0.774154 -0.215212 0.471482
v 0.764908 -0.201076 0.469560
v 0.738845 -0.212179 0.503443
vn 0.604187 0.500591 0.619972
f 1093/1/274 1094/2/274 1095/3/274 1096/4/274
v 0.738845 -0.212179 0.503443
v 0.764908 -0.201076 0.469560
v 0.751434 -0.201076 0.459195
v 0.725370 -0.212179 0.493078
vn -0.153272 0.967887 0.199254
f 1097/1/275 1098/2/275 1099/3/275 1100/4/275
v 0.725370 -0.212179 0.493078
v 0.751434 -0.201076 0.459195
v 0.747205 -0.215212 0.450752
v 0.718240 -0.226887 0.488406
vn -0.757724 0.500376 -0.418902
f 1101/1/276 1102/2/276 1103/3/276 1104/4/276
v 0.718240 -0.226887 0.488406
v 0.747205 -0.215212 0.450752
v 0.756450 -0.229348 0.452674
v 0.724585 -0.241596 0.494099
vn -0.604187 -0.500591 -0.619972
f 1105/1/277 1106/2/277 1107/3/277 1108/4/277
v 0.724585 -0.241596 0.494099
v 0.756450 -0.229348 0.452674
v 0.769925 -0.229348 0.463039
v 0.738059 -0.241596 0.504464
vn 0.139110 -0.973624 -0.180843
f 1109/1/278 1110/2/278 1111/3/278 1112/4/278
v 0.738059 -0.241596 0.504464
v 0.769925 -0.229348 0.463039
v 0.774154 -0.215212 0.471482
v 0.745189 -0.226887 0.509136
vn 0.751302 -0.500750 0.429879
f 1113/1/279 1114/2/279 1115/3/279 1116/4/279
v 0.774154 -0.215212 0.471482
v 0.803118 -0.199186 0.433828
v 0.793420 -0.185287 0.432495
v 0.764908 -0.201076 0.469560
vn 0.588763 0.474082 0.654679
f 1117/1/280 1118/2/280 1119/3/280 1120/4/280
v 0.764908 -0.201076 0.469560
v 0.793420 -0.185287 0.432495
v 0.779946 -0.185287 0.422130
v 0.751434 -0.201076 0.459195
vn -0.195046 0.947452 0.253560
f 1121/1/281 1122/2/281 1123/3/281 1124/4/281
v 0.751434 -0.201076 0.459195
v 0.779946 -0.185287 0.422130
v 0.776169 -0.199186 0.413098
v 0.747205 -0.215212 0.450752
vn -0.783867 0.474046 -0.401040
f 1125/1/282 1126/2/282 1127/3/282 1128/4/282
v 0.747205 -0.215212 0.450752
v 0.776169 -0.199186 0.413098
v 0.785867 -0.213084 0.414432
v 0.756450 -0.229348 0.452674
vn -0.588763 -0.474082 -0.654679
f 1129/1/283 1130/2/283 1131/3/283 1132/4/283
v 0.756450 -0.229348 0.452674
v 0.785867 -0.213084 0.414432
v 0.799342 -0.213084 0.424797
v 0.769925 -0.229348 0.463039
vn 0.194764 -0.947608 -0.253193
f 1133/1/284 1134/2/284 1135/3/284 1136/4/284
v 0.769925 -0.229348 0.463039
v 0.799342 -0.213084 0.424797
v 0.803118 -0.199186 0.433828
v 0.774154 -0.215212 0.471482
vn 0.783727 -0.474117 0.401229
f 1137/1/285 1138/2/285 1139/3/285 1140/4/285
v 0.803118 -0.199186 0.433828
v 0.832083 -0.182014 0.396175
v 0.822405 -0.168104 0.394814
v 0.793420 -0.185287 0.432495
vn 0.582786 0.470244 0.662745
f 1141/1/286 1142/2/286 1143/3/286 1144/4/286
v 0.793420 -0.185287 0.432495
v 0.822405 -0.168104 0.394814
v 0.808931 -0.168104 0.384449
v 0.779946 -0.185287 0.422130
vn -0.207260 0.940450 0.269438
f 1145/1/287 1146/2/287 1147/3/287 1148/4/287
v 0.779946 -0.185287 0.422130
v 0.808931 -0.168104 0.384449
v 0.805133 -0.182014 0.375445
v 0.776169 -0.199186 0.413098
vn -0.790057 0.470245 -0.393293
f 1149/1/288 1150/2/288 1151/3/288 1152/4/288
v 0.776169 -0.199186 0.413098
v 0.805133 -0.182014 0.375445
v 0.814811 -0.195925 0.376805
v 0.785867 -0.213084 0.414432
vn -0.582786 -0.470244 -0.662745
f 1153/1/289 1154/2/289 1155/3/289 1156/4/289
v 0.785867 -0.213084 0.414432
v 0.814811 -0.195925 0.376805
v 0.828285 -0.195925 0.387170
v 0.799342 -0.213084 0.424797
vn 0.207270 -0.940444 -0.269451
f 1157/1/290 1158/2/290 1159/3/290 1160/4/290
v 0.799342 -0.213084 0.424797
v 0.828285 -0.195925 0.387170
v 0.832083 -0.182014 0.396175
v 0.803118 -0.199186 0.433828
vn 0.790062 -0.470243 0.393286
f 1161/1/291 1162/2/291 1163/3/291 1164/4/291
v 0.832083 -0.182014 0.396175
v 0.861047 -0.166245 0.358521
v 0.851737 -0.152140 0.356683
v 0.822405 -0.168104 0.394814
vn 0.590365 0.474568 0.652881
f 1165/1/292 1166/2/292 1167/3/292 1168/4/292
v 0.822405 -0.168104 0.394814
v 0.851737 -0.152140 0.356683
v 0.838263 -0.152140 0.346318
v 0.808931 -0.168104 0.384449
vn -0.192032 0.949107 0.249641
f 1169/1/293 1170/2/293 1171/3/293 1172/4/293
v 0.808931 -0.168104 0.384449
v 0.838263 -0.152140 0.346318
v 0.834098 -0.166245 0.337791
v 0.805133 -0.182014 0.375445
vn -0.782440 0.474585 -0.403185
f 1173/1/294 1174/2/294 1175/3/294 1176/4/294
v 0.805133 -0.182014 0.375445
v 0.834098 -0.166245 0.337791
v 0.843407 -0.180350 0.339629
v 0.814811 -0.195925 0.376805
vn -0.590365 -0.474568 -0.652881
f 1177/1/295 1178/2/295 1179/3/295 1180/4/295
v 0.814811 -0.195925 0.376805
v 0.843407 -0.180350 0.339629
v 0.856882 -0.180350 0.349994
v 0.828285 -0.195925 0.387170
vn 0.192154 -0.949040 -0.249800
f 1181/1/296 1182/2/296 1183/3/296 1184/4/296
v 0.828285 -0.195925 0.387170
v 0.856882 -0.180350 0.349994
v 0.861047 -0.166245 0.358521
v 0.832083 -0.182014 0.396175
vn 0.782501 -0.474550 0.403106
f 1185/1/297 1186/2/297 1187/3/297 1188/4/297
v 0.861047 -0.166245 0.358521
v 0.890011 -0.153568 0.320867
v 0.879685 -0.140073 0.320351
v 0.851737 -0.152140 0.356683
vn 0.607728 0.483256 0.630183
f 1189/1/298 1190/2/298 1191/3/298 1192/4/298
v 0.851737 -0.152140 0.356683
v 0.879685 -0.140073 0.320351
v 0.866210 -0.140073 0.309986
v 0.838263 -0.152140 0.346318
vn -0.155215 0.967054 0.201779
f 1193/1/299 1194/2/299 1195/3/299 1196/4/299
v 0.838263 -0.152140 0.346318
v 0.866210 -0.140073 0.309986
v 0.863062 -0.153568 0.300137
v 0.834098 -0.166245 0.337791
vn -0.763977 0.483727 -0.427021
f 1197/1/300 1198/2/300 1199/3/300 1200/4/300
v 0.834098 -0.166245 0.337791
v 0.863062 -0.153568 0.300137
v 0.873389 -0.167062 0.300654
v 0.843407 -0.180350 0.339629
vn -0.607728 -0.483256 -0.630183
f 1201/1/301 1202/2/301 1203/3/301 1204/4/301
v 0.843407 -0.180350 0.339629
v 0.873389 -0.167062 0.300654
v 0.886863 -0.167062 0.311019
v 0.856882 -0.180350 0.349994
vn 0.159054 -0.965375 -0.206770
f 1205/1/302 1206/2/302 1207/3/302 1208/4/302
v 0.856882 -0.180350 0.349994
v 0.886863 -0.167062 0.311019
v 0.890011 -0.153568 0.320867
v 0.861047 -0.166245 0.358521
vn 0.765919 -0.482817 0.424565
f 1209/1/303 1210/2/303 1211/3/303 1212/4/303
v 0.890011 -0.153568 0.320867
v 0.918976 -0.123658 0.283214
v 0.906841 -0.111894 0.285048
v 0.879685 -0.140073 0.320351
vn 0.520650 0.426735 0.739473
f 1213/1/304 1214/2/304 1215/3/304 1216/4/304
v 0.879685 -0.140073 0.320351
v 0.906841 -0.111894 0.285048
v 0.893367 -0.111894 0.274682
v 0.866210 -0.140073 0.309986
vn -0.325988 0.845068 0.423784
f 1217/1/305 1218/2/305 1219/3/305 1220/4/305
v 0.866210 -0.140073 0.309986
v 0.893367 -0.111894 0.274682
v 0.892026 -0.123658 0.262484
v 0.863062 -0.153568 0.300137
vn -0.848835 0.426251 -0.312711
f 1221/1/306 1222/2/306 1223/3/306 1224/4/306
v 0.863062 -0.153568 0.300137
v 0.892026 -0.123658 0.262484
v 0.904161 -0.135422 0.260650
v 0.873389 -0.167062 0.300654
vn -0.520650 -0.426735 -0.739473
f 1225/1/307 1226/2/307 1227/3/307 1228/4/307
v 0.873389 -0.167062 0.300654
v 0.904161 -0.135422 0.260650
v 0.917636 -0.135422 0.271015
v 0.886863 -0.167062 0.311019
vn 0.323854 -0.847272 -0.421010
f 1229/1/308 1230/2/308 1231/3/308 1232/4/308
v 0.886863 -0.167062 0.311019
v 0.917636 -0.135422 0.271015
v 0.918976 -0.123658 0.283214
v 0.890011 -0.153568 0.320867
vn 0.847792 -0.427163 0.314294
f 1233/1/309 1234/2/309 1235/3/309 1236/4/309
v 0.918976 -0.123658 0.283214
v 0.947940 -0.081294 0.245560
v 0.934928 -0.070765 0.248534
v 0.906841 -0.111894 0.285048
vn 0.482409 0.374140 0.792024
f 1237/1/310 1238/2/310 1239/3/310 1240/4/310
v 0.906841 -0.111894 0.285048
v 0.934928 -0.070765 0.248534
v 0.921454 -0.070765 0.238169
v 0.893367 -0.111894 0.274682
vn -0.406063 0.745957 0.527883
f 1241/1/311 1242/2/311 1243/3/311 1244/4/311
v 0.893367 -0.111894 0.274682
v 0.921454 -0.070765 0.238169
v 0.920991 -0.081294 0.224830
v 0.892026 -0.123658 0.262484
vn -0.889395 0.373961 -0.262924
f 1245/1/312 1246/2/312 1247/3/312 1248/4/312
v 0.892026 -0.123658 0.262484
v 0.920991 -0.081294 0.224830
v 0.934002 -0.091823 0.221856
v 0.904161 -0.135422 0.260650
vn -0.482409 -0.374140 -0.792024
f 1249/1/313 1250/2/313 1251/3/313 1252/4/313
v 0.904161 -0.135422 0.260650
v 0.934002 -0.091823 0.221856
v 0.947477 -0.091823 0.232221
v 0.917636 -0.135422 0.271015
vn 0.405555 -0.746700 -0.527222
f 1253/1/314 1254/2/314 1255/3/314 1256/4/314
v 0.917636 -0.135422 0.271015
v 0.947477 -0.091823 0.232221
v 0.947940 -0.081294 0.245560
v 0.918976 -0.123658 0.283214
vn 0.889142 -0.374308 0.263286
f 1257/1/315 1258/2/315 1259/3/315 1260/4/315
v 0.947940 -0.081294 0.245560
v 0.976904 -0.030412 0.207906
v 0.963372 -0.020792 0.211557
v 0.934928 -0.070765 0.248534
vn 0.463245 0.341484 0.817797
f 1261/1/316 1262/2/316 1263/3/316 1264/4/316
v 0.934928 -0.070765 0.248534
v 0.963372 -0.020792 0.211557
v 0.949897 -0.020792 0.201192
v 0.921454 -0.070765 0.238169
vn -0.445692 0.682389 0.579400
f 1265/1/317 1266/2/317 1267/3/317 1268/4/317
v 0.921454 -0.070765 0.238169
v 0.949897 -0.020792 0.201192
v 0.949955 -0.030412 0.187176
v 0.920991 -0.081294 0.224830
vn -0.909274 0.341463 -0.237959
f 1269/1/318 1270/2/318 1271/3/318 1272/4/318
v 0.920991 -0.081294 0.224830
v 0.949955 -0.030412 0.187176
v 0.963487 -0.040032 0.183525
v 0.934002 -0.091823 0.221856
vn -0.463245 -0.341484 -0.817797
f 1273/1/319 1274/2/319 1275/3/319 1276/4/319
v 0.934002 -0.091823 0.221856
v 0.963487 -0.040032 0.183525
v 0.976962 -0.040032 0.193890
v 0.947477 -0.091823 0.232221
vn 0.445642 -0.682477 -0.579334
f 1277/1/320 1278/2/320 1279/3/320 1280/4/320
v 0.947477 -0.091823 0.232221
v 0.976962 -0.040032 0.193890
v 0.976904 -0.030412 0.207906
v 0.947940 -0.081294 0.245560
vn 0.909249 -0.341506 0.237993
f 1281/1/321 1282/2/321 1283/3/321 1284/4/321
v 0.976904 -0.030412 0.207906
v 1.005869 0.029165 0.170253
v 0.991929 0.037951 0.174434
v 0.963372 -0.020792 0.211557
vn 0.447809 0.311899 0.837965
f 1285/1/322 1286/2/322 1287/3/322 1288/4/322
v 0.963372 -0.020792 0.211557
v 0.991929 0.037951 0.174434
v 0.978454 0.037951 0.164069
v 0.949897 -0.020792 0.201192
vn -0.476728 0.623414 0.619746
f 1289/1/323 1290/2/323 1291/3/323 1292/4/323
v 0.949897 -0.020792 0.201192
v 0.978454 0.037951 0.164069
v 0.978919 0.029165 0.149523
v 0.949955 -0.030412 0.187176
vn -0.924802 0.311885 -0.217874
f 1293/1/324 1294/2/324 1295/3/324 1296/4/324
v 0.949955 -0.030412 0.187176
v 0.978919 0.029165 0.149523
v 0.992860 0.020379 0.145342
v 0.963487 -0.040032 0.183525
vn -0.447809 -0.311899 -0.837965
f 1297/1/325 1298/2/325 1299/3/325 1300/4/325
v 0.963487 -0.040032 0.183525
v 0.992860 0.020379 0.145342
v 1.006334 0.020379 0.155707
v 0.976962 -0.040032 0.193890
vn 0.476700 -0.623472 -0.619709
f 1301/1/326 1302/2/326 1303/3/326 1304/4/326
v 0.976962 -0.040032 0.193890
v 1.006334 0.020379 0.155707
v 1.005869 0.029165 0.170253
v 0.976904 -0.030412 0.207906
vn 0.924788 -0.311913 0.217894
f 1305/1/327 1306/2/327 1307/3/327 1308/4/327
v 1.005869 0.029165 0.170253
v 1.034833 0.097742 0.132599
v 1.020568 0.105762 0.137202
v 0.991929 0.037951 0.174434
vn 0.435628 0.284843 0.853869
f 1309/1/328 1310/2/328 1311/3/328 1312/4/328
v 0.991929 0.037951 0.174434
v 1.020568 0.105762 0.137202
v 1.007094 0.105762 0.126837
v 0.978454 0.037951 0.164069
vn -0.501208 0.569425 0.651571
f 1313/1/329 1314/2/329 1315/3/329 1316/4/329
v 0.978454 0.037951 0.164069
v 1.007094 0.105762 0.126837
v 1.007884 0.097742 0.111869
v 0.978919 0.029165 0.149523
vn -0.937046 0.284834 -0.202026
f 1317/1/330 1318/2/330 1319/3/330 1320/4/330
v 0.978919 0.029165 0.149523
v 1.007884 0.097742 0.111869
v 1.022149 0.089721 0.107266
v 0.992860 0.020379 0.145342
vn -0.435628 -0.284843 -0.853869
f 1321/1/331 1322/2/331 1323/3/331 1324/4/331
v 0.992860 0.020379 0.145342
v 1.022149 0.089721 0.107266
v 1.035623 0.089721 0.117631
v 1.006334 0.020379 0.155707
vn 0.501193 -0.569462 -0.651551
f 1325/1/332 1326/2/332 1327/3/332 1328/4/332
v 1.006334 0.020379 0.155707
v 1.035623 0.089721 0.117631
v 1.034833 0.097742 0.132599
v 1.005869 0.029165 0.170253
vn 0.937038 -0.284852 0.202037
f 1329/1/333 1330/2/333 1331/3/333 1332/4/333
v 1.034833 0.097742 0.132599
v 1.063797 0.175850 0.094945
v 1.049267 0.183156 0.099894
v 1.020568 0.105762 0.137202
vn 0.425806 0.259904 0.866683
f 1333/1/334 1334/2/334 1335/3/334 1336/4/334
v 1.020568 0.105762 0.137202
v 1.049267 0.183156 0.099894
v 1.035793 0.183156 0.089529
v 1.007094 0.105762 0.126837
vn -0.520933 0.519625 0.677213
f 1337/1/335 1338/2/335 1339/3/335 1340/4/335
v 1.007094 0.105762 0.126837
v 1.035793 0.183156 0.089529
v 1.036848 0.175850 0.074215
v 1.007884 0.097742 0.111869
vn -0.946910 0.259899 -0.189248
f 1341/1/336 1342/2/336 1343/3/336 1344/4/336
v 1.007884 0.097742 0.111869
v 1.036848 0.175850 0.074215
v 1.051378 0.168543 0.069267
v 1.022149 0.089721 0.107266
vn -0.425806 -0.259904 -0.866683
f 1345/1/337 1346/2/337 1347/3/337 1348/4/337
v 1.022149 0.089721 0.107266
v 1.051378 0.168543 0.069267
v 1.064853 0.168543 0.079632
v 1.035623 0.089721 0.117631
vn 0.520926 -0.519646 -0.677204
f 1349/1/338 1350/2/338 1351/3/338 1352/4/338
v 1.035623 0.089721 0.117631
v 1.064853 0.168543 0.079632
v 1.063797 0.175850 0.094945
v 1.034833 0.097742 0.132599
vn 0.946906 -0.259909 0.189253
f 1353/1/339 1354/2/339 1355/3/339 1356/4/339
v 1.063797 0.175850 0.094945
v 1.092762 0.264437 0.057292
v 1.078162 0.271541 0.062330
v 1.049267 0.183156 0.099894
vn 0.417632 0.236360 0.877336
f 1357/1/340 1358/2/340 1359/3/340 1360/4/340
v 1.049267 0.183156 0.099894
v 1.078162 0.271541 0.062330
v 1.064688 0.271541 0.051965
v 1.035793 0.183156 0.089529
vn -0.537340 0.472551 0.698542
f 1361/1/341 1362/2/341 1363/3/341 1364/4/341
v 1.035793 0.183156 0.089529
v 1.064688 0.271541 0.051965
v 1.065813 0.264437 0.036562
v 1.036848 0.175850 0.074215
vn -0.955114 0.236341 -0.178609
f 1365/1/342 1366/2/342 1367/3/342 1368/4/342
v 1.036848 0.175850 0.074215
v 1.065813 0.264437 0.036562
v 1.080412 0.257333 0.031523
v 1.051378 0.168543 0.069267
vn -0.417632 -0.236360 -0.877336
f 1369/1/343 1370/2/343 1371/3/343 1372/4/343
v 1.051378 0.168543 0.069267
v 1.080412 0.257333 0.031523
v 1.093887 0.257333 0.041888
v 1.064853 0.168543 0.079632
vn 0.537315 -0.472629 -0.698509
f 1373/1/344 1374/2/344 1375/3/344 1376/4/344
v 1.064853 0.168543 0.079632
v 1.093887 0.257333 0.041888
v 1.092762 0.264437 0.057292
v 1.063797 0.175850 0.094945
vn 0.955101 -0.236379 0.178626
f 1377/1/345 1378/2/345 1379/3/345 1380/4/345
v 1.092762 0.264437 0.057292
v 1.121726 0.348409 0.019638
v 1.107061 0.355315 0.024762
v 1.078162 0.271541 0.062330
vn 0.421071 0.246207 0.872973
f 1381/1/346 1382/2/346 1383/3/346 1384/4/346
v 1.078162 0.271541 0.062330
v 1.107061 0.355315 0.024762
v 1.093587 0.355315 0.014396
v 1.064688 0.271541 0.051965
vn -0.530663 0.492430 0.689862
f 1385/1/347 1386/2/347 1387/3/347 1388/4/347
v 1.064688 0.271541 0.051965
v 1.093587 0.355315 0.014396
v 1.094777 0.348409 -0.001092
v 1.065813 0.264437 0.036562
vn -0.951766 0.246227 -0.183069
f 1389/1/348 1390/2/348 1391/3/348 1392/4/348
v 1.065813 0.264437 0.036562
v 1.094777 0.348409 -0.001092
v 1.109442 0.341504 -0.006216
v 1.080412 0.257333 0.031523
vn -0.421071 -0.246207 -0.872973
f 1393/1/349 1394/2/349 1395/3/349 1396/4/349
v 1.080412 0.257333 0.031523
v 1.109442 0.341504 -0.006216
v 1.122917 0.341504 0.004150
v 1.093887 0.257333 0.041888
vn 0.530690 -0.492353 -0.689896
f 1397/1/350 1398/2/350 1399/3/350 1400/4/350
v 1.093887 0.257333 0.041888
v 1.122917 0.341504 0.004150
v 1.121726 0.348409 0.019638
v 1.092762 0.264437 0.057292
vn 0.951779 -0.246188 0.183052
f 1401/1/351 1402/2/351 1403/3/351 1404/4/351
v 1.121726 0.348409 0.019638
v 1.137216 0.438274 -0.044421
v 1.151482 0.437659 -0.035196
v 1.107061 0.355315 0.024762
vn 0.476813 0.454248 0.752534
f 1405/1/352 1406/2/352 1407/3/352 1408/4/352
v 1.107061 0.355315 0.024762
v 1.151482 0.437659 -0.035196
v 1.151482 0.443291 -0.019156
v 1.093587 0.355315 0.014396
vn -0.451833 0.671438 0.587382
f 1409/1/353 1410/2/353 1411/3/353 1412/4/353
v 1.093587 0.355315 0.014396
v 1.151482 0.443291 -0.019156
v 1.137216 0.449537 -0.012341
v 1.094777 0.348409 -0.001092
vn -0.848513 0.455986 -0.268518
f 1413/1/354 1414/2/354 1415/3/354 1416/4/354
v 1.094777 0.348409 -0.001092
v 1.137216 0.449537 -0.012341
v 1.122949 0.450151 -0.021565
v 1.109442 0.341504 -0.006216
vn -0.317912 0.028000 -0.947707
f 1417/1/355 1418/2/355 1419/3/355 1420/4/355
v 1.109442 0.341504 -0.006216
v 1.122949 0.450151 -0.021565
v 1.122949 0.444520 -0.037605
v 1.122917 0.341504 0.004150
vn 0.599237 -0.184555 -0.779008
f 1421/1/356 1422/2/356 1423/3/356 1424/4/356
v 1.122917 0.341504 0.004150
v 1.122949 0.444520 -0.037605
v 1.137216 0.438274 -0.044421
v 1.121726 0.348409 0.019638
vn 0.997542 0.026049 0.065053
f 1425/1/357 1426/2/357 1427/3/357 1428/4/357
v 1.137216 0.438274 -0.044421
v 1.166180 0.561702 -0.082597
v 1.180686 0.561167 -0.073748
v 1.151482 0.437659 -0.035196
vn 0.495417 -0.360674 -0.790238
f 1429/1/358 1430/2/358 1431/3/358 1432/4/358
v 1.151482 0.437659 -0.035196
v 1.180686 0.561167 -0.073748
v 1.180686 0.565000 -0.057186
v 1.151482 0.443291 -0.019156
vn 0.975432 -0.207863 0.072980
f 1433/1/359 1434/2/359 1435/3/359 1436/4/359
v 1.151482 0.443291 -0.019156
v 1.180686 0.565000 -0.057186
v 1.166180 0.569368 -0.049472
v 1.137216 0.449537 -0.012341
vn 0.480178 0.154577 0.863443
f 1437/1/360 1438/2/360 1439/3/360 1440/4/360
v 1.137216 0.449537 -0.012341
v 1.166180 0.569368 -0.049472
v 1.151674 0.569903 -0.058321
v 1.122949 0.450151 -0.021565
vn -0.494591 0.364090 0.789189
f 1441/1/361 1442/2/361 1443/3/361 1444/4/361
v 1.122949 0.450151 -0.021565
v 1.151674 0.569903 -0.058321
v 1.151674 0.566070 -0.074883
v 1.122949 0.444520 -0.037605
vn -0.974662 0.211051 -0.074099
f 1445/1/362 1446/2/362 1447/3/362 1448/4/362
v 1.122949 0.444520 -0.037605
v 1.151674 0.566070 -0.074883
v 1.166180 0.561702 -0.082597
v 1.137216 0.438274 -0.044421
vn -0.479402 -0.151796 -0.864368
f 1449/1/363 1450/2/363 1451/3/363 1452/4/363
v 1.166180 0.561702 -0.082597
v 1.195145 0.802359 -0.120482
v 1.209763 0.801954 -0.111814
v 1.180686 0.561167 -0.073748
vn 0.505739 -0.193225 -0.840769
f 1453/1/364 1454/2/364 1455/3/364 1456/4/364
v 1.180686 0.561167 -0.073748
v 1.209763 0.801954 -0.111814
v 1.209763 0.804595 -0.095020
v 1.180686 0.565000 -0.057186
vn 0.992927 -0.115672 0.026771
f 1457/1/365 1458/2/365 1459/3/365 1460/4/365
v 1.180686 0.565000 -0.057186
v 1.209763 0.804595 -0.095020
v 1.195145 0.807641 -0.086894
v 1.166180 0.569368 -0.049472
vn 0.486368 0.078391 0.870231
f 1461/1/366 1462/2/366 1463/3/366 1464/4/366
v 1.166180 0.569368 -0.049472
v 1.195145 0.807641 -0.086894
v 1.180526 0.808046 -0.095562
v 1.151674 0.569903 -0.058321
vn -0.505701 0.193514 0.840725
f 1465/1/367 1466/2/367 1467/3/367 1468/4/367
v 1.151674 0.569903 -0.058321
v 1.180526 0.808046 -0.095562
v 1.180526 0.805405 -0.112356
v 1.151674 0.566070 -0.074883
vn -0.992875 0.116088 -0.026868
f 1469/1/368 1470/2/368 1471/3/368 1472/4/368
v 1.151674 0.566070 -0.074883
v 1.180526 0.805405 -0.112356
v 1.195145 0.802359 -0.120482
v 1.166180 0.561702 -0.082597
vn -0.486225 -0.077663 -0.870375
f 1473/1/369 1474/2/369 1475/3/369 1476/4/369
v 1.195145 0.802359 -0.120482
v 1.195145 0.807641 -0.086894
v 1.209763 0.804595 -0.095020
v 1.209763 0.801954 -0.111814
vn 0.118642 0.980885 -0.154235
f 1477/1/370 1478/2/370 1479/3/370 1480/4/370
v 1.195145 0.802359 -0.120482
v 1.180526 0.805405 -0.112356
v 1.180526 0.808046 -0.095562
v 1.195145 0.807641 -0.086894
vn 0.118642 0.980885 -0.154235
f 1481/1/371 1482/2/371 1483/3/371 1484/4/371
