# Generated by scripts/gen_pole_light_mounts.py: placeholder geometry, replace with the final model.
mtllib pole_light_mount.mtl
o pole_light_mount_2_left
vt 0 0
vt 1 0
vt 1 1
vt 0 1
usemtl clamp
v 0.312500 0.125000 1.000000
v 0.687500 0.125000 1.000000
v 0.687500 0.875000 1.000000
v 0.312500 0.875000 1.000000
vn 0.000000 0.000000 1.000000
f 1/1/1 2/2/1 3/3/1 4/4/1
v 0.687500 0.125000 0.875000
v 0.312500 0.125000 0.875000
v 0.312500 0.875000 0.875000
v 0.687500 0.875000 0.875000
vn 0.000000 0.000000 -1.000000
f 5/1/2 6/2/2 7/3/2 8/4/2
v 0.687500 0.125000 1.000000
v 0.687500 0.125000 0.875000
v 0.687500 0.875000 0.875000
v 0.687500 0.875000 1.000000
vn 1.000000 -0.000000 0.000000
f 9/1/3 10/2/3 11/3/3 12/4/3
v 0.312500 0.125000 0.875000
v 0.312500 0.125000 1.000000
v 0.312500 0.875000 1.000000
v 0.312500 0.875000 0.875000
vn -1.000000 0.000000 0.000000
f 13/1/4 14/2/4 15/3/4 16/4/4
v 0.312500 0.875000 1.000000
v 0.687500 0.875000 1.000000
v 0.687500 0.875000 0.875000
v 0.312500 0.875000 0.875000
vn -0.000000 1.000000 0.000000
f 17/1/5 18/2/5 19/3/5 20/4/5
v 0.312500 0.125000 0.875000
v 0.687500 0.125000 0.875000
v 0.687500 0.125000 1.000000
v 0.312500 0.125000 1.000000
vn 0.000000 -1.000000 0.000000
f 21/1/6 22/2/6 23/3/6 24/4/6
usemtl metal
v 0.550000 0.400000 0.950000
v 0.548241 0.400000 0.886855
v 0.537484 0.432947 0.903081
v 0.535355 0.435355 0.950000
vn 0.923574 0.382557 -0.025724
f 25/1/7 26/2/7 27/3/7 28/4/7
v 0.535355 0.435355 0.950000
v 0.537484 0.432947 0.903081
v 0.504769 0.446593 0.917502
v 0.500000 0.450000 0.950000
vn 0.382511 0.923462 -0.030058
f 29/1/8 30/2/8 31/3/8 32/4/8
v 0.500000 0.450000 0.950000
v 0.504769 0.446593 0.917502
v 0.469260 0.432947 0.921670
v 0.464645 0.435355 0.950000
vn -0.378281 0.913252 -0.151240
f 33/1/9 34/2/9 35/3/9 36/4/9
v 0.464645 0.435355 0.950000
v 0.469260 0.432947 0.921670
v 0.451759 0.400000 0.913145
v 0.450000 0.400000 0.950000
vn -0.908777 0.376428 -0.180071
f 37/1/10 38/2/10 39/3/10 40/4/10
v 0.450000 0.400000 0.950000
v 0.451759 0.400000 0.913145
v 0.462516 0.367053 0.896919
v 0.464645 0.364645 0.950000
vn -0.922983 -0.382312 -0.044044
f 41/1/11 42/2/11 43/3/11 44/4/11
v 0.464645 0.364645 0.950000
v 0.462516 0.367053 0.896919
v 0.495231 0.353407 0.882498
v 0.500000 0.350000 0.950000
vn -0.382548 -0.923553 -0.026572
f 45/1/12 46/2/12 47/3/12 48/4/12
v 0.500000 0.350000 0.950000
v 0.495231 0.353407 0.882498
v 0.530740 0.367053 0.878330
v 0.535355 0.364645 0.950000
vn 0.381649 -0.921383 -0.073462
f 49/1/13 50/2/13 51/3/13 52/4/13
v 0.535355 0.364645 0.950000
v 0.530740 0.367053 0.878330
v 0.548241 0.400000 0.886855
v 0.550000 0.400000 0.950000
vn 0.921470 -0.381685 -0.072172
f 53/1/14 54/2/14 55/3/14 56/4/14
v 0.548241 0.400000 0.886855
v 0.490017 0.475039 0.800000
v 0.491137 0.502367 0.826765
v 0.537484 0.432947 0.903081
vn 0.881684 0.406153 -0.240153
f 57/1/15 58/2/15 59/3/15 60/4/15
v 0.537484 0.432947 0.903081
v 0.491137 0.502367 0.826765
v 0.467768 0.513687 0.854875
v 0.504769 0.446593 0.917502
vn 0.497235 0.770480 0.398896
f 61/1/16 62/2/16 63/3/16 64/4/16
v 0.504769 0.446593 0.917502
v 0.467768 0.513687 0.854875
v 0.433598 0.502367 0.867865
v 0.469260 0.432947 0.921670
vn -0.151931 0.628359 0.762943
f 65/1/17 66/2/17 67/3/17 68/4/17
v 0.469260 0.432947 0.921670
v 0.433598 0.502367 0.867865
v 0.408643 0.475039 0.858124
v 0.451759 0.400000 0.913145
vn -0.691007 0.186339 0.698418
f 69/1/18 70/2/18 71/3/18 72/4/18
v 0.451759 0.400000 0.913145
v 0.408643 0.475039 0.858124
v 0.407522 0.447710 0.831359
v 0.462516 0.367053 0.896919
vn -0.904398 -0.385439 0.183034
f 73/1/19 74/2/19 75/3/19 76/4/19
v 0.462516 0.367053 0.896919
v 0.407522 0.447710 0.831359
v 0.430892 0.436390 0.803249
v 0.495231 0.353407 0.882498
vn -0.507666 -0.724769 -0.465816
f 77/1/20 78/2/20 79/3/20 80/4/20
v 0.495231 0.353407 0.882498
v 0.430892 0.436390 0.803249
v 0.465062 0.447710 0.790259
v 0.530740 0.367053 0.878330
vn 0.148103 -0.620565 -0.770042
f 81/1/21 82/2/21 83/3/21 84/4/21
v 0.530740 0.367053 0.878330
v 0.465062 0.447710 0.790259
v 0.490017 0.475039 0.800000
v 0.548241 0.400000 0.886855
vn 0.695537 -0.190183 -0.692863
f 85/1/22 86/2/22 87/3/22 88/4/22
v 0.490017 0.475039 0.800000
v 0.439347 0.543238 0.729062
v 0.439679 0.571626 0.754722
v 0.491137 0.502367 0.826765
vn 0.888847 0.301479 -0.345053
f 89/1/23 90/2/23 91/3/23 92/4/23
v 0.491137 0.502367 0.826765
v 0.439679 0.571626 0.754722
v 0.415983 0.583385 0.782376
v 0.467768 0.513687 0.854875
vn 0.642213 0.727702 0.240859
f 93/1/24 94/2/24 95/3/24 96/4/24
v 0.467768 0.513687 0.854875
v 0.415983 0.583385 0.782376
v 0.382139 0.571626 0.795822
v 0.433598 0.502367 0.867865
vn 0.019552 0.727705 0.685611
f 97/1/25 98/2/25 99/3/25 100/4/25
v 0.433598 0.502367 0.867865
v 0.382139 0.571626 0.795822
v 0.357973 0.543238 0.787186
v 0.408643 0.475039 0.858124
vn -0.614678 0.301483 0.728889
f 101/1/26 102/2/26 103/3/26 104/4/26
v 0.408643 0.475039 0.858124
v 0.357973 0.543238 0.787186
v 0.357641 0.514849 0.761525
v 0.407522 0.447710 0.831359
vn -0.888847 -0.301479 0.345053
f 105/1/27 106/2/27 107/3/27 108/4/27
v 0.407522 0.447710 0.831359
v 0.357641 0.514849 0.761525
v 0.381337 0.503091 0.733872
v 0.430892 0.436390 0.803249
vn -0.642225 -0.727685 -0.240876
f 109/1/28 110/2/28 111/3/28 112/4/28
v 0.430892 0.436390 0.803249
v 0.381337 0.503091 0.733872
v 0.415181 0.514849 0.720425
v 0.465062 0.447710 0.790259
vn -0.019569 -0.727682 -0.685636
f 113/1/29 114/2/29 115/3/29 116/4/29
v 0.465062 0.447710 0.790259
v 0.415181 0.514849 0.720425
v 0.439347 0.543238 0.729062
v 0.490017 0.475039 0.800000
vn 0.614674 -0.301476 -0.728896
f 117/1/30 118/2/30 119/3/30 120/4/30
v 0.439347 0.543238 0.729062
v 0.388676 0.604597 0.658124
v 0.388126 0.634052 0.682549
v 0.439679 0.571626 0.754722
vn 0.879817 0.313024 -0.357685
f 121/1/31 122/2/31 123/3/31 124/4/31
v 0.439679 0.571626 0.754722
v 0.388126 0.634052 0.682549
v 0.364064 0.646252 0.709690
v 0.415983 0.583385 0.782376
vn 0.620405 0.755545 0.210353
f 125/1/32 126/2/32 127/3/32 128/4/32
v 0.415983 0.583385 0.782376
v 0.364064 0.646252 0.709690
v 0.330586 0.634052 0.723649
v 0.382139 0.571626 0.795822
vn -0.002232 0.755549 0.655088
f 129/1/33 130/2/33 131/3/33 132/4/33
v 0.382139 0.571626 0.795822
v 0.330586 0.634052 0.723649
v 0.307303 0.604597 0.716248
v 0.357973 0.543238 0.787186
vn -0.623699 0.313028 0.716249
f 133/1/34 134/2/34 135/3/34 136/4/34
v 0.357973 0.543238 0.787186
v 0.307303 0.604597 0.716248
v 0.307854 0.575142 0.691823
v 0.357641 0.514849 0.761525
vn -0.879817 -0.313024 0.357685
f 137/1/35 138/2/35 139/3/35 140/4/35
v 0.357641 0.514849 0.761525
v 0.307854 0.575142 0.691823
v 0.331915 0.562941 0.664681
v 0.381337 0.503091 0.733872
vn -0.620420 -0.755527 -0.210374
f 141/1/36 142/2/36 143/3/36 144/4/36
v 0.381337 0.503091 0.733872
v 0.331915 0.562941 0.664681
v 0.365393 0.575142 0.650723
v 0.415181 0.514849 0.720425
vn 0.002212 -0.755524 -0.655118
f 145/1/37 146/2/37 147/3/37 148/4/37
v 0.415181 0.514849 0.720425
v 0.365393 0.575142 0.650723
v 0.388676 0.604597 0.658124
v 0.439347 0.543238 0.729062
vn 0.623693 -0.313020 -0.716258
f 149/1/38 150/2/38 151/3/38 152/4/38
v 0.388676 0.604597 0.658124
v 0.338006 0.659116 0.587186
v 0.336473 0.689627 0.610234
v 0.388126 0.634052 0.682549
vn 0.869730 0.324560 -0.371795
f 153/1/39 154/2/39 155/3/39 156/4/39
v 0.388126 0.634052 0.682549
v 0.336473 0.689627 0.610234
v 0.312004 0.702265 0.636805
v 0.364064 0.646252 0.709690
vn 0.596046 0.783361 0.176280
f 157/1/40 158/2/40 159/3/40 160/4/40
v 0.364064 0.646252 0.709690
v 0.312004 0.702265 0.636805
v 0.278933 0.689627 0.651334
v 0.330586 0.634052 0.723649
vn -0.026565 0.783365 0.620995
f 161/1/41 162/2/41 163/3/41 164/4/41
v 0.330586 0.634052 0.723649
v 0.278933 0.689627 0.651334
v 0.256633 0.659116 0.645310
v 0.307303 0.604597 0.716248
vn -0.633776 0.324564 0.702130
f 165/1/42 166/2/42 167/3/42 168/4/42
v 0.307303 0.604597 0.716248
v 0.256633 0.659116 0.645310
v 0.258167 0.628606 0.622261
v 0.307854 0.575142 0.691823
vn -0.869730 -0.324560 0.371795
f 169/1/43 170/2/43 171/3/43 172/4/43
v 0.307854 0.575142 0.691823
v 0.258167 0.628606 0.622261
v 0.282636 0.615968 0.595690
v 0.331915 0.562941 0.664681
vn -0.596064 -0.783342 -0.176304
f 173/1/44 174/2/44 175/3/44 176/4/44
v 0.331915 0.562941 0.664681
v 0.282636 0.615968 0.595690
v 0.315706 0.628606 0.581161
v 0.365393 0.575142 0.650723
vn 0.026540 -0.783338 -0.621029
f 177/1/45 178/2/45 179/3/45 180/4/45
v 0.365393 0.575142 0.650723
v 0.315706 0.628606 0.581161
v 0.338006 0.659116 0.587186
v 0.388676 0.604597 0.658124
vn 0.633769 -0.324556 -0.702140
f 181/1/46 182/2/46 183/3/46 184/4/46
v 0.338006 0.659116 0.587186
v 0.287336 0.706796 0.516248
v 0.284713 0.738329 0.537771
v 0.336473 0.689627 0.610234
vn 0.858518 0.335869 -0.387478
f 185/1/47 186/2/47 187/3/47 188/4/47
v 0.336473 0.689627 0.610234
v 0.284713 0.738329 0.537771
v 0.259793 0.751390 0.563711
v 0.312004 0.702265 0.636805
vn 0.568974 0.810624 0.138410
f 189/1/48 190/2/48 191/3/48 192/4/48
v 0.312004 0.702265 0.636805
v 0.259793 0.751390 0.563711
v 0.227174 0.738329 0.578871
v 0.278933 0.689627 0.651334
vn -0.053608 0.810628 0.583103
f 193/1/49 194/2/49 195/3/49 196/4/49
v 0.278933 0.689627 0.651334
v 0.227174 0.738329 0.578871
v 0.205963 0.706796 0.574371
v 0.256633 0.659116 0.645310
vn -0.644976 0.335873 0.686437
f 197/1/50 198/2/50 199/3/50 200/4/50
v 0.256633 0.659116 0.645310
v 0.205963 0.706796 0.574371
v 0.208586 0.675263 0.552848
v 0.258167 0.628606 0.622261
vn -0.858518 -0.335869 0.387478
f 201/1/51 202/2/51 203/3/51 204/4/51
v 0.258167 0.628606 0.622261
v 0.208586 0.675263 0.552848
v 0.233506 0.662202 0.526908
v 0.282636 0.615968 0.595690
vn -0.568994 -0.810605 -0.138438
f 205/1/52 206/2/52 207/3/52 208/4/52
v 0.282636 0.615968 0.595690
v 0.233506 0.662202 0.526908
v 0.266126 0.675263 0.511748
v 0.315706 0.628606 0.581161
vn 0.053580 -0.810601 -0.583143
f 209/1/53 210/2/53 211/3/53 212/4/53
v 0.315706 0.628606 0.581161
v 0.266126 0.675263 0.511748
v 0.287336 0.706796 0.516248
v 0.338006 0.659116 0.587186
vn 0.644968 -0.335865 -0.686449
f 213/1/54 214/2/54 215/3/54 216/4/54
v 0.287336 0.706796 0.516248
v 0.236666 0.747636 0.445310
v 0.232846 0.780131 0.465157
v 0.284713 0.738329 0.537771
vn 0.846139 0.346684 -0.404794
f 217/1/55 218/2/55 219/3/55 220/4/55
v 0.284713 0.738329 0.537771
v 0.232846 0.780131 0.465157
v 0.207430 0.793591 0.490403
v 0.259793 0.751390 0.563711
vn 0.539088 0.836691 0.096604
f 221/1/56 222/2/56 223/3/56 224/4/56
v 0.259793 0.751390 0.563711
v 0.207430 0.793591 0.490403
v 0.175307 0.780131 0.506257
v 0.227174 0.738329 0.578871
vn -0.083462 0.836694 0.541273
f 225/1/57 226/2/57 227/3/57 228/4/57
v 0.227174 0.738329 0.578871
v 0.175307 0.780131 0.506257
v 0.155293 0.747636 0.503433
v 0.205963 0.706796 0.574371
vn -0.657341 0.346688 0.669111
f 229/1/58 230/2/58 231/3/58 232/4/58
v 0.205963 0.706796 0.574371
v 0.155293 0.747636 0.503433
v 0.159113 0.715141 0.483586
v 0.208586 0.675263 0.552848
vn -0.846139 -0.346684 0.404794
f 233/1/59 234/2/59 235/3/59 236/4/59
v 0.208586 0.675263 0.552848
v 0.159113 0.715141 0.483586
v 0.184529 0.701681 0.458340
v 0.233506 0.662202 0.526908
vn -0.539111 -0.836673 -0.096635
f 237/1/60 238/2/60 239/3/60 240/4/60
v 0.233506 0.662202 0.526908
v 0.184529 0.701681 0.458340
v 0.216653 0.715141 0.442486
v 0.266126 0.675263 0.511748
vn 0.083431 -0.836669 -0.541318
f 241/1/61 242/2/61 243/3/61 244/4/61
v 0.266126 0.675263 0.511748
v 0.216653 0.715141 0.442486
v 0.236666 0.747636 0.445310
v 0.287336 0.706796 0.516248
vn 0.657332 -0.346680 -0.669124
f 245/1/62 246/2/62 247/3/62 248/4/62
v 0.236666 0.747636 0.445310
v 0.185996 0.781637 0.374371
v 0.180873 0.815004 0.392395
v 0.232846 0.780131 0.465157
vn 0.832592 0.356693 -0.423746
f 249/1/63 250/2/63 251/3/63 252/4/63
v 0.232846 0.780131 0.465157
v 0.180873 0.815004 0.392395
v 0.154918 0.828825 0.416885
v 0.207430 0.793591 0.490403
vn 0.506384 0.860808 0.050852
f 253/1/64 254/2/64 255/3/64 256/4/64
v 0.207430 0.793591 0.490403
v 0.154918 0.828825 0.416885
v 0.123334 0.815004 0.433495
v 0.175307 0.780131 0.506257
vn -0.116133 0.860811 0.495498
f 257/1/65 258/2/65 259/3/65 260/4/65
v 0.175307 0.780131 0.506257
v 0.123334 0.815004 0.433495
v 0.104623 0.781637 0.432495
v 0.155293 0.747636 0.503433
vn -0.670875 0.356697 0.650149
f 261/1/66 262/2/66 263/3/66 264/4/66
v 0.155293 0.747636 0.503433
v 0.104623 0.781637 0.432495
v 0.109746 0.748269 0.414472
v 0.159113 0.715141 0.483586
vn -0.832592 -0.356693 0.423746
f 265/1/67 266/2/67 267/3/67 268/4/67
v 0.159113 0.715141 0.483586
v 0.109746 0.748269 0.414472
v 0.135701 0.734448 0.389982
v 0.184529 0.701681 0.458340
vn -0.506407 -0.860792 -0.050884
f 269/1/68 270/2/68 271/3/68 272/4/68
v 0.184529 0.701681 0.458340
v 0.135701 0.734448 0.389982
v 0.167285 0.748269 0.373372
v 0.216653 0.715141 0.442486
vn 0.116101 -0.860788 -0.495544
f 273/1/69 274/2/69 275/3/69 276/4/69
v 0.216653 0.715141 0.442486
v 0.167285 0.748269 0.373372
v 0.185996 0.781637 0.374371
v 0.236666 0.747636 0.445310
vn 0.670866 -0.356690 -0.650162
f 277/1/70 278/2/70 279/3/70 280/4/70
v 0.185996 0.781637 0.374371
v 0.135326 0.808797 0.303433
v 0.128802 0.842914 0.319495
v 0.180873 0.815004 0.392395
vn 0.817923 0.365551 -0.444269
f 281/1/71 282/2/71 283/3/71 284/4/71
v 0.180873 0.815004 0.392395
v 0.128802 0.842914 0.319495
v 0.102266 0.857045 0.343172
v 0.154918 0.828825 0.416885
vn 0.470977 0.882145 0.001317
f 285/1/72 286/2/72 287/3/72 288/4/72
v 0.154918 0.828825 0.416885
v 0.102266 0.857045 0.343172
v 0.071262 0.842914 0.360595
v 0.123334 0.815004 0.433495
vn -0.151507 0.882147 0.445940
f 289/1/73 290/2/73 291/3/73 292/4/73
v 0.123334 0.815004 0.433495
v 0.071262 0.842914 0.360595
v 0.053953 0.808797 0.361557
v 0.104623 0.781637 0.432495
vn -0.685531 0.365554 0.629617
f 293/1/74 294/2/74 295/3/74 296/4/74
v 0.104623 0.781637 0.432495
v 0.053953 0.808797 0.361557
v 0.060477 0.774681 0.345496
v 0.109746 0.748269 0.414472
vn -0.817923 -0.365551 0.444269
f 297/1/75 298/2/75 299/3/75 300/4/75
v 0.109746 0.748269 0.414472
v 0.060477 0.774681 0.345496
v 0.087013 0.760550 0.321819
v 0.135701 0.734448 0.389982
vn -0.471000 -0.882132 -0.001348
f 301/1/76 302/2/76 303/3/76 304/4/76
v 0.135701 0.734448 0.389982
v 0.087013 0.760550 0.321819
v 0.118017 0.774681 0.304396
v 0.167285 0.748269 0.373372
vn 0.151476 -0.882130 -0.445985
f 305/1/77 306/2/77 307/3/77 308/4/77
v 0.167285 0.748269 0.373372
v 0.118017 0.774681 0.304396
v 0.135326 0.808797 0.303433
v 0.185996 0.781637 0.374371
vn 0.685522 -0.365549 -0.629630
f 309/1/78 310/2/78 311/3/78 312/4/78
v 0.135326 0.808797 0.303433
v 0.084656 0.829118 0.232495
v 0.076645 0.863829 0.246475
v 0.128802 0.842914 0.319495
vn 0.802242 0.372904 -0.466208
f 313/1/79 314/2/79 315/3/79 316/4/79
v 0.128802 0.842914 0.319495
v 0.076645 0.863829 0.246475
v 0.049493 0.878207 0.269290
v 0.102266 0.857045 0.343172
vn 0.433134 0.899850 -0.051631
f 317/1/80 318/2/80 319/3/80 320/4/80
v 0.102266 0.857045 0.343172
v 0.049493 0.878207 0.269290
v 0.019105 0.863829 0.287575
v 0.071262 0.842914 0.360595
vn -0.189320 0.899851 0.392971
f 321/1/81 322/2/81 323/3/81 324/4/81
v 0.071262 0.842914 0.360595
v 0.019105 0.863829 0.287575
v 0.003283 0.829118 0.290619
v 0.053953 0.808797 0.361557
vn -0.701198 0.372906 0.607670
f 325/1/82 326/2/82 327/3/82 328/4/82
v 0.053953 0.808797 0.361557
v 0.003283 0.829118 0.290619
v 0.011294 0.794407 0.276639
v 0.060477 0.774681 0.345496
vn -0.802242 -0.372904 0.466208
f 329/1/83 330/2/83 331/3/83 332/4/83
v 0.060477 0.774681 0.345496
v 0.011294 0.794407 0.276639
v 0.038446 0.780030 0.253824
v 0.087013 0.760550 0.321819
vn -0.433154 -0.899841 0.051604
f 333/1/84 334/2/84 335/3/84 336/4/84
v 0.087013 0.760550 0.321819
v 0.038446 0.780030 0.253824
v 0.068834 0.794407 0.235539
v 0.118017 0.774681 0.304396
vn 0.189292 -0.899840 -0.393010
f 337/1/85 338/2/85 339/3/85 340/4/85
v 0.118017 0.774681 0.304396
v 0.068834 0.794407 0.235539
v 0.084656 0.829118 0.232495
v 0.135326 0.808797 0.303433
vn 0.701190 -0.372902 -0.607681
f 341/1/86 342/2/86 343/3/86 344/4/86
v 0.084656 0.829118 0.232495
v 0.033986 0.842600 0.161557
v 0.024422 0.877722 0.173363
v 0.076645 0.863829 0.246475
vn 0.785727 0.378419 -0.489318
f 345/1/87 346/2/87 347/3/87 348/4/87
v 0.076645 0.863829 0.246475
v 0.024422 0.877722 0.173363
v -0.003374 0.892271 0.195277
v 0.049493 0.878207 0.269290
vn 0.393282 0.913124 -0.107398
f 349/1/88 350/2/88 351/3/88 352/4/88
v 0.049493 0.878207 0.269290
v -0.003374 0.892271 0.195277
v -0.033118 0.877722 0.214463
v 0.019105 0.863829 0.287575
vn -0.229146 0.913125 0.337187
f 353/1/89 354/2/89 355/3/89 356/4/89
v 0.019105 0.863829 0.287575
v -0.033118 0.877722 0.214463
v -0.047387 0.842600 0.219681
v 0.003283 0.829118 0.290619
vn -0.717702 0.378420 0.584554
f 357/1/90 358/2/90 359/3/90 360/4/90
v 0.003283 0.829118 0.290619
v -0.047387 0.842600 0.219681
v -0.037823 0.807477 0.207875
v 0.011294 0.794407 0.276639
vn -0.785727 -0.378419 0.489318
f 361/1/91 362/2/91 363/3/91 364/4/91
v 0.011294 0.794407 0.276639
v -0.037823 0.807477 0.207875
v -0.010028 0.792928 0.185961
v 0.038446 0.780030 0.253824
vn -0.393296 -0.913120 0.107377
f 365/1/92 366/2/92 367/3/92 368/4/92
v 0.038446 0.780030 0.253824
v -0.010028 0.792928 0.185961
v 0.019717 0.807477 0.166776
v 0.068834 0.794407 0.235539
vn 0.229126 -0.913119 -0.337217
f 369/1/93 370/2/93 371/3/93 372/4/93
v 0.068834 0.794407 0.235539
v 0.019717 0.807477 0.166776
v 0.033986 0.842600 0.161557
v 0.084656 0.829118 0.232495
vn 0.717696 -0.378418 -0.584562
f 373/1/94 374/2/94 375/3/94 376/4/94
v 0.033986 0.842600 0.161557
v -0.016684 0.849241 0.090619
v -0.027730 0.884565 0.100350
v 0.024422 0.877722 0.173363
vn 0.768617 0.381822 -0.513264
f 377/1/95 378/2/95 379/3/95 380/4/95
v 0.024422 0.877722 0.173363
v -0.027730 0.884565 0.100350
v -0.056140 0.899196 0.121404
v -0.003374 0.892271 0.195277
vn 0.352040 0.921305 -0.165118
f 381/1/96 382/2/96 383/3/96 384/4/96
v -0.003374 0.892271 0.195277
v -0.056140 0.899196 0.121404
v -0.085270 0.884565 0.141450
v -0.033118 0.877722 0.214463
vn -0.270353 0.921303 0.279480
f 385/1/97 386/2/97 387/3/97 388/4/97
v -0.033118 0.877722 0.214463
v -0.085270 0.884565 0.141450
v -0.098057 0.849241 0.148743
v -0.047387 0.842600 0.219681
vn -0.734786 0.381819 0.560629
f 389/1/98 390/2/98 391/3/98 392/4/98
v -0.047387 0.842600 0.219681
v -0.098057 0.849241 0.148743
v -0.087011 0.813918 0.139012
v -0.037823 0.807477 0.207875
vn -0.768617 -0.381822 0.513264
f 393/1/99 394/2/99 395/3/99 396/4/99
v -0.037823 0.807477 0.207875
v -0.087011 0.813918 0.139012
v -0.058602 0.799286 0.117958
v -0.010028 0.792928 0.185961
vn -0.351960 -0.921317 0.165227
f 397/1/100 398/2/100 399/3/100 400/4/100
v -0.010028 0.792928 0.185961
v -0.058602 0.799286 0.117958
v -0.029471 0.813918 0.097912
v 0.019717 0.807477 0.166776
vn 0.270463 -0.921319 -0.279323
f 401/1/101 402/2/101 403/3/101 404/4/101
v 0.019717 0.807477 0.166776
v -0.029471 0.813918 0.097912
v -0.016684 0.849241 0.090619
v 0.033986 0.842600 0.161557
vn 0.734818 -0.381825 -0.560583
f 405/1/102 406/2/102 407/3/102 408/4/102
v -0.016684 0.849241 0.090619
v -0.067354 0.850000 0.019681
v -0.079182 0.885355 0.028318
v -0.027730 0.884565 0.100350
vn 0.753666 0.382854 -0.534238
f 409/1/103 410/2/103 411/3/103 412/4/103
v -0.027730 0.884565 0.100350
v -0.079182 0.885355 0.028318
v -0.107914 0.900000 0.048920
v -0.056140 0.899196 0.121404
vn 0.316047 0.923918 -0.215613
f 413/1/104 414/2/104 415/3/104 416/4/104
v -0.056140 0.899196 0.121404
v -0.107914 0.900000 0.048920
v -0.136721 0.885355 0.069418
v -0.085270 0.884565 0.141450
vn -0.306412 0.923917 0.229104
f 417/1/105 418/2/105 419/3/105 420/4/105
v -0.085270 0.884565 0.141450
v -0.136721 0.885355 0.069418
v -0.148727 0.850000 0.077805
v -0.098057 0.849241 0.148743
vn -0.749744 0.382851 0.539731
f 421/1/106 422/2/106 423/3/106 424/4/106
v -0.098057 0.849241 0.148743
v -0.148727 0.850000 0.077805
v -0.136900 0.814645 0.069168
v -0.087011 0.813918 0.139012
vn -0.753666 -0.382854 0.534238
f 425/1/107 426/2/107 427/3/107 428/4/107
v -0.087011 0.813918 0.139012
v -0.136900 0.814645 0.069168
v -0.108167 0.800000 0.048566
v -0.058602 0.799286 0.117958
vn -0.315801 -0.923924 0.215950
f 429/1/108 430/2/108 431/3/108 432/4/108
v -0.058602 0.799286 0.117958
v -0.108167 0.800000 0.048566
v -0.079360 0.814645 0.028068
v -0.029471 0.813918 0.097912
vn 0.306750 -0.923925 -0.228619
f 433/1/109 434/2/109 435/3/109 436/4/109
v -0.029471 0.813918 0.097912
v -0.079360 0.814645 0.028068
v -0.067354 0.850000 0.019681
v -0.016684 0.849241 0.090619
vn 0.749843 -0.382857 -0.539589
f 437/1/110 438/2/110 439/3/110 440/4/110
v -0.067354 0.850000 0.019681
v -0.118024 0.850000 -0.051257
v -0.129941 0.885355 -0.042745
v -0.079182 0.885355 0.028318
vn 0.751791 0.382687 -0.536993
f 441/1/111 442/2/111 443/3/111 444/4/111
v -0.079182 0.885355 0.028318
v -0.129941 0.885355 -0.042745
v -0.158711 0.900000 -0.022195
v -0.107914 0.900000 0.048920
vn 0.311402 0.923881 -0.222426
f 445/1/112 446/2/112 447/3/112 448/4/112
v -0.107914 0.900000 0.048920
v -0.158711 0.900000 -0.022195
v -0.187481 0.885355 -0.001645
v -0.136721 0.885355 0.069418
vn -0.311397 0.923881 0.222433
f 449/1/113 450/2/113 451/3/113 452/4/113
v -0.136721 0.885355 0.069418
v -0.187481 0.885355 -0.001645
v -0.199398 0.850000 0.006867
v -0.148727 0.850000 0.077805
vn -0.751790 0.382687 0.536995
f 453/1/114 454/2/114 455/3/114 456/4/114
v -0.148727 0.850000 0.077805
v -0.199398 0.850000 0.006867
v -0.187481 0.814645 -0.001645
v -0.136900 0.814645 0.069168
vn -0.751791 -0.382687 0.536993
f 457/1/115 458/2/115 459/3/115 460/4/115
v -0.136900 0.814645 0.069168
v -0.187481 0.814645 -0.001645
v -0.158711 0.800000 -0.022195
v -0.108167 0.800000 0.048566
vn -0.311398 -0.923881 0.222431
f 461/1/116 462/2/116 463/3/116 464/4/116
v -0.108167 0.800000 0.048566
v -0.158711 0.800000 -0.022195
v -0.129941 0.814645 -0.042745
v -0.079360 0.814645 0.028068
vn 0.311403 -0.923881 -0.222424
f 465/1/117 466/2/117 467/3/117 468/4/117
v -0.079360 0.814645 0.028068
v -0.129941 0.814645 -0.042745
v -0.118024 0.850000 -0.051257
v -0.067354 0.850000 0.019681
vn 0.751792 -0.382687 -0.536992
f 469/1/118 470/2/118 471/3/118 472/4/118
v -0.118024 0.850000 -0.051257
v -0.168694 0.850000 -0.122195
v -0.180611 0.885355 -0.113683
v -0.129941 0.885355 -0.042745
vn 0.751792 0.382683 -0.536994
f 473/1/119 474/2/119 475/3/119 476/4/119
v -0.129941 0.885355 -0.042745
v -0.180611 0.885355 -0.113683
v -0.209381 0.900000 -0.093133
v -0.158711 0.900000 -0.022195
vn 0.311402 0.923880 -0.222430
f 477/1/120 478/2/120 479/3/120 480/4/120
v -0.158711 0.900000 -0.022195
v -0.209381 0.900000 -0.093133
v -0.238151 0.885355 -0.072583
v -0.187481 0.885355 -0.001645
vn -0.311402 0.923880 0.222430
f 481/1/121 482/2/121 483/3/121 484/4/121
v -0.187481 0.885355 -0.001645
v -0.238151 0.885355 -0.072583
v -0.250068 0.850000 -0.064071
v -0.199398 0.850000 0.006867
vn -0.751792 0.382683 0.536994
f 485/1/122 486/2/122 487/3/122 488/4/122
v -0.199398 0.850000 0.006867
v -0.250068 0.850000 -0.064071
v -0.238151 0.814645 -0.072583
v -0.187481 0.814645 -0.001645
vn -0.751792 -0.382683 0.536994
f 489/1/123 490/2/123 491/3/123 492/4/123
v -0.187481 0.814645 -0.001645
v -0.238151 0.814645 -0.072583
v -0.209381 0.800000 -0.093133
v -0.158711 0.800000 -0.022195
vn -0.311402 -0.923880 0.222430
f 493/1/124 494/2/124 495/3/124 496/4/124
v -0.158711 0.800000 -0.022195
v -0.209381 0.800000 -0.093133
v -0.180611 0.814645 -0.113683
v -0.129941 0.814645 -0.042745
vn 0.311402 -0.923880 -0.222430
f 497/1/125 498/2/125 499/3/125 500/4/125
v -0.129941 0.814645 -0.042745
v -0.180611 0.814645 -0.113683
v -0.168694 0.850000 -0.122195
v -0.118024 0.850000 -0.051257
vn 0.751792 -0.382683 -0.536994
f 501/1/126 502/2/126 503/3/126 504/4/126
v -0.168694 0.850000 -0.122195
v -0.238151 0.885355 -0.072583
v -0.209381 0.900000 -0.093133
v -0.180611 0.885355 -0.113683
vn -0.581238 -0.000000 -0.813733
f 505/1/127 506/2/127 507/3/127 508/4/127
v -0.168694 0.850000 -0.122195
v -0.238151 0.814645 -0.072583
v -0.250068 0.850000 -0.064071
v -0.238151 0.885355 -0.072583
vn -0.581238 -0.000000 -0.813733
f 509/1/128 510/2/128 511/3/128 512/4/128
v -0.168694 0.850000 -0.122195
v -0.180611 0.814645 -0.113683
v -0.209381 0.800000 -0.093133
v -0.238151 0.814645 -0.072583
vn -0.581238 0.000000 -0.813733
f 513/1/129 514/2/129 515/3/129 516/4/129
v 0.525011 0.160000 0.933433
v 0.068980 0.829118 0.244990
v 0.069030 0.845600 0.260976
v 0.525060 0.176482 0.949419
vn 0.903270 0.297328 -0.309352
f 517/1/130 518/2/130 519/3/130 520/4/130
v 0.525060 0.176482 0.949419
v 0.069030 0.845600 0.260976
v 0.054399 0.852427 0.277303
v 0.510430 0.183309 0.965746
vn 0.640238 0.717814 0.273565
f 521/1/131 522/2/131 523/3/131 524/4/131
v 0.510430 0.183309 0.965746
v 0.054399 0.852427 0.277303
v 0.033659 0.845600 0.284406
v 0.489690 0.176482 0.972849
vn 0.002164 0.717814 0.696232
f 525/1/132 526/2/132 527/3/132 528/4/132
v 0.489690 0.176482 0.972849
v 0.033659 0.845600 0.284406
v 0.018959 0.829118 0.278124
v 0.474989 0.160000 0.966567
vn -0.637179 0.297328 0.711055
f 529/1/133 530/2/133 531/3/133 532/4/133
v 0.474989 0.160000 0.966567
v 0.018959 0.829118 0.278124
v 0.018909 0.812637 0.262138
v 0.474940 0.143518 0.950581
vn -0.903270 -0.297328 0.309352
f 533/1/134 534/2/134 535/3/134 536/4/134
v 0.474940 0.143518 0.950581
v 0.018909 0.812637 0.262138
v 0.033539 0.805810 0.245812
v 0.489570 0.136691 0.934254
vn -0.640238 -0.717814 -0.273565
f 537/1/135 538/2/135 539/3/135 540/4/135
v 0.489570 0.136691 0.934254
v 0.033539 0.805810 0.245812
v 0.054279 0.812637 0.238709
v 0.510310 0.143518 0.927151
vn -0.002164 -0.717814 -0.696232
f 541/1/136 542/2/136 543/3/136 544/4/136
v 0.510310 0.143518 0.927151
v 0.054279 0.812637 0.238709
v 0.068980 0.829118 0.244990
v 0.525011 0.160000 0.933433
vn 0.637179 -0.297328 -0.711055
f 545/1/137 546/2/137 547/3/137 548/4/137
v 0.068980 0.829118 0.244990
v 0.033659 0.845600 0.284406
v 0.054399 0.852427 0.277303
v 0.069030 0.845600 0.260976
vn -0.429066 0.629555 -0.647737
f 549/1/138 550/2/138 551/3/138 552/4/138
v 0.068980 0.829118 0.244990
v 0.018909 0.812637 0.262138
v 0.018959 0.829118 0.278124
v 0.033659 0.845600 0.284406
vn -0.429066 0.629555 -0.647737
f 553/1/139 554/2/139 555/3/139 556/4/139
v 0.068980 0.829118 0.244990
v 0.054279 0.812637 0.238709
v 0.033539 0.805810 0.245812
v 0.018909 0.812637 0.262138
vn -0.429066 0.629555 -0.647737
f 557/1/140 558/2/140 559/3/140 560/4/140
