# Generated by scripts/gen_crossarms.py
mtllib crossarm.mtl
o crossarm_brooks_brown_r
vt 0 0
vt 1 0
vt 1 1
vt 0 1
usemtl brooks_brown
v 0.031250 0.625000 1.000000
v 1.000000 0.625000 1.000000
v 1.000000 1.000000 1.000000
v 0.031250 1.000000 1.000000
vn 0.000000 0.000000 1.000000
f 1/1/1 2/2/1 3/3/1 4/4/1
v 1.000000 0.625000 0.625000
v 0.031250 0.625000 0.625000
v 0.031250 1.000000 0.625000
v 1.000000 1.000000 0.625000
vn 0.000000 0.000000 -1.000000
f 5/1/2 6/2/2 7/3/2 8/4/2
v 1.000000 0.625000 1.000000
v 1.000000 0.625000 0.625000
v 1.000000 1.000000 0.625000
v 1.000000 1.000000 1.000000
vn 1.000000 -0.000000 0.000000
f 9/1/3 10/2/3 11/3/3 12/4/3
v 0.031250 0.625000 0.625000
v 0.031250 0.625000 1.000000
v 0.031250 1.000000 1.000000
v 0.031250 1.000000 0.625000
vn -1.000000 0.000000 0.000000
f 13/1/4 14/2/4 15/3/4 16/4/4
v 0.031250 1.000000 1.000000
v 1.000000 1.000000 1.000000
v 1.000000 1.000000 0.625000
v 0.031250 1.000000 0.625000
vn -0.000000 1.000000 0.000000
f 17/1/5 18/2/5 19/3/5 20/4/5
v 0.031250 0.625000 0.625000
v 1.000000 0.625000 0.625000
v 1.000000 0.625000 1.000000
v 0.031250 0.625000 1.000000
vn 0.000000 -1.000000 0.000000
f 21/1/6 22/2/6 23/3/6 24/4/6
