# Generated by scripts/gen_crossarms.py
mtllib crossarm.mtl
o crossarm_brooks_brown_lpih
vt 0 0
vt 1 0
vt 1 1
vt 0 1
usemtl brooks_brown
v 0.000000 0.625000 1.000000
v 0.968750 0.625000 1.000000
v 0.968750 1.000000 1.000000
v 0.000000 1.000000 1.000000
vn 0.000000 0.000000 1.000000
f 1/1/1 2/2/1 3/3/1 4/4/1
v 0.968750 0.625000 0.625000
v 0.000000 0.625000 0.625000
v 0.000000 1.000000 0.625000
v 0.968750 1.000000 0.625000
vn 0.000000 0.000000 -1.000000
f 5/1/2 6/2/2 7/3/2 8/4/2
v 0.968750 0.625000 1.000000
v 0.968750 0.625000 0.625000
v 0.968750 1.000000 0.625000
v 0.968750 1.000000 1.000000
vn 1.000000 -0.000000 0.000000
f 9/1/3 10/2/3 11/3/3 12/4/3
v 0.000000 0.625000 0.625000
v 0.000000 0.625000 1.000000
v 0.000000 1.000000 1.000000
v 0.000000 1.000000 0.625000
vn -1.000000 0.000000 0.000000
f 13/1/4 14/2/4 15/3/4 16/4/4
v 0.000000 1.000000 1.000000
v 0.968750 1.000000 1.000000
v 0.968750 1.000000 0.625000
v 0.000000 1.000000 0.625000
vn -0.000000 1.000000 0.000000
f 17/1/5 18/2/5 19/3/5 20/4/5
v 0.000000 0.625000 0.625000
v 0.968750 0.625000 0.625000
v 0.968750 0.625000 1.000000
v 0.000000 0.625000 1.000000
vn 0.000000 -1.000000 0.000000
f 21/1/6 22/2/6 23/3/6 24/4/6
usemtl steel
v 0.375000 0.687500 0.625000
v 0.625000 0.687500 0.625000
v 0.625000 0.937500 0.625000
v 0.375000 0.937500 0.625000
vn 0.000000 0.000000 1.000000
f 25/1/7 26/2/7 27/3/7 28/4/7
v 0.625000 0.687500 0.600000
v 0.375000 0.687500 0.600000
v 0.375000 0.937500 0.600000
v 0.625000 0.937500 0.600000
vn 0.000000 0.000000 -1.000000
f 29/1/8 30/2/8 31/3/8 32/4/8
v 0.625000 0.687500 0.625000
v 0.625000 0.687500 0.600000
v 0.625000 0.937500 0.600000
v 0.625000 0.937500 0.625000
vn 1.000000 -0.000000 0.000000
f 33/1/9 34/2/9 35/3/9 36/4/9
v 0.375000 0.687500 0.600000
v 0.375000 0.687500 0.625000
v 0.375000 0.937500 0.625000
v 0.375000 0.937500 0.600000
vn -1.000000 0.000000 0.000000
f 37/1/10 38/2/10 39/3/10 40/4/10
v 0.375000 0.937500 0.625000
v 0.625000 0.937500 0.625000
v 0.625000 0.937500 0.600000
v 0.375000 0.937500 0.600000
vn -0.000000 1.000000 0.000000
f 41/1/11 42/2/11 43/3/11 44/4/11
v 0.375000 0.687500 0.600000
v 0.625000 0.687500 0.600000
v 0.625000 0.687500 0.625000
v 0.375000 0.687500 0.625000
vn 0.000000 -1.000000 0.000000
f 45/1/12 46/2/12 47/3/12 48/4/12
v 0.437500 0.750000 0.600000
v 0.562500 0.750000 0.600000
v 0.562500 0.875000 0.600000
v 0.437500 0.875000 0.600000
vn 0.000000 0.000000 1.000000
f 49/1/13 50/2/13 51/3/13 52/4/13
v 0.562500 0.750000 0.562500
v 0.437500 0.750000 0.562500
v 0.437500 0.875000 0.562500
v 0.562500 0.875000 0.562500
vn 0.000000 0.000000 -1.000000
f 53/1/14 54/2/14 55/3/14 56/4/14
v 0.562500 0.750000 0.600000
v 0.562500 0.750000 0.562500
v 0.562500 0.875000 0.562500
v 0.562500 0.875000 0.600000
vn 1.000000 -0.000000 0.000000
f 57/1/15 58/2/15 59/3/15 60/4/15
v 0.437500 0.750000 0.562500
v 0.437500 0.750000 0.600000
v 0.437500 0.875000 0.600000
v 0.437500 0.875000 0.562500
vn -1.000000 0.000000 0.000000
f 61/1/16 62/2/16 63/3/16 64/4/16
v 0.437500 0.875000 0.600000
v 0.562500 0.875000 0.600000
v 0.562500 0.875000 0.562500
v 0.437500 0.875000 0.562500
vn -0.000000 1.000000 0.000000
f 65/1/17 66/2/17 67/3/17 68/4/17
v 0.437500 0.750000 0.562500
v 0.562500 0.750000 0.562500
v 0.562500 0.750000 0.600000
v 0.437500 0.750000 0.600000
vn 0.000000 -1.000000 0.000000
f 69/1/18 70/2/18 71/3/18 72/4/18
v 0.406250 0.600000 0.906250
v 0.593750 0.600000 0.906250
v 0.593750 0.625000 0.906250
v 0.406250 0.625000 0.906250
vn 0.000000 0.000000 1.000000
f 73/1/19 74/2/19 75/3/19 76/4/19
v 0.593750 0.600000 0.718750
v 0.406250 0.600000 0.718750
v 0.406250 0.625000 0.718750
v 0.593750 0.625000 0.718750
vn 0.000000 0.000000 -1.000000
f 77/1/20 78/2/20 79/3/20 80/4/20
v 0.593750 0.600000 0.906250
v 0.593750 0.600000 0.718750
v 0.593750 0.625000 0.718750
v 0.593750 0.625000 0.906250
vn 1.000000 -0.000000 0.000000
f 81/1/21 82/2/21 83/3/21 84/4/21
v 0.406250 0.600000 0.718750
v 0.406250 0.600000 0.906250
v 0.406250 0.625000 0.906250
v 0.406250 0.625000 0.718750
vn -1.000000 0.000000 0.000000
f 85/1/22 86/2/22 87/3/22 88/4/22
v 0.406250 0.625000 0.906250
v 0.593750 0.625000 0.906250
v 0.593750 0.625000 0.718750
v 0.406250 0.625000 0.718750
vn -0.000000 1.000000 0.000000
f 89/1/23 90/2/23 91/3/23 92/4/23
v 0.406250 0.600000 0.718750
v 0.593750 0.600000 0.718750
v 0.593750 0.600000 0.906250
v 0.406250 0.600000 0.906250
vn 0.000000 -1.000000 0.000000
f 93/1/24 94/2/24 95/3/24 96/4/24
v 0.453125 0.537500 0.859375
v 0.546875 0.537500 0.859375
v 0.546875 0.600000 0.859375
v 0.453125 0.600000 0.859375
vn 0.000000 0.000000 1.000000
f 97/1/25 98/2/25 99/3/25 100/4/25
v 0.546875 0.537500 0.765625
v 0.453125 0.537500 0.765625
v 0.453125 0.600000 0.765625
v 0.546875 0.600000 0.765625
vn 0.000000 0.000000 -1.000000
f 101/1/26 102/2/26 103/3/26 104/4/26
v 0.546875 0.537500 0.859375
v 0.546875 0.537500 0.765625
v 0.546875 0.600000 0.765625
v 0.546875 0.600000 0.859375
vn 1.000000 -0.000000 0.000000
f 105/1/27 106/2/27 107/3/27 108/4/27
v 0.453125 0.537500 0.765625
v 0.453125 0.537500 0.859375
v 0.453125 0.600000 0.859375
v 0.453125 0.600000 0.765625
vn -1.000000 0.000000 0.000000
f 109/1/28 110/2/28 111/3/28 112/4/28
v 0.453125 0.600000 0.859375
v 0.546875 0.600000 0.859375
v 0.546875 0.600000 0.765625
v 0.453125 0.600000 0.765625
vn -0.000000 1.000000 0.000000
f 113/1/29 114/2/29 115/3/29 116/4/29
v 0.453125 0.537500 0.765625
v 0.546875 0.537500 0.765625
v 0.546875 0.537500 0.859375
v 0.453125 0.537500 0.859375
vn 0.000000 -1.000000 0.000000
f 117/1/30 118/2/30 119/3/30 120/4/30
v 0.437500 0.093750 0.875000
v 0.562500 0.093750 0.875000
v 0.562500 0.625000 0.875000
v 0.437500 0.625000 0.875000
vn 0.000000 0.000000 1.000000
f 121/1/31 122/2/31 123/3/31 124/4/31
v 0.562500 0.093750 0.750000
v 0.437500 0.093750 0.750000
v 0.437500 0.625000 0.750000
v 0.562500 0.625000 0.750000
vn 0.000000 0.000000 -1.000000
f 125/1/32 126/2/32 127/3/32 128/4/32
v 0.562500 0.093750 0.875000
v 0.562500 0.093750 0.750000
v 0.562500 0.625000 0.750000
v 0.562500 0.625000 0.875000
vn 1.000000 -0.000000 0.000000
f 129/1/33 130/2/33 131/3/33 132/4/33
v 0.437500 0.093750 0.750000
v 0.437500 0.093750 0.875000
v 0.437500 0.625000 0.875000
v 0.437500 0.625000 0.750000
vn -1.000000 0.000000 0.000000
f 133/1/34 134/2/34 135/3/34 136/4/34
v 0.437500 0.625000 0.875000
v 0.562500 0.625000 0.875000
v 0.562500 0.625000 0.750000
v 0.437500 0.625000 0.750000
vn -0.000000 1.000000 0.000000
f 137/1/35 138/2/35 139/3/35 140/4/35
v 0.437500 0.093750 0.750000
v 0.562500 0.093750 0.750000
v 0.562500 0.093750 0.875000
v 0.437500 0.093750 0.875000
vn 0.000000 -1.000000 0.000000
f 141/1/36 142/2/36 143/3/36 144/4/36
v 0.437500 0.000000 0.875000
v 0.562500 0.000000 0.875000
v 0.562500 0.093750 0.875000
v 0.437500 0.093750 0.875000
vn 0.000000 0.000000 1.000000
f 145/1/37 146/2/37 147/3/37 148/4/37
v 0.562500 0.000000 0.375000
v 0.437500 0.000000 0.375000
v 0.437500 0.093750 0.375000
v 0.562500 0.093750 0.375000
vn 0.000000 0.000000 -1.000000
f 149/1/38 150/2/38 151/3/38 152/4/38
v 0.562500 0.000000 0.875000
v 0.562500 0.000000 0.375000
v 0.562500 0.093750 0.375000
v 0.562500 0.093750 0.875000
vn 1.000000 -0.000000 0.000000
f 153/1/39 154/2/39 155/3/39 156/4/39
v 0.437500 0.000000 0.375000
v 0.437500 0.000000 0.875000
v 0.437500 0.093750 0.875000
v 0.437500 0.093750 0.375000
vn -1.000000 0.000000 0.000000
f 157/1/40 158/2/40 159/3/40 160/4/40
v 0.437500 0.093750 0.875000
v 0.562500 0.093750 0.875000
v 0.562500 0.093750 0.375000
v 0.437500 0.093750 0.375000
vn -0.000000 1.000000 0.000000
f 161/1/41 162/2/41 163/3/41 164/4/41
v 0.437500 0.000000 0.375000
v 0.562500 0.000000 0.375000
v 0.562500 0.000000 0.875000
v 0.437500 0.000000 0.875000
vn 0.000000 -1.000000 0.000000
f 165/1/42 166/2/42 167/3/42 168/4/42
v 0.312500 0.000000 0.687500
v 0.687500 0.000000 0.687500
v 0.687500 0.046875 0.687500
v 0.312500 0.046875 0.687500
vn 0.000000 0.000000 1.000000
f 169/1/43 170/2/43 171/3/43 172/4/43
v 0.687500 0.000000 0.312500
v 0.312500 0.000000 0.312500
v 0.312500 0.046875 0.312500
v 0.687500 0.046875 0.312500
vn 0.000000 0.000000 -1.000000
f 173/1/44 174/2/44 175/3/44 176/4/44
v 0.687500 0.000000 0.687500
v 0.687500 0.000000 0.312500
v 0.687500 0.046875 0.312500
v 0.687500 0.046875 0.687500
vn 1.000000 -0.000000 0.000000
f 177/1/45 178/2/45 179/3/45 180/4/45
v 0.312500 0.000000 0.312500
v 0.312500 0.000000 0.687500
v 0.312500 0.046875 0.687500
v 0.312500 0.046875 0.312500
vn -1.000000 0.000000 0.000000
f 181/1/46 182/2/46 183/3/46 184/4/46
v 0.312500 0.046875 0.687500
v 0.687500 0.046875 0.687500
v 0.687500 0.046875 0.312500
v 0.312500 0.046875 0.312500
vn -0.000000 1.000000 0.000000
f 185/1/47 186/2/47 187/3/47 188/4/47
v 0.312500 0.000000 0.312500
v 0.687500 0.000000 0.312500
v 0.687500 0.000000 0.687500
v 0.312500 0.000000 0.687500
vn 0.000000 -1.000000 0.000000
f 189/1/48 190/2/48 191/3/48 192/4/48
