# Generated by scripts/gen_transformer_bank_mounts.py: placeholder geometry, replace with the final model.
mtllib transformer_bank_mount.mtl
o transformer_bank_mount_ladwp_3_item
vt 0 0
vt 1 0
vt 1 1
vt 0 1
usemtl metal
v 0.187500 -0.300000 1.000000
v 0.281250 -0.300000 1.000000
v 0.281250 2.300000 1.000000
v 0.187500 2.300000 1.000000
vn 0.000000 0.000000 1.000000
f 1/1/1 2/2/1 3/3/1 4/4/1
v 0.281250 -0.300000 0.812500
v 0.187500 -0.300000 0.812500
v 0.187500 2.300000 0.812500
v 0.281250 2.300000 0.812500
vn 0.000000 0.000000 -1.000000
f 5/1/2 6/2/2 7/3/2 8/4/2
v 0.281250 -0.300000 1.000000
v 0.281250 -0.300000 0.812500
v 0.281250 2.300000 0.812500
v 0.281250 2.300000 1.000000
vn 1.000000 -0.000000 0.000000
f 9/1/3 10/2/3 11/3/3 12/4/3
v 0.187500 -0.300000 0.812500
v 0.187500 -0.300000 1.000000
v 0.187500 2.300000 1.000000
v 0.187500 2.300000 0.812500
vn -1.000000 0.000000 0.000000
f 13/1/4 14/2/4 15/3/4 16/4/4
v 0.187500 2.300000 1.000000
v 0.281250 2.300000 1.000000
v 0.281250 2.300000 0.812500
v 0.187500 2.300000 0.812500
vn -0.000000 1.000000 0.000000
f 17/1/5 18/2/5 19/3/5 20/4/5
v 0.187500 -0.300000 0.812500
v 0.281250 -0.300000 0.812500
v 0.281250 -0.300000 1.000000
v 0.187500 -0.300000 1.000000
vn 0.000000 -1.000000 0.000000
f 21/1/6 22/2/6 23/3/6 24/4/6
v 0.718750 -0.300000 1.000000
v 0.812500 -0.300000 1.000000
v 0.812500 2.300000 1.000000
v 0.718750 2.300000 1.000000
vn 0.000000 0.000000 1.000000
f 25/1/7 26/2/7 27/3/7 28/4/7
v 0.812500 -0.300000 0.812500
v 0.718750 -0.300000 0.812500
v 0.718750 2.300000 0.812500
v 0.812500 2.300000 0.812500
vn 0.000000 0.000000 -1.000000
f 29/1/8 30/2/8 31/3/8 32/4/8
v 0.812500 -0.300000 1.000000
v 0.812500 -0.300000 0.812500
v 0.812500 2.300000 0.812500
v 0.812500 2.300000 1.000000
vn 1.000000 -0.000000 0.000000
f 33/1/9 34/2/9 35/3/9 36/4/9
v 0.718750 -0.300000 0.812500
v 0.718750 -0.300000 1.000000
v 0.718750 2.300000 1.000000
v 0.718750 2.300000 0.812500
vn -1.000000 0.000000 0.000000
f 37/1/10 38/2/10 39/3/10 40/4/10
v 0.718750 2.300000 1.000000
v 0.812500 2.300000 1.000000
v 0.812500 2.300000 0.812500
v 0.718750 2.300000 0.812500
vn -0.000000 1.000000 0.000000
f 41/1/11 42/2/11 43/3/11 44/4/11
v 0.718750 -0.300000 0.812500
v 0.812500 -0.300000 0.812500
v 0.812500 -0.300000 1.000000
v 0.718750 -0.300000 1.000000
vn 0.000000 -1.000000 0.000000
f 45/1/12 46/2/12 47/3/12 48/4/12
v 0.187500 -0.300000 1.000000
v 0.812500 -0.300000 1.000000
v 0.812500 -0.206250 1.000000
v 0.187500 -0.206250 1.000000
vn 0.000000 0.000000 1.000000
f 49/1/13 50/2/13 51/3/13 52/4/13
v 0.812500 -0.300000 0.812500
v 0.187500 -0.300000 0.812500
v 0.187500 -0.206250 0.812500
v 0.812500 -0.206250 0.812500
vn 0.000000 0.000000 -1.000000
f 53/1/14 54/2/14 55/3/14 56/4/14
v 0.812500 -0.300000 1.000000
v 0.812500 -0.300000 0.812500
v 0.812500 -0.206250 0.812500
v 0.812500 -0.206250 1.000000
vn 1.000000 -0.000000 0.000000
f 57/1/15 58/2/15 59/3/15 60/4/15
v 0.187500 -0.300000 0.812500
v 0.187500 -0.300000 1.000000
v 0.187500 -0.206250 1.000000
v 0.187500 -0.206250 0.812500
vn -1.000000 0.000000 0.000000
f 61/1/16 62/2/16 63/3/16 64/4/16
v 0.187500 -0.206250 1.000000
v 0.812500 -0.206250 1.000000
v 0.812500 -0.206250 0.812500
v 0.187500 -0.206250 0.812500
vn -0.000000 1.000000 0.000000
f 65/1/17 66/2/17 67/3/17 68/4/17
v 0.187500 -0.300000 0.812500
v 0.812500 -0.300000 0.812500
v 0.812500 -0.300000 1.000000
v 0.187500 -0.300000 1.000000
vn 0.000000 -1.000000 0.000000
f 69/1/18 70/2/18 71/3/18 72/4/18
v 0.187500 2.206250 1.000000
v 0.812500 2.206250 1.000000
v 0.812500 2.300000 1.000000
v 0.187500 2.300000 1.000000
vn 0.000000 0.000000 1.000000
f 73/1/19 74/2/19 75/3/19 76/4/19
v 0.812500 2.206250 0.812500
v 0.187500 2.206250 0.812500
v 0.187500 2.300000 0.812500
v 0.812500 2.300000 0.812500
vn 0.000000 0.000000 -1.000000
f 77/1/20 78/2/20 79/3/20 80/4/20
v 0.812500 2.206250 1.000000
v 0.812500 2.206250 0.812500
v 0.812500 2.300000 0.812500
v 0.812500 2.300000 1.000000
vn 1.000000 -0.000000 0.000000
f 81/1/21 82/2/21 83/3/21 84/4/21
v 0.187500 2.206250 0.812500
v 0.187500 2.206250 1.000000
v 0.187500 2.300000 1.000000
v 0.187500 2.300000 0.812500
vn -1.000000 0.000000 0.000000
f 85/1/22 86/2/22 87/3/22 88/4/22
v 0.187500 2.300000 1.000000
v 0.812500 2.300000 1.000000
v 0.812500 2.300000 0.812500
v 0.187500 2.300000 0.812500
vn -0.000000 1.000000 0.000000
f 89/1/23 90/2/23 91/3/23 92/4/23
v 0.187500 2.206250 0.812500
v 0.812500 2.206250 0.812500
v 0.812500 2.206250 1.000000
v 0.187500 2.206250 1.000000
vn 0.000000 -1.000000 0.000000
f 93/1/24 94/2/24 95/3/24 96/4/24
v 0.000000 0.187500 0.093750
v 1.000000 0.187500 0.093750
v 1.000000 0.281250 0.093750
v 0.000000 0.281250 0.093750
vn 0.000000 0.000000 1.000000
f 97/1/25 98/2/25 99/3/25 100/4/25
v 1.000000 0.187500 0.000000
v 0.000000 0.187500 0.000000
v 0.000000 0.281250 0.000000
v 1.000000 0.281250 0.000000
vn 0.000000 0.000000 -1.000000
f 101/1/26 102/2/26 103/3/26 104/4/26
v 1.000000 0.187500 0.093750
v 1.000000 0.187500 0.000000
v 1.000000 0.281250 0.000000
v 1.000000 0.281250 0.093750
vn 1.000000 -0.000000 0.000000
f 105/1/27 106/2/27 107/3/27 108/4/27
v 0.000000 0.187500 0.000000
v 0.000000 0.187500 0.093750
v 0.000000 0.281250 0.093750
v 0.000000 0.281250 0.000000
vn -1.000000 0.000000 0.000000
f 109/1/28 110/2/28 111/3/28 112/4/28
v 0.000000 0.281250 0.093750
v 1.000000 0.281250 0.093750
v 1.000000 0.281250 0.000000
v 0.000000 0.281250 0.000000
vn -0.000000 1.000000 0.000000
f 113/1/29 114/2/29 115/3/29 116/4/29
v 0.000000 0.187500 0.000000
v 1.000000 0.187500 0.000000
v 1.000000 0.187500 0.093750
v 0.000000 0.187500 0.093750
vn 0.000000 -1.000000 0.000000
f 117/1/30 118/2/30 119/3/30 120/4/30
v 0.000000 0.468750 0.093750
v 1.000000 0.468750 0.093750
v 1.000000 0.562500 0.093750
v 0.000000 0.562500 0.093750
vn 0.000000 0.000000 1.000000
f 121/1/31 122/2/31 123/3/31 124/4/31
v 1.000000 0.468750 0.000000
v 0.000000 0.468750 0.000000
v 0.000000 0.562500 0.000000
v 1.000000 0.562500 0.000000
vn 0.000000 0.000000 -1.000000
f 125/1/32 126/2/32 127/3/32 128/4/32
v 1.000000 0.468750 0.093750
v 1.000000 0.468750 0.000000
v 1.000000 0.562500 0.000000
v 1.000000 0.562500 0.093750
vn 1.000000 -0.000000 0.000000
f 129/1/33 130/2/33 131/3/33 132/4/33
v 0.000000 0.468750 0.000000
v 0.000000 0.468750 0.093750
v 0.000000 0.562500 0.093750
v 0.000000 0.562500 0.000000
vn -1.000000 0.000000 0.000000
f 133/1/34 134/2/34 135/3/34 136/4/34
v 0.000000 0.562500 0.093750
v 1.000000 0.562500 0.093750
v 1.000000 0.562500 0.000000
v 0.000000 0.562500 0.000000
vn -0.000000 1.000000 0.000000
f 137/1/35 138/2/35 139/3/35 140/4/35
v 0.000000 0.468750 0.000000
v 1.000000 0.468750 0.000000
v 1.000000 0.468750 0.093750
v 0.000000 0.468750 0.093750
vn 0.000000 -1.000000 0.000000
f 141/1/36 142/2/36 143/3/36 144/4/36
v 0.000000 0.187500 0.812500
v 0.093750 0.187500 0.812500
v 0.093750 0.281250 0.812500
v 0.000000 0.281250 0.812500
vn 0.000000 0.000000 1.000000
f 145/1/37 146/2/37 147/3/37 148/4/37
v 0.093750 0.187500 0.000000
v 0.000000 0.187500 0.000000
v 0.000000 0.281250 0.000000
v 0.093750 0.281250 0.000000
vn 0.000000 0.000000 -1.000000
f 149/1/38 150/2/38 151/3/38 152/4/38
v 0.093750 0.187500 0.812500
v 0.093750 0.187500 0.000000
v 0.093750 0.281250 0.000000
v 0.093750 0.281250 0.812500
vn 1.000000 -0.000000 0.000000
f 153/1/39 154/2/39 155/3/39 156/4/39
v 0.000000 0.187500 0.000000
v 0.000000 0.187500 0.812500
v 0.000000 0.281250 0.812500
v 0.000000 0.281250 0.000000
vn -1.000000 0.000000 0.000000
f 157/1/40 158/2/40 159/3/40 160/4/40
v 0.000000 0.281250 0.812500
v 0.093750 0.281250 0.812500
v 0.093750 0.281250 0.000000
v 0.000000 0.281250 0.000000
vn -0.000000 1.000000 0.000000
f 161/1/41 162/2/41 163/3/41 164/4/41
v 0.000000 0.187500 0.000000
v 0.093750 0.187500 0.000000
v 0.093750 0.187500 0.812500
v 0.000000 0.187500 0.812500
vn 0.000000 -1.000000 0.000000
f 165/1/42 166/2/42 167/3/42 168/4/42
v 0.000000 0.468750 0.812500
v 0.093750 0.468750 0.812500
v 0.093750 0.562500 0.812500
v 0.000000 0.562500 0.812500
vn 0.000000 0.000000 1.000000
f 169/1/43 170/2/43 171/3/43 172/4/43
v 0.093750 0.468750 0.000000
v 0.000000 0.468750 0.000000
v 0.000000 0.562500 0.000000
v 0.093750 0.562500 0.000000
vn 0.000000 0.000000 -1.000000
f 173/1/44 174/2/44 175/3/44 176/4/44
v 0.093750 0.468750 0.812500
v 0.093750 0.468750 0.000000
v 0.093750 0.562500 0.000000
v 0.093750 0.562500 0.812500
vn 1.000000 -0.000000 0.000000
f 177/1/45 178/2/45 179/3/45 180/4/45
v 0.000000 0.468750 0.000000
v 0.000000 0.468750 0.812500
v 0.000000 0.562500 0.812500
v 0.000000 0.562500 0.000000
vn -1.000000 0.000000 0.000000
f 181/1/46 182/2/46 183/3/46 184/4/46
v 0.000000 0.562500 0.812500
v 0.093750 0.562500 0.812500
v 0.093750 0.562500 0.000000
v 0.000000 0.562500 0.000000
vn -0.000000 1.000000 0.000000
f 185/1/47 186/2/47 187/3/47 188/4/47
v 0.000000 0.468750 0.000000
v 0.093750 0.468750 0.000000
v 0.093750 0.468750 0.812500
v 0.000000 0.468750 0.812500
vn 0.000000 -1.000000 0.000000
f 189/1/48 190/2/48 191/3/48 192/4/48
v 0.906250 0.187500 0.812500
v 1.000000 0.187500 0.812500
v 1.000000 0.281250 0.812500
v 0.906250 0.281250 0.812500
vn 0.000000 0.000000 1.000000
f 193/1/49 194/2/49 195/3/49 196/4/49
v 1.000000 0.187500 0.000000
v 0.906250 0.187500 0.000000
v 0.906250 0.281250 0.000000
v 1.000000 0.281250 0.000000
vn 0.000000 0.000000 -1.000000
f 197/1/50 198/2/50 199/3/50 200/4/50
v 1.000000 0.187500 0.812500
v 1.000000 0.187500 0.000000
v 1.000000 0.281250 0.000000
v 1.000000 0.281250 0.812500
vn 1.000000 -0.000000 0.000000
f 201/1/51 202/2/51 203/3/51 204/4/51
v 0.906250 0.187500 0.000000
v 0.906250 0.187500 0.812500
v 0.906250 0.281250 0.812500
v 0.906250 0.281250 0.000000
vn -1.000000 0.000000 0.000000
f 205/1/52 206/2/52 207/3/52 208/4/52
v 0.906250 0.281250 0.812500
v 1.000000 0.281250 0.812500
v 1.000000 0.281250 0.000000
v 0.906250 0.281250 0.000000
vn -0.000000 1.000000 0.000000
f 209/1/53 210/2/53 211/3/53 212/4/53
v 0.906250 0.187500 0.000000
v 1.000000 0.187500 0.000000
v 1.000000 0.187500 0.812500
v 0.906250 0.187500 0.812500
vn 0.000000 -1.000000 0.000000
f 213/1/54 214/2/54 215/3/54 216/4/54
v 0.906250 0.468750 0.812500
v 1.000000 0.468750 0.812500
v 1.000000 0.562500 0.812500
v 0.906250 0.562500 0.812500
vn 0.000000 0.000000 1.000000
f 217/1/55 218/2/55 219/3/55 220/4/55
v 1.000000 0.468750 0.000000
v 0.906250 0.468750 0.000000
v 0.906250 0.562500 0.000000
v 1.000000 0.562500 0.000000
vn 0.000000 0.000000 -1.000000
f 221/1/56 222/2/56 223/3/56 224/4/56
v 1.000000 0.468750 0.812500
v 1.000000 0.468750 0.000000
v 1.000000 0.562500 0.000000
v 1.000000 0.562500 0.812500
vn 1.000000 -0.000000 0.000000
f 225/1/57 226/2/57 227/3/57 228/4/57
v 0.906250 0.468750 0.000000
v 0.906250 0.468750 0.812500
v 0.906250 0.562500 0.812500
v 0.906250 0.562500 0.000000
vn -1.000000 0.000000 0.000000
f 229/1/58 230/2/58 231/3/58 232/4/58
v 0.906250 0.562500 0.812500
v 1.000000 0.562500 0.812500
v 1.000000 0.562500 0.000000
v 0.906250 0.562500 0.000000
vn -0.000000 1.000000 0.000000
f 233/1/59 234/2/59 235/3/59 236/4/59
v 0.906250 0.468750 0.000000
v 1.000000 0.468750 0.000000
v 1.000000 0.468750 0.812500
v 0.906250 0.468750 0.812500
vn 0.000000 -1.000000 0.000000
f 237/1/60 238/2/60 239/3/60 240/4/60
v 0.000000 1.437500 0.093750
v 1.000000 1.437500 0.093750
v 1.000000 1.531250 0.093750
v 0.000000 1.531250 0.093750
vn 0.000000 0.000000 1.000000
f 241/1/61 242/2/61 243/3/61 244/4/61
v 1.000000 1.437500 0.000000
v 0.000000 1.437500 0.000000
v 0.000000 1.531250 0.000000
v 1.000000 1.531250 0.000000
vn 0.000000 0.000000 -1.000000
f 245/1/62 246/2/62 247/3/62 248/4/62
v 1.000000 1.437500 0.093750
v 1.000000 1.437500 0.000000
v 1.000000 1.531250 0.000000
v 1.000000 1.531250 0.093750
vn 1.000000 -0.000000 0.000000
f 249/1/63 250/2/63 251/3/63 252/4/63
v 0.000000 1.437500 0.000000
v 0.000000 1.437500 0.093750
v 0.000000 1.531250 0.093750
v 0.000000 1.531250 0.000000
vn -1.000000 0.000000 0.000000
f 253/1/64 254/2/64 255/3/64 256/4/64
v 0.000000 1.531250 0.093750
v 1.000000 1.531250 0.093750
v 1.000000 1.531250 0.000000
v 0.000000 1.531250 0.000000
vn -0.000000 1.000000 0.000000
f 257/1/65 258/2/65 259/3/65 260/4/65
v 0.000000 1.437500 0.000000
v 1.000000 1.437500 0.000000
v 1.000000 1.437500 0.093750
v 0.000000 1.437500 0.093750
vn 0.000000 -1.000000 0.000000
f 261/1/66 262/2/66 263/3/66 264/4/66
v 0.000000 1.718750 0.093750
v 1.000000 1.718750 0.093750
v 1.000000 1.812500 0.093750
v 0.000000 1.812500 0.093750
vn 0.000000 0.000000 1.000000
f 265/1/67 266/2/67 267/3/67 268/4/67
v 1.000000 1.718750 0.000000
v 0.000000 1.718750 0.000000
v 0.000000 1.812500 0.000000
v 1.000000 1.812500 0.000000
vn 0.000000 0.000000 -1.000000
f 269/1/68 270/2/68 271/3/68 272/4/68
v 1.000000 1.718750 0.093750
v 1.000000 1.718750 0.000000
v 1.000000 1.812500 0.000000
v 1.000000 1.812500 0.093750
vn 1.000000 -0.000000 0.000000
f 273/1/69 274/2/69 275/3/69 276/4/69
v 0.000000 1.718750 0.000000
v 0.000000 1.718750 0.093750
v 0.000000 1.812500 0.093750
v 0.000000 1.812500 0.000000
vn -1.000000 0.000000 0.000000
f 277/1/70 278/2/70 279/3/70 280/4/70
v 0.000000 1.812500 0.093750
v 1.000000 1.812500 0.093750
v 1.000000 1.812500 0.000000
v 0.000000 1.812500 0.000000
vn -0.000000 1.000000 0.000000
f 281/1/71 282/2/71 283/3/71 284/4/71
v 0.000000 1.718750 0.000000
v 1.000000 1.718750 0.000000
v 1.000000 1.718750 0.093750
v 0.000000 1.718750 0.093750
vn 0.000000 -1.000000 0.000000
f 285/1/72 286/2/72 287/3/72 288/4/72
v 0.000000 1.437500 0.812500
v 0.093750 1.437500 0.812500
v 0.093750 1.531250 0.812500
v 0.000000 1.531250 0.812500
vn 0.000000 0.000000 1.000000
f 289/1/73 290/2/73 291/3/73 292/4/73
v 0.093750 1.437500 0.000000
v 0.000000 1.437500 0.000000
v 0.000000 1.531250 0.000000
v 0.093750 1.531250 0.000000
vn 0.000000 0.000000 -1.000000
f 293/1/74 294/2/74 295/3/74 296/4/74
v 0.093750 1.437500 0.812500
v 0.093750 1.437500 0.000000
v 0.093750 1.531250 0.000000
v 0.093750 1.531250 0.812500
vn 1.000000 -0.000000 0.000000
f 297/1/75 298/2/75 299/3/75 300/4/75
v 0.000000 1.437500 0.000000
v 0.000000 1.437500 0.812500
v 0.000000 1.531250 0.812500
v 0.000000 1.531250 0.000000
vn -1.000000 0.000000 0.000000
f 301/1/76 302/2/76 303/3/76 304/4/76
v 0.000000 1.531250 0.812500
v 0.093750 1.531250 0.812500
v 0.093750 1.531250 0.000000
v 0.000000 1.531250 0.000000
vn -0.000000 1.000000 0.000000
f 305/1/77 306/2/77 307/3/77 308/4/77
v 0.000000 1.437500 0.000000
v 0.093750 1.437500 0.000000
v 0.093750 1.437500 0.812500
v 0.000000 1.437500 0.812500
vn 0.000000 -1.000000 0.000000
f 309/1/78 310/2/78 311/3/78 312/4/78
v 0.000000 1.718750 0.812500
v 0.093750 1.718750 0.812500
v 0.093750 1.812500 0.812500
v 0.000000 1.812500 0.812500
vn 0.000000 0.000000 1.000000
f 313/1/79 314/2/79 315/3/79 316/4/79
v 0.093750 1.718750 0.000000
v 0.000000 1.718750 0.000000
v 0.000000 1.812500 0.000000
v 0.093750 1.812500 0.000000
vn 0.000000 0.000000 -1.000000
f 317/1/80 318/2/80 319/3/80 320/4/80
v 0.093750 1.718750 0.812500
v 0.093750 1.718750 0.000000
v 0.093750 1.812500 0.000000
v 0.093750 1.812500 0.812500
vn 1.000000 -0.000000 0.000000
f 321/1/81 322/2/81 323/3/81 324/4/81
v 0.000000 1.718750 0.000000
v 0.000000 1.718750 0.812500
v 0.000000 1.812500 0.812500
v 0.000000 1.812500 0.000000
vn -1.000000 0.000000 0.000000
f 325/1/82 326/2/82 327/3/82 328/4/82
v 0.000000 1.812500 0.812500
v 0.093750 1.812500 0.812500
v 0.093750 1.812500 0.000000
v 0.000000 1.812500 0.000000
vn -0.000000 1.000000 0.000000
f 329/1/83 330/2/83 331/3/83 332/4/83
v 0.000000 1.718750 0.000000
v 0.093750 1.718750 0.000000
v 0.093750 1.718750 0.812500
v 0.000000 1.718750 0.812500
vn 0.000000 -1.000000 0.000000
f 333/1/84 334/2/84 335/3/84 336/4/84
v 0.906250 1.437500 0.812500
v 1.000000 1.437500 0.812500
v 1.000000 1.531250 0.812500
v 0.906250 1.531250 0.812500
vn 0.000000 0.000000 1.000000
f 337/1/85 338/2/85 339/3/85 340/4/85
v 1.000000 1.437500 0.000000
v 0.906250 1.437500 0.000000
v 0.906250 1.531250 0.000000
v 1.000000 1.531250 0.000000
vn 0.000000 0.000000 -1.000000
f 341/1/86 342/2/86 343/3/86 344/4/86
v 1.000000 1.437500 0.812500
v 1.000000 1.437500 0.000000
v 1.000000 1.531250 0.000000
v 1.000000 1.531250 0.812500
vn 1.000000 -0.000000 0.000000
f 345/1/87 346/2/87 347/3/87 348/4/87
v 0.906250 1.437500 0.000000
v 0.906250 1.437500 0.812500
v 0.906250 1.531250 0.812500
v 0.906250 1.531250 0.000000
vn -1.000000 0.000000 0.000000
f 349/1/88 350/2/88 351/3/88 352/4/88
v 0.906250 1.531250 0.812500
v 1.000000 1.531250 0.812500
v 1.000000 1.531250 0.000000
v 0.906250 1.531250 0.000000
vn -0.000000 1.000000 0.000000
f 353/1/89 354/2/89 355/3/89 356/4/89
v 0.906250 1.437500 0.000000
v 1.000000 1.437500 0.000000
v 1.000000 1.437500 0.812500
v 0.906250 1.437500 0.812500
vn 0.000000 -1.000000 0.000000
f 357/1/90 358/2/90 359/3/90 360/4/90
v 0.906250 1.718750 0.812500
v 1.000000 1.718750 0.812500
v 1.000000 1.812500 0.812500
v 0.906250 1.812500 0.812500
vn 0.000000 0.000000 1.000000
f 361/1/91 362/2/91 363/3/91 364/4/91
v 1.000000 1.718750 0.000000
v 0.906250 1.718750 0.000000
v 0.906250 1.812500 0.000000
v 1.000000 1.812500 0.000000
vn 0.000000 0.000000 -1.000000
f 365/1/92 366/2/92 367/3/92 368/4/92
v 1.000000 1.718750 0.812500
v 1.000000 1.718750 0.000000
v 1.000000 1.812500 0.000000
v 1.000000 1.812500 0.812500
vn 1.000000 -0.000000 0.000000
f 369/1/93 370/2/93 371/3/93 372/4/93
v 0.906250 1.718750 0.000000
v 0.906250 1.718750 0.812500
v 0.906250 1.812500 0.812500
v 0.906250 1.812500 0.000000
vn -1.000000 0.000000 0.000000
f 373/1/94 374/2/94 375/3/94 376/4/94
v 0.906250 1.812500 0.812500
v 1.000000 1.812500 0.812500
v 1.000000 1.812500 0.000000
v 0.906250 1.812500 0.000000
vn -0.000000 1.000000 0.000000
f 377/1/95 378/2/95 379/3/95 380/4/95
v 0.906250 1.718750 0.000000
v 1.000000 1.718750 0.000000
v 1.000000 1.718750 0.812500
v 0.906250 1.718750 0.812500
vn 0.000000 -1.000000 0.000000
f 381/1/96 382/2/96 383/3/96 384/4/96
v 0.000000 0.187500 0.093750
v 0.093750 0.187500 0.093750
v 0.093750 1.812500 0.093750
v 0.000000 1.812500 0.093750
vn 0.000000 0.000000 1.000000
f 385/1/97 386/2/97 387/3/97 388/4/97
v 0.093750 0.187500 0.000000
v 0.000000 0.187500 0.000000
v 0.000000 1.812500 0.000000
v 0.093750 1.812500 0.000000
vn 0.000000 0.000000 -1.000000
f 389/1/98 390/2/98 391/3/98 392/4/98
v 0.093750 0.187500 0.093750
v 0.093750 0.187500 0.000000
v 0.093750 1.812500 0.000000
v 0.093750 1.812500 0.093750
vn 1.000000 -0.000000 0.000000
f 393/1/99 394/2/99 395/3/99 396/4/99
v 0.000000 0.187500 0.000000
v 0.000000 0.187500 0.093750
v 0.000000 1.812500 0.093750
v 0.000000 1.812500 0.000000
vn -1.000000 0.000000 0.000000
f 397/1/100 398/2/100 399/3/100 400/4/100
v 0.000000 1.812500 0.093750
v 0.093750 1.812500 0.093750
v 0.093750 1.812500 0.000000
v 0.000000 1.812500 0.000000
vn -0.000000 1.000000 0.000000
f 401/1/101 402/2/101 403/3/101 404/4/101
v 0.000000 0.187500 0.000000
v 0.093750 0.187500 0.000000
v 0.093750 0.187500 0.093750
v 0.000000 0.187500 0.093750
vn 0.000000 -1.000000 0.000000
f 405/1/102 406/2/102 407/3/102 408/4/102
v 0.000000 0.187500 0.812500
v 0.093750 0.187500 0.812500
v 0.093750 1.812500 0.812500
v 0.000000 1.812500 0.812500
vn 0.000000 0.000000 1.000000
f 409/1/103 410/2/103 411/3/103 412/4/103
v 0.093750 0.187500 0.718750
v 0.000000 0.187500 0.718750
v 0.000000 1.812500 0.718750
v 0.093750 1.812500 0.718750
vn 0.000000 0.000000 -1.000000
f 413/1/104 414/2/104 415/3/104 416/4/104
v 0.093750 0.187500 0.812500
v 0.093750 0.187500 0.718750
v 0.093750 1.812500 0.718750
v 0.093750 1.812500 0.812500
vn 1.000000 -0.000000 0.000000
f 417/1/105 418/2/105 419/3/105 420/4/105
v 0.000000 0.187500 0.718750
v 0.000000 0.187500 0.812500
v 0.000000 1.812500 0.812500
v 0.000000 1.812500 0.718750
vn -1.000000 0.000000 0.000000
f 421/1/106 422/2/106 423/3/106 424/4/106
v 0.000000 1.812500 0.812500
v 0.093750 1.812500 0.812500
v 0.093750 1.812500 0.718750
v 0.000000 1.812500 0.718750
vn -0.000000 1.000000 0.000000
f 425/1/107 426/2/107 427/3/107 428/4/107
v 0.000000 0.187500 0.718750
v 0.093750 0.187500 0.718750
v 0.093750 0.187500 0.812500
v 0.000000 0.187500 0.812500
vn 0.000000 -1.000000 0.000000
f 429/1/108 430/2/108 431/3/108 432/4/108
v 0.906250 0.187500 0.093750
v 1.000000 0.187500 0.093750
v 1.000000 1.812500 0.093750
v 0.906250 1.812500 0.093750
vn 0.000000 0.000000 1.000000
f 433/1/109 434/2/109 435/3/109 436/4/109
v 1.000000 0.187500 0.000000
v 0.906250 0.187500 0.000000
v 0.906250 1.812500 0.000000
v 1.000000 1.812500 0.000000
vn 0.000000 0.000000 -1.000000
f 437/1/110 438/2/110 439/3/110 440/4/110
v 1.000000 0.187500 0.093750
v 1.000000 0.187500 0.000000
v 1.000000 1.812500 0.000000
v 1.000000 1.812500 0.093750
vn 1.000000 -0.000000 0.000000
f 441/1/111 442/2/111 443/3/111 444/4/111
v 0.906250 0.187500 0.000000
v 0.906250 0.187500 0.093750
v 0.906250 1.812500 0.093750
v 0.906250 1.812500 0.000000
vn -1.000000 0.000000 0.000000
f 445/1/112 446/2/112 447/3/112 448/4/112
v 0.906250 1.812500 0.093750
v 1.000000 1.812500 0.093750
v 1.000000 1.812500 0.000000
v 0.906250 1.812500 0.000000
vn -0.000000 1.000000 0.000000
f 449/1/113 450/2/113 451/3/113 452/4/113
v 0.906250 0.187500 0.000000
v 1.000000 0.187500 0.000000
v 1.000000 0.187500 0.093750
v 0.906250 0.187500 0.093750
vn 0.000000 -1.000000 0.000000
f 453/1/114 454/2/114 455/3/114 456/4/114
v 0.906250 0.187500 0.812500
v 1.000000 0.187500 0.812500
v 1.000000 1.812500 0.812500
v 0.906250 1.812500 0.812500
vn 0.000000 0.000000 1.000000
f 457/1/115 458/2/115 459/3/115 460/4/115
v 1.000000 0.187500 0.718750
v 0.906250 0.187500 0.718750
v 0.906250 1.812500 0.718750
v 1.000000 1.812500 0.718750
vn 0.000000 0.000000 -1.000000
f 461/1/116 462/2/116 463/3/116 464/4/116
v 1.000000 0.187500 0.812500
v 1.000000 0.187500 0.718750
v 1.000000 1.812500 0.718750
v 1.000000 1.812500 0.812500
vn 1.000000 -0.000000 0.000000
f 465/1/117 466/2/117 467/3/117 468/4/117
v 0.906250 0.187500 0.718750
v 0.906250 0.187500 0.812500
v 0.906250 1.812500 0.812500
v 0.906250 1.812500 0.718750
vn -1.000000 0.000000 0.000000
f 469/1/118 470/2/118 471/3/118 472/4/118
v 0.906250 1.812500 0.812500
v 1.000000 1.812500 0.812500
v 1.000000 1.812500 0.718750
v 0.906250 1.812500 0.718750
vn -0.000000 1.000000 0.000000
f 473/1/119 474/2/119 475/3/119 476/4/119
v 0.906250 0.187500 0.718750
v 1.000000 0.187500 0.718750
v 1.000000 0.187500 0.812500
v 0.906250 0.187500 0.812500
vn 0.000000 -1.000000 0.000000
f 477/1/120 478/2/120 479/3/120 480/4/120
usemtl clamp
v 0.125000 0.150000 1.031250
v 0.875000 0.150000 1.031250
v 0.875000 0.400000 1.031250
v 0.125000 0.400000 1.031250
vn 0.000000 0.000000 1.000000
f 481/1/121 482/2/121 483/3/121 484/4/121
v 0.875000 0.150000 0.968750
v 0.125000 0.150000 0.968750
v 0.125000 0.400000 0.968750
v 0.875000 0.400000 0.968750
vn 0.000000 0.000000 -1.000000
f 485/1/122 486/2/122 487/3/122 488/4/122
v 0.875000 0.150000 1.031250
v 0.875000 0.150000 0.968750
v 0.875000 0.400000 0.968750
v 0.875000 0.400000 1.031250
vn 1.000000 -0.000000 0.000000
f 489/1/123 490/2/123 491/3/123 492/4/123
v 0.125000 0.150000 0.968750
v 0.125000 0.150000 1.031250
v 0.125000 0.400000 1.031250
v 0.125000 0.400000 0.968750
vn -1.000000 0.000000 0.000000
f 493/1/124 494/2/124 495/3/124 496/4/124
v 0.125000 0.400000 1.031250
v 0.875000 0.400000 1.031250
v 0.875000 0.400000 0.968750
v 0.125000 0.400000 0.968750
vn -0.000000 1.000000 0.000000
f 497/1/125 498/2/125 499/3/125 500/4/125
v 0.125000 0.150000 0.968750
v 0.875000 0.150000 0.968750
v 0.875000 0.150000 1.031250
v 0.125000 0.150000 1.031250
vn 0.000000 -1.000000 0.000000
f 501/1/126 502/2/126 503/3/126 504/4/126
v 0.125000 1.600000 1.031250
v 0.875000 1.600000 1.031250
v 0.875000 1.850000 1.031250
v 0.125000 1.850000 1.031250
vn 0.000000 0.000000 1.000000
f 505/1/127 506/2/127 507/3/127 508/4/127
v 0.875000 1.600000 0.968750
v 0.125000 1.600000 0.968750
v 0.125000 1.850000 0.968750
v 0.875000 1.850000 0.968750
vn 0.000000 0.000000 -1.000000
f 509/1/128 510/2/128 511/3/128 512/4/128
v 0.875000 1.600000 1.031250
v 0.875000 1.600000 0.968750
v 0.875000 1.850000 0.968750
v 0.875000 1.850000 1.031250
vn 1.000000 -0.000000 0.000000
f 513/1/129 514/2/129 515/3/129 516/4/129
v 0.125000 1.600000 0.968750
v 0.125000 1.600000 1.031250
v 0.125000 1.850000 1.031250
v 0.125000 1.850000 0.968750
vn -1.000000 0.000000 0.000000
f 517/1/130 518/2/130 519/3/130 520/4/130
v 0.125000 1.850000 1.031250
v 0.875000 1.850000 1.031250
v 0.875000 1.850000 0.968750
v 0.125000 1.850000 0.968750
vn -0.000000 1.000000 0.000000
f 521/1/131 522/2/131 523/3/131 524/4/131
v 0.125000 1.600000 0.968750
v 0.875000 1.600000 0.968750
v 0.875000 1.600000 1.031250
v 0.125000 1.600000 1.031250
vn 0.000000 -1.000000 0.000000
f 525/1/132 526/2/132 527/3/132 528/4/132
usemtl metal
v -1.000000 0.125000 0.625000
v -0.906250 0.125000 0.625000
v -0.906250 1.875000 0.625000
v -1.000000 1.875000 0.625000
vn 0.000000 0.000000 1.000000
f 529/1/133 530/2/133 531/3/133 532/4/133
v -0.906250 0.125000 0.375000
v -1.000000 0.125000 0.375000
v -1.000000 1.875000 0.375000
v -0.906250 1.875000 0.375000
vn 0.000000 0.000000 -1.000000
f 533/1/134 534/2/134 535/3/134 536/4/134
v -0.906250 0.125000 0.625000
v -0.906250 0.125000 0.375000
v -0.906250 1.875000 0.375000
v -0.906250 1.875000 0.625000
vn 1.000000 -0.000000 0.000000
f 537/1/135 538/2/135 539/3/135 540/4/135
v -1.000000 0.125000 0.375000
v -1.000000 0.125000 0.625000
v -1.000000 1.875000 0.625000
v -1.000000 1.875000 0.375000
vn -1.000000 0.000000 0.000000
f 541/1/136 542/2/136 543/3/136 544/4/136
v -1.000000 1.875000 0.625000
v -0.906250 1.875000 0.625000
v -0.906250 1.875000 0.375000
v -1.000000 1.875000 0.375000
vn -0.000000 1.000000 0.000000
f 545/1/137 546/2/137 547/3/137 548/4/137
v -1.000000 0.125000 0.375000
v -0.906250 0.125000 0.375000
v -0.906250 0.125000 0.625000
v -1.000000 0.125000 0.625000
vn 0.000000 -1.000000 0.000000
f 549/1/138 550/2/138 551/3/138 552/4/138
usemtl clamp
v -1.000000 0.125000 0.687500
v -0.937500 0.125000 0.687500
v -0.937500 0.625000 0.687500
v -1.000000 0.625000 0.687500
vn 0.000000 0.000000 1.000000
f 553/1/139 554/2/139 555/3/139 556/4/139
v -0.937500 0.125000 0.312500
v -1.000000 0.125000 0.312500
v -1.000000 0.625000 0.312500
v -0.937500 0.625000 0.312500
vn 0.000000 0.000000 -1.000000
f 557/1/140 558/2/140 559/3/140 560/4/140
v -0.937500 0.125000 0.687500
v -0.937500 0.125000 0.312500
v -0.937500 0.625000 0.312500
v -0.937500 0.625000 0.687500
vn 1.000000 -0.000000 0.000000
f 561/1/141 562/2/141 563/3/141 564/4/141
v -1.000000 0.125000 0.312500
v -1.000000 0.125000 0.687500
v -1.000000 0.625000 0.687500
v -1.000000 0.625000 0.312500
vn -1.000000 0.000000 0.000000
f 565/1/142 566/2/142 567/3/142 568/4/142
v -1.000000 0.625000 0.687500
v -0.937500 0.625000 0.687500
v -0.937500 0.625000 0.312500
v -1.000000 0.625000 0.312500
vn -0.000000 1.000000 0.000000
f 569/1/143 570/2/143 571/3/143 572/4/143
v -1.000000 0.125000 0.312500
v -0.937500 0.125000 0.312500
v -0.937500 0.125000 0.687500
v -1.000000 0.125000 0.687500
vn 0.000000 -1.000000 0.000000
f 573/1/144 574/2/144 575/3/144 576/4/144
v -1.000000 1.375000 0.687500
v -0.937500 1.375000 0.687500
v -0.937500 1.875000 0.687500
v -1.000000 1.875000 0.687500
vn 0.000000 0.000000 1.000000
f 577/1/145 578/2/145 579/3/145 580/4/145
v -0.937500 1.375000 0.312500
v -1.000000 1.375000 0.312500
v -1.000000 1.875000 0.312500
v -0.937500 1.875000 0.312500
vn 0.000000 0.000000 -1.000000
f 581/1/146 582/2/146 583/3/146 584/4/146
v -0.937500 1.375000 0.687500
v -0.937500 1.375000 0.312500
v -0.937500 1.875000 0.312500
v -0.937500 1.875000 0.687500
vn 1.000000 -0.000000 0.000000
f 585/1/147 586/2/147 587/3/147 588/4/147
v -1.000000 1.375000 0.312500
v -1.000000 1.375000 0.687500
v -1.000000 1.875000 0.687500
v -1.000000 1.875000 0.312500
vn -1.000000 0.000000 0.000000
f 589/1/148 590/2/148 591/3/148 592/4/148
v -1.000000 1.875000 0.687500
v -0.937500 1.875000 0.687500
v -0.937500 1.875000 0.312500
v -1.000000 1.875000 0.312500
vn -0.000000 1.000000 0.000000
f 593/1/149 594/2/149 595/3/149 596/4/149
v -1.000000 1.375000 0.312500
v -0.937500 1.375000 0.312500
v -0.937500 1.375000 0.687500
v -1.000000 1.375000 0.687500
vn 0.000000 -1.000000 0.000000
f 597/1/150 598/2/150 599/3/150 600/4/150
usemtl metal
v -0.250000 0.450000 0.406250
v -0.156250 0.450000 0.406250
v -0.156250 1.350000 0.406250
v -0.250000 1.350000 0.406250
vn 0.000000 0.000000 1.000000
f 601/1/151 602/2/151 603/3/151 604/4/151
v -0.156250 0.450000 0.312500
v -0.250000 0.450000 0.312500
v -0.250000 1.350000 0.312500
v -0.156250 1.350000 0.312500
vn 0.000000 0.000000 -1.000000
f 605/1/152 606/2/152 607/3/152 608/4/152
v -0.156250 0.450000 0.406250
v -0.156250 0.450000 0.312500
v -0.156250 1.350000 0.312500
v -0.156250 1.350000 0.406250
vn 1.000000 -0.000000 0.000000
f 609/1/153 610/2/153 611/3/153 612/4/153
v -0.250000 0.450000 0.312500
v -0.250000 0.450000 0.406250
v -0.250000 1.350000 0.406250
v -0.250000 1.350000 0.312500
vn -1.000000 0.000000 0.000000
f 613/1/154 614/2/154 615/3/154 616/4/154
v -0.250000 1.350000 0.406250
v -0.156250 1.350000 0.406250
v -0.156250 1.350000 0.312500
v -0.250000 1.350000 0.312500
vn -0.000000 1.000000 0.000000
f 617/1/155 618/2/155 619/3/155 620/4/155
v -0.250000 0.450000 0.312500
v -0.156250 0.450000 0.312500
v -0.156250 0.450000 0.406250
v -0.250000 0.450000 0.406250
vn 0.000000 -1.000000 0.000000
f 621/1/156 622/2/156 623/3/156 624/4/156
v -0.093750 0.450000 0.406250
v 0.000000 0.450000 0.406250
v 0.000000 1.350000 0.406250
v -0.093750 1.350000 0.406250
vn 0.000000 0.000000 1.000000
f 625/1/157 626/2/157 627/3/157 628/4/157
v 0.000000 0.450000 0.312500
v -0.093750 0.450000 0.312500
v -0.093750 1.350000 0.312500
v 0.000000 1.350000 0.312500
vn 0.000000 0.000000 -1.000000
f 629/1/158 630/2/158 631/3/158 632/4/158
v 0.000000 0.450000 0.406250
v 0.000000 0.450000 0.312500
v 0.000000 1.350000 0.312500
v 0.000000 1.350000 0.406250
vn 1.000000 -0.000000 0.000000
f 633/1/159 634/2/159 635/3/159 636/4/159
v -0.093750 0.450000 0.312500
v -0.093750 0.450000 0.406250
v -0.093750 1.350000 0.406250
v -0.093750 1.350000 0.312500
vn -1.000000 0.000000 0.000000
f 637/1/160 638/2/160 639/3/160 640/4/160
v -0.093750 1.350000 0.406250
v 0.000000 1.350000 0.406250
v 0.000000 1.350000 0.312500
v -0.093750 1.350000 0.312500
vn -0.000000 1.000000 0.000000
f 641/1/161 642/2/161 643/3/161 644/4/161
v -0.093750 0.450000 0.312500
v 0.000000 0.450000 0.312500
v 0.000000 0.450000 0.406250
v -0.093750 0.450000 0.406250
vn 0.000000 -1.000000 0.000000
f 645/1/162 646/2/162 647/3/162 648/4/162
v -0.250000 0.450000 0.687500
v -0.156250 0.450000 0.687500
v -0.156250 1.350000 0.687500
v -0.250000 1.350000 0.687500
vn 0.000000 0.000000 1.000000
f 649/1/163 650/2/163 651/3/163 652/4/163
v -0.156250 0.450000 0.593750
v -0.250000 0.450000 0.593750
v -0.250000 1.350000 0.593750
v -0.156250 1.350000 0.593750
vn 0.000000 0.000000 -1.000000
f 653/1/164 654/2/164 655/3/164 656/4/164
v -0.156250 0.450000 0.687500
v -0.156250 0.450000 0.593750
v -0.156250 1.350000 0.593750
v -0.156250 1.350000 0.687500
vn 1.000000 -0.000000 0.000000
f 657/1/165 658/2/165 659/3/165 660/4/165
v -0.250000 0.450000 0.593750
v -0.250000 0.450000 0.687500
v -0.250000 1.350000 0.687500
v -0.250000 1.350000 0.593750
vn -1.000000 0.000000 0.000000
f 661/1/166 662/2/166 663/3/166 664/4/166
v -0.250000 1.350000 0.687500
v -0.156250 1.350000 0.687500
v -0.156250 1.350000 0.593750
v -0.250000 1.350000 0.593750
vn -0.000000 1.000000 0.000000
f 665/1/167 666/2/167 667/3/167 668/4/167
v -0.250000 0.450000 0.593750
v -0.156250 0.450000 0.593750
v -0.156250 0.450000 0.687500
v -0.250000 0.450000 0.687500
vn 0.000000 -1.000000 0.000000
f 669/1/168 670/2/168 671/3/168 672/4/168
v -0.093750 0.450000 0.687500
v 0.000000 0.450000 0.687500
v 0.000000 1.350000 0.687500
v -0.093750 1.350000 0.687500
vn 0.000000 0.000000 1.000000
f 673/1/169 674/2/169 675/3/169 676/4/169
v 0.000000 0.450000 0.593750
v -0.093750 0.450000 0.593750
v -0.093750 1.350000 0.593750
v 0.000000 1.350000 0.593750
vn 0.000000 0.000000 -1.000000
f 677/1/170 678/2/170 679/3/170 680/4/170
v 0.000000 0.450000 0.687500
v 0.000000 0.450000 0.593750
v 0.000000 1.350000 0.593750
v 0.000000 1.350000 0.687500
vn 1.000000 -0.000000 0.000000
f 681/1/171 682/2/171 683/3/171 684/4/171
v -0.093750 0.450000 0.593750
v -0.093750 0.450000 0.687500
v -0.093750 1.350000 0.687500
v -0.093750 1.350000 0.593750
vn -1.000000 0.000000 0.000000
f 685/1/172 686/2/172 687/3/172 688/4/172
v -0.093750 1.350000 0.687500
v 0.000000 1.350000 0.687500
v 0.000000 1.350000 0.593750
v -0.093750 1.350000 0.593750
vn -0.000000 1.000000 0.000000
f 689/1/173 690/2/173 691/3/173 692/4/173
v -0.093750 0.450000 0.593750
v 0.000000 0.450000 0.593750
v 0.000000 0.450000 0.687500
v -0.093750 0.450000 0.687500
vn 0.000000 -1.000000 0.000000
f 693/1/174 694/2/174 695/3/174 696/4/174
v -0.250000 0.450000 0.687500
v 0.000000 0.450000 0.687500
v 0.000000 0.543750 0.687500
v -0.250000 0.543750 0.687500
vn 0.000000 0.000000 1.000000
f 697/1/175 698/2/175 699/3/175 700/4/175
v 0.000000 0.450000 0.312500
v -0.250000 0.450000 0.312500
v -0.250000 0.543750 0.312500
v 0.000000 0.543750 0.312500
vn 0.000000 0.000000 -1.000000
f 701/1/176 702/2/176 703/3/176 704/4/176
v 0.000000 0.450000 0.687500
v 0.000000 0.450000 0.312500
v 0.000000 0.543750 0.312500
v 0.000000 0.543750 0.687500
vn 1.000000 -0.000000 0.000000
f 705/1/177 706/2/177 707/3/177 708/4/177
v -0.250000 0.450000 0.312500
v -0.250000 0.450000 0.687500
v -0.250000 0.543750 0.687500
v -0.250000 0.543750 0.312500
vn -1.000000 0.000000 0.000000
f 709/1/178 710/2/178 711/3/178 712/4/178
v -0.250000 0.543750 0.687500
v 0.000000 0.543750 0.687500
v 0.000000 0.543750 0.312500
v -0.250000 0.543750 0.312500
vn -0.000000 1.000000 0.000000
f 713/1/179 714/2/179 715/3/179 716/4/179
v -0.250000 0.450000 0.312500
v 0.000000 0.450000 0.312500
v 0.000000 0.450000 0.687500
v -0.250000 0.450000 0.687500
vn 0.000000 -1.000000 0.000000
f 717/1/180 718/2/180 719/3/180 720/4/180
v -0.250000 1.256250 0.687500
v 0.000000 1.256250 0.687500
v 0.000000 1.350000 0.687500
v -0.250000 1.350000 0.687500
vn 0.000000 0.000000 1.000000
f 721/1/181 722/2/181 723/3/181 724/4/181
v 0.000000 1.256250 0.312500
v -0.250000 1.256250 0.312500
v -0.250000 1.350000 0.312500
v 0.000000 1.350000 0.312500
vn 0.000000 0.000000 -1.000000
f 725/1/182 726/2/182 727/3/182 728/4/182
v 0.000000 1.256250 0.687500
v 0.000000 1.256250 0.312500
v 0.000000 1.350000 0.312500
v 0.000000 1.350000 0.687500
vn 1.000000 -0.000000 0.000000
f 729/1/183 730/2/183 731/3/183 732/4/183
v -0.250000 1.256250 0.312500
v -0.250000 1.256250 0.687500
v -0.250000 1.350000 0.687500
v -0.250000 1.350000 0.312500
vn -1.000000 0.000000 0.000000
f 733/1/184 734/2/184 735/3/184 736/4/184
v -0.250000 1.350000 0.687500
v 0.000000 1.350000 0.687500
v 0.000000 1.350000 0.312500
v -0.250000 1.350000 0.312500
vn -0.000000 1.000000 0.000000
f 737/1/185 738/2/185 739/3/185 740/4/185
v -0.250000 1.256250 0.312500
v 0.000000 1.256250 0.312500
v 0.000000 1.256250 0.687500
v -0.250000 1.256250 0.687500
vn 0.000000 -1.000000 0.000000
f 741/1/186 742/2/186 743/3/186 744/4/186
v -0.906250 1.828125 0.425000
v -0.250000 1.303125 0.425000
v -0.209004 1.354370 0.359375
v -0.865254 1.879370 0.359375
vn 0.441726 0.552158 0.707107
f 745/1/187 746/2/187 747/3/187 748/4/187
v -0.865254 1.879370 0.359375
v -0.209004 1.354370 0.359375
v -0.250000 1.303125 0.293750
v -0.906250 1.828125 0.293750
vn 0.441726 0.552158 -0.707107
f 749/1/188 750/2/188 751/3/188 752/4/188
v -0.906250 1.828125 0.293750
v -0.250000 1.303125 0.293750
v -0.290996 1.251880 0.359375
v -0.947246 1.776880 0.359375
vn -0.441726 -0.552158 -0.707107
f 753/1/189 754/2/189 755/3/189 756/4/189
v -0.947246 1.776880 0.359375
v -0.290996 1.251880 0.359375
v -0.250000 1.303125 0.425000
v -0.906250 1.828125 0.425000
vn -0.441726 -0.552158 0.707107
f 757/1/190 758/2/190 759/3/190 760/4/190
v -0.250000 1.303125 0.425000
v -0.290996 1.251880 0.359375
v -0.250000 1.303125 0.293750
v -0.209004 1.354370 0.359375
vn 0.780869 -0.624695 0.000000
f 761/1/191 762/2/191 763/3/191 764/4/191
v -0.906250 0.171875 0.425000
v -0.250000 0.496875 0.425000
v -0.279124 0.555683 0.359375
v -0.935374 0.230683 0.359375
vn -0.313812 0.633658 0.707107
f 765/1/192 766/2/192 767/3/192 768/4/192
v -0.935374 0.230683 0.359375
v -0.279124 0.555683 0.359375
v -0.250000 0.496875 0.293750
v -0.906250 0.171875 0.293750
vn -0.313812 0.633658 -0.707107
f 769/1/193 770/2/193 771/3/193 772/4/193
v -0.906250 0.171875 0.293750
v -0.250000 0.496875 0.293750
v -0.220876 0.438067 0.359375
v -0.877126 0.113067 0.359375
vn 0.313812 -0.633658 -0.707107
f 773/1/194 774/2/194 775/3/194 776/4/194
v -0.877126 0.113067 0.359375
v -0.220876 0.438067 0.359375
v -0.250000 0.496875 0.425000
v -0.906250 0.171875 0.425000
vn 0.313812 -0.633658 0.707107
f 777/1/195 778/2/195 779/3/195 780/4/195
v -0.250000 0.496875 0.425000
v -0.220876 0.438067 0.359375
v -0.250000 0.496875 0.293750
v -0.279124 0.555683 0.359375
vn 0.896128 0.443797 0.000000
f 781/1/196 782/2/196 783/3/196 784/4/196
v -0.906250 1.828125 0.706250
v -0.250000 1.303125 0.706250
v -0.209004 1.354370 0.640625
v -0.865254 1.879370 0.640625
vn 0.441726 0.552158 0.707107
f 785/1/197 786/2/197 787/3/197 788/4/197
v -0.865254 1.879370 0.640625
v -0.209004 1.354370 0.640625
v -0.250000 1.303125 0.575000
v -0.906250 1.828125 0.575000
vn 0.441726 0.552158 -0.707107
f 789/1/198 790/2/198 791/3/198 792/4/198
v -0.906250 1.828125 0.575000
v -0.250000 1.303125 0.575000
v -0.290996 1.251880 0.640625
v -0.947246 1.776880 0.640625
vn -0.441726 -0.552158 -0.707107
f 793/1/199 794/2/199 795/3/199 796/4/199
v -0.947246 1.776880 0.640625
v -0.290996 1.251880 0.640625
v -0.250000 1.303125 0.706250
v -0.906250 1.828125 0.706250
vn -0.441726 -0.552158 0.707107
f 797/1/200 798/2/200 799/3/200 800/4/200
v -0.250000 1.303125 0.706250
v -0.290996 1.251880 0.640625
v -0.250000 1.303125 0.575000
v -0.209004 1.354370 0.640625
vn 0.780869 -0.624695 0.000000
f 801/1/201 802/2/201 803/3/201 804/4/201
v -0.906250 0.171875 0.706250
v -0.250000 0.496875 0.706250
v -0.279124 0.555683 0.640625
v -0.935374 0.230683 0.640625
vn -0.313812 0.633658 0.707107
f 805/1/202 806/2/202 807/3/202 808/4/202
v -0.935374 0.230683 0.640625
v -0.279124 0.555683 0.640625
v -0.250000 0.496875 0.575000
v -0.906250 0.171875 0.575000
vn -0.313812 0.633658 -0.707107
f 809/1/203 810/2/203 811/3/203 812/4/203
v -0.906250 0.171875 0.575000
v -0.250000 0.496875 0.575000
v -0.220876 0.438067 0.640625
v -0.877126 0.113067 0.640625
vn 0.313812 -0.633658 -0.707107
f 813/1/204 814/2/204 815/3/204 816/4/204
v -0.877126 0.113067 0.640625
v -0.220876 0.438067 0.640625
v -0.250000 0.496875 0.706250
v -0.906250 0.171875 0.706250
vn 0.313812 -0.633658 0.707107
f 817/1/205 818/2/205 819/3/205 820/4/205
v -0.250000 0.496875 0.706250
v -0.220876 0.438067 0.640625
v -0.250000 0.496875 0.575000
v -0.279124 0.555683 0.640625
vn 0.896128 0.443797 0.000000
f 821/1/206 822/2/206 823/3/206 824/4/206
v 1.906250 0.125000 0.625000
v 2.000000 0.125000 0.625000
v 2.000000 1.875000 0.625000
v 1.906250 1.875000 0.625000
vn 0.000000 0.000000 1.000000
f 825/1/207 826/2/207 827/3/207 828/4/207
v 2.000000 0.125000 0.375000
v 1.906250 0.125000 0.375000
v 1.906250 1.875000 0.375000
v 2.000000 1.875000 0.375000
vn 0.000000 0.000000 -1.000000
f 829/1/208 830/2/208 831/3/208 832/4/208
v 2.000000 0.125000 0.625000
v 2.000000 0.125000 0.375000
v 2.000000 1.875000 0.375000
v 2.000000 1.875000 0.625000
vn 1.000000 -0.000000 0.000000
f 833/1/209 834/2/209 835/3/209 836/4/209
v 1.906250 0.125000 0.375000
v 1.906250 0.125000 0.625000
v 1.906250 1.875000 0.625000
v 1.906250 1.875000 0.375000
vn -1.000000 0.000000 0.000000
f 837/1/210 838/2/210 839/3/210 840/4/210
v 1.906250 1.875000 0.625000
v 2.000000 1.875000 0.625000
v 2.000000 1.875000 0.375000
v 1.906250 1.875000 0.375000
vn -0.000000 1.000000 0.000000
f 841/1/211 842/2/211 843/3/211 844/4/211
v 1.906250 0.125000 0.375000
v 2.000000 0.125000 0.375000
v 2.000000 0.125000 0.625000
v 1.906250 0.125000 0.625000
vn 0.000000 -1.000000 0.000000
f 845/1/212 846/2/212 847/3/212 848/4/212
usemtl clamp
v 1.937500 0.125000 0.687500
v 2.000000 0.125000 0.687500
v 2.000000 0.625000 0.687500
v 1.937500 0.625000 0.687500
vn 0.000000 0.000000 1.000000
f 849/1/213 850/2/213 851/3/213 852/4/213
v 2.000000 0.125000 0.312500
v 1.937500 0.125000 0.312500
v 1.937500 0.625000 0.312500
v 2.000000 0.625000 0.312500
vn 0.000000 0.000000 -1.000000
f 853/1/214 854/2/214 855/3/214 856/4/214
v 2.000000 0.125000 0.687500
v 2.000000 0.125000 0.312500
v 2.000000 0.625000 0.312500
v 2.000000 0.625000 0.687500
vn 1.000000 -0.000000 0.000000
f 857/1/215 858/2/215 859/3/215 860/4/215
v 1.937500 0.125000 0.312500
v 1.937500 0.125000 0.687500
v 1.937500 0.625000 0.687500
v 1.937500 0.625000 0.312500
vn -1.000000 0.000000 0.000000
f 861/1/216 862/2/216 863/3/216 864/4/216
v 1.937500 0.625000 0.687500
v 2.000000 0.625000 0.687500
v 2.000000 0.625000 0.312500
v 1.937500 0.625000 0.312500
vn -0.000000 1.000000 0.000000
f 865/1/217 866/2/217 867/3/217 868/4/217
v 1.937500 0.125000 0.312500
v 2.000000 0.125000 0.312500
v 2.000000 0.125000 0.687500
v 1.937500 0.125000 0.687500
vn 0.000000 -1.000000 0.000000
f 869/1/218 870/2/218 871/3/218 872/4/218
v 1.937500 1.375000 0.687500
v 2.000000 1.375000 0.687500
v 2.000000 1.875000 0.687500
v 1.937500 1.875000 0.687500
vn 0.000000 0.000000 1.000000
f 873/1/219 874/2/219 875/3/219 876/4/219
v 2.000000 1.375000 0.312500
v 1.937500 1.375000 0.312500
v 1.937500 1.875000 0.312500
v 2.000000 1.875000 0.312500
vn 0.000000 0.000000 -1.000000
f 877/1/220 878/2/220 879/3/220 880/4/220
v 2.000000 1.375000 0.687500
v 2.000000 1.375000 0.312500
v 2.000000 1.875000 0.312500
v 2.000000 1.875000 0.687500
vn 1.000000 -0.000000 0.000000
f 881/1/221 882/2/221 883/3/221 884/4/221
v 1.937500 1.375000 0.312500
v 1.937500 1.375000 0.687500
v 1.937500 1.875000 0.687500
v 1.937500 1.875000 0.312500
vn -1.000000 0.000000 0.000000
f 885/1/222 886/2/222 887/3/222 888/4/222
v 1.937500 1.875000 0.687500
v 2.000000 1.875000 0.687500
v 2.000000 1.875000 0.312500
v 1.937500 1.875000 0.312500
vn -0.000000 1.000000 0.000000
f 889/1/223 890/2/223 891/3/223 892/4/223
v 1.937500 1.375000 0.312500
v 2.000000 1.375000 0.312500
v 2.000000 1.375000 0.687500
v 1.937500 1.375000 0.687500
vn 0.000000 -1.000000 0.000000
f 893/1/224 894/2/224 895/3/224 896/4/224
usemtl metal
v 1.156250 0.450000 0.406250
v 1.250000 0.450000 0.406250
v 1.250000 1.350000 0.406250
v 1.156250 1.350000 0.406250
vn 0.000000 0.000000 1.000000
f 897/1/225 898/2/225 899/3/225 900/4/225
v 1.250000 0.450000 0.312500
v 1.156250 0.450000 0.312500
v 1.156250 1.350000 0.312500
v 1.250000 1.350000 0.312500
vn 0.000000 0.000000 -1.000000
f 901/1/226 902/2/226 903/3/226 904/4/226
v 1.250000 0.450000 0.406250
v 1.250000 0.450000 0.312500
v 1.250000 1.350000 0.312500
v 1.250000 1.350000 0.406250
vn 1.000000 -0.000000 0.000000
f 905/1/227 906/2/227 907/3/227 908/4/227
v 1.156250 0.450000 0.312500
v 1.156250 0.450000 0.406250
v 1.156250 1.350000 0.406250
v 1.156250 1.350000 0.312500
vn -1.000000 0.000000 0.000000
f 909/1/228 910/2/228 911/3/228 912/4/228
v 1.156250 1.350000 0.406250
v 1.250000 1.350000 0.406250
v 1.250000 1.350000 0.312500
v 1.156250 1.350000 0.312500
vn -0.000000 1.000000 0.000000
f 913/1/229 914/2/229 915/3/229 916/4/229
v 1.156250 0.450000 0.312500
v 1.250000 0.450000 0.312500
v 1.250000 0.450000 0.406250
v 1.156250 0.450000 0.406250
vn 0.000000 -1.000000 0.000000
f 917/1/230 918/2/230 919/3/230 920/4/230
v 1.000000 0.450000 0.406250
v 1.093750 0.450000 0.406250
v 1.093750 1.350000 0.406250
v 1.000000 1.350000 0.406250
vn 0.000000 0.000000 1.000000
f 921/1/231 922/2/231 923/3/231 924/4/231
v 1.093750 0.450000 0.312500
v 1.000000 0.450000 0.312500
v 1.000000 1.350000 0.312500
v 1.093750 1.350000 0.312500
vn 0.000000 0.000000 -1.000000
f 925/1/232 926/2/232 927/3/232 928/4/232
v 1.093750 0.450000 0.406250
v 1.093750 0.450000 0.312500
v 1.093750 1.350000 0.312500
v 1.093750 1.350000 0.406250
vn 1.000000 -0.000000 0.000000
f 929/1/233 930/2/233 931/3/233 932/4/233
v 1.000000 0.450000 0.312500
v 1.000000 0.450000 0.406250
v 1.000000 1.350000 0.406250
v 1.000000 1.350000 0.312500
vn -1.000000 0.000000 0.000000
f 933/1/234 934/2/234 935/3/234 936/4/234
v 1.000000 1.350000 0.406250
v 1.093750 1.350000 0.406250
v 1.093750 1.350000 0.312500
v 1.000000 1.350000 0.312500
vn -0.000000 1.000000 0.000000
f 937/1/235 938/2/235 939/3/235 940/4/235
v 1.000000 0.450000 0.312500
v 1.093750 0.450000 0.312500
v 1.093750 0.450000 0.406250
v 1.000000 0.450000 0.406250
vn 0.000000 -1.000000 0.000000
f 941/1/236 942/2/236 943/3/236 944/4/236
v 1.156250 0.450000 0.687500
v 1.250000 0.450000 0.687500
v 1.250000 1.350000 0.687500
v 1.156250 1.350000 0.687500
vn 0.000000 0.000000 1.000000
f 945/1/237 946/2/237 947/3/237 948/4/237
v 1.250000 0.450000 0.593750
v 1.156250 0.450000 0.593750
v 1.156250 1.350000 0.593750
v 1.250000 1.350000 0.593750
vn 0.000000 0.000000 -1.000000
f 949/1/238 950/2/238 951/3/238 952/4/238
v 1.250000 0.450000 0.687500
v 1.250000 0.450000 0.593750
v 1.250000 1.350000 0.593750
v 1.250000 1.350000 0.687500
vn 1.000000 -0.000000 0.000000
f 953/1/239 954/2/239 955/3/239 956/4/239
v 1.156250 0.450000 0.593750
v 1.156250 0.450000 0.687500
v 1.156250 1.350000 0.687500
v 1.156250 1.350000 0.593750
vn -1.000000 0.000000 0.000000
f 957/1/240 958/2/240 959/3/240 960/4/240
v 1.156250 1.350000 0.687500
v 1.250000 1.350000 0.687500
v 1.250000 1.350000 0.593750
v 1.156250 1.350000 0.593750
vn -0.000000 1.000000 0.000000
f 961/1/241 962/2/241 963/3/241 964/4/241
v 1.156250 0.450000 0.593750
v 1.250000 0.450000 0.593750
v 1.250000 0.450000 0.687500
v 1.156250 0.450000 0.687500
vn 0.000000 -1.000000 0.000000
f 965/1/242 966/2/242 967/3/242 968/4/242
v 1.000000 0.450000 0.687500
v 1.093750 0.450000 0.687500
v 1.093750 1.350000 0.687500
v 1.000000 1.350000 0.687500
vn 0.000000 0.000000 1.000000
f 969/1/243 970/2/243 971/3/243 972/4/243
v 1.093750 0.450000 0.593750
v 1.000000 0.450000 0.593750
v 1.000000 1.350000 0.593750
v 1.093750 1.350000 0.593750
vn 0.000000 0.000000 -1.000000
f 973/1/244 974/2/244 975/3/244 976/4/244
v 1.093750 0.450000 0.687500
v 1.093750 0.450000 0.593750
v 1.093750 1.350000 0.593750
v 1.093750 1.350000 0.687500
vn 1.000000 -0.000000 0.000000
f 977/1/245 978/2/245 979/3/245 980/4/245
v 1.000000 0.450000 0.593750
v 1.000000 0.450000 0.687500
v 1.000000 1.350000 0.687500
v 1.000000 1.350000 0.593750
vn -1.000000 0.000000 0.000000
f 981/1/246 982/2/246 983/3/246 984/4/246
v 1.000000 1.350000 0.687500
v 1.093750 1.350000 0.687500
v 1.093750 1.350000 0.593750
v 1.000000 1.350000 0.593750
vn -0.000000 1.000000 0.000000
f 985/1/247 986/2/247 987/3/247 988/4/247
v 1.000000 0.450000 0.593750
v 1.093750 0.450000 0.593750
v 1.093750 0.450000 0.687500
v 1.000000 0.450000 0.687500
vn 0.000000 -1.000000 0.000000
f 989/1/248 990/2/248 991/3/248 992/4/248
v 1.000000 0.450000 0.687500
v 1.250000 0.450000 0.687500
v 1.250000 0.543750 0.687500
v 1.000000 0.543750 0.687500
vn 0.000000 0.000000 1.000000
f 993/1/249 994/2/249 995/3/249 996/4/249
v 1.250000 0.450000 0.312500
v 1.000000 0.450000 0.312500
v 1.000000 0.543750 0.312500
v 1.250000 0.543750 0.312500
vn 0.000000 0.000000 -1.000000
f 997/1/250 998/2/250 999/3/250 1000/4/250
v 1.250000 0.450000 0.687500
v 1.250000 0.450000 0.312500
v 1.250000 0.543750 0.312500
v 1.250000 0.543750 0.687500
vn 1.000000 -0.000000 0.000000
f 1001/1/251 1002/2/251 1003/3/251 1004/4/251
v 1.000000 0.450000 0.312500
v 1.000000 0.450000 0.687500
v 1.000000 0.543750 0.687500
v 1.000000 0.543750 0.312500
vn -1.000000 0.000000 0.000000
f 1005/1/252 1006/2/252 1007/3/252 1008/4/252
v 1.000000 0.543750 0.687500
v 1.250000 0.543750 0.687500
v 1.250000 0.543750 0.312500
v 1.000000 0.543750 0.312500
vn -0.000000 1.000000 0.000000
f 1009/1/253 1010/2/253 1011/3/253 1012/4/253
v 1.000000 0.450000 0.312500
v 1.250000 0.450000 0.312500
v 1.250000 0.450000 0.687500
v 1.000000 0.450000 0.687500
vn 0.000000 -1.000000 0.000000
f 1013/1/254 1014/2/254 1015/3/254 1016/4/254
v 1.000000 1.256250 0.687500
v 1.250000 1.256250 0.687500
v 1.250000 1.350000 0.687500
v 1.000000 1.350000 0.687500
vn 0.000000 0.000000 1.000000
f 1017/1/255 1018/2/255 1019/3/255 1020/4/255
v 1.250000 1.256250 0.312500
v 1.000000 1.256250 0.312500
v 1.000000 1.350000 0.312500
v 1.250000 1.350000 0.312500
vn 0.000000 0.000000 -1.000000
f 1021/1/256 1022/2/256 1023/3/256 1024/4/256
v 1.250000 1.256250 0.687500
v 1.250000 1.256250 0.312500
v 1.250000 1.350000 0.312500
v 1.250000 1.350000 0.687500
vn 1.000000 -0.000000 0.000000
f 1025/1/257 1026/2/257 1027/3/257 1028/4/257
v 1.000000 1.256250 0.312500
v 1.000000 1.256250 0.687500
v 1.000000 1.350000 0.687500
v 1.000000 1.350000 0.312500
vn -1.000000 0.000000 0.000000
f 1029/1/258 1030/2/258 1031/3/258 1032/4/258
v 1.000000 1.350000 0.687500
v 1.250000 1.350000 0.687500
v 1.250000 1.350000 0.312500
v 1.000000 1.350000 0.312500
vn -0.000000 1.000000 0.000000
f 1033/1/259 1034/2/259 1035/3/259 1036/4/259
v 1.000000 1.256250 0.312500
v 1.250000 1.256250 0.312500
v 1.250000 1.256250 0.687500
v 1.000000 1.256250 0.687500
vn 0.000000 -1.000000 0.000000
f 1037/1/260 1038/2/260 1039/3/260 1040/4/260
v 1.906250 1.828125 0.293750
v 1.250000 1.303125 0.293750
v 1.209004 1.354370 0.359375
v 1.865254 1.879370 0.359375
vn -0.441726 0.552158 -0.707107
f 1041/1/261 1042/2/261 1043/3/261 1044/4/261
v 1.865254 1.879370 0.359375
v 1.209004 1.354370 0.359375
v 1.250000 1.303125 0.425000
v 1.906250 1.828125 0.425000
vn -0.441726 0.552158 0.707107
f 1045/1/262 1046/2/262 1047/3/262 1048/4/262
v 1.906250 1.828125 0.425000
v 1.250000 1.303125 0.425000
v 1.290996 1.251880 0.359375
v 1.947246 1.776880 0.359375
vn 0.441726 -0.552158 0.707107
f 1049/1/263 1050/2/263 1051/3/263 1052/4/263
v 1.947246 1.776880 0.359375
v 1.290996 1.251880 0.359375
v 1.250000 1.303125 0.293750
v 1.906250 1.828125 0.293750
vn 0.441726 -0.552158 -0.707107
f 1053/1/264 1054/2/264 1055/3/264 1056/4/264
v 1.250000 1.303125 0.293750
v 1.290996 1.251880 0.359375
v 1.250000 1.303125 0.425000
v 1.209004 1.354370 0.359375
vn -0.780869 -0.624695 0.000000
f 1057/1/265 1058/2/265 1059/3/265 1060/4/265
v 1.906250 0.171875 0.293750
v 1.250000 0.496875 0.293750
v 1.279124 0.555683 0.359375
v 1.935374 0.230683 0.359375
vn 0.313812 0.633658 -0.707107
f 1061/1/266 1062/2/266 1063/3/266 1064/4/266
v 1.935374 0.230683 0.359375
v 1.279124 0.555683 0.359375
v 1.250000 0.496875 0.425000
v 1.906250 0.171875 0.425000
vn 0.313812 0.633658 0.707107
f 1065/1/267 1066/2/267 1067/3/267 1068/4/267
v 1.906250 0.171875 0.425000
v 1.250000 0.496875 0.425000
v 1.220876 0.438067 0.359375
v 1.877126 0.113067 0.359375
vn -0.313812 -0.633658 0.707107
f 1069/1/268 1070/2/268 1071/3/268 1072/4/268
v 1.877126 0.113067 0.359375
v 1.220876 0.438067 0.359375
v 1.250000 0.496875 0.293750
v 1.906250 0.171875 0.293750
vn -0.313812 -0.633658 -0.707107
f 1073/1/269 1074/2/269 1075/3/269 1076/4/269
v 1.250000 0.496875 0.293750
v 1.220876 0.438067 0.359375
v 1.250000 0.496875 0.425000
v 1.279124 0.555683 0.359375
vn -0.896128 0.443797 0.000000
f 1077/1/270 1078/2/270 1079/3/270 1080/4/270
v 1.906250 1.828125 0.575000
v 1.250000 1.303125 0.575000
v 1.209004 1.354370 0.640625
v 1.865254 1.879370 0.640625
vn -0.441726 0.552158 -0.707107
f 1081/1/271 1082/2/271 1083/3/271 1084/4/271
v 1.865254 1.879370 0.640625
v 1.209004 1.354370 0.640625
v 1.250000 1.303125 0.706250
v 1.906250 1.828125 0.706250
vn -0.441726 0.552158 0.707107
f 1085/1/272 1086/2/272 1087/3/272 1088/4/272
v 1.906250 1.828125 0.706250
v 1.250000 1.303125 0.706250
v 1.290996 1.251880 0.640625
v 1.947246 1.776880 0.640625
vn 0.441726 -0.552158 0.707107
f 1089/1/273 1090/2/273 1091/3/273 1092/4/273
v 1.947246 1.776880 0.640625
v 1.290996 1.251880 0.640625
v 1.250000 1.303125 0.575000
v 1.906250 1.828125 0.575000
vn 0.441726 -0.552158 -0.707107
f 1093/1/274 1094/2/274 1095/3/274 1096/4/274
v 1.250000 1.303125 0.575000
v 1.290996 1.251880 0.640625
v 1.250000 1.303125 0.706250
v 1.209004 1.354370 0.640625
vn -0.780869 -0.624695 0.000000
f 1097/1/275 1098/2/275 1099/3/275 1100/4/275
v 1.906250 0.171875 0.575000
v 1.250000 0.496875 0.575000
v 1.279124 0.555683 0.640625
v 1.935374 0.230683 0.640625
vn 0.313812 0.633658 -0.707107
f 1101/1/276 1102/2/276 1103/3/276 1104/4/276
v 1.935374 0.230683 0.640625
v 1.279124 0.555683 0.640625
v 1.250000 0.496875 0.706250
v 1.906250 0.171875 0.706250
vn 0.313812 0.633658 0.707107
f 1105/1/277 1106/2/277 1107/3/277 1108/4/277
v 1.906250 0.171875 0.706250
v 1.250000 0.496875 0.706250
v 1.220876 0.438067 0.640625
v 1.877126 0.113067 0.640625
vn -0.313812 -0.633658 0.707107
f 1109/1/278 1110/2/278 1111/3/278 1112/4/278
v 1.877126 0.113067 0.640625
v 1.220876 0.438067 0.640625
v 1.250000 0.496875 0.575000
v 1.906250 0.171875 0.575000
vn -0.313812 -0.633658 -0.707107
f 1113/1/279 1114/2/279 1115/3/279 1116/4/279
v 1.250000 0.496875 0.575000
v 1.220876 0.438067 0.640625
v 1.250000 0.496875 0.706250
v 1.279124 0.555683 0.640625
vn -0.896128 0.443797 0.000000
f 1117/1/280 1118/2/280 1119/3/280 1120/4/280
