# Generated by scripts/gen_transformer_bank_mounts.py: placeholder geometry, replace with the final model.
mtllib transformer_bank_mount.mtl
o transformer_bank_mount_sce_3_center
vt 0 0
vt 1 0
vt 1 1
vt 0 1
usemtl metal
v 0.187500 -0.300000 1.000000
v 0.281250 -0.300000 1.000000
v 0.281250 2.300000 1.000000
v 0.187500 2.300000 1.000000
vn 0.000000 0.000000 1.000000
f 1/1/1 2/2/1 3/3/1 4/4/1
v 0.281250 -0.300000 0.812500
v 0.187500 -0.300000 0.812500
v 0.187500 2.300000 0.812500
v 0.281250 2.300000 0.812500
vn 0.000000 0.000000 -1.000000
f 5/1/2 6/2/2 7/3/2 8/4/2
v 0.281250 -0.300000 1.000000
v 0.281250 -0.300000 0.812500
v 0.281250 2.300000 0.812500
v 0.281250 2.300000 1.000000
vn 1.000000 -0.000000 0.000000
f 9/1/3 10/2/3 11/3/3 12/4/3
v 0.187500 -0.300000 0.812500
v 0.187500 -0.300000 1.000000
v 0.187500 2.300000 1.000000
v 0.187500 2.300000 0.812500
vn -1.000000 0.000000 0.000000
f 13/1/4 14/2/4 15/3/4 16/4/4
v 0.187500 2.300000 1.000000
v 0.281250 2.300000 1.000000
v 0.281250 2.300000 0.812500
v 0.187500 2.300000 0.812500
vn -0.000000 1.000000 0.000000
f 17/1/5 18/2/5 19/3/5 20/4/5
v 0.187500 -0.300000 0.812500
v 0.281250 -0.300000 0.812500
v 0.281250 -0.300000 1.000000
v 0.187500 -0.300000 1.000000
vn 0.000000 -1.000000 0.000000
f 21/1/6 22/2/6 23/3/6 24/4/6
v 0.718750 -0.300000 1.000000
v 0.812500 -0.300000 1.000000
v 0.812500 2.300000 1.000000
v 0.718750 2.300000 1.000000
vn 0.000000 0.000000 1.000000
f 25/1/7 26/2/7 27/3/7 28/4/7
v 0.812500 -0.300000 0.812500
v 0.718750 -0.300000 0.812500
v 0.718750 2.300000 0.812500
v 0.812500 2.300000 0.812500
vn 0.000000 0.000000 -1.000000
f 29/1/8 30/2/8 31/3/8 32/4/8
v 0.812500 -0.300000 1.000000
v 0.812500 -0.300000 0.812500
v 0.812500 2.300000 0.812500
v 0.812500 2.300000 1.000000
vn 1.000000 -0.000000 0.000000
f 33/1/9 34/2/9 35/3/9 36/4/9
v 0.718750 -0.300000 0.812500
v 0.718750 -0.300000 1.000000
v 0.718750 2.300000 1.000000
v 0.718750 2.300000 0.812500
vn -1.000000 0.000000 0.000000
f 37/1/10 38/2/10 39/3/10 40/4/10
v 0.718750 2.300000 1.000000
v 0.812500 2.300000 1.000000
v 0.812500 2.300000 0.812500
v 0.718750 2.300000 0.812500
vn -0.000000 1.000000 0.000000
f 41/1/11 42/2/11 43/3/11 44/4/11
v 0.718750 -0.300000 0.812500
v 0.812500 -0.300000 0.812500
v 0.812500 -0.300000 1.000000
v 0.718750 -0.300000 1.000000
vn 0.000000 -1.000000 0.000000
f 45/1/12 46/2/12 47/3/12 48/4/12
v 0.187500 -0.300000 1.000000
v 0.812500 -0.300000 1.000000
v 0.812500 -0.206250 1.000000
v 0.187500 -0.206250 1.000000
vn 0.000000 0.000000 1.000000
f 49/1/13 50/2/13 51/3/13 52/4/13
v 0.812500 -0.300000 0.812500
v 0.187500 -0.300000 0.812500
v 0.187500 -0.206250 0.812500
v 0.812500 -0.206250 0.812500
vn 0.000000 0.000000 -1.000000
f 53/1/14 54/2/14 55/3/14 56/4/14
v 0.812500 -0.300000 1.000000
v 0.812500 -0.300000 0.812500
v 0.812500 -0.206250 0.812500
v 0.812500 -0.206250 1.000000
vn 1.000000 -0.000000 0.000000
f 57/1/15 58/2/15 59/3/15 60/4/15
v 0.187500 -0.300000 0.812500
v 0.187500 -0.300000 1.000000
v 0.187500 -0.206250 1.000000
v 0.187500 -0.206250 0.812500
vn -1.000000 0.000000 0.000000
f 61/1/16 62/2/16 63/3/16 64/4/16
v 0.187500 -0.206250 1.000000
v 0.812500 -0.206250 1.000000
v 0.812500 -0.206250 0.812500
v 0.187500 -0.206250 0.812500
vn -0.000000 1.000000 0.000000
f 65/1/17 66/2/17 67/3/17 68/4/17
v 0.187500 -0.300000 0.812500
v 0.812500 -0.300000 0.812500
v 0.812500 -0.300000 1.000000
v 0.187500 -0.300000 1.000000
vn 0.000000 -1.000000 0.000000
f 69/1/18 70/2/18 71/3/18 72/4/18
v 0.187500 2.206250 1.000000
v 0.812500 2.206250 1.000000
v 0.812500 2.300000 1.000000
v 0.187500 2.300000 1.000000
vn 0.000000 0.000000 1.000000
f 73/1/19 74/2/19 75/3/19 76/4/19
v 0.812500 2.206250 0.812500
v 0.187500 2.206250 0.812500
v 0.187500 2.300000 0.812500
v 0.812500 2.300000 0.812500
vn 0.000000 0.000000 -1.000000
f 77/1/20 78/2/20 79/3/20 80/4/20
v 0.812500 2.206250 1.000000
v 0.812500 2.206250 0.812500
v 0.812500 2.300000 0.812500
v 0.812500 2.300000 1.000000
vn 1.000000 -0.000000 0.000000
f 81/1/21 82/2/21 83/3/21 84/4/21
v 0.187500 2.206250 0.812500
v 0.187500 2.206250 1.000000
v 0.187500 2.300000 1.000000
v 0.187500 2.300000 0.812500
vn -1.000000 0.000000 0.000000
f 85/1/22 86/2/22 87/3/22 88/4/22
v 0.187500 2.300000 1.000000
v 0.812500 2.300000 1.000000
v 0.812500 2.300000 0.812500
v 0.187500 2.300000 0.812500
vn -0.000000 1.000000 0.000000
f 89/1/23 90/2/23 91/3/23 92/4/23
v 0.187500 2.206250 0.812500
v 0.812500 2.206250 0.812500
v 0.812500 2.206250 1.000000
v 0.187500 2.206250 1.000000
vn 0.000000 -1.000000 0.000000
f 93/1/24 94/2/24 95/3/24 96/4/24
v 0.000000 0.187500 0.093750
v 1.000000 0.187500 0.093750
v 1.000000 0.281250 0.093750
v 0.000000 0.281250 0.093750
vn 0.000000 0.000000 1.000000
f 97/1/25 98/2/25 99/3/25 100/4/25
v 1.000000 0.187500 0.000000
v 0.000000 0.187500 0.000000
v 0.000000 0.281250 0.000000
v 1.000000 0.281250 0.000000
vn 0.000000 0.000000 -1.000000
f 101/1/26 102/2/26 103/3/26 104/4/26
v 1.000000 0.187500 0.093750
v 1.000000 0.187500 0.000000
v 1.000000 0.281250 0.000000
v 1.000000 0.281250 0.093750
vn 1.000000 -0.000000 0.000000
f 105/1/27 106/2/27 107/3/27 108/4/27
v 0.000000 0.187500 0.000000
v 0.000000 0.187500 0.093750
v 0.000000 0.281250 0.093750
v 0.000000 0.281250 0.000000
vn -1.000000 0.000000 0.000000
f 109/1/28 110/2/28 111/3/28 112/4/28
v 0.000000 0.281250 0.093750
v 1.000000 0.281250 0.093750
v 1.000000 0.281250 0.000000
v 0.000000 0.281250 0.000000
vn -0.000000 1.000000 0.000000
f 113/1/29 114/2/29 115/3/29 116/4/29
v 0.000000 0.187500 0.000000
v 1.000000 0.187500 0.000000
v 1.000000 0.187500 0.093750
v 0.000000 0.187500 0.093750
vn 0.000000 -1.000000 0.000000
f 117/1/30 118/2/30 119/3/30 120/4/30
v 0.000000 0.468750 0.093750
v 1.000000 0.468750 0.093750
v 1.000000 0.562500 0.093750
v 0.000000 0.562500 0.093750
vn 0.000000 0.000000 1.000000
f 121/1/31 122/2/31 123/3/31 124/4/31
v 1.000000 0.468750 0.000000
v 0.000000 0.468750 0.000000
v 0.000000 0.562500 0.000000
v 1.000000 0.562500 0.000000
vn 0.000000 0.000000 -1.000000
f 125/1/32 126/2/32 127/3/32 128/4/32
v 1.000000 0.468750 0.093750
v 1.000000 0.468750 0.000000
v 1.000000 0.562500 0.000000
v 1.000000 0.562500 0.093750
vn 1.000000 -0.000000 0.000000
f 129/1/33 130/2/33 131/3/33 132/4/33
v 0.000000 0.468750 0.000000
v 0.000000 0.468750 0.093750
v 0.000000 0.562500 0.093750
v 0.000000 0.562500 0.000000
vn -1.000000 0.000000 0.000000
f 133/1/34 134/2/34 135/3/34 136/4/34
v 0.000000 0.562500 0.093750
v 1.000000 0.562500 0.093750
v 1.000000 0.562500 0.000000
v 0.000000 0.562500 0.000000
vn -0.000000 1.000000 0.000000
f 137/1/35 138/2/35 139/3/35 140/4/35
v 0.000000 0.468750 0.000000
v 1.000000 0.468750 0.000000
v 1.000000 0.468750 0.093750
v 0.000000 0.468750 0.093750
vn 0.000000 -1.000000 0.000000
f 141/1/36 142/2/36 143/3/36 144/4/36
v 0.000000 0.187500 0.812500
v 0.093750 0.187500 0.812500
v 0.093750 0.281250 0.812500
v 0.000000 0.281250 0.812500
vn 0.000000 0.000000 1.000000
f 145/1/37 146/2/37 147/3/37 148/4/37
v 0.093750 0.187500 0.000000
v 0.000000 0.187500 0.000000
v 0.000000 0.281250 0.000000
v 0.093750 0.281250 0.000000
vn 0.000000 0.000000 -1.000000
f 149/1/38 150/2/38 151/3/38 152/4/38
v 0.093750 0.187500 0.812500
v 0.093750 0.187500 0.000000
v 0.093750 0.281250 0.000000
v 0.093750 0.281250 0.812500
vn 1.000000 -0.000000 0.000000
f 153/1/39 154/2/39 155/3/39 156/4/39
v 0.000000 0.187500 0.000000
v 0.000000 0.187500 0.812500
v 0.000000 0.281250 0.812500
v 0.000000 0.281250 0.000000
vn -1.000000 0.000000 0.000000
f 157/1/40 158/2/40 159/3/40 160/4/40
v 0.000000 0.281250 0.812500
v 0.093750 0.281250 0.812500
v 0.093750 0.281250 0.000000
v 0.000000 0.281250 0.000000
vn -0.000000 1.000000 0.000000
f 161/1/41 162/2/41 163/3/41 164/4/41
v 0.000000 0.187500 0.000000
v 0.093750 0.187500 0.000000
v 0.093750 0.187500 0.812500
v 0.000000 0.187500 0.812500
vn 0.000000 -1.000000 0.000000
f 165/1/42 166/2/42 167/3/42 168/4/42
v 0.000000 0.468750 0.812500
v 0.093750 0.468750 0.812500
v 0.093750 0.562500 0.812500
v 0.000000 0.562500 0.812500
vn 0.000000 0.000000 1.000000
f 169/1/43 170/2/43 171/3/43 172/4/43
v 0.093750 0.468750 0.000000
v 0.000000 0.468750 0.000000
v 0.000000 0.562500 0.000000
v 0.093750 0.562500 0.000000
vn 0.000000 0.000000 -1.000000
f 173/1/44 174/2/44 175/3/44 176/4/44
v 0.093750 0.468750 0.812500
v 0.093750 0.468750 0.000000
v 0.093750 0.562500 0.000000
v 0.093750 0.562500 0.812500
vn 1.000000 -0.000000 0.000000
f 177/1/45 178/2/45 179/3/45 180/4/45
v 0.000000 0.468750 0.000000
v 0.000000 0.468750 0.812500
v 0.000000 0.562500 0.812500
v 0.000000 0.562500 0.000000
vn -1.000000 0.000000 0.000000
f 181/1/46 182/2/46 183/3/46 184/4/46
v 0.000000 0.562500 0.812500
v 0.093750 0.562500 0.812500
v 0.093750 0.562500 0.000000
v 0.000000 0.562500 0.000000
vn -0.000000 1.000000 0.000000
f 185/1/47 186/2/47 187/3/47 188/4/47
v 0.000000 0.468750 0.000000
v 0.093750 0.468750 0.000000
v 0.093750 0.468750 0.812500
v 0.000000 0.468750 0.812500
vn 0.000000 -1.000000 0.000000
f 189/1/48 190/2/48 191/3/48 192/4/48
v 0.906250 0.187500 0.812500
v 1.000000 0.187500 0.812500
v 1.000000 0.281250 0.812500
v 0.906250 0.281250 0.812500
vn 0.000000 0.000000 1.000000
f 193/1/49 194/2/49 195/3/49 196/4/49
v 1.000000 0.187500 0.000000
v 0.906250 0.187500 0.000000
v 0.906250 0.281250 0.000000
v 1.000000 0.281250 0.000000
vn 0.000000 0.000000 -1.000000
f 197/1/50 198/2/50 199/3/50 200/4/50
v 1.000000 0.187500 0.812500
v 1.000000 0.187500 0.000000
v 1.000000 0.281250 0.000000
v 1.000000 0.281250 0.812500
vn 1.000000 -0.000000 0.000000
f 201/1/51 202/2/51 203/3/51 204/4/51
v 0.906250 0.187500 0.000000
v 0.906250 0.187500 0.812500
v 0.906250 0.281250 0.812500
v 0.906250 0.281250 0.000000
vn -1.000000 0.000000 0.000000
f 205/1/52 206/2/52 207/3/52 208/4/52
v 0.906250 0.281250 0.812500
v 1.000000 0.281250 0.812500
v 1.000000 0.281250 0.000000
v 0.906250 0.281250 0.000000
vn -0.000000 1.000000 0.000000
f 209/1/53 210/2/53 211/3/53 212/4/53
v 0.906250 0.187500 0.000000
v 1.000000 0.187500 0.000000
v 1.000000 0.187500 0.812500
v 0.906250 0.187500 0.812500
vn 0.000000 -1.000000 0.000000
f 213/1/54 214/2/54 215/3/54 216/4/54
v 0.906250 0.468750 0.812500
v 1.000000 0.468750 0.812500
v 1.000000 0.562500 0.812500
v 0.906250 0.562500 0.812500
vn 0.000000 0.000000 1.000000
f 217/1/55 218/2/55 219/3/55 220/4/55
v 1.000000 0.468750 0.000000
v 0.906250 0.468750 0.000000
v 0.906250 0.562500 0.000000
v 1.000000 0.562500 0.000000
vn 0.000000 0.000000 -1.000000
f 221/1/56 222/2/56 223/3/56 224/4/56
v 1.000000 0.468750 0.812500
v 1.000000 0.468750 0.000000
v 1.000000 0.562500 0.000000
v 1.000000 0.562500 0.812500
vn 1.000000 -0.000000 0.000000
f 225/1/57 226/2/57 227/3/57 228/4/57
v 0.906250 0.468750 0.000000
v 0.906250 0.468750 0.812500
v 0.906250 0.562500 0.812500
v 0.906250 0.562500 0.000000
vn -1.000000 0.000000 0.000000
f 229/1/58 230/2/58 231/3/58 232/4/58
v 0.906250 0.562500 0.812500
v 1.000000 0.562500 0.812500
v 1.000000 0.562500 0.000000
v 0.906250 0.562500 0.000000
vn -0.000000 1.000000 0.000000
f 233/1/59 234/2/59 235/3/59 236/4/59
v 0.906250 0.468750 0.000000
v 1.000000 0.468750 0.000000
v 1.000000 0.468750 0.812500
v 0.906250 0.468750 0.812500
vn 0.000000 -1.000000 0.000000
f 237/1/60 238/2/60 239/3/60 240/4/60
v 0.000000 1.437500 0.093750
v 1.000000 1.437500 0.093750
v 1.000000 1.531250 0.093750
v 0.000000 1.531250 0.093750
vn 0.000000 0.000000 1.000000
f 241/1/61 242/2/61 243/3/61 244/4/61
v 1.000000 1.437500 0.000000
v 0.000000 1.437500 0.000000
v 0.000000 1.531250 0.000000
v 1.000000 1.531250 0.000000
vn 0.000000 0.000000 -1.000000
f 245/1/62 246/2/62 247/3/62 248/4/62
v 1.000000 1.437500 0.093750
v 1.000000 1.437500 0.000000
v 1.000000 1.531250 0.000000
v 1.000000 1.531250 0.093750
vn 1.000000 -0.000000 0.000000
f 249/1/63 250/2/63 251/3/63 252/4/63
v 0.000000 1.437500 0.000000
v 0.000000 1.437500 0.093750
v 0.000000 1.531250 0.093750
v 0.000000 1.531250 0.000000
vn -1.000000 0.000000 0.000000
f 253/1/64 254/2/64 255/3/64 256/4/64
v 0.000000 1.531250 0.093750
v 1.000000 1.531250 0.093750
v 1.000000 1.531250 0.000000
v 0.000000 1.531250 0.000000
vn -0.000000 1.000000 0.000000
f 257/1/65 258/2/65 259/3/65 260/4/65
v 0.000000 1.437500 0.000000
v 1.000000 1.437500 0.000000
v 1.000000 1.437500 0.093750
v 0.000000 1.437500 0.093750
vn 0.000000 -1.000000 0.000000
f 261/1/66 262/2/66 263/3/66 264/4/66
v 0.000000 1.718750 0.093750
v 1.000000 1.718750 0.093750
v 1.000000 1.812500 0.093750
v 0.000000 1.812500 0.093750
vn 0.000000 0.000000 1.000000
f 265/1/67 266/2/67 267/3/67 268/4/67
v 1.000000 1.718750 0.000000
v 0.000000 1.718750 0.000000
v 0.000000 1.812500 0.000000
v 1.000000 1.812500 0.000000
vn 0.000000 0.000000 -1.000000
f 269/1/68 270/2/68 271/3/68 272/4/68
v 1.000000 1.718750 0.093750
v 1.000000 1.718750 0.000000
v 1.000000 1.812500 0.000000
v 1.000000 1.812500 0.093750
vn 1.000000 -0.000000 0.000000
f 273/1/69 274/2/69 275/3/69 276/4/69
v 0.000000 1.718750 0.000000
v 0.000000 1.718750 0.093750
v 0.000000 1.812500 0.093750
v 0.000000 1.812500 0.000000
vn -1.000000 0.000000 0.000000
f 277/1/70 278/2/70 279/3/70 280/4/70
v 0.000000 1.812500 0.093750
v 1.000000 1.812500 0.093750
v 1.000000 1.812500 0.000000
v 0.000000 1.812500 0.000000
vn -0.000000 1.000000 0.000000
f 281/1/71 282/2/71 283/3/71 284/4/71
v 0.000000 1.718750 0.000000
v 1.000000 1.718750 0.000000
v 1.000000 1.718750 0.093750
v 0.000000 1.718750 0.093750
vn 0.000000 -1.000000 0.000000
f 285/1/72 286/2/72 287/3/72 288/4/72
v 0.000000 1.437500 0.812500
v 0.093750 1.437500 0.812500
v 0.093750 1.531250 0.812500
v 0.000000 1.531250 0.812500
vn 0.000000 0.000000 1.000000
f 289/1/73 290/2/73 291/3/73 292/4/73
v 0.093750 1.437500 0.000000
v 0.000000 1.437500 0.000000
v 0.000000 1.531250 0.000000
v 0.093750 1.531250 0.000000
vn 0.000000 0.000000 -1.000000
f 293/1/74 294/2/74 295/3/74 296/4/74
v 0.093750 1.437500 0.812500
v 0.093750 1.437500 0.000000
v 0.093750 1.531250 0.000000
v 0.093750 1.531250 0.812500
vn 1.000000 -0.000000 0.000000
f 297/1/75 298/2/75 299/3/75 300/4/75
v 0.000000 1.437500 0.000000
v 0.000000 1.437500 0.812500
v 0.000000 1.531250 0.812500
v 0.000000 1.531250 0.000000
vn -1.000000 0.000000 0.000000
f 301/1/76 302/2/76 303/3/76 304/4/76
v 0.000000 1.531250 0.812500
v 0.093750 1.531250 0.812500
v 0.093750 1.531250 0.000000
v 0.000000 1.531250 0.000000
vn -0.000000 1.000000 0.000000
f 305/1/77 306/2/77 307/3/77 308/4/77
v 0.000000 1.437500 0.000000
v 0.093750 1.437500 0.000000
v 0.093750 1.437500 0.812500
v 0.000000 1.437500 0.812500
vn 0.000000 -1.000000 0.000000
f 309/1/78 310/2/78 311/3/78 312/4/78
v 0.000000 1.718750 0.812500
v 0.093750 1.718750 0.812500
v 0.093750 1.812500 0.812500
v 0.000000 1.812500 0.812500
vn 0.000000 0.000000 1.000000
f 313/1/79 314/2/79 315/3/79 316/4/79
v 0.093750 1.718750 0.000000
v 0.000000 1.718750 0.000000
v 0.000000 1.812500 0.000000
v 0.093750 1.812500 0.000000
vn 0.000000 0.000000 -1.000000
f 317/1/80 318/2/80 319/3/80 320/4/80
v 0.093750 1.718750 0.812500
v 0.093750 1.718750 0.000000
v 0.093750 1.812500 0.000000
v 0.093750 1.812500 0.812500
vn 1.000000 -0.000000 0.000000
f 321/1/81 322/2/81 323/3/81 324/4/81
v 0.000000 1.718750 0.000000
v 0.000000 1.718750 0.812500
v 0.000000 1.812500 0.812500
v 0.000000 1.812500 0.000000
vn -1.000000 0.000000 0.000000
f 325/1/82 326/2/82 327/3/82 328/4/82
v 0.000000 1.812500 0.812500
v 0.093750 1.812500 0.812500
v 0.093750 1.812500 0.000000
v 0.000000 1.812500 0.000000
vn -0.000000 1.000000 0.000000
f 329/1/83 330/2/83 331/3/83 332/4/83
v 0.000000 1.718750 0.000000
v 0.093750 1.718750 0.000000
v 0.093750 1.718750 0.812500
v 0.000000 1.718750 0.812500
vn 0.000000 -1.000000 0.000000
f 333/1/84 334/2/84 335/3/84 336/4/84
v 0.906250 1.437500 0.812500
v 1.000000 1.437500 0.812500
v 1.000000 1.531250 0.812500
v 0.906250 1.531250 0.812500
vn 0.000000 0.000000 1.000000
f 337/1/85 338/2/85 339/3/85 340/4/85
v 1.000000 1.437500 0.000000
v 0.906250 1.437500 0.000000
v 0.906250 1.531250 0.000000
v 1.000000 1.531250 0.000000
vn 0.000000 0.000000 -1.000000
f 341/1/86 342/2/86 343/3/86 344/4/86
v 1.000000 1.437500 0.812500
v 1.000000 1.437500 0.000000
v 1.000000 1.531250 0.000000
v 1.000000 1.531250 0.812500
vn 1.000000 -0.000000 0.000000
f 345/1/87 346/2/87 347/3/87 348/4/87
v 0.906250 1.437500 0.000000
v 0.906250 1.437500 0.812500
v 0.906250 1.531250 0.812500
v 0.906250 1.531250 0.000000
vn -1.000000 0.000000 0.000000
f 349/1/88 350/2/88 351/3/88 352/4/88
v 0.906250 1.531250 0.812500
v 1.000000 1.531250 0.812500
v 1.000000 1.531250 0.000000
v 0.906250 1.531250 0.000000
vn -0.000000 1.000000 0.000000
f 353/1/89 354/2/89 355/3/89 356/4/89
v 0.906250 1.437500 0.000000
v 1.000000 1.437500 0.000000
v 1.000000 1.437500 0.812500
v 0.906250 1.437500 0.812500
vn 0.000000 -1.000000 0.000000
f 357/1/90 358/2/90 359/3/90 360/4/90
v 0.906250 1.718750 0.812500
v 1.000000 1.718750 0.812500
v 1.000000 1.812500 0.812500
v 0.906250 1.812500 0.812500
vn 0.000000 0.000000 1.000000
f 361/1/91 362/2/91 363/3/91 364/4/91
v 1.000000 1.718750 0.000000
v 0.906250 1.718750 0.000000
v 0.906250 1.812500 0.000000
v 1.000000 1.812500 0.000000
vn 0.000000 0.000000 -1.000000
f 365/1/92 366/2/92 367/3/92 368/4/92
v 1.000000 1.718750 0.812500
v 1.000000 1.718750 0.000000
v 1.000000 1.812500 0.000000
v 1.000000 1.812500 0.812500
vn 1.000000 -0.000000 0.000000
f 369/1/93 370/2/93 371/3/93 372/4/93
v 0.906250 1.718750 0.000000
v 0.906250 1.718750 0.812500
v 0.906250 1.812500 0.812500
v 0.906250 1.812500 0.000000
vn -1.000000 0.000000 0.000000
f 373/1/94 374/2/94 375/3/94 376/4/94
v 0.906250 1.812500 0.812500
v 1.000000 1.812500 0.812500
v 1.000000 1.812500 0.000000
v 0.906250 1.812500 0.000000
vn -0.000000 1.000000 0.000000
f 377/1/95 378/2/95 379/3/95 380/4/95
v 0.906250 1.718750 0.000000
v 1.000000 1.718750 0.000000
v 1.000000 1.718750 0.812500
v 0.906250 1.718750 0.812500
vn 0.000000 -1.000000 0.000000
f 381/1/96 382/2/96 383/3/96 384/4/96
v 0.000000 0.187500 0.093750
v 0.093750 0.187500 0.093750
v 0.093750 1.812500 0.093750
v 0.000000 1.812500 0.093750
vn 0.000000 0.000000 1.000000
f 385/1/97 386/2/97 387/3/97 388/4/97
v 0.093750 0.187500 0.000000
v 0.000000 0.187500 0.000000
v 0.000000 1.812500 0.000000
v 0.093750 1.812500 0.000000
vn 0.000000 0.000000 -1.000000
f 389/1/98 390/2/98 391/3/98 392/4/98
v 0.093750 0.187500 0.093750
v 0.093750 0.187500 0.000000
v 0.093750 1.812500 0.000000
v 0.093750 1.812500 0.093750
vn 1.000000 -0.000000 0.000000
f 393/1/99 394/2/99 395/3/99 396/4/99
v 0.000000 0.187500 0.000000
v 0.000000 0.187500 0.093750
v 0.000000 1.812500 0.093750
v 0.000000 1.812500 0.000000
vn -1.000000 0.000000 0.000000
f 397/1/100 398/2/100 399/3/100 400/4/100
v 0.000000 1.812500 0.093750
v 0.093750 1.812500 0.093750
v 0.093750 1.812500 0.000000
v 0.000000 1.812500 0.000000
vn -0.000000 1.000000 0.000000
f 401/1/101 402/2/101 403/3/101 404/4/101
v 0.000000 0.187500 0.000000
v 0.093750 0.187500 0.000000
v 0.093750 0.187500 0.093750
v 0.000000 0.187500 0.093750
vn 0.000000 -1.000000 0.000000
f 405/1/102 406/2/102 407/3/102 408/4/102
v 0.000000 0.187500 0.812500
v 0.093750 0.187500 0.812500
v 0.093750 1.812500 0.812500
v 0.000000 1.812500 0.812500
vn 0.000000 0.000000 1.000000
f 409/1/103 410/2/103 411/3/103 412/4/103
v 0.093750 0.187500 0.718750
v 0.000000 0.187500 0.718750
v 0.000000 1.812500 0.718750
v 0.093750 1.812500 0.718750
vn 0.000000 0.000000 -1.000000
f 413/1/104 414/2/104 415/3/104 416/4/104
v 0.093750 0.187500 0.812500
v 0.093750 0.187500 0.718750
v 0.093750 1.812500 0.718750
v 0.093750 1.812500 0.812500
vn 1.000000 -0.000000 0.000000
f 417/1/105 418/2/105 419/3/105 420/4/105
v 0.000000 0.187500 0.718750
v 0.000000 0.187500 0.812500
v 0.000000 1.812500 0.812500
v 0.000000 1.812500 0.718750
vn -1.000000 0.000000 0.000000
f 421/1/106 422/2/106 423/3/106 424/4/106
v 0.000000 1.812500 0.812500
v 0.093750 1.812500 0.812500
v 0.093750 1.812500 0.718750
v 0.000000 1.812500 0.718750
vn -0.000000 1.000000 0.000000
f 425/1/107 426/2/107 427/3/107 428/4/107
v 0.000000 0.187500 0.718750
v 0.093750 0.187500 0.718750
v 0.093750 0.187500 0.812500
v 0.000000 0.187500 0.812500
vn 0.000000 -1.000000 0.000000
f 429/1/108 430/2/108 431/3/108 432/4/108
v 0.906250 0.187500 0.093750
v 1.000000 0.187500 0.093750
v 1.000000 1.812500 0.093750
v 0.906250 1.812500 0.093750
vn 0.000000 0.000000 1.000000
f 433/1/109 434/2/109 435/3/109 436/4/109
v 1.000000 0.187500 0.000000
v 0.906250 0.187500 0.000000
v 0.906250 1.812500 0.000000
v 1.000000 1.812500 0.000000
vn 0.000000 0.000000 -1.000000
f 437/1/110 438/2/110 439/3/110 440/4/110
v 1.000000 0.187500 0.093750
v 1.000000 0.187500 0.000000
v 1.000000 1.812500 0.000000
v 1.000000 1.812500 0.093750
vn 1.000000 -0.000000 0.000000
f 441/1/111 442/2/111 443/3/111 444/4/111
v 0.906250 0.187500 0.000000
v 0.906250 0.187500 0.093750
v 0.906250 1.812500 0.093750
v 0.906250 1.812500 0.000000
vn -1.000000 0.000000 0.000000
f 445/1/112 446/2/112 447/3/112 448/4/112
v 0.906250 1.812500 0.093750
v 1.000000 1.812500 0.093750
v 1.000000 1.812500 0.000000
v 0.906250 1.812500 0.000000
vn -0.000000 1.000000 0.000000
f 449/1/113 450/2/113 451/3/113 452/4/113
v 0.906250 0.187500 0.000000
v 1.000000 0.187500 0.000000
v 1.000000 0.187500 0.093750
v 0.906250 0.187500 0.093750
vn 0.000000 -1.000000 0.000000
f 453/1/114 454/2/114 455/3/114 456/4/114
v 0.906250 0.187500 0.812500
v 1.000000 0.187500 0.812500
v 1.000000 1.812500 0.812500
v 0.906250 1.812500 0.812500
vn 0.000000 0.000000 1.000000
f 457/1/115 458/2/115 459/3/115 460/4/115
v 1.000000 0.187500 0.718750
v 0.906250 0.187500 0.718750
v 0.906250 1.812500 0.718750
v 1.000000 1.812500 0.718750
vn 0.000000 0.000000 -1.000000
f 461/1/116 462/2/116 463/3/116 464/4/116
v 1.000000 0.187500 0.812500
v 1.000000 0.187500 0.718750
v 1.000000 1.812500 0.718750
v 1.000000 1.812500 0.812500
vn 1.000000 -0.000000 0.000000
f 465/1/117 466/2/117 467/3/117 468/4/117
v 0.906250 0.187500 0.718750
v 0.906250 0.187500 0.812500
v 0.906250 1.812500 0.812500
v 0.906250 1.812500 0.718750
vn -1.000000 0.000000 0.000000
f 469/1/118 470/2/118 471/3/118 472/4/118
v 0.906250 1.812500 0.812500
v 1.000000 1.812500 0.812500
v 1.000000 1.812500 0.718750
v 0.906250 1.812500 0.718750
vn -0.000000 1.000000 0.000000
f 473/1/119 474/2/119 475/3/119 476/4/119
v 0.906250 0.187500 0.718750
v 1.000000 0.187500 0.718750
v 1.000000 0.187500 0.812500
v 0.906250 0.187500 0.812500
vn 0.000000 -1.000000 0.000000
f 477/1/120 478/2/120 479/3/120 480/4/120
usemtl clamp
v 0.125000 0.150000 1.031250
v 0.875000 0.150000 1.031250
v 0.875000 0.400000 1.031250
v 0.125000 0.400000 1.031250
vn 0.000000 0.000000 1.000000
f 481/1/121 482/2/121 483/3/121 484/4/121
v 0.875000 0.150000 0.968750
v 0.125000 0.150000 0.968750
v 0.125000 0.400000 0.968750
v 0.875000 0.400000 0.968750
vn 0.000000 0.000000 -1.000000
f 485/1/122 486/2/122 487/3/122 488/4/122
v 0.875000 0.150000 1.031250
v 0.875000 0.150000 0.968750
v 0.875000 0.400000 0.968750
v 0.875000 0.400000 1.031250
vn 1.000000 -0.000000 0.000000
f 489/1/123 490/2/123 491/3/123 492/4/123
v 0.125000 0.150000 0.968750
v 0.125000 0.150000 1.031250
v 0.125000 0.400000 1.031250
v 0.125000 0.400000 0.968750
vn -1.000000 0.000000 0.000000
f 493/1/124 494/2/124 495/3/124 496/4/124
v 0.125000 0.400000 1.031250
v 0.875000 0.400000 1.031250
v 0.875000 0.400000 0.968750
v 0.125000 0.400000 0.968750
vn -0.000000 1.000000 0.000000
f 497/1/125 498/2/125 499/3/125 500/4/125
v 0.125000 0.150000 0.968750
v 0.875000 0.150000 0.968750
v 0.875000 0.150000 1.031250
v 0.125000 0.150000 1.031250
vn 0.000000 -1.000000 0.000000
f 501/1/126 502/2/126 503/3/126 504/4/126
v 0.125000 1.600000 1.031250
v 0.875000 1.600000 1.031250
v 0.875000 1.850000 1.031250
v 0.125000 1.850000 1.031250
vn 0.000000 0.000000 1.000000
f 505/1/127 506/2/127 507/3/127 508/4/127
v 0.875000 1.600000 0.968750
v 0.125000 1.600000 0.968750
v 0.125000 1.850000 0.968750
v 0.875000 1.850000 0.968750
vn 0.000000 0.000000 -1.000000
f 509/1/128 510/2/128 511/3/128 512/4/128
v 0.875000 1.600000 1.031250
v 0.875000 1.600000 0.968750
v 0.875000 1.850000 0.968750
v 0.875000 1.850000 1.031250
vn 1.000000 -0.000000 0.000000
f 513/1/129 514/2/129 515/3/129 516/4/129
v 0.125000 1.600000 0.968750
v 0.125000 1.600000 1.031250
v 0.125000 1.850000 1.031250
v 0.125000 1.850000 0.968750
vn -1.000000 0.000000 0.000000
f 517/1/130 518/2/130 519/3/130 520/4/130
v 0.125000 1.850000 1.031250
v 0.875000 1.850000 1.031250
v 0.875000 1.850000 0.968750
v 0.125000 1.850000 0.968750
vn -0.000000 1.000000 0.000000
f 521/1/131 522/2/131 523/3/131 524/4/131
v 0.125000 1.600000 0.968750
v 0.875000 1.600000 0.968750
v 0.875000 1.600000 1.031250
v 0.125000 1.600000 1.031250
vn 0.000000 -1.000000 0.000000
f 525/1/132 526/2/132 527/3/132 528/4/132
