# Generated by scripts/gen_crossarms.py
mtllib alley.mtl
o crossarm_alley_metal_5_r
vt 0 0
vt 1 0
vt 1 1
vt 0 1
usemtl clamp
v 0.343750 0.125000 1.000000
v 0.656250 0.125000 1.000000
v 0.656250 0.437500 1.000000
v 0.343750 0.437500 1.000000
vn 0.000000 0.000000 1.000000
f 1/1/1 2/2/1 3/3/1 4/4/1
v 0.656250 0.125000 0.962500
v 0.343750 0.125000 0.962500
v 0.343750 0.437500 0.962500
v 0.656250 0.437500 0.962500
vn 0.000000 0.000000 -1.000000
f 5/1/2 6/2/2 7/3/2 8/4/2
v 0.656250 0.125000 1.000000
v 0.656250 0.125000 0.962500
v 0.656250 0.437500 0.962500
v 0.656250 0.437500 1.000000
vn 1.000000 -0.000000 0.000000
f 9/1/3 10/2/3 11/3/3 12/4/3
v 0.343750 0.125000 0.962500
v 0.343750 0.125000 1.000000
v 0.343750 0.437500 1.000000
v 0.343750 0.437500 0.962500
vn -1.000000 0.000000 0.000000
f 13/1/4 14/2/4 15/3/4 16/4/4
v 0.343750 0.437500 1.000000
v 0.656250 0.437500 1.000000
v 0.656250 0.437500 0.962500
v 0.343750 0.437500 0.962500
vn -0.000000 1.000000 0.000000
f 17/1/5 18/2/5 19/3/5 20/4/5
v 0.343750 0.125000 0.962500
v 0.656250 0.125000 0.962500
v 0.656250 0.125000 1.000000
v 0.343750 0.125000 1.000000
vn 0.000000 -1.000000 0.000000
f 21/1/6 22/2/6 23/3/6 24/4/6
usemtl strap
v 0.599728 0.281250 0.999641
v 3.505978 1.718750 0.649641
v 3.478118 1.763630 0.602635
v 0.571868 0.326130 0.952635
vn -0.224906 0.634705 0.739302
f 25/1/7 26/2/7 27/3/7 28/4/7
v 0.571868 0.326130 0.952635
v 3.478118 1.763630 0.602635
v 3.494022 1.718750 0.550359
v 0.587772 0.281250 0.900359
vn -0.393998 0.634705 -0.664767
f 29/1/8 30/2/8 31/3/8 32/4/8
v 0.587772 0.281250 0.900359
v 3.494022 1.718750 0.550359
v 3.521882 1.673870 0.597365
v 0.615632 0.236370 0.947365
vn 0.224906 -0.634705 -0.739302
f 33/1/9 34/2/9 35/3/9 36/4/9
v 0.615632 0.236370 0.947365
v 3.521882 1.673870 0.597365
v 3.505978 1.718750 0.649641
v 0.599728 0.281250 0.999641
vn 0.393998 -0.634705 0.664767
f 37/1/10 38/2/10 39/3/10 40/4/10
v 3.505978 1.718750 0.649641
v 3.521882 1.673870 0.597365
v 3.494022 1.718750 0.550359
v 3.478118 1.763630 0.602635
vn 0.891169 0.440793 -0.107324
f 41/1/11 42/2/11 43/3/11 44/4/11
usemtl clamp
v 3.425000 1.643750 0.625000
v 3.575000 1.643750 0.625000
v 3.575000 1.793750 0.625000
v 3.425000 1.793750 0.625000
vn 0.000000 0.000000 1.000000
f 45/1/12 46/2/12 47/3/12 48/4/12
v 3.575000 1.643750 0.537500
v 3.425000 1.643750 0.537500
v 3.425000 1.793750 0.537500
v 3.575000 1.793750 0.537500
vn 0.000000 0.000000 -1.000000
f 49/1/13 50/2/13 51/3/13 52/4/13
v 3.575000 1.643750 0.625000
v 3.575000 1.643750 0.537500
v 3.575000 1.793750 0.537500
v 3.575000 1.793750 0.625000
vn 1.000000 -0.000000 0.000000
f 53/1/14 54/2/14 55/3/14 56/4/14
v 3.425000 1.643750 0.537500
v 3.425000 1.643750 0.625000
v 3.425000 1.793750 0.625000
v 3.425000 1.793750 0.537500
vn -1.000000 0.000000 0.000000
f 57/1/15 58/2/15 59/3/15 60/4/15
v 3.425000 1.793750 0.625000
v 3.575000 1.793750 0.625000
v 3.575000 1.793750 0.537500
v 3.425000 1.793750 0.537500
vn -0.000000 1.000000 0.000000
f 61/1/16 62/2/16 63/3/16 64/4/16
v 3.425000 1.643750 0.537500
v 3.575000 1.643750 0.537500
v 3.575000 1.643750 0.625000
v 3.425000 1.643750 0.625000
vn 0.000000 -1.000000 0.000000
f 65/1/17 66/2/17 67/3/17 68/4/17
